<svg id="background" xmlns="http://www.w3.org/2000/svg" viewBox="0 0 600 600"><defs><style>.cls-1{fill:#fff;}.cls-2{fill:#1b1b1b;}</style></defs><title>logos</title><rect class="cls-1" width="600" height="600"/><path class="cls-2" d="M246.8,364.52a21.86,21.86,0,0,1-1.56,8.34,19.52,19.52,0,0,1-4.39,6.61,19.92,19.92,0,0,1-6.82,4.35,24.14,24.14,0,0,1-8.86,1.56H209V343.69h16.2a24,24,0,0,1,8.86,1.57,20.22,20.22,0,0,1,6.82,4.35,19.38,19.38,0,0,1,4.39,6.6A21.79,21.79,0,0,1,246.8,364.52Zm-9.9,0a18.18,18.18,0,0,0-.8-5.58,11.92,11.92,0,0,0-2.3-4.22,10,10,0,0,0-3.68-2.66,12.49,12.49,0,0,0-4.95-.93H218.7v26.81h6.47a12.48,12.48,0,0,0,4.95-.93,10,10,0,0,0,3.68-2.66,11.92,11.92,0,0,0,2.3-4.22A18.27,18.27,0,0,0,236.9,364.52Z"/><path class="cls-2" d="M262,385.38h-9.73V343.69H262v41.69Z"/><path class="cls-2" d="M296.59,343.69v7.44H279.48v9.73h13.11V368H279.48v9.93h17.11v7.44H269.75V343.69h26.84Z"/><path class="cls-2" d="M325.32,352.16a3.63,3.63,0,0,1-.9,1,2,2,0,0,1-1.22.34,3,3,0,0,1-1.42-.41l-1.72-.93a14.3,14.3,0,0,0-2.19-.93,8.76,8.76,0,0,0-2.8-.42,6,6,0,0,0-4,1.16,3.94,3.94,0,0,0-1.33,3.13,2.89,2.89,0,0,0,.8,2.09,6.89,6.89,0,0,0,2.1,1.43,22.47,22.47,0,0,0,3,1.1q1.67,0.5,3.42,1.12a30.61,30.61,0,0,1,3.42,1.45,11.42,11.42,0,0,1,3,2.12,9.89,9.89,0,0,1,2.1,3.13,11.15,11.15,0,0,1,.8,4.45,14.5,14.5,0,0,1-1,5.41,12.67,12.67,0,0,1-2.9,4.39,13.49,13.49,0,0,1-4.69,2.95,17.56,17.56,0,0,1-6.34,1.07,20.3,20.3,0,0,1-4-.4,23.55,23.55,0,0,1-3.91-1.13,22.64,22.64,0,0,1-3.55-1.73,15.05,15.05,0,0,1-2.89-2.23l2.86-4.52a2.33,2.33,0,0,1,.89-0.83,2.51,2.51,0,0,1,1.23-.32,3.26,3.26,0,0,1,1.73.54l2,1.2a16,16,0,0,0,2.53,1.2,9.49,9.49,0,0,0,3.38.54,6.43,6.43,0,0,0,4.09-1.16,4.41,4.41,0,0,0,1.46-3.68,3.48,3.48,0,0,0-.8-2.38,6.19,6.19,0,0,0-2.1-1.52,19.43,19.43,0,0,0-3-1.06q-1.66-.46-3.41-1a24.84,24.84,0,0,1-3.4-1.37,10.74,10.74,0,0,1-3-2.15,10,10,0,0,1-2.1-3.32,13.19,13.19,0,0,1-.8-4.91,11.65,11.65,0,0,1,.94-4.58,11.81,11.81,0,0,1,2.78-4,13.65,13.65,0,0,1,4.49-2.79,16.59,16.59,0,0,1,6.09-1,22.87,22.87,0,0,1,3.73.3,19.67,19.67,0,0,1,3.45.89,18.94,18.94,0,0,1,3,1.4,14,14,0,0,1,2.53,1.85Z"/><path class="cls-2" d="M359.94,343.69v7.44H342.83v9.73h13.11V368H342.83v9.93h17.11v7.44H333.1V343.69h26.84Z"/><path class="cls-2" d="M375.11,377.66h15.45v7.73H365.43V343.69h9.67v34Z"/><path class="cls-2" d="M225.35,416.75q0.23,0.59.46,1.19,0.22-.62.47-1.19t0.56-1.14L237.61,396a1.28,1.28,0,0,1,.6-0.62,2.77,2.77,0,0,1,.89-0.11h3.18v31.85H238.5v-23.4q0-.47,0-1t0.07-1.09l-10.91,19.91a1.71,1.71,0,0,1-1.56,1H225.5a1.71,1.71,0,0,1-1.56-1l-11.16-20q0.07,0.58.1,1.13t0,1v23.4h-3.78V395.29h3.18a2.77,2.77,0,0,1,.89.11,1.28,1.28,0,0,1,.6.62l11,19.6A8.31,8.31,0,0,1,225.35,416.75Z"/><path class="cls-2" d="M279.61,411.23a18.39,18.39,0,0,1-1.13,6.57,15,15,0,0,1-3.2,5.14,14.3,14.3,0,0,1-5,3.34,17.86,17.86,0,0,1-12.81,0,14.32,14.32,0,0,1-5-3.34,15,15,0,0,1-3.2-5.14,19.6,19.6,0,0,1,0-13.13,15.16,15.16,0,0,1,3.2-5.16,14.38,14.38,0,0,1,5-3.37,17.7,17.7,0,0,1,12.81,0,14.36,14.36,0,0,1,5,3.37,15.16,15.16,0,0,1,3.2,5.16A18.4,18.4,0,0,1,279.61,411.23Zm-4.42,0a16.17,16.17,0,0,0-.8-5.27,11.14,11.14,0,0,0-2.27-3.94,9.85,9.85,0,0,0-3.56-2.48,12.94,12.94,0,0,0-9.31,0,9.94,9.94,0,0,0-3.57,2.48,11,11,0,0,0-2.28,3.94,17.69,17.69,0,0,0,0,10.52,11,11,0,0,0,2.28,3.93,9.82,9.82,0,0,0,3.57,2.47,13.1,13.1,0,0,0,9.31,0,9.72,9.72,0,0,0,3.56-2.47,11.15,11.15,0,0,0,2.27-3.93A16.07,16.07,0,0,0,275.19,411.23Z"/><path class="cls-2" d="M305,395.29v3.62H294.72v28.22h-4.31V398.91H280.08v-3.62H305Z"/><path class="cls-2" d="M336.95,411.23a18.39,18.39,0,0,1-1.13,6.57,15,15,0,0,1-3.2,5.14,14.3,14.3,0,0,1-5,3.34,17.86,17.86,0,0,1-12.81,0,14.32,14.32,0,0,1-5-3.34,15,15,0,0,1-3.2-5.14,19.6,19.6,0,0,1,0-13.13,15.16,15.16,0,0,1,3.2-5.16,14.38,14.38,0,0,1,5-3.37,17.7,17.7,0,0,1,12.81,0,14.36,14.36,0,0,1,5,3.37,15.16,15.16,0,0,1,3.2,5.16A18.4,18.4,0,0,1,336.95,411.23Zm-4.42,0a16.17,16.17,0,0,0-.8-5.27,11.14,11.14,0,0,0-2.27-3.94,9.85,9.85,0,0,0-3.56-2.48,12.94,12.94,0,0,0-9.31,0A9.94,9.94,0,0,0,313,402a11,11,0,0,0-2.28,3.94,17.69,17.69,0,0,0,0,10.52,11,11,0,0,0,2.28,3.93,9.82,9.82,0,0,0,3.57,2.47,13.1,13.1,0,0,0,9.31,0,9.72,9.72,0,0,0,3.56-2.47,11.15,11.15,0,0,0,2.27-3.93A16.07,16.07,0,0,0,332.53,411.23Z"/><path class="cls-2" d="M347.57,413.85v13.29h-4.29V395.29h9a19.68,19.68,0,0,1,5.22.61,10,10,0,0,1,3.63,1.77,7.08,7.08,0,0,1,2.12,2.79,9.33,9.33,0,0,1,.69,3.66,9.16,9.16,0,0,1-.53,3.16,8.34,8.34,0,0,1-1.54,2.63,9.24,9.24,0,0,1-2.47,2,12.2,12.2,0,0,1-3.3,1.24,4.56,4.56,0,0,1,1.42,1.36l9.29,12.65H363a1.88,1.88,0,0,1-1.73-.91L353,414.85a2.41,2.41,0,0,0-.82-0.77,3,3,0,0,0-1.33-.23h-3.27Zm0-3.13h4.51a11,11,0,0,0,3.32-.46,6.77,6.77,0,0,0,2.4-1.29,5.35,5.35,0,0,0,1.46-2,6.5,6.5,0,0,0,.49-2.56,5.08,5.08,0,0,0-1.88-4.29,9.08,9.08,0,0,0-5.59-1.44h-4.71v12Z"/><path class="cls-2" d="M387.77,400.27a1.72,1.72,0,0,1-.42.5,0.94,0.94,0,0,1-.58.17,1.54,1.54,0,0,1-.88-0.38,14.08,14.08,0,0,0-1.27-.83,10.3,10.3,0,0,0-1.84-.83,7.93,7.93,0,0,0-2.61-.38,7.73,7.73,0,0,0-2.56.39,5.43,5.43,0,0,0-1.86,1.06,4.33,4.33,0,0,0-1.12,1.57,5,5,0,0,0-.38,1.94,3.59,3.59,0,0,0,.66,2.21,5.63,5.63,0,0,0,1.73,1.5,13.26,13.26,0,0,0,2.44,1.08l2.8,0.94q1.43,0.49,2.8,1.1a9.85,9.85,0,0,1,2.44,1.54,7.05,7.05,0,0,1,1.73,2.29,7.62,7.62,0,0,1,.66,3.33,10.76,10.76,0,0,1-.71,3.92,9,9,0,0,1-2.08,3.19,9.72,9.72,0,0,1-3.36,2.13,12.34,12.34,0,0,1-4.52.78,13.81,13.81,0,0,1-5.63-1.12,13.21,13.21,0,0,1-4.34-3l1.24-2a1.63,1.63,0,0,1,.43-0.41,1,1,0,0,1,.57-0.17,1.77,1.77,0,0,1,1.07.5,17.65,17.65,0,0,0,1.5,1.1,11.46,11.46,0,0,0,2.18,1.1,8.6,8.6,0,0,0,3.12.5,8.2,8.2,0,0,0,2.73-.42,5.8,5.8,0,0,0,2-1.19,5.16,5.16,0,0,0,1.28-1.83,6.13,6.13,0,0,0,.44-2.38,4,4,0,0,0-.66-2.37,5.43,5.43,0,0,0-1.72-1.54,12.07,12.07,0,0,0-2.43-1.06l-2.8-.89a28.14,28.14,0,0,1-2.8-1.06,9.1,9.1,0,0,1-2.43-1.56,7.14,7.14,0,0,1-1.72-2.39,9.16,9.16,0,0,1,0-6.81,8.41,8.41,0,0,1,1.9-2.8,9.21,9.21,0,0,1,3.08-2,11.28,11.28,0,0,1,4.21-.73,13.48,13.48,0,0,1,4.87.84,11.21,11.21,0,0,1,3.84,2.44Z"/><path class="cls-2" d="M322.32,216.7a15.36,15.36,0,1,0,0-21.72A15.25,15.25,0,0,0,322.32,216.7Zm1.71-20A12.93,12.93,0,1,1,324,215,12.84,12.84,0,0,1,324,196.7Z"/><path class="cls-2" d="M314.95,224.06c-2-2-4.19-4-6.55-6-13.57,11.58-52.75,41.81-60.69,41.81h0a2.85,2.85,0,0,1-1.32-.29c-5.39-2.89-9-3.52-10.26-3.66l-11.75,11.75,4,4a27.56,27.56,0,0,1,38.92,38.92l4.05,4.05,11.74-11.74a28.17,28.17,0,0,0-2.82-8.52c-0.55-.94-1.93-3.36,14.74-28.22,8.56-12.76,19.09-27.13,26-35.49-2-2.35-4.05-4.57-6.1-6.62h0Z"/><path class="cls-2" d="M326,213a10.18,10.18,0,1,0,0-14.39A10.1,10.1,0,0,0,326,213Z"/><path class="cls-2" d="M246.76,274a18.31,18.31,0,1,0,12.95,5.36A18.18,18.18,0,0,0,246.76,274Z"/><path class="cls-2" d="M246.76,317.11a24.64,24.64,0,0,0,16.7-6.49l-2.67-2.67a21,21,0,0,1-29.71-29.71l-2.67-2.67a24.82,24.82,0,0,0,18.35,41.54h0Z"/><path class="cls-2" d="M379.6,210.34l-2,2L336.34,253.6l-0.87-1.66a114.17,114.17,0,0,0-12.62-19.1c-15.14,18.38-40.48,55.79-40,60.39,3.06,6.37,3.12,10,3.13,10.19V304l-27.16,27.16H379.63a12.63,12.63,0,0,0,12.63-12.63V197.68L379.6,210.34h0Z"/><path class="cls-2" d="M226.46,273.62l-4-4-11.77,11.76c0.24,1.94,1.69,9.08,10,19.71A27.6,27.6,0,0,1,226.46,273.62Z"/><path class="cls-2" d="M264.32,274.7a24.79,24.79,0,0,0-34-1.07l2.67,2.68A21,21,0,0,1,262.72,306l2.67,2.67A24.85,24.85,0,0,0,264.32,274.7Z"/><path class="cls-2" d="M246.76,319.86h0a27.61,27.61,0,0,1-8.82-1.46c10.71,8.41,17.82,9.76,19.74,10l11.77-11.77-4-4A27.38,27.38,0,0,1,246.76,319.86Z"/><rect class="cls-2" x="362.11" y="142.06" width="3.21" height="66.49" transform="translate(-17.43 308.54) rotate(-45)"/><path class="cls-2" d="M379.63,146.65H220.37a12.63,12.63,0,0,0-12.63,12.63V318.54a12.63,12.63,0,0,0,12.63,12.63H258.2c-0.5,0-12.57-.22-31.27-18.91s-19.07-30.92-19.07-31.42v-0.58L235,253.09h0.57c0.5,0,4.81.11,12.09,4,6.1,0,41.66-26.44,58.58-40.88a114.15,114.15,0,0,0-19.16-12.67l-1.66-.87,55.92-55.92,50.92,50.92v-38.4A12.63,12.63,0,0,0,379.63,146.65Z"/><rect class="cls-2" x="353.6" y="150.34" width="3.67" height="66.49" transform="translate(-25.71 305.1) rotate(-45)"/><rect class="cls-2" x="358.29" y="146.12" width="2.75" height="66.49" transform="translate(-21.49 306.86) rotate(-45)"/><path class="cls-2" d="M290,202a116.9,116.9,0,0,1,18.36,12.41h0l0.9,0.76,0.2,0.17q1.28,1.08,2.53,2.19l1.39,1.25,1,0.94c0.85,0.8,1.69,1.61,2.51,2.42s1.57,1.61,2.35,2.44l1.09,1.17,0.6,0.67q1.49,1.65,2.92,3.35l0,0,0.74,0.89h0A116.92,116.92,0,0,1,337,249l34.77-34.77-47-47Zm56-9a18.11,18.11,0,1,1-12.81-5.31A18,18,0,0,1,346,193Z"/><rect class="cls-2" x="349.84" y="154.56" width="2.75" height="66.49" transform="translate(-29.93 303.35) rotate(-45)"/><path class="cls-2" d="M219.2,450.26a0.4,0.4,0,0,1,.29.13l0.75,0.82a6.08,6.08,0,0,1-2.11,1.57,7.21,7.21,0,0,1-3,.56,7.05,7.05,0,0,1-2.78-.53,6.09,6.09,0,0,1-2.13-1.48,6.71,6.71,0,0,1-1.37-2.29,8.56,8.56,0,0,1-.49-2.94,8.05,8.05,0,0,1,.52-2.94,6.71,6.71,0,0,1,1.46-2.3,6.54,6.54,0,0,1,2.25-1.49,7.67,7.67,0,0,1,2.9-.53,6.46,6.46,0,0,1,4.71,1.8l-0.62.88a0.67,0.67,0,0,1-.16.16,0.44,0.44,0,0,1-.26.06,0.5,0.5,0,0,1-.27-0.09l-0.34-.23-0.47-.3a4.07,4.07,0,0,0-.63-0.3,5.28,5.28,0,0,0-.85-0.23,5.92,5.92,0,0,0-1.12-.09,5.4,5.4,0,0,0-2.08.39,4.67,4.67,0,0,0-1.63,1.11,5.06,5.06,0,0,0-1.06,1.76,6.72,6.72,0,0,0-.38,2.33,6.85,6.85,0,0,0,.38,2.37,5.22,5.22,0,0,0,1,1.76,4.38,4.38,0,0,0,1.56,1.09,5,5,0,0,0,1.94.38,7.84,7.84,0,0,0,1.14-.07,4.67,4.67,0,0,0,.94-0.23,3.93,3.93,0,0,0,.8-0.4,6.3,6.3,0,0,0,.75-0.58A0.5,0.5,0,0,1,219.2,450.26Z"/><path class="cls-2" d="M247,446.1a8.18,8.18,0,0,1-.51,2.93,6.7,6.7,0,0,1-1.43,2.29,6.37,6.37,0,0,1-2.21,1.49,7.95,7.95,0,0,1-5.71,0,6.37,6.37,0,0,1-2.21-1.49,6.7,6.7,0,0,1-1.43-2.29,8.72,8.72,0,0,1,0-5.85,6.76,6.76,0,0,1,1.43-2.3,6.4,6.4,0,0,1,2.21-1.5,7.88,7.88,0,0,1,5.71,0,6.39,6.39,0,0,1,2.21,1.5,6.76,6.76,0,0,1,1.43,2.3A8.18,8.18,0,0,1,247,446.1Zm-2,0a7.22,7.22,0,0,0-.36-2.35,5,5,0,0,0-1-1.76,4.38,4.38,0,0,0-1.58-1.1,5.76,5.76,0,0,0-4.15,0,4.43,4.43,0,0,0-1.59,1.1,4.93,4.93,0,0,0-1,1.76,7.9,7.9,0,0,0,0,4.69,4.93,4.93,0,0,0,1,1.75,4.38,4.38,0,0,0,1.59,1.1,5.83,5.83,0,0,0,4.15,0,4.33,4.33,0,0,0,1.58-1.1,5,5,0,0,0,1-1.75A7.18,7.18,0,0,0,245.06,446.1Z"/><path class="cls-2" d="M262.65,451.58h6.14v1.61h-8.06V439h1.92v12.57Z"/><path class="cls-2" d="M294.38,446.1a8.18,8.18,0,0,1-.51,2.93,6.7,6.7,0,0,1-1.43,2.29,6.37,6.37,0,0,1-2.21,1.49,7.95,7.95,0,0,1-5.71,0,6.37,6.37,0,0,1-2.21-1.49A6.7,6.7,0,0,1,280.9,449a8.72,8.72,0,0,1,0-5.85,6.76,6.76,0,0,1,1.43-2.3,6.4,6.4,0,0,1,2.21-1.5,7.88,7.88,0,0,1,5.71,0,6.39,6.39,0,0,1,2.21,1.5,6.76,6.76,0,0,1,1.43,2.3A8.18,8.18,0,0,1,294.38,446.1Zm-2,0a7.22,7.22,0,0,0-.36-2.35,5,5,0,0,0-1-1.76,4.38,4.38,0,0,0-1.58-1.1,5.76,5.76,0,0,0-4.15,0,4.43,4.43,0,0,0-1.59,1.1,4.93,4.93,0,0,0-1,1.76,7.9,7.9,0,0,0,0,4.69,4.93,4.93,0,0,0,1,1.75,4.38,4.38,0,0,0,1.59,1.1,5.83,5.83,0,0,0,4.15,0,4.33,4.33,0,0,0,1.58-1.1,5,5,0,0,0,1-1.75A7.18,7.18,0,0,0,292.41,446.1Z"/><path class="cls-2" d="M315.31,448.56l0.2,0.53q0.1-.28.21-0.53t0.25-.51l4.8-8.72a0.57,0.57,0,0,1,.27-0.28,1.23,1.23,0,0,1,.4,0h1.42v14.19h-1.68V442.77c0-.14,0-0.29,0-0.45s0-.32,0-0.48l-4.86,8.87a0.76,0.76,0,0,1-.69.45h-0.28a0.76,0.76,0,0,1-.69-0.45l-5-8.9q0,0.26,0,.5c0,0.17,0,.32,0,0.46v10.42h-1.68V439h1.42a1.24,1.24,0,0,1,.4,0,0.57,0.57,0,0,1,.27.28l4.9,8.73A3.72,3.72,0,0,1,315.31,448.56Z"/><path class="cls-2" d="M337.39,453.19V439h4.52a8.65,8.65,0,0,1,2.25.26,4.36,4.36,0,0,1,1.55.73,2.89,2.89,0,0,1,.9,1.16,3.93,3.93,0,0,1,.29,1.55,3.15,3.15,0,0,1-.16,1,3,3,0,0,1-.49.9,3.51,3.51,0,0,1-.83.74,4.63,4.63,0,0,1-1.17.53A4.38,4.38,0,0,1,346.6,447a2.93,2.93,0,0,1,.79,2.14,4,4,0,0,1-.33,1.64,3.53,3.53,0,0,1-1,1.28,4.53,4.53,0,0,1-1.56.83,7,7,0,0,1-2.11.29h-5Zm1.92-7.83h2.53a4.91,4.91,0,0,0,1.41-.18,2.84,2.84,0,0,0,1-.49,1.93,1.93,0,0,0,.58-0.77,2.54,2.54,0,0,0,.19-1,2.17,2.17,0,0,0-.75-1.83,3.8,3.8,0,0,0-2.34-.58h-2.6v4.84Zm0,1.37v4.94h3.07a4.66,4.66,0,0,0,1.41-.19,2.63,2.63,0,0,0,1-.53,2.06,2.06,0,0,0,.56-0.81,2.9,2.9,0,0,0,.18-1,2.13,2.13,0,0,0-.78-1.74,3.65,3.65,0,0,0-2.35-.64h-3.06Z"/><path class="cls-2" d="M363.56,453.19h-1.92V439h1.92v14.19Z"/><path class="cls-2" d="M390.12,453.19h-1.48a0.64,0.64,0,0,1-.42-0.13,0.79,0.79,0,0,1-.24-0.33l-1.33-3.43h-6.36L379,452.73a0.77,0.77,0,0,1-.24.32,0.63,0.63,0,0,1-.42.14h-1.49L382.5,439h2Zm-9.3-5.27h5.3l-2.23-5.77a10.81,10.81,0,0,1-.43-1.34q-0.11.41-.21,0.75c-0.07.23-.14,0.43-0.2,0.6Z"/></svg>