<svg id="background" xmlns="http://www.w3.org/2000/svg" viewBox="0 0 600 600"><defs><style>.cls-1{fill:#fff;}.cls-2{fill:#1b1b1b;}</style></defs><title>logos</title><rect class="cls-1" x="-1.16" width="602.32" height="600"/><path class="cls-2" d="M126.68,343.38h6.26a10.5,10.5,0,0,1,3.82.46,6.08,6.08,0,0,1-.23,11.07V355a5.82,5.82,0,0,1,.61.93l4.35,7.94h-3.24l-4.32-8.13h-4.38v8.13h-2.86V343.38Zm7,9.82a3.4,3.4,0,0,0,3.61-3.71,3.34,3.34,0,0,0-1.61-3.15,5.74,5.74,0,0,0-2.82-.46h-3.31v7.32h4.12Z"/><path class="cls-2" d="M156.55,358h-7.71l-2,5.88h-3l7.36-20.45h3l7.35,20.45h-3Zm-3.85-11.76s-0.46,1.85-.8,2.89l-2.3,6.49h6.2l-2.25-6.49c-0.35-1-.79-2.89-0.79-2.89H152.7Z"/><path class="cls-2" d="M165.77,343.38h6.77c6.26,0,10.37,3.74,10.37,10.19s-4.12,10.26-10.37,10.26h-6.77V343.38Zm6.57,18c4.61,0,7.62-2.72,7.62-7.77s-3-7.7-7.62-7.7h-3.7v15.47h3.7Z"/><path class="cls-2" d="M188.35,343.38h2.88v20.45h-2.88V343.38Z"/><path class="cls-2" d="M207.07,343a10.31,10.31,0,0,1,10.49,10.43,10.51,10.51,0,1,1-21,0A10.34,10.34,0,0,1,207.07,343Zm0,18.51c4.17,0,7.52-3.48,7.52-8.09a7.55,7.55,0,1,0-15.08,0C199.51,358.07,202.89,361.55,207.07,361.55Z"/><path class="cls-2" d="M222.94,359.31a8.08,8.08,0,0,0,5.22,2.21c1.91,0,3.54-1.08,3.54-3,0-4.43-9.91-3.48-9.91-9.76,0-3.19,2.75-5.71,6.61-5.71a8.39,8.39,0,0,1,5.8,2.06l-1.31,2.37a7.22,7.22,0,0,0-4.49-1.77c-2.16,0-3.7,1.36-3.7,3,0,4.23,9.9,3.09,9.9,9.74,0,3.16-2.43,5.76-6.49,5.76a9.57,9.57,0,0,1-6.78-2.69Z"/><path class="cls-2" d="M257.47,343a10.54,10.54,0,0,1,7.45,2.69l-1.42,2.15a9.34,9.34,0,0,0-5.91-2.23c-4.57,0-7.56,3.48-7.56,7.82s3,8.09,7.59,8.09a9.21,9.21,0,0,0,6.31-2.67l1.54,2.06a11,11,0,0,1-7.94,3.24c-6.14,0-10.45-4.7-10.45-10.69A10.2,10.2,0,0,1,257.47,343Z"/><path class="cls-2" d="M279.52,343A10.32,10.32,0,0,1,290,353.46a10.51,10.51,0,1,1-21,0A10.33,10.33,0,0,1,279.52,343Zm0,18.51c4.18,0,7.54-3.48,7.54-8.09a7.55,7.55,0,1,0-15.09,0A7.75,7.75,0,0,0,279.52,361.55Z"/><path class="cls-2" d="M296.34,343.38h3l4.7,11.06c0.46,1.13,1,2.75,1,2.75h0.06s0.55-1.62,1-2.75l4.69-11.06h3l1.66,20.45h-2.84l-1-12.89c-0.1-1.25,0-3,0-3h-0.06s-0.6,1.88-1.1,3l-4.08,9.21h-2.55l-4.06-9.21c-0.47-1.11-1.1-3.07-1.1-3.07h-0.06s0,1.82-.05,3.07l-1,12.89H294.7Z"/><path class="cls-2" d="M321.28,343.38h2.87v13.2c0,3.13,2,5,5.16,5s5.21-1.83,5.21-5V343.38h2.87v13.2c0,4.55-3.28,7.59-8.05,7.59s-8.06-3-8.06-7.59v-13.2Z"/><path class="cls-2" d="M343.83,343.38h2.84l9.1,13.3c0.75,1.09,1.7,2.95,1.7,2.95h0.07s-0.22-1.82-.22-2.95v-13.3h2.87v20.45h-2.81l-9.13-13.27c-0.75-1.13-1.7-3-1.7-3h-0.06s0.2,1.82.2,3v13.27h-2.87V343.38Z"/><path class="cls-2" d="M366.92,343.38h2.86v20.45h-2.86V343.38Z"/><path class="cls-2" d="M380.88,345.88h-7v-2.49h16.9v2.49h-7v18h-2.87v-18Z"/><path class="cls-2" d="M403.73,358H396l-2,5.88h-3l7.35-20.45h3l7.36,20.45h-3Zm-3.85-11.76s-0.47,1.85-.81,2.89l-2.3,6.49H403l-2.27-6.49c-0.34-1-.78-2.89-0.78-2.89h-0.06Z"/><path class="cls-2" d="M412.94,343.38h6.26a10.41,10.41,0,0,1,3.81.46,6.08,6.08,0,0,1-.22,11.07V355a7.4,7.4,0,0,1,.61.93l4.34,7.94H424.5l-4.32-8.13h-4.37v8.13h-2.87V343.38Zm7,9.82a3.4,3.4,0,0,0,3.62-3.71,3.35,3.35,0,0,0-1.62-3.15,5.67,5.67,0,0,0-2.82-.46h-3.29v7.32h4.11Z"/><path class="cls-2" d="M432.67,343.38h2.87v20.45h-2.87V343.38Z"/><path class="cls-2" d="M452.4,358h-7.7l-2,5.88h-3l7.36-20.45h3l7.36,20.45h-3Zm-3.85-11.76s-0.47,1.85-.82,2.89l-2.28,6.49h6.2l-2.26-6.49c-0.35-1-.77-2.89-0.77-2.89h-0.06Z"/><path class="cls-2" d="M461.66,359.31a8.07,8.07,0,0,0,5.22,2.21c1.91,0,3.54-1.08,3.54-3,0-4.43-9.91-3.48-9.91-9.76,0-3.19,2.75-5.71,6.6-5.71a8.4,8.4,0,0,1,5.8,2.06l-1.31,2.37a7.23,7.23,0,0,0-4.49-1.77c-2.17,0-3.7,1.36-3.7,3,0,4.23,9.9,3.09,9.9,9.74,0,3.16-2.43,5.76-6.5,5.76a9.58,9.58,0,0,1-6.77-2.69Z"/><path class="cls-2" d="M127.28,375.83h6.79c6.26,0,10.38,3.75,10.38,10.21s-4.12,10.26-10.38,10.26h-6.79V375.83Zm6.58,18c4.62,0,7.63-2.73,7.63-7.77s-3-7.72-7.63-7.72h-3.71v15.49h3.71Z"/><path class="cls-2" d="M151.12,375.83H163v2.49h-9v6.41h7.34v2.49H154v6.59h9.52v2.49H151.12V375.83Z"/><path class="cls-2" d="M179.95,375.83h2.87v18H192v2.49h-12V375.83Z"/><path class="cls-2" d="M208.1,390.41h-7.72l-2,5.89h-3l7.37-20.47h3l7.36,20.47h-3Zm-3.86-11.77s-0.47,1.86-.82,2.9L201.15,388h6.2l-2.27-6.49c-0.35-1-.78-2.9-0.78-2.9h-0.06Z"/><path class="cls-2" d="M228.37,375.83h6.27a10.38,10.38,0,0,1,3.83.46,6.09,6.09,0,0,1-.23,11.08v0.05a6,6,0,0,1,.61.93l4.36,7.94h-3.25l-4.33-8.15h-4.38v8.15h-2.87V375.83Zm7,9.83a3.41,3.41,0,0,0,3.62-3.71,3.36,3.36,0,0,0-1.62-3.16,5.66,5.66,0,0,0-2.82-.46h-3.31v7.33h4.12Z"/><path class="cls-2" d="M249.34,375.83h11.88v2.49h-9v6.41h7.34v2.49H252.2v6.59h9.52v2.49H249.34V375.83Z"/><path class="cls-2" d="M277.26,375.48a11.15,11.15,0,0,1,7.46,2.47l-1.45,2.15a9.41,9.41,0,0,0-5.77-2c-4.81,0-7.71,3.51-7.71,7.89,0,4.76,3.24,8,7.53,8a8.34,8.34,0,0,0,5.8-2.56v-3h-3.33V386h5.95V396.3H283.2V395c0-.43,0-0.87,0-0.87h-0.05a8.79,8.79,0,0,1-6.29,2.5c-5.51,0-10.07-4.35-10.07-10.61A10.32,10.32,0,0,1,277.26,375.48Z"/><path class="cls-2" d="M292.61,375.83h2.87V396.3h-2.87V375.83Z"/><path class="cls-2" d="M312.55,375.48a10.32,10.32,0,0,1,10.5,10.44,10.51,10.51,0,1,1-21,0A10.34,10.34,0,0,1,312.55,375.48Zm0,18.53c4.18,0,7.54-3.48,7.54-8.09a7.56,7.56,0,1,0-15.11,0A7.76,7.76,0,0,0,312.55,394Zm0.87-23.29h3l-2.78,3.68h-2.35Z"/><path class="cls-2" d="M329.6,375.83h2.84l9.11,13.31c0.75,1.1,1.7,3,1.7,3h0.06s-0.2-1.82-.2-3V375.83H346V396.3h-2.81L334,383c-0.75-1.13-1.71-3-1.71-3h-0.05s0.2,1.82.2,3V396.3H329.6V375.83Z"/><path class="cls-2" d="M372.78,375.48a10.54,10.54,0,0,1,7.45,2.7l-1.42,2.14a9.33,9.33,0,0,0-5.91-2.23c-4.58,0-7.57,3.48-7.57,7.83s3,8.09,7.6,8.09a9.25,9.25,0,0,0,6.32-2.67l1.54,2.06a11,11,0,0,1-7.94,3.25c-6.15,0-10.47-4.7-10.47-10.7A10.22,10.22,0,0,1,372.78,375.48Z"/><path class="cls-2" d="M397.23,390.41h-7.72l-2,5.89h-3l7.37-20.47h3l7.36,20.47h-3Zm-3.85-11.77s-0.48,1.86-.82,2.9l-2.3,6.49h6.21l-2.26-6.49c-0.35-1-.78-2.9-0.78-2.9h-0.05Z"/><path class="cls-2" d="M407.67,375.83h6.26a10.37,10.37,0,0,1,3.83.46,6.09,6.09,0,0,1-.22,11.08v0.05a7.23,7.23,0,0,1,.61.93l4.34,7.94h-3.25l-4.32-8.15h-4.37v8.15h-2.88V375.83Zm7,9.83a3.4,3.4,0,0,0,3.63-3.71,3.35,3.35,0,0,0-1.63-3.16,5.63,5.63,0,0,0-2.81-.46h-3.3v7.33h4.11Z"/><path class="cls-2" d="M428.64,375.83h2.87V396.3h-2.87V375.83Z"/><path class="cls-2" d="M439.45,375.83h7.16c3.45,0,5.95,1.91,5.95,5.22a4.79,4.79,0,0,1-2.56,4.41v0.06a4.93,4.93,0,0,1,3.37,5c0,3.86-3,5.83-6.59,5.83h-7.34V375.83Zm7.16,8.62a2.9,2.9,0,0,0,3-3.11,2.81,2.81,0,0,0-3.07-3h-4.24v6.12h4.29Zm0.32,9.36a3.26,3.26,0,0,0,3.51-3.48,3.33,3.33,0,0,0-3.54-3.51h-4.58v7h4.61Z"/><path class="cls-2" d="M460.22,375.83h11.89v2.49h-9v6.41h7.33v2.49h-7.33v6.59h9.5v2.49H460.22V375.83Z"/><path class="cls-2" d="M447.54,328H428.39l8.29-115h2.56Zm-16.39-2.56h13.63L438,230.91Z"/><path class="cls-2" d="M438,216.58a2.39,2.39,0,1,1,2.39-2.39A2.4,2.4,0,0,1,438,216.58Zm0-2.56a0.17,0.17,0,0,0,0,.34A0.17,0.17,0,1,0,438,214Z"/><polygon class="cls-2" points="444.61 327.39 430.62 307.05 431.68 305.04 442.45 305.04 432.02 286.61 433.13 284.7 440.75 284.7 432.9 268.95 434.05 267.1 441.55 267.1 441.55 269.66 436.12 269.66 443.97 285.4 442.83 287.27 435.33 287.27 445.77 305.69 444.65 307.61 434.11 307.61 446.72 325.95 444.61 327.39"/><path class="cls-2" d="M378.51,328H359.37l8.29-115h2.56Zm-16.38-2.56h13.62l-6.81-94.48Z"/><path class="cls-2" d="M368.95,216.58a2.39,2.39,0,1,1,2.39-2.39A2.4,2.4,0,0,1,368.95,216.58Zm0-2.56a0.17,0.17,0,0,0,0,.34A0.17,0.17,0,1,0,368.95,214Z"/><polygon class="cls-2" points="375.99 327.39 362 307.05 363.06 305.04 373.84 305.04 363.41 286.61 364.52 284.7 372.14 284.7 364.29 268.95 365.43 267.1 372.94 267.1 372.94 269.66 367.51 269.66 375.36 285.4 374.22 287.27 366.72 287.27 377.16 305.69 376.04 307.61 365.49 307.61 378.11 325.95 375.99 327.39"/><path class="cls-2" d="M309.25,328H290.11l8.29-115H301Zm-16.38-2.56H306.5l-6.82-94.48Z"/><path class="cls-2" d="M299.68,216.58a2.39,2.39,0,1,1,2.39-2.39A2.39,2.39,0,0,1,299.68,216.58Zm0-2.56a0.17,0.17,0,0,0,0,.34A0.17,0.17,0,1,0,299.68,214Z"/><polygon class="cls-2" points="306.27 327.39 292.29 307.05 293.34 305.04 304.13 305.04 293.68 286.61 294.81 284.7 302.42 284.7 294.58 268.95 295.72 267.1 303.22 267.1 303.22 269.66 297.79 269.66 305.64 285.4 304.5 287.27 297 287.27 307.44 305.69 306.33 307.61 295.78 307.61 308.4 325.95 306.27 327.39"/><path class="cls-2" d="M240.68,328H221.54l8.29-115h2.56Zm-16.39-2.56h13.63l-6.81-94.48Z"/><path class="cls-2" d="M231.11,216.58a2.39,2.39,0,1,1,2.39-2.39A2.39,2.39,0,0,1,231.11,216.58Zm0-2.56a0.17,0.17,0,1,0,0,.34A0.17,0.17,0,1,0,231.11,214Z"/><polygon class="cls-2" points="237.66 327.39 223.67 307.05 224.73 305.04 235.51 305.04 225.08 286.61 226.2 284.7 233.81 284.7 225.96 268.95 227.1 267.1 234.6 267.1 234.6 269.66 229.18 269.66 237.04 285.4 235.88 287.27 228.39 287.27 238.83 305.69 237.72 307.61 227.17 307.61 239.78 325.95 237.66 327.39"/><path class="cls-2" d="M171.43,328H152.28l8.29-115h2.56ZM155,325.39h13.63l-6.82-94.48Z"/><path class="cls-2" d="M161.85,216.58a2.39,2.39,0,1,1,2.39-2.39A2.4,2.4,0,0,1,161.85,216.58Zm0-2.56a0.17,0.17,0,1,0,.18.17A0.17,0.17,0,0,0,161.85,214Z"/><polygon class="cls-2" points="168.68 327.39 154.69 307.05 155.75 305.04 166.53 305.04 156.09 286.61 157.21 284.7 164.82 284.7 156.97 268.95 158.12 267.1 165.63 267.1 165.63 269.66 160.2 269.66 168.05 285.4 166.9 287.27 159.41 287.27 169.84 305.69 168.73 307.61 158.19 307.61 170.79 325.95 168.68 327.39"/><path class="cls-2" d="M438.39,226.45c-9.23,0-13.83-5.45-18.27-10.73-4.24-5-8.26-9.8-16.31-9.8s-12.05,4.76-16.3,9.8c-4.44,5.27-9,10.73-18.26,10.73S355.41,221,351,215.72c-4.25-5-8.27-9.8-16.32-9.8s-12.05,4.76-16.3,9.8c-4.44,5.27-9,10.73-18.27,10.73s-13.83-5.45-18.27-10.73c-4.25-5-8.27-9.8-16.31-9.8s-12.05,4.76-16.31,9.8c-4.43,5.27-9,10.73-18.27,10.73S217.1,221,212.66,215.72c-4.25-5-8.26-9.8-16.3-9.8s-12.07,4.76-16.31,9.8c-4.44,5.27-9,10.73-18.27,10.73s-13.84-5.45-18.26-10.73c-4.26-5-8.27-9.8-16.31-9.8v-2.57c9.24,0,13.83,5.45,18.26,10.72,4.25,5,8.26,9.82,16.31,9.82s12.06-4.77,16.3-9.82c4.44-5.27,9-10.72,18.28-10.72s13.83,5.45,18.26,10.72c4.25,5,8.26,9.82,16.3,9.82s12.07-4.77,16.31-9.82c4.44-5.27,9-10.72,18.27-10.72s13.83,5.45,18.27,10.72c4.24,5,8.26,9.82,16.31,9.82s12.05-4.77,16.31-9.82c4.43-5.27,9-10.72,18.26-10.72s13.83,5.45,18.28,10.72c4.24,5,8.26,9.82,16.31,9.82s12.05-4.77,16.3-9.82c4.44-5.27,9-10.72,18.26-10.72s13.84,5.45,18.28,10.72c4.25,5,8.26,9.82,16.31,9.82s12.06-4.77,16.31-9.82c4.45-5.27,9-10.72,18.28-10.72v2.57c-8,0-12.07,4.76-16.31,9.8C452.23,221,447.63,226.45,438.39,226.45Z"/></svg>