<svg id="background" xmlns="http://www.w3.org/2000/svg" viewBox="0 0 600 600"><defs><style>.cls-1{fill:#fff;}.cls-2{fill:#1b1b1b;}</style></defs><title>logos</title><rect class="cls-1" width="602.32" height="600"/><path class="cls-2" d="M173.17,314.71q6.64,5.65,6.64,17.35T173,349.19q-6.82,5.42-20.83,5.42h-8.4v17.62h-14.1V309.06H152Q166.53,309.06,173.17,314.71Zm-10.35,24.86q2.53-2.85,2.53-8.32t-3.3-7.77q-3.3-2.31-10.26-2.3h-8v21.24h9.49Q160.29,342.42,162.82,339.57Z"/><path class="cls-2" d="M190.84,309h14.1v63.18h-14.1V309Z"/><path class="cls-2" d="M266,309v12.57H234.57v13h28.29v12H234.57v13.1H267v12.47H220.48V309H266Z"/><path class="cls-2" d="M325.89,309H340v63.18h-14.1l-32.22-39.58v39.58h-14.1V309h13.19l33.12,40.67V309Z"/><path class="cls-2" d="M367.12,321.26a5.45,5.45,0,0,0-2,4.43,5,5,0,0,0,2.49,4.38q2.48,1.63,11.48,3.84t14,6.64q5,4.43,5,12.92a17,17,0,0,1-6.37,13.78q-6.37,5.29-16.76,5.29-15,0-27-11.11l8.4-10.3q10.21,8.95,18.89,8.95a9.92,9.92,0,0,0,6.1-1.67,5.37,5.37,0,0,0,2.21-4.52,5.26,5.26,0,0,0-2.35-4.52q-2.35-1.67-9.31-3.39-11-2.62-16.13-6.82T350.54,326q0-9,6.46-13.88t16.13-4.88a38.79,38.79,0,0,1,12.65,2.17,33.92,33.92,0,0,1,11,6.15l-7.14,10.31q-8.23-6.24-17-6.24A8.5,8.5,0,0,0,367.12,321.26Z"/><path class="cls-2" d="M455.34,372.15l-5.88-13.65H423l-5.87,13.65h-15L429.41,309h13.64l27.29,63.18h-15Zm-19.07-44.37-8,18.34h15.81Z"/><polygon class="cls-2" points="166.19 227.46 147.61 238.19 147.61 250.5 166.19 261.22 195.42 244.32 166.19 227.46"/><polygon class="cls-2" points="196.69 280.29 196.69 246.52 167.46 263.4 167.46 284.86 178.12 291.01 196.69 280.29"/><polygon class="cls-2" points="199.23 246.52 199.22 280.27 217.8 291.01 228.46 284.86 228.47 263.42 199.23 246.52"/><polygon class="cls-2" points="248.31 250.5 248.32 238.19 229.75 227.46 200.5 244.32 229.72 261.22 248.31 250.5"/></svg>