<svg id="background" xmlns="http://www.w3.org/2000/svg" viewBox="0 0 600 600"><defs><style>.cls-1{fill:#fff;}.cls-2{fill:#1b1b1b;}</style></defs><title>logos</title><rect class="cls-1" x="-1.16" width="602.32" height="600"/><path class="cls-2" d="M296.06,348.83a0.86,0.86,0,0,0-1.52.77c0.23,1.21,1.24,6,1.38,6.67a0.76,0.76,0,0,0,.89.57l3.15-1.3a0.79,0.79,0,0,0,.06-1.13C299.5,353.73,296.5,349.45,296.06,348.83Z"/><path class="cls-2" d="M276.28,356.09c-1.41-.31-5,1.22-6.54,1.92a0.76,0.76,0,0,0-.52.89l1.71,4.87a1,1,0,0,0,1.23.62c1.53-.35,4.49-1.21,5.79-2.85A3.39,3.39,0,0,0,276.28,356.09Z"/><path class="cls-2" d="M202.91,288.92c8.49,2.83,13.21-6.31,19.14-16.24,0,0-11.79,1.86-15.18-7.17C195.62,280.37,198.75,287.53,202.91,288.92Z"/><path class="cls-2" d="M492.65,322.33s-10.48,5.5-22.07,5.3c-4.58-.08-9.34-0.29-13.61-0.52,9.83-.68,19.16-1.15,27.05-8.13a52,52,0,0,0,11.6-15.37c3.15-6.9,3.46-14.83-2.33-21.65a14,14,0,0,0-8.39-4.12c0.31-.22,3.74-2.33,3.89-2.46,2.87-2.36,3.42-3.72,3.94-7.52l0-.55c0.32-9.43-3.15-15.13-6.12-18.26a21.22,21.22,0,0,0-15.37-6.49,20.35,20.35,0,0,0-4.12.41c-3.72.77-11,3.23-17.77,11a44.42,44.42,0,0,0-6,9q-0.23-1.26-.56-2.51c-2.93-11.18-10.88-17.59-21.79-17.59-0.8,0-1.59,0-2.35.1,2.26-6.38,4.89-13.85,5.76-16.43,0.26-.77.52-1.47,0.77-2.14,1-2.66,2.14-5.68.55-8.74a7.6,7.6,0,0,0-5.27-3.83,45.86,45.86,0,0,0-9.66-1.25,15.41,15.41,0,0,0-1.83.1c-5.35.64-6.86,4.8-8.08,8.13l0,0.13-3.21,10.41-2.2,5.85a16.68,16.68,0,0,0-2.43-4.89,17.64,17.64,0,0,0-8-5.65,21.87,21.87,0,0,0-6.27-.95A17.51,17.51,0,0,0,364.18,231a20.36,20.36,0,0,0-3.49,7.47c-0.3,3.06-.3,5.25,1.74,8.68-1.53-1.87-6.12-4.05-10.45-3.57a26.67,26.67,0,0,0-5.27.84c-4.42,1.4-7.11,4.57-9,8.11a9,9,0,0,0-3.35.53,6.77,6.77,0,0,0-1.42.7,6.47,6.47,0,0,0-4-7.46l-1.75-.77c-4.17-1.84-6.2-2.65-8.09-2.65l-0.47,0a6.29,6.29,0,0,0-4.2,2,24.2,24.2,0,0,0-7.89-1.33,24.63,24.63,0,0,0-8.82,1.65c-0.63.24-1.27,0.51-1.91,0.81l1-1.48q1.86-2.8,3.86-5.81c3.49-5.2,5.64-12.15,1.2-16.06l-0.31-.25s-5.64-4.26-7.62-5.74a7.81,7.81,0,0,0-4.67-1.63,7.35,7.35,0,0,0-6,3.19l-0.06.1c-0.16.24-3.93,6.08-11.62,18.55-2.43,3.95-4.59,7.26-6.53,9.85,2.34-10.22,5.25-23.06,5.73-25.66a9,9,0,0,0-1.65-7.58,8.53,8.53,0,0,0-6.38-3c-0.43,0-2.19-.08-4.18-0.08-1.74,0-3.21.05-4.36,0.15-4.84.43-7.66,4.51-8.3,8.22l-7.62,33.89a18,18,0,0,0-2.75-3.77c-5.21-5.5-12.39-6.32-16.21-6.33-4.8,0-11,2-16.77,6.2l0.32-.7,10.71-22.73,0.11-.26a9.1,9.1,0,0,0-.1-7.4c-1.43-3-4.62-5.38-9.23-6.75a16.86,16.86,0,0,0-4.82-.79,9,9,0,0,0-8.47,5.16c-2.8,5.66-27.47,57.88-29.51,62.21,0-6.5-.17-37.66-0.18-41.12,0.34-4.67-2.48-11.77-11.87-13.3a46.19,46.19,0,0,0-7.28-.56c-5.76,0-15.42,1-23,6.88-1.22.94-10.39,10.14-11.52,11.67-4.49,6.06-6.34,12.68-5.18,18.65A15.14,15.14,0,0,0,109.19,270a13.8,13.8,0,0,0,7.24,1.9,21.18,21.18,0,0,0,7.73-1.57,4.4,4.4,0,0,0,2.21-1.76c0.22,10.14.6,21.85,1.15,29.52,0.65,9.16,10.27,16.62,21.43,16.62h0a26.23,26.23,0,0,0,17.47-6.93c3-2.62,11-11.31,12.26-13.3-0.35,2.6-.7,5.47.22,7.8a15.1,15.1,0,0,0,11.39,9.26c0.45,0.09,1.42.36,1.87,0.44-2.3,1.16-10,8.39-11.06,9.63-4.53,5.14-6,10.6-2.3,17.42,7.35,13.65,46.79,12.71,58.22,12.23,6.59-.27,20.41-2.43,36.18-5.42l-4,1.58a161.53,161.53,0,0,1-31.63,9.42l-14,2.42,22.48,13.46-8.76,13.67,6.53,2.09c0.57,0.18,5.84,1.77,14.82,1.3,0.74,0,1.49-.09,2.25-0.16,16.62-.9,25.48-6.44,39.08-12.37,5.92-2.58,12.22-5.29,18.88-7.82a5.9,5.9,0,0,0,.92-0.26c1.38-.52,2.73-1,4-1.55a153.37,153.37,0,0,1,35.29-8.34c22.73-2.37,55.05,1.4,83.18,5.78,16.54,2.57,26.94.46,32.71-1.71,11.07-3.5,16.58-9.27,16.88-9.6l5.47-5.89-17.72-6.3ZM406.11,220.48c1.29-3.52,1.8-4.42,3.73-4.65a35,35,0,0,1,9.63,1c3.37,0.82,1.77,2.94.16,7.69s-9.36,26.59-9.36,26.59,0.34-.61,3.2-1.76c3.1-1.24,19.78-5.42,24.42,12.25a32.14,32.14,0,0,1-8.13,30c3.12,0.7,9.87-3.36,13.09-7.68,3.2-24.91,16.93-34.17,25.6-36,7.82-1.62,19.78,3,19.24,18.85-0.37,2.71-.37,2.71-2,4.05-2.53,2.08-30.58,20.62-30.58,20.62s-1.61,1.47.65,2.45,8.77,4.16,22.48-8c2.56-2.27,8.41-2.59,11.1,1.38C493.6,293.63,493.47,304,480,311s-41,6.79-82.35,2.83c-11.64-1.12-23.43-1.59-34.4-2.36,2.08-1.89,2.17-3.16,2.82-4.63,3.73,0.33,7.65.36,11,.68,42.71,4.07,92.64,7,107.93-5.89,4.48-3.77,3.44-7.54,2.14-9.88-2.75-5-6.41,1.84-11.27,4.35a32.67,32.67,0,0,1-25.63,3.82c-4-1.15-6.56-3.91-7.2-8.78-2.61,4-12.41,7.88-19.08,6.26-3.76,2.7-10.71,3-15.9,2.52-7.2-.67-10.32-2.93-10.32-2.93-0.75,2.56-.91,2.86-2.41,3.06a25.21,25.21,0,0,1-10.39-.81c-3-.82-2.09-3.44-1.11-6.71l0.34-1.1-0.15.13c-2.92,2.89-6.67,4.64-10.16,4.51l1.91-6.81c4.13-.34,8.79-4.38,11.76-8.7l0.57-1.83Zm-39.73,28.24c-0.2-.65-0.48-1.59-0.73-2.59a12.66,12.66,0,0,1-.3-2.29c2.13,3.34,6.11,5.41,9.71,6.71,4,1.42,8.78,2.16,12.63.33a14.57,14.57,0,0,1-1,1.24c-0.47.49-1.39,1.3-2.22,2C379.18,257.57,369.09,254.08,366.37,248.71ZM382.56,256a6.58,6.58,0,0,0-.13.93c-1.32,2.46-6.93.9-8.75,0.47s-7.29-2.51-7.22-5.34l0.32-1.09C370.19,255,377.41,257.47,382.56,256Zm-16.48-2.11c1.42,2.33,5.43,3.81,7.37,4.38,1.77,0.52,5.85,1.5,8.25.47L379.44,264c-3.65,2.68-13.59-.34-14.21-5.05a0.74,0.74,0,0,0,0-.09Zm0.69-17.68c0.52-.87,2.68-4.2,5.13-5.75,2.8-1.78,6.79-2,10.64-.8s6.39,5,7.54,7.43a13,13,0,0,1,.77,5.46c-1,7.23-10.73,5.38-15.3,3.76C371.79,244.93,364.94,241.09,366.77,236.17ZM365,238.85s0.27-.82.39-1.1a1.52,1.52,0,0,1,.14-0.25c-0.28,4.71,6,8.16,9.75,9.64,4.63,1.83,13.25,2.86,15.79-2.44a2.74,2.74,0,0,1,0,.52,10.2,10.2,0,0,1-1,2.65,2,2,0,0,1-.35.52,0.45,0.45,0,0,0-.17.11c-6.46,6.16-22.8.68-24.7-8.09A3.93,3.93,0,0,1,365,238.85Zm-0.2,21.64c2.11,4.17,9.89,6.65,14.11,4.78-2,5.68-11,30.56-11.67,31.48a4.53,4.53,0,0,1-3.08,1.54,8.06,8.06,0,0,1-4.21-.77,5.58,5.58,0,0,1-1.44-.92,4.2,4.2,0,0,1-1.26-2.94ZM299.21,250a18.65,18.65,0,0,1,15.9,1c2,1,1.77-2.87,3.54-3,1.18-.09,5.49,2,7.9,3,1.29,0.54.77,1.54,0.58,2.09,0,0-9.66,26.07-12.47,32.54,0,5.23,4.62,3.18,7.13-.4a79,79,0,0,0,8-15.78c2.57-6.38,4.4-11,5.92-11.59A4.08,4.08,0,0,1,340,259c2-4.8,3.9-8.49,7.9-9.75,7.18-2.28,9.32.76,13.5,4.23l-1,5s-2.45-2.22-4.84-1.55c-5.08,1.43-12.26,32.14-14.69,38.57-0.84,2.23-.65,4.38-4,4.38-2.61,0-5.6.22-9.23-1.28-2.09-.86-1.81-2.57-1-5.08l7.94-21a111.06,111.06,0,0,1-6.93,12.14c-3.86,5.72-7.89,12.65-12.71,12.65a6.45,6.45,0,0,1-6.21-4c-4.2,5.61-11.28,7.29-19.63,6.87-9.64-.49-14.62-10.47-12-23.53S290.22,253.46,299.21,250ZM347.46,305c-3.43,2.75-5.11,2.69-8.93,4.43-15-.66-37.2-0.34-49.9-0.12-1.29-2.06-6.57-3.77-7-4.94C303,304.6,330.39,304.38,347.46,305Zm-175.59-11.1c-12.32,15.48-32.25,7.57-33-2.92-0.92-12.92-1.4-38.83-1.37-47.16,0-9.43-7.51-9.37-12.14-5.42-5.26,4.5-6.84,9-6.29,12.63s8.51,2.64,8.51,2.64c4.07,1.13.55,5,.55,5s-5.92,2.57-10.17,0-7.4-11,0-21,22.2-10.74,30.34-9.42,7.4,7.72,7.4,7.72,0.18,39.76.18,42.4,0.37,7.16,3.7,7.72,6.29-6.22,6.29-6.22,26.7-56.54,29.57-62.33c0.89-1.8,2.62-2.93,7.06-1.62,3.69,1.1,7.38,3.32,5.92,6.88l-10.73,22.78C187.3,268.53,180.41,283.13,171.86,293.87Zm23.39-29.75c6.88-11.85,17.72-16.38,23.71-16.38,6.35,0,16.66,2.85,16.17,16.58,1.94,0,4-.94,6-2l9.61-42.75s0.52-3.61,3.54-3.88a77.73,77.73,0,0,1,7.95-.05s3.74-.08,3,4.2-8.7,38.56-8.7,38.56c6.78,0,12-7.15,19.21-18.89,7.74-12.57,11.55-18.45,11.55-18.45a2.08,2.08,0,0,1,3.15-.27l7.6,5.72c1.75,1.54-.35,6.3-2.11,8.91-11,16.37-17.93,28.7-28.13,31,1.43,1.32,4.43,5.86,4.25,9.57-0.39,8-2.64,20.5-1.25,27,1,4.56,4.81,7.71,7.83,9.32,1.73,0.92,4.21,2,4.95,3.82s-5.71,8.11-9.42,7.14a20.81,20.81,0,0,1-6.44-3c-4.45-3.08-10.83-11.78-10.1-22.73,0.93-13.85,2.35-15.48,2.1-19.65-0.4-6.5-6.14-6.85-6.14-6.85l-5.74,28c-0.26,1.67-2.09,2.94-4.83,2.43-4.33-.8-7.83-1.52-7.83-1.52s-2.24,0-1.19-4.68,5.85-24.83,5.85-24.83a15,15,0,0,1-6,2.07c-10.06,24.75-25.08,29.36-36.45,27C185.36,297,186.35,279.47,195.25,264.12Zm-5.63,65.16c-10.86-19.4,42.5-21.75,55.21-23.11,2.42-.26,5-0.47,7.67-0.64,0.7,2.35.22,2.87,2.09,5.48-22.85,1.21-52.93,5.86-48.7,14,11.89,17.31,139.66-5.56,147.8-18.88a84.64,84.64,0,0,0,4.47-8.68,7.19,7.19,0,0,0,5.72,1.64,91.45,91.45,0,0,1-5.19,9.48C351.07,324.83,203.39,353.87,189.62,329.28Zm71.41,55c-9.93,1-15.61-.86-15.61-0.86l8-12.47L238.47,362c5.48-.94,10.58-2.08,15.39-3.34,0.57-.15,1.73-0.55,2.07.75s6.18,20.44,6.83,22.55S261.78,384.21,261,384.28Zm28.39-8.7L285.84,377a1.55,1.55,0,0,1-2.16-.37c-1-1.21-5.84-7.53-5.84-7.53l-4.73,1.84s2,6.88,2.36,8.18a1.24,1.24,0,0,1-.76,1.64l-3.64,1a1.05,1.05,0,0,1-1.53-.76c-0.41-1.32-7.27-22.76-7.49-24a1.75,1.75,0,0,1,.85-1.82l9.45-3.33s8-2.58,10.23,1.58c1.62,3,2.75,5.06,2.58,7.32a8.72,8.72,0,0,1-2.36,5.14l6.78,7.75C290.71,375,289.42,375.58,289.42,375.58ZM312.63,366l-3.41,1.37s-1.41.62-1.95-.38c-0.42-.78-2.38-3.74-3.24-5a1.41,1.41,0,0,0-1-.38l-4.34,1.7a1.4,1.4,0,0,0-.39,1.05c0.35,1.48,1.09,4.55,1.33,5.6,0.34,1.41-.4,1.72-0.4,1.72l-3.81,1.7s-1.38.4-1.54-.68-4.65-24.37-4.89-25.62a1.6,1.6,0,0,1,.82-1.76l6-2.7a1.34,1.34,0,0,1,1.78.48c0.89,1.06,14.87,20.38,15.47,21.21S312.63,366,312.63,366Zm18.19-12.37c-0.9,5.71-4.45,7.41-12.85,10.55a1.37,1.37,0,0,1-1.63-.85c-0.41-.88-8.11-23.88-8.3-24.42a1.22,1.22,0,0,1,.83-1.49c8.65-3.33,14.59-3.15,17.62.23S331.77,347.66,330.83,353.64Zm11.85,2.22-4.37.89s-0.66.19-.89-0.79-5.69-23.33-5.91-24.31a1,1,0,0,1,.47-1.24l5.61-1.25s0.75-.2,1.12,1,4.46,23.14,4.68,24.27A1.15,1.15,0,0,1,342.68,355.86Zm22.49-12.53c-0.34,4.88-3.31,10-8.62,10.42s-11.36-3.31-11.93-14.67c-0.41-8.19,5.2-10.91,8.4-11.45,8.79-1.48,11.49,7.19,12,11.45A23.18,23.18,0,0,1,365.17,343.33Zm15.77,9.38c-5.36.32-8.35-2.12-8.59-7.24-0.16-3.44,1.41-5.5,4.32-6.49-4.74-1.44-4.54-11.93,2.92-12.87,7.66-1,8.79,4,8.83,6.49,0.08,4.37-2.32,6-2.32,6,1.58,0.41,3.73,2.4,3.93,6.1C390.36,350.55,386.31,352.38,380.94,352.71Zm21.21,0a10.21,10.21,0,0,1-5.91.72,0.9,0.9,0,0,1-.81-1.05c0.07-.83.13-1.92,0.16-2.59a0.86,0.86,0,0,1,1.09-.68,5.93,5.93,0,0,0,4.77-1.39c3-2.53,4.28-8.55,4.28-8.55a7,7,0,0,1-7.07,3.48c-1.88-.21-6.69-1.33-6.08-7.51s3.91-8.33,10.44-7.79,7.14,8,7.14,8C410.87,343,406.89,350.78,402.15,352.68Zm9,2a2.17,2.17,0,1,1,2-2.28A2.16,2.16,0,0,1,411.19,354.69Zm21.36-21.52c-0.25.58-.56,1.15-0.91,1.8s-1.23.26-1.62,0.09c-2.73-1.22-6.06-.89-7.38,0-3.18,2.25-3.49,8.19-3.49,8.19a7.55,7.55,0,0,1,7.34-2.83c2.31,0.26,6.67,2.69,5.51,8.79-0.92,4.82-3.38,6.76-7.52,6.45-8.06-.6-9.9-5.53-10.09-9.05,0-7.64,3.12-15.11,8-16.58a11.2,11.2,0,0,1,9.68,1.78A1.16,1.16,0,0,1,432.54,333.17Zm55.53,16.93S476,363,450,360.31c-3.33-.35-9.15-1.08-11.42-1.36s-1.22-3.13-1.22-3.13L441.23,333s0.49-1.87,2.14-1.59c10.3,1.36,19.66,1.88,35.42,1.54l-7,11.39Z"/><path class="cls-2" d="M354,334.07c-1.47.27-4,1.63-3.83,5.76,0.29,5.74,3.08,7.61,5.51,7.43s3.78-2.77,3.93-5.23a12.71,12.71,0,0,0-.07-2.15C359.32,337.72,358.06,333.34,354,334.07Z"/><path class="cls-2" d="M417.44,286.51c3.72-3.33,6.83-7.43,8.79-15,1.9-7.27-1.21-14.81-9.46-13.36-4.44.78-8.65,5.18-10.75,10.16-2.89,6.86-3.2,13.51-2.62,16.33C404.32,289.11,413.06,290.42,417.44,286.51Z"/><path class="cls-2" d="M456.51,279.33c2.07-.7,15.35-8.43,19.38-11.89,0.87-9.44-5.07-10.43-9.7-8C459.47,262.9,453.62,280.31,456.51,279.33Z"/><ellipse class="cls-2" cx="381.08" cy="333.39" rx="2.94" ry="3.26" transform="translate(-16.71 20.12) rotate(-2.96)"/><path class="cls-2" d="M216.42,265.58c3,1.19,8.5-.05,8.5-0.05,1.41-3.57.39-7.66-4.54-8.47a10.31,10.31,0,0,0-8.7,3.11S213.43,264.39,216.42,265.58Z"/><path class="cls-2" d="M296.92,288.59c6.93-1.76,8.55-8.92,12.69-17.36,5.21-10.59-5.94-18.06-13.66-8.33-3.24,4.08-7.91,13.26-8.07,18.82S291.94,289.86,296.92,288.59Z"/><path class="cls-2" d="M315.92,341.15a1,1,0,0,0-.49,1.48c0.36,1,4,11.74,4.3,12.57a0.89,0.89,0,0,0,1.39.59c3-1.13,5.3-3.17,4.08-7.91C323.65,341.85,321.4,339.32,315.92,341.15Z"/><path class="cls-2" d="M423.34,351.53a3.77,3.77,0,0,0,4.64-2.66,3.82,3.82,0,0,0-2.63-4.69,3.78,3.78,0,0,0-4.64,2.66A3.82,3.82,0,0,0,423.34,351.53Z"/><path class="cls-2" d="M401.22,331.19a3.61,3.61,0,0,0-4.06,3.16,3.73,3.73,0,0,0,2.91,4.33,3.6,3.6,0,0,0,4.06-3.16A3.73,3.73,0,0,0,401.22,331.19Z"/><path class="cls-2" d="M452.75,337.88l-7.29-1.22a0.74,0.74,0,0,0-.95.7l-2.21,15.21a0.92,0.92,0,0,0,.42,1l2.07,0.32a0.73,0.73,0,0,0,.87-0.57c0.13-.7.85-4.72,1-5.55a0.53,0.53,0,0,1,.81-0.47l2,0.3c0.58,0.09.65-.72,0.65-0.72l0.22-1.4a0.67,0.67,0,0,0-.35-0.88l-2.14-.42a0.68,0.68,0,0,1-.58-0.79s0.31-1.86.43-2.57a0.5,0.5,0,0,1,.68-0.49l3.77,0.64a0.65,0.65,0,0,0,.77-0.66l0.24-1.6C453.3,337.92,452.75,337.88,452.75,337.88Z"/><ellipse class="cls-2" cx="381.1" cy="344.84" rx="3.2" ry="3.36" transform="translate(-17.35 20.2) rotate(-2.97)"/><path class="cls-2" d="M467.51,339.65a0.64,0.64,0,0,0-.79-0.73s-2.05.06-2.84,0.1a1.07,1.07,0,0,0-1,.66l-1.41,3.19-1.14-3.53a1,1,0,0,0-.93-0.59c-0.8-.1-2.44-0.17-2.44-0.17a0.65,0.65,0,0,0-.74.54c0,0.61-1.94,15.1-1.94,15.1a0.77,0.77,0,0,0,.74,1,6.72,6.72,0,0,0,2,.23c1,0,.92-0.7.92-0.7l0.9-7.79c0.08-.73.34-0.17,0.34-0.17l1.38,3.8a1.25,1.25,0,0,0,1.71.16c0.28-.5,1.7-4.07,1.7-4.07s0.44-.48.45,0.23,0,8.25,0,8.25a0.5,0.5,0,0,0,.49.66l2.2-.12a0.77,0.77,0,0,0,.67-0.92S467.56,340.58,467.51,339.65Z"/></svg>