<svg id="background" xmlns="http://www.w3.org/2000/svg" viewBox="0 0 600 600"><defs><style>.cls-1{fill:#333;}</style></defs><title>logo</title><path class="cls-1" d="M285.34,189.76l-37.42-15.5L232.41,211.7A110.64,110.64,0,0,1,285.34,189.76Z"/><path class="cls-1" d="M300,230.5A69.5,69.5,0,1,0,369.5,300,69.5,69.5,0,0,0,300,230.5ZM330,330H270V270h60v60Z"/><path class="cls-1" d="M367.59,211.7l-15.51-37.44-37.42,15.5A110.64,110.64,0,0,1,367.59,211.7Z"/><path class="cls-1" d="M388.3,232.41a110.64,110.64,0,0,1,21.94,52.93l15.5-37.42Z"/><path class="cls-1" d="M410.24,314.66a110.64,110.64,0,0,1-21.94,52.93l37.44-15.51Z"/><path class="cls-1" d="M314.66,410.24l37.42,15.5,15.51-37.44A110.63,110.63,0,0,1,314.66,410.24Z"/><path class="cls-1" d="M232.41,388.3l15.51,37.44,37.42-15.5A110.63,110.63,0,0,1,232.41,388.3Z"/><path class="cls-1" d="M189.76,314.66l-15.5,37.42,37.44,15.51A110.64,110.64,0,0,1,189.76,314.66Z"/><path class="cls-1" d="M211.7,232.41l-37.44,15.51,15.5,37.42A110.64,110.64,0,0,1,211.7,232.41Z"/></svg>