<svg id="background" xmlns="http://www.w3.org/2000/svg" viewBox="0 0 600 600"><defs><style>.cls-1{fill:#fff;}.cls-2{fill:#1b1b1b;}</style></defs><title>logos</title><rect class="cls-1" x="-1.16" width="602.32" height="600"/><polygon class="cls-2" points="270 275.4 192.48 320.63 269.96 365.82 270 275.4"/><polygon class="cls-2" points="408.16 320.63 330.64 275.4 330.68 365.82 408.16 320.63"/><polygon class="cls-2" points="405.76 314.4 302 135.71 302 253.83 405.76 314.4"/><polygon class="cls-2" points="298.08 253.83 298.08 135.71 194.32 314.4 298.08 253.83"/><ellipse class="cls-2" cx="300.4" cy="287.79" rx="16.04" ry="16.38"/><path class="cls-2" d="M389.41,403H310.8a3.5,3.5,0,0,0,0,7H326v50.53a3.5,3.5,0,0,0,7,0V410h33v50.53a3.5,3.5,0,0,0,7,0V410h16.41A3.5,3.5,0,0,0,389.41,403Z"/><path class="cls-2" d="M291.5,404a3.48,3.48,0,0,0-3.5,3.37v32.19a18,18,0,0,1-36,0V407.37a3.5,3.5,0,0,0-7,0v32.19a25,25,0,0,0,50,0V407.37A3.48,3.48,0,0,0,291.5,404Z"/><path class="cls-2" d="M408.5,404a3.48,3.48,0,0,0-3.5,3.37v53.16a3.5,3.5,0,0,0,7,0V407.37A3.48,3.48,0,0,0,408.5,404Z"/><path class="cls-2" d="M215.07,406.26a3.45,3.45,0,0,0-3.14-2.26h0a3.46,3.46,0,0,0-3.14,2.24l-20.72,53.34a3.44,3.44,0,0,0,3.14,4.66,3.36,3.36,0,0,0,3.14-2.13l17.56-45.2,17.33,45.2a3.38,3.38,0,0,0,4.35,2,3.45,3.45,0,0,0,1.94-4.42Z"/></svg>