<svg id="BG" xmlns="http://www.w3.org/2000/svg" viewBox="0 0 1400 800"><defs><style>.cls-1{fill:#0cc;}.cls-2,.cls-3,.cls-4{fill:none;}.cls-2,.cls-3{stroke:#fff;stroke-miterlimit:10;}.cls-2{stroke-width:0.5px;}.cls-3,.cls-4{stroke-width:2px;}.cls-3{stroke-dasharray:4;}.cls-4{stroke:#231f20;stroke-linecap:round;stroke-linejoin:round;}</style></defs><title>AUTTI-presentation</title><rect class="cls-1" width="1400" height="799.47"/><polyline class="cls-2" points="427.51 484.29 427.51 313.51 575.71 313.51 575.71 484.29"/><line class="cls-2" x1="575.7" y1="462.65" x2="464.55" y2="397.81"/><line class="cls-2" x1="427.5" y1="484.26" x2="575.7" y2="397.81"/><line class="cls-2" x1="575.7" y1="484.26" x2="427.5" y2="397.81"/><line class="cls-2" x1="427.56" y1="462.65" x2="538.65" y2="397.81"/><line class="cls-2" x1="427.56" y1="419.42" x2="538.65" y2="484.26"/><line class="cls-2" x1="464.55" y1="484.26" x2="575.7" y2="419.42"/><line class="cls-2" x1="445.98" y1="484.29" x2="445.98" y2="397.78"/><line class="cls-2" x1="464.52" y1="397.78" x2="464.52" y2="484.29"/><line class="cls-2" x1="483.06" y1="484.29" x2="483.06" y2="397.78"/><line class="cls-2" x1="520.11" y1="484.29" x2="520.11" y2="397.78"/><line class="cls-2" x1="538.65" y1="397.78" x2="538.65" y2="484.29"/><line class="cls-2" x1="501.57" y1="397.78" x2="501.57" y2="484.29"/><line class="cls-2" x1="557.19" y1="484.29" x2="557.19" y2="397.78"/><line class="cls-2" x1="427.5" y1="484.29" x2="575.7" y2="484.29"/><line class="cls-2" x1="575.7" y1="397.78" x2="427.5" y2="397.78"/><rect class="cls-2" x="611.79" y="355.64" width="322.57" height="86.51"/><polyline class="cls-2" points="611.79 313.51 611.79 355.64 575.71 355.64"/><polyline class="cls-2" points="575.71 442.16 611.79 442.16 611.79 484.29"/><polyline class="cls-2" points="970.44 355.64 934.36 355.64 934.36 313.51"/><polyline class="cls-2" points="934.36 484.6 934.36 442.46 970.44 442.46"/><polyline class="cls-2" points="575.71 313.51 970.44 313.51 970.44 484.6 575.71 484.6"/><polyline class="cls-2" points="970.44 274.05 970.44 313.51 1009.9 313.51"/><polyline class="cls-2" points="1009.9 484.6 970.44 484.6 970.44 524.05"/><polyline class="cls-2" points="427.56 524.05 427.56 484.6 388.1 484.6"/><polyline class="cls-2" points="388.1 313.51 427.56 313.51 427.56 274.05"/><line class="cls-3" x1="1401" y1="274.1" x2="1" y2="274.1"/><line class="cls-3" x1="1401" y1="524.1" x2="1" y2="524.1"/><line class="cls-3" x1="388" y1="801.1" x2="388" y2="-0.9"/><line class="cls-3" x1="1010" y1="801.1" x2="1010" y2="-0.9"/><polygon class="cls-4" points="483.05 473.44 427.5 441.03 483.08 408.61 483.05 473.44"/><polygon class="cls-4" points="520.16 473.44 575.71 441.03 520.13 408.61 520.16 473.44"/><polygon class="cls-4" points="501.61 313.51 575.65 441.03 501.61 397.81 501.61 313.51"/><polygon class="cls-4" points="501.61 313.51 501.61 397.81 427.56 441.03 501.61 313.51"/><ellipse class="cls-4" cx="501.6" cy="419.37" rx="10.59" ry="10.81"/><path d="M901,356.1H788.15a4.51,4.51,0,1,0,0,9H810v72a5,5,0,0,0,10,0v-72h49v72a4.51,4.51,0,1,0,9,0v-72h23A4.51,4.51,0,1,0,901,356.1Z"/><path d="M760.5,355.92a4.56,4.56,0,0,0-4.5,4.84V407a26,26,0,0,1-52,0V360.76a5,5,0,0,0-10,0V407a35.5,35.5,0,0,0,71,0V360.76A4.56,4.56,0,0,0,760.5,355.92Z"/><path d="M929,355.92a5,5,0,0,0-5,4.84v76.3a5,5,0,0,0,10,0v-76.3A5,5,0,0,0,929,355.92Z"/><path d="M650.74,359.25a4.87,4.87,0,0,0-4.5-3.15h0a4.88,4.88,0,0,0-4.51,3.13L612,435.75a4.91,4.91,0,0,0,4.51,6.66,4.82,4.82,0,0,0,4.51-3.07l25.21-64.88,24.87,64.88a4.85,4.85,0,0,0,6.25,2.8,4.9,4.9,0,0,0,2.78-6.3Z"/></svg>