<svg id="Elements" xmlns="http://www.w3.org/2000/svg" xmlns:xlink="http://www.w3.org/1999/xlink" viewBox="0 0 1400 800"><defs><style>.cls-1{fill:none;}.cls-2{fill:#394047;}.cls-3{fill:#f2f2f2;}.cls-4{clip-path:url(#clip-path);}.cls-5{fill:#d7dee6;}.cls-6{fill:#039f9f;}</style><clipPath id="clip-path"><rect class="cls-1" x="-1494" width="1400" height="800"/></clipPath></defs><title>RC-presentation</title><rect class="cls-2" width="699.64" height="800"/><path class="cls-3" d="M200.18,437.46h5.4a8.92,8.92,0,0,1,3.3.4,5.25,5.25,0,0,1-.2,9.55v0a5.12,5.12,0,0,1,.53.8l3.75,6.85h-2.8l-3.73-7h-3.78v7h-2.48V437.46Zm6,8.48a2.94,2.94,0,0,0,3.13-3.2,2.89,2.89,0,0,0-1.4-2.73,4.86,4.86,0,0,0-2.43-.4h-2.85v6.33h3.55Z"/><path class="cls-3" d="M226,450h-6.65l-1.75,5.08H215l6.35-17.66H224l6.35,17.66h-2.58Zm-3.33-10.15s-0.4,1.6-.7,2.5l-2,5.6h5.35l-2-5.6c-0.3-.9-0.68-2.5-0.68-2.5h-0.05Z"/><path class="cls-3" d="M233.92,437.46h5.85c5.4,0,9,3.23,9,8.8s-3.55,8.85-9,8.85h-5.85V437.46ZM239.6,453c4,0,6.58-2.35,6.58-6.7s-2.63-6.65-6.58-6.65h-3.2V453h3.2Z"/><path class="cls-3" d="M253.43,437.46h2.48v17.66h-2.48V437.46Z"/><path class="cls-3" d="M269.58,437.16a8.9,8.9,0,0,1,9.05,9,9.07,9.07,0,1,1-18.13,0A8.92,8.92,0,0,1,269.58,437.16Zm0,16a6.67,6.67,0,0,0,6.5-7,6.52,6.52,0,1,0-13,0A6.69,6.69,0,0,0,269.58,453.14Z"/><path class="cls-3" d="M283.29,451.21a7,7,0,0,0,4.5,1.9c1.65,0,3.05-.92,3.05-2.6,0-3.83-8.55-3-8.55-8.43,0-2.75,2.38-4.93,5.7-4.93a7.24,7.24,0,0,1,5,1.78L291.87,441a6.23,6.23,0,0,0-3.88-1.53c-1.88,0-3.2,1.18-3.2,2.58,0,3.65,8.55,2.68,8.55,8.4,0,2.73-2.1,5-5.6,5a8.26,8.26,0,0,1-5.85-2.33Z"/><path class="cls-3" d="M313.1,437.16a9.09,9.09,0,0,1,6.43,2.33l-1.23,1.85a8.06,8.06,0,0,0-5.1-1.93,6.42,6.42,0,0,0-6.53,6.75c0,3.78,2.63,7,6.55,7a8,8,0,0,0,5.45-2.3l1.33,1.78a9.47,9.47,0,0,1-6.85,2.8A9.13,9.13,0,0,1,313.1,437.16Z"/><path class="cls-3" d="M332.14,437.16a8.9,8.9,0,0,1,9.05,9,9.07,9.07,0,1,1-18.13,0A8.92,8.92,0,0,1,332.14,437.16Zm0,16a6.67,6.67,0,0,0,6.5-7,6.52,6.52,0,1,0-13,0A6.69,6.69,0,0,0,332.14,453.14Z"/><path class="cls-3" d="M346.67,437.46h2.6l4.05,9.55c0.4,1,.88,2.38.88,2.38h0s0.48-1.4.88-2.38l4.05-9.55h2.6l1.43,17.66h-2.45L359.87,444c-0.08-1.08,0-2.6,0-2.6h0s-0.53,1.63-1,2.6l-3.53,8h-2.2l-3.5-8c-0.4-1-1-2.65-1-2.65h-0.05s0,1.58-.05,2.65l-0.85,11.13h-2.48Z"/><path class="cls-3" d="M368.2,437.46h2.48v11.4c0,2.7,1.75,4.28,4.45,4.28s4.5-1.58,4.5-4.33V437.46h2.48v11.4c0,3.93-2.83,6.55-7,6.55s-7-2.63-7-6.55v-11.4Z"/><path class="cls-3" d="M387.66,437.46h2.45L398,448.94c0.65,0.95,1.48,2.55,1.48,2.55h0.05s-0.18-1.58-.18-2.55V437.46h2.48v17.66h-2.43l-7.88-11.45c-0.65-1-1.47-2.58-1.47-2.58H390s0.17,1.58.17,2.58v11.45h-2.48V437.46Z"/><path class="cls-3" d="M407.59,437.46h2.47v17.66h-2.47V437.46Z"/><path class="cls-3" d="M419.65,439.61H413.6v-2.15h14.58v2.15h-6.05v15.51h-2.48V439.61Z"/><path class="cls-3" d="M439.38,450h-6.65L431,455.11h-2.55l6.35-17.66h2.6l6.35,17.66h-2.58Zm-3.33-10.15s-0.4,1.6-.7,2.5l-2,5.6h5.35l-2-5.6c-0.3-.9-0.67-2.5-0.67-2.5h0Z"/><path class="cls-3" d="M447.34,437.46h5.4a8.91,8.91,0,0,1,3.3.4,5.25,5.25,0,0,1-.2,9.55v0a5.19,5.19,0,0,1,.52.8l3.75,6.85h-2.8l-3.73-7h-3.78v7h-2.48V437.46Zm6,8.48a2.94,2.94,0,0,0,3.13-3.2,2.89,2.89,0,0,0-1.4-2.73,4.85,4.85,0,0,0-2.43-.4h-2.85v6.33h3.55Z"/><path class="cls-3" d="M464.37,437.46h2.47v17.66h-2.47V437.46Z"/><path class="cls-3" d="M481.4,450h-6.65L473,455.11h-2.55l6.35-17.66h2.6l6.35,17.66h-2.58Zm-3.33-10.15s-0.4,1.6-.7,2.5l-2,5.6h5.35l-2-5.6c-0.3-.9-0.68-2.5-0.68-2.5h0Z"/><path class="cls-3" d="M489.4,451.21a7,7,0,0,0,4.5,1.9c1.65,0,3.05-.92,3.05-2.6,0-3.83-8.55-3-8.55-8.43,0-2.75,2.38-4.93,5.7-4.93a7.24,7.24,0,0,1,5,1.78L498,441a6.23,6.23,0,0,0-3.88-1.53c-1.88,0-3.2,1.18-3.2,2.58,0,3.65,8.55,2.68,8.55,8.4,0,2.73-2.1,5-5.6,5a8.27,8.27,0,0,1-5.85-2.33Z"/><path class="cls-3" d="M200.7,465.47h5.86c5.41,0,9,3.23,9,8.81s-3.56,8.86-9,8.86H200.7V465.47ZM206.38,481c4,0,6.59-2.35,6.59-6.71s-2.63-6.66-6.59-6.66h-3.2V481h3.2Z"/><path class="cls-3" d="M221.28,465.47h10.26v2.15h-7.79v5.53h6.33v2.15h-6.33V481H232v2.15H221.28V465.47Z"/><path class="cls-3" d="M246.16,465.47h2.48V481h7.91v2.15H246.16V465.47Z"/><path class="cls-3" d="M270.47,478.06h-6.66l-1.75,5.08h-2.55l6.36-17.68h2.6l6.36,17.68h-2.58Zm-3.33-10.16s-0.4,1.6-.7,2.5l-2,5.61h5.36l-2-5.61c-0.3-.9-0.67-2.5-0.67-2.5h-0.05Z"/><path class="cls-3" d="M288,465.47h5.41a8.9,8.9,0,0,1,3.3.4,5.25,5.25,0,0,1-.2,9.56v0.05a5.08,5.08,0,0,1,.53.8l3.76,6.86H298l-3.73-7h-3.78v7H288V465.47Zm6,8.49a2.94,2.94,0,0,0,3.13-3.2,2.89,2.89,0,0,0-1.4-2.73,4.86,4.86,0,0,0-2.43-.4h-2.85V474H294Z"/><path class="cls-3" d="M306.08,465.47h10.26v2.15h-7.79v5.53h6.33v2.15h-6.33V481h8.21v2.15H306.08V465.47Z"/><path class="cls-3" d="M330.19,465.17a9.61,9.61,0,0,1,6.43,2.13l-1.25,1.85a8.14,8.14,0,0,0-5-1.73c-4.16,0-6.66,3-6.66,6.81,0,4.11,2.8,6.93,6.51,6.93a7.23,7.23,0,0,0,5-2.2v-2.55h-2.88v-2.15h5.13v8.89h-2.18V482c0-.38,0-0.75,0-0.75H335.3a7.62,7.62,0,0,1-5.43,2.15c-4.76,0-8.69-3.75-8.69-9.16A8.91,8.91,0,0,1,330.19,465.17Z"/><path class="cls-3" d="M343.44,465.47h2.48v17.68h-2.48V465.47Z"/><path class="cls-3" d="M360.66,465.17a8.91,8.91,0,0,1,9.06,9,9.08,9.08,0,1,1-18.15,0A8.93,8.93,0,0,1,360.66,465.17Zm0,16a6.68,6.68,0,0,0,6.51-7,6.53,6.53,0,1,0-13,0A6.7,6.7,0,0,0,360.66,481.17Zm0.75-20.1H364l-2.4,3.18h-2Z"/><path class="cls-3" d="M375.38,465.47h2.45L385.7,477c0.65,1,1.48,2.55,1.48,2.55h0.05S387,477.94,387,477V465.47h2.48v17.68H387.1l-7.89-11.47c-0.65-1-1.48-2.58-1.48-2.58h0s0.17,1.58.17,2.58v11.47h-2.48V465.47Z"/><path class="cls-3" d="M412.66,465.17a9.1,9.1,0,0,1,6.44,2.33l-1.23,1.85a8.07,8.07,0,0,0-5.11-1.93,6.42,6.42,0,0,0-6.53,6.76c0,3.78,2.63,7,6.56,7a8,8,0,0,0,5.46-2.3l1.33,1.78a9.48,9.48,0,0,1-6.86,2.8A9.14,9.14,0,0,1,412.66,465.17Z"/><path class="cls-3" d="M433.77,478.06h-6.66l-1.75,5.08H422.8l6.36-17.68h2.6l6.36,17.68h-2.58Zm-3.33-10.16s-0.4,1.6-.7,2.5l-2,5.61h5.36l-2-5.61c-0.3-.9-0.68-2.5-0.68-2.5h0Z"/><path class="cls-3" d="M442.78,465.47h5.41a8.91,8.91,0,0,1,3.3.4,5.25,5.25,0,0,1-.2,9.56v0.05a5.06,5.06,0,0,1,.53.8l3.76,6.86h-2.8l-3.73-7h-3.78v7h-2.48V465.47Zm6,8.49a2.94,2.94,0,0,0,3.13-3.2,2.9,2.9,0,0,0-1.4-2.73,4.86,4.86,0,0,0-2.43-.4h-2.85V474h3.56Z"/><path class="cls-3" d="M460.88,465.47h2.48v17.68h-2.48V465.47Z"/><path class="cls-3" d="M470.22,465.47h6.18c3,0,5.13,1.65,5.13,4.51a4.13,4.13,0,0,1-2.2,3.8v0a4.26,4.26,0,0,1,2.9,4.28c0,3.33-2.58,5-5.68,5h-6.33V465.47Zm6.18,7.44a2.5,2.5,0,0,0,2.6-2.68,2.43,2.43,0,0,0-2.65-2.6H472.7v5.28h3.71Zm0.27,8.09a2.81,2.81,0,0,0,3-3,2.87,2.87,0,0,0-3.05-3h-4v6h4Z"/><path class="cls-3" d="M488.15,465.47h10.27v2.15h-7.79v5.53H497v2.15h-6.33V481h8.21v2.15H488.15V465.47Z"/><path class="cls-3" d="M477.21,424.14H460.68l7.16-99.27H470Zm-14.15-2.22h11.76l-5.88-81.57Z"/><path class="cls-3" d="M468.94,328a2.07,2.07,0,1,1,2.07-2.07A2.07,2.07,0,0,1,468.94,328Zm0-2.22a0.15,0.15,0,1,0,.15.15A0.15,0.15,0,0,0,468.94,325.76Z"/><polygon class="cls-3" points="474.67 423.65 462.59 406.09 463.51 404.35 472.81 404.35 463.81 388.44 464.77 386.79 471.35 386.79 464.56 373.19 465.56 371.59 472.03 371.59 472.03 373.81 467.35 373.81 474.13 387.4 473.14 389 466.67 389 475.68 404.92 474.72 406.57 465.61 406.57 476.5 422.4 474.67 423.65"/><path class="cls-3" d="M417.61,424.14H401.08l7.16-99.27h2.21Zm-14.15-2.22h11.77l-5.88-81.57Z"/><path class="cls-3" d="M409.35,328a2.07,2.07,0,1,1,2.07-2.07A2.07,2.07,0,0,1,409.35,328Zm0-2.22a0.15,0.15,0,1,0,.15.15A0.15,0.15,0,0,0,409.35,325.76Z"/><polygon class="cls-3" points="415.43 423.65 403.35 406.09 404.26 404.35 413.57 404.35 404.56 388.44 405.53 386.79 412.1 386.79 405.32 373.19 406.31 371.59 412.79 371.59 412.79 373.81 408.11 373.81 414.89 387.4 413.89 389 407.43 389 416.44 404.92 415.48 406.57 406.37 406.57 417.26 422.4 415.43 423.65"/><path class="cls-3" d="M357.81,424.14H341.28l7.16-99.27h2.21Zm-14.15-2.22h11.76l-5.88-81.57Z"/><path class="cls-3" d="M349.55,328a2.07,2.07,0,1,1,2.07-2.07A2.07,2.07,0,0,1,349.55,328Zm0-2.22a0.15,0.15,0,0,0,0,.3A0.15,0.15,0,1,0,349.55,325.76Z"/><polygon class="cls-3" points="355.24 423.65 343.16 406.09 344.07 404.35 353.38 404.35 344.37 388.44 345.34 386.79 351.91 386.79 345.13 373.19 346.12 371.59 352.6 371.59 352.6 373.81 347.91 373.81 354.69 387.4 353.7 389 347.24 389 356.25 404.92 355.28 406.57 346.18 406.57 357.07 422.4 355.24 423.65"/><path class="cls-3" d="M298.6,424.14H282.07l7.16-99.27h2.21Zm-14.15-2.22h11.76l-5.88-81.57Z"/><path class="cls-3" d="M290.34,328a2.07,2.07,0,1,1,2.07-2.07A2.07,2.07,0,0,1,290.34,328Zm0-2.22a0.15,0.15,0,1,0,.15.15A0.15,0.15,0,0,0,290.34,325.76Z"/><polygon class="cls-3" points="296 423.65 283.92 406.09 284.83 404.35 294.14 404.35 285.13 388.44 286.09 386.79 292.67 386.79 285.89 373.19 286.88 371.59 293.36 371.59 293.36 373.81 288.67 373.81 295.45 387.4 294.46 389 288 389 297.01 404.92 296.04 406.57 286.94 406.57 297.82 422.4 296 423.65"/><path class="cls-3" d="M238.81,424.14H222.28l7.16-99.27h2.21Zm-14.15-2.22h11.76l-5.88-81.57Z"/><path class="cls-3" d="M230.55,328a2.07,2.07,0,1,1,2.07-2.07A2.07,2.07,0,0,1,230.55,328Zm0-2.22a0.15,0.15,0,1,0,.15.15A0.15,0.15,0,0,0,230.55,325.76Z"/><polygon class="cls-3" points="236.44 423.65 224.36 406.09 225.27 404.35 234.58 404.35 225.57 388.44 226.54 386.79 233.11 386.79 226.33 373.19 227.32 371.59 233.8 371.59 233.8 373.81 229.11 373.81 235.9 387.4 234.9 389 228.44 389 237.45 404.92 236.48 406.57 227.38 406.57 238.27 422.4 236.44 423.65"/><path class="cls-3" d="M469.31,336.5c-8,0-11.94-4.71-15.78-9.26-3.67-4.36-7.13-8.47-14.08-8.47s-10.41,4.11-14.08,8.47c-3.83,4.55-7.8,9.26-15.77,9.26s-11.94-4.71-15.77-9.26c-3.67-4.36-7.13-8.47-14.08-8.47s-10.41,4.11-14.08,8.47c-3.83,4.55-7.8,9.26-15.77,9.26s-11.94-4.71-15.78-9.26c-3.67-4.36-7.13-8.47-14.08-8.47s-10.41,4.11-14.08,8.47c-3.83,4.55-7.79,9.26-15.77,9.26s-11.94-4.71-15.77-9.26c-3.67-4.36-7.13-8.47-14.08-8.47s-10.41,4.11-14.08,8.47c-3.83,4.55-7.79,9.26-15.77,9.26s-11.94-4.71-15.78-9.26c-3.67-4.36-7.13-8.47-14.08-8.47v-2.22c8,0,11.94,4.71,15.77,9.26,3.67,4.36,7.13,8.47,14.08,8.47s10.41-4.11,14.08-8.47c3.83-4.55,7.79-9.26,15.77-9.26s11.94,4.71,15.78,9.26c3.67,4.36,7.13,8.47,14.08,8.47s10.41-4.11,14.08-8.47c3.83-4.55,7.8-9.26,15.78-9.26s11.94,4.71,15.78,9.26c3.67,4.36,7.13,8.47,14.08,8.47s10.41-4.11,14.08-8.47c3.83-4.55,7.79-9.26,15.77-9.26s11.94,4.71,15.77,9.26c3.67,4.36,7.13,8.47,14.08,8.47s10.41-4.11,14.08-8.47c3.83-4.55,7.8-9.26,15.77-9.26s11.94,4.71,15.78,9.26c3.67,4.36,7.13,8.47,14.08,8.47s10.41-4.11,14.08-8.47c3.83-4.55,7.8-9.26,15.78-9.26v2.22c-6.95,0-10.41,4.11-14.08,8.47C481.25,331.79,477.29,336.5,469.31,336.5Z"/><rect class="cls-3" x="700.36" width="699.64" height="800"/><path class="cls-2" d="M900.54,437.46h5.4a8.92,8.92,0,0,1,3.3.4,5.25,5.25,0,0,1-.2,9.55v0a5.12,5.12,0,0,1,.53.8l3.75,6.85h-2.8l-3.73-7H903v7h-2.48V437.46Zm6,8.48a2.94,2.94,0,0,0,3.13-3.2,2.89,2.89,0,0,0-1.4-2.73,4.86,4.86,0,0,0-2.43-.4H903v6.33h3.55Z"/><path class="cls-2" d="M926.33,450h-6.65l-1.75,5.08h-2.55l6.35-17.66h2.6l6.35,17.66H928.1ZM923,439.88s-0.4,1.6-.7,2.5l-2,5.6h5.35l-2-5.6c-0.3-.9-0.68-2.5-0.68-2.5H923Z"/><path class="cls-2" d="M934.28,437.46h5.85c5.4,0,9,3.23,9,8.8s-3.55,8.85-9,8.85h-5.85V437.46ZM940,453c4,0,6.58-2.35,6.58-6.7s-2.63-6.65-6.58-6.65h-3.2V453H940Z"/><path class="cls-2" d="M953.79,437.46h2.48v17.66h-2.48V437.46Z"/><path class="cls-2" d="M969.95,437.16a8.9,8.9,0,0,1,9.05,9,9.07,9.07,0,1,1-18.13,0A8.92,8.92,0,0,1,969.95,437.16Zm0,16a6.67,6.67,0,0,0,6.5-7,6.52,6.52,0,1,0-13,0A6.69,6.69,0,0,0,969.95,453.14Z"/><path class="cls-2" d="M983.65,451.21a7,7,0,0,0,4.5,1.9c1.65,0,3.05-.92,3.05-2.6,0-3.83-8.55-3-8.55-8.43,0-2.75,2.38-4.93,5.7-4.93a7.24,7.24,0,0,1,5,1.78L992.23,441a6.23,6.23,0,0,0-3.88-1.53c-1.88,0-3.2,1.18-3.2,2.58,0,3.65,8.55,2.68,8.55,8.4,0,2.73-2.1,5-5.6,5a8.26,8.26,0,0,1-5.85-2.33Z"/><path class="cls-2" d="M1013.46,437.16a9.09,9.09,0,0,1,6.43,2.33l-1.23,1.85a8.06,8.06,0,0,0-5.1-1.93,6.42,6.42,0,0,0-6.53,6.75c0,3.78,2.63,7,6.55,7a8,8,0,0,0,5.45-2.3l1.33,1.78a9.47,9.47,0,0,1-6.85,2.8A9.13,9.13,0,0,1,1013.46,437.16Z"/><path class="cls-2" d="M1032.5,437.16a8.9,8.9,0,0,1,9.05,9,9.07,9.07,0,1,1-18.13,0A8.92,8.92,0,0,1,1032.5,437.16Zm0,16a6.67,6.67,0,0,0,6.5-7,6.52,6.52,0,1,0-13,0A6.69,6.69,0,0,0,1032.5,453.14Z"/><path class="cls-2" d="M1047,437.46h2.6l4.05,9.55c0.4,1,.88,2.38.88,2.38h0s0.48-1.4.88-2.38l4.05-9.55h2.6l1.43,17.66h-2.45L1060.24,444c-0.08-1.08,0-2.6,0-2.6h0s-0.53,1.63-1,2.6l-3.53,8h-2.2l-3.5-8c-0.4-1-1-2.65-1-2.65H1049s0,1.58-.05,2.65l-0.85,11.13h-2.48Z"/><path class="cls-2" d="M1068.56,437.46H1071v11.4c0,2.7,1.75,4.28,4.45,4.28s4.5-1.58,4.5-4.33V437.46h2.48v11.4c0,3.93-2.83,6.55-7,6.55s-7-2.63-7-6.55v-11.4Z"/><path class="cls-2" d="M1088,437.46h2.45l7.85,11.48c0.65,0.95,1.48,2.55,1.48,2.55h0.05s-0.18-1.58-.18-2.55V437.46h2.48v17.66h-2.43l-7.88-11.45c-0.65-1-1.47-2.58-1.47-2.58h-0.05s0.17,1.58.17,2.58v11.45H1088V437.46Z"/><path class="cls-2" d="M1108,437.46h2.47v17.66H1108V437.46Z"/><path class="cls-2" d="M1120,439.61H1114v-2.15h14.58v2.15h-6.05v15.51H1120V439.61Z"/><path class="cls-2" d="M1139.75,450h-6.65l-1.75,5.08h-2.55l6.35-17.66h2.6l6.35,17.66h-2.58Zm-3.33-10.15s-0.4,1.6-.7,2.5l-2,5.6h5.35l-2-5.6c-0.3-.9-0.67-2.5-0.67-2.5h0Z"/><path class="cls-2" d="M1147.7,437.46h5.4a8.91,8.91,0,0,1,3.3.4,5.25,5.25,0,0,1-.2,9.55v0a5.19,5.19,0,0,1,.52.8l3.75,6.85h-2.8l-3.73-7h-3.78v7h-2.48V437.46Zm6,8.48a2.94,2.94,0,0,0,3.13-3.2,2.89,2.89,0,0,0-1.4-2.73,4.85,4.85,0,0,0-2.43-.4h-2.85v6.33h3.55Z"/><path class="cls-2" d="M1164.73,437.46h2.47v17.66h-2.47V437.46Z"/><path class="cls-2" d="M1181.76,450h-6.65l-1.75,5.08h-2.55l6.35-17.66h2.6l6.35,17.66h-2.58Zm-3.33-10.15s-0.4,1.6-.7,2.5l-2,5.6h5.35l-2-5.6c-0.3-.9-0.68-2.5-0.68-2.5h0Z"/><path class="cls-2" d="M1189.76,451.21a7,7,0,0,0,4.5,1.9c1.65,0,3.05-.92,3.05-2.6,0-3.83-8.55-3-8.55-8.43,0-2.75,2.38-4.93,5.7-4.93a7.24,7.24,0,0,1,5,1.78l-1.12,2.05a6.23,6.23,0,0,0-3.88-1.53c-1.88,0-3.2,1.18-3.2,2.58,0,3.65,8.55,2.68,8.55,8.4,0,2.73-2.1,5-5.6,5a8.27,8.27,0,0,1-5.85-2.33Z"/><path class="cls-2" d="M901.06,465.47h5.86c5.41,0,9,3.23,9,8.81s-3.56,8.86-9,8.86h-5.86V465.47ZM906.74,481c4,0,6.59-2.35,6.59-6.71s-2.63-6.66-6.59-6.66h-3.2V481h3.2Z"/><path class="cls-2" d="M921.64,465.47H931.9v2.15h-7.79v5.53h6.33v2.15h-6.33V481h8.21v2.15H921.64V465.47Z"/><path class="cls-2" d="M946.53,465.47H949V481h7.91v2.15H946.53V465.47Z"/><path class="cls-2" d="M970.84,478.06h-6.66l-1.75,5.08h-2.55l6.36-17.68h2.6l6.36,17.68h-2.58Zm-3.33-10.16s-0.4,1.6-.7,2.5l-2,5.61h5.36l-2-5.61c-0.3-.9-0.67-2.5-0.67-2.5h-0.05Z"/><path class="cls-2" d="M988.34,465.47h5.41a8.9,8.9,0,0,1,3.3.4,5.25,5.25,0,0,1-.2,9.56v0.05a5.08,5.08,0,0,1,.53.8l3.76,6.86h-2.8l-3.73-7h-3.78v7h-2.48V465.47Zm6,8.49a2.94,2.94,0,0,0,3.13-3.2,2.89,2.89,0,0,0-1.4-2.73,4.86,4.86,0,0,0-2.43-.4h-2.85V474h3.55Z"/><path class="cls-2" d="M1006.44,465.47h10.26v2.15h-7.79v5.53h6.33v2.15h-6.33V481h8.21v2.15h-10.69V465.47Z"/><path class="cls-2" d="M1030.55,465.17a9.61,9.61,0,0,1,6.43,2.13l-1.25,1.85a8.14,8.14,0,0,0-5-1.73c-4.16,0-6.66,3-6.66,6.81,0,4.11,2.8,6.93,6.51,6.93a7.23,7.23,0,0,0,5-2.2v-2.55h-2.88v-2.15h5.13v8.89h-2.18V482c0-.38,0-0.75,0-0.75h-0.05a7.62,7.62,0,0,1-5.43,2.15c-4.76,0-8.69-3.75-8.69-9.16A8.91,8.91,0,0,1,1030.55,465.17Z"/><path class="cls-2" d="M1043.8,465.47h2.48v17.68h-2.48V465.47Z"/><path class="cls-2" d="M1061,465.17a8.91,8.91,0,0,1,9.06,9,9.08,9.08,0,1,1-18.15,0A8.93,8.93,0,0,1,1061,465.17Zm0,16a6.68,6.68,0,0,0,6.51-7,6.53,6.53,0,1,0-13,0A6.7,6.7,0,0,0,1061,481.17Zm0.75-20.1h2.6l-2.4,3.18h-2Z"/><path class="cls-2" d="M1075.74,465.47h2.45l7.86,11.49c0.65,1,1.48,2.55,1.48,2.55h0.05s-0.18-1.58-.18-2.55V465.47h2.48v17.68h-2.43l-7.89-11.47c-0.65-1-1.48-2.58-1.48-2.58h0s0.17,1.58.17,2.58v11.47h-2.48V465.47Z"/><path class="cls-2" d="M1113,465.17a9.1,9.1,0,0,1,6.44,2.33l-1.23,1.85a8.07,8.07,0,0,0-5.11-1.93,6.42,6.42,0,0,0-6.53,6.76c0,3.78,2.63,7,6.56,7a8,8,0,0,0,5.46-2.3l1.33,1.78a9.48,9.48,0,0,1-6.86,2.8A9.14,9.14,0,0,1,1113,465.17Z"/><path class="cls-2" d="M1134.13,478.06h-6.66l-1.75,5.08h-2.55l6.36-17.68h2.6l6.36,17.68h-2.58Zm-3.33-10.16s-0.4,1.6-.7,2.5l-2,5.61h5.36l-2-5.61c-0.3-.9-0.68-2.5-0.68-2.5h0Z"/><path class="cls-2" d="M1143.14,465.47h5.41a8.91,8.91,0,0,1,3.3.4,5.25,5.25,0,0,1-.2,9.56v0.05a5.06,5.06,0,0,1,.53.8l3.76,6.86h-2.8l-3.73-7h-3.78v7h-2.48V465.47Zm6,8.49a2.94,2.94,0,0,0,3.13-3.2,2.9,2.9,0,0,0-1.4-2.73,4.86,4.86,0,0,0-2.43-.4h-2.85V474h3.56Z"/><path class="cls-2" d="M1161.25,465.47h2.48v17.68h-2.48V465.47Z"/><path class="cls-2" d="M1170.59,465.47h6.18c3,0,5.13,1.65,5.13,4.51a4.13,4.13,0,0,1-2.2,3.8v0a4.26,4.26,0,0,1,2.9,4.28c0,3.33-2.58,5-5.68,5h-6.33V465.47Zm6.18,7.44a2.5,2.5,0,0,0,2.6-2.68,2.43,2.43,0,0,0-2.65-2.6h-3.66v5.28h3.71ZM1177,481a2.81,2.81,0,0,0,3-3,2.87,2.87,0,0,0-3.05-3h-4v6h4Z"/><path class="cls-2" d="M1188.51,465.47h10.27v2.15H1191v5.53h6.33v2.15H1191V481h8.21v2.15h-10.69V465.47Z"/><path class="cls-2" d="M1177.57,424.14H1161l7.16-99.27h2.21Zm-14.15-2.22h11.76l-5.88-81.57Z"/><path class="cls-2" d="M1169.31,328a2.07,2.07,0,1,1,2.07-2.07A2.07,2.07,0,0,1,1169.31,328Zm0-2.22a0.15,0.15,0,1,0,.15.15A0.15,0.15,0,0,0,1169.31,325.76Z"/><polygon class="cls-2" points="1175.04 423.65 1162.96 406.09 1163.87 404.35 1173.18 404.35 1164.17 388.44 1165.13 386.79 1171.71 386.79 1164.93 373.19 1165.92 371.59 1172.39 371.59 1172.39 373.81 1167.71 373.81 1174.49 387.4 1173.5 389 1167.03 389 1176.04 404.92 1175.08 406.57 1165.97 406.57 1176.86 422.4 1175.04 423.65"/><path class="cls-2" d="M1118,424.14h-16.53l7.16-99.27h2.21Zm-14.15-2.22h11.77l-5.88-81.57Z"/><path class="cls-2" d="M1109.71,328a2.07,2.07,0,1,1,2.07-2.07A2.07,2.07,0,0,1,1109.71,328Zm0-2.22a0.15,0.15,0,1,0,.15.15A0.15,0.15,0,0,0,1109.71,325.76Z"/><polygon class="cls-2" points="1115.79 423.65 1103.71 406.09 1104.63 404.35 1113.94 404.35 1104.93 388.44 1105.89 386.79 1112.47 386.79 1105.69 373.19 1106.68 371.59 1113.15 371.59 1113.15 373.81 1108.47 373.81 1115.25 387.4 1114.26 389 1107.79 389 1116.8 404.92 1115.84 406.57 1106.73 406.57 1117.62 422.4 1115.79 423.65"/><path class="cls-2" d="M1058.17,424.14h-16.53l7.16-99.27H1051ZM1044,421.92h11.76l-5.88-81.57Z"/><path class="cls-2" d="M1049.91,328a2.07,2.07,0,1,1,2.07-2.07A2.07,2.07,0,0,1,1049.91,328Zm0-2.22a0.15,0.15,0,0,0,0,.3A0.15,0.15,0,1,0,1049.91,325.76Z"/><polygon class="cls-2" points="1055.6 423.65 1043.52 406.09 1044.44 404.35 1053.75 404.35 1044.73 388.44 1045.7 386.79 1052.27 386.79 1045.49 373.19 1046.49 371.59 1052.96 371.59 1052.96 373.81 1048.28 373.81 1055.06 387.4 1054.07 389 1047.6 389 1056.61 404.92 1055.64 406.57 1046.54 406.57 1057.43 422.4 1055.6 423.65"/><path class="cls-2" d="M999,424.14H982.44l7.16-99.27h2.21Zm-14.15-2.22h11.76l-5.88-81.57Z"/><path class="cls-2" d="M990.7,328a2.07,2.07,0,1,1,2.07-2.07A2.07,2.07,0,0,1,990.7,328Zm0-2.22a0.15,0.15,0,1,0,.15.15A0.15,0.15,0,0,0,990.7,325.76Z"/><polygon class="cls-2" points="996.36 423.65 984.28 406.09 985.2 404.35 994.5 404.35 985.49 388.44 986.46 386.79 993.03 386.79 986.25 373.19 987.25 371.59 993.72 371.59 993.72 373.81 989.03 373.81 995.82 387.4 994.82 389 988.36 389 997.37 404.92 996.41 406.57 987.3 406.57 998.19 422.4 996.36 423.65"/><path class="cls-2" d="M939.17,424.14H922.65l7.16-99.27H932ZM925,421.92h11.76l-5.88-81.57Z"/><path class="cls-2" d="M930.91,328a2.07,2.07,0,1,1,2.07-2.07A2.07,2.07,0,0,1,930.91,328Zm0-2.22a0.15,0.15,0,1,0,.15.15A0.15,0.15,0,0,0,930.91,325.76Z"/><polygon class="cls-2" points="936.8 423.65 924.72 406.09 925.64 404.35 934.95 404.35 925.93 388.44 926.9 386.79 933.48 386.79 926.7 373.19 927.69 371.59 934.16 371.59 934.16 373.81 929.48 373.81 936.26 387.4 935.27 389 928.8 389 937.81 404.92 936.85 406.57 927.74 406.57 938.63 422.4 936.8 423.65"/><path class="cls-2" d="M1169.67,336.5c-8,0-11.94-4.71-15.78-9.26-3.67-4.36-7.13-8.47-14.08-8.47s-10.41,4.11-14.08,8.47c-3.83,4.55-7.8,9.26-15.77,9.26s-11.94-4.71-15.77-9.26c-3.67-4.36-7.13-8.47-14.08-8.47s-10.41,4.11-14.08,8.47c-3.83,4.55-7.8,9.26-15.77,9.26s-11.94-4.71-15.78-9.26c-3.67-4.36-7.13-8.47-14.08-8.47s-10.41,4.11-14.08,8.47c-3.83,4.55-7.79,9.26-15.77,9.26s-11.94-4.71-15.77-9.26c-3.67-4.36-7.13-8.47-14.08-8.47s-10.41,4.11-14.08,8.47c-3.83,4.55-7.79,9.26-15.77,9.26s-11.94-4.71-15.78-9.26c-3.67-4.36-7.13-8.47-14.08-8.47v-2.22c8,0,11.94,4.71,15.77,9.26,3.67,4.36,7.13,8.47,14.08,8.47s10.41-4.11,14.08-8.47c3.83-4.55,7.79-9.26,15.77-9.26s11.94,4.71,15.78,9.26c3.67,4.36,7.13,8.47,14.08,8.47s10.41-4.11,14.08-8.47c3.83-4.55,7.8-9.26,15.78-9.26s11.94,4.71,15.78,9.26c3.67,4.36,7.13,8.47,14.08,8.47s10.41-4.11,14.08-8.47c3.83-4.55,7.79-9.26,15.77-9.26s11.94,4.71,15.77,9.26c3.67,4.36,7.13,8.47,14.08,8.47s10.41-4.11,14.08-8.47c3.83-4.55,7.8-9.26,15.77-9.26s11.94,4.71,15.78,9.26c3.67,4.36,7.13,8.47,14.08,8.47s10.41-4.11,14.08-8.47c3.83-4.55,7.8-9.26,15.78-9.26v2.22c-6.95,0-10.41,4.11-14.08,8.47C1181.61,331.79,1177.65,336.5,1169.67,336.5Z"/><g class="cls-4"><path class="cls-5" d="M-794,400.07l432.74,735.79A853.67,853.67,0,0,0-51.33,820.93C179.54,413.52,34.28-111.71-373.13-342.58Z"/><path class="cls-6" d="M-794,400.07L59.6,393.44v-0.22C57.15,88.64-108.14-192.41-373.13-342.58Z"/></g></svg>