<svg id="BG" xmlns="http://www.w3.org/2000/svg" xmlns:xlink="http://www.w3.org/1999/xlink" viewBox="0 0 1400 800"><defs><style>.cls-1,.cls-9{fill:none;}.cls-2,.cls-7{fill:#667380;}.cls-3{font-size:100px;fill:#424044;}.cls-3,.cls-4,.cls-7,.cls-8{font-family:Museo Sans;}.cls-4{font-size:36px;}.cls-4,.cls-6,.cls-8{fill:#fff;}.cls-5{letter-spacing:-9px;}.cls-7,.cls-8{font-size:24px;}.cls-9{stroke:#fff;stroke-miterlimit:10;}.cls-10{clip-path:url(#clip-path);}.cls-11{fill:#8aadac;opacity:0.8;}.cls-12{fill:#d7dee6;}</style><clipPath id="clip-path"><rect class="cls-1" y="-894.09" width="1400" height="800"/></clipPath></defs><title>RC-presentation</title><rect class="cls-2" y="2" width="1400" height="800"/><text class="cls-3" transform="translate(281.99 343.08)">Museo</text><text class="cls-4" transform="translate(286.41 395.04)">ABCDEFGHIJKLMNÑOPQRSTUVWXYZ<tspan x="0" y="43.2">abcdefghijklmnñopqrstuvwxyz</tspan><tspan x="0" y="86.4">0123456789</tspan><tspan x="0" y="129.6">‘</tspan><tspan class="cls-5" x="8.17" y="129.6">​</tspan><tspan x="8.17" y="129.6">?’“!”(%)[#]{@}/&amp;&lt;-+÷×=&gt;®©$£¥¢:;,.*</tspan></text><rect class="cls-6" x="1002.05" y="400" width="125.62" height="51.6"/><text class="cls-7" transform="translate(1022.02 432.85)">Regular</text><text class="cls-8" transform="translate(1022.02 389.06)">Estilos</text><rect class="cls-9" x="1002.05" y="359.85" width="125.62" height="91.75"/><g class="cls-10"><path class="cls-11" d="M700-494l-853.59,6.87A853.67,853.67,0,0,0-35.79-61.29C201.6,342.36,729.1,479.17,1132.74,241.78Z"/><path class="cls-12" d="M700-494l432.74,735.79A853.67,853.67,0,0,0,1442.67-73.16c230.87-407.41,85.61-932.64-321.8-1163.51Z"/><path class="cls-2" d="M700-494L279,248.53l0.19,0.11c265,150.17,591,147.55,853.59-6.86Z"/></g></svg>