<svg id="Elements" xmlns="http://www.w3.org/2000/svg" xmlns:xlink="http://www.w3.org/1999/xlink" viewBox="0 0 1400 800"><defs><style>.cls-1{fill:none;}.cls-2{clip-path:url(#clip-path);}.cls-3{fill:#8aadac;opacity:0.8;}.cls-4{fill:#d7dee6;}.cls-5{fill:#06d2cd;}.cls-6{fill:#424044;}.cls-7{fill:#667380;}.cls-8{fill:#039f9f;}</style><clipPath id="clip-path"><rect class="cls-1" width="1400" height="800"/></clipPath></defs><title>RC-presentation</title><g class="cls-2"><path class="cls-3" d="M700,400.07l-853.59,6.87A853.67,853.67,0,0,0-35.79,832.8c237.39,403.65,764.88,540.46,1168.53,303.07Z"/><path class="cls-4" d="M700,400.07l432.74,735.79a853.67,853.67,0,0,0,309.91-314.94c230.87-407.41,85.61-932.64-321.8-1163.51Z"/><path class="cls-5" d="M700,400.07l420.84-742.66a853.67,853.67,0,0,0-427.7-110.92C224.89-449.75-157.33-61.34-153.57,406.93Z"/><path class="cls-6" d="M700,400.07L267.47-335.84l-0.19.11C4.73-181.32-156,102.35-153.57,406.93Z"/><path class="cls-7" d="M700,400.07L279,1142.62l0.19,0.11c265,150.17,591,147.55,853.59-6.86Z"/><path class="cls-8" d="M700,400.07l853.59-6.64v-0.22c-2.45-304.58-167.73-585.63-432.73-735.8Z"/></g></svg>