<svg id="BG" xmlns="http://www.w3.org/2000/svg" xmlns:xlink="http://www.w3.org/1999/xlink" viewBox="0 0 1400 800"><defs><style>.cls-1{fill:none;}.cls-2{fill:#f2f2f2;}.cls-3{fill:#394047;}.cls-4{clip-path:url(#clip-path);}.cls-5{fill:#d7dee6;}.cls-6{fill:#06d2cd;}.cls-7{fill:#424044;}.cls-8{fill:#039f9f;}</style><clipPath id="clip-path"><rect class="cls-1" y="891.87" width="1400" height="800"/></clipPath></defs><title>RC-presentation</title><rect class="cls-2" y="2" width="1400" height="800"/><path class="cls-3" d="M439,465.33h9.42c3.23,0,4.58.26,5.76,0.7,3.14,1.18,5.19,4.28,5.19,8.33s-2.18,7.24-5.54,8.33v0.08a8.93,8.93,0,0,1,.92,1.4l6.54,12h-4.89l-6.5-12.26h-6.59v12.26H439v-30.8Zm10.51,14.79c3.36,0,5.45-2.14,5.45-5.58a5,5,0,0,0-2.44-4.75c-0.83-.44-1.83-0.7-4.23-0.7h-5v11h6.19Z"/><path class="cls-3" d="M484,487.27h-11.6l-3.05,8.86h-4.45L476,465.33h4.54l11.08,30.8h-4.49Zm-5.8-17.71s-0.7,2.79-1.22,4.36l-3.45,9.77h9.34l-3.4-9.77c-0.53-1.57-1.18-4.36-1.18-4.36h-0.09Z"/><path class="cls-3" d="M497.86,465.33h10.21c9.42,0,15.62,5.63,15.62,15.35s-6.2,15.44-15.62,15.44H497.86v-30.8Zm9.9,27c6.94,0,11.47-4.1,11.47-11.69s-4.58-11.6-11.47-11.6h-5.59v23.29h5.59Z"/><path class="cls-3" d="M531.89,465.33h4.32v30.8h-4.32v-30.8Z"/><path class="cls-3" d="M560.06,464.81a15.52,15.52,0,0,1,15.79,15.7,15.82,15.82,0,1,1-31.63,0A15.56,15.56,0,0,1,560.06,464.81Zm0,27.87c6.28,0,11.34-5.23,11.34-12.17a11.37,11.37,0,1,0-22.73,0C548.68,487.45,553.78,492.68,560.06,492.68Z"/><path class="cls-3" d="M584,489.32a12.15,12.15,0,0,0,7.85,3.31c2.88,0,5.32-1.61,5.32-4.54,0-6.67-14.92-5.24-14.92-14.7,0-4.8,4.15-8.59,9.95-8.59a12.62,12.62,0,0,1,8.72,3.1l-2,3.58a10.86,10.86,0,0,0-6.76-2.66c-3.27,0-5.58,2-5.58,4.49,0,6.37,14.92,4.67,14.92,14.66,0,4.75-3.66,8.68-9.77,8.68a14.41,14.41,0,0,1-10.21-4.06Z"/><path class="cls-3" d="M636,464.81c7.42,0,11.21,4.06,11.21,4.06L645,472.09a14.05,14.05,0,0,0-8.9-3.36c-6.89,0-11.38,5.24-11.38,11.78s4.58,12.17,11.43,12.17a13.94,13.94,0,0,0,9.51-4l2.31,3.1a16.51,16.51,0,0,1-12,4.88c-9.25,0-15.75-7.07-15.75-16.09A15.37,15.37,0,0,1,636,464.81Z"/><path class="cls-3" d="M669.16,464.81A15.52,15.52,0,0,1,685,480.51a15.82,15.82,0,1,1-31.63,0A15.56,15.56,0,0,1,669.16,464.81Zm0,27.87c6.28,0,11.34-5.23,11.34-12.17a11.37,11.37,0,1,0-22.73,0C657.77,487.45,662.88,492.68,669.16,492.68Z"/><path class="cls-3" d="M694.5,465.33H699L706.11,482c0.7,1.7,1.53,4.15,1.53,4.15h0.09s0.83-2.44,1.53-4.15l7.07-16.66h4.54l2.49,30.8h-4.27l-1.52-19.41c-0.13-1.88,0-4.54,0-4.54h-0.08s-0.92,2.84-1.66,4.54l-6.15,13.87h-3.84l-6.1-13.87c-0.7-1.66-1.66-4.62-1.66-4.62h-0.09s0,2.75-.09,4.63l-1.48,19.41H692Z"/><path class="cls-3" d="M732.06,465.33h4.32v19.89c0,4.71,3.05,7.46,7.76,7.46s7.85-2.75,7.85-7.55v-19.8h4.32v19.89c0,6.85-4.93,11.43-12.13,11.43s-12.13-4.58-12.13-11.43V465.33Z"/><path class="cls-3" d="M766,465.33h4.28l13.7,20c1.13,1.66,2.57,4.45,2.57,4.45h0.09s-0.31-2.75-.31-4.45v-20h4.32v30.8h-4.23l-13.74-20c-1.14-1.7-2.57-4.49-2.57-4.49H770s0.3,2.75.3,4.49v20H766v-30.8Z"/><path class="cls-3" d="M800.77,465.33h4.32v30.8h-4.32v-30.8Z"/><path class="cls-3" d="M821.79,469.08H811.23v-3.75h25.43v3.75H826.11v27h-4.32v-27Z"/><path class="cls-3" d="M856.21,487.27H844.6l-3.05,8.86H837.1l11.08-30.8h4.54l11.08,30.8H859.3Zm-5.8-17.71s-0.7,2.79-1.22,4.36l-3.45,9.77h9.33l-3.4-9.77c-0.52-1.57-1.18-4.36-1.18-4.36h-0.09Z"/><path class="cls-3" d="M870.08,465.33h9.42c3.23,0,4.58.26,5.76,0.7,3.14,1.18,5.19,4.28,5.19,8.33s-2.18,7.24-5.54,8.33v0.08a9,9,0,0,1,.92,1.4l6.54,12h-4.88L881,483.87H874.4v12.26h-4.32v-30.8Zm10.51,14.79c3.36,0,5.45-2.14,5.45-5.58a5,5,0,0,0-2.44-4.75c-0.83-.44-1.83-0.7-4.23-0.7h-5v11h6.2Z"/><path class="cls-3" d="M899.78,465.33h4.32v30.8h-4.32v-30.8Z"/><path class="cls-3" d="M929.49,487.27h-11.6l-3.05,8.86h-4.45l11.08-30.8H926l11.08,30.8h-4.49Zm-5.8-17.71s-0.7,2.79-1.22,4.36L919,483.69h9.33l-3.4-9.77c-0.52-1.57-1.18-4.36-1.18-4.36h-0.09Z"/><path class="cls-3" d="M943.45,489.32a12.16,12.16,0,0,0,7.85,3.31c2.88,0,5.32-1.61,5.32-4.54,0-6.67-14.92-5.24-14.92-14.7,0-4.8,4.14-8.59,9.94-8.59a12.62,12.62,0,0,1,8.73,3.1l-2,3.58a10.87,10.87,0,0,0-6.76-2.66c-3.27,0-5.58,2-5.58,4.49C946.06,479.68,961,478,961,488c0,4.75-3.67,8.68-9.77,8.68A14.42,14.42,0,0,1,941,492.59Z"/><path class="cls-3" d="M439.92,514.18h10.22c9.43,0,15.63,5.63,15.63,15.37S459.57,545,450.13,545H439.92V514.18Zm9.91,27.07c6.94,0,11.49-4.1,11.49-11.7s-4.59-11.62-11.49-11.62h-5.59v23.32h5.59Z"/><path class="cls-3" d="M475.81,514.18h17.9v3.75H480.13v9.65h11v3.75h-11v9.91h14.32V545H475.81V514.18Z"/><path class="cls-3" d="M519.22,514.18h4.32v27.07h13.8V545H519.22V514.18Z"/><path class="cls-3" d="M561.62,536.15H550L546.95,545h-4.45l11.09-30.83h4.54L569.22,545h-4.5Zm-5.81-17.73s-0.7,2.79-1.22,4.37l-3.45,9.78h9.34l-3.41-9.78c-0.52-1.57-1.18-4.37-1.18-4.37h-0.09Z"/><path class="cls-3" d="M592.14,514.18h9.43c3.23,0,4.59.26,5.76,0.7,3.15,1.18,5.2,4.28,5.2,8.34s-2.18,7.25-5.55,8.34v0.09a8.86,8.86,0,0,1,.92,1.4l6.55,12h-4.89l-6.51-12.27h-6.59V545h-4.32V514.18ZM602.67,529c3.36,0,5.46-2.14,5.46-5.59a5,5,0,0,0-2.44-4.76c-0.83-.44-1.83-0.7-4.24-0.7h-5v11h6.2Z"/><path class="cls-3" d="M623.71,514.18h17.9v3.75H628v9.65h11v3.75H628v9.91h14.32V545H623.71V514.18Z"/><path class="cls-3" d="M665.76,513.66c7.38,0,11.22,3.71,11.22,3.71l-2.18,3.23a14.2,14.2,0,0,0-8.69-3c-7.25,0-11.61,5.28-11.61,11.88,0,7.16,4.89,12.09,11.35,12.09a12.61,12.61,0,0,0,8.73-3.84v-4.45h-5v-3.75h9V545h-3.8v-1.92c0-.66,0-1.31,0-1.31h-0.09a13.28,13.28,0,0,1-9.47,3.75c-8.3,0-15.15-6.55-15.15-16A15.53,15.53,0,0,1,665.76,513.66Z"/><path class="cls-3" d="M688.87,514.18h4.32V545h-4.32V514.18Z"/><path class="cls-3" d="M718.91,513.66a15.54,15.54,0,0,1,15.8,15.72,15.83,15.83,0,1,1-31.66,0A15.58,15.58,0,0,1,718.91,513.66Zm0,27.9c6.29,0,11.35-5.24,11.35-12.18a11.38,11.38,0,1,0-22.75,0C707.51,536.32,712.62,541.56,718.91,541.56Zm1.31-35.06h4.54L720.57,512H717Z"/><path class="cls-3" d="M744.58,514.18h4.28l13.71,20c1.13,1.66,2.58,4.45,2.58,4.45h0.09s-0.31-2.75-.31-4.45v-20h4.32V545H765l-13.75-20c-1.13-1.7-2.58-4.5-2.58-4.5H748.6s0.3,2.75.3,4.5v20h-4.32V514.18Z"/><path class="cls-3" d="M809.6,513.66c7.42,0,11.22,4.06,11.22,4.06L818.69,521a14.07,14.07,0,0,0-8.91-3.36c-6.9,0-11.4,5.24-11.4,11.79s4.58,12.18,11.44,12.18a14,14,0,0,0,9.52-4l2.31,3.1a16.53,16.53,0,0,1-12,4.89c-9.26,0-15.76-7.07-15.76-16.11A15.39,15.39,0,0,1,809.6,513.66Z"/><path class="cls-3" d="M846.42,536.15H834.8L831.74,545h-4.45l11.09-30.83h4.54L854,545h-4.5Zm-5.81-17.73s-0.7,2.79-1.22,4.37l-3.45,9.78h9.35l-3.41-9.78c-0.52-1.57-1.18-4.37-1.18-4.37h-0.09Z"/><path class="cls-3" d="M862.14,514.18h9.43c3.23,0,4.58.26,5.76,0.7,3.14,1.18,5.19,4.28,5.19,8.34s-2.18,7.25-5.54,8.34v0.09a8.82,8.82,0,0,1,.92,1.4l6.55,12h-4.89l-6.51-12.27h-6.59V545h-4.32V514.18ZM872.66,529c3.36,0,5.46-2.14,5.46-5.59a5,5,0,0,0-2.45-4.76c-0.83-.44-1.83-0.7-4.24-0.7h-5v11h6.2Z"/><path class="cls-3" d="M893.71,514.18H898V545h-4.32V514.18Z"/><path class="cls-3" d="M910,514.18h10.79c5.2,0,9,2.88,9,7.86a7.21,7.21,0,0,1-3.84,6.64v0.09c3.23,1,5.06,4,5.06,7.47,0,5.81-4.5,8.78-9.91,8.78H910V514.18Zm10.79,13a4.37,4.37,0,0,0,4.54-4.67,4.24,4.24,0,0,0-4.63-4.54h-6.38v9.21h6.46Zm0.48,14.1a4.89,4.89,0,0,0,5.28-5.24,5,5,0,0,0-5.33-5.28h-6.9v10.52h6.94Z"/><path class="cls-3" d="M941.26,514.18h17.9v3.75H945.59v9.65h11v3.75h-11v9.91h14.32V545H941.26V514.18Z"/><path class="cls-3" d="M922.18,442.1H893.35L905.84,269h3.85Zm-24.67-3.87H918L907.76,296Z"/><path class="cls-3" d="M907.77,274.38a3.6,3.6,0,1,1,3.6-3.6A3.61,3.61,0,0,1,907.77,274.38Zm0-3.86a0.26,0.26,0,1,0,.26.26A0.26,0.26,0,0,0,907.77,270.52Z"/><polygon class="cls-3" points="917.76 441.26 896.69 410.62 898.28 407.59 914.52 407.59 898.8 379.84 900.48 376.96 911.95 376.96 900.13 353.25 901.86 350.45 913.15 350.45 913.15 354.32 904.98 354.32 916.8 378.03 915.08 380.82 903.8 380.82 919.51 408.57 917.83 411.46 901.96 411.46 920.94 439.07 917.76 441.26"/><path class="cls-3" d="M818.23,442.1H789.41L801.89,269h3.85Zm-24.67-3.87h20.52L803.82,296Z"/><path class="cls-3" d="M803.82,274.38a3.6,3.6,0,1,1,3.6-3.6A3.61,3.61,0,0,1,803.82,274.38Zm0-3.86a0.26,0.26,0,1,0,.26.26A0.26,0.26,0,0,0,803.82,270.52Z"/><polygon class="cls-3" points="814.43 441.26 793.37 410.62 794.96 407.59 811.19 407.59 795.48 379.84 797.16 376.96 808.63 376.96 796.8 353.25 798.53 350.45 809.83 350.45 809.83 354.32 801.66 354.32 813.48 378.03 811.75 380.82 800.48 380.82 816.19 408.57 814.51 411.46 798.63 411.46 817.62 439.07 814.43 441.26"/><path class="cls-3" d="M713.94,442.1H685.11L697.6,269h3.85Zm-24.67-3.87h20.52L699.53,296Z"/><path class="cls-3" d="M699.53,274.38a3.6,3.6,0,1,1,3.61-3.6A3.61,3.61,0,0,1,699.53,274.38Zm0-3.86a0.26,0.26,0,0,0,0,.52A0.26,0.26,0,1,0,699.53,270.52Z"/><polygon class="cls-3" points="709.46 441.26 688.39 410.62 689.98 407.59 706.22 407.59 690.5 379.84 692.18 376.96 703.65 376.96 691.83 353.25 693.55 350.45 704.85 350.45 704.85 354.32 696.68 354.32 708.5 378.03 706.77 380.82 695.5 380.82 711.21 408.57 709.53 411.46 693.65 411.46 712.64 439.07 709.46 441.26"/><path class="cls-3" d="M610.67,442.1H581.85L594.33,269h3.85ZM586,438.23h20.52L596.26,296Z"/><path class="cls-3" d="M596.26,274.38a3.6,3.6,0,1,1,3.6-3.6A3.61,3.61,0,0,1,596.26,274.38Zm0-3.86a0.26,0.26,0,1,0,.26.26A0.26,0.26,0,0,0,596.26,270.52Z"/><polygon class="cls-3" points="606.13 441.26 585.07 410.62 586.66 407.59 602.89 407.59 587.18 379.84 588.86 376.96 600.33 376.96 588.5 353.25 590.23 350.45 601.53 350.45 601.53 354.32 593.36 354.32 605.18 378.03 603.45 380.82 592.17 380.82 607.89 408.57 606.21 411.46 590.33 411.46 609.32 439.07 606.13 441.26"/><path class="cls-3" d="M506.39,442.1H477.57L490.05,269h3.85Zm-24.67-3.87h20.52L492,296Z"/><path class="cls-3" d="M492,274.38a3.6,3.6,0,1,1,3.6-3.6A3.61,3.61,0,0,1,492,274.38Zm0-3.86a0.26,0.26,0,1,0,.26.26A0.26,0.26,0,0,0,492,270.52Z"/><polygon class="cls-3" points="502.26 441.26 481.19 410.62 482.78 407.59 499.02 407.59 483.3 379.84 484.99 376.96 496.45 376.96 484.63 353.25 486.36 350.45 497.65 350.45 497.65 354.32 489.48 354.32 501.31 378.03 499.58 380.82 488.3 380.82 504.02 408.57 502.33 411.46 486.45 411.46 505.44 439.07 502.26 441.26"/><path class="cls-3" d="M908.4,289.25c-13.92,0-20.83-8.21-27.51-16.15-6.4-7.6-12.44-14.77-24.56-14.77s-18.16,7.17-24.56,14.77c-6.68,7.94-13.6,16.15-27.51,16.15S783.44,281,776.75,273.1c-6.39-7.6-12.44-14.77-24.55-14.77S734,265.5,727.64,273.1C721,281,714,289.25,700.13,289.25S679.3,281,672.62,273.1c-6.4-7.6-12.44-14.77-24.56-14.77S629.9,265.5,623.5,273.1c-6.68,7.94-13.59,16.15-27.51,16.15S575.17,281,568.48,273.1c-6.4-7.6-12.44-14.77-24.56-14.77s-18.16,7.17-24.55,14.77c-6.68,7.94-13.59,16.15-27.51,16.15S471,281,464.35,273.1c-6.39-7.6-12.44-14.77-24.55-14.77v-3.87c13.91,0,20.83,8.21,27.51,16.14,6.39,7.6,12.44,14.77,24.56,14.77s18.16-7.17,24.55-14.77c6.68-7.94,13.59-16.14,27.51-16.14s20.83,8.21,27.51,16.14c6.39,7.6,12.44,14.77,24.55,14.77s18.16-7.17,24.55-14.77c6.69-7.94,13.6-16.14,27.51-16.14s20.83,8.21,27.51,16.14c6.4,7.6,12.44,14.77,24.56,14.77s18.16-7.17,24.55-14.77c6.68-7.94,13.59-16.14,27.51-16.14s20.83,8.21,27.51,16.14c6.39,7.6,12.44,14.77,24.55,14.77s18.16-7.17,24.56-14.77c6.68-7.94,13.6-16.14,27.51-16.14s20.83,8.21,27.52,16.14c6.4,7.6,12.44,14.77,24.56,14.77s18.16-7.17,24.56-14.77c6.68-7.94,13.6-16.14,27.51-16.14v3.87c-12.12,0-18.16,7.17-24.56,14.77C929.23,281,922.32,289.25,908.4,289.25Z"/><g class="cls-4"><path class="cls-5" d="M700,1291.94l432.74,735.79a853.67,853.67,0,0,0,309.91-314.94c230.87-407.41,85.61-932.64-321.8-1163.51Z"/><path class="cls-6" d="M700,1291.94l420.84-742.66a853.67,853.67,0,0,0-427.7-110.92c-468.26,3.76-850.49,392.18-846.73,860.44Z"/><path class="cls-7" d="M700,1291.94L267.47,556l-0.19.11C4.73,710.55-156,994.22-153.57,1298.79Z"/><path class="cls-8" d="M700,1291.94l853.59-6.64v-0.22c-2.45-304.58-167.73-585.63-432.73-735.8Z"/></g></svg>