<?xml version="1.0" encoding="utf-8"?>
<!-- Generator: Adobe Illustrator 19.2.0, SVG Export Plug-In . SVG Version: 6.00 Build 0)  -->
<svg version="1.1" xmlns="http://www.w3.org/2000/svg" xmlns:xlink="http://www.w3.org/1999/xlink" x="0px" y="0px"
	 viewBox="0 0 1400 800" style="enable-background:new 0 0 1400 800;" xml:space="preserve">
<style type="text/css">
	.st0{fill:#75797E;}
	.st1{fill:#E85D3F;}
	.st2{fill:none;stroke:#FFFFFF;stroke-width:2;stroke-miterlimit:10;stroke-dasharray:4;}
	.st3{fill:#FFFFFF;}
</style>
<g id="BG">
	<rect class="st0" width="1400" height="800"/>
</g>
<g id="Elements">
	<rect x="550" y="250" class="st1" width="300" height="300"/>
	<circle class="st2" cx="700" cy="400" r="150"/>
	<g>
		<path class="st3" d="M727.5,372.5c3.5,3.5,8.1,5.4,13.1,5.4c4.9,0,9.6-1.9,13.1-5.4c3.5-3.5,5.4-8.1,5.4-13.1
			c0-4.9-1.9-9.6-5.4-13.1c-3.5-3.5-8.2-5.4-13.1-5.4c-4.9,0-9.6,1.9-13.1,5.4C720.3,353.5,720.3,365.3,727.5,372.5z M729.6,348.4
			c2.9-2.9,6.9-4.6,11-4.6c4.2,0,8.1,1.6,11,4.6c6.1,6.1,6.1,16,0,22c-2.9,2.9-6.9,4.6-11,4.6c-4.2,0-8.1-1.6-11-4.6
			C723.5,364.3,723.5,354.4,729.6,348.4z"/>
		<path class="st3" d="M718.6,381.4c-2.5-2.5-5.1-4.9-7.9-7.3c-16.4,14-63.6,50.4-73.2,50.4h0c-0.6,0-1.1-0.1-1.6-0.3
			c-6.5-3.5-10.8-4.2-12.4-4.4l-14.2,14.2l4.9,4.9c6.1-5.4,13.9-8.5,22.1-8.5c8.9,0,17.2,3.5,23.5,9.7c12.5,12.5,12.9,32.6,1.3,45.6
			l4.9,4.9l14.2-14.2c-0.2-1.4-0.8-5-3.4-10.3c-0.7-1.1-2.3-4,17.8-34c10.3-15.4,23-32.7,31.3-42.8
			C723.6,386.5,721.1,383.8,718.6,381.4C718.6,381.4,718.6,381.4,718.6,381.4z"/>
		<path class="st3" d="M731.9,368.1c2.3,2.3,5.4,3.6,8.7,3.6c3.3,0,6.4-1.3,8.7-3.6c4.8-4.8,4.8-12.6,0-17.3
			c-2.3-2.3-5.4-3.6-8.7-3.6c-3.3,0-6.4,1.3-8.7,3.6C727.1,355.5,727.1,363.3,731.9,368.1z"/>
		<path class="st3" d="M636.4,441.5c-5.9,0-11.4,2.3-15.6,6.5c-4.2,4.2-6.5,9.7-6.5,15.6s2.3,11.4,6.5,15.6
			c4.2,4.2,9.7,6.5,15.6,6.5c5.9,0,11.4-2.3,15.6-6.5c4.2-4.2,6.5-9.7,6.5-15.6c0-5.9-2.3-11.4-6.5-15.6
			C647.8,443.8,642.3,441.5,636.4,441.5z"/>
		<path class="st3" d="M636.4,493.6c7.5,0,14.6-2.8,20.1-7.8l-3.2-3.2c-4.7,4.2-10.6,6.5-16.9,6.5c-6.8,0-13.2-2.6-18-7.4
			c-4.8-4.8-7.4-11.2-7.4-18c0-6.3,2.3-12.3,6.5-16.9l-3.2-3.2c-10.7,11.7-10.4,30,0.9,41.3C620.9,490.5,628.4,493.6,636.4,493.6
			L636.4,493.6z"/>
		<path class="st3" d="M611.9,441.1l-4.9-4.9l-14.2,14.2c0.3,2.3,2,11,12,23.8C601.1,463,603.5,450.3,611.9,441.1z"/>
		<path class="st3" d="M657.6,442.4c-5.7-5.7-13.2-8.8-21.2-8.8c-7.4,0-14.3,2.7-19.8,7.5l3.2,3.2c4.6-4,10.4-6.2,16.5-6.2
			c6.8,0,13.2,2.6,18,7.4c4.8,4.8,7.4,11.2,7.4,18c0,6.1-2.2,11.9-6.2,16.5l3.2,3.2C669.2,471.6,668.8,453.6,657.6,442.4z"/>
		<path class="st3" d="M636.4,496.9L636.4,496.9c-3.7,0-7.3-0.6-10.6-1.8c12.9,10.1,21.5,11.8,23.8,12l14.2-14.2l-4.9-4.9
			C652.7,493.8,644.8,496.9,636.4,496.9z"/>
		
			<rect x="775.5" y="282.5" transform="matrix(0.7071 -0.7071 0.7071 0.7071 -0.3852 644.2079)" class="st3" width="3.9" height="80.2"/>
		
			<rect x="765.2" y="292.5" transform="matrix(0.7071 -0.7071 0.7071 0.7071 -10.3695 640.0667)" class="st3" width="4.4" height="80.2"/>
		
			<rect x="770.9" y="287.4" transform="matrix(0.7071 -0.7071 0.7071 0.7071 -5.2762 642.183)" class="st3" width="3.3" height="80.2"/>
		<path class="st3" d="M688.5,354.7c7.8,4.3,15.2,9.3,22.1,15l0,0l1.1,0.9c0.1,0.1,0.2,0.1,0.2,0.2c1,0.9,2,1.7,3,2.6
			c0.6,0.5,1.1,1,1.7,1.5c0.4,0.4,0.8,0.8,1.2,1.1c1,1,2,1.9,3,2.9c0.9,0.9,1.9,1.9,2.8,2.9c0.4,0.5,0.9,0.9,1.3,1.4
			c0.2,0.3,0.5,0.5,0.7,0.8c1.2,1.3,2.4,2.7,3.5,4c0,0,0,0,0,0l0.9,1.1l0,0c5.7,6.9,10.7,14.3,14.9,22.1l41.9-41.9l-56.7-56.7
			L688.5,354.7z M756.1,343.9c4.1,4.1,6.4,9.6,6.4,15.4c0,5.8-2.3,11.3-6.4,15.4c-4.1,4.1-9.6,6.4-15.4,6.4
			c-5.8,0-11.3-2.3-15.4-6.4c-8.5-8.5-8.5-22.4,0-30.9c4.1-4.1,9.6-6.4,15.4-6.4C746.4,337.5,751.9,339.8,756.1,343.9z"/>
		
			<rect x="760.7" y="297.5" transform="matrix(0.7071 -0.7071 0.7071 0.7071 -15.4615 637.9542)" class="st3" width="3.3" height="80.2"/>
	</g>
</g>
</svg>
