<?xml version="1.0" encoding="utf-8"?>
<!-- Generator: Adobe Illustrator 19.2.0, SVG Export Plug-In . SVG Version: 6.00 Build 0)  -->
<svg version="1.1" xmlns="http://www.w3.org/2000/svg" xmlns:xlink="http://www.w3.org/1999/xlink" x="0px" y="0px"
	 viewBox="0 0 1400 800" style="enable-background:new 0 0 1400 800;" xml:space="preserve">
<style type="text/css">
	.st0{fill:#F2F2F2;}
	.st1{fill:#FFFFFF;}
</style>
<g id="BG">
	<rect width="699.6" height="800"/>
	<rect x="700.4" class="st0" width="699.6" height="800"/>
</g>
<g id="Elements">
	<g>
		<g>
			<g>
				<path class="st1" d="M371.8,367c0,2.9-0.5,5.6-1.5,8.1c-1,2.5-2.4,4.6-4.3,6.4c-1.8,1.8-4.1,3.2-6.6,4.2c-2.6,1-5.5,1.5-8.6,1.5
					h-15.8v-40.6h15.8c3.2,0,6,0.5,8.6,1.5c2.6,1,4.8,2.4,6.6,4.2c1.8,1.8,3.3,3.9,4.3,6.4S371.8,364.1,371.8,367z M362.2,367
					c0-2-0.3-3.8-0.8-5.4c-0.5-1.6-1.3-3-2.2-4.1c-1-1.1-2.2-2-3.6-2.6c-1.4-0.6-3-0.9-4.8-0.9h-6.3v26.1h6.3c1.8,0,3.4-0.3,4.8-0.9
					c1.4-0.6,2.6-1.5,3.6-2.6c1-1.1,1.7-2.5,2.2-4.1C362,370.8,362.2,369,362.2,367z"/>
				<path class="st1" d="M386.7,387.3h-9.5v-40.6h9.5V387.3z"/>
				<path class="st1" d="M420.3,346.7v7.2h-16.6v9.5h12.7v7h-12.7v9.7h16.6v7.2h-26.1v-40.6H420.3z"/>
				<path class="st1" d="M448.2,355c-0.3,0.4-0.6,0.8-0.9,1c-0.3,0.2-0.7,0.3-1.2,0.3c-0.4,0-0.9-0.1-1.4-0.4
					c-0.5-0.3-1-0.6-1.7-0.9c-0.6-0.3-1.3-0.6-2.1-0.9c-0.8-0.3-1.7-0.4-2.7-0.4c-1.8,0-3.1,0.4-3.9,1.1c-0.9,0.8-1.3,1.8-1.3,3
					c0,0.8,0.3,1.5,0.8,2c0.5,0.5,1.2,1,2,1.4c0.8,0.4,1.8,0.7,2.9,1.1c1.1,0.3,2.2,0.7,3.3,1.1c1.1,0.4,2.2,0.9,3.3,1.4
					c1.1,0.5,2,1.2,2.9,2.1c0.8,0.8,1.5,1.9,2,3c0.5,1.2,0.8,2.6,0.8,4.3c0,1.9-0.3,3.6-1,5.3c-0.6,1.6-1.6,3.1-2.8,4.3
					c-1.2,1.2-2.8,2.2-4.6,2.9c-1.8,0.7-3.9,1-6.2,1c-1.3,0-2.5-0.1-3.9-0.4c-1.3-0.3-2.6-0.6-3.8-1.1c-1.2-0.5-2.4-1-3.5-1.7
					c-1.1-0.6-2-1.4-2.8-2.2l2.8-4.4c0.2-0.3,0.5-0.6,0.9-0.8c0.4-0.2,0.8-0.3,1.2-0.3c0.6,0,1.1,0.2,1.7,0.5
					c0.6,0.4,1.2,0.7,1.9,1.2c0.7,0.4,1.5,0.8,2.5,1.2c0.9,0.4,2,0.5,3.3,0.5c1.7,0,3-0.4,4-1.1c0.9-0.8,1.4-1.9,1.4-3.6
					c0-0.9-0.3-1.7-0.8-2.3c-0.5-0.6-1.2-1.1-2-1.5c-0.8-0.4-1.8-0.7-2.9-1c-1.1-0.3-2.2-0.6-3.3-1c-1.1-0.4-2.2-0.8-3.3-1.3
					c-1.1-0.5-2-1.2-2.9-2.1c-0.8-0.9-1.5-1.9-2-3.2c-0.5-1.3-0.8-2.9-0.8-4.8c0-1.5,0.3-3,0.9-4.5c0.6-1.4,1.5-2.7,2.7-3.9
					c1.2-1.1,2.6-2,4.4-2.7c1.7-0.7,3.7-1,5.9-1c1.2,0,2.5,0.1,3.6,0.3c1.2,0.2,2.3,0.5,3.4,0.9c1.1,0.4,2,0.8,3,1.4
					c0.9,0.5,1.7,1.1,2.5,1.8L448.2,355z"/>
				<path class="st1" d="M481.9,346.7v7.2h-16.6v9.5H478v7h-12.7v9.7h16.6v7.2h-26.1v-40.6H481.9z"/>
				<path class="st1" d="M496.6,379.8h15v7.5h-24.4v-40.6h9.4V379.8z"/>
			</g>
			<g>
				<path class="st1" d="M351,417.8c0.2,0.4,0.3,0.8,0.4,1.2c0.1-0.4,0.3-0.8,0.5-1.2c0.2-0.4,0.3-0.7,0.5-1.1l10.5-19
					c0.2-0.3,0.4-0.5,0.6-0.6c0.2-0.1,0.5-0.1,0.9-0.1h3.1v31h-3.7v-22.8c0-0.3,0-0.6,0-1c0-0.3,0-0.7,0.1-1.1l-10.6,19.4
					c-0.4,0.6-0.9,1-1.5,1h-0.6c-0.6,0-1.2-0.3-1.5-1l-10.9-19.4c0,0.4,0.1,0.7,0.1,1.1c0,0.4,0,0.7,0,1v22.8h-3.7v-31h3.1
					c0.4,0,0.7,0,0.9,0.1c0.2,0.1,0.4,0.3,0.6,0.6l10.7,19.1C350.7,417.1,350.8,417.4,351,417.8z"/>
				<path class="st1" d="M403.8,412.4c0,2.3-0.4,4.4-1.1,6.4c-0.7,1.9-1.8,3.6-3.1,5c-1.3,1.4-3,2.5-4.8,3.3c-1.9,0.8-4,1.2-6.2,1.2
					s-4.4-0.4-6.2-1.2c-1.9-0.8-3.5-1.9-4.8-3.3c-1.3-1.4-2.4-3.1-3.1-5c-0.7-1.9-1.1-4.1-1.1-6.4c0-2.3,0.4-4.4,1.1-6.4
					c0.7-1.9,1.8-3.6,3.1-5c1.3-1.4,2.9-2.5,4.8-3.3c1.9-0.8,3.9-1.2,6.2-1.2s4.4,0.4,6.2,1.2c1.9,0.8,3.5,1.9,4.8,3.3
					c1.3,1.4,2.4,3.1,3.1,5C403.4,408,403.8,410.1,403.8,412.4z M399.5,412.4c0-1.9-0.3-3.6-0.8-5.1c-0.5-1.5-1.3-2.8-2.2-3.8
					c-1-1-2.1-1.8-3.5-2.4s-2.9-0.8-4.5-0.8c-1.7,0-3.2,0.3-4.5,0.8s-2.5,1.4-3.5,2.4c-1,1-1.7,2.3-2.2,3.8
					c-0.5,1.5-0.8,3.2-0.8,5.1c0,1.9,0.3,3.6,0.8,5.1c0.5,1.5,1.3,2.8,2.2,3.8c1,1,2.1,1.8,3.5,2.4c1.4,0.6,2.9,0.8,4.5,0.8
					c1.7,0,3.2-0.3,4.5-0.8c1.4-0.6,2.5-1.4,3.5-2.4c1-1,1.7-2.3,2.2-3.8C399.2,416,399.5,414.3,399.5,412.4z"/>
				<path class="st1" d="M428.5,396.9v3.5h-10v27.5h-4.2v-27.5h-10.1v-3.5H428.5z"/>
				<path class="st1" d="M459.5,412.4c0,2.3-0.4,4.4-1.1,6.4c-0.7,1.9-1.8,3.6-3.1,5c-1.3,1.4-3,2.5-4.8,3.3c-1.9,0.8-4,1.2-6.2,1.2
					s-4.4-0.4-6.2-1.2c-1.9-0.8-3.5-1.9-4.8-3.3c-1.3-1.4-2.4-3.1-3.1-5c-0.7-1.9-1.1-4.1-1.1-6.4c0-2.3,0.4-4.4,1.1-6.4
					c0.7-1.9,1.8-3.6,3.1-5c1.3-1.4,2.9-2.5,4.8-3.3c1.9-0.8,3.9-1.2,6.2-1.2s4.4,0.4,6.2,1.2c1.9,0.8,3.5,1.9,4.8,3.3
					c1.3,1.4,2.4,3.1,3.1,5C459.2,408,459.5,410.1,459.5,412.4z M455.2,412.4c0-1.9-0.3-3.6-0.8-5.1c-0.5-1.5-1.3-2.8-2.2-3.8
					c-1-1-2.1-1.8-3.5-2.4c-1.4-0.6-2.9-0.8-4.5-0.8c-1.7,0-3.2,0.3-4.5,0.8s-2.5,1.4-3.5,2.4c-1,1-1.7,2.3-2.2,3.8
					c-0.5,1.5-0.8,3.2-0.8,5.1c0,1.9,0.3,3.6,0.8,5.1c0.5,1.5,1.3,2.8,2.2,3.8c1,1,2.1,1.8,3.5,2.4c1.4,0.6,2.9,0.8,4.5,0.8
					c1.7,0,3.2-0.3,4.5-0.8c1.4-0.6,2.5-1.4,3.5-2.4c1-1,1.7-2.3,2.2-3.8C455,416,455.2,414.3,455.2,412.4z"/>
				<path class="st1" d="M469.9,415v12.9h-4.2v-31h8.8c2,0,3.7,0.2,5.1,0.6c1.4,0.4,2.6,1,3.5,1.7c0.9,0.7,1.6,1.7,2.1,2.7
					c0.4,1.1,0.7,2.2,0.7,3.6c0,1.1-0.2,2.1-0.5,3.1c-0.3,1-0.8,1.8-1.5,2.6c-0.7,0.8-1.5,1.4-2.4,1.9c-0.9,0.5-2,0.9-3.2,1.2
					c0.5,0.3,1,0.7,1.4,1.3l9,12.3h-3.7c-0.8,0-1.3-0.3-1.7-0.9l-8-11.1c-0.2-0.3-0.5-0.6-0.8-0.7c-0.3-0.2-0.7-0.2-1.3-0.2H469.9z
					 M469.9,411.9h4.4c1.2,0,2.3-0.1,3.2-0.4c0.9-0.3,1.7-0.7,2.3-1.3c0.6-0.5,1.1-1.2,1.4-1.9s0.5-1.6,0.5-2.5
					c0-1.8-0.6-3.2-1.8-4.2c-1.2-0.9-3-1.4-5.4-1.4h-4.6V411.9z"/>
				<path class="st1" d="M509,401.8c-0.1,0.2-0.3,0.4-0.4,0.5c-0.1,0.1-0.3,0.2-0.6,0.2c-0.2,0-0.5-0.1-0.9-0.4
					c-0.3-0.2-0.7-0.5-1.2-0.8c-0.5-0.3-1.1-0.6-1.8-0.8c-0.7-0.2-1.5-0.4-2.5-0.4c-0.9,0-1.8,0.1-2.5,0.4c-0.7,0.3-1.3,0.6-1.8,1
					c-0.5,0.4-0.8,0.9-1.1,1.5c-0.2,0.6-0.4,1.2-0.4,1.9c0,0.9,0.2,1.6,0.6,2.2c0.4,0.6,1,1.1,1.7,1.5c0.7,0.4,1.5,0.8,2.4,1
					c0.9,0.3,1.8,0.6,2.7,0.9c0.9,0.3,1.8,0.7,2.7,1.1c0.9,0.4,1.7,0.9,2.4,1.5c0.7,0.6,1.3,1.3,1.7,2.2c0.4,0.9,0.6,2,0.6,3.2
					c0,1.4-0.2,2.6-0.7,3.8c-0.5,1.2-1.1,2.2-2,3.1c-0.9,0.9-2,1.6-3.3,2.1c-1.3,0.5-2.8,0.8-4.4,0.8c-2,0-3.8-0.4-5.5-1.1
					c-1.7-0.7-3.1-1.7-4.2-3l1.2-2c0.1-0.2,0.3-0.3,0.4-0.4c0.2-0.1,0.3-0.2,0.6-0.2c0.3,0,0.6,0.2,1,0.5c0.4,0.3,0.9,0.7,1.5,1.1
					c0.6,0.4,1.3,0.7,2.1,1.1c0.8,0.3,1.8,0.5,3,0.5c1,0,1.9-0.1,2.7-0.4s1.4-0.7,2-1.2s1-1.1,1.2-1.8c0.3-0.7,0.4-1.5,0.4-2.3
					c0-0.9-0.2-1.7-0.6-2.3s-1-1.1-1.7-1.5c-0.7-0.4-1.5-0.7-2.4-1c-0.9-0.3-1.8-0.6-2.7-0.9c-0.9-0.3-1.8-0.6-2.7-1
					c-0.9-0.4-1.7-0.9-2.4-1.5c-0.7-0.6-1.3-1.4-1.7-2.3c-0.4-0.9-0.6-2.1-0.6-3.4c0-1.1,0.2-2.2,0.6-3.2c0.4-1,1-1.9,1.8-2.7
					c0.8-0.8,1.8-1.4,3-1.9c1.2-0.5,2.6-0.7,4.1-0.7c1.7,0,3.3,0.3,4.7,0.8c1.4,0.5,2.7,1.3,3.7,2.4L509,401.8z"/>
			</g>
		</g>
		<g>
			<path class="st1" d="M278.3,387.2c1.7,1.7,3.9,2.6,6.3,2.6c2.4,0,4.6-0.9,6.3-2.6c1.7-1.7,2.6-3.9,2.6-6.3c0-2.4-0.9-4.6-2.6-6.3
				c-1.7-1.7-3.9-2.6-6.3-2.6c-2.4,0-4.6,0.9-6.3,2.6C274.8,378,274.8,383.7,278.3,387.2z M279.3,375.5c1.4-1.4,3.3-2.2,5.3-2.2
				c2,0,3.9,0.8,5.3,2.2c2.9,2.9,2.9,7.7,0,10.6c-1.4,1.4-3.3,2.2-5.3,2.2c-2,0-3.9-0.8-5.3-2.2
				C276.3,383.2,276.3,378.5,279.3,375.5z"/>
			<path class="st1" d="M274,391.4c-1.2-1.2-2.4-2.3-3.8-3.5c-7.9,6.7-30.7,24.3-35.3,24.3h0c-0.3,0-0.5-0.1-0.8-0.2
				c-3.1-1.7-5.2-2-6-2.1l-6.8,6.8l2.4,2.4c2.9-2.6,6.7-4.1,10.7-4.1c4.3,0,8.3,1.7,11.3,4.7c6,6,6.2,15.7,0.6,22l2.4,2.4l6.8-6.8
				c-0.1-0.7-0.4-2.4-1.6-5c-0.3-0.5-1.1-2,8.6-16.4c5-7.4,11.1-15.8,15.1-20.6C276.4,393.9,275.2,392.6,274,391.4
				C274,391.5,274,391.4,274,391.4z"/>
			<path class="st1" d="M280.4,385c1.1,1.1,2.6,1.7,4.2,1.7c1.6,0,3.1-0.6,4.2-1.7c2.3-2.3,2.3-6.1,0-8.4c-1.1-1.1-2.6-1.7-4.2-1.7
				c-1.6,0-3.1,0.6-4.2,1.7C278.1,379,278.1,382.7,280.4,385z"/>
			<path class="st1" d="M234.3,420.4c-2.8,0-5.5,1.1-7.5,3.1c-2,2-3.1,4.7-3.1,7.5c0,2.8,1.1,5.5,3.1,7.5c2,2,4.7,3.1,7.5,3.1
				c2.8,0,5.5-1.1,7.5-3.1c2-2,3.1-4.7,3.1-7.5c0-2.8-1.1-5.5-3.1-7.5C239.9,421.6,237.2,420.4,234.3,420.4z"/>
			<path class="st1" d="M234.3,445.5c3.6,0,7-1.3,9.7-3.8l-1.6-1.6c-2.2,2-5.1,3.1-8.2,3.1c-3.3,0-6.3-1.3-8.7-3.6
				c-2.3-2.3-3.6-5.4-3.6-8.7c0-3,1.1-5.9,3.1-8.2l-1.6-1.6c-5.2,5.7-5,14.4,0.5,19.9C226.9,444,230.5,445.5,234.3,445.5
				L234.3,445.5z"/>
			<path class="st1" d="M311.6,383.5l-1.2,1.2l-24,24l-0.5-1c-2.1-3.9-4.5-7.6-7.3-11.1c-8.8,10.7-23.5,32.4-23.3,35.1
				c1.8,3.7,1.8,5.8,1.8,5.9l0,0.3l-15.8,15.8l-0.3,0h70.6c4.1,0,7.3-3.3,7.3-7.3v-70.2L311.6,383.5L311.6,383.5z"/>
			<path class="st1" d="M222.5,420.3l-2.3-2.3l-6.8,6.8c0.1,1.1,1,5.3,5.8,11.5C217.4,430.8,218.5,424.7,222.5,420.3z"/>
			<path class="st1" d="M244.6,420.9c-2.7-2.7-6.4-4.2-10.2-4.2c-3.5,0-6.9,1.3-9.5,3.6l1.6,1.6c2.2-1.9,5-3,8-3
				c3.3,0,6.3,1.3,8.7,3.6c2.3,2.3,3.6,5.4,3.6,8.7c0,3-1.1,5.8-3,8l1.6,1.6C250.2,434.9,250,426.3,244.6,420.9z"/>
			<path class="st1" d="M234.3,447.1L234.3,447.1c-1.8,0-3.5-0.3-5.1-0.8c6.2,4.9,10.4,5.7,11.5,5.8l6.8-6.8l-2.3-2.3
				C242.2,445.6,238.4,447.1,234.3,447.1z"/>
			
				<rect x="301.4" y="343.8" transform="matrix(0.7071 -0.7071 0.7071 0.7071 -168.21 320.1319)" class="st1" width="1.9" height="38.6"/>
			<path class="st1" d="M311.6,346.5H219c-4.1,0-7.3,3.3-7.3,7.3v92.6c0,4.1,3.3,7.3,7.3,7.3h22c-0.3,0-7.3-0.1-18.2-11
				c-10.9-10.9-11.1-18-11.1-18.3l0-0.3l15.8-15.8l0.3,0h0c0.3,0,2.8,0.1,7,2.3c3.5,0,24.2-15.4,34-23.8c-3.5-2.8-7.2-5.3-11.1-7.4
				l-1-0.5l32.5-32.5l29.6,29.6v-22.3C318.9,349.7,315.6,346.5,311.6,346.5z"/>
			
				<rect x="296.4" y="348.6" transform="matrix(0.7071 -0.7071 0.7071 0.7071 -173.0203 318.1347)" class="st1" width="2.1" height="38.6"/>
			
				<rect x="299.2" y="346.1" transform="matrix(0.7071 -0.7071 0.7071 0.7071 -170.5674 319.1557)" class="st1" width="1.6" height="38.6"/>
			<path class="st1" d="M259.5,378.6c3.8,2.1,7.3,4.5,10.7,7.2l0,0l0.5,0.4c0,0,0.1,0.1,0.1,0.1c0.5,0.4,1,0.8,1.5,1.3
				c0.3,0.2,0.5,0.5,0.8,0.7c0.2,0.2,0.4,0.4,0.6,0.5c0.5,0.5,1,0.9,1.5,1.4c0.5,0.5,0.9,0.9,1.4,1.4c0.2,0.2,0.4,0.5,0.6,0.7
				c0.1,0.1,0.2,0.3,0.4,0.4c0.6,0.6,1.1,1.3,1.7,1.9c0,0,0,0,0,0l0.4,0.5l0,0c2.7,3.3,5.1,6.9,7.2,10.7l20.2-20.2l-27.3-27.3
				L259.5,378.6z M292,373.4c2,2,3.1,4.6,3.1,7.4c0,2.8-1.1,5.5-3.1,7.4c-2,2-4.6,3.1-7.4,3.1c-2.8,0-5.5-1.1-7.4-3.1
				c-4.1-4.1-4.1-10.8,0-14.9c2-2,4.6-3.1,7.4-3.1C287.4,370.3,290,371.4,292,373.4z"/>
			
				<rect x="294.3" y="351.1" transform="matrix(0.7071 -0.7071 0.7071 0.7071 -175.4735 317.1161)" class="st1" width="1.6" height="38.6"/>
		</g>
		<g>
			<path class="st1" d="M345,450.4c0.1,0,0.2,0,0.3,0.1l0.7,0.8c-0.6,0.7-1.3,1.2-2.1,1.5c-0.8,0.4-1.8,0.5-2.9,0.5
				c-1,0-1.9-0.2-2.7-0.5c-0.8-0.3-1.5-0.8-2.1-1.4c-0.6-0.6-1-1.4-1.3-2.2c-0.3-0.9-0.5-1.8-0.5-2.9c0-1,0.2-2,0.5-2.9
				c0.3-0.9,0.8-1.6,1.4-2.2c0.6-0.6,1.3-1.1,2.2-1.4c0.9-0.3,1.8-0.5,2.8-0.5c1,0,1.9,0.2,2.6,0.5c0.7,0.3,1.4,0.7,2,1.3l-0.6,0.9
				c0,0.1-0.1,0.1-0.2,0.2c-0.1,0-0.1,0.1-0.2,0.1c-0.1,0-0.2,0-0.3-0.1c-0.1-0.1-0.2-0.1-0.3-0.2c-0.1-0.1-0.3-0.2-0.5-0.3
				c-0.2-0.1-0.4-0.2-0.6-0.3c-0.2-0.1-0.5-0.2-0.8-0.2c-0.3-0.1-0.7-0.1-1.1-0.1c-0.7,0-1.4,0.1-2,0.4c-0.6,0.3-1.1,0.6-1.6,1.1
				c-0.4,0.5-0.8,1-1,1.7c-0.2,0.7-0.4,1.4-0.4,2.3c0,0.9,0.1,1.6,0.4,2.3c0.2,0.7,0.6,1.2,1,1.7c0.4,0.5,0.9,0.8,1.5,1.1
				c0.6,0.2,1.2,0.4,1.9,0.4c0.4,0,0.8,0,1.1-0.1c0.3,0,0.6-0.1,0.9-0.2c0.3-0.1,0.5-0.2,0.8-0.4c0.2-0.2,0.5-0.3,0.7-0.6
				C344.8,450.4,344.9,450.4,345,450.4z"/>
			<path class="st1" d="M372.1,446.4c0,1-0.2,2-0.5,2.8c-0.3,0.9-0.8,1.6-1.4,2.2c-0.6,0.6-1.3,1.1-2.2,1.4
				c-0.8,0.3-1.8,0.5-2.8,0.5s-1.9-0.2-2.8-0.5c-0.8-0.3-1.6-0.8-2.1-1.4c-0.6-0.6-1.1-1.4-1.4-2.2c-0.3-0.9-0.5-1.8-0.5-2.8
				c0-1,0.2-2,0.5-2.8c0.3-0.9,0.8-1.6,1.4-2.2c0.6-0.6,1.3-1.1,2.1-1.5c0.8-0.3,1.8-0.5,2.8-0.5s1.9,0.2,2.8,0.5
				c0.8,0.3,1.6,0.8,2.2,1.5c0.6,0.6,1.1,1.4,1.4,2.2C371.9,444.4,372.1,445.3,372.1,446.4z M370.1,446.4c0-0.8-0.1-1.6-0.3-2.3
				c-0.2-0.7-0.6-1.2-1-1.7c-0.4-0.5-0.9-0.8-1.5-1.1c-0.6-0.3-1.3-0.4-2-0.4c-0.7,0-1.4,0.1-2,0.4c-0.6,0.2-1.1,0.6-1.5,1.1
				c-0.4,0.5-0.8,1-1,1.7c-0.2,0.7-0.3,1.4-0.3,2.3c0,0.8,0.1,1.6,0.3,2.3c0.2,0.7,0.6,1.2,1,1.7c0.4,0.5,0.9,0.8,1.5,1.1
				s1.3,0.4,2,0.4c0.7,0,1.4-0.1,2-0.4s1.1-0.6,1.5-1.1c0.4-0.5,0.8-1,1-1.7C370,448,370.1,447.2,370.1,446.4z"/>
			<path class="st1" d="M387.3,451.7h6v1.6h-7.8v-13.8h1.9V451.7z"/>
			<path class="st1" d="M418.1,446.4c0,1-0.2,2-0.5,2.8c-0.3,0.9-0.8,1.6-1.4,2.2c-0.6,0.6-1.3,1.1-2.2,1.4
				c-0.8,0.3-1.8,0.5-2.8,0.5s-1.9-0.2-2.8-0.5c-0.8-0.3-1.6-0.8-2.1-1.4c-0.6-0.6-1.1-1.4-1.4-2.2c-0.3-0.9-0.5-1.8-0.5-2.8
				c0-1,0.2-2,0.5-2.8c0.3-0.9,0.8-1.6,1.4-2.2c0.6-0.6,1.3-1.1,2.1-1.5c0.8-0.3,1.8-0.5,2.8-0.5s1.9,0.2,2.8,0.5
				c0.8,0.3,1.6,0.8,2.2,1.5c0.6,0.6,1.1,1.4,1.4,2.2C418,444.4,418.1,445.3,418.1,446.4z M416.2,446.4c0-0.8-0.1-1.6-0.3-2.3
				c-0.2-0.7-0.6-1.2-1-1.7c-0.4-0.5-0.9-0.8-1.5-1.1c-0.6-0.3-1.3-0.4-2-0.4c-0.7,0-1.4,0.1-2,0.4c-0.6,0.2-1.1,0.6-1.5,1.1
				c-0.4,0.5-0.8,1-1,1.7c-0.2,0.7-0.3,1.4-0.3,2.3c0,0.8,0.1,1.6,0.3,2.3c0.2,0.7,0.6,1.2,1,1.7c0.4,0.5,0.9,0.8,1.5,1.1
				s1.3,0.4,2,0.4c0.7,0,1.4-0.1,2-0.4s1.1-0.6,1.5-1.1c0.4-0.5,0.8-1,1-1.7C416.1,448,416.2,447.2,416.2,446.4z"/>
			<path class="st1" d="M438.5,448.7c0.1,0.2,0.1,0.3,0.2,0.5c0.1-0.2,0.1-0.4,0.2-0.5c0.1-0.2,0.2-0.3,0.2-0.5l4.7-8.5
				c0.1-0.1,0.2-0.2,0.3-0.3c0.1,0,0.2,0,0.4,0h1.4v13.8h-1.6v-10.1c0-0.1,0-0.3,0-0.4c0-0.2,0-0.3,0-0.5l-4.7,8.6
				c-0.2,0.3-0.4,0.4-0.7,0.4h-0.3c-0.3,0-0.5-0.1-0.7-0.4l-4.8-8.7c0,0.2,0,0.3,0,0.5c0,0.2,0,0.3,0,0.4v10.1h-1.6v-13.8h1.4
				c0.2,0,0.3,0,0.4,0c0.1,0,0.2,0.1,0.3,0.3l4.8,8.5C438.3,448.4,438.4,448.6,438.5,448.7z"/>
			<path class="st1" d="M460,453.2v-13.8h4.4c0.8,0,1.6,0.1,2.2,0.3c0.6,0.2,1.1,0.4,1.5,0.7c0.4,0.3,0.7,0.7,0.9,1.1
				c0.2,0.4,0.3,0.9,0.3,1.5c0,0.3-0.1,0.7-0.2,1c-0.1,0.3-0.3,0.6-0.5,0.9c-0.2,0.3-0.5,0.5-0.8,0.7c-0.3,0.2-0.7,0.4-1.1,0.5
				c1,0.2,1.8,0.6,2.3,1.1c0.5,0.5,0.8,1.2,0.8,2.1c0,0.6-0.1,1.1-0.3,1.6c-0.2,0.5-0.5,0.9-0.9,1.2c-0.4,0.3-0.9,0.6-1.5,0.8
				c-0.6,0.2-1.3,0.3-2.1,0.3H460z M461.8,445.6h2.5c0.5,0,1-0.1,1.4-0.2s0.7-0.3,1-0.5c0.3-0.2,0.4-0.5,0.6-0.7
				c0.1-0.3,0.2-0.6,0.2-1c0-0.8-0.2-1.4-0.7-1.8c-0.5-0.4-1.2-0.6-2.3-0.6h-2.5V445.6z M461.8,447v4.8h3c0.5,0,1-0.1,1.4-0.2
				c0.4-0.1,0.7-0.3,0.9-0.5c0.2-0.2,0.4-0.5,0.5-0.8c0.1-0.3,0.2-0.6,0.2-1c0-0.7-0.3-1.3-0.8-1.7c-0.5-0.4-1.3-0.6-2.3-0.6H461.8z
				"/>
			<path class="st1" d="M485.4,453.2h-1.9v-13.8h1.9V453.2z"/>
			<path class="st1" d="M511.2,453.2h-1.4c-0.2,0-0.3,0-0.4-0.1c-0.1-0.1-0.2-0.2-0.2-0.3l-1.3-3.3h-6.2l-1.3,3.3
				c0,0.1-0.1,0.2-0.2,0.3c-0.1,0.1-0.2,0.1-0.4,0.1h-1.4l5.5-13.8h1.9L511.2,453.2z M502.2,448.1h5.2l-2.2-5.6
				c-0.1-0.3-0.3-0.8-0.4-1.3c-0.1,0.3-0.1,0.5-0.2,0.7c-0.1,0.2-0.1,0.4-0.2,0.6L502.2,448.1z"/>
		</g>
	</g>
	<g>
		<g>
			<g>
				<g>
					<path d="M1073.6,367c0,2.9-0.5,5.6-1.5,8.1c-1,2.5-2.4,4.6-4.3,6.4c-1.8,1.8-4.1,3.2-6.6,4.2c-2.6,1-5.5,1.5-8.6,1.5h-15.8
						v-40.6h15.8c3.2,0,6,0.5,8.6,1.5c2.6,1,4.8,2.4,6.6,4.2c1.8,1.8,3.3,3.9,4.3,6.4S1073.6,364.1,1073.6,367z M1063.9,367
						c0-2-0.3-3.8-0.8-5.4c-0.5-1.6-1.3-3-2.2-4.1c-1-1.1-2.2-2-3.6-2.6c-1.4-0.6-3-0.9-4.8-0.9h-6.3v26.1h6.3
						c1.8,0,3.4-0.3,4.8-0.9c1.4-0.6,2.6-1.5,3.6-2.6c1-1.1,1.7-2.5,2.2-4.1C1063.7,370.8,1063.9,369,1063.9,367z"/>
					<path d="M1088.4,387.3h-9.5v-40.6h9.5V387.3z"/>
					<path d="M1122,346.7v7.2h-16.6v9.5h12.7v7h-12.7v9.7h16.6v7.2h-26.1v-40.6H1122z"/>
					<path d="M1149.9,355c-0.3,0.4-0.6,0.8-0.9,1c-0.3,0.2-0.7,0.3-1.2,0.3c-0.4,0-0.9-0.1-1.4-0.4c-0.5-0.3-1-0.6-1.7-0.9
						c-0.6-0.3-1.3-0.6-2.1-0.9c-0.8-0.3-1.7-0.4-2.7-0.4c-1.8,0-3.1,0.4-3.9,1.1c-0.9,0.8-1.3,1.8-1.3,3c0,0.8,0.3,1.5,0.8,2
						c0.5,0.5,1.2,1,2,1.4c0.8,0.4,1.8,0.7,2.9,1.1c1.1,0.3,2.2,0.7,3.3,1.1c1.1,0.4,2.2,0.9,3.3,1.4c1.1,0.5,2,1.2,2.9,2.1
						c0.8,0.8,1.5,1.9,2,3c0.5,1.2,0.8,2.6,0.8,4.3c0,1.9-0.3,3.6-1,5.3c-0.6,1.6-1.6,3.1-2.8,4.3c-1.2,1.2-2.8,2.2-4.6,2.9
						c-1.8,0.7-3.9,1-6.2,1c-1.3,0-2.5-0.1-3.9-0.4c-1.3-0.3-2.6-0.6-3.8-1.1c-1.2-0.5-2.4-1-3.5-1.7c-1.1-0.6-2-1.4-2.8-2.2
						l2.8-4.4c0.2-0.3,0.5-0.6,0.9-0.8c0.4-0.2,0.8-0.3,1.2-0.3c0.6,0,1.1,0.2,1.7,0.5c0.6,0.4,1.2,0.7,1.9,1.2
						c0.7,0.4,1.5,0.8,2.5,1.2c0.9,0.4,2,0.5,3.3,0.5c1.7,0,3-0.4,4-1.1c0.9-0.8,1.4-1.9,1.4-3.6c0-0.9-0.3-1.7-0.8-2.3
						c-0.5-0.6-1.2-1.1-2-1.5c-0.8-0.4-1.8-0.7-2.9-1c-1.1-0.3-2.2-0.6-3.3-1c-1.1-0.4-2.2-0.8-3.3-1.3c-1.1-0.5-2-1.2-2.9-2.1
						c-0.8-0.9-1.5-1.9-2-3.2c-0.5-1.3-0.8-2.9-0.8-4.8c0-1.5,0.3-3,0.9-4.5c0.6-1.4,1.5-2.7,2.7-3.9c1.2-1.1,2.6-2,4.4-2.7
						c1.7-0.7,3.7-1,5.9-1c1.2,0,2.5,0.1,3.6,0.3c1.2,0.2,2.3,0.5,3.4,0.9c1.1,0.4,2,0.8,3,1.4c0.9,0.5,1.7,1.1,2.5,1.8L1149.9,355z
						"/>
					<path d="M1183.6,346.7v7.2H1167v9.5h12.7v7H1167v9.7h16.6v7.2h-26.1v-40.6H1183.6z"/>
					<path d="M1198.4,379.8h15v7.5H1189v-40.6h9.4V379.8z"/>
				</g>
				<g>
					<path d="M1052.7,417.8c0.2,0.4,0.3,0.8,0.4,1.2c0.1-0.4,0.3-0.8,0.5-1.2c0.2-0.4,0.3-0.7,0.5-1.1l10.5-19
						c0.2-0.3,0.4-0.5,0.6-0.6c0.2-0.1,0.5-0.1,0.9-0.1h3.1v31h-3.7v-22.8c0-0.3,0-0.6,0-1c0-0.3,0-0.7,0.1-1.1l-10.6,19.4
						c-0.4,0.6-0.9,1-1.5,1h-0.6c-0.6,0-1.2-0.3-1.5-1l-10.9-19.4c0,0.4,0.1,0.7,0.1,1.1c0,0.4,0,0.7,0,1v22.8h-3.7v-31h3.1
						c0.4,0,0.7,0,0.9,0.1c0.2,0.1,0.4,0.3,0.6,0.6l10.7,19.1C1052.4,417.1,1052.6,417.4,1052.7,417.8z"/>
					<path d="M1105.5,412.4c0,2.3-0.4,4.4-1.1,6.4c-0.7,1.9-1.8,3.6-3.1,5c-1.3,1.4-3,2.5-4.8,3.3c-1.9,0.8-4,1.2-6.2,1.2
						c-2.3,0-4.4-0.4-6.2-1.2c-1.9-0.8-3.5-1.9-4.8-3.3c-1.3-1.4-2.4-3.1-3.1-5c-0.7-1.9-1.1-4.1-1.1-6.4c0-2.3,0.4-4.4,1.1-6.4
						c0.7-1.9,1.8-3.6,3.1-5c1.3-1.4,2.9-2.5,4.8-3.3c1.9-0.8,3.9-1.2,6.2-1.2c2.3,0,4.4,0.4,6.2,1.2c1.9,0.8,3.5,1.9,4.8,3.3
						c1.3,1.4,2.4,3.1,3.1,5C1105.1,408,1105.5,410.1,1105.5,412.4z M1101.2,412.4c0-1.9-0.3-3.6-0.8-5.1c-0.5-1.5-1.3-2.8-2.2-3.8
						c-1-1-2.1-1.8-3.5-2.4s-2.9-0.8-4.5-0.8c-1.7,0-3.2,0.3-4.5,0.8s-2.5,1.4-3.5,2.4c-1,1-1.7,2.3-2.2,3.8
						c-0.5,1.5-0.8,3.2-0.8,5.1c0,1.9,0.3,3.6,0.8,5.1c0.5,1.5,1.3,2.8,2.2,3.8c1,1,2.1,1.8,3.5,2.4c1.4,0.6,2.9,0.8,4.5,0.8
						c1.7,0,3.2-0.3,4.5-0.8c1.4-0.6,2.5-1.4,3.5-2.4c1-1,1.7-2.3,2.2-3.8C1100.9,416,1101.2,414.3,1101.2,412.4z"/>
					<path d="M1130.2,396.9v3.5h-10v27.5h-4.2v-27.5h-10.1v-3.5H1130.2z"/>
					<path d="M1161.3,412.4c0,2.3-0.4,4.4-1.1,6.4c-0.7,1.9-1.8,3.6-3.1,5c-1.3,1.4-3,2.5-4.8,3.3c-1.9,0.8-4,1.2-6.2,1.2
						c-2.3,0-4.4-0.4-6.2-1.2c-1.9-0.8-3.5-1.9-4.8-3.3c-1.3-1.4-2.4-3.1-3.1-5c-0.7-1.9-1.1-4.1-1.1-6.4c0-2.3,0.4-4.4,1.1-6.4
						c0.7-1.9,1.8-3.6,3.1-5c1.3-1.4,2.9-2.5,4.8-3.3c1.9-0.8,3.9-1.2,6.2-1.2c2.3,0,4.4,0.4,6.2,1.2c1.9,0.8,3.5,1.9,4.8,3.3
						c1.3,1.4,2.4,3.1,3.1,5C1160.9,408,1161.3,410.1,1161.3,412.4z M1157,412.4c0-1.9-0.3-3.6-0.8-5.1c-0.5-1.5-1.3-2.8-2.2-3.8
						c-1-1-2.1-1.8-3.5-2.4s-2.9-0.8-4.5-0.8c-1.7,0-3.2,0.3-4.5,0.8c-1.4,0.6-2.5,1.4-3.5,2.4c-1,1-1.7,2.3-2.2,3.8
						c-0.5,1.5-0.8,3.2-0.8,5.1c0,1.9,0.3,3.6,0.8,5.1c0.5,1.5,1.3,2.8,2.2,3.8c1,1,2.1,1.8,3.5,2.4c1.4,0.6,2.9,0.8,4.5,0.8
						c1.7,0,3.2-0.3,4.5-0.8c1.4-0.6,2.5-1.4,3.5-2.4c1-1,1.7-2.3,2.2-3.8C1156.7,416,1157,414.3,1157,412.4z"/>
					<path d="M1171.6,415v12.9h-4.2v-31h8.8c2,0,3.7,0.2,5.1,0.6c1.4,0.4,2.6,1,3.5,1.7s1.6,1.7,2.1,2.7c0.4,1.1,0.7,2.2,0.7,3.6
						c0,1.1-0.2,2.1-0.5,3.1c-0.3,1-0.8,1.8-1.5,2.6c-0.7,0.8-1.5,1.4-2.4,1.9c-0.9,0.5-2,0.9-3.2,1.2c0.5,0.3,1,0.7,1.4,1.3l9,12.3
						h-3.7c-0.8,0-1.3-0.3-1.7-0.9l-8-11.1c-0.2-0.3-0.5-0.6-0.8-0.7c-0.3-0.2-0.7-0.2-1.3-0.2H1171.6z M1171.6,411.9h4.4
						c1.2,0,2.3-0.1,3.2-0.4c0.9-0.3,1.7-0.7,2.3-1.3c0.6-0.5,1.1-1.2,1.4-1.9c0.3-0.7,0.5-1.6,0.5-2.5c0-1.8-0.6-3.2-1.8-4.2
						c-1.2-0.9-3-1.4-5.4-1.4h-4.6V411.9z"/>
					<path d="M1210.7,401.8c-0.1,0.2-0.3,0.4-0.4,0.5c-0.1,0.1-0.3,0.2-0.6,0.2c-0.2,0-0.5-0.1-0.9-0.4c-0.3-0.2-0.7-0.5-1.2-0.8
						c-0.5-0.3-1.1-0.6-1.8-0.8c-0.7-0.2-1.5-0.4-2.5-0.4c-0.9,0-1.8,0.1-2.5,0.4c-0.7,0.3-1.3,0.6-1.8,1c-0.5,0.4-0.8,0.9-1.1,1.5
						c-0.2,0.6-0.4,1.2-0.4,1.9c0,0.9,0.2,1.6,0.6,2.2c0.4,0.6,1,1.1,1.7,1.5c0.7,0.4,1.5,0.8,2.4,1c0.9,0.3,1.8,0.6,2.7,0.9
						c0.9,0.3,1.8,0.7,2.7,1.1c0.9,0.4,1.7,0.9,2.4,1.5c0.7,0.6,1.3,1.3,1.7,2.2c0.4,0.9,0.6,2,0.6,3.2c0,1.4-0.2,2.6-0.7,3.8
						c-0.5,1.2-1.1,2.2-2,3.1c-0.9,0.9-2,1.6-3.3,2.1c-1.3,0.5-2.8,0.8-4.4,0.8c-2,0-3.8-0.4-5.5-1.1c-1.7-0.7-3.1-1.7-4.2-3l1.2-2
						c0.1-0.2,0.3-0.3,0.4-0.4c0.2-0.1,0.3-0.2,0.6-0.2c0.3,0,0.6,0.2,1,0.5c0.4,0.3,0.9,0.7,1.5,1.1c0.6,0.4,1.3,0.7,2.1,1.1
						c0.8,0.3,1.8,0.5,3,0.5c1,0,1.9-0.1,2.7-0.4s1.4-0.7,2-1.2c0.5-0.5,1-1.1,1.2-1.8c0.3-0.7,0.4-1.5,0.4-2.3
						c0-0.9-0.2-1.7-0.6-2.3s-1-1.1-1.7-1.5c-0.7-0.4-1.5-0.7-2.4-1c-0.9-0.3-1.8-0.6-2.7-0.9c-0.9-0.3-1.8-0.6-2.7-1
						c-0.9-0.4-1.7-0.9-2.4-1.5c-0.7-0.6-1.3-1.4-1.7-2.3c-0.4-0.9-0.6-2.1-0.6-3.4c0-1.1,0.2-2.2,0.6-3.2c0.4-1,1-1.9,1.8-2.7
						c0.8-0.8,1.8-1.4,3-1.9c1.2-0.5,2.6-0.7,4.1-0.7c1.7,0,3.3,0.3,4.7,0.8c1.4,0.5,2.7,1.3,3.7,2.4L1210.7,401.8z"/>
				</g>
			</g>
			<g>
				<path d="M980,387.2c1.7,1.7,3.9,2.6,6.3,2.6c2.4,0,4.6-0.9,6.3-2.6c1.7-1.7,2.6-3.9,2.6-6.3s-0.9-4.6-2.6-6.3
					c-1.7-1.7-3.9-2.6-6.3-2.6c-2.4,0-4.6,0.9-6.3,2.6C976.5,378,976.5,383.7,980,387.2z M981,375.5c1.4-1.4,3.3-2.2,5.3-2.2
					c2,0,3.9,0.8,5.3,2.2c2.9,2.9,2.9,7.7,0,10.6c-1.4,1.4-3.3,2.2-5.3,2.2c-2,0-3.9-0.8-5.3-2.2C978.1,383.2,978.1,378.5,981,375.5
					z"/>
				<path d="M975.7,391.4c-1.2-1.2-2.4-2.3-3.8-3.5c-7.9,6.7-30.7,24.3-35.3,24.3h0c-0.3,0-0.5-0.1-0.8-0.2c-3.1-1.7-5.2-2-6-2.1
					l-6.8,6.8l2.4,2.4c2.9-2.6,6.7-4.1,10.7-4.1c4.3,0,8.3,1.7,11.3,4.7c6,6,6.2,15.7,0.6,22l2.4,2.4l6.8-6.8
					c-0.1-0.7-0.4-2.4-1.6-5c-0.3-0.5-1.1-2,8.6-16.4c5-7.4,11.1-15.8,15.1-20.6C978.1,393.9,976.9,392.6,975.7,391.4
					C975.7,391.5,975.7,391.4,975.7,391.4z"/>
				<path d="M982.1,385c1.1,1.1,2.6,1.7,4.2,1.7c1.6,0,3.1-0.6,4.2-1.7c2.3-2.3,2.3-6.1,0-8.4c-1.1-1.1-2.6-1.7-4.2-1.7
					c-1.6,0-3.1,0.6-4.2,1.7C979.8,379,979.8,382.7,982.1,385z"/>
				<path d="M936.1,420.4c-2.8,0-5.5,1.1-7.5,3.1c-2,2-3.1,4.7-3.1,7.5c0,2.8,1.1,5.5,3.1,7.5c2,2,4.7,3.1,7.5,3.1
					c2.8,0,5.5-1.1,7.5-3.1c2-2,3.1-4.7,3.1-7.5c0-2.8-1.1-5.5-3.1-7.5C941.6,421.6,938.9,420.4,936.1,420.4z"/>
				<path d="M936.1,445.5c3.6,0,7-1.3,9.7-3.8l-1.6-1.6c-2.2,2-5.1,3.1-8.2,3.1c-3.3,0-6.3-1.3-8.7-3.6c-2.3-2.3-3.6-5.4-3.6-8.7
					c0-3,1.1-5.9,3.1-8.2l-1.6-1.6c-5.2,5.7-5,14.4,0.5,19.9C928.6,444,932.2,445.5,936.1,445.5L936.1,445.5z"/>
				<path d="M1013.3,383.5l-1.2,1.2l-24,24l-0.5-1c-2.1-3.9-4.5-7.6-7.3-11.1c-8.8,10.7-23.5,32.4-23.3,35.1
					c1.8,3.7,1.8,5.8,1.8,5.9l0,0.3l-15.8,15.8l-0.3,0h70.6c4.1,0,7.3-3.3,7.3-7.3v-70.2L1013.3,383.5L1013.3,383.5z"/>
				<path d="M924.3,420.3l-2.3-2.3l-6.8,6.8c0.1,1.1,1,5.3,5.8,11.5C919.1,430.8,920.2,424.7,924.3,420.3z"/>
				<path d="M946.3,420.9c-2.7-2.7-6.4-4.2-10.2-4.2c-3.5,0-6.9,1.3-9.5,3.6l1.6,1.6c2.2-1.9,5-3,8-3c3.3,0,6.3,1.3,8.7,3.6
					c2.3,2.3,3.6,5.4,3.6,8.7c0,3-1.1,5.8-3,8l1.6,1.6C951.9,434.9,951.7,426.3,946.3,420.9z"/>
				<path d="M936.1,447.1L936.1,447.1c-1.8,0-3.5-0.3-5.1-0.8c6.2,4.9,10.4,5.7,11.5,5.8l6.8-6.8l-2.3-2.3
					C943.9,445.6,940.1,447.1,936.1,447.1z"/>
				<rect x="1003.1" y="343.8" transform="matrix(0.7071 -0.7071 0.7071 0.7071 37.3253 816.3322)" width="1.9" height="38.6"/>
				<path d="M1013.3,346.5h-92.6c-4.1,0-7.3,3.3-7.3,7.3v92.6c0,4.1,3.3,7.3,7.3,7.3h22c-0.3,0-7.3-0.1-18.2-11
					c-10.9-10.9-11.1-18-11.1-18.3l0-0.3l15.8-15.8l0.3,0h0c0.3,0,2.8,0.1,7,2.3c3.5,0,24.2-15.4,34-23.8c-3.5-2.8-7.2-5.3-11.1-7.4
					l-1-0.5l32.5-32.5l29.6,29.6v-22.3C1020.6,349.7,1017.4,346.5,1013.3,346.5z"/>
				<rect x="998.2" y="348.6" transform="matrix(0.7071 -0.7071 0.7071 0.7071 32.5101 814.3301)" width="2.1" height="38.6"/>
				<rect x="1000.9" y="346.1" transform="matrix(0.7071 -0.7071 0.7071 0.7071 34.9679 815.3561)" width="1.6" height="38.6"/>
				<path d="M961.2,378.6c3.8,2.1,7.3,4.5,10.7,7.2l0,0l0.5,0.4c0,0,0.1,0.1,0.1,0.1c0.5,0.4,1,0.8,1.5,1.3c0.3,0.2,0.5,0.5,0.8,0.7
					c0.2,0.2,0.4,0.4,0.6,0.5c0.5,0.5,1,0.9,1.5,1.4c0.5,0.5,0.9,0.9,1.4,1.4c0.2,0.2,0.4,0.5,0.6,0.7c0.1,0.1,0.2,0.3,0.4,0.4
					c0.6,0.6,1.1,1.3,1.7,1.9c0,0,0,0,0,0l0.4,0.5l0,0c2.7,3.3,5.1,6.9,7.2,10.7l20.2-20.2l-27.3-27.3L961.2,378.6z M993.7,373.4
					c2,2,3.1,4.6,3.1,7.4c0,2.8-1.1,5.5-3.1,7.4c-2,2-4.6,3.1-7.4,3.1c-2.8,0-5.5-1.1-7.4-3.1c-4.1-4.1-4.1-10.8,0-14.9
					c2-2,4.6-3.1,7.4-3.1C989.1,370.3,991.8,371.4,993.7,373.4z"/>
				<rect x="996" y="351.1" transform="matrix(0.7071 -0.7071 0.7071 0.7071 30.0544 813.3091)" width="1.6" height="38.6"/>
			</g>
			<g>
				<path d="M1046.7,450.4c0.1,0,0.2,0,0.3,0.1l0.7,0.8c-0.6,0.7-1.3,1.2-2.1,1.5c-0.8,0.4-1.8,0.5-2.9,0.5c-1,0-1.9-0.2-2.7-0.5
					c-0.8-0.3-1.5-0.8-2.1-1.4c-0.6-0.6-1-1.4-1.3-2.2c-0.3-0.9-0.5-1.8-0.5-2.9c0-1,0.2-2,0.5-2.9c0.3-0.9,0.8-1.6,1.4-2.2
					c0.6-0.6,1.3-1.1,2.2-1.4c0.8-0.3,1.8-0.5,2.8-0.5c1,0,1.9,0.2,2.6,0.5c0.7,0.3,1.4,0.7,2,1.3l-0.6,0.9c0,0.1-0.1,0.1-0.2,0.2
					c-0.1,0-0.1,0.1-0.2,0.1c-0.1,0-0.2,0-0.3-0.1c-0.1-0.1-0.2-0.1-0.3-0.2c-0.1-0.1-0.3-0.2-0.5-0.3c-0.2-0.1-0.4-0.2-0.6-0.3
					c-0.2-0.1-0.5-0.2-0.8-0.2c-0.3-0.1-0.7-0.1-1.1-0.1c-0.7,0-1.4,0.1-2,0.4c-0.6,0.3-1.1,0.6-1.6,1.1c-0.4,0.5-0.8,1-1,1.7
					c-0.2,0.7-0.4,1.4-0.4,2.3c0,0.9,0.1,1.6,0.4,2.3c0.2,0.7,0.6,1.2,1,1.7c0.4,0.5,0.9,0.8,1.5,1.1c0.6,0.2,1.2,0.4,1.9,0.4
					c0.4,0,0.8,0,1.1-0.1c0.3,0,0.6-0.1,0.9-0.2c0.3-0.1,0.5-0.2,0.8-0.4c0.2-0.2,0.5-0.3,0.7-0.6
					C1046.5,450.4,1046.6,450.4,1046.7,450.4z"/>
				<path d="M1073.8,446.4c0,1-0.2,2-0.5,2.8c-0.3,0.9-0.8,1.6-1.4,2.2c-0.6,0.6-1.3,1.1-2.2,1.4c-0.8,0.3-1.8,0.5-2.8,0.5
					c-1,0-1.9-0.2-2.8-0.5c-0.8-0.3-1.6-0.8-2.1-1.4c-0.6-0.6-1.1-1.4-1.4-2.2c-0.3-0.9-0.5-1.8-0.5-2.8c0-1,0.2-2,0.5-2.8
					c0.3-0.9,0.8-1.6,1.4-2.2c0.6-0.6,1.3-1.1,2.1-1.5c0.8-0.3,1.8-0.5,2.8-0.5c1,0,1.9,0.2,2.8,0.5c0.8,0.3,1.6,0.8,2.2,1.5
					c0.6,0.6,1.1,1.4,1.4,2.2C1073.6,444.4,1073.8,445.3,1073.8,446.4z M1071.9,446.4c0-0.8-0.1-1.6-0.3-2.3c-0.2-0.7-0.6-1.2-1-1.7
					c-0.4-0.5-0.9-0.8-1.5-1.1c-0.6-0.3-1.3-0.4-2-0.4c-0.7,0-1.4,0.1-2,0.4c-0.6,0.2-1.1,0.6-1.5,1.1c-0.4,0.5-0.8,1-1,1.7
					c-0.2,0.7-0.3,1.4-0.3,2.3c0,0.8,0.1,1.6,0.3,2.3c0.2,0.7,0.6,1.2,1,1.7c0.4,0.5,0.9,0.8,1.5,1.1c0.6,0.2,1.3,0.4,2,0.4
					c0.7,0,1.4-0.1,2-0.4s1.1-0.6,1.5-1.1c0.4-0.5,0.8-1,1-1.7C1071.8,448,1071.9,447.2,1071.9,446.4z"/>
				<path d="M1089,451.7h6v1.6h-7.8v-13.8h1.9V451.7z"/>
				<path d="M1119.9,446.4c0,1-0.2,2-0.5,2.8c-0.3,0.9-0.8,1.6-1.4,2.2c-0.6,0.6-1.3,1.1-2.2,1.4c-0.8,0.3-1.8,0.5-2.8,0.5
					c-1,0-1.9-0.2-2.8-0.5c-0.8-0.3-1.6-0.8-2.1-1.4c-0.6-0.6-1.1-1.4-1.4-2.2c-0.3-0.9-0.5-1.8-0.5-2.8c0-1,0.2-2,0.5-2.8
					c0.3-0.9,0.8-1.6,1.4-2.2c0.6-0.6,1.3-1.1,2.1-1.5c0.8-0.3,1.8-0.5,2.8-0.5c1,0,1.9,0.2,2.8,0.5c0.8,0.3,1.6,0.8,2.2,1.5
					c0.6,0.6,1.1,1.4,1.4,2.2C1119.7,444.4,1119.9,445.3,1119.9,446.4z M1117.9,446.4c0-0.8-0.1-1.6-0.3-2.3c-0.2-0.7-0.6-1.2-1-1.7
					c-0.4-0.5-0.9-0.8-1.5-1.1c-0.6-0.3-1.3-0.4-2-0.4c-0.7,0-1.4,0.1-2,0.4c-0.6,0.2-1.1,0.6-1.5,1.1c-0.4,0.5-0.8,1-1,1.7
					c-0.2,0.7-0.3,1.4-0.3,2.3c0,0.8,0.1,1.6,0.3,2.3c0.2,0.7,0.6,1.2,1,1.7c0.4,0.5,0.9,0.8,1.5,1.1s1.3,0.4,2,0.4
					c0.7,0,1.4-0.1,2-0.4s1.1-0.6,1.5-1.1c0.4-0.5,0.8-1,1-1.7C1117.8,448,1117.9,447.2,1117.9,446.4z"/>
				<path d="M1140.2,448.7c0.1,0.2,0.1,0.3,0.2,0.5c0.1-0.2,0.1-0.4,0.2-0.5c0.1-0.2,0.2-0.3,0.2-0.5l4.7-8.5
					c0.1-0.1,0.2-0.2,0.3-0.3c0.1,0,0.2,0,0.4,0h1.4v13.8h-1.6v-10.1c0-0.1,0-0.3,0-0.4c0-0.2,0-0.3,0-0.5l-4.7,8.6
					c-0.2,0.3-0.4,0.4-0.7,0.4h-0.3c-0.3,0-0.5-0.1-0.7-0.4l-4.8-8.7c0,0.2,0,0.3,0,0.5c0,0.2,0,0.3,0,0.4v10.1h-1.6v-13.8h1.4
					c0.2,0,0.3,0,0.4,0c0.1,0,0.2,0.1,0.3,0.3l4.8,8.5C1140.1,448.4,1140.1,448.6,1140.2,448.7z"/>
				<path d="M1161.7,453.2v-13.8h4.4c0.8,0,1.6,0.1,2.2,0.3c0.6,0.2,1.1,0.4,1.5,0.7c0.4,0.3,0.7,0.7,0.9,1.1
					c0.2,0.4,0.3,0.9,0.3,1.5c0,0.3-0.1,0.7-0.2,1c-0.1,0.3-0.3,0.6-0.5,0.9c-0.2,0.3-0.5,0.5-0.8,0.7c-0.3,0.2-0.7,0.4-1.1,0.5
					c1,0.2,1.8,0.6,2.3,1.1s0.8,1.2,0.8,2.1c0,0.6-0.1,1.1-0.3,1.6c-0.2,0.5-0.5,0.9-0.9,1.2c-0.4,0.3-0.9,0.6-1.5,0.8
					c-0.6,0.2-1.3,0.3-2.1,0.3H1161.7z M1163.6,445.6h2.5c0.5,0,1-0.1,1.4-0.2s0.7-0.3,1-0.5c0.3-0.2,0.4-0.5,0.6-0.7
					c0.1-0.3,0.2-0.6,0.2-1c0-0.8-0.2-1.4-0.7-1.8c-0.5-0.4-1.2-0.6-2.3-0.6h-2.5V445.6z M1163.6,447v4.8h3c0.5,0,1-0.1,1.4-0.2
					c0.4-0.1,0.7-0.3,0.9-0.5c0.2-0.2,0.4-0.5,0.5-0.8c0.1-0.3,0.2-0.6,0.2-1c0-0.7-0.3-1.3-0.8-1.7c-0.5-0.4-1.3-0.6-2.3-0.6
					H1163.6z"/>
				<path d="M1187.1,453.2h-1.9v-13.8h1.9V453.2z"/>
				<path d="M1213,453.2h-1.4c-0.2,0-0.3,0-0.4-0.1c-0.1-0.1-0.2-0.2-0.2-0.3l-1.3-3.3h-6.2l-1.3,3.3c0,0.1-0.1,0.2-0.2,0.3
					c-0.1,0.1-0.2,0.1-0.4,0.1h-1.4l5.5-13.8h1.9L1213,453.2z M1203.9,448.1h5.2l-2.2-5.6c-0.1-0.3-0.3-0.8-0.4-1.3
					c-0.1,0.3-0.1,0.5-0.2,0.7c-0.1,0.2-0.1,0.4-0.2,0.6L1203.9,448.1z"/>
			</g>
		</g>
	</g>
</g>
</svg>
