<?xml version="1.0" encoding="utf-8"?>
<!-- Generator: Adobe Illustrator 19.2.0, SVG Export Plug-In . SVG Version: 6.00 Build 0)  -->
<svg version="1.1" xmlns="http://www.w3.org/2000/svg" xmlns:xlink="http://www.w3.org/1999/xlink" x="0px" y="0px"
	 viewBox="0 0 1400 800" style="enable-background:new 0 0 1400 800;" xml:space="preserve">
<style type="text/css">
	.st0{fill:#F2F2F2;}
	.st1{fill:#E85D3F;}
</style>
<g id="BG">
	<rect x="0.3" y="2" class="st0" width="1400" height="800"/>
	<rect y="2" class="st0" width="1400" height="800"/>
</g>
<g id="Elements">
	<g>
		<g>
			<g>
				<g>
					<path d="M649.9,464.8c0,2.9-0.5,5.6-1.5,8c-1,2.4-2.4,4.6-4.2,6.3c-1.8,1.8-4,3.2-6.5,4.2c-2.6,1-5.4,1.5-8.5,1.5h-15.5v-40
						h15.5c3.1,0,5.9,0.5,8.5,1.5c2.6,1,4.7,2.4,6.5,4.2c1.8,1.8,3.2,3.9,4.2,6.3C649.4,459.2,649.9,461.9,649.9,464.8z
						 M640.4,464.8c0-2-0.3-3.8-0.8-5.4c-0.5-1.6-1.2-2.9-2.2-4c-1-1.1-2.1-2-3.5-2.6c-1.4-0.6-3-0.9-4.7-0.9h-6.2v25.7h6.2
						c1.8,0,3.4-0.3,4.7-0.9c1.4-0.6,2.6-1.4,3.5-2.6c1-1.1,1.7-2.5,2.2-4C640.1,468.6,640.4,466.8,640.4,464.8z"/>
					<path d="M664.5,484.8h-9.3v-40h9.3V484.8z"/>
					<path d="M697.7,444.8v7.1h-16.4v9.3h12.6v6.9h-12.6v9.5h16.4v7.1h-25.8v-40H697.7z"/>
					<path d="M725.2,452.9c-0.3,0.4-0.6,0.8-0.9,1c-0.3,0.2-0.7,0.3-1.2,0.3c-0.4,0-0.9-0.1-1.4-0.4c-0.5-0.3-1-0.6-1.6-0.9
						c-0.6-0.3-1.3-0.6-2.1-0.9c-0.8-0.3-1.7-0.4-2.7-0.4c-1.7,0-3,0.4-3.9,1.1c-0.9,0.7-1.3,1.7-1.3,3c0,0.8,0.3,1.5,0.8,2
						c0.5,0.5,1.2,1,2,1.4c0.8,0.4,1.8,0.7,2.9,1.1c1.1,0.3,2.2,0.7,3.3,1.1c1.1,0.4,2.2,0.9,3.3,1.4c1.1,0.5,2,1.2,2.9,2
						c0.8,0.8,1.5,1.8,2,3c0.5,1.2,0.8,2.6,0.8,4.3c0,1.8-0.3,3.6-1,5.2c-0.6,1.6-1.6,3-2.8,4.2c-1.2,1.2-2.7,2.1-4.5,2.8
						c-1.8,0.7-3.8,1-6.1,1c-1.2,0-2.5-0.1-3.8-0.4c-1.3-0.3-2.5-0.6-3.7-1.1c-1.2-0.5-2.3-1-3.4-1.7c-1.1-0.6-2-1.4-2.8-2.1
						l2.7-4.3c0.2-0.3,0.5-0.6,0.9-0.8s0.8-0.3,1.2-0.3c0.5,0,1.1,0.2,1.7,0.5c0.6,0.3,1.2,0.7,1.9,1.2c0.7,0.4,1.5,0.8,2.4,1.2
						c0.9,0.3,2,0.5,3.2,0.5c1.7,0,3-0.4,3.9-1.1c0.9-0.7,1.4-1.9,1.4-3.5c0-0.9-0.3-1.7-0.8-2.3c-0.5-0.6-1.2-1.1-2-1.5
						c-0.8-0.4-1.8-0.7-2.8-1c-1.1-0.3-2.2-0.6-3.3-1c-1.1-0.4-2.2-0.8-3.3-1.3c-1.1-0.5-2-1.2-2.8-2.1c-0.8-0.9-1.5-1.9-2-3.2
						c-0.5-1.3-0.8-2.8-0.8-4.7c0-1.5,0.3-3,0.9-4.4c0.6-1.4,1.5-2.7,2.7-3.8c1.2-1.1,2.6-2,4.3-2.7c1.7-0.7,3.7-1,5.8-1
						c1.2,0,2.4,0.1,3.6,0.3c1.2,0.2,2.3,0.5,3.3,0.9c1,0.4,2,0.8,2.9,1.3c0.9,0.5,1.7,1.1,2.4,1.8L725.2,452.9z"/>
					<path d="M758.4,444.8v7.1H742v9.3h12.6v6.9H742v9.5h16.4v7.1h-25.8v-40H758.4z"/>
					<path d="M773,477.4h14.8v7.4h-24.1v-40h9.3V477.4z"/>
				</g>
				<g>
					<path d="M629.3,514.9c0.1,0.4,0.3,0.8,0.4,1.1c0.1-0.4,0.3-0.8,0.4-1.1c0.2-0.4,0.3-0.7,0.5-1.1l10.3-18.8
						c0.2-0.3,0.4-0.5,0.6-0.6c0.2-0.1,0.5-0.1,0.9-0.1h3v30.6h-3.6v-22.5c0-0.3,0-0.6,0-1c0-0.3,0-0.7,0.1-1l-10.5,19.1
						c-0.4,0.6-0.9,1-1.5,1h-0.6c-0.6,0-1.1-0.3-1.5-1l-10.7-19.2c0,0.4,0.1,0.7,0.1,1.1c0,0.4,0,0.7,0,1v22.5h-3.6v-30.6h3
						c0.4,0,0.7,0,0.9,0.1c0.2,0.1,0.4,0.3,0.6,0.6l10.6,18.8C629,514.1,629.2,514.5,629.3,514.9z"/>
					<path d="M681.4,509.6c0,2.3-0.4,4.4-1.1,6.3c-0.7,1.9-1.7,3.6-3.1,4.9c-1.3,1.4-2.9,2.4-4.8,3.2c-1.9,0.8-3.9,1.1-6.2,1.1
						c-2.2,0-4.3-0.4-6.1-1.1c-1.8-0.8-3.4-1.8-4.8-3.2c-1.3-1.4-2.3-3-3.1-4.9c-0.7-1.9-1.1-4-1.1-6.3s0.4-4.4,1.1-6.3
						c0.7-1.9,1.7-3.6,3.1-4.9c1.3-1.4,2.9-2.5,4.8-3.2c1.8-0.8,3.9-1.2,6.1-1.2c2.2,0,4.3,0.4,6.2,1.2c1.9,0.8,3.4,1.8,4.8,3.2
						c1.3,1.4,2.3,3,3.1,4.9C681,505.2,681.4,507.3,681.4,509.6z M677.1,509.6c0-1.9-0.3-3.6-0.8-5.1c-0.5-1.5-1.2-2.8-2.2-3.8
						c-0.9-1-2.1-1.8-3.4-2.4c-1.3-0.6-2.8-0.8-4.5-0.8c-1.6,0-3.1,0.3-4.5,0.8s-2.5,1.3-3.4,2.4c-0.9,1-1.7,2.3-2.2,3.8
						c-0.5,1.5-0.8,3.2-0.8,5.1c0,1.9,0.3,3.6,0.8,5c0.5,1.5,1.2,2.7,2.2,3.8c0.9,1,2.1,1.8,3.4,2.4c1.3,0.5,2.8,0.8,4.5,0.8
						c1.6,0,3.1-0.3,4.5-0.8c1.3-0.5,2.5-1.3,3.4-2.4c0.9-1,1.7-2.3,2.2-3.8C676.9,513.1,677.1,511.5,677.1,509.6z"/>
					<path d="M705.7,494.3v3.5h-9.9v27.1h-4.1v-27.1h-9.9v-3.5H705.7z"/>
					<path d="M736.4,509.6c0,2.3-0.4,4.4-1.1,6.3c-0.7,1.9-1.7,3.6-3.1,4.9c-1.3,1.4-2.9,2.4-4.8,3.2c-1.9,0.8-3.9,1.1-6.2,1.1
						c-2.2,0-4.3-0.4-6.1-1.1c-1.8-0.8-3.4-1.8-4.8-3.2c-1.3-1.4-2.3-3-3.1-4.9c-0.7-1.9-1.1-4-1.1-6.3s0.4-4.4,1.1-6.3
						c0.7-1.9,1.7-3.6,3.1-4.9c1.3-1.4,2.9-2.5,4.8-3.2c1.8-0.8,3.9-1.2,6.1-1.2c2.2,0,4.3,0.4,6.2,1.2c1.9,0.8,3.4,1.8,4.8,3.2
						c1.3,1.4,2.3,3,3.1,4.9C736,505.2,736.4,507.3,736.4,509.6z M732.1,509.6c0-1.9-0.3-3.6-0.8-5.1c-0.5-1.5-1.2-2.8-2.2-3.8
						c-0.9-1-2.1-1.8-3.4-2.4s-2.8-0.8-4.5-0.8c-1.6,0-3.1,0.3-4.5,0.8c-1.3,0.6-2.5,1.3-3.4,2.4c-0.9,1-1.7,2.3-2.2,3.8
						c-0.5,1.5-0.8,3.2-0.8,5.1c0,1.9,0.3,3.6,0.8,5c0.5,1.5,1.2,2.7,2.2,3.8c0.9,1,2.1,1.8,3.4,2.4c1.3,0.5,2.8,0.8,4.5,0.8
						c1.6,0,3.1-0.3,4.5-0.8c1.3-0.5,2.5-1.3,3.4-2.4c0.9-1,1.7-2.3,2.2-3.8C731.9,513.1,732.1,511.5,732.1,509.6z"/>
					<path d="M746.6,512.1v12.8h-4.1v-30.6h8.6c1.9,0,3.6,0.2,5,0.6c1.4,0.4,2.6,1,3.5,1.7c0.9,0.7,1.6,1.6,2,2.7
						c0.4,1,0.7,2.2,0.7,3.5c0,1.1-0.2,2.1-0.5,3c-0.3,0.9-0.8,1.8-1.5,2.5c-0.6,0.7-1.4,1.4-2.4,1.9c-0.9,0.5-2,0.9-3.2,1.2
						c0.5,0.3,1,0.7,1.4,1.3l8.9,12.1h-3.7c-0.8,0-1.3-0.3-1.7-0.9l-7.9-10.9c-0.2-0.3-0.5-0.6-0.8-0.7c-0.3-0.2-0.7-0.2-1.3-0.2
						H746.6z M746.6,509.1h4.3c1.2,0,2.3-0.1,3.2-0.4c0.9-0.3,1.7-0.7,2.3-1.2c0.6-0.5,1.1-1.2,1.4-1.9c0.3-0.7,0.5-1.6,0.5-2.5
						c0-1.8-0.6-3.2-1.8-4.1c-1.2-0.9-3-1.4-5.4-1.4h-4.5V509.1z"/>
					<path d="M785.1,499.1c-0.1,0.2-0.3,0.4-0.4,0.5c-0.1,0.1-0.3,0.2-0.6,0.2c-0.2,0-0.5-0.1-0.8-0.4c-0.3-0.2-0.7-0.5-1.2-0.8
						c-0.5-0.3-1.1-0.6-1.8-0.8s-1.5-0.4-2.5-0.4c-0.9,0-1.7,0.1-2.5,0.4c-0.7,0.2-1.3,0.6-1.8,1c-0.5,0.4-0.8,0.9-1.1,1.5
						c-0.2,0.6-0.4,1.2-0.4,1.9c0,0.9,0.2,1.6,0.6,2.1c0.4,0.6,1,1,1.7,1.4c0.7,0.4,1.5,0.7,2.3,1c0.9,0.3,1.8,0.6,2.7,0.9
						c0.9,0.3,1.8,0.7,2.7,1.1c0.9,0.4,1.7,0.9,2.3,1.5c0.7,0.6,1.2,1.3,1.7,2.2c0.4,0.9,0.6,1.9,0.6,3.2c0,1.3-0.2,2.6-0.7,3.8
						c-0.5,1.2-1.1,2.2-2,3.1c-0.9,0.9-1.9,1.6-3.2,2c-1.3,0.5-2.7,0.7-4.3,0.7c-2,0-3.8-0.4-5.4-1.1c-1.6-0.7-3-1.7-4.2-2.9l1.2-2
						c0.1-0.2,0.3-0.3,0.4-0.4c0.2-0.1,0.3-0.2,0.5-0.2c0.3,0,0.6,0.2,1,0.5c0.4,0.3,0.9,0.7,1.4,1.1c0.6,0.4,1.3,0.7,2.1,1.1
						c0.8,0.3,1.8,0.5,3,0.5c1,0,1.9-0.1,2.6-0.4c0.8-0.3,1.4-0.7,2-1.1c0.5-0.5,0.9-1.1,1.2-1.8c0.3-0.7,0.4-1.4,0.4-2.3
						c0-0.9-0.2-1.7-0.6-2.3c-0.4-0.6-1-1.1-1.7-1.5c-0.7-0.4-1.5-0.7-2.3-1c-0.9-0.3-1.8-0.6-2.7-0.9c-0.9-0.3-1.8-0.6-2.7-1
						c-0.9-0.4-1.7-0.9-2.3-1.5c-0.7-0.6-1.2-1.4-1.7-2.3c-0.4-0.9-0.6-2-0.6-3.4c0-1.1,0.2-2.1,0.6-3.1c0.4-1,1-1.9,1.8-2.7
						c0.8-0.8,1.8-1.4,3-1.9s2.5-0.7,4-0.7c1.7,0,3.3,0.3,4.7,0.8c1.4,0.5,2.6,1.3,3.7,2.3L785.1,499.1z"/>
				</g>
			</g>
		</g>
		<g>
			<path class="st1" d="M720.3,316.1c2.7,2.7,6.4,4.2,10.2,4.2c3.9,0,7.5-1.5,10.2-4.2c2.7-2.7,4.2-6.4,4.2-10.2
				c0-3.9-1.5-7.5-4.2-10.2c-2.7-2.7-6.4-4.2-10.2-4.2c-3.9,0-7.5,1.5-10.2,4.2C714.6,301.2,714.6,310.4,720.3,316.1z M721.9,297.2
				c2.3-2.3,5.4-3.6,8.6-3.6c3.3,0,6.3,1.3,8.6,3.6c4.8,4.8,4.8,12.5,0,17.3c-2.3,2.3-5.4,3.6-8.6,3.6c-3.3,0-6.3-1.3-8.6-3.6
				C717.1,309.7,717.1,302,721.9,297.2z"/>
			<path class="st1" d="M713.3,323c-1.9-1.9-4-3.8-6.2-5.7c-12.8,10.9-49.8,39.4-57.3,39.4h0c-0.5,0-0.9-0.1-1.2-0.3
				c-5.1-2.7-8.5-3.3-9.7-3.5l-11.1,11.1l3.8,3.8c4.8-4.3,10.8-6.6,17.3-6.6c7,0,13.5,2.7,18.4,7.6c9.8,9.8,10.1,25.5,1,35.7
				l3.8,3.8l11.1-11.1c-0.1-1.1-0.7-3.9-2.7-8c-0.5-0.9-1.8-3.2,13.9-26.6c8.1-12,18-25.6,24.5-33.5
				C717.2,327.1,715.3,325,713.3,323C713.3,323,713.3,323,713.3,323z"/>
			<path class="st1" d="M723.7,312.6c1.8,1.8,4.2,2.8,6.8,2.8c2.6,0,5-1,6.8-2.8c3.7-3.7,3.7-9.8,0-13.6c-1.8-1.8-4.2-2.8-6.8-2.8
				c-2.6,0-5,1-6.8,2.8C720,302.8,720,308.9,723.7,312.6z"/>
			<path class="st1" d="M649,370.1c-4.6,0-8.9,1.8-12.2,5.1c-3.3,3.3-5.1,7.6-5.1,12.2c0,4.6,1.8,8.9,5.1,12.2
				c3.3,3.3,7.6,5.1,12.2,5.1c4.6,0,9-1.8,12.2-5.1c3.3-3.3,5.1-7.6,5.1-12.2c0-4.6-1.8-8.9-5.1-12.2
				C657.9,371.9,653.6,370.1,649,370.1z"/>
			<path class="st1" d="M649,410.8c5.9,0,11.4-2.2,15.8-6.1l-2.5-2.5c-3.6,3.3-8.3,5.1-13.2,5.1c-5.3,0-10.3-2.1-14-5.8
				c-3.8-3.8-5.8-8.7-5.8-14.1c0-4.9,1.8-9.6,5.1-13.2l-2.5-2.5c-8.4,9.2-8.1,23.5,0.7,32.3C636.8,408.4,642.7,410.8,649,410.8
				L649,410.8z"/>
			<path class="st1" d="M774.3,310.1l-1.9,1.9l-38.9,38.9l-0.8-1.6c-3.3-6.4-7.3-12.4-11.9-18c-14.3,17.3-38.2,52.6-37.8,57
				c2.9,6,2.9,9.5,2.9,9.6l0,0.5l-25.6,25.6l-0.6,0h114.6c6.6,0,11.9-5.3,11.9-11.9v-114L774.3,310.1L774.3,310.1z"/>
			<path class="st1" d="M629.8,369.8L626,366l-11.1,11.1c0.2,1.8,1.6,8.6,9.4,18.6C621.4,386.9,623.3,377,629.8,369.8z"/>
			<path class="st1" d="M665.6,370.8c-4.4-4.4-10.3-6.9-16.6-6.9c-5.8,0-11.2,2.1-15.5,5.9l2.5,2.5c3.6-3.1,8.1-4.8,12.9-4.8
				c5.3,0,10.3,2.1,14.1,5.8c3.8,3.8,5.8,8.7,5.8,14c0,4.8-1.7,9.3-4.8,12.9l2.5,2.5C674.7,393.6,674.3,379.6,665.6,370.8z"/>
			<path class="st1" d="M649,413.4L649,413.4c-2.9,0-5.7-0.5-8.3-1.4c10.1,7.9,16.8,9.2,18.6,9.4l11.1-11.1l-3.8-3.8
				C661.8,411,655.6,413.4,649,413.4z"/>
			
				<rect x="757.8" y="245.7" transform="matrix(0.7071 -0.7071 0.7071 0.7071 26.513 618.0753)" class="st1" width="3" height="62.7"/>
			<path class="st1" d="M774.3,250H624.1c-6.6,0-11.9,5.3-11.9,11.9v150.2c0,6.6,5.3,11.9,11.9,11.9h35.7c-0.5,0-11.9-0.2-29.5-17.8
				c-17.7-17.7-18-29.2-18-29.6l0-0.5l25.6-25.6l0.5,0h0c0.5,0,4.5,0.1,11.4,3.8c5.8,0,39.3-24.9,55.3-38.6
				c-5.6-4.6-11.7-8.6-18.1-12l-1.6-0.8l52.8-52.8l48,48v-36.2C786.3,255.3,780.9,250,774.3,250z"/>
			
				<rect x="749.8" y="253.5" transform="matrix(0.7071 -0.7071 0.7071 0.7071 18.7008 614.8337)" class="st1" width="3.5" height="62.7"/>
			
				<rect x="754.2" y="249.5" transform="matrix(0.7071 -0.7071 0.7071 0.7071 22.6865 616.4908)" class="st1" width="2.6" height="62.7"/>
			<path class="st1" d="M689.8,302.2c6.1,3.3,11.9,7.3,17.3,11.7l0,0l0.8,0.7c0.1,0.1,0.1,0.1,0.2,0.2c0.8,0.7,1.6,1.4,2.4,2.1
				c0.4,0.4,0.9,0.8,1.3,1.2c0.3,0.3,0.6,0.6,0.9,0.9c0.8,0.8,1.6,1.5,2.4,2.3c0.7,0.7,1.5,1.5,2.2,2.3c0.3,0.4,0.7,0.7,1,1.1
				c0.2,0.2,0.4,0.4,0.6,0.6c0.9,1,1.9,2.1,2.8,3.2c0,0,0,0,0,0l0.7,0.8l0,0c4.4,5.4,8.4,11.2,11.7,17.3l32.8-32.8l-44.4-44.4
				L689.8,302.2z M742.6,293.8c3.2,3.2,5,7.5,5,12.1c0,4.6-1.8,8.9-5,12.1c-3.2,3.2-7.5,5-12.1,5c-4.6,0-8.9-1.8-12.1-5
				c-6.7-6.7-6.7-17.5,0-24.2c3.2-3.2,7.5-5,12.1-5C735.1,288.8,739.4,290.5,742.6,293.8z"/>
			
				<rect x="746.2" y="257.5" transform="matrix(0.7071 -0.7071 0.7071 0.7071 14.7167 613.1804)" class="st1" width="2.6" height="62.7"/>
		</g>
		<g>
			<g>
				<path d="M623.4,547c0.1,0,0.2,0,0.3,0.1l0.7,0.8c-0.6,0.6-1.2,1.1-2,1.5c-0.8,0.4-1.8,0.5-2.9,0.5c-1,0-1.9-0.2-2.7-0.5
					c-0.8-0.3-1.5-0.8-2-1.4c-0.6-0.6-1-1.3-1.3-2.2c-0.3-0.9-0.5-1.8-0.5-2.8c0-1,0.2-2,0.5-2.8c0.3-0.9,0.8-1.6,1.4-2.2
					s1.3-1.1,2.2-1.4c0.8-0.3,1.8-0.5,2.8-0.5c1,0,1.9,0.2,2.6,0.5c0.7,0.3,1.4,0.7,1.9,1.3l-0.6,0.8c0,0.1-0.1,0.1-0.2,0.2
					c-0.1,0-0.1,0.1-0.2,0.1c-0.1,0-0.2,0-0.3-0.1c-0.1-0.1-0.2-0.1-0.3-0.2c-0.1-0.1-0.3-0.2-0.4-0.3c-0.2-0.1-0.4-0.2-0.6-0.3
					c-0.2-0.1-0.5-0.2-0.8-0.2c-0.3-0.1-0.7-0.1-1.1-0.1c-0.7,0-1.4,0.1-2,0.4c-0.6,0.3-1.1,0.6-1.6,1.1c-0.4,0.5-0.8,1-1,1.7
					c-0.2,0.7-0.4,1.4-0.4,2.2c0,0.8,0.1,1.6,0.4,2.3c0.2,0.7,0.6,1.2,1,1.7c0.4,0.5,0.9,0.8,1.5,1c0.6,0.2,1.2,0.4,1.9,0.4
					c0.4,0,0.8,0,1.1-0.1c0.3,0,0.6-0.1,0.9-0.2c0.3-0.1,0.5-0.2,0.8-0.4c0.2-0.2,0.5-0.3,0.7-0.6C623.2,547.1,623.3,547,623.4,547z
					"/>
				<path d="M650.1,543c0,1-0.2,2-0.5,2.8c-0.3,0.9-0.8,1.6-1.4,2.2c-0.6,0.6-1.3,1.1-2.1,1.4c-0.8,0.3-1.7,0.5-2.7,0.5
					s-1.9-0.2-2.7-0.5c-0.8-0.3-1.5-0.8-2.1-1.4c-0.6-0.6-1-1.3-1.4-2.2c-0.3-0.9-0.5-1.8-0.5-2.8s0.2-2,0.5-2.8
					c0.3-0.9,0.8-1.6,1.4-2.2c0.6-0.6,1.3-1.1,2.1-1.4c0.8-0.3,1.7-0.5,2.7-0.5s1.9,0.2,2.7,0.5s1.5,0.8,2.1,1.4
					c0.6,0.6,1,1.4,1.4,2.2C649.9,541.1,650.1,542,650.1,543z M648.2,543c0-0.8-0.1-1.6-0.3-2.3c-0.2-0.7-0.6-1.2-1-1.7
					c-0.4-0.5-0.9-0.8-1.5-1.1c-0.6-0.2-1.3-0.4-2-0.4c-0.7,0-1.4,0.1-2,0.4c-0.6,0.2-1.1,0.6-1.5,1.1c-0.4,0.5-0.7,1-1,1.7
					c-0.2,0.7-0.3,1.4-0.3,2.3c0,0.8,0.1,1.6,0.3,2.2c0.2,0.7,0.6,1.2,1,1.7c0.4,0.5,0.9,0.8,1.5,1.1c0.6,0.2,1.3,0.4,2,0.4
					c0.7,0,1.4-0.1,2-0.4c0.6-0.2,1.1-0.6,1.5-1.1c0.4-0.5,0.7-1,1-1.7C648.1,544.6,648.2,543.9,648.2,543z"/>
				<path d="M665.1,548.3h5.9v1.5h-7.7v-13.6h1.8V548.3z"/>
				<path d="M695.5,543c0,1-0.2,2-0.5,2.8c-0.3,0.9-0.8,1.6-1.4,2.2c-0.6,0.6-1.3,1.1-2.1,1.4c-0.8,0.3-1.7,0.5-2.7,0.5
					s-1.9-0.2-2.7-0.5c-0.8-0.3-1.5-0.8-2.1-1.4c-0.6-0.6-1-1.3-1.4-2.2c-0.3-0.9-0.5-1.8-0.5-2.8s0.2-2,0.5-2.8
					c0.3-0.9,0.8-1.6,1.4-2.2s1.3-1.1,2.1-1.4c0.8-0.3,1.7-0.5,2.7-0.5s1.9,0.2,2.7,0.5c0.8,0.3,1.5,0.8,2.1,1.4
					c0.6,0.6,1,1.4,1.4,2.2C695.4,541.1,695.5,542,695.5,543z M693.7,543c0-0.8-0.1-1.6-0.3-2.3c-0.2-0.7-0.5-1.2-1-1.7
					c-0.4-0.5-0.9-0.8-1.5-1.1c-0.6-0.2-1.3-0.4-2-0.4c-0.7,0-1.4,0.1-2,0.4c-0.6,0.2-1.1,0.6-1.5,1.1c-0.4,0.5-0.7,1-1,1.7
					c-0.2,0.7-0.3,1.4-0.3,2.3c0,0.8,0.1,1.6,0.3,2.2c0.2,0.7,0.6,1.2,1,1.7c0.4,0.5,0.9,0.8,1.5,1.1c0.6,0.2,1.3,0.4,2,0.4
					c0.7,0,1.4-0.1,2-0.4c0.6-0.2,1.1-0.6,1.5-1.1c0.4-0.5,0.7-1,1-1.7C693.5,544.6,693.7,543.9,693.7,543z"/>
				<path d="M715.6,545.4c0.1,0.2,0.1,0.3,0.2,0.5c0.1-0.2,0.1-0.3,0.2-0.5c0.1-0.2,0.1-0.3,0.2-0.5l4.6-8.4
					c0.1-0.1,0.2-0.2,0.3-0.3c0.1,0,0.2,0,0.4,0h1.4v13.6h-1.6v-10c0-0.1,0-0.3,0-0.4c0-0.2,0-0.3,0-0.5l-4.7,8.5
					c-0.2,0.3-0.4,0.4-0.7,0.4h-0.3c-0.3,0-0.5-0.1-0.7-0.4l-4.8-8.5c0,0.2,0,0.3,0,0.5c0,0.2,0,0.3,0,0.4v10h-1.6v-13.6h1.4
					c0.2,0,0.3,0,0.4,0c0.1,0,0.2,0.1,0.3,0.3l4.7,8.4C715.5,545.1,715.6,545.2,715.6,545.4z"/>
				<path d="M736.8,549.8v-13.6h4.3c0.8,0,1.6,0.1,2.2,0.2c0.6,0.2,1.1,0.4,1.5,0.7c0.4,0.3,0.7,0.7,0.9,1.1
					c0.2,0.4,0.3,0.9,0.3,1.5c0,0.3-0.1,0.7-0.2,1c-0.1,0.3-0.3,0.6-0.5,0.9c-0.2,0.3-0.5,0.5-0.8,0.7c-0.3,0.2-0.7,0.4-1.1,0.5
					c1,0.2,1.7,0.6,2.3,1.1c0.5,0.5,0.8,1.2,0.8,2.1c0,0.6-0.1,1.1-0.3,1.6c-0.2,0.5-0.5,0.9-0.9,1.2c-0.4,0.3-0.9,0.6-1.5,0.8
					c-0.6,0.2-1.3,0.3-2,0.3H736.8z M738.7,542.3h2.4c0.5,0,1-0.1,1.3-0.2c0.4-0.1,0.7-0.3,0.9-0.5c0.2-0.2,0.4-0.4,0.6-0.7
					c0.1-0.3,0.2-0.6,0.2-0.9c0-0.8-0.2-1.4-0.7-1.8c-0.5-0.4-1.2-0.6-2.2-0.6h-2.5V542.3z M738.7,543.6v4.7h2.9
					c0.5,0,1-0.1,1.4-0.2c0.4-0.1,0.7-0.3,0.9-0.5c0.2-0.2,0.4-0.5,0.5-0.8c0.1-0.3,0.2-0.6,0.2-1c0-0.7-0.2-1.3-0.7-1.7
					c-0.5-0.4-1.2-0.6-2.3-0.6H738.7z"/>
				<path d="M761.9,549.8h-1.8v-13.6h1.8V549.8z"/>
				<path d="M787.4,549.8H786c-0.2,0-0.3,0-0.4-0.1c-0.1-0.1-0.2-0.2-0.2-0.3l-1.3-3.3H778l-1.3,3.3c0,0.1-0.1,0.2-0.2,0.3
					c-0.1,0.1-0.2,0.1-0.4,0.1h-1.4l5.4-13.6h1.9L787.4,549.8z M778.5,544.8h5.1l-2.1-5.5c-0.1-0.3-0.3-0.8-0.4-1.3
					c-0.1,0.3-0.1,0.5-0.2,0.7c-0.1,0.2-0.1,0.4-0.2,0.6L778.5,544.8z"/>
			</g>
		</g>
	</g>
</g>
</svg>
