<?xml version="1.0" encoding="utf-8"?>
<!-- Generator: Adobe Illustrator 19.2.0, SVG Export Plug-In . SVG Version: 6.00 Build 0)  -->
<svg version="1.1" xmlns="http://www.w3.org/2000/svg" xmlns:xlink="http://www.w3.org/1999/xlink" x="0px" y="0px"
	 viewBox="0 0 1400 800" style="enable-background:new 0 0 1400 800;" xml:space="preserve">
<style type="text/css">
	.st0{fill:#F2F2F2;}
	.st1{fill:#E85D3F;}
	.st2{fill:#939598;}
	.st3{fill:#A22409;}
	.st4{fill:#CD3819;}
	.st5{fill:#FF8167;}
	.st6{fill:#FFA491;}
	.st7{fill:#595F68;}
	.st8{fill:#75797E;}
	.st9{fill:#BDBEBF;}
	.st10{fill:#FFFFFF;}
</style>
<g id="BG">
	<rect y="2" class="st0" width="1400" height="800"/>
</g>
<g id="Elements">
	<g>
		<rect x="609.5" y="273.9" width="181.5" height="226.9"/>
		<rect x="400.1" y="273.9" class="st1" width="181.5" height="181.5"/>
		<rect x="818.5" y="273.9" class="st2" width="181.5" height="181.5"/>
		<rect x="400" y="455.5" class="st3" width="45.4" height="45.4"/>
		<rect x="445.4" y="455.5" class="st4" width="45.4" height="45.4"/>
		<rect x="490.7" y="455.5" class="st5" width="45.4" height="45.4"/>
		<rect x="536.1" y="455.5" class="st6" width="45.4" height="45.4"/>
		<rect x="818.5" y="455.5" class="st7" width="60.5" height="45.4"/>
		<rect x="879" y="455.5" class="st8" width="60.5" height="45.4"/>
		<rect x="939.5" y="455.5" class="st9" width="60.5" height="45.4"/>
		<g>
			<g>
				<path class="st10" d="M524.5,397.2v4.9h-3v-13.1h4.3c0.9,0,1.8,0.1,2.4,0.3s1.2,0.5,1.6,0.8s0.7,0.8,0.9,1.2
					c0.2,0.5,0.3,1,0.3,1.5c0,0.4-0.1,0.8-0.2,1.2c-0.1,0.4-0.3,0.7-0.5,1c-0.2,0.3-0.5,0.6-0.8,0.9s-0.7,0.5-1.1,0.6
					c0.2,0.1,0.4,0.2,0.6,0.4c0.2,0.2,0.3,0.3,0.5,0.5l2.8,4.6h-2.8c-0.5,0-0.9-0.2-1.1-0.6l-2.2-3.8c-0.1-0.2-0.2-0.3-0.3-0.4
					s-0.3-0.1-0.5-0.1H524.5z M524.5,395.1h1.2c0.4,0,0.8-0.1,1.1-0.2c0.3-0.1,0.5-0.2,0.7-0.4c0.2-0.2,0.3-0.4,0.4-0.7
					c0.1-0.2,0.1-0.5,0.1-0.8c0-0.6-0.2-1-0.6-1.3c-0.4-0.3-1-0.5-1.7-0.5h-1.2V395.1z"/>
				<path class="st10" d="M541.2,389c0.5,0,1.1,0.1,1.5,0.2c0.5,0.2,0.9,0.4,1.2,0.7c0.3,0.3,0.6,0.7,0.8,1.1
					c0.2,0.4,0.3,0.9,0.3,1.5c0,0.5-0.1,0.9-0.2,1.3c-0.1,0.4-0.3,0.8-0.6,1.2s-0.5,0.7-0.8,1.1c-0.3,0.4-0.7,0.7-1,1.1l-3.4,3.5
					c0.2-0.1,0.5-0.1,0.7-0.2c0.2,0,0.5-0.1,0.7-0.1h4.3c0.2,0,0.3,0.1,0.4,0.2c0.1,0.1,0.2,0.2,0.2,0.4v1h-8.6v-0.5
					c0-0.1,0-0.2,0.1-0.4c0-0.1,0.1-0.2,0.2-0.3l4.1-4.1c0.3-0.3,0.7-0.7,0.9-1c0.3-0.3,0.5-0.6,0.7-1c0.2-0.3,0.4-0.7,0.5-1
					c0.1-0.3,0.2-0.7,0.2-1.1s-0.1-0.7-0.2-1s-0.3-0.5-0.5-0.7c-0.2-0.2-0.5-0.3-0.7-0.4c-0.3-0.1-0.6-0.1-0.9-0.1
					c-0.3,0-0.6,0-0.9,0.1c-0.3,0.1-0.5,0.2-0.7,0.4s-0.4,0.4-0.5,0.6c-0.1,0.2-0.3,0.5-0.3,0.8c0,0.2-0.1,0.3-0.2,0.4
					c-0.1,0.1-0.2,0.1-0.4,0.1c0,0-0.1,0-0.1,0s-0.1,0-0.1,0l-0.8-0.1c0.1-0.6,0.2-1.1,0.5-1.6c0.2-0.5,0.5-0.8,0.9-1.1
					c0.4-0.3,0.8-0.5,1.3-0.7C540.1,389,540.6,389,541.2,389z"/>
				<path class="st10" d="M551.8,389c0.5,0,1,0.1,1.5,0.2c0.5,0.2,0.9,0.4,1.2,0.7s0.6,0.6,0.8,1c0.2,0.4,0.3,0.9,0.3,1.4
					c0,0.4-0.1,0.8-0.2,1.1c-0.1,0.3-0.3,0.6-0.5,0.8c-0.2,0.2-0.4,0.4-0.7,0.6c-0.3,0.2-0.6,0.3-0.9,0.4c0.8,0.2,1.5,0.6,1.9,1.1
					c0.4,0.5,0.6,1.2,0.6,2c0,0.6-0.1,1.1-0.3,1.6c-0.2,0.5-0.5,0.9-0.9,1.2c-0.4,0.3-0.8,0.6-1.4,0.8c-0.5,0.2-1.1,0.3-1.7,0.3
					c-0.7,0-1.3-0.1-1.8-0.3s-0.9-0.4-1.2-0.7c-0.3-0.3-0.6-0.7-0.8-1.1c-0.2-0.4-0.4-0.9-0.5-1.3l0.7-0.3c0.1-0.1,0.3-0.1,0.4-0.1
					c0.1,0,0.2,0,0.3,0.1s0.2,0.1,0.2,0.2c0,0,0,0,0,0.1c0,0,0,0.1,0,0.1c0.1,0.2,0.2,0.4,0.3,0.6c0.1,0.2,0.3,0.4,0.5,0.6
					c0.2,0.2,0.5,0.4,0.8,0.5s0.7,0.2,1.1,0.2c0.4,0,0.8-0.1,1.2-0.2c0.3-0.1,0.6-0.3,0.8-0.6c0.2-0.2,0.4-0.5,0.5-0.8
					c0.1-0.3,0.2-0.6,0.2-0.9c0-0.3,0-0.7-0.1-1c-0.1-0.3-0.3-0.5-0.5-0.7c-0.2-0.2-0.6-0.4-1-0.5c-0.4-0.1-1-0.2-1.7-0.2v-1.2
					c0.5,0,1-0.1,1.4-0.2c0.4-0.1,0.7-0.3,1-0.5s0.4-0.4,0.5-0.7c0.1-0.3,0.2-0.6,0.2-0.9c0-0.4-0.1-0.7-0.2-1
					c-0.1-0.3-0.3-0.5-0.5-0.7s-0.4-0.3-0.7-0.4s-0.6-0.1-0.9-0.1s-0.6,0-0.9,0.1c-0.3,0.1-0.5,0.2-0.7,0.4s-0.4,0.4-0.5,0.6
					c-0.1,0.2-0.3,0.5-0.3,0.8c0,0.2-0.1,0.3-0.2,0.4c-0.1,0.1-0.2,0.1-0.4,0.1c0,0-0.1,0-0.1,0s-0.1,0-0.1,0l-0.8-0.1
					c0.1-0.6,0.2-1.1,0.5-1.6c0.2-0.5,0.5-0.8,0.9-1.1c0.4-0.3,0.8-0.5,1.3-0.7C550.7,389,551.3,389,551.8,389z"/>
				<path class="st10" d="M562.1,389c0.5,0,1.1,0.1,1.5,0.2c0.5,0.2,0.9,0.4,1.2,0.7c0.3,0.3,0.6,0.7,0.8,1.1
					c0.2,0.4,0.3,0.9,0.3,1.5c0,0.5-0.1,0.9-0.2,1.3c-0.1,0.4-0.3,0.8-0.6,1.2s-0.5,0.7-0.8,1.1c-0.3,0.4-0.7,0.7-1,1.1l-3.4,3.5
					c0.2-0.1,0.5-0.1,0.7-0.2c0.2,0,0.5-0.1,0.7-0.1h4.3c0.2,0,0.3,0.1,0.4,0.2c0.1,0.1,0.2,0.2,0.2,0.4v1h-8.6v-0.5
					c0-0.1,0-0.2,0.1-0.4c0-0.1,0.1-0.2,0.2-0.3l4.1-4.1c0.3-0.3,0.7-0.7,0.9-1c0.3-0.3,0.5-0.6,0.7-1c0.2-0.3,0.4-0.7,0.5-1
					c0.1-0.3,0.2-0.7,0.2-1.1s-0.1-0.7-0.2-1s-0.3-0.5-0.5-0.7c-0.2-0.2-0.5-0.3-0.7-0.4c-0.3-0.1-0.6-0.1-0.9-0.1
					c-0.3,0-0.6,0-0.9,0.1c-0.3,0.1-0.5,0.2-0.7,0.4s-0.4,0.4-0.5,0.6c-0.1,0.2-0.3,0.5-0.3,0.8c0,0.2-0.1,0.3-0.2,0.4
					c-0.1,0.1-0.2,0.1-0.4,0.1c0,0-0.1,0-0.1,0s-0.1,0-0.1,0l-0.8-0.1c0.1-0.6,0.2-1.1,0.5-1.6c0.2-0.5,0.5-0.8,0.9-1.1
					c0.4-0.3,0.8-0.5,1.3-0.7C561,389,561.5,389,562.1,389z"/>
				<path class="st10" d="M537.2,421.4c0.4,0,0.8,0,1.1-0.1c0.3-0.1,0.6-0.2,0.9-0.3v-2h-1.3c-0.2,0-0.3-0.1-0.5-0.2
					c-0.1-0.1-0.2-0.2-0.2-0.4v-1.7h4.7v5.5c-0.3,0.2-0.7,0.5-1,0.6c-0.4,0.2-0.8,0.3-1.2,0.4c-0.4,0.1-0.8,0.2-1.3,0.3
					c-0.5,0.1-1,0.1-1.5,0.1c-1,0-1.8-0.2-2.7-0.5c-0.8-0.3-1.5-0.8-2.1-1.4s-1.1-1.3-1.4-2.1c-0.3-0.8-0.5-1.7-0.5-2.7
					c0-1,0.2-1.9,0.5-2.7c0.3-0.8,0.8-1.5,1.4-2.1c0.6-0.6,1.3-1.1,2.2-1.4c0.9-0.3,1.8-0.5,2.9-0.5c0.5,0,1.1,0,1.5,0.1
					s0.9,0.2,1.3,0.4c0.4,0.2,0.8,0.3,1.1,0.6c0.3,0.2,0.6,0.5,0.9,0.7l-0.9,1.3c-0.1,0.1-0.2,0.2-0.3,0.3c-0.1,0.1-0.2,0.1-0.4,0.1
					c-0.2,0-0.4-0.1-0.6-0.2c-0.2-0.1-0.5-0.3-0.7-0.4c-0.2-0.1-0.4-0.2-0.7-0.3c-0.2-0.1-0.5-0.1-0.7-0.1c-0.2,0-0.5,0-0.8,0
					c-0.6,0-1.1,0.1-1.5,0.3c-0.5,0.2-0.8,0.5-1.2,0.9s-0.6,0.8-0.7,1.3s-0.3,1.1-0.3,1.7c0,0.7,0.1,1.3,0.3,1.9
					c0.2,0.5,0.5,1,0.8,1.4s0.7,0.7,1.2,0.9S536.6,421.4,537.2,421.4z"/>
				<path class="st10" d="M551.2,418.3c-0.5,0-0.9-0.1-1.4-0.2c-0.4-0.2-0.8-0.4-1.1-0.7c-0.3-0.3-0.6-0.7-0.8-1.2
					c-0.2-0.5-0.3-1-0.3-1.6c0-0.6,0.1-1.1,0.3-1.6c0.2-0.5,0.5-0.9,0.9-1.3c0.4-0.4,0.8-0.7,1.3-0.9c0.5-0.2,1.1-0.3,1.7-0.3
					c0.6,0,1.2,0.1,1.7,0.3c0.5,0.2,0.9,0.5,1.3,0.9c0.4,0.4,0.6,0.8,0.8,1.3c0.2,0.5,0.3,1.1,0.3,1.7c0,0.4,0,0.7-0.1,1.1
					c-0.1,0.3-0.2,0.7-0.3,1s-0.3,0.6-0.5,0.9c-0.2,0.3-0.4,0.6-0.6,1l-3.1,4.5c-0.1,0.1-0.2,0.2-0.3,0.3c-0.1,0.1-0.3,0.1-0.5,0.1
					H549l3.9-5.1c0.1-0.2,0.3-0.3,0.4-0.5s0.2-0.3,0.3-0.5c-0.3,0.3-0.7,0.5-1.1,0.6S551.6,418.3,551.2,418.3z M554.4,414.5
					c0-0.4-0.1-0.8-0.2-1.1s-0.3-0.6-0.5-0.8c-0.2-0.2-0.5-0.4-0.8-0.5c-0.3-0.1-0.7-0.2-1-0.2c-0.4,0-0.8,0.1-1.1,0.2
					c-0.3,0.1-0.6,0.3-0.8,0.5c-0.2,0.2-0.4,0.5-0.5,0.8c-0.1,0.3-0.2,0.7-0.2,1c0,0.4,0.1,0.8,0.2,1.1c0.1,0.3,0.3,0.6,0.5,0.8
					c0.2,0.2,0.5,0.4,0.8,0.5c0.3,0.1,0.7,0.2,1.1,0.2c0.4,0,0.8-0.1,1.1-0.2s0.6-0.3,0.8-0.6c0.2-0.2,0.4-0.5,0.5-0.8
					C554.3,415.2,554.4,414.9,554.4,414.5z"/>
				<path class="st10" d="M562.2,410.6c0.5,0,1,0.1,1.5,0.2c0.5,0.2,0.9,0.4,1.2,0.7s0.6,0.6,0.8,1c0.2,0.4,0.3,0.9,0.3,1.4
					c0,0.4-0.1,0.8-0.2,1.1c-0.1,0.3-0.3,0.6-0.5,0.8c-0.2,0.2-0.4,0.4-0.7,0.6c-0.3,0.2-0.6,0.3-0.9,0.4c0.8,0.2,1.5,0.6,1.9,1.1
					c0.4,0.5,0.6,1.2,0.6,2c0,0.6-0.1,1.1-0.3,1.6c-0.2,0.5-0.5,0.9-0.9,1.2c-0.4,0.3-0.8,0.6-1.4,0.8c-0.5,0.2-1.1,0.3-1.7,0.3
					c-0.7,0-1.3-0.1-1.8-0.3s-0.9-0.4-1.2-0.7c-0.3-0.3-0.6-0.7-0.8-1.1c-0.2-0.4-0.4-0.9-0.5-1.3l0.7-0.3c0.1-0.1,0.3-0.1,0.4-0.1
					c0.1,0,0.2,0,0.3,0.1s0.2,0.1,0.2,0.2c0,0,0,0,0,0.1c0,0,0,0.1,0,0.1c0.1,0.2,0.2,0.4,0.3,0.6c0.1,0.2,0.3,0.4,0.5,0.6
					c0.2,0.2,0.5,0.4,0.8,0.5s0.7,0.2,1.1,0.2c0.4,0,0.8-0.1,1.2-0.2c0.3-0.1,0.6-0.3,0.8-0.6c0.2-0.2,0.4-0.5,0.5-0.8
					c0.1-0.3,0.2-0.6,0.2-0.9c0-0.3,0-0.7-0.1-1c-0.1-0.3-0.3-0.5-0.5-0.7c-0.2-0.2-0.6-0.4-1-0.5c-0.4-0.1-1-0.2-1.7-0.2v-1.2
					c0.5,0,1-0.1,1.4-0.2c0.4-0.1,0.7-0.3,1-0.5s0.4-0.4,0.5-0.7c0.1-0.3,0.2-0.6,0.2-0.9c0-0.4-0.1-0.7-0.2-1
					c-0.1-0.3-0.3-0.5-0.5-0.7s-0.4-0.3-0.7-0.4s-0.6-0.1-0.9-0.1s-0.6,0-0.9,0.1c-0.3,0.1-0.5,0.2-0.7,0.4s-0.4,0.4-0.5,0.6
					c-0.1,0.2-0.3,0.5-0.3,0.8c0,0.2-0.1,0.3-0.2,0.4c-0.1,0.1-0.2,0.1-0.4,0.1c0,0-0.1,0-0.1,0s-0.1,0-0.1,0l-0.8-0.1
					c0.1-0.6,0.2-1.1,0.5-1.6c0.2-0.5,0.5-0.8,0.9-1.1c0.4-0.3,0.8-0.5,1.3-0.7C561.2,410.6,561.7,410.6,562.2,410.6z"/>
				<path class="st10" d="M532,445.2v-13.1h4.8c0.9,0,1.7,0.1,2.3,0.3s1.2,0.4,1.6,0.7c0.4,0.3,0.7,0.7,0.9,1.1
					c0.2,0.4,0.3,0.9,0.3,1.5c0,0.3,0,0.6-0.1,0.9c-0.1,0.3-0.2,0.5-0.4,0.8c-0.2,0.2-0.4,0.5-0.7,0.7c-0.3,0.2-0.6,0.4-1,0.5
					c0.9,0.2,1.5,0.6,1.9,1c0.4,0.5,0.6,1.1,0.6,1.8c0,0.6-0.1,1.1-0.3,1.6c-0.2,0.5-0.5,0.9-0.9,1.3c-0.4,0.4-0.9,0.6-1.5,0.8
					s-1.3,0.3-2.1,0.3H532z M535.1,437.6h1.6c0.3,0,0.6,0,0.9-0.1c0.3,0,0.5-0.1,0.7-0.3c0.2-0.1,0.3-0.3,0.4-0.5
					c0.1-0.2,0.1-0.5,0.1-0.8c0-0.3,0-0.6-0.1-0.8s-0.2-0.4-0.4-0.5s-0.4-0.2-0.6-0.3s-0.5-0.1-0.9-0.1h-1.8V437.6z M535.1,439.6
					v3.3h2.1c0.4,0,0.7-0.1,1-0.2c0.3-0.1,0.5-0.2,0.6-0.4c0.1-0.2,0.2-0.3,0.3-0.5c0.1-0.2,0.1-0.4,0.1-0.6c0-0.2,0-0.5-0.1-0.6
					c-0.1-0.2-0.2-0.4-0.3-0.5c-0.2-0.1-0.4-0.2-0.6-0.3s-0.6-0.1-1-0.1H535.1z"/>
				<path class="st10" d="M552.1,437.3c0.5,0,1,0.1,1.5,0.3c0.5,0.2,0.9,0.4,1.2,0.7c0.3,0.3,0.6,0.7,0.8,1.2c0.2,0.5,0.3,1,0.3,1.6
					c0,0.6-0.1,1.1-0.3,1.7c-0.2,0.5-0.5,1-0.9,1.3s-0.9,0.7-1.4,0.9c-0.5,0.2-1.1,0.3-1.8,0.3c-0.6,0-1.2-0.1-1.8-0.3
					c-0.5-0.2-1-0.5-1.3-0.9c-0.4-0.4-0.7-0.8-0.9-1.4s-0.3-1.2-0.3-1.8c0-0.6,0.1-1.2,0.4-1.8c0.3-0.6,0.7-1.3,1.2-2.1l3.3-4.4
					c0.1-0.1,0.2-0.2,0.4-0.3c0.1-0.1,0.3-0.1,0.5-0.1h1.4l-4.5,5.7c0.3-0.2,0.6-0.4,1-0.5S551.6,437.3,552.1,437.3z M548.7,441.2
					c0,0.4,0.1,0.8,0.2,1.1s0.3,0.6,0.5,0.9c0.2,0.2,0.5,0.4,0.8,0.6s0.7,0.2,1.1,0.2c0.4,0,0.8-0.1,1.2-0.2
					c0.3-0.1,0.6-0.3,0.9-0.6s0.4-0.5,0.6-0.9s0.2-0.7,0.2-1.1c0-0.4-0.1-0.8-0.2-1.1c-0.1-0.3-0.3-0.6-0.6-0.9s-0.5-0.4-0.9-0.5
					s-0.7-0.2-1.1-0.2c-0.4,0-0.8,0.1-1.2,0.2c-0.3,0.1-0.6,0.3-0.9,0.6s-0.4,0.5-0.6,0.9C548.8,440.5,548.7,440.9,548.7,441.2z"/>
				<path class="st10" d="M562.2,432.2c0.5,0,1,0.1,1.5,0.2c0.5,0.2,0.9,0.4,1.2,0.7s0.6,0.6,0.8,1c0.2,0.4,0.3,0.9,0.3,1.4
					c0,0.4-0.1,0.8-0.2,1.1c-0.1,0.3-0.3,0.6-0.5,0.8c-0.2,0.2-0.4,0.4-0.7,0.6c-0.3,0.2-0.6,0.3-0.9,0.4c0.8,0.2,1.5,0.6,1.9,1.1
					c0.4,0.5,0.6,1.2,0.6,2c0,0.6-0.1,1.1-0.3,1.6c-0.2,0.5-0.5,0.9-0.9,1.2c-0.4,0.3-0.8,0.6-1.4,0.8c-0.5,0.2-1.1,0.3-1.7,0.3
					c-0.7,0-1.3-0.1-1.8-0.3s-0.9-0.4-1.2-0.7c-0.3-0.3-0.6-0.7-0.8-1.1c-0.2-0.4-0.4-0.9-0.5-1.3l0.7-0.3c0.1-0.1,0.3-0.1,0.4-0.1
					c0.1,0,0.2,0,0.3,0.1s0.2,0.1,0.2,0.2c0,0,0,0,0,0.1c0,0,0,0.1,0,0.1c0.1,0.2,0.2,0.4,0.3,0.6c0.1,0.2,0.3,0.4,0.5,0.6
					c0.2,0.2,0.5,0.4,0.8,0.5s0.7,0.2,1.1,0.2c0.4,0,0.8-0.1,1.2-0.2c0.3-0.1,0.6-0.3,0.8-0.6c0.2-0.2,0.4-0.5,0.5-0.8
					c0.1-0.3,0.2-0.6,0.2-0.9c0-0.3,0-0.7-0.1-1c-0.1-0.3-0.3-0.5-0.5-0.7c-0.2-0.2-0.6-0.4-1-0.5c-0.4-0.1-1-0.2-1.7-0.2V438
					c0.5,0,1-0.1,1.4-0.2c0.4-0.1,0.7-0.3,1-0.5s0.4-0.4,0.5-0.7c0.1-0.3,0.2-0.6,0.2-0.9c0-0.4-0.1-0.7-0.2-1
					c-0.1-0.3-0.3-0.5-0.5-0.7s-0.4-0.3-0.7-0.4s-0.6-0.1-0.9-0.1s-0.6,0-0.9,0.1c-0.3,0.1-0.5,0.2-0.7,0.4s-0.4,0.4-0.5,0.6
					c-0.1,0.2-0.3,0.5-0.3,0.8c0,0.2-0.1,0.3-0.2,0.4c-0.1,0.1-0.2,0.1-0.4,0.1c0,0-0.1,0-0.1,0s-0.1,0-0.1,0l-0.8-0.1
					c0.1-0.6,0.2-1.1,0.5-1.6c0.2-0.5,0.5-0.8,0.9-1.1c0.4-0.3,0.8-0.5,1.3-0.7C561.2,432.2,561.7,432.2,562.2,432.2z"/>
			</g>
		</g>
		<g>
			<g>
				<path d="M419.8,558.1l2.9,0.6v0.5c0,0.1,0,0.2-0.1,0.3c-0.1,0.1-0.2,0.1-0.3,0.1c0,0,0,0-0.1,0c0,0,0,0-0.1,0l-2.3-0.5v1.7
					l2.4,0.5c0.2,0,0.3,0.1,0.4,0.2c0.1,0.1,0.1,0.2,0.1,0.3v0.5l-2.9-0.6v1c0,0.1,0,0.2-0.1,0.2s-0.1,0.1-0.3,0.1c0,0,0,0-0.1,0
					c0,0-0.1,0-0.1,0l-0.4-0.1v-1.4l-2.2-0.4v1.6l-0.5-0.1c-0.1,0-0.2-0.1-0.3-0.2c-0.1-0.1-0.1-0.2-0.1-0.4v-1.1l-2.4-0.5
					c-0.1,0-0.2-0.1-0.3-0.2c-0.1-0.1-0.1-0.2-0.1-0.3v-0.5l2.9,0.6v-1.7l-2.9-0.6v-0.5c0-0.1,0-0.2,0.1-0.3
					c0.1-0.1,0.2-0.1,0.3-0.1c0,0,0.1,0,0.1,0l2.4,0.5V556l0.5,0.1c0.1,0,0.2,0.1,0.3,0.2c0.1,0.1,0.1,0.2,0.1,0.4v0.9l2.2,0.4v-1.2
					c0-0.1,0-0.2,0.1-0.3s0.1-0.1,0.3-0.1c0,0,0,0,0.1,0c0,0,0.1,0,0.1,0l0.4,0.1V558.1z M418.9,560.7V559l-2.2-0.4v1.7L418.9,560.7
					z"/>
				<path d="M422.7,546.5v1c0,0.1,0,0.2-0.1,0.3s-0.1,0.1-0.2,0.2l-2.3,0.9v4.4l2.3,0.9c0.1,0,0.2,0.1,0.2,0.2
					c0.1,0.1,0.1,0.2,0.1,0.3v1l-9.7-3.9v-1.3L422.7,546.5z M419.1,552.8v-3.6l-3.9,1.5c-0.2,0.1-0.5,0.2-0.9,0.3
					c0.2,0,0.4,0.1,0.5,0.1c0.2,0,0.3,0.1,0.4,0.1L419.1,552.8z"/>
				<path d="M412.9,542.3c0-0.4,0.1-0.8,0.2-1.2s0.3-0.7,0.5-0.9c0.2-0.3,0.5-0.5,0.8-0.6c0.3-0.1,0.7-0.2,1.1-0.2
					c0.4,0,0.7,0.1,1,0.2s0.6,0.3,0.9,0.4c0.3,0.2,0.6,0.4,0.8,0.6c0.3,0.2,0.5,0.5,0.8,0.8l2.6,2.6c0-0.2-0.1-0.4-0.1-0.5
					c0-0.2,0-0.4,0-0.5v-3.2c0-0.1,0-0.2,0.1-0.3c0.1-0.1,0.2-0.1,0.3-0.1h0.7v6.5h-0.4c-0.1,0-0.2,0-0.3-0.1
					c-0.1,0-0.2-0.1-0.2-0.2l-3.1-3.1c-0.3-0.3-0.5-0.5-0.8-0.7s-0.5-0.4-0.7-0.5c-0.2-0.2-0.5-0.3-0.7-0.3s-0.5-0.1-0.8-0.1
					s-0.5,0-0.7,0.1c-0.2,0.1-0.4,0.2-0.5,0.4s-0.2,0.3-0.3,0.6c-0.1,0.2-0.1,0.4-0.1,0.7c0,0.2,0,0.5,0.1,0.7
					c0.1,0.2,0.2,0.4,0.3,0.6c0.1,0.2,0.3,0.3,0.5,0.4s0.4,0.2,0.6,0.2c0.1,0,0.2,0.1,0.3,0.2s0.1,0.2,0.1,0.3c0,0,0,0,0,0.1
					c0,0,0,0.1,0,0.1l-0.1,0.6c-0.4-0.1-0.8-0.2-1.2-0.4c-0.3-0.2-0.6-0.4-0.9-0.7c-0.2-0.3-0.4-0.6-0.5-1
					C412.9,543.1,412.9,542.8,412.9,542.3z"/>
				<path d="M412.9,534.5c0-0.4,0.1-0.8,0.2-1.2s0.3-0.7,0.5-0.9c0.2-0.3,0.5-0.5,0.8-0.6c0.3-0.1,0.7-0.2,1.1-0.2
					c0.4,0,0.7,0.1,1,0.2s0.6,0.3,0.9,0.4c0.3,0.2,0.6,0.4,0.8,0.6c0.3,0.2,0.5,0.5,0.8,0.8l2.6,2.6c0-0.2-0.1-0.4-0.1-0.5
					c0-0.2,0-0.4,0-0.5v-3.2c0-0.1,0-0.2,0.1-0.3c0.1-0.1,0.2-0.1,0.3-0.1h0.7v6.5h-0.4c-0.1,0-0.2,0-0.3-0.1
					c-0.1,0-0.2-0.1-0.2-0.2l-3.1-3.1c-0.3-0.3-0.5-0.5-0.8-0.7s-0.5-0.4-0.7-0.5c-0.2-0.2-0.5-0.3-0.7-0.3s-0.5-0.1-0.8-0.1
					s-0.5,0-0.7,0.1c-0.2,0.1-0.4,0.2-0.5,0.4s-0.2,0.3-0.3,0.6c-0.1,0.2-0.1,0.4-0.1,0.7c0,0.2,0,0.5,0.1,0.7
					c0.1,0.2,0.2,0.4,0.3,0.6c0.1,0.2,0.3,0.3,0.5,0.4s0.4,0.2,0.6,0.2c0.1,0,0.2,0.1,0.3,0.2s0.1,0.2,0.1,0.3c0,0,0,0,0,0.1
					c0,0,0,0.1,0,0.1l-0.1,0.6c-0.4-0.1-0.8-0.2-1.2-0.4c-0.3-0.2-0.6-0.4-0.9-0.7c-0.2-0.3-0.4-0.6-0.5-1
					C412.9,535.3,412.9,534.9,412.9,534.5z"/>
				<path d="M419.2,524.6v-1.5h0.7c0.1,0,0.1,0,0.2,0.1s0.1,0.1,0.1,0.2v1.2h2.6v1.1h-2.6v4.3c0,0.1,0,0.2-0.1,0.2
					c-0.1,0.1-0.1,0.1-0.2,0.1l-0.6,0.1l-6.3-4.7v-1.1H419.2z M415.2,525.7c-0.1,0-0.2,0-0.4,0c-0.1,0-0.3,0-0.4,0l4.8,3.5v-3.5
					H415.2z"/>
				<path d="M417.8,515.4c0.8,0,1.6,0.1,2.2,0.3c0.6,0.2,1.1,0.4,1.5,0.7c0.4,0.3,0.7,0.7,0.9,1.1s0.3,0.9,0.3,1.4
					c0,0.5-0.1,1-0.3,1.4c-0.2,0.4-0.5,0.8-0.9,1.1c-0.4,0.3-0.9,0.6-1.5,0.7c-0.6,0.2-1.4,0.3-2.2,0.3s-1.6-0.1-2.2-0.3
					c-0.6-0.2-1.1-0.4-1.5-0.7c-0.4-0.3-0.7-0.7-0.9-1.1c-0.2-0.4-0.3-0.9-0.3-1.4c0-0.5,0.1-1,0.3-1.4s0.5-0.8,0.9-1.1
					c0.4-0.3,0.9-0.6,1.5-0.7C416.2,515.5,417,515.4,417.8,515.4z M417.8,516.7c-0.7,0-1.4,0.1-1.9,0.2c-0.5,0.1-0.9,0.3-1.2,0.5
					c-0.3,0.2-0.5,0.5-0.7,0.7s-0.2,0.6-0.2,0.9s0.1,0.6,0.2,0.9c0.1,0.3,0.4,0.5,0.7,0.7c0.3,0.2,0.7,0.4,1.2,0.5
					c0.5,0.1,1.1,0.2,1.9,0.2s1.4-0.1,1.9-0.2c0.5-0.1,0.9-0.3,1.2-0.5c0.3-0.2,0.5-0.4,0.7-0.7c0.1-0.3,0.2-0.6,0.2-0.9
					s-0.1-0.6-0.2-0.9s-0.4-0.5-0.7-0.7s-0.7-0.4-1.2-0.5S418.6,516.7,417.8,516.7z"/>
				<path d="M418.7,511.3c0,0.4-0.1,0.7-0.2,1s-0.3,0.6-0.5,0.9c-0.2,0.2-0.5,0.4-0.9,0.6c-0.3,0.1-0.7,0.2-1.2,0.2
					c-0.4,0-0.8-0.1-1.2-0.2s-0.7-0.4-1-0.7c-0.3-0.3-0.5-0.6-0.7-1c-0.2-0.4-0.2-0.8-0.2-1.3c0-0.5,0.1-0.9,0.2-1.3
					c0.2-0.4,0.4-0.7,0.6-1c0.3-0.3,0.6-0.5,1-0.6c0.4-0.1,0.8-0.2,1.3-0.2c0.3,0,0.5,0,0.8,0.1s0.5,0.1,0.7,0.2s0.5,0.2,0.7,0.4
					s0.5,0.3,0.7,0.5l3.4,2.4c0.1,0.1,0.2,0.1,0.2,0.3c0.1,0.1,0.1,0.2,0.1,0.4v1.1l-3.9-3c-0.1-0.1-0.3-0.2-0.4-0.3
					c-0.1-0.1-0.2-0.2-0.4-0.2c0.2,0.2,0.3,0.5,0.5,0.8C418.6,510.6,418.7,510.9,418.7,511.3z M415.9,508.9c-0.3,0-0.6,0-0.8,0.1
					c-0.2,0.1-0.5,0.2-0.6,0.4c-0.2,0.2-0.3,0.4-0.4,0.6c-0.1,0.2-0.1,0.5-0.1,0.8c0,0.3,0,0.6,0.1,0.8c0.1,0.2,0.2,0.5,0.4,0.6
					c0.2,0.2,0.4,0.3,0.6,0.4c0.2,0.1,0.5,0.1,0.8,0.1c0.3,0,0.6,0,0.8-0.1c0.2-0.1,0.4-0.2,0.6-0.4c0.2-0.2,0.3-0.4,0.4-0.6
					c0.1-0.2,0.1-0.5,0.1-0.8c0-0.3-0.1-0.6-0.2-0.9c-0.1-0.3-0.2-0.5-0.4-0.6c-0.2-0.2-0.4-0.3-0.6-0.4
					C416.4,508.9,416.1,508.9,415.9,508.9z"/>
			</g>
		</g>
		<g>
			<g>
				<path d="M465.2,560.5l2.9,0.6v0.5c0,0.1,0,0.2-0.1,0.3c-0.1,0.1-0.2,0.1-0.3,0.1c0,0,0,0-0.1,0c0,0,0,0-0.1,0l-2.3-0.5v1.7
					l2.4,0.5c0.2,0,0.3,0.1,0.4,0.2c0.1,0.1,0.1,0.2,0.1,0.3v0.5l-2.9-0.6v1c0,0.1,0,0.2-0.1,0.2s-0.1,0.1-0.3,0.1c0,0,0,0-0.1,0
					c0,0-0.1,0-0.1,0l-0.4-0.1v-1.4l-2.2-0.4v1.6l-0.5-0.1c-0.1,0-0.2-0.1-0.3-0.2c-0.1-0.1-0.1-0.2-0.1-0.4v-1.1l-2.4-0.5
					c-0.1,0-0.2-0.1-0.3-0.2c-0.1-0.1-0.1-0.2-0.1-0.3v-0.5l2.9,0.6v-1.7l-2.9-0.6v-0.5c0-0.1,0-0.2,0.1-0.3
					c0.1-0.1,0.2-0.1,0.3-0.1c0,0,0.1,0,0.1,0l2.4,0.5v-1.4l0.5,0.1c0.1,0,0.2,0.1,0.3,0.2c0.1,0.1,0.1,0.2,0.1,0.4v0.9l2.2,0.4
					v-1.2c0-0.1,0-0.2,0.1-0.3s0.1-0.1,0.3-0.1c0,0,0,0,0.1,0c0,0,0.1,0,0.1,0l0.4,0.1V560.5z M464.3,563.1v-1.7l-2.2-0.4v1.7
					L464.3,563.1z"/>
				<path d="M466,550c0-0.1,0-0.1,0.1-0.2l0.6-0.5c0.5,0.4,0.8,0.9,1.1,1.4c0.3,0.6,0.4,1.2,0.4,2c0,0.7-0.1,1.3-0.4,1.9
					s-0.6,1.1-1,1.5c-0.4,0.4-1,0.7-1.6,0.9c-0.6,0.2-1.3,0.3-2,0.3c-0.7,0-1.4-0.1-2-0.4c-0.6-0.2-1.1-0.6-1.6-1s-0.8-0.9-1-1.5
					c-0.2-0.6-0.4-1.3-0.4-2c0-0.7,0.1-1.3,0.3-1.8c0.2-0.5,0.5-1,0.9-1.4l0.6,0.4c0,0,0.1,0.1,0.1,0.1s0,0.1,0,0.2
					c0,0.1,0,0.1-0.1,0.2s-0.1,0.1-0.2,0.2c-0.1,0.1-0.1,0.2-0.2,0.3c-0.1,0.1-0.1,0.3-0.2,0.4s-0.1,0.4-0.2,0.6
					c0,0.2-0.1,0.5-0.1,0.8c0,0.5,0.1,1,0.3,1.4c0.2,0.4,0.4,0.8,0.8,1.1c0.3,0.3,0.7,0.6,1.2,0.7s1,0.3,1.6,0.3
					c0.6,0,1.1-0.1,1.6-0.3s0.9-0.4,1.2-0.7c0.3-0.3,0.6-0.7,0.7-1.1c0.2-0.4,0.3-0.9,0.3-1.3c0-0.3,0-0.5-0.1-0.8
					c0-0.2-0.1-0.4-0.2-0.6s-0.2-0.4-0.3-0.5c-0.1-0.2-0.2-0.3-0.4-0.5C466.1,550.2,466,550.1,466,550z"/>
				<path d="M463.2,539.2c0.7,0,1.4,0.1,2,0.3c0.6,0.2,1.1,0.6,1.5,1c0.4,0.4,0.8,0.9,1,1.5c0.2,0.6,0.3,1.2,0.3,1.9v3.6h-9.7v-3.6
					c0-0.7,0.1-1.4,0.3-1.9c0.2-0.6,0.6-1.1,1-1.5c0.4-0.4,0.9-0.7,1.5-1S462.5,539.2,463.2,539.2z M463.2,540.5
					c-0.6,0-1.1,0.1-1.6,0.2c-0.5,0.2-0.9,0.4-1.2,0.7c-0.3,0.3-0.6,0.7-0.7,1.1c-0.2,0.4-0.3,0.9-0.3,1.4v2.3h7.6v-2.3
					c0-0.5-0.1-1-0.3-1.4c-0.2-0.4-0.4-0.8-0.7-1.1c-0.3-0.3-0.7-0.5-1.2-0.7C464.3,540.6,463.8,540.5,463.2,540.5z"/>
				<path d="M458.2,534.4c0-0.4,0.1-0.8,0.2-1.1s0.3-0.6,0.5-0.9c0.2-0.3,0.5-0.4,0.8-0.6s0.6-0.2,1-0.2c0.3,0,0.6,0,0.8,0.1
					c0.2,0.1,0.5,0.2,0.6,0.3s0.3,0.3,0.5,0.5c0.1,0.2,0.2,0.4,0.3,0.7c0.2-0.6,0.4-1.1,0.8-1.4s0.9-0.5,1.5-0.5
					c0.4,0,0.8,0.1,1.2,0.3c0.4,0.2,0.7,0.4,0.9,0.7c0.3,0.3,0.4,0.6,0.6,1c0.1,0.4,0.2,0.8,0.2,1.3c0,0.5-0.1,1-0.2,1.3
					c-0.1,0.4-0.3,0.7-0.5,0.9s-0.5,0.5-0.8,0.6c-0.3,0.2-0.6,0.3-1,0.4l-0.2-0.5c0-0.1-0.1-0.2-0.1-0.3c0-0.1,0-0.2,0.1-0.2
					c0-0.1,0.1-0.1,0.2-0.2c0,0,0,0,0.1,0s0,0,0.1,0c0.1-0.1,0.3-0.1,0.4-0.2c0.2-0.1,0.3-0.2,0.5-0.4s0.3-0.3,0.4-0.6
					s0.1-0.5,0.1-0.8c0-0.3-0.1-0.6-0.2-0.9s-0.3-0.5-0.4-0.6c-0.2-0.2-0.4-0.3-0.6-0.4c-0.2-0.1-0.4-0.1-0.6-0.1
					c-0.3,0-0.5,0-0.7,0.1c-0.2,0.1-0.4,0.2-0.6,0.4c-0.2,0.2-0.3,0.4-0.4,0.8c-0.1,0.3-0.1,0.7-0.1,1.2h-0.9c0-0.4,0-0.8-0.1-1.1
					s-0.2-0.5-0.4-0.7c-0.1-0.2-0.3-0.3-0.5-0.4c-0.2-0.1-0.4-0.1-0.7-0.1c-0.3,0-0.5,0-0.7,0.1c-0.2,0.1-0.4,0.2-0.5,0.4
					s-0.2,0.3-0.3,0.5s-0.1,0.4-0.1,0.7c0,0.2,0,0.5,0.1,0.7c0.1,0.2,0.2,0.4,0.3,0.6c0.1,0.2,0.3,0.3,0.5,0.4s0.4,0.2,0.6,0.2
					c0.1,0,0.2,0.1,0.3,0.2c0.1,0.1,0.1,0.2,0.1,0.3c0,0,0,0,0,0.1c0,0,0,0.1,0,0.1l-0.1,0.6c-0.4-0.1-0.8-0.2-1.2-0.4
					c-0.3-0.2-0.6-0.4-0.9-0.7c-0.2-0.3-0.4-0.6-0.5-1C458.3,535.2,458.2,534.8,458.2,534.4z"/>
				<path d="M468.1,526.8c0,0.5-0.1,0.9-0.2,1.3c-0.1,0.4-0.3,0.7-0.6,1c-0.2,0.3-0.5,0.5-0.9,0.7s-0.7,0.2-1.1,0.2
					c-0.6,0-1.1-0.2-1.5-0.5c-0.4-0.3-0.7-0.8-0.9-1.4c-0.2,0.5-0.5,0.9-0.8,1.2c-0.4,0.3-0.8,0.4-1.3,0.4c-0.4,0-0.7-0.1-1-0.2
					c-0.3-0.1-0.6-0.3-0.8-0.6c-0.2-0.3-0.4-0.6-0.5-0.9c-0.1-0.4-0.2-0.8-0.2-1.2c0-0.4,0.1-0.8,0.2-1.2c0.1-0.4,0.3-0.7,0.5-0.9
					c0.2-0.3,0.5-0.5,0.8-0.6c0.3-0.1,0.6-0.2,1-0.2c0.5,0,1,0.1,1.3,0.4c0.4,0.3,0.7,0.6,0.8,1.2c0.2-0.6,0.5-1.1,0.9-1.4
					c0.4-0.3,0.9-0.5,1.5-0.5c0.4,0,0.8,0.1,1.1,0.2s0.6,0.4,0.9,0.7c0.2,0.3,0.4,0.6,0.6,1C468.1,525.9,468.1,526.3,468.1,526.8z
					 M462.5,526.8c0-0.3,0-0.6-0.1-0.8c-0.1-0.2-0.2-0.4-0.4-0.5s-0.3-0.2-0.6-0.3c-0.2-0.1-0.4-0.1-0.6-0.1c-0.2,0-0.4,0-0.6,0.1
					c-0.2,0.1-0.4,0.2-0.5,0.3c-0.1,0.1-0.3,0.3-0.4,0.5s-0.1,0.5-0.1,0.8c0,0.3,0,0.5,0.1,0.8s0.2,0.4,0.4,0.5
					c0.1,0.1,0.3,0.3,0.5,0.3s0.4,0.1,0.6,0.1c0.2,0,0.4,0,0.6-0.1c0.2-0.1,0.4-0.2,0.6-0.3c0.2-0.1,0.3-0.3,0.4-0.5
					C462.5,527.4,462.5,527.1,462.5,526.8z M467.2,526.8c0-0.3,0-0.6-0.1-0.8c-0.1-0.3-0.2-0.5-0.4-0.6c-0.2-0.2-0.4-0.3-0.6-0.4
					c-0.2-0.1-0.5-0.1-0.7-0.1c-0.3,0-0.6,0.1-0.9,0.2c-0.2,0.1-0.4,0.3-0.6,0.4c-0.1,0.2-0.3,0.4-0.3,0.6c-0.1,0.2-0.1,0.5-0.1,0.8
					c0,0.3,0,0.5,0.1,0.8c0.1,0.2,0.2,0.5,0.3,0.6c0.1,0.2,0.3,0.3,0.6,0.4c0.2,0.1,0.5,0.2,0.9,0.2c0.3,0,0.5,0,0.7-0.1
					c0.2-0.1,0.4-0.2,0.6-0.4c0.2-0.2,0.3-0.4,0.4-0.6S467.2,527.1,467.2,526.8z"/>
				<path d="M467.1,520.9v-2.1h-6.6c-0.2,0-0.4,0-0.6,0l1.5,1.7c0,0,0.1,0.1,0.1,0.1c0,0,0,0.1,0,0.1c0,0.1,0,0.1,0,0.2
					c0,0.1-0.1,0.1-0.1,0.1l-0.5,0.4l-2.5-2.9v-1h8.8v-1.9h0.9v5.2H467.1z"/>
				<path d="M464.1,511.3c0,0.4-0.1,0.7-0.2,1s-0.3,0.6-0.5,0.9c-0.2,0.2-0.5,0.4-0.9,0.6c-0.3,0.1-0.7,0.2-1.2,0.2
					c-0.4,0-0.8-0.1-1.2-0.2s-0.7-0.4-1-0.7c-0.3-0.3-0.5-0.6-0.7-1c-0.2-0.4-0.2-0.8-0.2-1.3c0-0.5,0.1-0.9,0.2-1.3
					c0.2-0.4,0.4-0.7,0.6-1c0.3-0.3,0.6-0.5,1-0.6c0.4-0.1,0.8-0.2,1.3-0.2c0.3,0,0.5,0,0.8,0.1s0.5,0.1,0.7,0.2s0.5,0.2,0.7,0.4
					s0.5,0.3,0.7,0.5l3.4,2.4c0.1,0.1,0.2,0.1,0.2,0.3c0.1,0.1,0.1,0.2,0.1,0.4v1.1l-3.9-3c-0.1-0.1-0.3-0.2-0.4-0.3
					c-0.1-0.1-0.2-0.2-0.4-0.2c0.2,0.2,0.3,0.5,0.5,0.8C464,510.6,464.1,510.9,464.1,511.3z M461.2,508.9c-0.3,0-0.6,0-0.8,0.1
					c-0.2,0.1-0.5,0.2-0.6,0.4c-0.2,0.2-0.3,0.4-0.4,0.6c-0.1,0.2-0.1,0.5-0.1,0.8c0,0.3,0,0.6,0.1,0.8c0.1,0.2,0.2,0.5,0.4,0.6
					c0.2,0.2,0.4,0.3,0.6,0.4c0.2,0.1,0.5,0.1,0.8,0.1c0.3,0,0.6,0,0.8-0.1c0.2-0.1,0.4-0.2,0.6-0.4c0.2-0.2,0.3-0.4,0.4-0.6
					c0.1-0.2,0.1-0.5,0.1-0.8c0-0.3-0.1-0.6-0.2-0.9c-0.1-0.3-0.2-0.5-0.4-0.6c-0.2-0.2-0.4-0.3-0.6-0.4
					C461.7,508.9,461.5,508.9,461.2,508.9z"/>
			</g>
		</g>
		<g>
			<g>
				<path d="M510.2,556.4l2.9,0.6v0.5c0,0.1,0,0.2-0.1,0.3c-0.1,0.1-0.2,0.1-0.3,0.1c0,0,0,0-0.1,0c0,0,0,0-0.1,0l-2.3-0.5v1.7
					l2.4,0.5c0.2,0,0.3,0.1,0.4,0.2c0.1,0.1,0.1,0.2,0.1,0.3v0.5l-2.9-0.6v1c0,0.1,0,0.2-0.1,0.2s-0.1,0.1-0.3,0.1c0,0,0,0-0.1,0
					c0,0-0.1,0-0.1,0l-0.4-0.1v-1.4l-2.2-0.4v1.6l-0.5-0.1c-0.1,0-0.2-0.1-0.3-0.2c-0.1-0.1-0.1-0.2-0.1-0.4v-1.1l-2.4-0.5
					c-0.1,0-0.2-0.1-0.3-0.2c-0.1-0.1-0.1-0.2-0.1-0.3v-0.5l2.9,0.6v-1.7l-2.9-0.6v-0.5c0-0.1,0-0.2,0.1-0.3
					c0.1-0.1,0.2-0.1,0.3-0.1c0,0,0.1,0,0.1,0l2.4,0.5v-1.4l0.5,0.1c0.1,0,0.2,0.1,0.3,0.2c0.1,0.1,0.1,0.2,0.1,0.4v0.9l2.2,0.4V555
					c0-0.1,0-0.2,0.1-0.3s0.1-0.1,0.3-0.1c0,0,0,0,0.1,0c0,0,0.1,0,0.1,0l0.4,0.1V556.4z M509.3,558.9v-1.7l-2.2-0.4v1.7
					L509.3,558.9z"/>
				<path d="M503.4,546.7h1.1v4.7h3.4v-4h1.1v4h4.2v1.3h-9.7V546.7z"/>
				<path d="M503.4,539.1h1.1v4.7h3.4v-4h1.1v4h4.2v1.3h-9.7V539.1z"/>
				<path d="M513.2,534.6c0,0.5-0.1,0.9-0.2,1.3c-0.1,0.4-0.3,0.7-0.6,1c-0.2,0.3-0.5,0.5-0.9,0.7s-0.7,0.2-1.1,0.2
					c-0.6,0-1.1-0.2-1.5-0.5c-0.4-0.3-0.7-0.8-0.9-1.4c-0.2,0.5-0.5,0.9-0.8,1.2c-0.4,0.3-0.8,0.4-1.3,0.4c-0.4,0-0.7-0.1-1-0.2
					c-0.3-0.1-0.6-0.3-0.8-0.6c-0.2-0.3-0.4-0.6-0.5-0.9c-0.1-0.4-0.2-0.8-0.2-1.2c0-0.4,0.1-0.8,0.2-1.2c0.1-0.4,0.3-0.7,0.5-0.9
					c0.2-0.3,0.5-0.5,0.8-0.6c0.3-0.1,0.6-0.2,1-0.2c0.5,0,1,0.1,1.3,0.4c0.4,0.3,0.7,0.6,0.8,1.2c0.2-0.6,0.5-1.1,0.9-1.4
					c0.4-0.3,0.9-0.5,1.5-0.5c0.4,0,0.8,0.1,1.1,0.2s0.6,0.4,0.9,0.7c0.2,0.3,0.4,0.6,0.6,1C513.1,533.7,513.2,534.2,513.2,534.6z
					 M507.6,534.6c0-0.3,0-0.6-0.1-0.8c-0.1-0.2-0.2-0.4-0.4-0.5s-0.3-0.2-0.6-0.3c-0.2-0.1-0.4-0.1-0.6-0.1c-0.2,0-0.4,0-0.6,0.1
					c-0.2,0.1-0.4,0.2-0.5,0.3c-0.1,0.1-0.3,0.3-0.4,0.5s-0.1,0.5-0.1,0.8c0,0.3,0,0.5,0.1,0.8s0.2,0.4,0.4,0.5
					c0.1,0.1,0.3,0.3,0.5,0.3s0.4,0.1,0.6,0.1c0.2,0,0.4,0,0.6-0.1c0.2-0.1,0.4-0.2,0.6-0.3c0.2-0.1,0.3-0.3,0.4-0.5
					C507.5,535.2,507.6,535,507.6,534.6z M512.2,534.6c0-0.3,0-0.6-0.1-0.8c-0.1-0.3-0.2-0.5-0.4-0.6c-0.2-0.2-0.4-0.3-0.6-0.4
					c-0.2-0.1-0.5-0.1-0.7-0.1c-0.3,0-0.6,0.1-0.9,0.2c-0.2,0.1-0.4,0.3-0.6,0.4c-0.1,0.2-0.3,0.4-0.3,0.6c-0.1,0.2-0.1,0.5-0.1,0.8
					c0,0.3,0,0.5,0.1,0.8c0.1,0.2,0.2,0.5,0.3,0.6c0.1,0.2,0.3,0.3,0.6,0.4c0.2,0.1,0.5,0.2,0.9,0.2c0.3,0,0.5,0,0.7-0.1
					c0.2-0.1,0.4-0.2,0.6-0.4c0.2-0.2,0.3-0.4,0.4-0.6S512.2,535,512.2,534.6z"/>
				<path d="M512.2,528.8v-2.1h-6.6c-0.2,0-0.4,0-0.6,0l1.5,1.7c0,0,0.1,0.1,0.1,0.1c0,0,0,0.1,0,0.1c0,0.1,0,0.1,0,0.2
					c0,0.1-0.1,0.1-0.1,0.1l-0.5,0.4l-2.5-2.9v-1h8.8v-1.9h0.9v5.2H512.2z"/>
				<path d="M507.1,518.5c0-0.4,0.1-0.8,0.2-1.1c0.1-0.3,0.3-0.7,0.6-0.9s0.5-0.5,0.9-0.6c0.4-0.2,0.8-0.2,1.2-0.2
					c0.4,0,0.9,0.1,1.2,0.2c0.4,0.2,0.7,0.4,1,0.7s0.5,0.6,0.7,1.1c0.2,0.4,0.2,0.9,0.2,1.4c0,0.5-0.1,0.9-0.2,1.3
					c-0.2,0.4-0.4,0.7-0.7,1c-0.3,0.3-0.6,0.5-1,0.6c-0.4,0.2-0.9,0.2-1.4,0.2c-0.4,0-0.9-0.1-1.4-0.3s-1-0.5-1.5-0.9l-3.3-2.5
					c-0.1-0.1-0.2-0.2-0.2-0.3c-0.1-0.1-0.1-0.2-0.1-0.4v-1.1l4.3,3.4c-0.2-0.2-0.3-0.5-0.4-0.8
					C507.2,519.1,507.1,518.8,507.1,518.5z M510.1,521c0.3,0,0.6,0,0.9-0.1s0.5-0.2,0.7-0.4c0.2-0.2,0.3-0.4,0.4-0.6
					s0.2-0.5,0.2-0.9c0-0.3-0.1-0.6-0.2-0.9s-0.2-0.5-0.4-0.7c-0.2-0.2-0.4-0.3-0.7-0.4s-0.5-0.2-0.8-0.2c-0.3,0-0.6,0-0.9,0.1
					c-0.3,0.1-0.5,0.2-0.7,0.4c-0.2,0.2-0.3,0.4-0.4,0.7s-0.1,0.5-0.1,0.8c0,0.3,0.1,0.6,0.2,0.9c0.1,0.3,0.3,0.5,0.4,0.7
					s0.4,0.3,0.6,0.4C509.6,520.9,509.8,521,510.1,521z"/>
				<path d="M503.4,507.7h0.5c0.2,0,0.3,0,0.4,0.1c0.1,0,0.2,0.1,0.3,0.1l8.1,4c0.1,0.1,0.2,0.1,0.3,0.2c0.1,0.1,0.1,0.2,0.1,0.4
					v0.9l-8-4.1c-0.1-0.1-0.2-0.1-0.3-0.2c-0.1-0.1-0.2-0.1-0.3-0.2v5.1c0,0.1,0,0.1-0.1,0.2c-0.1,0.1-0.1,0.1-0.2,0.1h-0.8V507.7z"
					/>
			</g>
		</g>
		<g>
			<g>
				<path d="M555.9,556.8l2.9,0.6v0.5c0,0.1,0,0.2-0.1,0.3c-0.1,0.1-0.2,0.1-0.3,0.1c0,0,0,0-0.1,0c0,0,0,0-0.1,0l-2.3-0.5v1.7
					l2.4,0.5c0.2,0,0.3,0.1,0.4,0.2c0.1,0.1,0.1,0.2,0.1,0.3v0.5l-2.9-0.6v1c0,0.1,0,0.2-0.1,0.2s-0.1,0.1-0.3,0.1c0,0,0,0-0.1,0
					c0,0-0.1,0-0.1,0l-0.4-0.1v-1.4l-2.2-0.4v1.6l-0.5-0.1c-0.1,0-0.2-0.1-0.3-0.2c-0.1-0.1-0.1-0.2-0.1-0.4v-1.1l-2.4-0.5
					c-0.1,0-0.2-0.1-0.3-0.2c-0.1-0.1-0.1-0.2-0.1-0.3v-0.5l2.9,0.6v-1.7l-2.9-0.6V556c0-0.1,0-0.2,0.1-0.3c0.1-0.1,0.2-0.1,0.3-0.1
					c0,0,0.1,0,0.1,0l2.4,0.5v-1.4l0.5,0.1c0.1,0,0.2,0.1,0.3,0.2c0.1,0.1,0.1,0.2,0.1,0.4v0.9l2.2,0.4v-1.2c0-0.1,0-0.2,0.1-0.3
					s0.1-0.1,0.3-0.1c0,0,0,0,0.1,0c0,0,0.1,0,0.1,0l0.4,0.1V556.8z M555,559.4v-1.7l-2.2-0.4v1.7L555,559.4z"/>
				<path d="M549,547.2h1.1v4.7h3.4v-4h1.1v4h4.2v1.3H549V547.2z"/>
				<path d="M549,539.5h1.1v4.7h3.4v-4h1.1v4h4.2v1.3H549V539.5z"/>
				<path d="M558.7,530.8v1c0,0.1,0,0.2-0.1,0.3s-0.1,0.1-0.2,0.2l-2.3,0.9v4.4l2.3,0.9c0.1,0,0.2,0.1,0.2,0.2
					c0.1,0.1,0.1,0.2,0.1,0.3v1L549,536v-1.3L558.7,530.8z M555.1,537.1v-3.6l-3.9,1.5c-0.2,0.1-0.5,0.2-0.9,0.3
					c0.2,0,0.4,0.1,0.5,0.1c0.2,0,0.3,0.1,0.4,0.1L555.1,537.1z"/>
				<path d="M555.2,524.6v-1.5h0.7c0.1,0,0.1,0,0.2,0.1s0.1,0.1,0.1,0.2v1.2h2.6v1.1h-2.6v4.3c0,0.1,0,0.2-0.1,0.2
					c-0.1,0.1-0.1,0.1-0.2,0.1l-0.6,0.1l-6.3-4.7v-1.1H555.2z M551.2,525.7c-0.1,0-0.2,0-0.4,0c-0.1,0-0.3,0-0.4,0l4.8,3.5v-3.5
					H551.2z"/>
				<path d="M554.8,519.1c0,0.4-0.1,0.7-0.2,1s-0.3,0.6-0.5,0.9c-0.2,0.2-0.5,0.4-0.9,0.6c-0.3,0.1-0.7,0.2-1.2,0.2
					c-0.4,0-0.8-0.1-1.2-0.2s-0.7-0.4-1-0.7c-0.3-0.3-0.5-0.6-0.7-1c-0.2-0.4-0.2-0.8-0.2-1.3c0-0.5,0.1-0.9,0.2-1.3
					c0.2-0.4,0.4-0.7,0.6-1c0.3-0.3,0.6-0.5,1-0.6c0.4-0.1,0.8-0.2,1.3-0.2c0.3,0,0.5,0,0.8,0.1s0.5,0.1,0.7,0.2s0.5,0.2,0.7,0.4
					s0.5,0.3,0.7,0.5l3.4,2.4c0.1,0.1,0.2,0.1,0.2,0.3c0.1,0.1,0.1,0.2,0.1,0.4v1.1l-3.9-3c-0.1-0.1-0.3-0.2-0.4-0.3
					c-0.1-0.1-0.2-0.2-0.4-0.2c0.2,0.2,0.3,0.5,0.5,0.8C554.7,518.5,554.8,518.8,554.8,519.1z M551.9,516.7c-0.3,0-0.6,0-0.8,0.1
					c-0.2,0.1-0.5,0.2-0.6,0.4c-0.2,0.2-0.3,0.4-0.4,0.6c-0.1,0.2-0.1,0.5-0.1,0.8c0,0.3,0,0.6,0.1,0.8c0.1,0.2,0.2,0.5,0.4,0.6
					c0.2,0.2,0.4,0.3,0.6,0.4c0.2,0.1,0.5,0.1,0.8,0.1c0.3,0,0.6,0,0.8-0.1c0.2-0.1,0.4-0.2,0.6-0.4c0.2-0.2,0.3-0.4,0.4-0.6
					c0.1-0.2,0.1-0.5,0.1-0.8c0-0.3-0.1-0.6-0.2-0.9c-0.1-0.3-0.2-0.5-0.4-0.6c-0.2-0.2-0.4-0.3-0.6-0.4
					C552.4,516.8,552.2,516.7,551.9,516.7z"/>
				<path d="M557.8,513.1V511h-6.6c-0.2,0-0.4,0-0.6,0l1.5,1.7c0,0,0.1,0.1,0.1,0.1c0,0,0,0.1,0,0.1c0,0.1,0,0.1,0,0.2
					c0,0.1-0.1,0.1-0.1,0.1l-0.5,0.4l-2.5-2.9v-1h8.8v-1.9h0.9v5.2H557.8z"/>
			</g>
		</g>
		<g>
			<g>
				<path d="M845.9,556.6l2.9,0.6v0.5c0,0.1,0,0.2-0.1,0.3s-0.2,0.1-0.3,0.1c0,0,0,0-0.1,0c0,0,0,0-0.1,0l-2.3-0.5v1.7l2.4,0.5
					c0.2,0,0.3,0.1,0.4,0.2s0.1,0.2,0.1,0.3v0.5l-2.9-0.6v1c0,0.1,0,0.2-0.1,0.2c-0.1,0.1-0.1,0.1-0.3,0.1c0,0,0,0-0.1,0
					c0,0-0.1,0-0.1,0l-0.4-0.1v-1.4l-2.2-0.4v1.6l-0.5-0.1c-0.1,0-0.2-0.1-0.3-0.2c-0.1-0.1-0.1-0.2-0.1-0.4v-1.1l-2.4-0.5
					c-0.1,0-0.2-0.1-0.3-0.2s-0.1-0.2-0.1-0.3V558l2.9,0.6v-1.7l-2.9-0.6v-0.5c0-0.1,0-0.2,0.1-0.3c0.1-0.1,0.2-0.1,0.3-0.1
					c0,0,0.1,0,0.1,0l2.4,0.5v-1.4l0.5,0.1c0.1,0,0.2,0.1,0.3,0.2c0.1,0.1,0.1,0.2,0.1,0.4v0.9l2.2,0.4v-1.2c0-0.1,0-0.2,0.1-0.3
					c0.1-0.1,0.1-0.1,0.3-0.1c0,0,0,0,0.1,0c0,0,0.1,0,0.1,0l0.4,0.1V556.6z M845,559.1v-1.7l-2.2-0.4v1.7L845,559.1z"/>
				<path d="M839.6,547.4c0.2,0,0.3,0.1,0.4,0.2c0.1,0.1,0.2,0.3,0.2,0.5v3l2.5,0.4c-0.1-0.5-0.2-1-0.2-1.4c0-0.5,0.1-1,0.2-1.3
					c0.1-0.4,0.4-0.7,0.6-1s0.6-0.5,0.9-0.6c0.4-0.1,0.7-0.2,1.2-0.2c0.5,0,1,0.1,1.4,0.3c0.4,0.2,0.8,0.4,1.1,0.7
					c0.3,0.3,0.5,0.7,0.7,1.1c0.2,0.4,0.2,0.9,0.2,1.4c0,0.3,0,0.6-0.1,0.8s-0.1,0.5-0.2,0.7c-0.1,0.2-0.2,0.4-0.3,0.6
					c-0.1,0.2-0.2,0.4-0.4,0.5l-0.5-0.4c-0.1-0.1-0.2-0.2-0.2-0.3c0-0.1,0-0.2,0.1-0.3s0.1-0.3,0.2-0.4s0.2-0.4,0.2-0.6
					c0.1-0.2,0.1-0.5,0.1-0.8c0-0.3-0.1-0.6-0.2-0.9c-0.1-0.3-0.3-0.5-0.5-0.7c-0.2-0.2-0.4-0.3-0.7-0.4c-0.3-0.1-0.6-0.2-0.9-0.2
					c-0.3,0-0.6,0-0.8,0.1c-0.2,0.1-0.4,0.2-0.6,0.4c-0.2,0.2-0.3,0.4-0.4,0.7c-0.1,0.3-0.1,0.6-0.1,0.9c0,0.2,0,0.5,0.1,0.8
					c0,0.3,0.1,0.5,0.2,0.8l-0.2,0.8l-4.5-0.8v-4.6H839.6z"/>
				<path d="M844.8,542.5c0,0.4-0.1,0.7-0.2,1c-0.1,0.3-0.3,0.6-0.5,0.9s-0.5,0.4-0.9,0.6s-0.7,0.2-1.2,0.2c-0.4,0-0.8-0.1-1.2-0.2
					c-0.4-0.2-0.7-0.4-1-0.7c-0.3-0.3-0.5-0.6-0.7-1s-0.2-0.8-0.2-1.3c0-0.5,0.1-0.9,0.2-1.3c0.2-0.4,0.4-0.7,0.6-1
					c0.3-0.3,0.6-0.5,1-0.6c0.4-0.1,0.8-0.2,1.3-0.2c0.3,0,0.5,0,0.8,0.1s0.5,0.1,0.7,0.2c0.2,0.1,0.5,0.2,0.7,0.4
					c0.2,0.1,0.5,0.3,0.7,0.5l3.4,2.4c0.1,0.1,0.2,0.1,0.2,0.3c0.1,0.1,0.1,0.2,0.1,0.4v1.1l-3.9-3c-0.1-0.1-0.3-0.2-0.4-0.3
					c-0.1-0.1-0.2-0.2-0.4-0.2c0.2,0.2,0.3,0.5,0.5,0.8C844.7,541.8,844.8,542.2,844.8,542.5z M842,540.1c-0.3,0-0.6,0-0.8,0.1
					c-0.2,0.1-0.5,0.2-0.6,0.4c-0.2,0.2-0.3,0.4-0.4,0.6c-0.1,0.2-0.1,0.5-0.1,0.8c0,0.3,0,0.6,0.1,0.8c0.1,0.2,0.2,0.5,0.4,0.6
					c0.2,0.2,0.4,0.3,0.6,0.4s0.5,0.1,0.8,0.1c0.3,0,0.6,0,0.8-0.1c0.2-0.1,0.4-0.2,0.6-0.4c0.2-0.2,0.3-0.4,0.4-0.6
					c0.1-0.2,0.1-0.5,0.1-0.8c0-0.3-0.1-0.6-0.2-0.9c-0.1-0.3-0.2-0.5-0.4-0.6c-0.2-0.2-0.4-0.3-0.6-0.4
					C842.4,540.1,842.2,540.1,842,540.1z"/>
				<path d="M839.6,531.7c0.2,0,0.3,0.1,0.4,0.2c0.1,0.1,0.2,0.3,0.2,0.5v3l2.5,0.4c-0.1-0.5-0.2-1-0.2-1.4c0-0.5,0.1-1,0.2-1.3
					c0.1-0.4,0.4-0.7,0.6-1s0.6-0.5,0.9-0.6c0.4-0.1,0.7-0.2,1.2-0.2c0.5,0,1,0.1,1.4,0.3c0.4,0.2,0.8,0.4,1.1,0.7
					c0.3,0.3,0.5,0.7,0.7,1.1c0.2,0.4,0.2,0.9,0.2,1.4c0,0.3,0,0.6-0.1,0.8s-0.1,0.5-0.2,0.7c-0.1,0.2-0.2,0.4-0.3,0.6
					c-0.1,0.2-0.2,0.4-0.4,0.5l-0.5-0.4c-0.1-0.1-0.2-0.2-0.2-0.3c0-0.1,0-0.2,0.1-0.3s0.1-0.3,0.2-0.4s0.2-0.4,0.2-0.6
					c0.1-0.2,0.1-0.5,0.1-0.8c0-0.3-0.1-0.6-0.2-0.9c-0.1-0.3-0.3-0.5-0.5-0.7c-0.2-0.2-0.4-0.3-0.7-0.4c-0.3-0.1-0.6-0.2-0.9-0.2
					c-0.3,0-0.6,0-0.8,0.1c-0.2,0.1-0.4,0.2-0.6,0.4c-0.2,0.2-0.3,0.4-0.4,0.7c-0.1,0.3-0.1,0.6-0.1,0.9c0,0.2,0,0.5,0.1,0.8
					c0,0.3,0.1,0.5,0.2,0.8l-0.2,0.8l-4.5-0.8v-4.6H839.6z"/>
				<path d="M839.1,523.4h1.1v4.7h3.4v-4h1.1v4h4.2v1.3h-9.7V523.4z"/>
				<path d="M842.8,518.5c0-0.4,0.1-0.8,0.2-1.1c0.1-0.3,0.3-0.7,0.6-0.9s0.5-0.5,0.9-0.6c0.4-0.2,0.8-0.2,1.2-0.2
					c0.4,0,0.9,0.1,1.2,0.2c0.4,0.2,0.7,0.4,1,0.7c0.3,0.3,0.5,0.6,0.7,1.1c0.2,0.4,0.2,0.9,0.2,1.4c0,0.5-0.1,0.9-0.2,1.3
					c-0.2,0.4-0.4,0.7-0.7,1c-0.3,0.3-0.6,0.5-1,0.6c-0.4,0.2-0.9,0.2-1.4,0.2c-0.4,0-0.9-0.1-1.4-0.3s-1-0.5-1.5-0.9l-3.3-2.5
					c-0.1-0.1-0.2-0.2-0.2-0.3c-0.1-0.1-0.1-0.2-0.1-0.4v-1.1l4.3,3.4c-0.2-0.2-0.3-0.5-0.4-0.8
					C842.9,519.1,842.8,518.8,842.8,518.5z M845.8,521c0.3,0,0.6,0,0.9-0.1c0.3-0.1,0.5-0.2,0.7-0.4c0.2-0.2,0.3-0.4,0.4-0.6
					s0.2-0.5,0.2-0.9c0-0.3-0.1-0.6-0.2-0.9s-0.2-0.5-0.4-0.7s-0.4-0.3-0.7-0.4c-0.3-0.1-0.5-0.2-0.8-0.2c-0.3,0-0.6,0-0.9,0.1
					c-0.3,0.1-0.5,0.2-0.7,0.4c-0.2,0.2-0.3,0.4-0.4,0.7c-0.1,0.3-0.1,0.5-0.1,0.8c0,0.3,0.1,0.6,0.2,0.9c0.1,0.3,0.3,0.5,0.4,0.7
					s0.4,0.3,0.7,0.4C845.3,520.9,845.5,521,845.8,521z"/>
				<path d="M848.9,511.1c0,0.5-0.1,0.9-0.2,1.3c-0.1,0.4-0.3,0.7-0.6,1s-0.5,0.5-0.9,0.7c-0.3,0.2-0.7,0.2-1.1,0.2
					c-0.6,0-1.1-0.2-1.5-0.5c-0.4-0.3-0.7-0.8-0.9-1.4c-0.2,0.5-0.5,0.9-0.8,1.2c-0.4,0.3-0.8,0.4-1.3,0.4c-0.4,0-0.7-0.1-1-0.2
					c-0.3-0.1-0.6-0.3-0.8-0.6c-0.2-0.3-0.4-0.6-0.5-0.9c-0.1-0.4-0.2-0.8-0.2-1.2c0-0.4,0.1-0.8,0.2-1.2c0.1-0.4,0.3-0.7,0.5-0.9
					c0.2-0.3,0.5-0.5,0.8-0.6c0.3-0.1,0.6-0.2,1-0.2c0.5,0,1,0.1,1.3,0.4c0.4,0.3,0.7,0.6,0.8,1.2c0.2-0.6,0.5-1.1,0.9-1.4
					s0.9-0.5,1.5-0.5c0.4,0,0.8,0.1,1.1,0.2c0.3,0.2,0.6,0.4,0.9,0.7c0.2,0.3,0.4,0.6,0.6,1C848.8,510.2,848.9,510.6,848.9,511.1z
					 M843.3,511.1c0-0.3,0-0.6-0.1-0.8c-0.1-0.2-0.2-0.4-0.4-0.5s-0.3-0.2-0.6-0.3c-0.2-0.1-0.4-0.1-0.6-0.1c-0.2,0-0.4,0-0.6,0.1
					c-0.2,0.1-0.4,0.2-0.5,0.3s-0.3,0.3-0.4,0.5s-0.1,0.5-0.1,0.8c0,0.3,0,0.5,0.1,0.8c0.1,0.2,0.2,0.4,0.4,0.5
					c0.1,0.1,0.3,0.3,0.5,0.3c0.2,0.1,0.4,0.1,0.6,0.1c0.2,0,0.4,0,0.6-0.1c0.2-0.1,0.4-0.2,0.6-0.3c0.2-0.1,0.3-0.3,0.4-0.5
					C843.2,511.7,843.3,511.4,843.3,511.1z M847.9,511.1c0-0.3,0-0.6-0.1-0.8c-0.1-0.3-0.2-0.5-0.4-0.6s-0.4-0.3-0.6-0.4
					c-0.2-0.1-0.5-0.1-0.7-0.1c-0.3,0-0.6,0.1-0.9,0.2c-0.2,0.1-0.4,0.3-0.6,0.4c-0.1,0.2-0.3,0.4-0.3,0.6c-0.1,0.2-0.1,0.5-0.1,0.8
					c0,0.3,0,0.5,0.1,0.8c0.1,0.2,0.2,0.5,0.3,0.6c0.2,0.2,0.3,0.3,0.6,0.4c0.2,0.1,0.5,0.2,0.9,0.2c0.3,0,0.5,0,0.7-0.1
					c0.2-0.1,0.4-0.2,0.6-0.4c0.2-0.2,0.3-0.4,0.4-0.6C847.9,511.7,847.9,511.4,847.9,511.1z"/>
			</g>
		</g>
		<g>
			<g>
				<path d="M906.4,556.8l2.9,0.6v0.5c0,0.1,0,0.2-0.1,0.3c-0.1,0.1-0.2,0.1-0.3,0.1c0,0,0,0-0.1,0c0,0,0,0-0.1,0l-2.3-0.5v1.7
					l2.4,0.5c0.2,0,0.3,0.1,0.4,0.2c0.1,0.1,0.1,0.2,0.1,0.3v0.5l-2.9-0.6v1c0,0.1,0,0.2-0.1,0.2c-0.1,0.1-0.1,0.1-0.3,0.1
					c0,0,0,0-0.1,0c0,0-0.1,0-0.1,0l-0.4-0.1v-1.4l-2.2-0.4v1.6l-0.5-0.1c-0.1,0-0.2-0.1-0.3-0.2c-0.1-0.1-0.1-0.2-0.1-0.4v-1.1
					l-2.4-0.5c-0.1,0-0.2-0.1-0.3-0.2c-0.1-0.1-0.1-0.2-0.1-0.3v-0.5l2.9,0.6v-1.7l-2.9-0.6V556c0-0.1,0-0.2,0.1-0.3
					c0.1-0.1,0.2-0.1,0.3-0.1c0,0,0.1,0,0.1,0l2.4,0.5v-1.4l0.5,0.1c0.1,0,0.2,0.1,0.3,0.2c0.1,0.1,0.1,0.2,0.1,0.4v0.9l2.2,0.4
					v-1.2c0-0.1,0-0.2,0.1-0.3c0.1-0.1,0.1-0.1,0.3-0.1c0,0,0,0,0.1,0c0,0,0.1,0,0.1,0l0.4,0.1V556.8z M905.5,559.3v-1.7l-2.2-0.4
					v1.7L905.5,559.3z"/>
				<path d="M899.6,546.9h0.5c0.2,0,0.3,0,0.4,0.1c0.1,0,0.2,0.1,0.2,0.1l8.1,4c0.1,0.1,0.2,0.1,0.3,0.2s0.1,0.2,0.1,0.4v0.9l-8-4.1
					c-0.1-0.1-0.2-0.1-0.3-0.2c-0.1-0.1-0.2-0.1-0.3-0.2v5.1c0,0.1,0,0.1-0.1,0.2c-0.1,0.1-0.1,0.1-0.2,0.1h-0.8V546.9z"/>
				<path d="M900.1,539.8c0.2,0,0.3,0.1,0.4,0.2c0.1,0.1,0.2,0.3,0.2,0.5v3l2.5,0.4c-0.1-0.5-0.2-1-0.2-1.4c0-0.5,0.1-1,0.2-1.3
					c0.2-0.4,0.4-0.7,0.6-1s0.6-0.5,0.9-0.6c0.4-0.1,0.7-0.2,1.2-0.2c0.5,0,1,0.1,1.4,0.3c0.4,0.2,0.8,0.4,1.1,0.7s0.5,0.7,0.7,1.1
					c0.2,0.4,0.2,0.9,0.2,1.4c0,0.3,0,0.6-0.1,0.8c-0.1,0.3-0.1,0.5-0.2,0.7c-0.1,0.2-0.2,0.4-0.3,0.6s-0.2,0.4-0.4,0.5l-0.5-0.4
					c-0.1-0.1-0.2-0.2-0.2-0.3c0-0.1,0-0.2,0.1-0.3s0.1-0.3,0.2-0.4s0.2-0.4,0.2-0.6c0.1-0.2,0.1-0.5,0.1-0.8c0-0.3-0.1-0.6-0.2-0.9
					c-0.1-0.3-0.3-0.5-0.5-0.7s-0.4-0.3-0.7-0.4s-0.6-0.2-0.9-0.2c-0.3,0-0.6,0-0.8,0.1s-0.5,0.2-0.6,0.4c-0.2,0.2-0.3,0.4-0.4,0.7
					c-0.1,0.3-0.1,0.6-0.1,0.9c0,0.2,0,0.5,0.1,0.8s0.1,0.5,0.2,0.8l-0.2,0.8l-4.5-0.8v-4.6H900.1z"/>
				<path d="M899.6,531.2h0.5c0.2,0,0.3,0,0.4,0.1c0.1,0,0.2,0.1,0.2,0.1l8.1,4c0.1,0.1,0.2,0.1,0.3,0.2s0.1,0.2,0.1,0.4v0.9l-8-4.1
					c-0.1-0.1-0.2-0.1-0.3-0.2c-0.1-0.1-0.2-0.1-0.3-0.2v5.1c0,0.1,0,0.1-0.1,0.2c-0.1,0.1-0.1,0.1-0.2,0.1h-0.8V531.2z"/>
				<path d="M905.3,527c0,0.4-0.1,0.7-0.2,1c-0.1,0.3-0.3,0.6-0.5,0.9c-0.2,0.2-0.5,0.4-0.9,0.6c-0.3,0.1-0.7,0.2-1.2,0.2
					c-0.4,0-0.8-0.1-1.2-0.2c-0.4-0.2-0.7-0.4-1-0.7c-0.3-0.3-0.5-0.6-0.7-1c-0.2-0.4-0.2-0.8-0.2-1.3c0-0.5,0.1-0.9,0.2-1.3
					s0.4-0.7,0.6-1c0.3-0.3,0.6-0.5,1-0.6s0.8-0.2,1.3-0.2c0.3,0,0.5,0,0.8,0.1s0.5,0.1,0.7,0.2c0.2,0.1,0.5,0.2,0.7,0.4
					c0.2,0.1,0.5,0.3,0.7,0.5l3.4,2.4c0.1,0.1,0.2,0.1,0.2,0.3c0.1,0.1,0.1,0.2,0.1,0.4v1.1l-3.9-3c-0.1-0.1-0.3-0.2-0.4-0.3
					c-0.1-0.1-0.2-0.2-0.4-0.2c0.2,0.2,0.3,0.5,0.5,0.8C905.2,526.3,905.3,526.7,905.3,527z M902.4,524.6c-0.3,0-0.6,0-0.8,0.1
					c-0.2,0.1-0.5,0.2-0.6,0.4c-0.2,0.2-0.3,0.4-0.4,0.6c-0.1,0.2-0.1,0.5-0.1,0.8c0,0.3,0,0.6,0.1,0.8s0.2,0.5,0.4,0.6
					s0.4,0.3,0.6,0.4c0.2,0.1,0.5,0.1,0.8,0.1c0.3,0,0.6,0,0.8-0.1c0.2-0.1,0.4-0.2,0.6-0.4c0.2-0.2,0.3-0.4,0.4-0.6
					c0.1-0.2,0.1-0.5,0.1-0.8c0-0.3-0.1-0.6-0.2-0.9c-0.1-0.3-0.2-0.5-0.4-0.6c-0.2-0.2-0.4-0.3-0.6-0.4
					C902.9,524.6,902.7,524.6,902.4,524.6z"/>
				<path d="M899.6,515.5h0.5c0.2,0,0.3,0,0.4,0.1c0.1,0,0.2,0.1,0.2,0.1l8.1,4c0.1,0.1,0.2,0.1,0.3,0.2s0.1,0.2,0.1,0.4v0.9l-8-4.1
					c-0.1-0.1-0.2-0.1-0.3-0.2c-0.1-0.1-0.2-0.1-0.3-0.2v5.1c0,0.1,0,0.1-0.1,0.2c-0.1,0.1-0.1,0.1-0.2,0.1h-0.8V515.5z"/>
				<path d="M899.6,507.9h1.1v4.7h3.2v-3.8h1v3.8h3.3v-4.7h1.1v6h-9.7V507.9z"/>
			</g>
		</g>
		<g>
			<g>
				<path d="M966.9,561.6l2.9,0.6v0.5c0,0.1,0,0.2-0.1,0.3s-0.2,0.1-0.3,0.1c0,0,0,0-0.1,0c0,0,0,0-0.1,0l-2.3-0.5v1.7l2.4,0.5
					c0.2,0,0.3,0.1,0.4,0.2s0.1,0.2,0.1,0.3v0.5l-2.9-0.6v1c0,0.1,0,0.2-0.1,0.2c-0.1,0.1-0.1,0.1-0.3,0.1c0,0,0,0-0.1,0
					c0,0-0.1,0-0.1,0l-0.4-0.1v-1.4l-2.2-0.4v1.6l-0.5-0.1c-0.1,0-0.2-0.1-0.3-0.2c-0.1-0.1-0.1-0.2-0.1-0.4v-1.1l-2.4-0.5
					c-0.1,0-0.2-0.1-0.3-0.2s-0.1-0.2-0.1-0.3v-0.5l2.9,0.6v-1.7l-2.9-0.6v-0.5c0-0.1,0-0.2,0.1-0.3c0.1-0.1,0.2-0.1,0.3-0.1
					c0,0,0.1,0,0.1,0l2.4,0.5v-1.4l0.5,0.1c0.1,0,0.2,0.1,0.3,0.2c0.1,0.1,0.1,0.2,0.1,0.4v0.9l2.2,0.4v-1.2c0-0.1,0-0.2,0.1-0.3
					c0.1-0.1,0.1-0.1,0.3-0.1c0,0,0,0,0.1,0c0,0,0.1,0,0.1,0l0.4,0.1V561.6z M966,564.2v-1.7l-2.2-0.4v1.7L966,564.2z"/>
				<path d="M969.8,558h-9.7v-3.1c0-0.6,0.1-1.1,0.2-1.5c0.1-0.4,0.3-0.8,0.5-1.1s0.5-0.5,0.8-0.6c0.3-0.1,0.7-0.2,1.1-0.2
					c0.2,0,0.5,0,0.7,0.1c0.2,0.1,0.4,0.2,0.6,0.3s0.4,0.3,0.5,0.6s0.3,0.5,0.4,0.8c0.1-0.7,0.4-1.2,0.8-1.6
					c0.4-0.4,0.9-0.5,1.5-0.5c0.4,0,0.8,0.1,1.1,0.2c0.3,0.2,0.6,0.4,0.9,0.7s0.4,0.6,0.6,1.1c0.1,0.4,0.2,0.9,0.2,1.4V558z
					 M964.4,556.7v-1.7c0-0.4,0-0.7-0.1-1c-0.1-0.3-0.2-0.5-0.3-0.7c-0.1-0.2-0.3-0.3-0.5-0.4c-0.2-0.1-0.4-0.1-0.7-0.1
					c-0.6,0-1,0.2-1.3,0.5c-0.3,0.3-0.4,0.9-0.4,1.6v1.8H964.4z M965.3,556.7h3.4v-2.1c0-0.4,0-0.7-0.1-1s-0.2-0.5-0.4-0.7
					c-0.2-0.2-0.3-0.3-0.6-0.4c-0.2-0.1-0.5-0.1-0.7-0.1c-0.5,0-0.9,0.2-1.2,0.5s-0.4,0.9-0.4,1.6V556.7z"/>
				<path d="M964.9,540.8c0.7,0,1.4,0.1,2,0.3s1.1,0.6,1.5,1s0.8,0.9,1,1.5c0.2,0.6,0.3,1.2,0.3,1.9v3.6h-9.7v-3.6
					c0-0.7,0.1-1.4,0.3-1.9c0.2-0.6,0.6-1.1,1-1.5c0.4-0.4,0.9-0.7,1.5-1S964.2,540.8,964.9,540.8z M964.9,542.2
					c-0.6,0-1.1,0.1-1.6,0.2c-0.5,0.2-0.9,0.4-1.2,0.7s-0.6,0.7-0.7,1.1s-0.3,0.9-0.3,1.4v2.3h7.6v-2.3c0-0.5-0.1-1-0.3-1.4
					s-0.4-0.8-0.7-1.1c-0.3-0.3-0.7-0.5-1.2-0.7C966,542.2,965.5,542.2,964.9,542.2z"/>
				<path d="M969.8,539h-9.7v-3.1c0-0.6,0.1-1.1,0.2-1.5c0.1-0.4,0.3-0.8,0.5-1.1s0.5-0.5,0.8-0.6c0.3-0.1,0.7-0.2,1.1-0.2
					c0.2,0,0.5,0,0.7,0.1c0.2,0.1,0.4,0.2,0.6,0.3s0.4,0.3,0.5,0.6s0.3,0.5,0.4,0.8c0.1-0.7,0.4-1.2,0.8-1.6
					c0.4-0.4,0.9-0.5,1.5-0.5c0.4,0,0.8,0.1,1.1,0.2c0.3,0.2,0.6,0.4,0.9,0.7s0.4,0.6,0.6,1.1c0.1,0.4,0.2,0.9,0.2,1.4V539z
					 M964.4,537.7V536c0-0.4,0-0.7-0.1-1c-0.1-0.3-0.2-0.5-0.3-0.7c-0.1-0.2-0.3-0.3-0.5-0.4c-0.2-0.1-0.4-0.1-0.7-0.1
					c-0.6,0-1,0.2-1.3,0.5c-0.3,0.3-0.4,0.9-0.4,1.6v1.8H964.4z M965.3,537.7h3.4v-2.1c0-0.4,0-0.7-0.1-1s-0.2-0.5-0.4-0.7
					c-0.2-0.2-0.3-0.3-0.6-0.4c-0.2-0.1-0.5-0.1-0.7-0.1c-0.5,0-0.9,0.2-1.2,0.5s-0.4,0.9-0.4,1.6V537.7z"/>
				<path d="M960.1,524.3h1.1v4.7h3.2v-3.8h1v3.8h3.3v-4.7h1.1v6h-9.7V524.3z"/>
				<path d="M969.8,522.4h-9.7v-3.1c0-0.6,0.1-1.1,0.2-1.5c0.1-0.4,0.3-0.8,0.5-1.1s0.5-0.5,0.8-0.6c0.3-0.1,0.7-0.2,1.1-0.2
					c0.2,0,0.5,0,0.7,0.1c0.2,0.1,0.4,0.2,0.6,0.3s0.4,0.3,0.5,0.6s0.3,0.5,0.4,0.8c0.1-0.7,0.4-1.2,0.8-1.6
					c0.4-0.4,0.9-0.5,1.5-0.5c0.4,0,0.8,0.1,1.1,0.2c0.3,0.2,0.6,0.4,0.9,0.7s0.4,0.6,0.6,1.1c0.1,0.4,0.2,0.9,0.2,1.4V522.4z
					 M964.4,521.1v-1.7c0-0.4,0-0.7-0.1-1c-0.1-0.3-0.2-0.5-0.3-0.7c-0.1-0.2-0.3-0.3-0.5-0.4c-0.2-0.1-0.4-0.1-0.7-0.1
					c-0.6,0-1,0.2-1.3,0.5c-0.3,0.3-0.4,0.9-0.4,1.6v1.8H964.4z M965.3,521.1h3.4V519c0-0.4,0-0.7-0.1-1s-0.2-0.5-0.4-0.7
					c-0.2-0.2-0.3-0.3-0.6-0.4c-0.2-0.1-0.5-0.1-0.7-0.1c-0.5,0-0.9,0.2-1.2,0.5s-0.4,0.9-0.4,1.6V521.1z"/>
				<path d="M960.1,507.7h1.1v4.7h3.4v-4h1.1v4h4.2v1.3h-9.7V507.7z"/>
			</g>
		</g>
		<g>
			<path class="st10" d="M488.7,296.7l-0.8,4.3h-1.2c-0.2,0-0.4-0.1-0.5-0.3s-0.2-0.4-0.2-0.6c0,0,0-0.1,0-0.1c0,0,0-0.1,0-0.1
				l0.6-3.2h-2.2l-0.6,3.3c-0.1,0.3-0.2,0.6-0.4,0.7c-0.2,0.1-0.5,0.2-0.7,0.2h-1.1l0.8-4.3h-1.2c-0.2,0-0.4-0.1-0.5-0.2
				c-0.1-0.1-0.2-0.3-0.2-0.5c0-0.1,0-0.2,0-0.3l0.1-0.8h2l0.5-2.9h-2.2l0.2-1.1c0-0.3,0.2-0.5,0.3-0.6s0.4-0.2,0.8-0.2h1.2l0.7-3.4
				c0.1-0.3,0.2-0.5,0.4-0.7c0.2-0.2,0.4-0.2,0.7-0.2h1.2l-0.8,4.3h2.1l0.8-4.3h1.2c0.2,0,0.4,0.1,0.6,0.2c0.2,0.1,0.2,0.3,0.2,0.5
				c0,0.1,0,0.1,0,0.2l-0.7,3.4h2.1l-0.2,1.1c0,0.3-0.2,0.5-0.3,0.6c-0.2,0.1-0.4,0.2-0.8,0.2h-1l-0.5,2.9h1.5
				c0.2,0,0.4,0.1,0.5,0.2s0.2,0.3,0.2,0.6c0,0.1,0,0.2,0,0.3l-0.1,0.8H488.7z M484.7,294.8h2.2l0.5-2.9h-2.1L484.7,294.8z"/>
			<path class="st10" d="M503.2,285.8v2.2h-6.7v4.2h5.3v2.2h-5.3v4.3h6.7v2.3h-9.6v-15.2H503.2z"/>
			<path class="st10" d="M510.3,301.1c-0.8,0-1.5-0.1-2.1-0.3c-0.6-0.2-1.2-0.5-1.7-0.9c-0.5-0.4-0.8-0.9-1.1-1.4
				c-0.3-0.5-0.4-1.2-0.4-1.8c0-0.9,0.2-1.7,0.7-2.3s1.1-1.1,2.1-1.4c-0.7-0.3-1.3-0.7-1.7-1.3c-0.4-0.6-0.6-1.2-0.6-2
				c0-0.6,0.1-1.1,0.4-1.6s0.6-0.9,1-1.3c0.4-0.4,0.9-0.7,1.5-0.9c0.6-0.2,1.2-0.3,1.9-0.3s1.3,0.1,1.9,0.3c0.6,0.2,1.1,0.5,1.5,0.9
				c0.4,0.4,0.7,0.8,1,1.3s0.4,1,0.4,1.6c0,0.8-0.2,1.5-0.6,2s-0.9,1-1.7,1.3c0.9,0.3,1.6,0.8,2.1,1.4c0.4,0.6,0.7,1.4,0.7,2.3
				c0,0.7-0.1,1.3-0.4,1.8c-0.3,0.5-0.6,1-1.1,1.4c-0.5,0.4-1,0.7-1.7,0.9C511.8,301,511,301.1,510.3,301.1z M510.3,299.1
				c0.4,0,0.8-0.1,1.1-0.2c0.3-0.1,0.6-0.3,0.8-0.5c0.2-0.2,0.4-0.5,0.5-0.8c0.1-0.3,0.2-0.6,0.2-1c0-0.8-0.2-1.5-0.7-1.9
				c-0.5-0.4-1.1-0.6-1.9-0.6c-0.8,0-1.4,0.2-1.9,0.6c-0.5,0.4-0.7,1.1-0.7,1.9c0,0.3,0.1,0.7,0.2,1c0.1,0.3,0.3,0.6,0.5,0.8
				c0.2,0.2,0.5,0.4,0.8,0.5C509.4,299,509.8,299.1,510.3,299.1z M510.3,292.1c0.4,0,0.8-0.1,1.1-0.2c0.3-0.1,0.5-0.3,0.7-0.5
				c0.2-0.2,0.3-0.5,0.4-0.8c0.1-0.3,0.1-0.6,0.1-0.9c0-0.3,0-0.6-0.1-0.8c-0.1-0.3-0.2-0.5-0.4-0.7c-0.2-0.2-0.4-0.4-0.7-0.5
				c-0.3-0.1-0.6-0.2-1-0.2s-0.7,0.1-1,0.2c-0.3,0.1-0.5,0.3-0.7,0.5c-0.2,0.2-0.3,0.4-0.4,0.7c-0.1,0.3-0.1,0.5-0.1,0.8
				c0,0.3,0,0.6,0.1,0.9s0.2,0.5,0.4,0.8c0.2,0.2,0.4,0.4,0.7,0.5C509.5,292,509.8,292.1,510.3,292.1z"/>
			<path class="st10" d="M526.7,286.9c0,0.4-0.1,0.7-0.4,0.9c-0.2,0.2-0.6,0.3-1.2,0.3H521l-0.5,3.2c0.7-0.1,1.3-0.2,1.9-0.2
				c0.8,0,1.5,0.1,2.1,0.4c0.6,0.2,1.1,0.6,1.5,1s0.7,0.9,0.9,1.5s0.3,1.2,0.3,1.8c0,0.8-0.1,1.5-0.4,2.2c-0.3,0.7-0.7,1.2-1.2,1.7
				c-0.5,0.5-1.1,0.8-1.8,1.1s-1.4,0.4-2.3,0.4c-0.5,0-0.9,0-1.4-0.1c-0.4-0.1-0.8-0.2-1.2-0.4c-0.4-0.2-0.7-0.4-1-0.6
				c-0.3-0.2-0.6-0.4-0.9-0.7l0.8-1.1c0.2-0.2,0.4-0.4,0.7-0.4c0.2,0,0.4,0.1,0.5,0.2c0.2,0.1,0.4,0.2,0.6,0.4s0.5,0.3,0.8,0.4
				c0.3,0.1,0.7,0.2,1.1,0.2c0.5,0,0.9-0.1,1.3-0.2c0.4-0.2,0.7-0.4,0.9-0.6c0.2-0.3,0.4-0.6,0.5-1c0.1-0.4,0.2-0.8,0.2-1.2
				c0-0.8-0.2-1.5-0.7-1.9c-0.5-0.5-1.2-0.7-2.1-0.7c-0.7,0-1.5,0.1-2.2,0.4l-1.6-0.5l1.3-7.4h7.5V286.9z"/>
			<path class="st10" d="M543.5,293.4c0,1.1-0.2,2.1-0.6,3.1c-0.4,0.9-0.9,1.7-1.6,2.4c-0.7,0.7-1.5,1.2-2.4,1.6
				c-0.9,0.4-2,0.6-3.1,0.6h-5.8v-15.2h5.8c1.1,0,2.2,0.2,3.1,0.6c0.9,0.4,1.8,0.9,2.4,1.6c0.7,0.7,1.2,1.5,1.6,2.4
				C543.3,291.2,543.5,292.2,543.5,293.4z M540.6,293.4c0-0.8-0.1-1.6-0.3-2.2c-0.2-0.7-0.5-1.2-1-1.7c-0.4-0.5-0.9-0.8-1.5-1.1
				s-1.3-0.4-2-0.4h-3v10.7h3c0.7,0,1.4-0.1,2-0.4s1.1-0.6,1.5-1.1c0.4-0.5,0.7-1,1-1.7C540.5,294.9,540.6,294.2,540.6,293.4z"/>
			<path class="st10" d="M550.8,285.6c0.7,0,1.3,0.1,1.9,0.3s1,0.5,1.4,0.8c0.4,0.4,0.7,0.8,0.9,1.2c0.2,0.5,0.3,1,0.3,1.5
				c0,0.5-0.1,0.9-0.2,1.3c-0.1,0.4-0.3,0.7-0.5,1c-0.2,0.3-0.5,0.5-0.8,0.7c-0.3,0.2-0.6,0.3-1,0.5c0.9,0.3,1.6,0.7,2,1.3
				c0.4,0.6,0.7,1.3,0.7,2.2c0,0.8-0.1,1.4-0.4,2c-0.3,0.6-0.7,1.1-1.1,1.5c-0.5,0.4-1,0.7-1.7,0.9c-0.6,0.2-1.3,0.3-2,0.3
				c-0.8,0-1.4-0.1-2-0.3c-0.6-0.2-1.1-0.4-1.5-0.8c-0.4-0.3-0.8-0.8-1.1-1.3s-0.5-1.1-0.8-1.7l1.1-0.5c0.2-0.1,0.4-0.1,0.6-0.1
				c0.2,0,0.3,0,0.5,0.1c0.1,0.1,0.3,0.2,0.3,0.3c0.1,0.2,0.3,0.5,0.4,0.7c0.2,0.2,0.3,0.5,0.5,0.6s0.5,0.3,0.7,0.5
				c0.3,0.1,0.6,0.2,1,0.2c0.4,0,0.8-0.1,1.2-0.2s0.6-0.3,0.8-0.6s0.4-0.5,0.5-0.8c0.1-0.3,0.2-0.6,0.2-0.9c0-0.4,0-0.7-0.1-1
				c-0.1-0.3-0.2-0.6-0.5-0.8s-0.6-0.4-1.1-0.5c-0.5-0.1-1.1-0.2-1.8-0.2v-1.9c0.6,0,1.2-0.1,1.6-0.2c0.4-0.1,0.8-0.3,1-0.5
				c0.2-0.2,0.4-0.4,0.5-0.7c0.1-0.3,0.1-0.6,0.1-0.9c0-0.7-0.2-1.3-0.6-1.6c-0.4-0.4-0.9-0.6-1.6-0.6c-0.6,0-1.1,0.2-1.5,0.5
				c-0.4,0.3-0.7,0.7-0.9,1.3c-0.1,0.3-0.2,0.5-0.3,0.6c-0.1,0.1-0.3,0.2-0.6,0.2c-0.1,0-0.2,0-0.4,0l-1.4-0.2
				c0.1-0.7,0.3-1.4,0.6-1.9s0.7-1,1.1-1.4c0.5-0.4,1-0.6,1.6-0.8C549.5,285.7,550.1,285.6,550.8,285.6z"/>
			<path class="st10" d="M567.5,285.8v2.2h-6.7v4.5h5.7v2.3h-5.7v6.2h-2.8v-15.2H567.5z"/>
		</g>
		<g>
			<g>
				<path class="st10" d="M754.8,397.2v4.9h-3v-13.1h4.3c0.9,0,1.8,0.1,2.4,0.3c0.7,0.2,1.2,0.5,1.6,0.8c0.4,0.3,0.7,0.8,0.9,1.2
					c0.2,0.5,0.3,1,0.3,1.5c0,0.4-0.1,0.8-0.2,1.2c-0.1,0.4-0.3,0.7-0.5,1c-0.2,0.3-0.5,0.6-0.8,0.9c-0.3,0.3-0.7,0.5-1.1,0.6
					c0.2,0.1,0.4,0.2,0.6,0.4c0.2,0.2,0.3,0.3,0.5,0.5l2.8,4.6h-2.8c-0.5,0-0.9-0.2-1.1-0.6l-2.2-3.8c-0.1-0.2-0.2-0.3-0.3-0.4
					s-0.3-0.1-0.5-0.1H754.8z M754.8,395.1h1.2c0.4,0,0.8-0.1,1.1-0.2c0.3-0.1,0.5-0.2,0.7-0.4c0.2-0.2,0.3-0.4,0.4-0.7
					c0.1-0.2,0.1-0.5,0.1-0.8c0-0.6-0.2-1-0.6-1.3c-0.4-0.3-1-0.5-1.7-0.5h-1.2V395.1z"/>
				<path class="st10" d="M776,395.6c0,1.1-0.1,2.1-0.4,2.9c-0.2,0.8-0.6,1.5-1,2s-0.9,0.9-1.5,1.2c-0.6,0.3-1.2,0.4-1.8,0.4
					c-0.7,0-1.3-0.1-1.8-0.4c-0.6-0.3-1.1-0.7-1.5-1.2s-0.8-1.2-1-2s-0.4-1.8-0.4-2.9c0-1.1,0.1-2.1,0.4-2.9s0.6-1.5,1-2.1
					s0.9-0.9,1.5-1.2c0.6-0.3,1.2-0.4,1.8-0.4c0.7,0,1.3,0.1,1.8,0.4c0.6,0.3,1.1,0.7,1.5,1.2s0.8,1.2,1,2.1
					C775.9,393.5,776,394.4,776,395.6z M774.4,395.6c0-1-0.1-1.8-0.2-2.5c-0.2-0.7-0.4-1.2-0.7-1.6s-0.6-0.7-1-0.9
					c-0.4-0.2-0.7-0.3-1.1-0.3c-0.4,0-0.8,0.1-1.1,0.3c-0.4,0.2-0.7,0.5-1,0.9s-0.5,0.9-0.7,1.6c-0.2,0.7-0.2,1.5-0.2,2.5
					c0,1,0.1,1.8,0.2,2.5c0.2,0.7,0.4,1.2,0.7,1.6c0.3,0.4,0.6,0.7,1,0.9s0.7,0.3,1.1,0.3c0.4,0,0.8-0.1,1.1-0.3
					c0.4-0.2,0.7-0.5,1-0.9c0.3-0.4,0.5-0.9,0.7-1.6C774.3,397.4,774.4,396.5,774.4,395.6z"/>
				<path class="st10" d="M757.1,421.4c0.4,0,0.8,0,1.1-0.1c0.3-0.1,0.6-0.2,0.9-0.3v-2h-1.3c-0.2,0-0.3-0.1-0.4-0.2
					c-0.1-0.1-0.2-0.2-0.2-0.4v-1.7h4.7v5.5c-0.3,0.2-0.7,0.5-1,0.6c-0.4,0.2-0.8,0.3-1.2,0.4c-0.4,0.1-0.8,0.2-1.3,0.3
					c-0.5,0.1-1,0.1-1.5,0.1c-1,0-1.8-0.2-2.7-0.5c-0.8-0.3-1.5-0.8-2.1-1.4c-0.6-0.6-1.1-1.3-1.4-2.1c-0.3-0.8-0.5-1.7-0.5-2.7
					c0-1,0.2-1.9,0.5-2.7c0.3-0.8,0.8-1.5,1.4-2.1s1.3-1.1,2.2-1.4c0.9-0.3,1.8-0.5,2.9-0.5c0.5,0,1.1,0,1.5,0.1s0.9,0.2,1.3,0.4
					s0.8,0.3,1.1,0.6c0.3,0.2,0.6,0.5,0.9,0.7l-0.9,1.3c-0.1,0.1-0.2,0.2-0.3,0.3c-0.1,0.1-0.2,0.1-0.4,0.1c-0.2,0-0.4-0.1-0.6-0.2
					c-0.2-0.1-0.5-0.3-0.7-0.4c-0.2-0.1-0.4-0.2-0.7-0.3c-0.2-0.1-0.5-0.1-0.7-0.1c-0.2,0-0.5,0-0.8,0c-0.6,0-1.1,0.1-1.5,0.3
					s-0.8,0.5-1.2,0.9c-0.3,0.4-0.6,0.8-0.7,1.3s-0.3,1.1-0.3,1.7c0,0.7,0.1,1.3,0.3,1.9s0.5,1,0.8,1.4c0.3,0.4,0.7,0.7,1.2,0.9
					S756.5,421.4,757.1,421.4z"/>
				<path class="st10" d="M776,417.2c0,1.1-0.1,2.1-0.4,2.9c-0.2,0.8-0.6,1.5-1,2s-0.9,0.9-1.5,1.2c-0.6,0.3-1.2,0.4-1.8,0.4
					c-0.7,0-1.3-0.1-1.8-0.4c-0.6-0.3-1.1-0.7-1.5-1.2s-0.8-1.2-1-2s-0.4-1.8-0.4-2.9c0-1.1,0.1-2.1,0.4-2.9s0.6-1.5,1-2.1
					s0.9-0.9,1.5-1.2c0.6-0.3,1.2-0.4,1.8-0.4c0.7,0,1.3,0.1,1.8,0.4c0.6,0.3,1.1,0.7,1.5,1.2s0.8,1.2,1,2.1
					C775.9,415.1,776,416,776,417.2z M774.4,417.2c0-1-0.1-1.8-0.2-2.5c-0.2-0.7-0.4-1.2-0.7-1.6s-0.6-0.7-1-0.9
					c-0.4-0.2-0.7-0.3-1.1-0.3c-0.4,0-0.8,0.1-1.1,0.3c-0.4,0.2-0.7,0.5-1,0.9s-0.5,0.9-0.7,1.6c-0.2,0.7-0.2,1.5-0.2,2.5
					c0,1,0.1,1.8,0.2,2.5c0.2,0.7,0.4,1.2,0.7,1.6c0.3,0.4,0.6,0.7,1,0.9s0.7,0.3,1.1,0.3c0.4,0,0.8-0.1,1.1-0.3
					c0.4-0.2,0.7-0.5,1-0.9c0.3-0.4,0.5-0.9,0.7-1.6C774.3,419,774.4,418.1,774.4,417.2z"/>
				<path class="st10" d="M751.9,445.2v-13.1h4.8c0.9,0,1.7,0.1,2.3,0.3c0.6,0.2,1.2,0.4,1.6,0.7c0.4,0.3,0.7,0.7,0.9,1.1
					c0.2,0.4,0.3,0.9,0.3,1.5c0,0.3,0,0.6-0.1,0.9c-0.1,0.3-0.2,0.5-0.4,0.8c-0.2,0.2-0.4,0.5-0.7,0.7c-0.3,0.2-0.6,0.4-1,0.5
					c0.9,0.2,1.5,0.6,1.9,1c0.4,0.5,0.6,1.1,0.6,1.8c0,0.6-0.1,1.1-0.3,1.6c-0.2,0.5-0.5,0.9-0.9,1.3c-0.4,0.4-0.9,0.6-1.5,0.8
					c-0.6,0.2-1.3,0.3-2.1,0.3H751.9z M755,437.6h1.6c0.3,0,0.6,0,0.9-0.1s0.5-0.1,0.7-0.3c0.2-0.1,0.3-0.3,0.4-0.5s0.1-0.5,0.1-0.8
					c0-0.3,0-0.6-0.1-0.8s-0.2-0.4-0.4-0.5s-0.4-0.2-0.6-0.3c-0.2-0.1-0.5-0.1-0.9-0.1H755V437.6z M755,439.6v3.3h2.1
					c0.4,0,0.7-0.1,1-0.2c0.3-0.1,0.5-0.2,0.6-0.4c0.1-0.2,0.2-0.3,0.3-0.5c0.1-0.2,0.1-0.4,0.1-0.6c0-0.2,0-0.5-0.1-0.6
					c-0.1-0.2-0.2-0.4-0.3-0.5c-0.2-0.1-0.4-0.2-0.6-0.3s-0.6-0.1-1-0.1H755z"/>
				<path class="st10" d="M776,438.8c0,1.1-0.1,2.1-0.4,2.9c-0.2,0.8-0.6,1.5-1,2s-0.9,0.9-1.5,1.2c-0.6,0.3-1.2,0.4-1.8,0.4
					c-0.7,0-1.3-0.1-1.8-0.4c-0.6-0.3-1.1-0.7-1.5-1.2s-0.8-1.2-1-2s-0.4-1.8-0.4-2.9c0-1.1,0.1-2.1,0.4-2.9s0.6-1.5,1-2.1
					s0.9-0.9,1.5-1.2c0.6-0.3,1.2-0.4,1.8-0.4c0.7,0,1.3,0.1,1.8,0.4c0.6,0.3,1.1,0.7,1.5,1.2s0.8,1.2,1,2.1
					C775.9,436.7,776,437.6,776,438.8z M774.4,438.8c0-1-0.1-1.8-0.2-2.5c-0.2-0.7-0.4-1.2-0.7-1.6s-0.6-0.7-1-0.9
					c-0.4-0.2-0.7-0.3-1.1-0.3c-0.4,0-0.8,0.1-1.1,0.3c-0.4,0.2-0.7,0.5-1,0.9s-0.5,0.9-0.7,1.6c-0.2,0.7-0.2,1.5-0.2,2.5
					c0,1,0.1,1.8,0.2,2.5c0.2,0.7,0.4,1.2,0.7,1.6c0.3,0.4,0.6,0.7,1,0.9s0.7,0.3,1.1,0.3c0.4,0,0.8-0.1,1.1-0.3
					c0.4-0.2,0.7-0.5,1-0.9c0.3-0.4,0.5-0.9,0.7-1.6C774.3,440.6,774.4,439.7,774.4,438.8z"/>
			</g>
		</g>
		<g>
			<path class="st10" d="M701.1,296.7l-0.8,4.3h-1.2c-0.2,0-0.4-0.1-0.5-0.3s-0.2-0.4-0.2-0.6c0,0,0-0.1,0-0.1c0,0,0-0.1,0-0.1
				l0.6-3.2h-2.2l-0.6,3.3c-0.1,0.3-0.2,0.6-0.4,0.7c-0.2,0.1-0.5,0.2-0.7,0.2h-1.1l0.8-4.3h-1.2c-0.2,0-0.4-0.1-0.5-0.2
				c-0.1-0.1-0.2-0.3-0.2-0.5c0-0.1,0-0.2,0-0.3l0.1-0.8h2l0.5-2.9h-2.2l0.2-1.1c0-0.3,0.2-0.5,0.3-0.6s0.4-0.2,0.8-0.2h1.2l0.7-3.4
				c0.1-0.3,0.2-0.5,0.4-0.7c0.2-0.2,0.4-0.2,0.7-0.2h1.2l-0.8,4.3h2.1l0.8-4.3h1.2c0.2,0,0.4,0.1,0.6,0.2c0.2,0.1,0.2,0.3,0.2,0.5
				c0,0.1,0,0.1,0,0.2l-0.7,3.4h2.1l-0.2,1.1c0,0.3-0.2,0.5-0.3,0.6c-0.2,0.1-0.4,0.2-0.8,0.2h-1.1l-0.5,2.9h1.5
				c0.2,0,0.4,0.1,0.5,0.2s0.2,0.3,0.2,0.6c0,0.1,0,0.2,0,0.3l-0.1,0.8H701.1z M697.1,294.8h2.2l0.5-2.9h-2.1L697.1,294.8z"/>
			<path class="st10" d="M716.2,293.4c0,1.3-0.1,2.5-0.4,3.4s-0.7,1.8-1.2,2.4c-0.5,0.6-1.1,1.1-1.8,1.4c-0.7,0.3-1.4,0.5-2.2,0.5
				s-1.5-0.2-2.2-0.5c-0.7-0.3-1.3-0.8-1.8-1.4c-0.5-0.6-0.9-1.4-1.2-2.4s-0.4-2.1-0.4-3.4c0-1.3,0.1-2.5,0.4-3.5s0.7-1.8,1.2-2.4
				c0.5-0.6,1.1-1.1,1.8-1.4s1.4-0.5,2.2-0.5s1.5,0.2,2.2,0.5c0.7,0.3,1.3,0.8,1.8,1.4c0.5,0.6,0.9,1.4,1.2,2.4
				S716.2,292,716.2,293.4z M713.5,293.4c0-1.1-0.1-2-0.2-2.7s-0.4-1.3-0.6-1.7c-0.3-0.4-0.6-0.7-0.9-0.9c-0.4-0.2-0.7-0.3-1.1-0.3
				c-0.4,0-0.7,0.1-1.1,0.3c-0.3,0.2-0.7,0.5-0.9,0.9c-0.3,0.4-0.5,1-0.6,1.7s-0.2,1.6-0.2,2.7c0,1.1,0.1,2,0.2,2.7s0.4,1.3,0.6,1.7
				s0.6,0.7,0.9,0.9c0.3,0.2,0.7,0.3,1.1,0.3c0.4,0,0.7-0.1,1.1-0.3c0.3-0.2,0.7-0.5,0.9-0.9s0.5-1,0.6-1.7S713.5,294.5,713.5,293.4
				z"/>
			<path class="st10" d="M728.4,293.4c0,1.3-0.1,2.5-0.4,3.4s-0.7,1.8-1.2,2.4c-0.5,0.6-1.1,1.1-1.8,1.4c-0.7,0.3-1.4,0.5-2.2,0.5
				s-1.5-0.2-2.2-0.5c-0.7-0.3-1.3-0.8-1.8-1.4c-0.5-0.6-0.9-1.4-1.2-2.4s-0.4-2.1-0.4-3.4c0-1.3,0.1-2.5,0.4-3.5s0.7-1.8,1.2-2.4
				c0.5-0.6,1.1-1.1,1.8-1.4s1.4-0.5,2.2-0.5s1.5,0.2,2.2,0.5c0.7,0.3,1.3,0.8,1.8,1.4c0.5,0.6,0.9,1.4,1.2,2.4
				S728.4,292,728.4,293.4z M725.7,293.4c0-1.1-0.1-2-0.2-2.7s-0.4-1.3-0.6-1.7c-0.3-0.4-0.6-0.7-0.9-0.9c-0.4-0.2-0.7-0.3-1.1-0.3
				c-0.4,0-0.7,0.1-1.1,0.3c-0.3,0.2-0.7,0.5-0.9,0.9c-0.3,0.4-0.5,1-0.6,1.7s-0.2,1.6-0.2,2.7c0,1.1,0.1,2,0.2,2.7s0.4,1.3,0.6,1.7
				s0.6,0.7,0.9,0.9c0.3,0.2,0.7,0.3,1.1,0.3c0.4,0,0.7-0.1,1.1-0.3c0.3-0.2,0.7-0.5,0.9-0.9s0.5-1,0.6-1.7S725.7,294.5,725.7,293.4
				z"/>
			<path class="st10" d="M740.6,293.4c0,1.3-0.1,2.5-0.4,3.4s-0.7,1.8-1.2,2.4c-0.5,0.6-1.1,1.1-1.8,1.4c-0.7,0.3-1.4,0.5-2.2,0.5
				s-1.5-0.2-2.2-0.5c-0.7-0.3-1.3-0.8-1.8-1.4c-0.5-0.6-0.9-1.4-1.2-2.4s-0.4-2.1-0.4-3.4c0-1.3,0.1-2.5,0.4-3.5s0.7-1.8,1.2-2.4
				c0.5-0.6,1.1-1.1,1.8-1.4s1.4-0.5,2.2-0.5s1.5,0.2,2.2,0.5c0.7,0.3,1.3,0.8,1.8,1.4c0.5,0.6,0.9,1.4,1.2,2.4
				S740.6,292,740.6,293.4z M737.9,293.4c0-1.1-0.1-2-0.2-2.7s-0.4-1.3-0.6-1.7c-0.3-0.4-0.6-0.7-0.9-0.9c-0.4-0.2-0.7-0.3-1.1-0.3
				c-0.4,0-0.7,0.1-1.1,0.3c-0.3,0.2-0.7,0.5-0.9,0.9c-0.3,0.4-0.5,1-0.6,1.7s-0.2,1.6-0.2,2.7c0,1.1,0.1,2,0.2,2.7s0.4,1.3,0.6,1.7
				s0.6,0.7,0.9,0.9c0.3,0.2,0.7,0.3,1.1,0.3c0.4,0,0.7-0.1,1.1-0.3c0.3-0.2,0.7-0.5,0.9-0.9s0.5-1,0.6-1.7S737.9,294.5,737.9,293.4
				z"/>
			<path class="st10" d="M752.8,293.4c0,1.3-0.1,2.5-0.4,3.4s-0.7,1.8-1.2,2.4c-0.5,0.6-1.1,1.1-1.8,1.4c-0.7,0.3-1.4,0.5-2.2,0.5
				s-1.5-0.2-2.2-0.5c-0.7-0.3-1.3-0.8-1.8-1.4c-0.5-0.6-0.9-1.4-1.2-2.4s-0.4-2.1-0.4-3.4c0-1.3,0.1-2.5,0.4-3.5s0.7-1.8,1.2-2.4
				c0.5-0.6,1.1-1.1,1.8-1.4s1.4-0.5,2.2-0.5s1.5,0.2,2.2,0.5c0.7,0.3,1.3,0.8,1.8,1.4c0.5,0.6,0.9,1.4,1.2,2.4
				S752.8,292,752.8,293.4z M750.1,293.4c0-1.1-0.1-2-0.2-2.7s-0.4-1.3-0.6-1.7c-0.3-0.4-0.6-0.7-0.9-0.9c-0.4-0.2-0.7-0.3-1.1-0.3
				c-0.4,0-0.7,0.1-1.1,0.3c-0.3,0.2-0.7,0.5-0.9,0.9c-0.3,0.4-0.5,1-0.6,1.7s-0.2,1.6-0.2,2.7c0,1.1,0.1,2,0.2,2.7s0.4,1.3,0.6,1.7
				s0.6,0.7,0.9,0.9c0.3,0.2,0.7,0.3,1.1,0.3c0.4,0,0.7-0.1,1.1-0.3c0.3-0.2,0.7-0.5,0.9-0.9s0.5-1,0.6-1.7S750.1,294.5,750.1,293.4
				z"/>
			<path class="st10" d="M764.9,293.4c0,1.3-0.1,2.5-0.4,3.4s-0.7,1.8-1.2,2.4c-0.5,0.6-1.1,1.1-1.8,1.4c-0.7,0.3-1.4,0.5-2.2,0.5
				s-1.5-0.2-2.2-0.5c-0.7-0.3-1.3-0.8-1.8-1.4c-0.5-0.6-0.9-1.4-1.2-2.4s-0.4-2.1-0.4-3.4c0-1.3,0.1-2.5,0.4-3.5s0.7-1.8,1.2-2.4
				c0.5-0.6,1.1-1.1,1.8-1.4s1.4-0.5,2.2-0.5s1.5,0.2,2.2,0.5c0.7,0.3,1.3,0.8,1.8,1.4c0.5,0.6,0.9,1.4,1.2,2.4
				S764.9,292,764.9,293.4z M762.3,293.4c0-1.1-0.1-2-0.2-2.7s-0.4-1.3-0.6-1.7c-0.3-0.4-0.6-0.7-0.9-0.9c-0.4-0.2-0.7-0.3-1.1-0.3
				c-0.4,0-0.7,0.1-1.1,0.3c-0.3,0.2-0.7,0.5-0.9,0.9c-0.3,0.4-0.5,1-0.6,1.7s-0.2,1.6-0.2,2.7c0,1.1,0.1,2,0.2,2.7s0.4,1.3,0.6,1.7
				s0.6,0.7,0.9,0.9c0.3,0.2,0.7,0.3,1.1,0.3c0.4,0,0.7-0.1,1.1-0.3c0.3-0.2,0.7-0.5,0.9-0.9s0.5-1,0.6-1.7S762.3,294.5,762.3,293.4
				z"/>
			<path class="st10" d="M777.1,293.4c0,1.3-0.1,2.5-0.4,3.4s-0.7,1.8-1.2,2.4c-0.5,0.6-1.1,1.1-1.8,1.4c-0.7,0.3-1.4,0.5-2.2,0.5
				s-1.5-0.2-2.2-0.5c-0.7-0.3-1.3-0.8-1.8-1.4c-0.5-0.6-0.9-1.4-1.2-2.4s-0.4-2.1-0.4-3.4c0-1.3,0.1-2.5,0.4-3.5s0.7-1.8,1.2-2.4
				c0.5-0.6,1.1-1.1,1.8-1.4s1.4-0.5,2.2-0.5s1.5,0.2,2.2,0.5c0.7,0.3,1.3,0.8,1.8,1.4c0.5,0.6,0.9,1.4,1.2,2.4
				S777.1,292,777.1,293.4z M774.4,293.4c0-1.1-0.1-2-0.2-2.7s-0.4-1.3-0.6-1.7c-0.3-0.4-0.6-0.7-0.9-0.9c-0.4-0.2-0.7-0.3-1.1-0.3
				c-0.4,0-0.7,0.1-1.1,0.3c-0.3,0.2-0.7,0.5-0.9,0.9c-0.3,0.4-0.5,1-0.6,1.7s-0.2,1.6-0.2,2.7c0,1.1,0.1,2,0.2,2.7s0.4,1.3,0.6,1.7
				s0.6,0.7,0.9,0.9c0.3,0.2,0.7,0.3,1.1,0.3c0.4,0,0.7-0.1,1.1-0.3c0.3-0.2,0.7-0.5,0.9-0.9s0.5-1,0.6-1.7S774.4,294.5,774.4,293.4
				z"/>
		</g>
		<g>
			<g>
				<path class="st10" d="M942.8,397.2v4.9h-3v-13.1h4.3c0.9,0,1.8,0.1,2.4,0.3c0.7,0.2,1.2,0.5,1.6,0.8c0.4,0.3,0.7,0.8,0.9,1.2
					c0.2,0.5,0.3,1,0.3,1.5c0,0.4-0.1,0.8-0.2,1.2c-0.1,0.4-0.3,0.7-0.5,1c-0.2,0.3-0.5,0.6-0.8,0.9c-0.3,0.3-0.7,0.5-1.1,0.6
					c0.2,0.1,0.4,0.2,0.6,0.4c0.2,0.2,0.3,0.3,0.5,0.5l2.8,4.6h-2.8c-0.5,0-0.9-0.2-1.1-0.6l-2.2-3.8c-0.1-0.2-0.2-0.3-0.3-0.4
					s-0.3-0.1-0.5-0.1H942.8z M942.8,395.1h1.2c0.4,0,0.8-0.1,1.1-0.2c0.3-0.1,0.5-0.2,0.7-0.4c0.2-0.2,0.3-0.4,0.4-0.7
					c0.1-0.2,0.1-0.5,0.1-0.8c0-0.6-0.2-1-0.6-1.3c-0.4-0.3-1-0.5-1.7-0.5h-1.2V395.1z"/>
				<path class="st10" d="M956.8,400.8h2.8V392c0-0.3,0-0.5,0-0.8l-2.3,2c-0.1,0-0.1,0.1-0.2,0.1c-0.1,0-0.1,0-0.2,0
					c-0.1,0-0.2,0-0.2-0.1s-0.1-0.1-0.2-0.1l-0.5-0.7l3.8-3.3h1.3v11.7h2.5v1.2h-6.9V400.8z"/>
				<path class="st10" d="M972.7,397.3h2v0.9c0,0.1,0,0.2-0.1,0.2c-0.1,0.1-0.1,0.1-0.3,0.1h-1.6v3.4h-1.4v-3.4h-5.7
					c-0.1,0-0.2,0-0.3-0.1c-0.1-0.1-0.1-0.2-0.2-0.3l-0.2-0.8l6.3-8.3h1.5V397.3z M971.3,392c0-0.2,0-0.3,0-0.5c0-0.2,0-0.4,0.1-0.6
					l-4.7,6.4h4.6V392z"/>
				<path class="st10" d="M984.8,389.1v0.7c0,0.2,0,0.4-0.1,0.5s-0.1,0.2-0.1,0.3l-5.3,10.8c-0.1,0.2-0.2,0.3-0.3,0.4
					c-0.1,0.1-0.3,0.2-0.6,0.2h-1.1l5.4-10.6c0.1-0.2,0.2-0.3,0.2-0.4c0.1-0.1,0.2-0.2,0.3-0.4h-6.7c-0.1,0-0.2,0-0.3-0.1
					c-0.1-0.1-0.1-0.2-0.1-0.3v-1.1H984.8z"/>
				<path class="st10" d="M945.1,421.4c0.4,0,0.8,0,1.1-0.1c0.3-0.1,0.6-0.2,0.9-0.3v-2h-1.3c-0.2,0-0.3-0.1-0.5-0.2
					c-0.1-0.1-0.2-0.2-0.2-0.4v-1.7h4.7v5.5c-0.3,0.2-0.7,0.5-1,0.6c-0.4,0.2-0.8,0.3-1.2,0.4c-0.4,0.1-0.8,0.2-1.3,0.3
					c-0.5,0.1-1,0.1-1.5,0.1c-1,0-1.8-0.2-2.7-0.5s-1.5-0.8-2.1-1.4c-0.6-0.6-1.1-1.3-1.4-2.1s-0.5-1.7-0.5-2.7c0-1,0.2-1.9,0.5-2.7
					c0.3-0.8,0.8-1.5,1.4-2.1c0.6-0.6,1.3-1.1,2.2-1.4s1.8-0.5,2.9-0.5c0.5,0,1.1,0,1.5,0.1s0.9,0.2,1.3,0.4
					c0.4,0.2,0.8,0.3,1.1,0.6c0.3,0.2,0.6,0.5,0.9,0.7l-0.9,1.3c-0.1,0.1-0.2,0.2-0.3,0.3c-0.1,0.1-0.2,0.1-0.4,0.1
					c-0.2,0-0.4-0.1-0.6-0.2c-0.2-0.1-0.5-0.3-0.7-0.4c-0.2-0.1-0.4-0.2-0.7-0.3c-0.2-0.1-0.5-0.1-0.7-0.1c-0.2,0-0.5,0-0.8,0
					c-0.6,0-1.1,0.1-1.5,0.3c-0.5,0.2-0.8,0.5-1.2,0.9c-0.3,0.4-0.6,0.8-0.7,1.3s-0.3,1.1-0.3,1.7c0,0.7,0.1,1.3,0.3,1.9
					c0.2,0.5,0.5,1,0.8,1.4c0.3,0.4,0.7,0.7,1.2,0.9S944.6,421.4,945.1,421.4z"/>
				<path class="st10" d="M956.8,422.4h2.8v-8.8c0-0.3,0-0.5,0-0.8l-2.3,2c-0.1,0-0.1,0.1-0.2,0.1c-0.1,0-0.1,0-0.2,0
					c-0.1,0-0.2,0-0.2-0.1s-0.1-0.1-0.2-0.1L956,414l3.8-3.3h1.3v11.7h2.5v1.2h-6.9V422.4z"/>
				<path class="st10" d="M972.7,418.9h2v0.9c0,0.1,0,0.2-0.1,0.2c-0.1,0.1-0.1,0.1-0.3,0.1h-1.6v3.4h-1.4v-3.4h-5.7
					c-0.1,0-0.2,0-0.3-0.1c-0.1-0.1-0.1-0.2-0.2-0.3L965,419l6.3-8.3h1.5V418.9z M971.3,413.6c0-0.2,0-0.3,0-0.5
					c0-0.2,0-0.4,0.1-0.6l-4.7,6.4h4.6V413.6z"/>
				<path class="st10" d="M980,418.3c-0.5,0-0.9-0.1-1.4-0.2c-0.4-0.2-0.8-0.4-1.1-0.7c-0.3-0.3-0.6-0.7-0.8-1.2s-0.3-1-0.3-1.6
					c0-0.6,0.1-1.1,0.3-1.6c0.2-0.5,0.5-0.9,0.9-1.3c0.4-0.4,0.8-0.7,1.3-0.9c0.5-0.2,1.1-0.3,1.7-0.3c0.6,0,1.2,0.1,1.7,0.3
					c0.5,0.2,0.9,0.5,1.3,0.9c0.4,0.4,0.6,0.8,0.8,1.3c0.2,0.5,0.3,1.1,0.3,1.7c0,0.4,0,0.7-0.1,1.1c-0.1,0.3-0.2,0.7-0.3,1
					c-0.1,0.3-0.3,0.6-0.5,0.9c-0.2,0.3-0.4,0.6-0.6,1l-3.1,4.5c-0.1,0.1-0.2,0.2-0.3,0.3c-0.1,0.1-0.3,0.1-0.5,0.1h-1.5l3.9-5.1
					c0.1-0.2,0.3-0.3,0.4-0.5c0.1-0.2,0.2-0.3,0.3-0.5c-0.3,0.3-0.7,0.5-1.1,0.6S980.4,418.3,980,418.3z M983.2,414.5
					c0-0.4-0.1-0.8-0.2-1.1s-0.3-0.6-0.5-0.8c-0.2-0.2-0.5-0.4-0.8-0.5c-0.3-0.1-0.7-0.2-1-0.2c-0.4,0-0.8,0.1-1.1,0.2
					c-0.3,0.1-0.6,0.3-0.8,0.5c-0.2,0.2-0.4,0.5-0.5,0.8c-0.1,0.3-0.2,0.7-0.2,1c0,0.4,0.1,0.8,0.2,1.1c0.1,0.3,0.3,0.6,0.5,0.8
					c0.2,0.2,0.5,0.4,0.8,0.5c0.3,0.1,0.7,0.2,1.1,0.2c0.4,0,0.8-0.1,1.1-0.2c0.3-0.1,0.6-0.3,0.8-0.6c0.2-0.2,0.4-0.5,0.5-0.8
					C983.1,415.2,983.2,414.9,983.2,414.5z"/>
				<path class="st10" d="M940,445.2v-13.1h4.8c0.9,0,1.7,0.1,2.3,0.3c0.6,0.2,1.2,0.4,1.6,0.7c0.4,0.3,0.7,0.7,0.9,1.1
					c0.2,0.4,0.3,0.9,0.3,1.5c0,0.3,0,0.6-0.1,0.9c-0.1,0.3-0.2,0.5-0.4,0.8c-0.2,0.2-0.4,0.5-0.7,0.7c-0.3,0.2-0.6,0.4-1,0.5
					c0.9,0.2,1.5,0.6,1.9,1c0.4,0.5,0.6,1.1,0.6,1.8c0,0.6-0.1,1.1-0.3,1.6c-0.2,0.5-0.5,0.9-0.9,1.3c-0.4,0.4-0.9,0.6-1.5,0.8
					c-0.6,0.2-1.3,0.3-2.1,0.3H940z M943,437.6h1.6c0.3,0,0.6,0,0.9-0.1s0.5-0.1,0.7-0.3c0.2-0.1,0.3-0.3,0.4-0.5s0.1-0.5,0.1-0.8
					c0-0.3,0-0.6-0.1-0.8s-0.2-0.4-0.4-0.5s-0.4-0.2-0.6-0.3c-0.2-0.1-0.5-0.1-0.9-0.1H943V437.6z M943,439.6v3.3h2.1
					c0.4,0,0.7-0.1,1-0.2c0.3-0.1,0.5-0.2,0.6-0.4c0.1-0.2,0.2-0.3,0.3-0.5c0.1-0.2,0.1-0.4,0.1-0.6c0-0.2,0-0.5-0.1-0.6
					c-0.1-0.2-0.2-0.4-0.3-0.5c-0.2-0.1-0.4-0.2-0.6-0.3s-0.6-0.1-1-0.1H943z"/>
				<path class="st10" d="M956.8,444h2.8v-8.8c0-0.3,0-0.5,0-0.8l-2.3,2c-0.1,0-0.1,0.1-0.2,0.1c-0.1,0-0.1,0-0.2,0
					c-0.1,0-0.2,0-0.2-0.1s-0.1-0.1-0.2-0.1l-0.5-0.7l3.8-3.3h1.3V444h2.5v1.2h-6.9V444z"/>
				<path class="st10" d="M973.4,433c0,0.2-0.1,0.4-0.2,0.6c-0.1,0.1-0.4,0.2-0.7,0.2h-4.1l-0.6,3.4c0.7-0.1,1.3-0.2,1.9-0.2
					c0.7,0,1.3,0.1,1.8,0.3c0.5,0.2,0.9,0.5,1.3,0.8c0.3,0.3,0.6,0.8,0.8,1.2c0.2,0.5,0.3,1,0.3,1.5c0,0.7-0.1,1.3-0.4,1.9
					c-0.2,0.6-0.6,1-1,1.4c-0.4,0.4-0.9,0.7-1.5,0.9c-0.6,0.2-1.2,0.3-1.8,0.3c-0.4,0-0.7,0-1.1-0.1c-0.3-0.1-0.7-0.2-1-0.3
					c-0.3-0.1-0.6-0.3-0.8-0.4s-0.5-0.3-0.7-0.5l0.5-0.7c0.1-0.2,0.3-0.2,0.4-0.2c0.1,0,0.2,0,0.4,0.1c0.2,0.1,0.3,0.2,0.6,0.3
					c0.2,0.1,0.5,0.2,0.8,0.3c0.3,0.1,0.6,0.1,1,0.1c0.4,0,0.9-0.1,1.2-0.2c0.4-0.1,0.7-0.3,0.9-0.6c0.3-0.3,0.5-0.6,0.6-1
					c0.1-0.4,0.2-0.8,0.2-1.3c0-0.4-0.1-0.8-0.2-1.1s-0.3-0.6-0.5-0.8c-0.2-0.2-0.5-0.4-0.9-0.5c-0.4-0.1-0.8-0.2-1.2-0.2
					c-0.3,0-0.7,0-1,0.1c-0.3,0.1-0.7,0.1-1.1,0.3l-1-0.3l1-6h6.1V433z"/>
				<path class="st10" d="M980.5,432.2c0.5,0,1.1,0.1,1.5,0.2s0.9,0.4,1.2,0.7c0.3,0.3,0.6,0.7,0.8,1.1s0.3,0.9,0.3,1.5
					c0,0.5-0.1,0.9-0.2,1.3c-0.1,0.4-0.3,0.8-0.6,1.2s-0.5,0.7-0.8,1.1c-0.3,0.4-0.7,0.7-1,1.1l-3.4,3.5c0.2-0.1,0.5-0.1,0.7-0.2
					c0.2,0,0.5-0.1,0.7-0.1h4.3c0.2,0,0.3,0.1,0.4,0.2c0.1,0.1,0.2,0.2,0.2,0.4v1H976v-0.5c0-0.1,0-0.2,0.1-0.4
					c0-0.1,0.1-0.2,0.2-0.3l4.1-4.1c0.3-0.3,0.7-0.7,0.9-1c0.3-0.3,0.5-0.6,0.7-1c0.2-0.3,0.4-0.7,0.5-1c0.1-0.3,0.2-0.7,0.2-1.1
					s-0.1-0.7-0.2-1c-0.1-0.3-0.3-0.5-0.5-0.7c-0.2-0.2-0.5-0.3-0.7-0.4s-0.6-0.1-0.9-0.1c-0.3,0-0.6,0-0.9,0.1
					c-0.3,0.1-0.5,0.2-0.7,0.4s-0.4,0.4-0.5,0.6c-0.1,0.2-0.3,0.5-0.3,0.8c0,0.2-0.1,0.3-0.2,0.4c-0.1,0.1-0.2,0.1-0.4,0.1
					c0,0-0.1,0-0.1,0s-0.1,0-0.1,0l-0.8-0.1c0.1-0.6,0.2-1.1,0.5-1.6s0.5-0.8,0.9-1.1c0.4-0.3,0.8-0.5,1.3-0.7
					C979.4,432.2,979.9,432.2,980.5,432.2z"/>
			</g>
		</g>
		<g>
			<path class="st10" d="M910,296.7l-0.8,4.3H908c-0.2,0-0.4-0.1-0.5-0.3s-0.2-0.4-0.2-0.6c0,0,0-0.1,0-0.1c0,0,0-0.1,0-0.1l0.6-3.2
				h-2.2l-0.6,3.3c-0.1,0.3-0.2,0.6-0.4,0.7c-0.2,0.1-0.5,0.2-0.7,0.2h-1.1l0.8-4.3h-1.2c-0.2,0-0.4-0.1-0.5-0.2
				c-0.1-0.1-0.2-0.3-0.2-0.5c0-0.1,0-0.2,0-0.3l0.1-0.8h2l0.5-2.9h-2.2l0.2-1.1c0-0.3,0.2-0.5,0.3-0.6s0.4-0.2,0.8-0.2h1.2l0.7-3.4
				c0.1-0.3,0.2-0.5,0.4-0.7c0.2-0.2,0.4-0.2,0.7-0.2h1.2l-0.8,4.3h2.1l0.8-4.3h1.2c0.2,0,0.4,0.1,0.6,0.2c0.2,0.1,0.2,0.3,0.2,0.5
				c0,0.1,0,0.1,0,0.2l-0.7,3.4h2.1l-0.2,1.1c0,0.3-0.2,0.5-0.3,0.6s-0.4,0.2-0.8,0.2h-1l-0.5,2.9h1.5c0.2,0,0.4,0.1,0.5,0.2
				s0.2,0.3,0.2,0.6c0,0.1,0,0.2,0,0.3l-0.1,0.8H910z M906,294.8h2.2l0.5-2.9h-2.1L906,294.8z"/>
			<path class="st10" d="M919.1,294.9c-0.5,0-1-0.1-1.5-0.3c-0.5-0.2-1-0.5-1.3-0.8c-0.4-0.4-0.7-0.8-1-1.4
				c-0.2-0.5-0.4-1.2-0.4-1.9c0-0.7,0.1-1.3,0.4-1.9c0.3-0.6,0.6-1.1,1.1-1.6c0.5-0.4,1-0.8,1.6-1.1c0.6-0.3,1.3-0.4,2.1-0.4
				c0.8,0,1.5,0.1,2.1,0.4s1.1,0.6,1.6,1c0.4,0.4,0.8,1,1,1.6s0.4,1.3,0.4,2c0,0.5,0,0.9-0.1,1.3s-0.2,0.8-0.3,1.2
				c-0.2,0.4-0.3,0.8-0.5,1.1c-0.2,0.4-0.4,0.7-0.7,1.1l-3.5,5c-0.1,0.2-0.3,0.3-0.5,0.4c-0.2,0.1-0.5,0.2-0.8,0.2h-2.4l4.7-5.9
				c0.1-0.1,0.2-0.3,0.3-0.4c0.1-0.1,0.2-0.3,0.3-0.4c-0.3,0.2-0.7,0.4-1.2,0.5C920,294.8,919.5,294.9,919.1,294.9z M922.6,290.3
				c0-0.4-0.1-0.8-0.2-1.1c-0.1-0.3-0.3-0.6-0.5-0.8c-0.2-0.2-0.5-0.4-0.8-0.5s-0.7-0.2-1-0.2c-0.4,0-0.7,0.1-1.1,0.2
				c-0.3,0.1-0.6,0.3-0.8,0.5c-0.2,0.2-0.4,0.5-0.5,0.8s-0.2,0.7-0.2,1c0,0.8,0.2,1.5,0.7,1.9c0.4,0.4,1.1,0.7,1.9,0.7
				c0.4,0,0.8-0.1,1.1-0.2c0.3-0.1,0.6-0.3,0.8-0.5c0.2-0.2,0.4-0.5,0.5-0.8C922.5,291,922.6,290.7,922.6,290.3z"/>
			<path class="st10" d="M932.2,285.6c0.7,0,1.3,0.1,1.9,0.3c0.6,0.2,1,0.5,1.4,0.8c0.4,0.4,0.7,0.8,0.9,1.2c0.2,0.5,0.3,1,0.3,1.5
				c0,0.5-0.1,0.9-0.2,1.3c-0.1,0.4-0.3,0.7-0.5,1c-0.2,0.3-0.5,0.5-0.8,0.7c-0.3,0.2-0.6,0.3-1,0.5c0.9,0.3,1.6,0.7,2,1.3
				c0.4,0.6,0.7,1.3,0.7,2.2c0,0.8-0.1,1.4-0.4,2c-0.3,0.6-0.7,1.1-1.1,1.5s-1,0.7-1.7,0.9s-1.3,0.3-2,0.3c-0.8,0-1.4-0.1-2-0.3
				s-1.1-0.4-1.5-0.8c-0.4-0.3-0.8-0.8-1.1-1.3c-0.3-0.5-0.5-1.1-0.8-1.7l1.1-0.5c0.2-0.1,0.4-0.1,0.6-0.1c0.2,0,0.3,0,0.5,0.1
				c0.1,0.1,0.3,0.2,0.3,0.3c0.1,0.2,0.3,0.5,0.4,0.7c0.2,0.2,0.3,0.5,0.5,0.6c0.2,0.2,0.5,0.3,0.7,0.5c0.3,0.1,0.6,0.2,1,0.2
				c0.4,0,0.8-0.1,1.2-0.2c0.3-0.1,0.6-0.3,0.8-0.6s0.4-0.5,0.5-0.8c0.1-0.3,0.2-0.6,0.2-0.9c0-0.4,0-0.7-0.1-1
				c-0.1-0.3-0.2-0.6-0.5-0.8c-0.2-0.2-0.6-0.4-1.1-0.5c-0.5-0.1-1.1-0.2-1.8-0.2v-1.9c0.6,0,1.2-0.1,1.6-0.2c0.4-0.1,0.8-0.3,1-0.5
				c0.2-0.2,0.4-0.4,0.5-0.7c0.1-0.3,0.1-0.6,0.1-0.9c0-0.7-0.2-1.3-0.6-1.6c-0.4-0.4-0.9-0.6-1.6-0.6c-0.6,0-1.1,0.2-1.5,0.5
				c-0.4,0.3-0.7,0.7-0.9,1.3c-0.1,0.3-0.2,0.5-0.3,0.6c-0.1,0.1-0.3,0.2-0.6,0.2c-0.1,0-0.2,0-0.4,0l-1.4-0.2
				c0.1-0.7,0.3-1.4,0.6-1.9s0.7-1,1.1-1.4c0.5-0.4,1-0.6,1.6-0.8C930.9,285.7,931.6,285.6,932.2,285.6z"/>
			<path class="st10" d="M943.4,294.9c-0.5,0-1-0.1-1.5-0.3c-0.5-0.2-1-0.5-1.3-0.8c-0.4-0.4-0.7-0.8-1-1.4
				c-0.2-0.5-0.4-1.2-0.4-1.9c0-0.7,0.1-1.3,0.4-1.9c0.3-0.6,0.6-1.1,1.1-1.6c0.5-0.4,1-0.8,1.6-1.1c0.6-0.3,1.3-0.4,2.1-0.4
				c0.8,0,1.5,0.1,2.1,0.4s1.1,0.6,1.6,1c0.4,0.4,0.8,1,1,1.6s0.4,1.3,0.4,2c0,0.5,0,0.9-0.1,1.3s-0.2,0.8-0.3,1.2
				c-0.2,0.4-0.3,0.8-0.5,1.1c-0.2,0.4-0.4,0.7-0.7,1.1l-3.5,5c-0.1,0.2-0.3,0.3-0.5,0.4c-0.2,0.1-0.5,0.2-0.8,0.2h-2.4l4.7-5.9
				c0.1-0.1,0.2-0.3,0.3-0.4c0.1-0.1,0.2-0.3,0.3-0.4c-0.3,0.2-0.7,0.4-1.2,0.5C944.3,294.8,943.9,294.9,943.4,294.9z M947,290.3
				c0-0.4-0.1-0.8-0.2-1.1c-0.1-0.3-0.3-0.6-0.5-0.8c-0.2-0.2-0.5-0.4-0.8-0.5s-0.7-0.2-1-0.2c-0.4,0-0.7,0.1-1.1,0.2
				c-0.3,0.1-0.6,0.3-0.8,0.5c-0.2,0.2-0.4,0.5-0.5,0.8s-0.2,0.7-0.2,1c0,0.8,0.2,1.5,0.7,1.9c0.4,0.4,1.1,0.7,1.9,0.7
				c0.4,0,0.8-0.1,1.1-0.2c0.3-0.1,0.6-0.3,0.8-0.5c0.2-0.2,0.4-0.5,0.5-0.8C946.9,291,947,290.7,947,290.3z"/>
			<path class="st10" d="M960.4,286.9c0,0.4-0.1,0.7-0.4,0.9c-0.2,0.2-0.6,0.3-1.2,0.3h-4.2l-0.5,3.2c0.7-0.1,1.3-0.2,1.9-0.2
				c0.8,0,1.5,0.1,2.1,0.4c0.6,0.2,1.1,0.6,1.5,1c0.4,0.4,0.7,0.9,0.9,1.5c0.2,0.6,0.3,1.2,0.3,1.8c0,0.8-0.1,1.5-0.4,2.2
				c-0.3,0.7-0.7,1.2-1.2,1.7c-0.5,0.5-1.1,0.8-1.8,1.1s-1.4,0.4-2.3,0.4c-0.5,0-0.9,0-1.4-0.1c-0.4-0.1-0.8-0.2-1.2-0.4
				c-0.4-0.2-0.7-0.4-1-0.6c-0.3-0.2-0.6-0.4-0.9-0.7l0.8-1.1c0.2-0.2,0.4-0.4,0.7-0.4c0.2,0,0.4,0.1,0.5,0.2
				c0.2,0.1,0.4,0.2,0.6,0.4s0.5,0.3,0.8,0.4c0.3,0.1,0.7,0.2,1.1,0.2c0.5,0,0.9-0.1,1.3-0.2s0.7-0.4,0.9-0.6c0.2-0.3,0.4-0.6,0.5-1
				c0.1-0.4,0.2-0.8,0.2-1.2c0-0.8-0.2-1.5-0.7-1.9c-0.5-0.5-1.2-0.7-2.1-0.7c-0.7,0-1.5,0.1-2.2,0.4l-1.6-0.5l1.3-7.4h7.5V286.9z"
				/>
			<path class="st10" d="M967.8,294.9c-0.5,0-1-0.1-1.5-0.3c-0.5-0.2-1-0.5-1.3-0.8c-0.4-0.4-0.7-0.8-1-1.4
				c-0.2-0.5-0.4-1.2-0.4-1.9c0-0.7,0.1-1.3,0.4-1.9c0.3-0.6,0.6-1.1,1.1-1.6c0.5-0.4,1-0.8,1.6-1.1c0.6-0.3,1.3-0.4,2.1-0.4
				c0.8,0,1.5,0.1,2.1,0.4s1.1,0.6,1.6,1c0.4,0.4,0.8,1,1,1.6s0.4,1.3,0.4,2c0,0.5,0,0.9-0.1,1.3s-0.2,0.8-0.3,1.2
				c-0.2,0.4-0.3,0.8-0.5,1.1c-0.2,0.4-0.4,0.7-0.7,1.1l-3.5,5c-0.1,0.2-0.3,0.3-0.5,0.4c-0.2,0.1-0.5,0.2-0.8,0.2h-2.4l4.7-5.9
				c0.1-0.1,0.2-0.3,0.3-0.4c0.1-0.1,0.2-0.3,0.3-0.4c-0.3,0.2-0.7,0.4-1.2,0.5C968.7,294.8,968.2,294.9,967.8,294.9z M971.3,290.3
				c0-0.4-0.1-0.8-0.2-1.1c-0.1-0.3-0.3-0.6-0.5-0.8c-0.2-0.2-0.5-0.4-0.8-0.5s-0.7-0.2-1-0.2c-0.4,0-0.7,0.1-1.1,0.2
				c-0.3,0.1-0.6,0.3-0.8,0.5c-0.2,0.2-0.4,0.5-0.5,0.8s-0.2,0.7-0.2,1c0,0.8,0.2,1.5,0.7,1.9c0.4,0.4,1.1,0.7,1.9,0.7
				c0.4,0,0.8-0.1,1.1-0.2c0.3-0.1,0.6-0.3,0.8-0.5c0.2-0.2,0.4-0.5,0.5-0.8C971.3,291,971.3,290.7,971.3,290.3z"/>
			<path class="st10" d="M980.5,301.1c-0.8,0-1.5-0.1-2.1-0.3c-0.6-0.2-1.2-0.5-1.7-0.9c-0.5-0.4-0.8-0.9-1.1-1.4
				c-0.3-0.5-0.4-1.2-0.4-1.8c0-0.9,0.2-1.7,0.7-2.3s1.1-1.1,2.1-1.4c-0.7-0.3-1.3-0.7-1.7-1.3c-0.4-0.6-0.6-1.2-0.6-2
				c0-0.6,0.1-1.1,0.4-1.6s0.6-0.9,1-1.3c0.4-0.4,0.9-0.7,1.5-0.9c0.6-0.2,1.2-0.3,1.9-0.3c0.7,0,1.3,0.1,1.9,0.3
				c0.6,0.2,1.1,0.5,1.5,0.9c0.4,0.4,0.7,0.8,1,1.3s0.4,1,0.4,1.6c0,0.8-0.2,1.5-0.6,2s-0.9,1-1.7,1.3c0.9,0.3,1.6,0.8,2.1,1.4
				s0.7,1.4,0.7,2.3c0,0.7-0.1,1.3-0.4,1.8c-0.3,0.5-0.6,1-1.1,1.4c-0.5,0.4-1,0.7-1.7,0.9C982,301,981.3,301.1,980.5,301.1z
				 M980.5,299.1c0.4,0,0.8-0.1,1.1-0.2c0.3-0.1,0.6-0.3,0.8-0.5c0.2-0.2,0.4-0.5,0.5-0.8s0.2-0.6,0.2-1c0-0.8-0.2-1.5-0.7-1.9
				c-0.5-0.4-1.1-0.6-1.9-0.6s-1.4,0.2-1.9,0.6c-0.5,0.4-0.7,1.1-0.7,1.9c0,0.3,0.1,0.7,0.2,1c0.1,0.3,0.3,0.6,0.5,0.8
				c0.2,0.2,0.5,0.4,0.8,0.5C979.7,299,980.1,299.1,980.5,299.1z M980.5,292.1c0.4,0,0.8-0.1,1.1-0.2c0.3-0.1,0.5-0.3,0.7-0.5
				c0.2-0.2,0.3-0.5,0.4-0.8c0.1-0.3,0.1-0.6,0.1-0.9c0-0.3,0-0.6-0.1-0.8s-0.2-0.5-0.4-0.7c-0.2-0.2-0.4-0.4-0.7-0.5
				c-0.3-0.1-0.6-0.2-1-0.2s-0.7,0.1-1,0.2s-0.5,0.3-0.7,0.5c-0.2,0.2-0.3,0.4-0.4,0.7s-0.1,0.5-0.1,0.8c0,0.3,0,0.6,0.1,0.9
				c0.1,0.3,0.2,0.5,0.4,0.8c0.2,0.2,0.4,0.4,0.7,0.5C979.7,292,980.1,292.1,980.5,292.1z"/>
		</g>
	</g>
</g>
</svg>
