<?xml version="1.0" encoding="utf-8"?>
<!-- Generator: Adobe Illustrator 19.2.0, SVG Export Plug-In . SVG Version: 6.00 Build 0)  -->
<svg version="1.1" xmlns="http://www.w3.org/2000/svg" xmlns:xlink="http://www.w3.org/1999/xlink" x="0px" y="0px"
	 viewBox="0 0 1400 800" style="enable-background:new 0 0 1400 800;" xml:space="preserve">
<style type="text/css">
	.st0{fill:#E85D3F;}
	.st1{fill:#A22409;}
	.st2{fill:#FFFFFF;}
	.st3{fill:none;stroke:#FFFFFF;stroke-miterlimit:10;}
</style>
<g id="BG">
	<rect class="st0" width="1400" height="800"/>
</g>
<g id="Elements">
	<g>
		<path class="st1" d="M304.9,329.6h27v13.5H288v-72.8h16.9V329.6z"/>
		<path class="st1" d="M375.7,343.1c-1.5,0-2.6-0.2-3.3-0.6c-0.8-0.4-1.4-1.2-1.9-2.5l-1.1-2.9c-1.3,1.1-2.5,2.1-3.8,2.9
			s-2.4,1.5-3.7,2.1c-1.3,0.6-2.7,1-4.1,1.3c-1.4,0.3-3.1,0.4-4.8,0.4c-2.4,0-4.5-0.3-6.5-0.9c-1.9-0.6-3.6-1.5-4.9-2.7
			c-1.4-1.2-2.4-2.7-3.1-4.5c-0.7-1.8-1.1-3.9-1.1-6.2c0-1.8,0.5-3.7,1.4-5.7c0.9-1.9,2.5-3.7,4.8-5.3s5.4-2.9,9.3-4
			c3.9-1.1,8.8-1.6,14.8-1.6v-2.2c0-3.1-0.6-5.3-1.9-6.6s-3-2-5.3-2c-1.8,0-3.3,0.2-4.5,0.6c-1.2,0.4-2.2,0.9-3.1,1.4
			c-0.9,0.5-1.8,1-2.7,1.3c-0.9,0.4-1.9,0.6-3.1,0.6c-1.1,0-2-0.3-2.7-0.8c-0.8-0.5-1.3-1.2-1.8-1.9l-2.8-4.9
			c3.1-2.8,6.6-4.8,10.4-6.2c3.8-1.3,7.9-2,12.3-2c3.1,0,6,0.5,8.5,1.5c2.5,1,4.7,2.4,6.4,4.2c1.8,1.8,3.1,4,4,6.5
			c0.9,2.5,1.4,5.2,1.4,8.2v32.4H375.7z M357.9,333.6c2,0,3.8-0.3,5.2-1s3-1.8,4.5-3.4v-7.1c-3.1,0-5.6,0.2-7.6,0.6
			s-3.6,0.9-4.8,1.5c-1.2,0.6-2,1.3-2.4,2.1c-0.5,0.8-0.7,1.6-0.7,2.5c0,1.8,0.5,3,1.5,3.8C354.6,333.3,356,333.6,357.9,333.6z"/>
		<path class="st1" d="M412,343.9c-2.5,0-4.6-0.4-6.5-1.1c-1.9-0.7-3.5-1.7-4.8-3c-1.3-1.3-2.3-2.9-2.9-4.8s-1-4-1-6.2v-26.8h-4.4
			c-0.8,0-1.5-0.3-2.1-0.8s-0.8-1.3-0.8-2.3v-6l8.2-1.6l3-12.7c0.4-1.6,1.5-2.4,3.4-2.4h8.1v15.2h12.6v10.6h-12.6v25.8
			c0,1.2,0.3,2.2,0.9,3s1.4,1.2,2.5,1.2c0.6,0,1-0.1,1.4-0.2c0.4-0.1,0.7-0.2,1-0.4c0.3-0.1,0.5-0.3,0.8-0.4s0.5-0.2,0.9-0.2
			c0.5,0,0.8,0.1,1.1,0.3c0.3,0.2,0.6,0.6,0.9,1l4.7,7.3c-2,1.5-4.2,2.6-6.8,3.4S414.7,343.9,412,343.9z"/>
		<path class="st1" d="M456.9,290.4c3.9,0,7.5,0.6,10.8,1.9s6,3,8.3,5.3c2.3,2.3,4.1,5.1,5.4,8.4c1.3,3.3,1.9,7,1.9,11.1
			c0,4.1-0.6,7.9-1.9,11.2c-1.3,3.3-3.1,6.1-5.4,8.5c-2.3,2.3-5.1,4.1-8.3,5.3s-6.8,1.9-10.8,1.9c-4,0-7.6-0.6-10.8-1.9
			s-6-3-8.4-5.3c-2.4-2.3-4.2-5.1-5.5-8.5c-1.3-3.3-1.9-7-1.9-11.2c0-4.1,0.6-7.8,1.9-11.1s3.1-6.1,5.5-8.4c2.3-2.3,5.1-4.1,8.4-5.3
			S452.9,290.4,456.9,290.4z M456.9,332.4c3.6,0,6.2-1.3,7.9-3.8c1.7-2.5,2.5-6.3,2.5-11.5c0-5.1-0.8-9-2.5-11.5
			c-1.7-2.5-4.3-3.8-7.9-3.8c-3.7,0-6.3,1.2-8,3.8s-2.5,6.3-2.5,11.5c0,5.1,0.8,9,2.5,11.5S453.2,332.4,456.9,332.4z"/>
	</g>
	<g>
		<g>
			<path class="st2" d="M310.8,395h-2.7c-0.3,0-0.6-0.1-0.8-0.2c-0.2-0.2-0.3-0.4-0.4-0.6l-2.4-6.2h-11.6l-2.4,6.2
				c-0.1,0.2-0.2,0.4-0.4,0.6s-0.5,0.3-0.8,0.3h-2.7l10.3-25.8h3.5L310.8,395z M293.9,385.5h9.6l-4-10.5c-0.3-0.6-0.5-1.5-0.8-2.4
				c-0.1,0.5-0.3,0.9-0.4,1.4s-0.2,0.8-0.4,1.1L293.9,385.5z"/>
			<path class="st2" d="M314,395v-25.8h8.2c1.6,0,2.9,0.2,4.1,0.5c1.1,0.3,2.1,0.8,2.8,1.3c0.7,0.6,1.3,1.3,1.6,2.1
				c0.4,0.8,0.5,1.8,0.5,2.8c0,0.6-0.1,1.2-0.3,1.8c-0.2,0.6-0.5,1.1-0.9,1.6c-0.4,0.5-0.9,1-1.5,1.3c-0.6,0.4-1.3,0.7-2.1,1
				c1.9,0.4,3.3,1,4.3,2c1,1,1.4,2.3,1.4,3.9c0,1.1-0.2,2.1-0.6,3c-0.4,0.9-1,1.7-1.8,2.3c-0.8,0.6-1.7,1.1-2.8,1.5
				c-1.1,0.4-2.4,0.5-3.8,0.5H314z M317.5,380.8h4.6c1,0,1.8-0.1,2.6-0.3c0.7-0.2,1.3-0.5,1.8-0.9c0.5-0.4,0.8-0.8,1.1-1.4
				c0.2-0.5,0.3-1.1,0.3-1.8c0-1.5-0.5-2.6-1.4-3.3s-2.3-1.1-4.2-1.1h-4.7V380.8z M317.5,383.3v9h5.6c1,0,1.9-0.1,2.6-0.3
				c0.7-0.2,1.3-0.5,1.8-1c0.5-0.4,0.8-0.9,1-1.5s0.3-1.2,0.3-1.9c0-1.3-0.5-2.4-1.4-3.2c-0.9-0.8-2.4-1.2-4.3-1.2H317.5z"/>
			<path class="st2" d="M355.5,389.7c0.2,0,0.4,0.1,0.5,0.2l1.4,1.5c-1.1,1.2-2.3,2.2-3.8,2.9c-1.5,0.7-3.3,1-5.4,1
				c-1.9,0-3.5-0.3-5.1-1s-2.8-1.5-3.9-2.7c-1.1-1.2-1.9-2.5-2.5-4.2s-0.9-3.4-0.9-5.3c0-1.9,0.3-3.7,0.9-5.3c0.6-1.6,1.5-3,2.7-4.2
				c1.1-1.2,2.5-2.1,4.1-2.7c1.6-0.6,3.3-1,5.3-1c1.9,0,3.5,0.3,4.9,0.9s2.6,1.4,3.7,2.4l-1.1,1.6c-0.1,0.1-0.2,0.2-0.3,0.3
				c-0.1,0.1-0.3,0.1-0.5,0.1c-0.2,0-0.3-0.1-0.5-0.2c-0.2-0.1-0.4-0.3-0.6-0.4c-0.2-0.2-0.5-0.3-0.8-0.5c-0.3-0.2-0.7-0.4-1.2-0.5
				c-0.4-0.2-1-0.3-1.5-0.4c-0.6-0.1-1.3-0.2-2-0.2c-1.4,0-2.6,0.2-3.8,0.7c-1.1,0.5-2.1,1.1-3,2s-1.5,1.9-1.9,3.2s-0.7,2.7-0.7,4.2
				c0,1.6,0.2,3,0.7,4.3s1.1,2.3,1.9,3.2c0.8,0.9,1.7,1.5,2.8,2c1.1,0.5,2.3,0.7,3.5,0.7c0.8,0,1.5,0,2.1-0.1
				c0.6-0.1,1.2-0.2,1.7-0.4c0.5-0.2,1-0.4,1.5-0.7s0.9-0.6,1.4-1.1C355.1,389.8,355.3,389.7,355.5,389.7z"/>
			<path class="st2" d="M384.3,382.1c0,1.9-0.3,3.7-0.9,5.3c-0.6,1.6-1.5,2.9-2.6,4.1s-2.5,2-4,2.6c-1.6,0.6-3.3,0.9-5.2,0.9H362
				v-25.8h9.6c1.9,0,3.6,0.3,5.2,0.9c1.6,0.6,2.9,1.5,4,2.6s2,2.5,2.6,4.1C384,378.5,384.3,380.2,384.3,382.1z M380.8,382.1
				c0-1.6-0.2-3-0.6-4.2s-1-2.3-1.8-3.2c-0.8-0.9-1.8-1.5-2.9-2s-2.4-0.7-3.8-0.7h-6.1v20.1h6.1c1.4,0,2.6-0.2,3.8-0.7
				s2.1-1.1,2.9-2c0.8-0.9,1.4-1.9,1.8-3.2S380.8,383.7,380.8,382.1z"/>
			<path class="st2" d="M405,369.2v2.8h-12.4v8.6h10v2.7h-10v8.8H405v2.8h-15.9v-25.8H405z"/>
			<path class="st2" d="M425.9,369.2v2.8h-12.4v9h10.6v2.8h-10.6V395H410v-25.8H425.9z"/>
			<path class="st2" d="M441.9,392.5c0.7,0,1.3,0,1.9-0.1c0.6-0.1,1.1-0.2,1.6-0.3c0.5-0.1,1-0.3,1.5-0.5c0.5-0.2,0.9-0.4,1.4-0.6
				v-5.7h-4c-0.2,0-0.4-0.1-0.5-0.2c-0.1-0.1-0.2-0.3-0.2-0.5v-2h7.9v9.9c-0.6,0.5-1.3,0.9-2,1.2c-0.7,0.3-1.5,0.6-2.2,0.9
				c-0.8,0.2-1.7,0.4-2.6,0.5c-0.9,0.1-1.9,0.2-3,0.2c-1.9,0-3.6-0.3-5.1-1c-1.6-0.6-2.9-1.5-4-2.7c-1.1-1.2-2-2.5-2.6-4.2
				s-0.9-3.4-0.9-5.3c0-2,0.3-3.8,0.9-5.4c0.6-1.6,1.5-3,2.6-4.2c1.1-1.2,2.5-2.1,4.2-2.7s3.4-1,5.5-1c1,0,2,0.1,2.8,0.2
				c0.9,0.2,1.7,0.4,2.4,0.6s1.4,0.6,2.1,1c0.6,0.4,1.2,0.9,1.8,1.4l-1,1.6c-0.2,0.3-0.5,0.5-0.8,0.5c-0.2,0-0.4-0.1-0.6-0.2
				c-0.3-0.2-0.6-0.4-1-0.6c-0.4-0.2-0.8-0.5-1.4-0.7s-1.2-0.4-1.9-0.6c-0.7-0.2-1.6-0.2-2.6-0.2c-1.5,0-2.8,0.2-3.9,0.7
				c-1.2,0.5-2.2,1.2-3,2c-0.8,0.9-1.5,2-1.9,3.2c-0.4,1.3-0.7,2.7-0.7,4.2c0,1.6,0.2,3.1,0.7,4.4c0.5,1.3,1.1,2.4,2,3.2
				c0.8,0.9,1.8,1.6,3,2C439.2,392.3,440.5,392.5,441.9,392.5z"/>
			<path class="st2" d="M477.7,395h-3.5v-11.7h-13.9V395h-3.5v-25.8h3.5v11.5h13.9v-11.5h3.5V395z"/>
			<path class="st2" d="M488.2,395h-3.5v-25.8h3.5V395z"/>
			<path class="st2" d="M504.8,386.1c0,1.4-0.2,2.7-0.5,3.9c-0.4,1.1-0.9,2.1-1.6,2.9c-0.7,0.8-1.5,1.4-2.5,1.8
				c-1,0.4-2.2,0.6-3.5,0.6c-1.2,0-2.4-0.2-3.6-0.5c0-0.3,0.1-0.7,0.1-1s0.1-0.7,0.1-1c0-0.2,0.1-0.4,0.2-0.5s0.3-0.2,0.6-0.2
				c0.2,0,0.5,0.1,0.9,0.2c0.4,0.1,0.8,0.2,1.4,0.2c0.8,0,1.5-0.1,2.1-0.4c0.6-0.2,1.1-0.6,1.6-1.1c0.4-0.5,0.8-1.1,1-1.9
				c0.2-0.8,0.3-1.7,0.3-2.8v-17h3.5V386.1z"/>
			<path class="st2" d="M514.9,380.5h1.3c0.5,0,0.8-0.1,1.1-0.2c0.3-0.1,0.5-0.3,0.8-0.6l8.6-9.7c0.3-0.3,0.5-0.5,0.8-0.6
				c0.2-0.1,0.6-0.2,0.9-0.2h3l-9.8,11.1c-0.3,0.3-0.5,0.5-0.7,0.7c-0.2,0.2-0.5,0.3-0.7,0.5c0.3,0.1,0.6,0.3,0.9,0.5
				s0.5,0.5,0.8,0.8L532,395h-3c-0.2,0-0.4,0-0.6-0.1c-0.2,0-0.3-0.1-0.4-0.1c-0.1-0.1-0.2-0.1-0.3-0.2c-0.1-0.1-0.2-0.2-0.3-0.3
				l-8.9-10.2c-0.1-0.1-0.3-0.3-0.4-0.4c-0.1-0.1-0.2-0.2-0.4-0.3c-0.2-0.1-0.3-0.1-0.5-0.2c-0.2,0-0.4,0-0.7,0h-1.6V395h-3.5v-25.8
				h3.5V380.5z"/>
			<path class="st2" d="M539.1,392.1h11.2v2.9h-14.7v-25.8h3.5V392.1z"/>
			<path class="st2" d="M567.2,386.6c0.1,0.3,0.2,0.6,0.4,1c0.1-0.3,0.2-0.7,0.4-1s0.3-0.6,0.5-0.9l8.7-15.9
				c0.2-0.3,0.3-0.4,0.5-0.5c0.2-0.1,0.4-0.1,0.7-0.1h2.6V395h-3.1v-19c0-0.3,0-0.5,0-0.8s0-0.6,0.1-0.9l-8.8,16.1
				c-0.3,0.5-0.7,0.8-1.3,0.8h-0.5c-0.5,0-1-0.3-1.3-0.8l-9-16.2c0,0.3,0.1,0.6,0.1,0.9c0,0.3,0,0.6,0,0.8v19h-3.1v-25.8h2.6
				c0.3,0,0.6,0,0.7,0.1c0.2,0.1,0.3,0.2,0.5,0.5l8.9,15.9C566.9,386,567.1,386.3,567.2,386.6z"/>
			<path class="st2" d="M589.7,369.4c0.2,0.1,0.3,0.2,0.5,0.5l14.9,19.4c0-0.3-0.1-0.6-0.1-0.9s0-0.6,0-0.9v-18.3h3.1V395h-1.8
				c-0.3,0-0.5,0-0.7-0.1c-0.2-0.1-0.4-0.3-0.5-0.5L590.2,375c0,0.3,0,0.6,0.1,0.9s0,0.6,0,0.8V395h-3.1v-25.8h1.8
				C589.3,369.2,589.5,369.3,589.7,369.4z"/>
			<path class="st2" d="M616.9,369.4c0.2,0.1,0.3,0.2,0.5,0.5l14.9,19.4c0-0.3-0.1-0.6-0.1-0.9s0-0.6,0-0.9v-18.3h3.1V395h-1.8
				c-0.3,0-0.5,0-0.7-0.1c-0.2-0.1-0.4-0.3-0.5-0.5L617.4,375c0,0.3,0,0.6,0.1,0.9s0,0.6,0,0.8V395h-3.1v-25.8h1.8
				C616.5,369.2,616.7,369.3,616.9,369.4z M627.5,365.1c0.4,0,0.7-0.1,1-0.4c0.2-0.2,0.3-0.6,0.4-1h1.8c0,0.5-0.1,1-0.2,1.4
				s-0.3,0.8-0.6,1.1c-0.3,0.3-0.6,0.6-0.9,0.7s-0.8,0.3-1.3,0.3c-0.4,0-0.8-0.1-1.2-0.2c-0.4-0.2-0.8-0.3-1.1-0.5
				c-0.4-0.2-0.7-0.4-1-0.5c-0.3-0.2-0.6-0.2-0.9-0.2c-0.4,0-0.7,0.1-0.9,0.4c-0.2,0.3-0.3,0.6-0.4,1h-1.8c0-0.5,0.1-1,0.2-1.4
				c0.1-0.4,0.3-0.8,0.6-1.1c0.3-0.3,0.6-0.6,1-0.7c0.4-0.2,0.8-0.3,1.3-0.3c0.4,0,0.8,0.1,1.2,0.2c0.4,0.2,0.7,0.3,1.1,0.5
				c0.3,0.2,0.7,0.4,1,0.5C626.9,365,627.2,365.1,627.5,365.1z"/>
			<path class="st2" d="M665.6,382.1c0,1.9-0.3,3.7-0.9,5.3c-0.6,1.6-1.5,3-2.6,4.2c-1.1,1.2-2.5,2.1-4,2.7c-1.6,0.6-3.3,1-5.2,1
				c-1.9,0-3.6-0.3-5.2-1c-1.6-0.6-2.9-1.5-4-2.7c-1.1-1.2-2-2.6-2.6-4.2c-0.6-1.6-0.9-3.4-0.9-5.3c0-1.9,0.3-3.7,0.9-5.3
				c0.6-1.6,1.5-3,2.6-4.2s2.5-2.1,4-2.7c1.6-0.6,3.3-1,5.2-1c1.9,0,3.6,0.3,5.2,1c1.6,0.6,2.9,1.6,4,2.7s2,2.6,2.6,4.2
				S665.6,380.2,665.6,382.1z M662,382.1c0-1.6-0.2-3-0.6-4.3c-0.4-1.3-1-2.3-1.8-3.2s-1.8-1.5-2.9-2c-1.1-0.5-2.4-0.7-3.8-0.7
				c-1.4,0-2.6,0.2-3.8,0.7c-1.1,0.5-2.1,1.1-2.9,2s-1.4,1.9-1.8,3.2c-0.4,1.3-0.6,2.7-0.6,4.3s0.2,3,0.6,4.3c0.4,1.3,1,2.3,1.8,3.2
				c0.8,0.9,1.8,1.5,2.9,2s2.4,0.7,3.8,0.7c1.4,0,2.7-0.2,3.8-0.7s2.1-1.1,2.9-2c0.8-0.9,1.4-1.9,1.8-3.2
				C661.8,385.2,662,383.7,662,382.1z"/>
			<path class="st2" d="M674.2,385.4v9.6h-3.5v-25.8h7.6c1.6,0,3.1,0.2,4.3,0.6c1.2,0.4,2.2,0.9,3,1.6c0.8,0.7,1.4,1.5,1.8,2.5
				c0.4,1,0.6,2.1,0.6,3.3c0,1.2-0.2,2.3-0.6,3.3s-1,1.9-1.8,2.6c-0.8,0.7-1.8,1.3-3,1.7c-1.2,0.4-2.6,0.6-4.1,0.6H674.2z
				 M674.2,382.6h4.1c1,0,1.9-0.1,2.6-0.4c0.8-0.3,1.4-0.6,1.9-1.1c0.5-0.5,0.9-1,1.2-1.7c0.3-0.7,0.4-1.4,0.4-2.2
				c0-1.6-0.5-2.9-1.5-3.9c-1-0.9-2.5-1.4-4.6-1.4h-4.1V382.6z"/>
			<path class="st2" d="M716.3,382.1c0,1.2-0.1,2.4-0.4,3.5s-0.6,2.1-1.1,3.1c-0.5,0.9-1,1.8-1.7,2.6c-0.7,0.8-1.4,1.4-2.3,2
				l6.6,7.1h-2.9c-0.4,0-0.8-0.1-1.2-0.2c-0.3-0.1-0.6-0.3-0.9-0.6l-4.5-4.9c-0.7,0.2-1.4,0.4-2.1,0.5c-0.7,0.1-1.5,0.2-2.3,0.2
				c-1.9,0-3.6-0.3-5.2-1c-1.6-0.6-2.9-1.5-4-2.7c-1.1-1.2-2-2.6-2.6-4.2c-0.6-1.6-0.9-3.4-0.9-5.3c0-1.9,0.3-3.7,0.9-5.3
				c0.6-1.6,1.5-3,2.6-4.2s2.5-2.1,4-2.7c1.6-0.6,3.3-1,5.2-1c1.9,0,3.6,0.3,5.2,1c1.6,0.6,2.9,1.6,4,2.7s2,2.6,2.6,4.2
				S716.3,380.2,716.3,382.1z M712.7,382.1c0-1.6-0.2-3-0.6-4.3c-0.4-1.3-1-2.3-1.8-3.2s-1.8-1.5-2.9-2c-1.1-0.5-2.4-0.7-3.8-0.7
				c-1.4,0-2.6,0.2-3.8,0.7c-1.1,0.5-2.1,1.1-2.9,2s-1.4,1.9-1.8,3.2c-0.4,1.3-0.6,2.7-0.6,4.3s0.2,3,0.6,4.3c0.4,1.3,1,2.3,1.8,3.2
				c0.8,0.9,1.8,1.5,2.9,2s2.4,0.7,3.8,0.7c1.4,0,2.7-0.2,3.8-0.7s2.1-1.1,2.9-2c0.8-0.9,1.4-1.9,1.8-3.2
				C712.5,385.2,712.7,383.7,712.7,382.1z"/>
			<path class="st2" d="M724.9,384.3V395h-3.5v-25.8h7.3c1.6,0,3,0.2,4.2,0.5c1.2,0.3,2.2,0.8,2.9,1.4c0.8,0.6,1.3,1.4,1.7,2.3
				c0.4,0.9,0.6,1.9,0.6,3c0,0.9-0.1,1.8-0.4,2.6s-0.7,1.5-1.3,2.1s-1.2,1.2-2,1.6c-0.8,0.4-1.7,0.8-2.7,1c0.4,0.3,0.8,0.6,1.2,1.1
				l7.5,10.2h-3.1c-0.6,0-1.1-0.2-1.4-0.7l-6.7-9.2c-0.2-0.3-0.4-0.5-0.7-0.6c-0.2-0.1-0.6-0.2-1.1-0.2H724.9z M724.9,381.7h3.7
				c1,0,1.9-0.1,2.7-0.4c0.8-0.2,1.4-0.6,1.9-1c0.5-0.5,0.9-1,1.2-1.6c0.3-0.6,0.4-1.3,0.4-2.1c0-1.5-0.5-2.7-1.5-3.5
				c-1-0.8-2.5-1.2-4.5-1.2h-3.8V381.7z"/>
			<path class="st2" d="M757.5,373.3c-0.1,0.2-0.2,0.3-0.3,0.4c-0.1,0.1-0.3,0.1-0.5,0.1c-0.2,0-0.4-0.1-0.7-0.3
				c-0.3-0.2-0.6-0.4-1-0.7s-0.9-0.5-1.5-0.7s-1.3-0.3-2.1-0.3c-0.8,0-1.5,0.1-2.1,0.3c-0.6,0.2-1.1,0.5-1.5,0.9
				c-0.4,0.4-0.7,0.8-0.9,1.3s-0.3,1-0.3,1.6c0,0.7,0.2,1.3,0.5,1.8c0.4,0.5,0.8,0.9,1.4,1.2s1.2,0.6,2,0.9c0.7,0.2,1.5,0.5,2.3,0.8
				c0.8,0.3,1.5,0.6,2.3,0.9c0.7,0.3,1.4,0.7,2,1.3s1,1.1,1.4,1.9c0.4,0.7,0.5,1.6,0.5,2.7c0,1.1-0.2,2.2-0.6,3.2
				c-0.4,1-0.9,1.9-1.7,2.6c-0.7,0.7-1.6,1.3-2.7,1.7s-2.3,0.6-3.7,0.6c-1.7,0-3.2-0.3-4.6-0.9c-1.4-0.6-2.5-1.4-3.5-2.5l1-1.7
				c0.1-0.1,0.2-0.2,0.4-0.3c0.1-0.1,0.3-0.1,0.5-0.1c0.3,0,0.5,0.1,0.9,0.4c0.3,0.3,0.7,0.6,1.2,0.9c0.5,0.3,1.1,0.6,1.8,0.9
				c0.7,0.3,1.5,0.4,2.5,0.4c0.8,0,1.6-0.1,2.2-0.3c0.6-0.2,1.2-0.5,1.6-1s0.8-0.9,1-1.5c0.2-0.6,0.4-1.2,0.4-1.9
				c0-0.8-0.2-1.4-0.5-1.9c-0.4-0.5-0.8-0.9-1.4-1.3c-0.6-0.3-1.2-0.6-2-0.9c-0.7-0.2-1.5-0.5-2.3-0.7c-0.8-0.2-1.5-0.5-2.3-0.9
				c-0.7-0.3-1.4-0.7-2-1.3c-0.6-0.5-1-1.2-1.4-1.9c-0.4-0.8-0.5-1.7-0.5-2.9c0-0.9,0.2-1.8,0.5-2.6c0.4-0.9,0.9-1.6,1.5-2.3
				c0.7-0.7,1.5-1.2,2.5-1.6c1-0.4,2.1-0.6,3.4-0.6c1.4,0,2.8,0.2,3.9,0.7c1.2,0.5,2.2,1.1,3.1,2L757.5,373.3z"/>
			<path class="st2" d="M780.9,369.2v2.9h-8.3V395h-3.5v-22.9h-8.4v-2.9H780.9z"/>
			<path class="st2" d="M794.6,392.3c1.1,0,2-0.2,2.9-0.5c0.8-0.4,1.6-0.9,2.1-1.5c0.6-0.6,1-1.4,1.3-2.3c0.3-0.9,0.5-1.9,0.5-3
				v-15.7h3.5v15.7c0,1.5-0.2,2.9-0.7,4.1c-0.5,1.3-1.2,2.4-2,3.3s-2,1.7-3.2,2.2c-1.3,0.5-2.7,0.8-4.3,0.8s-3-0.3-4.3-0.8
				c-1.3-0.5-2.4-1.3-3.2-2.2s-1.6-2-2-3.3c-0.5-1.3-0.7-2.7-0.7-4.1v-15.7h3.5v15.7c0,1.1,0.2,2.1,0.5,3c0.3,0.9,0.7,1.7,1.3,2.3
				c0.6,0.6,1.3,1.2,2.1,1.5C792.6,392.1,793.5,392.3,794.6,392.3z"/>
			<path class="st2" d="M807.9,369.2h2.8c0.3,0,0.6,0.1,0.8,0.2c0.2,0.2,0.3,0.4,0.4,0.6l7.3,18.2c0.2,0.4,0.3,0.9,0.5,1.3
				c0.1,0.5,0.3,1,0.4,1.5c0.1-0.5,0.2-1,0.4-1.5c0.1-0.5,0.3-0.9,0.4-1.3l7.3-18.2c0.1-0.2,0.2-0.4,0.4-0.6s0.5-0.3,0.8-0.3h2.8
				L821.5,395h-3.1L807.9,369.2z"/>
			<path class="st2" d="M832.5,369.2h2.9c0.3,0,0.6,0.1,0.8,0.2c0.2,0.2,0.3,0.4,0.4,0.6l5.3,17.9c0.1,0.3,0.2,0.7,0.3,1
				s0.2,0.8,0.2,1.2c0.1-0.4,0.2-0.8,0.3-1.2s0.2-0.7,0.3-1l6.1-17.9c0.1-0.2,0.2-0.4,0.4-0.6s0.5-0.3,0.8-0.3h1
				c0.3,0,0.6,0.1,0.8,0.2c0.2,0.2,0.3,0.4,0.4,0.6l6,17.9c0.2,0.6,0.4,1.3,0.6,2.1c0.1-0.4,0.1-0.8,0.2-1.1c0.1-0.4,0.1-0.7,0.2-1
				l5.3-17.9c0.1-0.2,0.2-0.4,0.4-0.6s0.5-0.3,0.8-0.3h2.7l-8,25.8h-3.1l-6.5-19.7c-0.1-0.4-0.3-0.8-0.4-1.3
				c-0.1,0.2-0.1,0.5-0.2,0.7c-0.1,0.2-0.1,0.4-0.2,0.6l-6.6,19.7h-3.1L832.5,369.2z"/>
			<path class="st2" d="M878,381.8l-8.5-12.5h3.5c0.3,0,0.4,0,0.6,0.1s0.2,0.2,0.3,0.4l6.7,10.3c0.1-0.3,0.2-0.5,0.4-0.8l6.4-9.4
				c0.1-0.2,0.2-0.3,0.4-0.4c0.1-0.1,0.3-0.2,0.5-0.2h3.3l-8.5,12.4l8.8,13.4h-3.5c-0.3,0-0.5-0.1-0.6-0.2c-0.2-0.1-0.3-0.3-0.4-0.5
				l-6.9-10.8c-0.1,0.3-0.2,0.5-0.3,0.7l-6.7,10.1c-0.1,0.2-0.2,0.3-0.4,0.5c-0.1,0.1-0.3,0.2-0.6,0.2h-3.2L878,381.8z"/>
			<path class="st2" d="M905.1,384.8V395h-3.5v-10.3l-9.5-15.5h3.1c0.3,0,0.6,0.1,0.7,0.2c0.2,0.2,0.3,0.3,0.5,0.6l5.9,10
				c0.2,0.4,0.4,0.8,0.6,1.2s0.3,0.7,0.4,1.1c0.1-0.4,0.3-0.7,0.4-1.1s0.4-0.8,0.6-1.2l5.9-10c0.1-0.2,0.3-0.4,0.4-0.5
				c0.2-0.2,0.4-0.3,0.7-0.3h3.1L905.1,384.8z"/>
			<path class="st2" d="M935.8,369.2v1.3c0,0.4-0.1,0.8-0.4,1.2l-14.6,20.5h14.7v2.8h-19.3v-1.4c0-0.4,0.1-0.7,0.3-1l14.6-20.6
				h-14.3v-2.8H935.8z"/>
			<path class="st2" d="M302.4,438.2H301c-0.3,0-0.6,0-0.8-0.1c-0.2-0.1-0.3-0.3-0.4-0.6l-0.4-1.7c-0.5,0.4-0.9,0.8-1.4,1.2
				c-0.5,0.3-0.9,0.6-1.4,0.9c-0.5,0.2-1,0.4-1.6,0.5c-0.6,0.1-1.2,0.2-1.9,0.2c-0.7,0-1.4-0.1-2-0.3s-1.2-0.5-1.6-0.9
				s-0.8-0.9-1.1-1.5c-0.3-0.6-0.4-1.3-0.4-2.2c0-0.7,0.2-1.4,0.6-2.1c0.4-0.7,1-1.3,1.9-1.8s2-0.9,3.5-1.3c1.4-0.3,3.2-0.5,5.2-0.5
				v-1.4c0-1.4-0.3-2.5-0.9-3.2c-0.6-0.7-1.5-1.1-2.7-1.1c-0.8,0-1.4,0.1-2,0.3s-1,0.4-1.4,0.7c-0.4,0.2-0.7,0.5-1,0.7
				c-0.3,0.2-0.6,0.3-0.8,0.3c-0.2,0-0.4-0.1-0.6-0.2s-0.3-0.3-0.4-0.4l-0.6-1c1-1,2.1-1.7,3.3-2.2c1.2-0.5,2.5-0.7,3.9-0.7
				c1,0,1.9,0.2,2.7,0.5s1.5,0.8,2,1.4c0.5,0.6,0.9,1.3,1.2,2.2c0.3,0.9,0.4,1.8,0.4,2.8V438.2z M294.1,436.3c0.6,0,1.1-0.1,1.5-0.2
				s0.9-0.3,1.3-0.5c0.4-0.2,0.8-0.5,1.2-0.8s0.7-0.6,1.1-1v-3.8c-1.5,0-2.7,0.1-3.8,0.3c-1,0.2-1.9,0.4-2.5,0.7
				c-0.6,0.3-1.1,0.7-1.4,1.1s-0.4,0.9-0.4,1.4c0,0.5,0.1,0.9,0.2,1.2c0.2,0.4,0.4,0.6,0.6,0.9s0.6,0.4,0.9,0.5
				C293.3,436.2,293.7,436.3,294.1,436.3z"/>
			<path class="st2" d="M307.4,438.2v-26.5h3.2v10.9c0.8-0.9,1.6-1.6,2.6-2.1c1-0.5,2.1-0.8,3.4-0.8c1.1,0,2,0.2,2.9,0.6
				c0.9,0.4,1.6,1,2.2,1.8c0.6,0.8,1.1,1.8,1.4,2.9c0.3,1.2,0.5,2.5,0.5,4c0,1.3-0.2,2.6-0.5,3.8c-0.4,1.2-0.9,2.2-1.6,3
				c-0.7,0.8-1.5,1.5-2.5,2c-1,0.5-2.1,0.7-3.3,0.7c-1.2,0-2.2-0.2-3-0.7c-0.8-0.5-1.5-1.1-2.2-1.9l-0.2,1.7
				c-0.1,0.5-0.4,0.7-0.8,0.7H307.4z M315.5,422.3c-1,0-2,0.2-2.7,0.7c-0.8,0.5-1.5,1.2-2.2,2v8.8c0.6,0.8,1.2,1.3,1.9,1.7
				s1.5,0.5,2.3,0.5c1.7,0,3-0.6,3.9-1.8c0.9-1.2,1.4-2.9,1.4-5.2c0-1.2-0.1-2.2-0.3-3.1c-0.2-0.9-0.5-1.6-0.9-2.1
				c-0.4-0.5-0.9-0.9-1.5-1.2S316.3,422.3,315.5,422.3z"/>
			<path class="st2" d="M339.9,423.2c-0.1,0.1-0.2,0.2-0.3,0.3c-0.1,0.1-0.2,0.1-0.4,0.1c-0.2,0-0.4-0.1-0.6-0.2
				c-0.2-0.2-0.5-0.3-0.8-0.5c-0.3-0.2-0.7-0.3-1.2-0.5s-1-0.2-1.7-0.2c-0.9,0-1.7,0.2-2.4,0.5c-0.7,0.3-1.3,0.8-1.7,1.4
				c-0.5,0.6-0.8,1.3-1,2.2c-0.2,0.9-0.4,1.8-0.4,2.9c0,1.1,0.1,2.1,0.4,2.9c0.3,0.9,0.6,1.6,1.1,2.2c0.5,0.6,1,1,1.7,1.3
				c0.7,0.3,1.4,0.5,2.2,0.5c0.8,0,1.4-0.1,1.9-0.3c0.5-0.2,0.9-0.4,1.3-0.6s0.6-0.4,0.8-0.6c0.2-0.2,0.4-0.3,0.6-0.3
				c0.3,0,0.5,0.1,0.6,0.3l0.9,1.2c-0.8,1-1.8,1.7-3,2.1c-1.2,0.5-2.4,0.7-3.8,0.7c-1.1,0-2.2-0.2-3.2-0.6c-1-0.4-1.8-1-2.5-1.8
				c-0.7-0.8-1.3-1.8-1.7-2.9c-0.4-1.2-0.6-2.5-0.6-4c0-1.4,0.2-2.6,0.6-3.8c0.4-1.2,0.9-2.1,1.7-3c0.7-0.8,1.6-1.5,2.7-2
				c1.1-0.5,2.3-0.7,3.7-0.7c1.3,0,2.4,0.2,3.4,0.6c1,0.4,1.9,1,2.6,1.8L339.9,423.2z"/>
			<path class="st2" d="M357.1,438.2c-0.5,0-0.7-0.2-0.9-0.7l-0.3-2.2c-0.8,0.9-1.7,1.7-2.7,2.3c-1,0.6-2.2,0.9-3.4,0.9
				c-1,0-2-0.2-2.8-0.6c-0.9-0.4-1.6-1-2.2-1.8c-0.6-0.8-1.1-1.8-1.4-2.9s-0.5-2.5-0.5-4c0-1.3,0.2-2.6,0.5-3.8
				c0.4-1.2,0.9-2.2,1.6-3c0.7-0.9,1.5-1.5,2.5-2s2.1-0.7,3.3-0.7c1.1,0,2.1,0.2,2.9,0.6s1.5,0.9,2.1,1.6v-10.1h3.2v26.5H357.1z
				 M350.9,435.9c1,0,2-0.2,2.7-0.7c0.8-0.5,1.5-1.2,2.2-2v-8.8c-0.6-0.8-1.2-1.3-1.9-1.7c-0.7-0.3-1.5-0.5-2.3-0.5
				c-1.7,0-3,0.6-3.9,1.8c-0.9,1.2-1.4,2.9-1.4,5.2c0,1.2,0.1,2.2,0.3,3.1s0.5,1.5,0.9,2.1c0.4,0.5,0.9,0.9,1.5,1.2
				S350.1,435.9,350.9,435.9z"/>
			<path class="st2" d="M371.6,419.7c1.1,0,2.1,0.2,3,0.5c0.9,0.4,1.7,0.9,2.4,1.6c0.7,0.7,1.2,1.5,1.6,2.6c0.4,1,0.6,2.2,0.6,3.5
				c0,0.5-0.1,0.8-0.2,1c-0.1,0.2-0.3,0.3-0.6,0.3h-12.1c0,1.2,0.2,2.2,0.5,3c0.3,0.9,0.7,1.6,1.2,2.1c0.5,0.6,1.1,1,1.8,1.3
				c0.7,0.3,1.5,0.4,2.3,0.4c0.8,0,1.5-0.1,2.1-0.3c0.6-0.2,1.1-0.4,1.5-0.6c0.4-0.2,0.8-0.4,1.1-0.6c0.3-0.2,0.5-0.3,0.7-0.3
				c0.3,0,0.5,0.1,0.6,0.3l0.9,1.2c-0.4,0.5-0.9,0.9-1.4,1.3c-0.6,0.4-1.1,0.6-1.8,0.9c-0.6,0.2-1.3,0.4-2,0.5s-1.3,0.2-2,0.2
				c-1.3,0-2.4-0.2-3.5-0.6c-1.1-0.4-2-1-2.8-1.9c-0.8-0.8-1.4-1.8-1.8-3.1c-0.4-1.2-0.6-2.6-0.6-4.2c0-1.3,0.2-2.5,0.6-3.6
				c0.4-1.1,1-2.1,1.7-2.9c0.7-0.8,1.6-1.4,2.7-1.9C369.1,419.9,370.2,419.7,371.6,419.7z M371.6,422.1c-1.5,0-2.8,0.4-3.7,1.3
				c-0.9,0.9-1.4,2.1-1.7,3.7h9.9c0-0.7-0.1-1.4-0.3-2c-0.2-0.6-0.5-1.2-0.9-1.6c-0.4-0.5-0.9-0.8-1.4-1
				C373,422.2,372.4,422.1,371.6,422.1z"/>
			<path class="st2" d="M383.9,438.2v-15.5l-2-0.2c-0.3-0.1-0.5-0.2-0.6-0.3s-0.2-0.3-0.2-0.5v-1.3h2.9v-1.8c0-1,0.1-2,0.4-2.8
				c0.3-0.8,0.7-1.5,1.3-2.1c0.5-0.6,1.2-1,2-1.3s1.6-0.4,2.6-0.4c0.8,0,1.6,0.1,2.3,0.4l-0.1,1.6c0,0.2-0.1,0.4-0.3,0.4
				c-0.2,0-0.5,0.1-0.8,0.1h-0.6c-0.6,0-1.1,0.1-1.5,0.2c-0.5,0.1-0.8,0.4-1.2,0.7s-0.6,0.8-0.7,1.3s-0.3,1.2-0.3,2v1.7h5.3v2.3
				h-5.2v15.6H383.9z"/>
			<path class="st2" d="M401.5,419.7c0.8,0,1.5,0.1,2.2,0.3c0.7,0.2,1.3,0.4,1.9,0.8h4.9v1.2c0,0.4-0.3,0.6-0.8,0.8l-2.1,0.3
				c0.4,0.8,0.6,1.7,0.6,2.6c0,0.9-0.2,1.7-0.5,2.4c-0.3,0.7-0.8,1.3-1.4,1.9c-0.6,0.5-1.3,0.9-2.2,1.2c-0.8,0.3-1.7,0.4-2.7,0.4
				c-0.9,0-1.7-0.1-2.4-0.3c-0.4,0.2-0.7,0.5-0.9,0.8c-0.2,0.3-0.3,0.6-0.3,0.8c0,0.4,0.2,0.8,0.5,1c0.3,0.2,0.8,0.4,1.4,0.5
				c0.6,0.1,1.2,0.1,2,0.1c0.7,0,1.5,0,2.2,0c0.8,0,1.5,0.1,2.2,0.2c0.7,0.1,1.4,0.4,2,0.7s1,0.7,1.4,1.3c0.3,0.5,0.5,1.2,0.5,2.1
				c0,0.8-0.2,1.6-0.6,2.3c-0.4,0.7-1,1.4-1.7,2c-0.7,0.6-1.6,1-2.7,1.4c-1.1,0.3-2.2,0.5-3.6,0.5s-2.5-0.1-3.5-0.4
				c-1-0.3-1.8-0.6-2.5-1.1s-1.2-1-1.5-1.5c-0.3-0.6-0.5-1.2-0.5-1.8c0-0.9,0.3-1.7,0.9-2.3c0.6-0.6,1.4-1.1,2.3-1.5
				c-0.5-0.2-0.9-0.6-1.2-1c-0.3-0.4-0.5-0.9-0.5-1.6c0-0.3,0-0.5,0.1-0.8c0.1-0.3,0.2-0.6,0.4-0.8c0.2-0.3,0.4-0.5,0.7-0.8
				c0.3-0.3,0.6-0.5,1-0.7c-0.9-0.5-1.6-1.2-2.1-2c-0.5-0.8-0.8-1.8-0.8-2.9c0-0.9,0.2-1.7,0.5-2.4c0.3-0.7,0.8-1.3,1.4-1.9
				c0.6-0.5,1.3-0.9,2.2-1.2C399.6,419.8,400.5,419.7,401.5,419.7z M407.2,439.2c0-0.5-0.1-0.8-0.4-1.1s-0.6-0.5-1-0.7
				c-0.4-0.2-0.9-0.3-1.5-0.3s-1.2-0.1-1.8-0.1s-1.3,0-1.9,0c-0.6,0-1.3-0.1-1.9-0.2c-0.7,0.3-1.2,0.7-1.7,1.2
				c-0.4,0.5-0.6,1-0.6,1.7c0,0.4,0.1,0.8,0.3,1.1c0.2,0.4,0.5,0.7,1,0.9c0.4,0.3,1,0.5,1.6,0.6c0.7,0.1,1.4,0.2,2.3,0.2
				c0.9,0,1.6-0.1,2.3-0.2c0.7-0.2,1.3-0.4,1.7-0.7c0.5-0.3,0.8-0.6,1.1-1C407,440.1,407.2,439.7,407.2,439.2z M401.5,429.3
				c0.6,0,1.2-0.1,1.7-0.3c0.5-0.2,0.9-0.4,1.3-0.8c0.3-0.3,0.6-0.7,0.8-1.2c0.2-0.5,0.3-0.9,0.3-1.5c0-1.1-0.3-2-1-2.7s-1.7-1-3-1
				c-1.3,0-2.3,0.3-2.9,1c-0.7,0.7-1,1.5-1,2.7c0,0.5,0.1,1,0.3,1.5c0.2,0.4,0.4,0.8,0.8,1.2c0.3,0.3,0.8,0.6,1.2,0.8
				C400.3,429.2,400.8,429.3,401.5,429.3z"/>
			<path class="st2" d="M413.7,438.2v-26.5h3.2v10.7c0.8-0.8,1.6-1.5,2.6-2c0.9-0.5,2-0.7,3.3-0.7c1,0,1.9,0.2,2.6,0.5
				c0.8,0.3,1.4,0.8,1.9,1.4c0.5,0.6,0.9,1.3,1.2,2.2c0.3,0.9,0.4,1.8,0.4,2.8v11.6h-3.2v-11.6c0-1.4-0.3-2.5-0.9-3.2
				c-0.6-0.8-1.6-1.1-2.9-1.1c-0.9,0-1.8,0.2-2.7,0.7c-0.8,0.5-1.6,1.1-2.3,1.9v13.4H413.7z"/>
			<path class="st2" d="M438,414.3c0,0.3-0.1,0.6-0.2,0.9c-0.1,0.3-0.3,0.5-0.5,0.7c-0.2,0.2-0.5,0.4-0.7,0.5s-0.6,0.2-0.9,0.2
				c-0.3,0-0.6-0.1-0.9-0.2c-0.3-0.1-0.5-0.3-0.7-0.5c-0.2-0.2-0.4-0.5-0.5-0.7c-0.1-0.3-0.2-0.6-0.2-0.9c0-0.3,0.1-0.6,0.2-0.9
				c0.1-0.3,0.3-0.5,0.5-0.7c0.2-0.2,0.4-0.4,0.7-0.5c0.3-0.1,0.6-0.2,0.9-0.2c0.3,0,0.6,0.1,0.9,0.2s0.5,0.3,0.7,0.5
				c0.2,0.2,0.4,0.5,0.5,0.7C438,413.7,438,414,438,414.3z M437.3,420v18.2h-3.2V420H437.3z"/>
			<path class="st2" d="M446.5,420v19.6c0,0.7-0.1,1.4-0.3,2c-0.2,0.6-0.5,1.2-0.9,1.6c-0.4,0.5-0.9,0.8-1.6,1.1
				c-0.7,0.3-1.4,0.4-2.3,0.4c-0.4,0-0.8,0-1.1-0.1c-0.3-0.1-0.6-0.2-1-0.3l0.1-1.7c0-0.2,0.1-0.3,0.2-0.3c0.1,0,0.2-0.1,0.4-0.1
				c0.1,0,0.2,0,0.3,0c0.1,0,0.2,0,0.4,0c0.9,0,1.6-0.2,2-0.7c0.4-0.4,0.6-1.1,0.6-2.1V420H446.5z M447.3,414.3
				c0,0.3-0.1,0.6-0.2,0.9c-0.1,0.3-0.3,0.5-0.5,0.7c-0.2,0.2-0.5,0.4-0.7,0.5s-0.6,0.2-0.9,0.2c-0.3,0-0.6-0.1-0.9-0.2
				c-0.3-0.1-0.5-0.3-0.7-0.5c-0.2-0.2-0.4-0.5-0.5-0.7c-0.1-0.3-0.2-0.6-0.2-0.9c0-0.3,0.1-0.6,0.2-0.9c0.1-0.3,0.3-0.5,0.5-0.7
				c0.2-0.2,0.4-0.4,0.7-0.5c0.3-0.1,0.6-0.2,0.9-0.2c0.3,0,0.6,0.1,0.9,0.2s0.5,0.3,0.7,0.5c0.2,0.2,0.4,0.5,0.5,0.7
				C447.2,413.7,447.3,414,447.3,414.3z"/>
			<path class="st2" d="M455.4,411.7v15.6h0.8c0.2,0,0.4,0,0.6-0.1c0.2-0.1,0.3-0.2,0.5-0.4l5.8-6.2c0.2-0.2,0.4-0.3,0.5-0.5
				c0.2-0.1,0.4-0.2,0.7-0.2h2.9l-6.7,7.1c-0.2,0.2-0.3,0.4-0.5,0.5s-0.3,0.3-0.5,0.4c0.2,0.1,0.4,0.3,0.6,0.5
				c0.2,0.2,0.3,0.4,0.5,0.6l7.1,9h-2.9c-0.3,0-0.5-0.1-0.7-0.2c-0.2-0.1-0.4-0.3-0.5-0.5l-6-7.5c-0.2-0.3-0.4-0.4-0.5-0.5
				c-0.2-0.1-0.5-0.1-0.8-0.1h-0.9v8.7h-3.2v-26.5H455.4z"/>
			<path class="st2" d="M474.5,411.7v26.5h-3.2v-26.5H474.5z"/>
			<path class="st2" d="M480.2,438.2V420h1.9c0.5,0,0.7,0.2,0.9,0.7l0.2,1.9c0.7-0.8,1.4-1.5,2.3-2c0.8-0.5,1.8-0.8,2.9-0.8
				c1.2,0,2.2,0.3,3,1c0.8,0.7,1.3,1.6,1.6,2.8c0.3-0.7,0.6-1.2,1-1.7c0.4-0.5,0.9-0.9,1.4-1.2c0.5-0.3,1.1-0.5,1.6-0.7
				c0.6-0.1,1.2-0.2,1.8-0.2c1,0,1.8,0.2,2.6,0.5c0.8,0.3,1.4,0.8,1.9,1.3c0.5,0.6,0.9,1.3,1.2,2.2c0.3,0.9,0.4,1.8,0.4,2.9v11.6
				h-3.2v-11.6c0-1.4-0.3-2.5-0.9-3.2c-0.6-0.7-1.5-1.1-2.7-1.1c-0.5,0-1,0.1-1.5,0.3c-0.5,0.2-0.9,0.5-1.3,0.8
				c-0.4,0.4-0.6,0.8-0.9,1.4s-0.3,1.2-0.3,1.9v11.6h-3.2v-11.6c0-1.5-0.3-2.6-0.9-3.3c-0.6-0.7-1.4-1.1-2.6-1.1
				c-0.8,0-1.5,0.2-2.2,0.6c-0.7,0.4-1.3,1-1.9,1.7v13.6H480.2z"/>
			<path class="st2" d="M509.8,438.2V420h1.9c0.5,0,0.7,0.2,0.9,0.7l0.3,2c0.8-0.9,1.7-1.6,2.7-2.1c1-0.5,2.1-0.8,3.4-0.8
				c1,0,1.9,0.2,2.6,0.5c0.8,0.3,1.4,0.8,1.9,1.4c0.5,0.6,0.9,1.3,1.2,2.2c0.3,0.9,0.4,1.8,0.4,2.8v11.6h-3.2v-11.6
				c0-1.4-0.3-2.5-0.9-3.2c-0.6-0.8-1.6-1.1-2.9-1.1c-0.9,0-1.8,0.2-2.7,0.7c-0.8,0.5-1.6,1.1-2.3,1.9v13.4H509.8z"/>
			<path class="st2" d="M529.8,438.2V420h1.9c0.5,0,0.7,0.2,0.9,0.7l0.3,2c0.8-0.9,1.7-1.6,2.7-2.1c1-0.5,2.1-0.8,3.4-0.8
				c1,0,1.9,0.2,2.6,0.5c0.8,0.3,1.4,0.8,1.9,1.4c0.5,0.6,0.9,1.3,1.2,2.2c0.3,0.9,0.4,1.8,0.4,2.8v11.6h-3.2v-11.6
				c0-1.4-0.3-2.5-0.9-3.2c-0.6-0.8-1.6-1.1-2.9-1.1c-0.9,0-1.8,0.2-2.7,0.7c-0.8,0.5-1.6,1.1-2.3,1.9v13.4H529.8z M539.3,414.4
				c0.4,0,0.8-0.1,1-0.4c0.2-0.3,0.4-0.6,0.4-1.2h1.9c0,0.6-0.1,1.1-0.2,1.6c-0.2,0.5-0.4,0.9-0.6,1.2s-0.6,0.6-1,0.8
				c-0.4,0.2-0.8,0.3-1.3,0.3c-0.4,0-0.8-0.1-1.2-0.3s-0.7-0.4-1-0.6c-0.3-0.2-0.6-0.4-0.9-0.6c-0.3-0.2-0.6-0.3-0.8-0.3
				c-0.9,0-1.3,0.5-1.3,1.6h-2c0-0.6,0.1-1.1,0.2-1.6c0.2-0.5,0.4-0.9,0.7-1.2c0.3-0.3,0.6-0.6,1-0.8c0.4-0.2,0.8-0.3,1.3-0.3
				c0.4,0,0.8,0.1,1.2,0.3s0.7,0.4,1,0.6c0.3,0.2,0.6,0.4,0.9,0.6C538.7,414.3,539,414.4,539.3,414.4z"/>
			<path class="st2" d="M557.2,419.7c1.3,0,2.5,0.2,3.6,0.7c1.1,0.4,2,1.1,2.7,1.9s1.3,1.8,1.7,3c0.4,1.2,0.6,2.5,0.6,3.9
				c0,1.4-0.2,2.7-0.6,3.9c-0.4,1.2-1,2.1-1.7,3c-0.8,0.8-1.7,1.4-2.7,1.9c-1.1,0.4-2.3,0.7-3.6,0.7s-2.5-0.2-3.6-0.7
				c-1.1-0.4-2-1.1-2.7-1.9c-0.8-0.8-1.3-1.8-1.7-3c-0.4-1.2-0.6-2.4-0.6-3.9c0-1.4,0.2-2.7,0.6-3.9c0.4-1.2,1-2.1,1.7-3
				s1.7-1.4,2.7-1.9C554.6,419.9,555.8,419.7,557.2,419.7z M557.2,436c1.8,0,3.1-0.6,4-1.8c0.9-1.2,1.3-2.9,1.3-5
				c0-2.2-0.4-3.9-1.3-5.1c-0.9-1.2-2.2-1.8-4-1.8c-0.9,0-1.7,0.2-2.4,0.5c-0.7,0.3-1.2,0.8-1.7,1.4s-0.8,1.3-1,2.2
				c-0.2,0.9-0.3,1.8-0.3,2.9s0.1,2,0.3,2.9c0.2,0.9,0.6,1.6,1,2.2s1,1,1.7,1.3C555.5,435.8,556.3,436,557.2,436z"/>
			<path class="st2" d="M569.8,444.4V420h1.9c0.5,0,0.7,0.2,0.9,0.7l0.3,2.2c0.8-0.9,1.7-1.7,2.7-2.3c1-0.6,2.2-0.9,3.5-0.9
				c1,0,2,0.2,2.8,0.6c0.9,0.4,1.6,1,2.2,1.8c0.6,0.8,1.1,1.8,1.4,2.9s0.5,2.5,0.5,4c0,1.3-0.2,2.6-0.5,3.8c-0.4,1.2-0.9,2.2-1.5,3
				c-0.7,0.8-1.5,1.5-2.5,2c-1,0.5-2.1,0.7-3.3,0.7c-1.1,0-2.1-0.2-2.9-0.6c-0.8-0.4-1.5-0.9-2.1-1.6v8.1H569.8z M577.9,422.3
				c-1,0-2,0.2-2.7,0.7c-0.8,0.5-1.5,1.2-2.2,2v8.8c0.6,0.8,1.2,1.3,1.9,1.7c0.7,0.3,1.5,0.5,2.3,0.5c1.7,0,3-0.6,3.9-1.8
				c0.9-1.2,1.4-2.9,1.4-5.2c0-1.2-0.1-2.2-0.3-3.1c-0.2-0.9-0.5-1.6-0.9-2.1c-0.4-0.5-0.9-0.9-1.5-1.2S578.7,422.3,577.9,422.3z"/>
			<path class="st2" d="M604.4,420v24.4h-3.2v-8.9c-0.8,0.9-1.6,1.6-2.6,2.1s-2.1,0.8-3.4,0.8c-1,0-2-0.2-2.8-0.6
				c-0.9-0.4-1.6-1-2.2-1.8c-0.6-0.8-1.1-1.8-1.4-2.9s-0.5-2.5-0.5-4c0-1.3,0.2-2.6,0.5-3.8s0.9-2.2,1.6-3c0.7-0.9,1.5-1.5,2.5-2
				s2.1-0.7,3.3-0.7c1.2,0,2.2,0.2,3,0.6s1.6,1,2.2,1.8l0.2-1.4c0.1-0.4,0.4-0.7,0.9-0.7H604.4z M596.3,435.9c1,0,2-0.2,2.7-0.7
				c0.8-0.5,1.5-1.2,2.2-2v-8.8c-0.6-0.8-1.2-1.3-1.9-1.6s-1.5-0.5-2.3-0.5c-1.7,0-3,0.6-3.9,1.8c-0.9,1.2-1.4,2.9-1.4,5.2
				c0,1.2,0.1,2.2,0.3,3.1s0.5,1.5,0.9,2.1c0.4,0.5,0.9,0.9,1.5,1.2C594.9,435.8,595.6,435.9,596.3,435.9z"/>
			<path class="st2" d="M609.8,438.2V420h1.8c0.3,0,0.6,0.1,0.7,0.2s0.2,0.4,0.3,0.7l0.2,2.8c0.6-1.3,1.4-2.3,2.3-3
				c0.9-0.7,2-1.1,3.2-1.1c0.5,0,1,0.1,1.4,0.2s0.8,0.3,1.1,0.5l-0.4,2.4c-0.1,0.3-0.3,0.4-0.6,0.4c-0.2,0-0.4-0.1-0.8-0.2
				c-0.3-0.1-0.8-0.2-1.5-0.2c-1.1,0-2,0.3-2.8,1c-0.8,0.6-1.4,1.6-1.9,2.8v11.6H609.8z"/>
			<path class="st2" d="M634.7,423c-0.1,0.3-0.4,0.4-0.7,0.4c-0.2,0-0.4-0.1-0.6-0.2c-0.2-0.1-0.5-0.3-0.8-0.4s-0.7-0.3-1.2-0.5
				c-0.5-0.1-1-0.2-1.6-0.2c-0.5,0-1,0.1-1.5,0.2c-0.4,0.1-0.8,0.3-1.1,0.6c-0.3,0.2-0.5,0.5-0.7,0.8c-0.2,0.3-0.2,0.7-0.2,1
				c0,0.5,0.1,0.9,0.4,1.2c0.3,0.3,0.6,0.6,1.1,0.8c0.4,0.2,0.9,0.4,1.5,0.6c0.6,0.2,1.1,0.4,1.7,0.6s1.2,0.4,1.7,0.7
				c0.6,0.2,1.1,0.5,1.5,0.9c0.4,0.4,0.8,0.8,1.1,1.3c0.3,0.5,0.4,1.1,0.4,1.9c0,0.8-0.2,1.6-0.5,2.3s-0.7,1.3-1.3,1.9
				c-0.6,0.5-1.3,0.9-2.2,1.2c-0.9,0.3-1.8,0.5-3,0.5c-1.3,0-2.4-0.2-3.5-0.6s-1.9-0.9-2.6-1.6l0.8-1.2c0.1-0.2,0.2-0.3,0.3-0.4
				s0.3-0.1,0.5-0.1c0.2,0,0.4,0.1,0.7,0.3s0.5,0.4,0.9,0.6s0.8,0.4,1.2,0.6s1.1,0.3,1.8,0.3c0.6,0,1.2-0.1,1.6-0.2s0.9-0.4,1.2-0.7
				c0.3-0.3,0.5-0.6,0.7-1c0.1-0.4,0.2-0.7,0.2-1.2c0-0.5-0.1-0.9-0.4-1.3c-0.3-0.3-0.6-0.6-1.1-0.8c-0.4-0.2-1-0.4-1.5-0.6
				c-0.6-0.2-1.2-0.4-1.7-0.5c-0.6-0.2-1.2-0.4-1.7-0.7c-0.6-0.2-1.1-0.6-1.5-0.9c-0.4-0.4-0.8-0.8-1.1-1.4c-0.3-0.5-0.4-1.2-0.4-2
				c0-0.7,0.1-1.4,0.4-2c0.3-0.6,0.7-1.2,1.3-1.7c0.6-0.5,1.2-0.9,2-1.2c0.8-0.3,1.7-0.4,2.8-0.4c1.2,0,2.3,0.2,3.2,0.6
				c1,0.4,1.8,0.9,2.5,1.6L634.7,423z"/>
			<path class="st2" d="M645.5,438.5c-1.4,0-2.5-0.4-3.3-1.2s-1.2-2-1.2-3.5v-11.2h-2.2c-0.2,0-0.4-0.1-0.5-0.2
				c-0.1-0.1-0.2-0.3-0.2-0.5v-1.3l3-0.4l0.7-5.6c0-0.2,0.1-0.3,0.2-0.4c0.1-0.1,0.3-0.2,0.5-0.2h1.6v6.3h5.2v2.3h-5.2v10.9
				c0,0.8,0.2,1.3,0.6,1.7c0.4,0.4,0.9,0.6,1.4,0.6c0.3,0,0.6,0,0.9-0.1c0.2-0.1,0.5-0.2,0.6-0.3c0.2-0.1,0.3-0.2,0.5-0.3
				c0.1-0.1,0.2-0.1,0.3-0.1c0.2,0,0.3,0.1,0.5,0.3l0.9,1.5c-0.6,0.5-1.2,0.9-2,1.2C647.1,438.4,646.3,438.5,645.5,438.5z"/>
			<path class="st2" d="M656.1,420v11.6c0,1.4,0.3,2.4,1,3.2c0.6,0.8,1.6,1.1,2.9,1.1c0.9,0,1.8-0.2,2.6-0.7
				c0.8-0.4,1.6-1.1,2.3-1.9V420h3.2v18.2h-1.9c-0.5,0-0.7-0.2-0.9-0.7l-0.3-2c-0.8,0.9-1.7,1.6-2.7,2.1c-1,0.5-2.1,0.8-3.4,0.8
				c-1,0-1.9-0.2-2.6-0.5c-0.8-0.3-1.4-0.8-1.9-1.4c-0.5-0.6-0.9-1.3-1.2-2.2c-0.3-0.9-0.4-1.8-0.4-2.8V420H656.1z"/>
			<path class="st2" d="M671.1,420h2.6c0.3,0,0.5,0.1,0.6,0.2s0.3,0.3,0.4,0.5l4.6,11.7c0.2,0.4,0.3,0.9,0.4,1.3
				c0.1,0.4,0.2,0.9,0.3,1.3c0.1-0.4,0.2-0.8,0.3-1.3c0.1-0.4,0.2-0.9,0.4-1.3l4.7-11.7c0.1-0.2,0.2-0.4,0.4-0.5s0.4-0.2,0.6-0.2
				h2.5l-7.4,18.2h-2.9L671.1,420z"/>
			<path class="st2" d="M689.4,420h2.5c0.3,0,0.5,0.1,0.6,0.2s0.3,0.3,0.3,0.5l3.5,11.7c0.1,0.4,0.2,0.8,0.3,1.3
				c0.1,0.4,0.2,0.8,0.2,1.2c0.1-0.4,0.2-0.8,0.3-1.2c0.1-0.4,0.2-0.8,0.4-1.3l3.9-11.8c0.1-0.2,0.2-0.3,0.3-0.5
				c0.1-0.1,0.3-0.2,0.6-0.2h1.4c0.2,0,0.4,0.1,0.6,0.2c0.2,0.1,0.3,0.3,0.3,0.5l3.8,11.8c0.1,0.4,0.2,0.8,0.4,1.2s0.2,0.8,0.3,1.2
				c0.1-0.4,0.1-0.8,0.2-1.2c0.1-0.4,0.2-0.8,0.3-1.2l3.6-11.7c0.1-0.2,0.2-0.4,0.3-0.5s0.4-0.2,0.6-0.2h2.4l-5.9,18.2h-2.5
				c-0.3,0-0.5-0.2-0.6-0.6l-4-12.4c-0.1-0.3-0.2-0.6-0.2-0.8c-0.1-0.3-0.1-0.6-0.2-0.8c-0.1,0.3-0.1,0.6-0.2,0.8
				c-0.1,0.3-0.1,0.6-0.2,0.8l-4.1,12.3c-0.1,0.4-0.4,0.6-0.7,0.6h-2.4L689.4,420z"/>
			<path class="st2" d="M723.6,428.9l-6.1-8.9h3.1c0.3,0,0.5,0,0.6,0.1c0.1,0.1,0.2,0.2,0.3,0.4l4.5,6.8c0.1-0.3,0.3-0.7,0.5-1
				l3.9-5.8c0.1-0.2,0.2-0.3,0.4-0.4c0.1-0.1,0.3-0.2,0.5-0.2h3l-6.1,8.7l6.4,9.5h-3.1c-0.3,0-0.5-0.1-0.6-0.2
				c-0.2-0.1-0.3-0.3-0.4-0.5l-4.6-7.1c-0.1,0.3-0.2,0.7-0.4,0.9l-4.2,6.2c-0.1,0.2-0.2,0.3-0.4,0.5c-0.1,0.1-0.3,0.2-0.6,0.2h-2.9
				L723.6,428.9z"/>
			<path class="st2" d="M742.9,443.6c-0.1,0.2-0.2,0.4-0.4,0.6s-0.4,0.2-0.7,0.2h-2.4l3.3-7.2l-7.5-17.2h2.8c0.3,0,0.5,0.1,0.6,0.2
				c0.2,0.1,0.3,0.3,0.3,0.5l4.9,11.5c0.1,0.3,0.2,0.5,0.3,0.8s0.1,0.5,0.2,0.8c0.1-0.3,0.2-0.5,0.3-0.8s0.2-0.5,0.3-0.8l4.7-11.5
				c0.1-0.2,0.2-0.4,0.4-0.5c0.2-0.1,0.4-0.2,0.6-0.2h2.6L742.9,443.6z"/>
			<path class="st2" d="M768.7,421.4c0,0.2,0,0.4-0.1,0.7s-0.2,0.4-0.3,0.6l-9.9,13.1h10v2.5h-13.7v-1.3c0-0.2,0-0.3,0.1-0.5
				s0.2-0.4,0.3-0.6l9.9-13.2h-9.8V420h13.5V421.4z"/>
			<path class="st2" d="M306.2,468.6c0,2.3-0.2,4.2-0.7,5.9c-0.5,1.7-1.1,3-2,4.1c-0.8,1.1-1.8,1.9-3,2.4c-1.1,0.5-2.4,0.8-3.7,0.8
				c-1.3,0-2.5-0.3-3.7-0.8c-1.1-0.5-2.1-1.3-3-2.4s-1.5-2.4-2-4.1c-0.5-1.6-0.7-3.6-0.7-5.9s0.2-4.2,0.7-5.9c0.5-1.7,1.1-3,2-4.1
				s1.8-1.9,3-2.4c1.1-0.5,2.4-0.8,3.7-0.8c1.3,0,2.5,0.3,3.7,0.8c1.1,0.5,2.1,1.3,3,2.4c0.8,1.1,1.5,2.5,2,4.1
				C306,464.3,306.2,466.3,306.2,468.6z M302.9,468.6c0-2-0.2-3.6-0.5-5s-0.8-2.4-1.3-3.2c-0.6-0.8-1.2-1.4-1.9-1.8
				c-0.7-0.4-1.5-0.5-2.3-0.5s-1.6,0.2-2.3,0.5c-0.7,0.4-1.4,0.9-1.9,1.8c-0.6,0.8-1,1.9-1.3,3.2s-0.5,3-0.5,5s0.2,3.6,0.5,4.9
				c0.3,1.3,0.8,2.4,1.3,3.2c0.6,0.8,1.2,1.4,1.9,1.8c0.7,0.4,1.5,0.5,2.3,0.5s1.6-0.2,2.3-0.5c0.7-0.4,1.4-0.9,1.9-1.8
				c0.6-0.8,1-1.9,1.3-3.2C302.7,472.2,302.9,470.5,302.9,468.6z"/>
			<path class="st2" d="M312.5,479h5.5v-17.6c0-0.5,0-1.1,0.1-1.6l-4.6,3.9c-0.1,0.1-0.2,0.2-0.4,0.2c-0.1,0-0.2,0.1-0.3,0.1
				c-0.2,0-0.3,0-0.5-0.1c-0.1-0.1-0.3-0.2-0.3-0.3l-1-1.4l7.7-6.6h2.6V479h5.1v2.4h-13.8V479z"/>
			<path class="st2" d="M339,455.4c1.1,0,2.1,0.2,3.1,0.5c0.9,0.3,1.8,0.8,2.5,1.4c0.7,0.6,1.2,1.4,1.6,2.3c0.4,0.9,0.6,1.9,0.6,3
				c0,1-0.1,1.8-0.4,2.7c-0.3,0.8-0.7,1.6-1.2,2.3c-0.5,0.8-1.1,1.5-1.7,2.2c-0.6,0.7-1.3,1.4-2,2.2l-6.8,6.9c0.5-0.1,1-0.2,1.5-0.3
				s1-0.1,1.4-0.1h8.6c0.3,0,0.6,0.1,0.8,0.3c0.2,0.2,0.3,0.5,0.3,0.8v1.9H330v-1.1c0-0.2,0-0.5,0.1-0.7s0.2-0.5,0.4-0.7l8.3-8.3
				c0.7-0.7,1.3-1.4,1.9-2c0.6-0.6,1-1.3,1.4-1.9c0.4-0.6,0.7-1.3,0.9-2s0.3-1.4,0.3-2.1c0-0.8-0.1-1.4-0.4-2s-0.6-1-1-1.4
				s-0.9-0.7-1.5-0.8c-0.6-0.2-1.2-0.3-1.8-0.3c-0.6,0-1.2,0.1-1.8,0.3c-0.6,0.2-1,0.5-1.5,0.8c-0.4,0.3-0.8,0.7-1.1,1.2
				c-0.3,0.5-0.5,1-0.6,1.5c-0.1,0.3-0.2,0.6-0.4,0.8c-0.2,0.2-0.4,0.2-0.8,0.2c-0.1,0-0.1,0-0.2,0c-0.1,0-0.1,0-0.2,0l-1.7-0.3
				c0.2-1.2,0.5-2.2,1-3.1c0.5-0.9,1.1-1.7,1.8-2.3c0.7-0.6,1.6-1.1,2.5-1.4C336.9,455.5,337.9,455.4,339,455.4z"/>
			<path class="st2" d="M360.2,455.4c1.1,0,2.1,0.2,3,0.5c0.9,0.3,1.7,0.8,2.4,1.3s1.2,1.3,1.6,2.1c0.4,0.8,0.6,1.7,0.6,2.7
				c0,0.8-0.1,1.5-0.3,2.2c-0.2,0.6-0.5,1.2-0.9,1.7c-0.4,0.5-0.9,0.9-1.4,1.2c-0.6,0.3-1.2,0.6-1.9,0.8c1.7,0.4,2.9,1.2,3.8,2.2
				s1.3,2.4,1.3,3.9c0,1.2-0.2,2.3-0.7,3.2c-0.5,0.9-1.1,1.8-1.8,2.4s-1.7,1.2-2.7,1.5c-1,0.4-2.2,0.5-3.3,0.5
				c-1.4,0-2.5-0.2-3.5-0.5c-1-0.3-1.8-0.8-2.5-1.4c-0.7-0.6-1.2-1.3-1.7-2.1c-0.4-0.8-0.8-1.7-1.1-2.7l1.4-0.6
				c0.3-0.1,0.5-0.2,0.8-0.2c0.2,0,0.5,0.1,0.6,0.2c0.2,0.1,0.3,0.3,0.4,0.5c0,0,0,0.1,0.1,0.2c0,0.1,0,0.1,0.1,0.2
				c0.2,0.3,0.4,0.7,0.6,1.2c0.2,0.4,0.6,0.8,1,1.2c0.4,0.4,0.9,0.7,1.5,1c0.6,0.3,1.4,0.4,2.3,0.4c0.9,0,1.7-0.1,2.4-0.4
				s1.2-0.7,1.7-1.1s0.8-1,1-1.6c0.2-0.6,0.3-1.1,0.3-1.7c0-0.7-0.1-1.3-0.3-1.9c-0.2-0.6-0.5-1.1-1-1.5c-0.5-0.4-1.2-0.8-2-1
				c-0.9-0.2-2-0.4-3.3-0.4V467c1.1,0,2-0.1,2.8-0.3c0.8-0.2,1.4-0.5,1.9-0.9c0.5-0.4,0.8-0.9,1.1-1.4c0.2-0.6,0.3-1.2,0.3-1.8
				c0-0.7-0.1-1.4-0.4-1.9s-0.6-1-1-1.4s-0.9-0.6-1.4-0.8c-0.6-0.2-1.2-0.3-1.8-0.3c-0.6,0-1.2,0.1-1.8,0.3c-0.6,0.2-1,0.5-1.5,0.8
				s-0.8,0.7-1.1,1.2s-0.5,1-0.6,1.5c-0.1,0.3-0.2,0.6-0.4,0.8c-0.2,0.2-0.4,0.2-0.7,0.2c-0.1,0-0.1,0-0.2,0c-0.1,0-0.1,0-0.2,0
				l-1.7-0.3c0.2-1.2,0.5-2.2,1-3.1c0.5-0.9,1.1-1.7,1.8-2.3s1.6-1.1,2.5-1.4C358.1,455.5,359.1,455.4,360.2,455.4z"/>
			<path class="st2" d="M386.2,472.1h3.9v1.8c0,0.2-0.1,0.4-0.2,0.5c-0.1,0.1-0.3,0.2-0.5,0.2h-3.2v6.8h-2.8v-6.8h-11.4
				c-0.2,0-0.4-0.1-0.6-0.2c-0.2-0.1-0.3-0.3-0.3-0.5l-0.3-1.6l12.5-16.7h3V472.1z M383.4,461.5c0-0.3,0-0.6,0-1
				c0-0.4,0.1-0.7,0.1-1.1l-9.4,12.8h9.2V461.5z"/>
			<path class="st2" d="M408.4,457c0,0.5-0.1,0.8-0.4,1.1s-0.8,0.4-1.5,0.4h-8.1l-1.2,6.8c1.3-0.3,2.6-0.4,3.7-0.4
				c1.3,0,2.5,0.2,3.6,0.6c1,0.4,1.9,0.9,2.6,1.6s1.2,1.5,1.6,2.5c0.4,0.9,0.5,2,0.5,3.1c0,1.4-0.2,2.6-0.7,3.7
				c-0.5,1.1-1.1,2-2,2.8c-0.8,0.8-1.8,1.4-2.9,1.8c-1.1,0.4-2.3,0.6-3.7,0.6c-0.8,0-1.5-0.1-2.2-0.2c-0.7-0.2-1.3-0.4-1.9-0.6
				c-0.6-0.3-1.2-0.5-1.7-0.9c-0.5-0.3-1-0.7-1.4-1l1-1.4c0.2-0.3,0.5-0.5,0.9-0.5c0.2,0,0.5,0.1,0.8,0.3c0.3,0.2,0.7,0.4,1.1,0.6
				c0.4,0.2,0.9,0.4,1.5,0.6c0.6,0.2,1.3,0.3,2.1,0.3c0.9,0,1.7-0.1,2.4-0.4c0.7-0.3,1.3-0.7,1.8-1.2c0.5-0.5,0.9-1.2,1.2-1.9
				s0.4-1.6,0.4-2.5c0-0.8-0.1-1.5-0.4-2.2c-0.2-0.6-0.6-1.2-1.1-1.7s-1.1-0.8-1.8-1.1c-0.7-0.3-1.5-0.4-2.5-0.4
				c-0.6,0-1.3,0.1-2,0.2c-0.7,0.1-1.4,0.3-2.2,0.5l-2-0.6l2.1-12.1h12.2V457z"/>
			<path class="st2" d="M423.4,465.6c1,0,2,0.2,2.9,0.5s1.7,0.8,2.4,1.5s1.2,1.5,1.7,2.4s0.6,2,0.6,3.3c0,1.2-0.2,2.3-0.6,3.3
				c-0.4,1-1,1.9-1.8,2.7c-0.8,0.8-1.7,1.3-2.8,1.8c-1.1,0.4-2.3,0.6-3.6,0.6c-1.3,0-2.5-0.2-3.5-0.6c-1.1-0.4-1.9-1-2.7-1.8
				c-0.7-0.8-1.3-1.7-1.7-2.8c-0.4-1.1-0.6-2.3-0.6-3.6c0-1.1,0.3-2.3,0.8-3.6c0.5-1.3,1.3-2.6,2.4-4.1l6.5-8.8
				c0.2-0.2,0.4-0.4,0.7-0.5c0.3-0.1,0.6-0.2,1-0.2h2.8l-8.9,11.3c0.6-0.4,1.3-0.7,2-1C421.7,465.8,422.5,465.6,423.4,465.6z
				 M416.7,473.5c0,0.8,0.1,1.6,0.4,2.3c0.2,0.7,0.6,1.3,1.1,1.8c0.5,0.5,1,0.9,1.7,1.1c0.7,0.3,1.4,0.4,2.3,0.4
				c0.9,0,1.6-0.1,2.3-0.4c0.7-0.3,1.3-0.7,1.8-1.2c0.5-0.5,0.9-1.1,1.2-1.7c0.3-0.7,0.4-1.4,0.4-2.2c0-0.8-0.1-1.6-0.4-2.3
				c-0.3-0.7-0.6-1.3-1.1-1.7c-0.5-0.5-1.1-0.8-1.7-1.1c-0.7-0.3-1.4-0.4-2.2-0.4c-0.9,0-1.6,0.1-2.3,0.4c-0.7,0.3-1.3,0.7-1.8,1.2
				c-0.5,0.5-0.9,1.1-1.1,1.7S416.7,472.8,416.7,473.5z"/>
			<path class="st2" d="M452.1,455.6v1.4c0,0.4,0,0.7-0.1,1s-0.2,0.5-0.3,0.7L441,480.3c-0.2,0.3-0.4,0.6-0.6,0.8
				c-0.3,0.2-0.6,0.3-1.1,0.3h-2.3l10.8-21.3c0.2-0.3,0.3-0.6,0.5-0.8c0.2-0.3,0.3-0.5,0.5-0.7h-13.5c-0.2,0-0.4-0.1-0.5-0.2
				c-0.2-0.2-0.2-0.3-0.2-0.5v-2.2H452.1z"/>
			<path class="st2" d="M463.9,481.7c-1.3,0-2.5-0.2-3.5-0.5c-1.1-0.3-2-0.8-2.8-1.5c-0.8-0.6-1.4-1.4-1.8-2.3s-0.6-1.9-0.6-3.1
				c0-1.7,0.4-3,1.3-4.1c0.9-1.1,2.1-1.8,3.7-2.3c-1.4-0.5-2.4-1.3-3.1-2.3c-0.7-1-1-2.2-1-3.6c0-0.9,0.2-1.8,0.6-2.7
				s0.9-1.5,1.6-2.2c0.7-0.6,1.5-1.1,2.5-1.4c1-0.3,2-0.5,3.2-0.5c1.2,0,2.2,0.2,3.2,0.5c1,0.3,1.8,0.8,2.5,1.4s1.2,1.3,1.6,2.2
				s0.6,1.7,0.6,2.7c0,1.4-0.3,2.6-1,3.6s-1.7,1.8-3.1,2.3c1.6,0.5,2.8,1.2,3.7,2.3c0.9,1.1,1.3,2.4,1.3,4.1c0,1.1-0.2,2.1-0.6,3.1
				s-1,1.7-1.8,2.3c-0.8,0.6-1.7,1.1-2.7,1.5C466.3,481.6,465.2,481.7,463.9,481.7z M463.9,479.2c0.8,0,1.6-0.1,2.3-0.4
				c0.7-0.2,1.2-0.6,1.7-1c0.5-0.4,0.8-0.9,1.1-1.5c0.2-0.6,0.4-1.3,0.4-2c0-0.9-0.1-1.6-0.4-2.3s-0.7-1.1-1.2-1.5
				c-0.5-0.4-1.1-0.7-1.7-0.9c-0.6-0.2-1.3-0.3-2-0.3s-1.4,0.1-2,0.3c-0.6,0.2-1.2,0.5-1.7,0.9c-0.5,0.4-0.9,0.9-1.2,1.5
				s-0.4,1.4-0.4,2.3c0,0.7,0.1,1.4,0.4,2c0.2,0.6,0.6,1.1,1.1,1.5c0.5,0.4,1,0.8,1.7,1C462.3,479.1,463,479.2,463.9,479.2z
				 M463.9,466.8c0.8,0,1.6-0.1,2.2-0.4c0.6-0.3,1.1-0.6,1.4-1c0.4-0.4,0.6-0.9,0.8-1.5c0.2-0.6,0.3-1.1,0.3-1.7
				c0-0.6-0.1-1.2-0.3-1.7c-0.2-0.5-0.5-1-0.9-1.4c-0.4-0.4-0.9-0.7-1.5-0.9s-1.3-0.3-2-0.3c-0.8,0-1.4,0.1-2,0.3s-1.1,0.5-1.5,0.9
				c-0.4,0.4-0.7,0.9-0.9,1.4c-0.2,0.5-0.3,1.1-0.3,1.7c0,0.6,0.1,1.2,0.3,1.7c0.2,0.6,0.4,1,0.8,1.5c0.4,0.4,0.9,0.8,1.4,1
				C462.3,466.7,463,466.8,463.9,466.8z"/>
			<path class="st2" d="M484.2,470.9c-1,0-1.9-0.2-2.8-0.5c-0.9-0.3-1.6-0.8-2.3-1.4c-0.7-0.6-1.2-1.4-1.6-2.3s-0.6-2-0.6-3.2
				c0-1.1,0.2-2.2,0.6-3.2c0.4-1,1-1.8,1.8-2.6c0.8-0.7,1.7-1.3,2.7-1.7s2.2-0.6,3.4-0.6c1.2,0,2.4,0.2,3.4,0.6c1,0.4,1.9,1,2.6,1.7
				c0.7,0.7,1.3,1.6,1.7,2.6c0.4,1,0.6,2.1,0.6,3.4c0,0.7-0.1,1.4-0.2,2.1c-0.1,0.7-0.3,1.3-0.6,2s-0.6,1.3-0.9,1.9
				c-0.4,0.6-0.8,1.3-1.3,2l-6.3,9.1c-0.2,0.2-0.4,0.4-0.7,0.5s-0.6,0.2-1,0.2h-3l7.8-10.3c0.3-0.3,0.5-0.7,0.7-1
				c0.2-0.3,0.4-0.6,0.6-0.9c-0.7,0.5-1.4,0.9-2.2,1.2C486,470.7,485.1,470.9,484.2,470.9z M490.7,463.3c0-0.8-0.1-1.5-0.4-2.2
				c-0.3-0.7-0.6-1.2-1.1-1.7s-1-0.8-1.6-1.1c-0.6-0.2-1.3-0.4-2.1-0.4c-0.8,0-1.5,0.1-2.2,0.4c-0.7,0.3-1.2,0.6-1.7,1.1
				c-0.5,0.5-0.8,1-1.1,1.6s-0.4,1.3-0.4,2.1c0,0.8,0.1,1.5,0.4,2.2c0.2,0.6,0.6,1.2,1,1.6c0.4,0.4,1,0.8,1.6,1
				c0.6,0.2,1.3,0.3,2.1,0.3c0.9,0,1.6-0.1,2.3-0.4s1.2-0.7,1.7-1.1c0.5-0.5,0.8-1,1-1.6C490.5,464.6,490.7,464,490.7,463.3z"/>
			<path class="st2" d="M288.5,506.4c-0.3-0.6-0.6-1.2-0.8-1.7s-0.2-1.2-0.2-1.7c0-1.1,0.3-2.1,0.8-3.1s1.3-1.9,2.2-2.7l1,0.6
				c0.1,0.1,0.2,0.1,0.2,0.2s0,0.1,0,0.2c0,0.2-0.1,0.3-0.2,0.4c-0.2,0.2-0.4,0.5-0.6,0.8c-0.2,0.3-0.3,0.5-0.5,0.8
				c-0.1,0.3-0.3,0.6-0.3,0.9c-0.1,0.3-0.1,0.7-0.1,1c0,0.4,0.1,0.8,0.2,1.2c0.1,0.4,0.3,0.8,0.6,1.3c0.1,0.1,0.1,0.3,0.1,0.4
				c0,0.3-0.2,0.5-0.5,0.6L288.5,506.4z"/>
			<path class="st2" d="M294.7,501.1c0.4-0.3,0.8-0.7,1.2-1c0.5-0.3,0.9-0.6,1.5-0.8c0.5-0.2,1.1-0.4,1.7-0.6s1.3-0.2,2-0.2
				c0.9,0,1.8,0.1,2.6,0.4c0.8,0.3,1.5,0.7,2.1,1.2s1,1.1,1.4,1.8s0.5,1.5,0.5,2.4c0,0.9-0.1,1.7-0.4,2.4c-0.3,0.7-0.6,1.2-1,1.7
				s-0.9,0.9-1.4,1.3s-1,0.7-1.4,1c-0.4,0.3-0.8,0.6-1.1,1c-0.3,0.3-0.5,0.7-0.5,1.1l-0.3,2.8h-2.2l-0.2-3v-0.2c0-0.5,0.1-1,0.4-1.3
				c0.3-0.4,0.6-0.8,1-1.1s0.9-0.7,1.3-1c0.5-0.3,0.9-0.7,1.3-1.1s0.8-0.9,1-1.4c0.3-0.5,0.4-1.2,0.4-1.9c0-0.5-0.1-1-0.3-1.4
				c-0.2-0.4-0.5-0.8-0.8-1.1c-0.3-0.3-0.8-0.5-1.2-0.7s-1-0.2-1.5-0.2c-0.7,0-1.4,0.1-1.9,0.3c-0.5,0.2-1,0.4-1.3,0.6
				c-0.4,0.2-0.7,0.4-0.9,0.6c-0.2,0.2-0.4,0.3-0.5,0.3c-0.3,0-0.5-0.1-0.7-0.4L294.7,501.1z M298.2,522.7c0-0.3,0.1-0.6,0.2-0.9
				c0.1-0.3,0.3-0.5,0.5-0.7c0.2-0.2,0.4-0.4,0.7-0.5c0.3-0.1,0.6-0.2,0.9-0.2c0.3,0,0.6,0.1,0.9,0.2c0.3,0.1,0.5,0.3,0.7,0.5
				s0.4,0.4,0.5,0.7c0.1,0.3,0.2,0.6,0.2,0.9c0,0.3-0.1,0.6-0.2,0.9c-0.1,0.3-0.3,0.5-0.5,0.7s-0.4,0.4-0.7,0.5
				c-0.3,0.1-0.6,0.2-0.9,0.2c-0.3,0-0.6-0.1-0.9-0.2c-0.3-0.1-0.5-0.3-0.7-0.5c-0.2-0.2-0.4-0.4-0.5-0.7
				C298.2,523.3,298.2,523,298.2,522.7z"/>
			<path class="st2" d="M313.3,497.5c0.3,0.6,0.6,1.2,0.8,1.7c0.2,0.6,0.2,1.2,0.2,1.7c0,1.1-0.3,2.1-0.8,3.1
				c-0.5,1-1.3,1.9-2.2,2.7l-1-0.6c-0.1-0.1-0.2-0.1-0.2-0.2c0-0.1,0-0.1,0-0.2c0-0.2,0.1-0.3,0.2-0.4c0.2-0.2,0.4-0.5,0.6-0.7
				c0.2-0.3,0.3-0.6,0.5-0.8c0.1-0.3,0.3-0.6,0.3-0.9c0.1-0.3,0.1-0.7,0.1-1c0-0.4-0.1-0.8-0.2-1.2c-0.1-0.4-0.3-0.8-0.6-1.3
				c-0.1-0.1-0.1-0.3-0.1-0.4c0-0.3,0.2-0.5,0.5-0.6L313.3,497.5z"/>
			<path class="st2" d="M318.1,506.4c-0.3-0.6-0.6-1.2-0.8-1.7s-0.2-1.2-0.2-1.7c0-1.1,0.3-2.1,0.8-3.1c0.5-1,1.3-1.9,2.2-2.7l1,0.6
				c0.1,0.1,0.2,0.1,0.2,0.2c0,0.1,0,0.1,0,0.2c0,0.2-0.1,0.3-0.2,0.4c-0.2,0.2-0.4,0.5-0.6,0.8c-0.2,0.3-0.3,0.5-0.5,0.8
				c-0.1,0.3-0.3,0.6-0.3,0.9s-0.1,0.7-0.1,1c0,0.4,0.1,0.8,0.2,1.2s0.3,0.8,0.6,1.3c0.1,0.1,0.1,0.3,0.1,0.4c0,0.3-0.2,0.5-0.5,0.6
				L318.1,506.4z M323.5,506.4c-0.3-0.6-0.6-1.2-0.8-1.7c-0.2-0.6-0.2-1.2-0.2-1.7c0-1.1,0.3-2.1,0.8-3.1c0.5-1,1.3-1.9,2.2-2.7
				l1,0.6c0.1,0.1,0.2,0.1,0.2,0.2c0,0.1,0,0.1,0,0.2c0,0.2-0.1,0.3-0.2,0.4c-0.2,0.2-0.4,0.5-0.6,0.8c-0.2,0.3-0.3,0.5-0.5,0.8
				c-0.1,0.3-0.3,0.6-0.3,0.9s-0.1,0.7-0.1,1c0,0.4,0.1,0.8,0.2,1.2c0.1,0.4,0.3,0.8,0.6,1.3c0.1,0.1,0.1,0.3,0.1,0.4
				c0,0.3-0.2,0.5-0.5,0.6L323.5,506.4z"/>
			<path class="st2" d="M333,522.7c0-0.3,0.1-0.6,0.2-0.9c0.1-0.3,0.3-0.5,0.5-0.7c0.2-0.2,0.4-0.4,0.7-0.5c0.3-0.1,0.6-0.2,0.9-0.2
				c0.3,0,0.6,0.1,0.9,0.2c0.3,0.1,0.5,0.3,0.7,0.5s0.4,0.4,0.5,0.7c0.1,0.3,0.2,0.6,0.2,0.9c0,0.3-0.1,0.6-0.2,0.9
				c-0.1,0.3-0.3,0.5-0.5,0.7s-0.4,0.4-0.7,0.5c-0.3,0.1-0.6,0.2-0.9,0.2c-0.3,0-0.6-0.1-0.9-0.2c-0.3-0.1-0.5-0.3-0.7-0.5
				c-0.2-0.2-0.4-0.4-0.5-0.7C333.1,523.3,333,523,333,522.7z M336.8,498.8v10.3c0,0.5,0,1.1,0,1.6c0,0.5,0,1-0.1,1.6
				c0,0.5-0.1,1.1-0.1,1.6c-0.1,0.5-0.1,1.1-0.2,1.8h-2.2c-0.1-0.6-0.1-1.2-0.2-1.8c-0.1-0.5-0.1-1.1-0.1-1.6c0-0.5-0.1-1-0.1-1.6
				c0-0.5,0-1,0-1.6v-10.3H336.8z"/>
			<path class="st2" d="M346.3,497.5c0.3,0.6,0.6,1.2,0.8,1.7s0.2,1.2,0.2,1.7c0,1.1-0.3,2.1-0.8,3.1c-0.5,1-1.3,1.9-2.2,2.7l-1-0.6
				c-0.1-0.1-0.2-0.1-0.2-0.2c0-0.1,0-0.1,0-0.2c0-0.2,0.1-0.3,0.2-0.4c0.2-0.2,0.4-0.5,0.6-0.7c0.2-0.3,0.3-0.6,0.5-0.8
				s0.3-0.6,0.3-0.9c0.1-0.3,0.1-0.7,0.1-1c0-0.4-0.1-0.8-0.2-1.2c-0.1-0.4-0.3-0.8-0.6-1.3c-0.1-0.1-0.1-0.3-0.1-0.4
				c0-0.3,0.2-0.5,0.5-0.6L346.3,497.5z M351.8,497.5c0.3,0.6,0.6,1.2,0.8,1.7s0.2,1.2,0.2,1.7c0,1.1-0.3,2.1-0.8,3.1
				c-0.5,1-1.3,1.9-2.2,2.7l-1-0.6c-0.1-0.1-0.2-0.1-0.2-0.2c0-0.1,0-0.1,0-0.2c0-0.2,0.1-0.3,0.2-0.4c0.2-0.2,0.4-0.5,0.6-0.7
				c0.2-0.3,0.3-0.6,0.5-0.8c0.1-0.3,0.3-0.6,0.3-0.9c0.1-0.3,0.1-0.7,0.1-1c0-0.4-0.1-0.8-0.2-1.2c-0.1-0.4-0.3-0.8-0.6-1.3
				c-0.1-0.1-0.1-0.3-0.1-0.4c0-0.3,0.2-0.5,0.5-0.6L351.8,497.5z"/>
			<path class="st2" d="M359.8,513.3c0,2.6,0.3,5.1,1,7.5s1.6,4.7,2.9,6.9c0.1,0.1,0.1,0.2,0.1,0.3c0,0.1,0,0.2,0,0.3
				c0,0.2,0,0.3-0.1,0.4s-0.2,0.2-0.3,0.3l-1.4,0.9c-0.9-1.4-1.7-2.7-2.3-4.1c-0.6-1.4-1.1-2.7-1.5-4.1s-0.7-2.7-0.9-4.1
				c-0.2-1.4-0.3-2.8-0.3-4.3c0-1.5,0.1-2.9,0.3-4.3c0.2-1.4,0.5-2.8,0.9-4.1s0.9-2.7,1.5-4.1s1.4-2.7,2.3-4.1l1.4,0.9
				c0.1,0.1,0.2,0.2,0.3,0.3s0.1,0.2,0.1,0.4c0,0.2-0.1,0.4-0.2,0.6c-1.3,2.2-2.2,4.5-2.9,6.9C360.1,508.3,359.8,510.7,359.8,513.3z
				"/>
			<path class="st2" d="M378.1,505.1c0,1-0.2,1.9-0.5,2.7c-0.3,0.8-0.7,1.5-1.3,2c-0.5,0.5-1.1,1-1.8,1.3c-0.7,0.3-1.4,0.4-2.2,0.4
				c-0.8,0-1.6-0.1-2.3-0.4s-1.3-0.7-1.8-1.3c-0.5-0.5-0.9-1.2-1.2-2c-0.3-0.8-0.4-1.7-0.4-2.7c0-1,0.1-1.9,0.4-2.8
				c0.3-0.8,0.7-1.5,1.2-2c0.5-0.6,1.1-1,1.8-1.3s1.4-0.4,2.3-0.4c0.8,0,1.6,0.1,2.3,0.4c0.7,0.3,1.3,0.7,1.8,1.3
				c0.5,0.6,0.9,1.2,1.2,2C377.9,503.1,378.1,504,378.1,505.1z M387.1,499.5c0.2-0.2,0.3-0.4,0.5-0.5s0.4-0.2,0.7-0.2h2.3
				l-18.8,25.3c-0.1,0.2-0.3,0.3-0.4,0.4c-0.2,0.1-0.4,0.1-0.6,0.1h-2.4L387.1,499.5z M375.6,505.1c0-0.8-0.1-1.5-0.3-2
				c-0.2-0.6-0.4-1-0.7-1.4c-0.3-0.4-0.6-0.6-1-0.8c-0.4-0.2-0.8-0.2-1.3-0.2c-0.4,0-0.9,0.1-1.3,0.2c-0.4,0.2-0.7,0.4-1,0.8
				c-0.3,0.4-0.5,0.8-0.7,1.4s-0.2,1.2-0.2,2c0,0.8,0.1,1.4,0.2,2s0.4,1,0.7,1.3s0.6,0.6,1,0.7s0.8,0.2,1.3,0.2
				c0.4,0,0.9-0.1,1.3-0.2s0.7-0.4,1-0.7s0.5-0.8,0.7-1.3C375.5,506.5,375.6,505.9,375.6,505.1z M392.3,518.6c0,1-0.2,1.9-0.5,2.7
				c-0.3,0.8-0.7,1.5-1.3,2c-0.5,0.5-1.1,1-1.8,1.3c-0.7,0.3-1.4,0.4-2.2,0.4c-0.8,0-1.6-0.1-2.3-0.4c-0.7-0.3-1.3-0.7-1.8-1.3
				s-0.9-1.2-1.2-2s-0.4-1.7-0.4-2.7c0-1,0.1-2,0.4-2.8c0.3-0.8,0.7-1.5,1.2-2s1.1-1,1.8-1.3c0.7-0.3,1.4-0.4,2.3-0.4
				c0.8,0,1.6,0.1,2.2,0.4c0.7,0.3,1.3,0.7,1.8,1.3c0.5,0.6,0.9,1.2,1.2,2C392.2,516.6,392.3,517.5,392.3,518.6z M389.9,518.6
				c0-0.8-0.1-1.5-0.3-2c-0.2-0.6-0.4-1-0.7-1.4c-0.3-0.3-0.6-0.6-1-0.8c-0.4-0.2-0.8-0.2-1.3-0.2c-0.4,0-0.9,0.1-1.3,0.2
				c-0.4,0.2-0.7,0.4-1,0.8c-0.3,0.3-0.5,0.8-0.7,1.4c-0.2,0.6-0.2,1.2-0.2,2c0,0.8,0.1,1.4,0.2,2c0.2,0.5,0.4,1,0.7,1.3
				c0.3,0.3,0.6,0.6,1,0.7c0.4,0.2,0.8,0.2,1.3,0.2c0.4,0,0.9-0.1,1.3-0.2c0.4-0.2,0.7-0.4,1-0.7c0.3-0.3,0.5-0.8,0.7-1.3
				C389.8,520,389.9,519.3,389.9,518.6z"/>
			<path class="st2" d="M399,513.3c0-2.6-0.3-5.1-1-7.5c-0.7-2.4-1.6-4.7-2.9-6.9c-0.1-0.2-0.2-0.4-0.2-0.6c0-0.2,0-0.3,0.1-0.4
				s0.2-0.2,0.3-0.3l1.4-0.9c0.9,1.4,1.7,2.8,2.3,4.1s1.1,2.7,1.5,4.1c0.4,1.4,0.7,2.7,0.9,4.1c0.2,1.4,0.3,2.8,0.3,4.3
				c0,1.5-0.1,2.9-0.3,4.3c-0.2,1.4-0.5,2.8-0.9,4.1c-0.4,1.4-0.9,2.7-1.5,4.1c-0.6,1.4-1.4,2.7-2.3,4.1l-1.4-0.9
				c-0.1-0.1-0.2-0.2-0.3-0.3s-0.1-0.2-0.1-0.4c0-0.1,0-0.2,0-0.3s0.1-0.2,0.1-0.3c1.2-2.2,2.2-4.5,2.9-6.9S399,515.9,399,513.3z"/>
			<path class="st2" d="M407,529.8V497h6.6v1.3c0,0.3-0.1,0.5-0.2,0.6s-0.4,0.2-0.6,0.2h-3v28.6h3c0.3,0,0.5,0.1,0.6,0.2
				s0.2,0.4,0.2,0.6v1.3H407z"/>
			<path class="st2" d="M429.5,517l-1.5,7.6h-1.5c-0.3,0-0.5-0.1-0.7-0.3c-0.2-0.2-0.3-0.5-0.3-0.8c0,0,0-0.1,0-0.1c0,0,0-0.1,0-0.2
				l1.3-6.2h-4.4l-1.3,6.4c-0.1,0.4-0.3,0.8-0.5,0.9c-0.3,0.2-0.6,0.3-0.9,0.3h-1.4l1.5-7.6h-2.6c-0.3,0-0.5-0.1-0.6-0.2
				c-0.2-0.1-0.2-0.4-0.2-0.7c0-0.1,0-0.1,0-0.2c0-0.1,0-0.1,0-0.2l0.1-1h3.7l1.2-5.9h-4.2l0.2-1.3c0.1-0.3,0.2-0.6,0.4-0.8
				c0.2-0.2,0.6-0.3,1-0.3h2.8l1.3-6.4c0.1-0.4,0.2-0.6,0.5-0.8s0.6-0.3,0.9-0.3h1.4l-1.5,7.6h4.4l1.5-7.6h1.4
				c0.3,0,0.5,0.1,0.7,0.3c0.2,0.2,0.3,0.4,0.3,0.7c0,0.1,0,0.2,0,0.2l-1.3,6.4h3.8l-0.2,1.4c-0.1,0.3-0.2,0.6-0.4,0.8
				c-0.2,0.2-0.6,0.2-1,0.2H431l-1.2,5.9h3.2c0.3,0,0.5,0.1,0.7,0.2s0.2,0.4,0.2,0.7c0,0.1,0,0.1,0,0.2c0,0.1,0,0.1,0,0.2l-0.2,1
				H429.5z M422.7,514.7h4.4l1.2-5.9h-4.4L422.7,514.7z"/>
			<path class="st2" d="M437.8,528.6c0-0.2,0.1-0.4,0.2-0.6c0.2-0.2,0.4-0.3,0.6-0.3h3v-28.6h-3c-0.3,0-0.5-0.1-0.6-0.2
				c-0.2-0.2-0.2-0.4-0.2-0.6V497h6.6v32.8h-6.6V528.6z"/>
			<path class="st2" d="M450.2,517c0-0.8-0.2-1.4-0.6-1.9c-0.4-0.5-1-0.7-1.8-0.7v-1.9c0.8,0,1.4-0.2,1.8-0.7
				c0.4-0.5,0.6-1.1,0.6-1.9c0-0.6,0-1.2-0.1-1.8c-0.1-0.6-0.2-1.2-0.3-1.8s-0.2-1.2-0.3-1.8c-0.1-0.6-0.1-1.2-0.1-1.8
				c0-0.8,0.1-1.6,0.4-2.3s0.6-1.3,1.1-1.8s1.1-0.9,1.9-1.2c0.7-0.3,1.6-0.4,2.6-0.4h1v1.4c0,0.2-0.1,0.4-0.3,0.5
				c-0.2,0.1-0.3,0.2-0.5,0.2h-0.4c-0.9,0-1.7,0.3-2.2,0.9c-0.5,0.6-0.8,1.4-0.8,2.5c0,0.7,0,1.3,0.1,1.9s0.2,1.2,0.3,1.8
				c0.1,0.6,0.2,1.2,0.3,1.8c0.1,0.6,0.1,1.2,0.1,1.8c0,0.5-0.1,0.9-0.2,1.3c-0.1,0.4-0.3,0.7-0.6,1c-0.2,0.3-0.5,0.6-0.9,0.8
				c-0.3,0.2-0.7,0.4-1.1,0.5c0.4,0.1,0.8,0.3,1.1,0.5c0.3,0.2,0.6,0.5,0.9,0.8c0.2,0.3,0.4,0.7,0.6,1c0.1,0.4,0.2,0.8,0.2,1.2
				c0,0.6,0,1.2-0.1,1.8c-0.1,0.6-0.2,1.2-0.3,1.8c-0.1,0.6-0.2,1.2-0.3,1.8c-0.1,0.6-0.1,1.3-0.1,1.9c0,1,0.3,1.9,0.8,2.5
				c0.5,0.6,1.3,0.9,2.2,0.9h0.4c0.1,0,0.3,0.1,0.5,0.2c0.2,0.1,0.3,0.3,0.3,0.5v1.4h-1c-1,0-1.8-0.1-2.6-0.4
				c-0.7-0.3-1.4-0.7-1.9-1.2s-0.9-1.1-1.1-1.8s-0.4-1.5-0.4-2.3c0-0.6,0-1.2,0.1-1.8c0.1-0.6,0.2-1.2,0.3-1.8
				c0.1-0.6,0.2-1.2,0.3-1.8C450.1,518.2,450.2,517.6,450.2,517z"/>
			<path class="st2" d="M478,521.3c-0.9,0-1.7-0.2-2.3-0.7c-0.6-0.4-1-1.1-1.1-2.1c-0.7,1-1.5,1.7-2.3,2.1s-1.7,0.6-2.6,0.6
				c-0.7,0-1.3-0.1-1.9-0.4s-1-0.6-1.3-1c-0.4-0.4-0.6-1-0.8-1.6c-0.2-0.6-0.3-1.2-0.3-1.9c0-1,0.2-2,0.6-3.1s1-2,1.7-2.8
				c0.8-0.8,1.7-1.5,2.9-2s2.5-0.8,4-0.8c0.8,0,1.5,0.1,2.1,0.2s1.2,0.3,1.7,0.5l-1.7,6.5c-0.2,0.9-0.3,1.6-0.3,2.2
				c0,0.4,0.1,0.8,0.2,1.1s0.3,0.5,0.4,0.7c0.2,0.2,0.4,0.3,0.6,0.3c0.2,0.1,0.5,0.1,0.8,0.1c0.6,0,1.1-0.2,1.7-0.5
				c0.5-0.3,1-0.8,1.4-1.4c0.4-0.6,0.7-1.3,1-2.2c0.2-0.9,0.4-1.8,0.4-2.9c0-1.7-0.3-3.1-0.8-4.4c-0.5-1.2-1.3-2.3-2.2-3.1
				c-0.9-0.8-2-1.5-3.3-1.9s-2.6-0.6-4.1-0.6c-1.6,0-3.1,0.3-4.5,0.9s-2.6,1.5-3.7,2.5s-1.9,2.4-2.5,3.8c-0.6,1.5-0.9,3.1-0.9,4.8
				c0,2,0.3,3.8,1,5.4s1.5,2.8,2.6,3.9s2.4,1.8,3.9,2.4s3.1,0.8,4.8,0.8c1.8,0,3.4-0.2,4.8-0.6c1.4-0.4,2.6-0.9,3.6-1.5
				c0.2-0.1,0.3-0.2,0.5-0.2c0.3,0,0.4,0.1,0.6,0.4l0.5,1.2c-1.3,0.9-2.7,1.5-4.4,2c-1.6,0.5-3.5,0.7-5.6,0.7s-4-0.3-5.8-1
				c-1.8-0.7-3.3-1.6-4.7-2.9c-1.3-1.2-2.3-2.8-3.1-4.6c-0.8-1.8-1.1-3.8-1.1-6.1c0-1.3,0.2-2.6,0.5-3.8s0.8-2.3,1.4-3.4
				c0.6-1,1.3-2,2.2-2.9c0.8-0.9,1.8-1.6,2.8-2.2s2.1-1.1,3.3-1.4s2.4-0.5,3.7-0.5c1.1,0,2.2,0.1,3.2,0.4s2.1,0.6,3,1.1
				c0.9,0.5,1.8,1,2.6,1.7c0.8,0.7,1.5,1.5,2,2.4c0.6,0.9,1,1.9,1.3,3c0.3,1.1,0.5,2.3,0.5,3.6c0,1.3-0.2,2.5-0.6,3.6
				c-0.4,1.1-0.9,2-1.5,2.9c-0.6,0.8-1.4,1.4-2.3,1.9C480,521.1,479,521.3,478,521.3z M470.4,519.1c0.4,0,0.7-0.1,1.1-0.2
				c0.4-0.1,0.7-0.3,1.1-0.6c0.4-0.3,0.7-0.7,1-1.2c0.3-0.5,0.5-1.2,0.7-1.9l1.4-5.3c-0.5-0.1-1-0.2-1.5-0.2c-0.9,0-1.7,0.2-2.5,0.6
				s-1.4,0.9-1.9,1.5c-0.5,0.6-1,1.3-1.3,2.1c-0.3,0.8-0.5,1.6-0.5,2.4c0,0.9,0.2,1.6,0.6,2.1C469,518.9,469.6,519.1,470.4,519.1z"
				/>
			<path class="st2" d="M493.4,517c0,0.6,0,1.2,0.1,1.8c0.1,0.6,0.2,1.2,0.3,1.8c0.1,0.6,0.2,1.2,0.3,1.8c0.1,0.6,0.1,1.2,0.1,1.8
				c0,0.8-0.1,1.6-0.4,2.3s-0.6,1.3-1.1,1.8s-1.1,0.9-1.8,1.2c-0.7,0.3-1.6,0.4-2.6,0.4h-1v-1.4c0-0.2,0.1-0.4,0.3-0.5
				c0.2-0.1,0.3-0.2,0.5-0.2h0.4c0.9,0,1.7-0.3,2.2-0.9c0.5-0.6,0.8-1.4,0.8-2.5c0-0.7,0-1.3-0.1-1.9c-0.1-0.6-0.2-1.2-0.3-1.8
				c-0.1-0.6-0.2-1.2-0.3-1.8s-0.1-1.2-0.1-1.8c0-0.4,0.1-0.9,0.2-1.2c0.1-0.4,0.3-0.7,0.6-1c0.2-0.3,0.5-0.6,0.9-0.8
				c0.3-0.2,0.7-0.4,1.1-0.5c-0.4-0.1-0.8-0.3-1.1-0.5c-0.3-0.2-0.6-0.5-0.9-0.8c-0.2-0.3-0.4-0.7-0.6-1c-0.1-0.4-0.2-0.8-0.2-1.3
				c0-0.6,0-1.2,0.1-1.8s0.2-1.2,0.3-1.8c0.1-0.6,0.2-1.2,0.3-1.8c0.1-0.6,0.1-1.3,0.1-1.9c0-1-0.3-1.9-0.8-2.5
				c-0.5-0.6-1.3-0.9-2.2-0.9h-0.4c-0.1,0-0.3-0.1-0.5-0.2c-0.2-0.1-0.3-0.3-0.3-0.5V497h1c1,0,1.8,0.1,2.6,0.4
				c0.7,0.3,1.4,0.7,1.8,1.2s0.9,1.1,1.1,1.8s0.4,1.5,0.4,2.3c0,0.6,0,1.2-0.1,1.8c-0.1,0.6-0.2,1.2-0.3,1.8s-0.2,1.2-0.3,1.8
				c-0.1,0.6-0.1,1.2-0.1,1.8c0,0.8,0.2,1.4,0.6,1.9c0.4,0.5,1,0.7,1.8,0.7v1.9c-0.8,0-1.4,0.2-1.8,0.7
				C493.6,515.6,493.4,516.2,493.4,517z"/>
			<path class="st2" d="M499.6,525c-0.2,0.4-0.4,0.7-0.7,0.9c-0.3,0.2-0.7,0.3-1,0.3h-1.3l10.8-26.9c0.2-0.4,0.4-0.7,0.7-0.9
				c0.3-0.2,0.6-0.3,1-0.3h1.3L499.6,525z"/>
			<path class="st2" d="M519.5,498.6c0.9,0,1.8,0.2,2.6,0.5s1.5,0.7,2,1.2c0.6,0.5,1,1.1,1.3,1.8s0.5,1.4,0.6,2.1l-2,0.4
				c-0.1,0-0.1,0-0.2,0c-0.2,0-0.3,0-0.4-0.1c-0.1-0.1-0.2-0.2-0.3-0.5c-0.1-0.3-0.2-0.6-0.4-1c-0.2-0.3-0.4-0.6-0.7-0.9
				s-0.6-0.5-1.1-0.7c-0.4-0.2-0.9-0.3-1.4-0.3c-0.6,0-1.1,0.1-1.6,0.3c-0.5,0.2-0.9,0.5-1.2,0.8c-0.3,0.3-0.6,0.7-0.8,1.2
				c-0.2,0.5-0.3,1-0.3,1.5c0,0.4,0.1,0.8,0.2,1.2c0.1,0.4,0.3,0.8,0.5,1.2c0.2,0.4,0.5,0.8,0.8,1.2c0.3,0.4,0.7,0.8,1.2,1.3
				l7.4,7.5c0.5-0.8,0.8-1.6,1.1-2.5c0.3-0.9,0.5-1.8,0.5-2.7c0-0.2,0.1-0.4,0.2-0.5s0.3-0.2,0.5-0.2h2c0,1.4-0.2,2.7-0.7,4.1
				s-1,2.6-1.8,3.7l5.4,5.5h-3.1c-0.3,0-0.6,0-0.8-0.1s-0.5-0.3-0.7-0.5l-2.6-2.6c-1.1,1.1-2.4,2-3.9,2.6s-3.1,1-4.9,1
				c-1,0-1.9-0.2-2.8-0.5s-1.7-0.8-2.5-1.4c-0.7-0.6-1.3-1.4-1.8-2.3c-0.4-0.9-0.7-1.9-0.7-3c0-0.8,0.1-1.6,0.4-2.4
				c0.3-0.8,0.7-1.4,1.2-2.1c0.5-0.6,1.1-1.2,1.8-1.7c0.7-0.5,1.4-0.9,2.2-1.3c-0.7-0.9-1.3-1.8-1.6-2.7c-0.3-0.9-0.5-1.8-0.5-2.7
				c0-0.9,0.2-1.7,0.5-2.5c0.3-0.8,0.8-1.4,1.4-2c0.6-0.6,1.3-1,2.2-1.3C517.5,498.7,518.5,498.6,519.5,498.6z M512.4,517.5
				c0,0.8,0.1,1.5,0.4,2.1c0.3,0.6,0.7,1.1,1.1,1.5c0.5,0.4,1,0.7,1.6,0.9c0.6,0.2,1.2,0.3,1.8,0.3c1.3,0,2.5-0.2,3.6-0.7
				c1.1-0.5,2-1.1,2.8-2l-7.6-7.7c-1.3,0.7-2.2,1.5-2.9,2.5C512.7,515.3,512.4,516.4,512.4,517.5z"/>
			<path class="st2" d="M535.6,511.9l13.9-7.2v2.3c0,0.2,0,0.4-0.1,0.5c-0.1,0.1-0.3,0.3-0.5,0.4l-8.1,4.1c-0.2,0.1-0.5,0.2-0.8,0.3
				c-0.3,0.1-0.6,0.2-0.9,0.2c0.3,0.1,0.6,0.1,0.9,0.2c0.3,0.1,0.5,0.2,0.8,0.3l8.1,4.1c0.2,0.1,0.4,0.3,0.5,0.4
				c0.1,0.2,0.1,0.3,0.1,0.5v2.3l-13.9-7.2V511.9z"/>
			<path class="st2" d="M555.7,512.5h8.9v2.7h-8.9V512.5z"/>
			<path class="st2" d="M578.1,503.6v7.7h7.3v2.4h-7.3v7.7h-2.6v-7.7h-7.3v-2.4h7.3v-7.7H578.1z"/>
			<path class="st2" d="M589,511.3h17.2v2.4H589V511.3z M595.4,506.2c0-0.3,0.1-0.6,0.2-0.9c0.1-0.3,0.3-0.5,0.5-0.7
				c0.2-0.2,0.4-0.4,0.7-0.5c0.3-0.1,0.6-0.2,0.9-0.2c0.3,0,0.6,0.1,0.9,0.2c0.3,0.1,0.5,0.3,0.7,0.5c0.2,0.2,0.4,0.4,0.5,0.7
				c0.1,0.3,0.2,0.6,0.2,0.9c0,0.3-0.1,0.6-0.2,0.9c-0.1,0.3-0.3,0.5-0.5,0.7s-0.4,0.4-0.7,0.5c-0.3,0.1-0.6,0.2-0.9,0.2
				c-0.3,0-0.6-0.1-0.9-0.2c-0.3-0.1-0.5-0.3-0.7-0.5c-0.2-0.2-0.4-0.4-0.5-0.7C595.5,506.8,595.4,506.5,595.4,506.2z M595.4,519
				c0-0.3,0.1-0.6,0.2-0.9c0.1-0.3,0.3-0.5,0.5-0.7c0.2-0.2,0.4-0.4,0.7-0.5c0.3-0.1,0.6-0.2,0.9-0.2c0.3,0,0.6,0.1,0.9,0.2
				c0.3,0.1,0.5,0.3,0.7,0.5s0.4,0.4,0.5,0.7c0.1,0.3,0.2,0.6,0.2,0.9c0,0.3-0.1,0.6-0.2,0.9c-0.1,0.3-0.3,0.5-0.5,0.7
				s-0.4,0.4-0.7,0.5c-0.3,0.1-0.6,0.2-0.9,0.2c-0.3,0-0.6-0.1-0.9-0.2c-0.3-0.1-0.5-0.3-0.7-0.5c-0.2-0.2-0.4-0.4-0.5-0.7
				C595.5,519.6,595.4,519.3,595.4,519z"/>
			<path class="st2" d="M626.4,506.4l-6.2,6.2l6.4,6.4l-1.7,1.7l-6.4-6.4l-6.4,6.4l-1.7-1.7l6.4-6.4l-6.2-6.2l1.7-1.7l6.2,6.2
				l6.2-6.2L626.4,506.4z"/>
			<path class="st2" d="M631.7,508.3h15.5v2.4h-15.5V508.3z M631.7,514.3h15.5v2.4h-15.5V514.3z"/>
			<path class="st2" d="M654.1,520.4v-2.3c0-0.2,0-0.4,0.1-0.5c0.1-0.2,0.3-0.3,0.5-0.4l8.1-4.1c0.2-0.1,0.5-0.2,0.7-0.3
				c0.3-0.1,0.5-0.2,0.8-0.2c-0.3-0.1-0.6-0.2-0.8-0.2s-0.5-0.2-0.7-0.3l-8.1-4.1c-0.2-0.1-0.4-0.3-0.5-0.4
				c-0.1-0.2-0.1-0.3-0.1-0.5v-2.3l13.9,7.2v1.3L654.1,520.4z"/>
			<path class="st2" d="M672,511.7c0-1.2,0.2-2.4,0.5-3.5c0.3-1.1,0.8-2.2,1.3-3.2c0.6-1,1.3-1.9,2.1-2.7c0.8-0.8,1.7-1.5,2.7-2.1
				c1-0.6,2-1,3.1-1.3c1.1-0.3,2.3-0.5,3.5-0.5c1.2,0,2.4,0.2,3.5,0.5c1.1,0.3,2.2,0.8,3.1,1.3c1,0.6,1.9,1.3,2.7,2.1
				s1.5,1.7,2.1,2.7c0.6,1,1,2,1.3,3.2c0.3,1.1,0.5,2.3,0.5,3.5c0,1.2-0.2,2.4-0.5,3.5c-0.3,1.1-0.8,2.2-1.3,3.1
				c-0.6,1-1.3,1.9-2.1,2.7c-0.8,0.8-1.7,1.5-2.7,2.1s-2,1-3.1,1.3c-1.1,0.3-2.3,0.5-3.5,0.5c-1.2,0-2.4-0.2-3.5-0.5
				c-1.1-0.3-2.2-0.8-3.1-1.3c-1-0.6-1.9-1.3-2.7-2.1c-0.8-0.8-1.5-1.7-2.1-2.7c-0.6-1-1-2-1.3-3.1C672.1,514.1,672,513,672,511.7z
				 M673.8,511.7c0,1.1,0.1,2.1,0.4,3.1c0.3,1,0.6,1.9,1.1,2.8s1.1,1.6,1.8,2.3c0.7,0.7,1.4,1.3,2.3,1.8s1.7,0.9,2.7,1.2
				c1,0.3,2,0.4,3,0.4c1.6,0,3.1-0.3,4.5-0.9c1.4-0.6,2.6-1.4,3.6-2.5c1-1,1.8-2.3,2.4-3.7c0.6-1.4,0.9-2.9,0.9-4.5
				c0-1.1-0.1-2.1-0.4-3.1c-0.3-1-0.7-1.9-1.1-2.8c-0.5-0.9-1.1-1.6-1.8-2.3c-0.7-0.7-1.5-1.3-2.3-1.8s-1.7-0.9-2.7-1.2
				c-1-0.3-2-0.4-3.1-0.4c-1.6,0-3.1,0.3-4.4,0.9c-1.4,0.6-2.6,1.4-3.6,2.5c-1,1.1-1.8,2.3-2.4,3.7S673.8,510.1,673.8,511.7z
				 M682.5,513.4v6.4h-2.8v-16.1h5.2c2.1,0,3.6,0.4,4.6,1.1s1.5,1.9,1.5,3.3c0,1.1-0.3,2.1-1,2.9c-0.6,0.8-1.6,1.3-2.9,1.6
				c0.2,0.1,0.4,0.3,0.5,0.5c0.2,0.2,0.3,0.4,0.4,0.6l4.1,6h-2.7c-0.4,0-0.7-0.1-0.9-0.4l-3.6-5.4c-0.1-0.2-0.2-0.3-0.4-0.4
				c-0.2-0.1-0.4-0.1-0.7-0.1H682.5z M682.5,511.3h2.1c0.7,0,1.2-0.1,1.7-0.2s0.8-0.3,1.1-0.5c0.3-0.2,0.5-0.5,0.6-0.9
				c0.1-0.3,0.2-0.7,0.2-1.2c0-0.4-0.1-0.8-0.2-1.2c-0.1-0.3-0.3-0.6-0.6-0.8c-0.3-0.2-0.6-0.4-1-0.5c-0.4-0.1-0.9-0.2-1.6-0.2h-2.4
				V511.3z"/>
			<path class="st2" d="M700.7,511.7c0-1.2,0.2-2.4,0.5-3.5c0.3-1.1,0.8-2.2,1.3-3.2c0.6-1,1.3-1.9,2.1-2.7c0.8-0.8,1.7-1.5,2.7-2.1
				c1-0.6,2-1,3.1-1.3c1.1-0.3,2.3-0.5,3.5-0.5c1.2,0,2.4,0.2,3.5,0.5c1.1,0.3,2.2,0.8,3.1,1.3c1,0.6,1.9,1.3,2.7,2.1
				s1.5,1.7,2.1,2.7c0.6,1,1,2,1.3,3.2c0.3,1.1,0.5,2.3,0.5,3.5c0,1.2-0.2,2.4-0.5,3.5c-0.3,1.1-0.8,2.2-1.3,3.1
				c-0.6,1-1.3,1.9-2.1,2.7c-0.8,0.8-1.7,1.5-2.7,2.1s-2,1-3.1,1.3c-1.1,0.3-2.3,0.5-3.5,0.5c-1.2,0-2.4-0.2-3.5-0.5
				c-1.1-0.3-2.2-0.8-3.1-1.3c-1-0.6-1.9-1.3-2.7-2.1c-0.8-0.8-1.5-1.7-2.1-2.7c-0.6-1-1-2-1.3-3.1
				C700.9,514.1,700.7,513,700.7,511.7z M702.5,511.7c0,1.1,0.1,2.1,0.4,3.1c0.3,1,0.6,1.9,1.1,2.8s1.1,1.6,1.8,2.3
				c0.7,0.7,1.4,1.3,2.3,1.8s1.7,0.9,2.7,1.2c1,0.3,2,0.4,3,0.4c1.6,0,3.1-0.3,4.5-0.9c1.4-0.6,2.6-1.4,3.6-2.5c1-1,1.8-2.3,2.4-3.7
				c0.6-1.4,0.9-2.9,0.9-4.5c0-1.1-0.1-2.1-0.4-3.1c-0.3-1-0.7-1.9-1.1-2.8c-0.5-0.9-1.1-1.6-1.8-2.3c-0.7-0.7-1.5-1.3-2.3-1.8
				s-1.7-0.9-2.7-1.2c-1-0.3-2-0.4-3.1-0.4c-1.6,0-3.1,0.3-4.4,0.9c-1.4,0.6-2.6,1.4-3.6,2.5c-1,1.1-1.8,2.3-2.4,3.7
				S702.5,510.1,702.5,511.7z M718,516.3c0.1-0.1,0.2-0.1,0.2-0.2c0.1,0,0.1-0.1,0.2-0.1c0.1,0,0.2,0,0.3,0.1s0.1,0.1,0.2,0.2
				l1.1,1.2c-0.7,0.8-1.5,1.4-2.5,1.8s-2.2,0.7-3.6,0.7c-1.2,0-2.2-0.2-3.2-0.6s-1.8-1-2.5-1.7c-0.7-0.7-1.2-1.6-1.6-2.6
				c-0.4-1-0.6-2.1-0.6-3.3c0-1.2,0.2-2.3,0.6-3.3c0.4-1,1-1.9,1.7-2.6c0.7-0.7,1.6-1.3,2.6-1.7c1-0.4,2.1-0.6,3.3-0.6
				c1.3,0,2.4,0.2,3.3,0.6s1.7,0.9,2.4,1.6l-0.8,1.2c-0.1,0.1-0.1,0.1-0.2,0.2c-0.1,0.1-0.2,0.1-0.4,0.1c-0.2,0-0.3-0.1-0.5-0.2
				c-0.2-0.1-0.4-0.3-0.7-0.4s-0.7-0.3-1.1-0.5s-1-0.2-1.7-0.2c-0.8,0-1.6,0.1-2.3,0.4c-0.7,0.3-1.3,0.7-1.7,1.2
				c-0.5,0.5-0.8,1.1-1.1,1.8c-0.3,0.7-0.4,1.5-0.4,2.4c0,0.9,0.1,1.7,0.4,2.5c0.3,0.7,0.6,1.3,1.1,1.8s1,0.9,1.6,1.1
				c0.6,0.3,1.3,0.4,2.1,0.4c0.6,0,1.1,0,1.5-0.1c0.4-0.1,0.7-0.2,1-0.3s0.5-0.3,0.8-0.4C717.5,516.6,717.8,516.4,718,516.3z"/>
			<path class="st2" d="M737.2,524.9c-1.5-0.1-2.8-0.5-4-1.1c-1.2-0.6-2.2-1.3-3.1-2.2l1-1.5c0.1-0.1,0.2-0.2,0.4-0.3
				s0.3-0.1,0.5-0.1c0.2,0,0.5,0.1,0.8,0.3c0.3,0.2,0.6,0.5,1.1,0.8s0.9,0.6,1.5,0.9c0.6,0.3,1.3,0.5,2.1,0.6l0.7-9.6
				c-0.8-0.3-1.7-0.5-2.5-0.9c-0.8-0.3-1.5-0.7-2.2-1.2c-0.6-0.5-1.2-1.2-1.5-1.9c-0.4-0.8-0.6-1.7-0.6-2.9c0-0.9,0.2-1.7,0.5-2.6
				c0.3-0.8,0.8-1.6,1.5-2.2c0.7-0.6,1.5-1.2,2.4-1.6s2.1-0.6,3.3-0.6l0.2-2.6c0-0.2,0.1-0.4,0.3-0.6c0.2-0.2,0.4-0.3,0.6-0.3h1.2
				l-0.3,3.6c1.3,0.2,2.3,0.5,3.3,1s1.7,1.1,2.4,1.8l-0.8,1.2c-0.2,0.4-0.5,0.5-0.8,0.5c-0.2,0-0.4-0.1-0.6-0.2
				c-0.2-0.2-0.5-0.3-0.9-0.5c-0.3-0.2-0.8-0.4-1.2-0.6s-1-0.3-1.6-0.4l-0.6,8.7c0.9,0.3,1.7,0.6,2.6,0.9s1.6,0.7,2.3,1.2
				c0.7,0.5,1.2,1.1,1.6,1.9c0.4,0.7,0.6,1.7,0.6,2.8c0,1.1-0.2,2.1-0.5,3.1s-0.9,1.8-1.6,2.5s-1.5,1.3-2.5,1.8
				c-1,0.5-2.1,0.7-3.4,0.7l-0.2,3.2c0,0.2-0.1,0.4-0.3,0.6c-0.2,0.2-0.4,0.3-0.6,0.3h-1.2L737.2,524.9z M734.2,505.4
				c0,0.6,0.1,1.1,0.3,1.5c0.2,0.4,0.5,0.8,0.8,1.1c0.4,0.3,0.8,0.6,1.3,0.8c0.5,0.2,1,0.5,1.6,0.6l0.5-8.1c-0.8,0.1-1.5,0.2-2,0.5
				c-0.6,0.2-1,0.5-1.4,0.9c-0.4,0.4-0.6,0.8-0.8,1.2C734.3,504.4,734.2,504.9,734.2,505.4z M744.2,517.3c0-0.6-0.1-1.1-0.3-1.5
				c-0.2-0.4-0.5-0.8-0.9-1.1c-0.4-0.3-0.8-0.6-1.3-0.8c-0.5-0.2-1.1-0.4-1.7-0.6l-0.6,9c0.8-0.1,1.5-0.2,2.1-0.5
				c0.6-0.3,1.1-0.6,1.5-1s0.7-0.9,0.9-1.5C744.1,518.6,744.2,518,744.2,517.3z"/>
			<path class="st2" d="M750,512.5c0-0.3,0.1-0.6,0.3-0.8c0.2-0.2,0.5-0.3,0.8-0.3h2.4v-4.7c0-1.1,0.2-2.2,0.5-3.2
				c0.3-1,0.8-1.9,1.5-2.6c0.7-0.7,1.5-1.3,2.5-1.7c1-0.4,2.1-0.6,3.5-0.6c0.9,0,1.8,0.1,2.5,0.4c0.7,0.2,1.4,0.6,1.9,1
				s1.1,0.9,1.5,1.4s0.8,1.1,1.1,1.7l-1.3,0.8c-0.1,0.1-0.2,0.1-0.4,0.2c-0.1,0-0.2,0-0.4,0c-0.2,0-0.3,0-0.5-0.1
				c-0.1-0.1-0.3-0.2-0.4-0.4c-0.2-0.3-0.5-0.6-0.7-0.9c-0.2-0.3-0.5-0.5-0.8-0.7s-0.7-0.4-1.1-0.5c-0.4-0.1-0.9-0.2-1.4-0.2
				c-0.8,0-1.4,0.1-2,0.4s-1.1,0.6-1.4,1.1c-0.4,0.5-0.7,1-0.9,1.7c-0.2,0.7-0.3,1.4-0.3,2.2v4.7h7.9v1.3c0,0.2-0.1,0.4-0.3,0.6
				c-0.2,0.2-0.4,0.3-0.7,0.3h-7v4.4c0,0.9-0.2,1.7-0.5,2.3c-0.3,0.7-0.8,1.3-1.4,1.8c0.3-0.1,0.7-0.1,1-0.2c0.3,0,0.7-0.1,1.1-0.1
				h12.2v1.4c0,0.2,0,0.3-0.1,0.5c-0.1,0.2-0.2,0.3-0.3,0.5c-0.1,0.1-0.3,0.2-0.4,0.3s-0.4,0.1-0.6,0.1h-17.4v-2.1
				c0.4-0.1,0.8-0.3,1.2-0.5s0.7-0.5,1-0.8c0.3-0.3,0.5-0.7,0.7-1.1s0.3-0.9,0.3-1.4v-5.2H750V512.5z"/>
			<path class="st2" d="M772.6,513.4h5.5l-7.3-14.5h2.7c0.3,0,0.6,0.1,0.7,0.2c0.2,0.2,0.3,0.3,0.5,0.6l5,10.2
				c0.2,0.4,0.3,0.8,0.4,1.2c0.1,0.3,0.2,0.7,0.3,1c0.1-0.3,0.2-0.7,0.3-1.1c0.1-0.4,0.2-0.7,0.4-1.1l5-10.2
				c0.1-0.2,0.2-0.4,0.4-0.6c0.2-0.2,0.4-0.3,0.7-0.3h2.7l-7.4,14.5h5.5v1.8h-6.1v1.9h6.1v1.9h-6.1v5.7h-3.2V519h-6.1v-1.9h6.1v-1.9
				h-6.1V513.4z"/>
			<path class="st2" d="M800.9,524.9c-1.1-0.1-2.1-0.4-3.1-0.9s-1.7-1.1-2.4-1.9c-0.7-0.8-1.2-1.7-1.6-2.8s-0.6-2.3-0.6-3.7
				c0-1.3,0.2-2.6,0.6-3.7c0.4-1.1,1-2.1,1.7-2.9c0.8-0.8,1.7-1.5,2.8-2c1.1-0.5,2.4-0.7,3.8-0.7l0.2-3.2c0-0.3,0.1-0.5,0.3-0.7
				c0.2-0.2,0.4-0.3,0.6-0.3h1.2l-0.3,4.2c1,0.1,1.9,0.4,2.7,0.8s1.5,0.9,2.2,1.4l-0.8,1.1c-0.1,0.1-0.2,0.2-0.3,0.3
				c-0.1,0.1-0.2,0.1-0.4,0.1c-0.1,0-0.3-0.1-0.5-0.2c-0.2-0.1-0.4-0.2-0.7-0.4c-0.3-0.1-0.6-0.3-1-0.4c-0.4-0.1-0.8-0.3-1.3-0.3
				l-0.9,13.7c0.8,0,1.4-0.1,1.9-0.3c0.5-0.2,0.9-0.4,1.3-0.6c0.4-0.2,0.6-0.4,0.9-0.6c0.2-0.2,0.4-0.3,0.6-0.3c0.1,0,0.3,0,0.4,0.1
				c0.1,0.1,0.2,0.1,0.3,0.2l0.9,1.1c-0.7,0.9-1.6,1.6-2.7,2c-1.1,0.5-2.3,0.7-3.6,0.7l-0.2,3.2c0,0.2-0.1,0.4-0.3,0.6
				c-0.2,0.2-0.4,0.3-0.6,0.3h-1.2L800.9,524.9z M796.5,515.5c0,1.9,0.4,3.5,1.2,4.6c0.8,1.2,1.9,1.9,3.4,2.1l0.9-13.7
				c-0.9,0.1-1.7,0.3-2.4,0.6c-0.7,0.3-1.3,0.8-1.7,1.4c-0.5,0.6-0.8,1.3-1.1,2.1C796.6,513.6,796.5,514.5,796.5,515.5z"/>
			<path class="st2" d="M814,509.2c0-0.3,0.1-0.6,0.2-0.9c0.1-0.3,0.3-0.5,0.5-0.7c0.2-0.2,0.4-0.4,0.7-0.5c0.3-0.1,0.6-0.2,0.9-0.2
				c0.3,0,0.6,0.1,0.9,0.2c0.3,0.1,0.5,0.3,0.7,0.5s0.4,0.4,0.5,0.7c0.1,0.3,0.2,0.6,0.2,0.9c0,0.3-0.1,0.6-0.2,0.9
				c-0.1,0.3-0.3,0.5-0.5,0.7s-0.4,0.4-0.7,0.5c-0.3,0.1-0.6,0.2-0.9,0.2c-0.3,0-0.6-0.1-0.9-0.2c-0.3-0.1-0.5-0.3-0.7-0.5
				c-0.2-0.2-0.4-0.4-0.5-0.7C814.1,509.8,814,509.5,814,509.2z M814,522.7c0-0.3,0.1-0.6,0.2-0.9c0.1-0.3,0.3-0.5,0.5-0.7
				c0.2-0.2,0.4-0.4,0.7-0.5c0.3-0.1,0.6-0.2,0.9-0.2c0.3,0,0.6,0.1,0.9,0.2c0.3,0.1,0.5,0.3,0.7,0.5s0.4,0.4,0.5,0.7
				c0.1,0.3,0.2,0.6,0.2,0.9c0,0.3-0.1,0.6-0.2,0.9c-0.1,0.3-0.3,0.5-0.5,0.7s-0.4,0.4-0.7,0.5c-0.3,0.1-0.6,0.2-0.9,0.2
				c-0.3,0-0.6-0.1-0.9-0.2c-0.3-0.1-0.5-0.3-0.7-0.5c-0.2-0.2-0.4-0.4-0.5-0.7C814.1,523.3,814,523,814,522.7z"/>
			<path class="st2" d="M823.1,509.2c0-0.3,0.1-0.6,0.2-0.9c0.1-0.3,0.3-0.5,0.5-0.7c0.2-0.2,0.4-0.4,0.7-0.5
				c0.3-0.1,0.6-0.2,0.9-0.2c0.3,0,0.6,0.1,0.9,0.2c0.3,0.1,0.5,0.3,0.7,0.5s0.4,0.4,0.5,0.7c0.1,0.3,0.2,0.6,0.2,0.9
				c0,0.3-0.1,0.6-0.2,0.9c-0.1,0.3-0.3,0.5-0.5,0.7s-0.4,0.4-0.7,0.5c-0.3,0.1-0.6,0.2-0.9,0.2c-0.3,0-0.6-0.1-0.9-0.2
				c-0.3-0.1-0.5-0.3-0.7-0.5c-0.2-0.2-0.4-0.4-0.5-0.7C823.2,509.8,823.1,509.5,823.1,509.2z M823.2,522.4c0-0.3,0.1-0.5,0.2-0.8
				c0.1-0.2,0.2-0.5,0.4-0.6c0.2-0.2,0.4-0.3,0.7-0.4s0.6-0.2,0.9-0.2c0.4,0,0.7,0.1,1,0.2s0.5,0.3,0.7,0.5c0.2,0.2,0.3,0.5,0.4,0.8
				c0.1,0.3,0.1,0.6,0.1,1c0,0.5-0.1,1.1-0.2,1.7c-0.2,0.6-0.4,1.2-0.7,1.7s-0.6,1.1-1.1,1.7s-0.9,1-1.4,1.5l-0.5-0.5
				c-0.2-0.1-0.2-0.3-0.2-0.5c0-0.2,0.1-0.3,0.3-0.5c0.1-0.1,0.3-0.3,0.5-0.5c0.2-0.2,0.4-0.5,0.6-0.8c0.2-0.3,0.4-0.6,0.5-1
				c0.2-0.3,0.3-0.7,0.4-1.1h-0.2c-0.3,0-0.6-0.1-0.8-0.2c-0.3-0.1-0.5-0.3-0.7-0.5c-0.2-0.2-0.3-0.4-0.4-0.7
				C823.3,523,823.2,522.7,823.2,522.4z"/>
			<path class="st2" d="M831.6,522.4c0-0.3,0.1-0.5,0.2-0.8c0.1-0.2,0.2-0.5,0.4-0.6c0.2-0.2,0.4-0.3,0.7-0.4
				c0.3-0.1,0.6-0.2,0.9-0.2c0.4,0,0.7,0.1,1,0.2c0.3,0.1,0.5,0.3,0.7,0.5c0.2,0.2,0.3,0.5,0.4,0.8c0.1,0.3,0.1,0.6,0.1,1
				c0,0.5-0.1,1.1-0.2,1.7c-0.2,0.6-0.4,1.2-0.7,1.7c-0.3,0.6-0.6,1.1-1.1,1.7s-0.9,1-1.4,1.5L832,529c-0.2-0.1-0.2-0.3-0.2-0.5
				c0-0.2,0.1-0.3,0.3-0.5c0.1-0.1,0.3-0.3,0.5-0.5c0.2-0.2,0.4-0.5,0.6-0.8s0.4-0.6,0.5-1c0.2-0.3,0.3-0.7,0.4-1.1h-0.2
				c-0.3,0-0.6-0.1-0.8-0.2c-0.3-0.1-0.5-0.3-0.7-0.5c-0.2-0.2-0.3-0.4-0.4-0.7C831.6,523,831.6,522.7,831.6,522.4z"/>
			<path class="st2" d="M839.1,522.7c0-0.3,0.1-0.6,0.2-0.9c0.1-0.3,0.3-0.5,0.5-0.7c0.2-0.2,0.4-0.4,0.7-0.5
				c0.3-0.1,0.6-0.2,0.9-0.2c0.3,0,0.6,0.1,0.9,0.2c0.3,0.1,0.5,0.3,0.7,0.5s0.4,0.4,0.5,0.7c0.1,0.3,0.2,0.6,0.2,0.9
				c0,0.3-0.1,0.6-0.2,0.9c-0.1,0.3-0.3,0.5-0.5,0.7s-0.4,0.4-0.7,0.5c-0.3,0.1-0.6,0.2-0.9,0.2c-0.3,0-0.6-0.1-0.9-0.2
				c-0.3-0.1-0.5-0.3-0.7-0.5c-0.2-0.2-0.4-0.4-0.5-0.7C839.1,523.3,839.1,523,839.1,522.7z"/>
			<path class="st2" d="M847.4,509.1v-3.5c0-0.2,0-0.4,0-0.6s0.1-0.4,0.2-0.6c-0.2,0.3-0.6,0.6-1,0.8l-3.1,1.8l-0.8-1.3l3.1-1.8
				c0.4-0.3,0.9-0.4,1.3-0.4c-0.2,0-0.5-0.1-0.7-0.1c-0.2-0.1-0.4-0.2-0.6-0.3l-3.1-1.8l0.8-1.3l3.1,1.8c0.4,0.2,0.8,0.6,1,0.9
				c-0.1-0.2-0.2-0.4-0.2-0.7c0-0.2-0.1-0.5-0.1-0.7v-3.6h1.6v3.5c0,0.5-0.1,0.9-0.3,1.3c0.1-0.2,0.3-0.3,0.4-0.5
				c0.2-0.1,0.3-0.3,0.5-0.4l3.1-1.8l0.8,1.4l-3.1,1.8c-0.2,0.1-0.4,0.2-0.6,0.3s-0.4,0.1-0.6,0.1c0.2,0,0.4,0.1,0.6,0.1
				c0.2,0.1,0.4,0.2,0.6,0.3l3.1,1.8l-0.8,1.3l-3.1-1.8c-0.2-0.1-0.4-0.3-0.6-0.4c-0.2-0.1-0.3-0.3-0.5-0.5c0.2,0.4,0.3,0.8,0.3,1.3
				v3.6H847.4z"/>
		</g>
	</g>
	<rect x="1002.1" y="400" class="st2" width="119.4" height="143.3"/>
	<g>
		<g>
			<g>
				<path class="st0" d="M1025.8,431.8h8.1v1h-9.3v-17h1.2V431.8z"/>
				<path class="st0" d="M1038.2,416.8c0,0.1,0,0.3-0.1,0.4c-0.1,0.1-0.1,0.2-0.2,0.3c-0.1,0.1-0.2,0.2-0.3,0.2
					c-0.1,0.1-0.3,0.1-0.4,0.1c-0.1,0-0.3,0-0.4-0.1c-0.1-0.1-0.2-0.1-0.3-0.2c-0.1-0.1-0.2-0.2-0.2-0.3c-0.1-0.1-0.1-0.3-0.1-0.4
					c0-0.1,0-0.3,0.1-0.4c0.1-0.1,0.1-0.2,0.2-0.3c0.1-0.1,0.2-0.2,0.3-0.2s0.3-0.1,0.4-0.1c0.1,0,0.3,0,0.4,0.1
					c0.1,0.1,0.2,0.1,0.3,0.2c0.1,0.1,0.2,0.2,0.2,0.3C1038.2,416.5,1038.2,416.6,1038.2,416.8z M1037.7,420.9v11.9h-1.1v-11.9
					H1037.7z"/>
				<path class="st0" d="M1045.9,420.7c0.5,0,1,0.1,1.4,0.2c0.4,0.1,0.8,0.3,1.2,0.5h3.1v0.4c0,0.2-0.1,0.3-0.3,0.3l-1.8,0.1
					c0.2,0.3,0.4,0.6,0.5,1c0.1,0.4,0.2,0.8,0.2,1.2c0,0.6-0.1,1.1-0.3,1.6s-0.5,0.9-0.9,1.2c-0.4,0.3-0.8,0.6-1.3,0.8
					c-0.5,0.2-1.1,0.3-1.7,0.3c-0.7,0-1.3-0.1-1.9-0.3c-0.3,0.2-0.6,0.4-0.8,0.7s-0.3,0.5-0.3,0.8c0,0.3,0.1,0.6,0.4,0.8
					c0.2,0.2,0.6,0.3,1,0.4c0.4,0.1,0.8,0.1,1.4,0.2c0.5,0,1,0,1.5,0.1c0.5,0,1,0.1,1.5,0.1c0.5,0.1,1,0.2,1.4,0.4
					c0.4,0.2,0.7,0.4,1,0.8c0.2,0.3,0.4,0.8,0.4,1.3c0,0.5-0.1,1-0.4,1.4c-0.2,0.5-0.6,0.9-1.1,1.2c-0.5,0.4-1,0.6-1.7,0.8
					s-1.4,0.3-2.2,0.3c-0.8,0-1.6-0.1-2.2-0.3c-0.6-0.2-1.2-0.4-1.6-0.7s-0.8-0.6-1-1c-0.2-0.4-0.3-0.8-0.3-1.2
					c0-0.6,0.2-1.2,0.6-1.6s1-0.8,1.7-1.1c-0.4-0.1-0.7-0.3-1-0.6c-0.2-0.3-0.4-0.6-0.4-1.1c0-0.2,0-0.3,0.1-0.5
					c0.1-0.2,0.2-0.4,0.3-0.5c0.1-0.2,0.3-0.3,0.5-0.5c0.2-0.2,0.4-0.3,0.6-0.4c-0.6-0.3-1-0.8-1.3-1.3c-0.3-0.5-0.5-1.2-0.5-1.9
					c0-0.6,0.1-1.1,0.3-1.6s0.5-0.9,0.9-1.2s0.8-0.6,1.4-0.8C1044.7,420.8,1045.2,420.7,1045.9,420.7z M1050.3,433.6
					c0-0.4-0.1-0.7-0.3-0.9c-0.2-0.2-0.5-0.4-0.8-0.5s-0.7-0.2-1.1-0.3c-0.4-0.1-0.9-0.1-1.3-0.1c-0.5,0-0.9,0-1.4-0.1
					c-0.5,0-0.9-0.1-1.3-0.1c-0.3,0.1-0.6,0.3-0.8,0.4c-0.3,0.2-0.5,0.3-0.7,0.5c-0.2,0.2-0.3,0.4-0.4,0.6c-0.1,0.2-0.2,0.5-0.2,0.8
					c0,0.4,0.1,0.7,0.3,1c0.2,0.3,0.4,0.6,0.8,0.8c0.3,0.2,0.8,0.4,1.3,0.5s1.1,0.2,1.7,0.2c0.6,0,1.2-0.1,1.7-0.2
					c0.5-0.1,1-0.3,1.4-0.6c0.4-0.2,0.7-0.5,0.9-0.9S1050.3,434.1,1050.3,433.6z M1045.9,427.6c0.5,0,1-0.1,1.4-0.2
					c0.4-0.1,0.7-0.4,1-0.6c0.3-0.3,0.5-0.6,0.6-0.9c0.1-0.4,0.2-0.8,0.2-1.2s-0.1-0.9-0.2-1.2c-0.1-0.4-0.4-0.7-0.6-1
					c-0.3-0.3-0.6-0.5-1-0.6c-0.4-0.1-0.8-0.2-1.3-0.2s-1,0.1-1.4,0.2c-0.4,0.1-0.7,0.3-1,0.6c-0.3,0.3-0.5,0.6-0.6,1
					c-0.1,0.4-0.2,0.8-0.2,1.2s0.1,0.9,0.2,1.2c0.1,0.4,0.4,0.7,0.6,0.9s0.6,0.5,1,0.6C1044.9,427.5,1045.4,427.6,1045.9,427.6z"/>
				<path class="st0" d="M1054,432.8v-17.5h1.1v7.6c0.6-0.7,1.2-1.2,1.9-1.6c0.7-0.4,1.5-0.6,2.4-0.6c0.7,0,1.2,0.1,1.7,0.3
					s0.9,0.5,1.2,0.9s0.6,0.9,0.7,1.4s0.3,1.2,0.3,1.9v7.6h-1.1v-7.6c0-1.1-0.3-2-0.8-2.6c-0.5-0.6-1.3-1-2.4-1
					c-0.8,0-1.5,0.2-2.2,0.6c-0.7,0.4-1.3,1-1.8,1.7v9H1054z"/>
				<path class="st0" d="M1070.3,433c-0.8,0-1.4-0.2-1.9-0.7c-0.4-0.4-0.7-1.1-0.7-2.1v-8.2h-1.7c-0.1,0-0.2,0-0.2-0.1
					c-0.1,0-0.1-0.1-0.1-0.2v-0.4l2-0.1l0.3-4.3c0-0.1,0-0.1,0.1-0.2c0.1-0.1,0.1-0.1,0.2-0.1h0.5v4.6h3.8v0.9h-3.8v8.1
					c0,0.3,0,0.6,0.1,0.8c0.1,0.2,0.2,0.4,0.3,0.6c0.1,0.2,0.3,0.3,0.5,0.3c0.2,0.1,0.4,0.1,0.6,0.1c0.3,0,0.5,0,0.7-0.1
					s0.4-0.2,0.5-0.3c0.2-0.1,0.3-0.2,0.4-0.3c0.1-0.1,0.2-0.1,0.2-0.1c0.1,0,0.1,0,0.2,0.1l0.3,0.5c-0.3,0.3-0.7,0.6-1.2,0.8
					C1071.3,432.9,1070.8,433,1070.3,433z"/>
			</g>
		</g>
		<g>
			<g>
				<path class="st0" d="M1026.7,456.5v7.2h-2.3v-17.2h4.9c1.1,0,2,0.1,2.8,0.3c0.8,0.2,1.4,0.5,2,1s0.9,0.9,1.1,1.5
					c0.2,0.6,0.4,1.2,0.4,2c0,0.6-0.1,1.2-0.3,1.7c-0.2,0.5-0.5,1-0.8,1.4c-0.4,0.4-0.8,0.8-1.3,1.1c-0.5,0.3-1.1,0.5-1.8,0.7
					c0.3,0.2,0.5,0.4,0.8,0.7l5,6.8h-2.1c-0.4,0-0.7-0.2-0.9-0.5l-4.5-6.1c-0.1-0.2-0.3-0.3-0.4-0.4s-0.4-0.1-0.7-0.1H1026.7z
					 M1026.7,454.8h2.4c0.7,0,1.3-0.1,1.8-0.2c0.5-0.2,0.9-0.4,1.3-0.7c0.3-0.3,0.6-0.7,0.8-1.1c0.2-0.4,0.3-0.9,0.3-1.4
					c0-1-0.3-1.8-1-2.3c-0.7-0.5-1.7-0.8-3-0.8h-2.5V454.8z"/>
				<path class="st0" d="M1044,451.3c0.7,0,1.4,0.1,2,0.4c0.6,0.2,1.1,0.6,1.6,1.1s0.8,1,1,1.7s0.4,1.4,0.4,2.3c0,0.3,0,0.6-0.1,0.7
					c-0.1,0.1-0.2,0.2-0.4,0.2h-8.1c0,0.8,0.1,1.4,0.3,2c0.2,0.6,0.5,1,0.8,1.4c0.3,0.4,0.7,0.7,1.2,0.9c0.5,0.2,1,0.3,1.6,0.3
					c0.5,0,1-0.1,1.4-0.2c0.4-0.1,0.7-0.3,1-0.4c0.3-0.1,0.5-0.3,0.7-0.4c0.2-0.1,0.3-0.2,0.5-0.2c0.2,0,0.3,0.1,0.4,0.2l0.6,0.8
					c-0.3,0.3-0.6,0.6-0.9,0.8c-0.4,0.2-0.8,0.4-1.2,0.6c-0.4,0.2-0.9,0.3-1.3,0.3c-0.4,0.1-0.9,0.1-1.3,0.1c-0.8,0-1.6-0.1-2.3-0.4
					c-0.7-0.3-1.3-0.7-1.8-1.2c-0.5-0.5-0.9-1.2-1.2-2c-0.3-0.8-0.4-1.7-0.4-2.8c0-0.8,0.1-1.6,0.4-2.4c0.3-0.7,0.6-1.4,1.1-1.9
					c0.5-0.5,1.1-1,1.8-1.3C1042.4,451.5,1043.2,451.3,1044,451.3z M1044.1,452.9c-1,0-1.8,0.3-2.4,0.9s-1,1.4-1.1,2.5h6.6
					c0-0.5-0.1-0.9-0.2-1.4s-0.3-0.8-0.6-1.1s-0.6-0.5-1-0.7S1044.6,452.9,1044.1,452.9z"/>
				<path class="st0" d="M1055.9,451.3c0.5,0,1,0.1,1.5,0.2c0.5,0.1,0.9,0.3,1.3,0.5h3.3v0.8c0,0.3-0.2,0.4-0.5,0.5l-1.4,0.2
					c0.3,0.5,0.4,1.1,0.4,1.7c0,0.6-0.1,1.1-0.3,1.6c-0.2,0.5-0.5,0.9-0.9,1.2s-0.9,0.6-1.4,0.8c-0.6,0.2-1.2,0.3-1.8,0.3
					c-0.6,0-1.1-0.1-1.6-0.2c-0.3,0.2-0.5,0.3-0.6,0.5s-0.2,0.4-0.2,0.6c0,0.3,0.1,0.5,0.3,0.7c0.2,0.2,0.5,0.3,0.9,0.3
					c0.4,0.1,0.8,0.1,1.3,0.1s1,0,1.5,0s1,0,1.5,0.1c0.5,0.1,0.9,0.2,1.3,0.4s0.7,0.5,0.9,0.8c0.2,0.4,0.3,0.8,0.3,1.4
					c0,0.5-0.1,1-0.4,1.5c-0.3,0.5-0.6,0.9-1.1,1.3c-0.5,0.4-1.1,0.7-1.8,0.9c-0.7,0.2-1.5,0.3-2.4,0.3c-0.9,0-1.7-0.1-2.3-0.3
					c-0.7-0.2-1.2-0.4-1.7-0.7c-0.4-0.3-0.8-0.6-1-1c-0.2-0.4-0.3-0.8-0.3-1.2c0-0.6,0.2-1.1,0.6-1.5s0.9-0.8,1.6-1
					c-0.3-0.2-0.6-0.4-0.8-0.6s-0.3-0.6-0.3-1.1c0-0.2,0-0.4,0.1-0.5c0.1-0.2,0.2-0.4,0.3-0.6s0.3-0.4,0.5-0.5
					c0.2-0.2,0.4-0.3,0.7-0.4c-0.6-0.3-1.1-0.8-1.4-1.3c-0.3-0.6-0.5-1.2-0.5-2c0-0.6,0.1-1.1,0.3-1.6c0.2-0.5,0.5-0.9,1-1.2
					s0.9-0.6,1.5-0.8C1054.6,451.4,1055.2,451.3,1055.9,451.3z M1059.7,464.3c0-0.3-0.1-0.6-0.3-0.7s-0.4-0.3-0.7-0.4
					c-0.3-0.1-0.6-0.2-1-0.2c-0.4,0-0.8-0.1-1.2-0.1c-0.4,0-0.8,0-1.3,0s-0.8-0.1-1.2-0.2c-0.5,0.2-0.8,0.5-1.1,0.8
					c-0.3,0.3-0.4,0.7-0.4,1.1c0,0.3,0.1,0.5,0.2,0.8c0.1,0.2,0.4,0.4,0.6,0.6c0.3,0.2,0.6,0.3,1.1,0.4c0.4,0.1,1,0.2,1.5,0.2
					c0.6,0,1.1-0.1,1.5-0.2c0.5-0.1,0.8-0.3,1.2-0.5s0.6-0.4,0.7-0.7C1059.6,464.9,1059.7,464.6,1059.7,464.3z M1055.9,457.8
					c0.4,0,0.8-0.1,1.1-0.2s0.6-0.3,0.8-0.5s0.4-0.5,0.5-0.8c0.1-0.3,0.2-0.6,0.2-1c0-0.7-0.2-1.3-0.7-1.8c-0.5-0.4-1.1-0.7-2-0.7
					c-0.9,0-1.5,0.2-2,0.7c-0.5,0.4-0.7,1-0.7,1.8c0,0.4,0.1,0.7,0.2,1c0.1,0.3,0.3,0.6,0.5,0.8c0.2,0.2,0.5,0.4,0.8,0.5
					S1055.5,457.8,1055.9,457.8z"/>
				<path class="st0" d="M1065.9,451.5v7.8c0,0.9,0.2,1.6,0.6,2.1c0.4,0.5,1.1,0.8,1.9,0.8c0.6,0,1.2-0.1,1.8-0.4
					c0.6-0.3,1.1-0.7,1.5-1.2v-9h2.1v12.2h-1.3c-0.3,0-0.5-0.1-0.6-0.4l-0.2-1.3c-0.5,0.6-1.1,1.1-1.8,1.4c-0.7,0.4-1.4,0.5-2.3,0.5
					c-0.7,0-1.2-0.1-1.8-0.3c-0.5-0.2-0.9-0.5-1.3-0.9c-0.3-0.4-0.6-0.9-0.8-1.5c-0.2-0.6-0.3-1.2-0.3-1.9v-7.8H1065.9z"/>
				<path class="st0" d="M1079.8,446v17.7h-2.1V446H1079.8z"/>
				<path class="st0" d="M1092.5,463.7h-0.9c-0.2,0-0.4,0-0.5-0.1c-0.1-0.1-0.2-0.2-0.3-0.4l-0.2-1.1c-0.3,0.3-0.6,0.5-0.9,0.8
					c-0.3,0.2-0.6,0.4-1,0.6s-0.7,0.3-1.1,0.4c-0.4,0.1-0.8,0.1-1.3,0.1c-0.5,0-0.9-0.1-1.3-0.2c-0.4-0.1-0.8-0.3-1.1-0.6
					c-0.3-0.3-0.5-0.6-0.7-1c-0.2-0.4-0.3-0.9-0.3-1.4c0-0.5,0.1-0.9,0.4-1.4c0.3-0.4,0.7-0.8,1.3-1.2c0.6-0.3,1.4-0.6,2.3-0.8
					s2.1-0.3,3.5-0.3v-1c0-1-0.2-1.7-0.6-2.2c-0.4-0.5-1-0.7-1.8-0.7c-0.5,0-1,0.1-1.3,0.2c-0.4,0.1-0.7,0.3-0.9,0.4
					s-0.5,0.3-0.7,0.4c-0.2,0.1-0.4,0.2-0.6,0.2c-0.1,0-0.3,0-0.4-0.1c-0.1-0.1-0.2-0.2-0.3-0.3l-0.4-0.7c0.7-0.6,1.4-1.1,2.2-1.5
					c0.8-0.3,1.6-0.5,2.6-0.5c0.7,0,1.3,0.1,1.8,0.3c0.5,0.2,1,0.5,1.3,0.9c0.4,0.4,0.6,0.9,0.8,1.5c0.2,0.6,0.3,1.2,0.3,1.9V463.7z
					 M1086.9,462.4c0.4,0,0.7,0,1-0.1c0.3-0.1,0.6-0.2,0.9-0.3c0.3-0.1,0.5-0.3,0.8-0.5c0.3-0.2,0.5-0.4,0.7-0.7v-2.5
					c-1,0-1.8,0.1-2.5,0.2c-0.7,0.1-1.2,0.3-1.7,0.5c-0.4,0.2-0.7,0.4-0.9,0.7c-0.2,0.3-0.3,0.6-0.3,0.9c0,0.3,0.1,0.6,0.2,0.8
					c0.1,0.2,0.2,0.4,0.4,0.6c0.2,0.1,0.4,0.3,0.6,0.3S1086.7,462.4,1086.9,462.4z"/>
				<path class="st0" d="M1095.7,463.7v-12.2h1.2c0.2,0,0.4,0,0.5,0.1c0.1,0.1,0.1,0.2,0.2,0.5l0.1,1.9c0.4-0.8,0.9-1.5,1.5-2
					c0.6-0.5,1.3-0.7,2.2-0.7c0.3,0,0.6,0,0.9,0.1c0.3,0.1,0.5,0.2,0.8,0.3l-0.3,1.6c-0.1,0.2-0.2,0.3-0.4,0.3c-0.1,0-0.3,0-0.5-0.1
					c-0.2-0.1-0.6-0.1-1-0.1c-0.7,0-1.4,0.2-1.9,0.6s-0.9,1.1-1.3,1.9v7.7H1095.7z"/>
			</g>
		</g>
		<g>
			<g>
				<path class="st0" d="M1023.8,494.5v-17.4h6c1.1,0,2.1,0.1,2.9,0.3c0.8,0.2,1.5,0.5,2,0.9c0.5,0.4,0.9,0.9,1.1,1.5
					c0.2,0.6,0.4,1.2,0.4,1.9c0,0.4-0.1,0.8-0.2,1.2c-0.1,0.4-0.3,0.7-0.6,1c-0.3,0.3-0.6,0.6-1,0.9c-0.4,0.3-0.9,0.5-1.4,0.7
					c2.4,0.5,3.6,1.8,3.6,3.9c0,0.7-0.1,1.4-0.4,2c-0.3,0.6-0.7,1.2-1.2,1.6c-0.5,0.5-1.2,0.8-2,1.1c-0.8,0.3-1.7,0.4-2.7,0.4
					H1023.8z M1027,484.7h2.6c1.1,0,1.9-0.2,2.5-0.6c0.6-0.4,0.9-1,0.9-1.9c0-0.9-0.3-1.5-0.8-1.9s-1.3-0.6-2.4-0.6h-2.8V484.7z
					 M1027,486.9v5.1h3.3c0.6,0,1.1-0.1,1.5-0.2c0.4-0.1,0.7-0.3,1-0.6c0.2-0.2,0.4-0.5,0.5-0.8c0.1-0.3,0.2-0.7,0.2-1
					c0-0.4-0.1-0.7-0.2-1c-0.1-0.3-0.3-0.6-0.6-0.8s-0.6-0.4-1-0.5c-0.4-0.1-0.9-0.2-1.5-0.2H1027z"/>
				<path class="st0" d="M1044.5,482c0.9,0,1.8,0.1,2.5,0.4s1.4,0.7,1.9,1.3s0.9,1.2,1.2,2s0.4,1.7,0.4,2.6c0,1-0.1,1.9-0.4,2.6
					s-0.7,1.5-1.2,2s-1.2,1-1.9,1.3s-1.6,0.4-2.5,0.4s-1.8-0.1-2.5-0.4s-1.4-0.7-1.9-1.3c-0.5-0.6-0.9-1.2-1.2-2s-0.4-1.7-0.4-2.6
					c0-1,0.1-1.8,0.4-2.6s0.7-1.4,1.2-2c0.5-0.5,1.2-1,1.9-1.3S1043.6,482,1044.5,482z M1044.5,492.4c1,0,1.8-0.3,2.3-1
					c0.5-0.7,0.7-1.7,0.7-3c0-1.3-0.2-2.3-0.7-3c-0.5-0.7-1.2-1-2.3-1c-1,0-1.8,0.4-2.3,1.1c-0.5,0.7-0.7,1.7-0.7,3
					c0,1.3,0.2,2.3,0.7,3C1042.7,492.1,1043.5,492.4,1044.5,492.4z"/>
				<path class="st0" d="M1056,476.7v17.8h-3v-17.8H1056z"/>
				<path class="st0" d="M1068.1,494.5c-0.4,0-0.6-0.2-0.8-0.5l-0.2-1.2c-0.3,0.3-0.5,0.5-0.8,0.8c-0.3,0.2-0.6,0.4-0.9,0.6
					s-0.7,0.3-1,0.4s-0.8,0.1-1.2,0.1c-0.7,0-1.3-0.1-1.8-0.4c-0.6-0.3-1-0.7-1.4-1.2s-0.7-1.2-0.9-2c-0.2-0.8-0.3-1.7-0.3-2.7
					c0-0.9,0.1-1.8,0.4-2.5s0.6-1.5,1.1-2s1-1,1.7-1.3c0.6-0.3,1.4-0.5,2.2-0.5c0.7,0,1.3,0.1,1.8,0.3s0.9,0.5,1.3,0.9v-6.5h3v17.8
					H1068.1z M1064.1,492.4c0.6,0,1.1-0.1,1.6-0.4c0.4-0.3,0.8-0.6,1.2-1.1v-5.5c-0.3-0.4-0.7-0.7-1.1-0.9c-0.4-0.2-0.8-0.3-1.3-0.3
					c-0.4,0-0.9,0.1-1.2,0.3s-0.7,0.4-0.9,0.8c-0.3,0.3-0.4,0.8-0.6,1.3c-0.1,0.5-0.2,1.1-0.2,1.9c0,0.7,0.1,1.3,0.2,1.8
					c0.1,0.5,0.3,0.9,0.5,1.2c0.2,0.3,0.5,0.5,0.8,0.7C1063.4,492.3,1063.7,492.4,1064.1,492.4z"/>
			</g>
		</g>
		<g>
			<g>
				<path class="st0" d="M1023.5,525.4v-17.5h6.4c1.2,0,2.2,0.1,3.1,0.3c0.8,0.2,1.5,0.5,2.1,0.9c0.5,0.4,0.9,0.9,1.2,1.5
					c0.2,0.6,0.4,1.2,0.4,2c0,0.4-0.1,0.8-0.2,1.1c-0.1,0.4-0.3,0.7-0.5,1c-0.2,0.3-0.5,0.6-0.9,0.9c-0.4,0.3-0.8,0.5-1.4,0.7
					c1.2,0.3,2,0.7,2.6,1.4c0.6,0.6,0.8,1.4,0.8,2.4c0,0.7-0.1,1.4-0.4,2.1c-0.3,0.6-0.7,1.2-1.3,1.7c-0.6,0.5-1.2,0.8-2.1,1.1
					c-0.8,0.3-1.7,0.4-2.8,0.4H1023.5z M1027.5,515.3h2.1c0.4,0,0.9,0,1.2-0.1c0.4-0.1,0.7-0.2,0.9-0.3c0.3-0.2,0.4-0.4,0.6-0.7
					s0.2-0.6,0.2-1.1c0-0.4-0.1-0.8-0.2-1c-0.1-0.3-0.3-0.5-0.5-0.7c-0.2-0.2-0.5-0.3-0.8-0.4s-0.7-0.1-1.2-0.1h-2.4V515.3z
					 M1027.5,518v4.4h2.9c0.5,0,1-0.1,1.3-0.2c0.3-0.1,0.6-0.3,0.8-0.5c0.2-0.2,0.3-0.5,0.4-0.7c0.1-0.3,0.1-0.5,0.1-0.8
					c0-0.3,0-0.6-0.1-0.9s-0.2-0.5-0.4-0.6c-0.2-0.2-0.5-0.3-0.8-0.4c-0.3-0.1-0.8-0.1-1.3-0.1H1027.5z"/>
				<path class="st0" d="M1043,507.4v18h-3.7v-18H1043z"/>
				<path class="st0" d="M1054.6,525.4c-0.4,0-0.6,0-0.8-0.1c-0.2-0.1-0.3-0.3-0.5-0.6l-0.3-0.7c-0.3,0.3-0.6,0.5-0.9,0.7
					c-0.3,0.2-0.6,0.4-0.9,0.5c-0.3,0.1-0.6,0.2-1,0.3s-0.7,0.1-1.2,0.1c-0.6,0-1.1-0.1-1.5-0.2c-0.5-0.1-0.9-0.4-1.2-0.7
					s-0.6-0.6-0.8-1.1c-0.2-0.4-0.3-0.9-0.3-1.5c0-0.4,0.1-0.9,0.3-1.4c0.2-0.5,0.6-0.9,1.2-1.3c0.6-0.4,1.3-0.7,2.2-1
					s2.1-0.4,3.5-0.4v-0.5c0-0.7-0.2-1.3-0.5-1.6s-0.7-0.5-1.3-0.5c-0.4,0-0.8,0-1.1,0.1c-0.3,0.1-0.5,0.2-0.8,0.3
					c-0.2,0.1-0.4,0.2-0.6,0.3s-0.5,0.1-0.7,0.1c-0.3,0-0.5-0.1-0.7-0.2c-0.2-0.1-0.3-0.3-0.4-0.5l-0.7-1.2c0.8-0.7,1.6-1.2,2.5-1.5
					s1.9-0.5,2.9-0.5c0.8,0,1.4,0.1,2,0.4c0.6,0.2,1.1,0.6,1.5,1c0.4,0.4,0.7,1,1,1.6c0.2,0.6,0.3,1.3,0.3,2v7.8H1054.6z
					 M1050.4,523.1c0.5,0,0.9-0.1,1.3-0.3c0.4-0.2,0.7-0.4,1.1-0.8v-1.7c-0.7,0-1.4,0-1.8,0.1c-0.5,0.1-0.9,0.2-1.1,0.4
					c-0.3,0.1-0.5,0.3-0.6,0.5c-0.1,0.2-0.2,0.4-0.2,0.6c0,0.4,0.1,0.7,0.3,0.9S1049.9,523.1,1050.4,523.1z"/>
				<path class="st0" d="M1068,515.9c-0.1,0.1-0.2,0.2-0.3,0.3c-0.1,0.1-0.3,0.1-0.4,0.1c-0.2,0-0.4,0-0.5-0.1
					c-0.1-0.1-0.3-0.2-0.5-0.3c-0.2-0.1-0.4-0.2-0.6-0.3s-0.6-0.1-0.9-0.1c-0.5,0-0.8,0.1-1.2,0.3s-0.6,0.4-0.8,0.7
					c-0.2,0.3-0.4,0.7-0.5,1.1c-0.1,0.5-0.2,1-0.2,1.5c0,1.2,0.2,2.1,0.7,2.7s1.1,1,1.9,1c0.4,0,0.8-0.1,1-0.2s0.5-0.2,0.6-0.4
					c0.2-0.1,0.3-0.3,0.5-0.4c0.1-0.1,0.3-0.2,0.6-0.2c0.3,0,0.5,0.1,0.7,0.3l1.1,1.3c-0.4,0.4-0.8,0.8-1.2,1.1s-0.9,0.5-1.3,0.6
					c-0.4,0.2-0.9,0.3-1.3,0.3c-0.4,0.1-0.9,0.1-1.3,0.1c-0.8,0-1.5-0.1-2.2-0.4s-1.3-0.7-1.8-1.3c-0.5-0.5-0.9-1.2-1.2-2
					c-0.3-0.8-0.5-1.7-0.5-2.7c0-0.9,0.1-1.7,0.4-2.5c0.3-0.8,0.7-1.5,1.2-2c0.5-0.6,1.2-1,1.9-1.3s1.7-0.5,2.7-0.5
					c1,0,1.8,0.2,2.6,0.5c0.7,0.3,1.4,0.8,2,1.4L1068,515.9z"/>
				<path class="st0" d="M1074.4,507.4v10.1h0.6c0.2,0,0.4,0,0.5-0.1c0.1-0.1,0.2-0.2,0.4-0.3l2.4-3.5c0.1-0.2,0.3-0.4,0.5-0.5
					c0.2-0.1,0.4-0.1,0.7-0.1h3.4l-3.2,4.4c-0.2,0.2-0.3,0.4-0.5,0.6s-0.4,0.3-0.6,0.4c0.4,0.3,0.7,0.6,0.9,1.1l3.5,6h-3.4
					c-0.3,0-0.5,0-0.7-0.1c-0.2-0.1-0.4-0.3-0.5-0.5l-2.4-4.4c-0.1-0.2-0.2-0.3-0.3-0.4s-0.3-0.1-0.5-0.1h-0.7v5.5h-3.7v-18H1074.4z
					"/>
			</g>
		</g>
	</g>
	<g>
		<path class="st2" d="M1034.7,371.9v1.9h-8.3v5.7h6.7v1.8h-6.7v5.9h8.3v1.9h-10.6v-17.2H1034.7z"/>
		<path class="st2" d="M1044.7,378.9c-0.1,0.2-0.2,0.3-0.4,0.3c-0.1,0-0.3,0-0.4-0.1c-0.2-0.1-0.3-0.2-0.6-0.3
			c-0.2-0.1-0.5-0.2-0.8-0.3c-0.3-0.1-0.7-0.1-1.1-0.1c-0.4,0-0.7,0-1,0.1c-0.3,0.1-0.5,0.2-0.7,0.4c-0.2,0.2-0.4,0.3-0.5,0.6
			c-0.1,0.2-0.2,0.4-0.2,0.7c0,0.3,0.1,0.6,0.3,0.8s0.4,0.4,0.7,0.5s0.6,0.3,1,0.4c0.4,0.1,0.8,0.2,1.2,0.4c0.4,0.1,0.8,0.3,1.2,0.4
			s0.7,0.4,1,0.6c0.3,0.2,0.5,0.5,0.7,0.9c0.2,0.3,0.3,0.8,0.3,1.3c0,0.6-0.1,1.1-0.3,1.6c-0.2,0.5-0.5,0.9-0.9,1.2
			c-0.4,0.3-0.9,0.6-1.4,0.8c-0.6,0.2-1.2,0.3-2,0.3c-0.8,0-1.6-0.1-2.3-0.4c-0.7-0.3-1.3-0.6-1.8-1.1l0.5-0.8
			c0.1-0.1,0.1-0.2,0.2-0.2c0.1-0.1,0.2-0.1,0.3-0.1s0.3,0.1,0.5,0.2s0.4,0.2,0.6,0.4c0.2,0.1,0.5,0.3,0.8,0.4s0.7,0.2,1.2,0.2
			c0.4,0,0.8-0.1,1.1-0.2c0.3-0.1,0.6-0.3,0.8-0.4c0.2-0.2,0.4-0.4,0.5-0.6s0.2-0.5,0.2-0.8c0-0.3-0.1-0.6-0.3-0.8
			c-0.2-0.2-0.4-0.4-0.7-0.6s-0.6-0.3-1-0.4c-0.4-0.1-0.8-0.2-1.2-0.4c-0.4-0.1-0.8-0.3-1.2-0.4s-0.7-0.4-1-0.6s-0.5-0.6-0.7-0.9
			c-0.2-0.4-0.3-0.8-0.3-1.3c0-0.5,0.1-0.9,0.3-1.3c0.2-0.4,0.5-0.8,0.8-1.1s0.8-0.6,1.4-0.8c0.5-0.2,1.1-0.3,1.8-0.3
			c0.8,0,1.5,0.1,2.2,0.4c0.6,0.3,1.2,0.6,1.7,1L1044.7,378.9z"/>
		<path class="st2" d="M1051.8,389.3c-1,0-1.7-0.3-2.2-0.8c-0.5-0.5-0.8-1.3-0.8-2.3v-7.4h-1.5c-0.1,0-0.2,0-0.3-0.1
			c-0.1-0.1-0.1-0.2-0.1-0.4v-0.9l2-0.3l0.5-3.8c0-0.1,0.1-0.2,0.2-0.3s0.2-0.1,0.3-0.1h1.1v4.2h3.5v1.5h-3.5v7.3
			c0,0.5,0.1,0.9,0.4,1.1s0.6,0.4,1,0.4c0.2,0,0.4,0,0.6-0.1c0.2-0.1,0.3-0.1,0.4-0.2c0.1-0.1,0.2-0.1,0.3-0.2
			c0.1-0.1,0.2-0.1,0.2-0.1c0.1,0,0.2,0.1,0.3,0.2l0.6,1c-0.4,0.3-0.8,0.6-1.3,0.8C1052.9,389.2,1052.4,389.3,1051.8,389.3z"/>
		<path class="st2" d="M1059.9,373.1c0,0.2,0,0.4-0.1,0.6c-0.1,0.2-0.2,0.3-0.3,0.5c-0.1,0.1-0.3,0.2-0.5,0.3s-0.4,0.1-0.6,0.1
			s-0.4,0-0.6-0.1s-0.3-0.2-0.5-0.3c-0.1-0.1-0.2-0.3-0.3-0.5c-0.1-0.2-0.1-0.4-0.1-0.6s0-0.4,0.1-0.6c0.1-0.2,0.2-0.4,0.3-0.5
			c0.1-0.1,0.3-0.2,0.5-0.3s0.4-0.1,0.6-0.1s0.4,0,0.6,0.1s0.3,0.2,0.5,0.3c0.1,0.1,0.3,0.3,0.3,0.5
			C1059.9,372.7,1059.9,372.9,1059.9,373.1z M1059.5,376.9v12.2h-2.1v-12.2H1059.5z"/>
		<path class="st2" d="M1065.6,371.4v17.7h-2.1v-17.7H1065.6z"/>
		<path class="st2" d="M1074.3,376.7c0.9,0,1.7,0.1,2.4,0.4s1.3,0.7,1.8,1.3s0.9,1.2,1.2,2c0.3,0.8,0.4,1.6,0.4,2.6
			c0,1-0.1,1.8-0.4,2.6c-0.3,0.8-0.7,1.4-1.2,2c-0.5,0.5-1.1,1-1.8,1.3c-0.7,0.3-1.5,0.4-2.4,0.4c-0.9,0-1.7-0.1-2.4-0.4
			c-0.7-0.3-1.3-0.7-1.8-1.3c-0.5-0.5-0.9-1.2-1.2-2c-0.3-0.8-0.4-1.6-0.4-2.6c0-1,0.1-1.8,0.4-2.6c0.3-0.8,0.7-1.4,1.2-2
			s1.1-1,1.8-1.3C1072.6,376.9,1073.4,376.7,1074.3,376.7z M1074.3,387.6c1.2,0,2.1-0.4,2.7-1.2s0.9-1.9,0.9-3.4
			c0-1.4-0.3-2.6-0.9-3.4c-0.6-0.8-1.5-1.2-2.7-1.2c-0.6,0-1.1,0.1-1.6,0.3c-0.4,0.2-0.8,0.5-1.1,0.9c-0.3,0.4-0.5,0.9-0.7,1.4
			c-0.1,0.6-0.2,1.2-0.2,1.9c0,0.7,0.1,1.4,0.2,1.9c0.1,0.6,0.4,1,0.7,1.4c0.3,0.4,0.7,0.7,1.1,0.9S1073.7,387.6,1074.3,387.6z"/>
		<path class="st2" d="M1089.7,378.9c-0.1,0.2-0.2,0.3-0.4,0.3c-0.1,0-0.3,0-0.4-0.1c-0.2-0.1-0.3-0.2-0.6-0.3
			c-0.2-0.1-0.5-0.2-0.8-0.3c-0.3-0.1-0.7-0.1-1.1-0.1c-0.4,0-0.7,0-1,0.1c-0.3,0.1-0.5,0.2-0.7,0.4c-0.2,0.2-0.4,0.3-0.5,0.6
			s-0.2,0.4-0.2,0.7c0,0.3,0.1,0.6,0.3,0.8c0.2,0.2,0.4,0.4,0.7,0.5s0.6,0.3,1,0.4c0.4,0.1,0.8,0.2,1.2,0.4c0.4,0.1,0.8,0.3,1.2,0.4
			s0.7,0.4,1,0.6c0.3,0.2,0.5,0.5,0.7,0.9c0.2,0.3,0.3,0.8,0.3,1.3c0,0.6-0.1,1.1-0.3,1.6c-0.2,0.5-0.5,0.9-0.9,1.2
			c-0.4,0.3-0.9,0.6-1.4,0.8c-0.6,0.2-1.2,0.3-2,0.3c-0.8,0-1.6-0.1-2.3-0.4c-0.7-0.3-1.3-0.6-1.8-1.1l0.5-0.8
			c0.1-0.1,0.1-0.2,0.2-0.2s0.2-0.1,0.3-0.1c0.1,0,0.3,0.1,0.5,0.2c0.2,0.1,0.4,0.2,0.6,0.4c0.2,0.1,0.5,0.3,0.8,0.4
			c0.3,0.1,0.7,0.2,1.2,0.2c0.4,0,0.8-0.1,1.1-0.2c0.3-0.1,0.6-0.3,0.8-0.4c0.2-0.2,0.4-0.4,0.5-0.6c0.1-0.2,0.1-0.5,0.1-0.8
			c0-0.3-0.1-0.6-0.3-0.8c-0.2-0.2-0.4-0.4-0.7-0.6c-0.3-0.2-0.6-0.3-1-0.4c-0.4-0.1-0.8-0.2-1.2-0.4c-0.4-0.1-0.8-0.3-1.2-0.4
			s-0.7-0.4-1-0.6s-0.5-0.6-0.7-0.9s-0.3-0.8-0.3-1.3c0-0.5,0.1-0.9,0.3-1.3c0.2-0.4,0.5-0.8,0.8-1.1c0.4-0.3,0.8-0.6,1.4-0.8
			c0.5-0.2,1.1-0.3,1.8-0.3c0.8,0,1.5,0.1,2.2,0.4c0.6,0.3,1.2,0.6,1.6,1L1089.7,378.9z"/>
	</g>
	<rect x="1002.1" y="359.8" class="st3" width="119.4" height="183.5"/>
</g>
</svg>
