<?xml version="1.0" encoding="utf-8"?>
<!-- Generator: Adobe Illustrator 19.2.0, SVG Export Plug-In . SVG Version: 6.00 Build 0)  -->
<svg version="1.1" xmlns="http://www.w3.org/2000/svg" xmlns:xlink="http://www.w3.org/1999/xlink" x="0px" y="0px"
	 viewBox="0 0 1400 800" style="enable-background:new 0 0 1400 800;" xml:space="preserve">
<style type="text/css">
	.st0{fill:#F2F2F2;}
	.st1{fill:#E85D3F;}
	.st2{fill:none;stroke:#E85D3F;stroke-width:2;stroke-miterlimit:10;}
	.st3{fill:#939598;}
	.st4{font-family:'Lato-Light';}
	.st5{font-size:24px;}
	.st6{stroke:#000000;stroke-width:0.25;stroke-miterlimit:10;}
</style>
<g id="BG">
	<rect y="0" class="st0" width="1400" height="800"/>
</g>
<g id="Elements">
	<g>
		<path class="st1" d="M1047.2,379.2c2.7,2.7,6.3,4.2,10.2,4.2c3.8,0,7.5-1.5,10.2-4.2c2.7-2.7,4.2-6.3,4.2-10.2
			c0-3.8-1.5-7.4-4.2-10.2c-2.7-2.7-6.3-4.2-10.2-4.2c-3.8,0-7.4,1.5-10.2,4.2C1041.6,364.5,1041.6,373.6,1047.2,379.2z
			 M1048.8,360.5c2.3-2.3,5.3-3.5,8.6-3.5c3.2,0,6.3,1.3,8.6,3.5c4.7,4.7,4.7,12.4,0,17.1c-2.3,2.3-5.3,3.5-8.6,3.5
			c-3.2,0-6.3-1.3-8.6-3.5C1044,372.9,1044,365.2,1048.8,360.5z"/>
		<path class="st1" d="M1040.3,386.1c-1.9-1.9-3.9-3.8-6.1-5.7c-12.7,10.8-49.4,39.1-56.8,39.1h0c-0.5,0-0.9-0.1-1.2-0.3
			c-5.1-2.7-8.4-3.3-9.6-3.4l-11,11l3.8,3.8c4.7-4.2,10.8-6.6,17.2-6.6c6.9,0,13.4,2.7,18.3,7.6c9.7,9.7,10,25.3,1,35.4l3.8,3.8
			l11-11c-0.1-1.1-0.6-3.9-2.6-8c-0.5-0.9-1.8-3.1,13.8-26.4c8-11.9,17.9-25.4,24.3-33.2C1044.1,390.1,1042.2,388,1040.3,386.1
			C1040.3,386.1,1040.3,386.1,1040.3,386.1z"/>
		<path class="st1" d="M1050.6,375.8c1.8,1.8,4.2,2.8,6.7,2.8c2.5,0,4.9-1,6.7-2.8c3.7-3.7,3.7-9.8,0-13.5c-1.8-1.8-4.2-2.8-6.7-2.8
			c-2.5,0-4.9,1-6.7,2.8C1046.9,366,1046.9,372.1,1050.6,375.8z"/>
		<path class="st1" d="M976.4,432.8c-4.6,0-8.9,1.8-12.1,5c-3.2,3.2-5,7.5-5,12.1c0,4.6,1.8,8.9,5,12.1c3.2,3.2,7.5,5,12.1,5
			c4.6,0,8.9-1.8,12.1-5c3.2-3.2,5-7.5,5-12.1c0-4.6-1.8-8.9-5-12.1C985.3,434.6,981,432.8,976.4,432.8z"/>
		<path class="st1" d="M976.4,473.2c5.8,0,11.3-2.2,15.6-6.1l-2.5-2.5c-3.6,3.2-8.2,5-13.1,5c-5.3,0-10.2-2.1-13.9-5.8
			c-3.7-3.7-5.8-8.7-5.8-13.9c0-4.9,1.8-9.5,5-13.1l-2.5-2.5c-8.3,9.1-8.1,23.3,0.7,32.1C964.4,470.8,970.2,473.2,976.4,473.2
			L976.4,473.2z"/>
		<path class="st1" d="M1100.8,373.3l-1.9,1.9l-38.6,38.6l-0.8-1.6c-3.3-6.3-7.3-12.3-11.8-17.9c-14.2,17.2-37.9,52.2-37.5,56.5
			c2.9,6,2.9,9.4,2.9,9.5l0,0.5l-25.4,25.4l-0.6,0h113.7c6.5,0,11.8-5.3,11.8-11.8V361.4L1100.8,373.3L1100.8,373.3z"/>
		<path class="st1" d="M957.4,432.5l-3.8-3.8l-11,11c0.2,1.8,1.6,8.5,9.3,18.4C949.1,449.5,950.9,439.6,957.4,432.5z"/>
		<path class="st1" d="M992.9,433.5c-4.4-4.4-10.2-6.8-16.4-6.8c-5.7,0-11.1,2.1-15.3,5.8l2.5,2.5c3.6-3.1,8.1-4.8,12.8-4.8
			c5.3,0,10.2,2.1,13.9,5.8c3.7,3.7,5.8,8.7,5.8,13.9c0,4.8-1.7,9.3-4.8,12.8l2.5,2.5C1001.9,456.2,1001.6,442.2,992.9,433.5z"/>
		<path class="st1" d="M976.4,475.8L976.4,475.8c-2.9,0-5.6-0.5-8.3-1.4c10,7.9,16.7,9.1,18.5,9.3l11-11l-3.8-3.8
			C989.1,473.4,983,475.8,976.4,475.8z"/>
		
			<rect x="1084.4" y="309.3" transform="matrix(0.7071 -0.7071 0.7071 0.7071 77.3198 867.582)" class="st1" width="3" height="62.2"/>
		<path class="st1" d="M1100.8,313.6H951.7c-6.5,0-11.8,5.3-11.8,11.8v149.1c0,6.5,5.3,11.8,11.8,11.8h35.4
			c-0.5,0-11.8-0.2-29.3-17.7c-17.6-17.6-17.8-28.9-17.9-29.4l0-0.5l25.4-25.4l0.5,0h0c0.5,0,4.5,0.1,11.3,3.8
			c5.7,0,39-24.8,54.8-38.3c-5.6-4.5-11.6-8.5-17.9-11.9l-1.6-0.8l52.3-52.3l47.7,47.7v-35.9
			C1112.6,318.9,1107.3,313.6,1100.8,313.6z"/>
		
			<rect x="1076.4" y="317.1" transform="matrix(0.7071 -0.7071 0.7071 0.7071 69.5661 864.3627)" class="st1" width="3.4" height="62.2"/>
		
			<rect x="1080.8" y="313.1" transform="matrix(0.7071 -0.7071 0.7071 0.7071 73.5229 866.0098)" class="st1" width="2.6" height="62.2"/>
		<path class="st1" d="M1016.9,365.4c6.1,3.3,11.8,7.2,17.2,11.6l0,0l0.8,0.7c0.1,0.1,0.1,0.1,0.2,0.2c0.8,0.7,1.6,1.4,2.4,2.1
			c0.4,0.4,0.9,0.8,1.3,1.2c0.3,0.3,0.6,0.6,0.9,0.9c0.8,0.8,1.6,1.5,2.3,2.3c0.7,0.7,1.5,1.5,2.2,2.3c0.3,0.4,0.7,0.7,1,1.1
			c0.2,0.2,0.4,0.4,0.6,0.6c0.9,1,1.8,2.1,2.7,3.1c0,0,0,0,0,0l0.7,0.8l0,0c4.4,5.4,8.3,11.1,11.6,17.2l32.6-32.6l-44-44
			L1016.9,365.4z M1069.3,357.1c3.2,3.2,5,7.5,5,12c0,4.5-1.8,8.8-5,12c-3.2,3.2-7.5,5-12,5c-4.5,0-8.8-1.8-12-5
			c-6.6-6.6-6.6-17.4,0-24c3.2-3.2,7.5-5,12-5C1061.9,352.1,1066.1,353.8,1069.3,357.1z"/>
		
			<rect x="1072.9" y="321" transform="matrix(0.7071 -0.7071 0.7071 0.7071 65.6118 862.7208)" class="st1" width="2.6" height="62.2"/>
	</g>
	<g>
		<polyline class="st2" points="787.4,461.7 612.6,461.7 736.2,338 		"/>
		<path class="st2" d="M612.6,462.1h53.1c0-15-5.9-27.9-15.6-37.6L612.6,462.1z"/>
		<text transform="matrix(1 0 0 1 681.2342 441.3214)" class="st3 st4 st5">45°</text>
	</g>
	<g id="_x30_Y2UAt.tif">
		<g>
			<path class="st6" d="M417.2,440.3c0.5,0,0.9,0.2,1.2,0.7c0.4,0.5,0.9,0.8,1.4,1.2c0.1,0.1,0.2,0.1,0.3,0c0.9-0.3,1.6-0.8,2.2-1.6
				c1-1.3,1.8-2.7,3-3.8c1.1-1,2.1-2,3.3-3c0.6-0.5,1.4-0.9,2.1-1.3c0.9-0.5,1.8-0.9,2.7-1.3c0.2-0.1,0.4-0.2,0.6-0.2
				c0.1,0,0.3,0.1,0.4,0.3c0.1,0.2,0,0.4-0.3,0.5c-1.4,0.7-2.8,1.3-4.2,2c-1.1,0.6-2.1,1.6-3,2.5c-0.4,0.4-0.9,0.8-1.3,1.2
				c-0.2,0.2-0.4,0.5-0.6,0.8c-0.4,0.5-0.8,1-1.2,1.5c0.9,0,1.7,0,2.5,0c1,0,2.1-0.1,3.1-0.1c0.7,0,1,0.3,1,1c0,0.7,0,1.4,0,2.1
				c0,0.3,0,0.5,0.4,0.5c0.5,0,0.7,0.5,0.8,1.2c0,0.5,0.1,0.9,0.1,1.4c0,0.8,0,1.6,0,2.3c0,0.5,0,1.1,0,1.6c0,0.7,0,1.4-0.1,2.1
				c0,1,0,1.9,0,2.9c0,0.6,0.1,1.2,0.1,1.8c0,0.8-0.1,1.6-0.1,2.4c0,0.6,0,1.2,0,1.9c0,0.6,0,1.1,0,1.7c-0.1,0.6,0,0.8,0.5,1.1
				c0.1,0,0.2,0.1,0.2,0.2c0.1,0.3,0.2,0.7,0.2,1c0.1,0.9,0.1,1.8,0.1,2.7c0,0.8-0.1,1.7-0.1,2.5c0,1.2,0,2.5,0,3.7
				c0,0.7,0.1,1.4,0.2,2.1c0,0.4,0,0.8,0,1.2c0,1.9,0,3.7,0,5.6c0,0.8,0,1.6,0,2.4c0,0.2-0.1,0.4-0.2,0.4c-0.5,0.1-0.4,0.4-0.4,0.7
				c0,0.8,0,1.6,0,2.4c0,0.9-0.1,1.8-0.1,2.7c0,0.2,0.1,0.4,0.1,0.5c0.2,0.8,0.2,1.5,0,2.3c0,0.1-0.3,0.2-0.5,0.2c-0.5,0-1,0-1.5,0
				c-1.5,0-2.9,0-4.4,0c-0.2,0-0.4,0.1-0.6,0c-0.8-0.1-0.9-0.8-0.9-1.3c0-0.3,0-0.6,0-0.9c0-0.6,0-1.1,0.1-1.7c0-0.2,0-0.3,0-0.5
				c-0.1-0.9-0.1-1.8-0.2-2.7c0-0.4,0.1-0.8,0.1-1.1c0-0.1,0-0.4-0.1-0.4c-0.1-0.1-0.4,0-0.4,0.1c-0.4,0.4-0.8,0.7-1.1,1.2
				c-0.4,0.5-0.7,1.1-1.1,1.6c-0.1,0.2-0.4,0.3-0.5,0.5c-1.1,1-2.2,2.1-3.4,3.1c-0.9,0.8-1.9,1.4-2.9,2.1c-0.6,0.4-1.2,0.9-1.9,1.2
				c-0.9,0.5-1.9,1-2.9,1.5c-0.4,0.2-0.9,0.4-1.3,0.6c-1.1,0.4-2.2,0.8-3.3,1.2c-1,0.4-2.1,0.7-3.1,1c-0.4,0.1-0.7,0.1-1.1,0.1
				c-0.3,0-0.6,0.1-0.9,0.1c-1.3,0-2.5,0-3.8,0c-1.8,0-3.6-0.1-5.4-0.1c-1.6,0-3.2,0-4.7,0c-1.3,0-2.5-0.3-3.7-0.8
				c-0.8-0.3-1.6-0.5-2.4-0.8c-0.9-0.3-1.7-0.7-2.6-1c-0.5-0.2-1.1-0.5-1.6-0.7c-0.5-0.3-1.1-0.5-1.6-0.8c-0.9-0.6-1.9-1.1-2.8-1.8
				c-0.9-0.7-1.8-1.4-2.7-2.1c-0.6-0.5-1.3-1-1.9-1.6c-0.7-0.6-1.3-1.3-1.9-2c-0.8-0.9-1.5-1.8-2.3-2.7c-0.1,0-0.1,0-0.2,0
				c0,0.2-0.1,0.3-0.1,0.5c0,2.4,0,4.9,0,7.3c0,0.7-0.1,0.7-0.8,0.6c-0.7-0.1-1.4,0-2.1,0c-1.3,0-2.7,0-4,0c-0.6,0-0.7-0.2-0.7-0.7
				c0-1.5-0.1-3-0.2-4.5c0-0.4,0-0.8,0-1.3c0-0.5,0-1,0-1.5c0-0.3-0.1-0.4-0.3-0.5c-0.4,0-0.5-0.3-0.5-0.5c0-0.7,0-1.4,0-2.1
				c0-0.4,0-0.7,0-1.1c0-0.5,0-1,0-1.4c0-0.9-0.1-1.8-0.1-2.7c0-0.8,0-1.7,0-2.5c0-1,0-2.1,0-3.1c0-1.1-0.1-2.1-0.1-3.2
				c0-0.8,0.1-1.5,0.1-2.3c0-0.3,0-0.6-0.1-0.9c0-0.4,0-0.9-0.1-1.3c-0.1-0.4,0.1-0.7,0.4-0.9c0.5-0.3,0.3-0.7,0.3-1
				c0-0.6,0-1.2,0-1.8c0-0.4,0-0.8,0-1.2c0-0.4-0.1-0.8-0.1-1.2c0-0.5,0.1-1.1,0.1-1.6c0-0.9-0.1-1.7-0.1-2.6c0-0.6,0-1.1,0-1.7
				c0-0.1,0-0.2,0-0.3c0-0.4,0-0.9-0.1-1.3c0-1.1,0-2.1,0-3.2c0-1.3,0-2.7,0-4c0-0.4,0.1-0.7,0.6-0.7c0-0.9,0-1.9,0-2.8
				c0-0.6,0.1-0.7,0.7-0.7c1.8,0,3.6,0,5.4,0c1.1,0,1.5,0.4,1.4,1.5c0,0.5,0,1,0,1.5c0,0.1,0.2,0.4,0.3,0.4c0.6,0,1.2,0.2,1.8,0
				c0.5-0.2,1-0.6,1.5-1c0.9-0.7,1.8-1.3,2.7-2c0.4-0.3,0.8-0.7,1.1-1.2c0.9-1.1,1.7-2.2,2.6-3.3c0.5-0.6,0.9-1.3,1.3-2
				c0.7-1,1.3-2.1,2-3.1c0.6-1,1.1-1.9,1.6-2.9c0.6-1.2,1.1-2.5,1.6-3.7c0.4-0.9,0.8-1.9,1.2-2.8c0.2-0.5,0.3-1,0.4-1.5
				c0.2-0.8,0.4-1.6,0.6-2.4c0.3-1.2,0.6-2.5,0.7-3.7c0.1-0.6,0.3-1.2,0.3-1.8c0.1-0.4,0.1-0.9,0.1-1.3c0-0.2,0.1-0.4,0.1-0.6
				c0-0.4,0.1-0.8,0.1-1.1c0.1-0.8,0.1-1.6,0.2-2.3c0-0.6,0-1.2,0-1.8c0-0.8,0.1-1.6,0.2-2.4c0-0.5-0.1-1-0.1-1.5c0-1,0.1-2,0.2-3
				c0-0.5,0.1-0.9,0.1-1.4c0-0.8,0-1.5,0-2.3c0-0.6,0.1-1.2,0.2-1.7c0-0.7,0-1.3,0-2c0-1,0.1-2,0.2-3c0-0.5,0-1,0-1.5
				c0-1.4,0-2.9,0.3-4.3c0.1-0.6-0.1-1.2-0.1-1.8c0-1,0.1-1.9,0.2-2.9c0-0.3,0-0.7,0-1.1c-0.7,0.2-1.4,0.4-2.2,0.6
				c-0.8,0.2-1.6,0.3-2.4,0.6c-1.7,0.6-3.3,1.3-4.9,1.9c-0.9,0.4-1.8,0.8-2.6,1.3c-0.7,0.4-1.4,0.8-2.2,1.1
				c-1.3,0.5-2.7,0.8-4.1,0.5c-0.5-0.1-1.1-0.4-1.5-0.8c-0.8-0.6-1.5-1.3-2-2.2c-0.6-0.9-0.9-1.9-1.3-2.9c-0.3-0.7-0.3-1.4-0.4-2.1
				c-0.3-1.2-0.5-2.5-0.7-3.8c-0.3-1.4-0.5-2.7-0.8-4.1c-0.2-1-0.3-2.1-0.4-3.1c-0.1-0.7-0.3-1.4-0.4-2c-0.1-0.4-0.1-0.8-0.2-1.2
				c-0.1-0.8-0.2-1.6-0.4-2.3c-0.2-1.2-0.3-2.3-0.5-3.5c-0.1-0.8-0.3-1.7-0.4-2.5c-0.1-0.9-0.2-1.7-0.4-2.6
				c-0.1-0.4-0.1-0.7-0.2-1.1c-0.1-0.8-0.3-1.6-0.4-2.3c-0.2-1.1-0.3-2.2-0.5-3.2c-0.2-1.2-0.5-2.5-0.7-3.7c-0.1-1-0.2-2-0.3-2.9
				c0-0.2-0.1-0.4-0.2-0.5c-0.1-0.8-0.2-1.5-0.3-2.3c-0.1-0.8-0.3-1.7-0.5-2.5c-0.1-0.6-0.2-1.2-0.3-1.8c-0.1-0.6-0.2-1.2-0.3-1.9
				c-0.1-0.4-0.2-0.9-0.3-1.3c0-0.1-0.1-0.3-0.2-0.3c-0.9-0.3-1.2-1.1-1.3-1.9c-0.2-1.2-0.4-2.3-0.6-3.5c-0.1-0.5-0.1-1.1-0.1-1.6
				c0-0.2,0.2-0.4,0.4-0.5c0.5-0.3,0.5-0.6,0.4-1.1c-0.2-1.1-0.3-2.2-0.4-3.3c-0.1-0.6-0.2-1.2-0.3-1.8c0-0.2,0-0.4,0-0.6
				c0-0.3-0.1-0.6-0.2-0.8c-0.2-0.5-0.1-0.9,0.2-1.2c0.6-0.7,1.2-1.5,1.9-2c1.1-0.8,2.3-1.5,3.5-2.2c0.8-0.4,1.7-0.7,2.5-1.1
				c1.4-0.6,2.8-1.1,4.2-1.6c0.9-0.3,1.7-0.6,2.6-0.9c1.3-0.4,2.6-0.7,4-1c1.3-0.3,2.6-0.5,3.8-0.8c1.3-0.3,2.6-0.5,3.9-0.8
				c0.9-0.2,1.7-0.4,2.6-0.6c0.6-0.1,1.2-0.1,1.8-0.2c0.7-0.1,1.3-0.2,2-0.3c0.6-0.1,1.2-0.1,1.9-0.2c1.5-0.2,3.1-0.3,4.6-0.5
				c0.6-0.1,1.1-0.1,1.7-0.1c1.4-0.1,2.8-0.2,4.2-0.2c2.2,0,4.4,0,6.6,0c1,0,1.9,0,2.9,0c1.3,0.1,2.5,0.2,3.8,0.4
				c0.7,0.1,1.5,0.1,2.2,0.2c0.8,0.1,1.6,0.2,2.4,0.4c0.8,0.1,1.6,0.2,2.4,0.4c1.6,0.3,3.2,0.7,4.7,1.4c0.7,0.3,1.4,0.6,2.1,1.1
				c0.5,0.3,0.9,0.7,1.3,1.1c0.5,0.5,0.4,1.2,0.5,1.9c0.1,0.9,0.2,1.7,0.4,2.6c0.1,0.6,0.2,1.1,0.2,1.7c0,0.4,0.2,0.5,0.5,0.5
				c0.7,0.1,1.2,0.5,1.3,1.1c0.2,0.9,0.4,1.8,0.6,2.8c0.1,0.8,0.2,1.6,0.3,2.4c0.1,0.6-0.2,1.1-0.7,1.5c-0.1,0.1-0.2,0.3-0.2,0.4
				c0,0.4,0.2,0.7,0.2,1.1c0.1,0.7,0.2,1.5,0.2,2.2c0,0.2,0.1,0.3,0.1,0.5c0,0.4,0,0.8,0.1,1.2c0.1,0.7,0.2,1.4,0.3,2
				c0,0.1,0,0.2,0,0.3c0.1,0.9,0.2,1.8,0.4,2.7c0,0,0,0.1,0,0.1c0.1,0.8,0.1,1.6,0.2,2.4c0.1,0.7,0.2,1.4,0.3,2.1
				c0.1,0.6,0.1,1.3,0.2,1.9c0.1,0.9,0.2,1.7,0.3,2.6c0,0.1,0,0.2,0,0.3c0.1,0.8,0.1,1.6,0.2,2.4c0,0.1,0.1,0.1,0.2,0.3
				c0.8-0.3,1.6-0.6,2.4-1c1-0.4,2-0.9,3-1.4c0.3-0.1,0.6-0.3,0.9-0.5c0.3-0.2,0.6-0.2,0.8,0.1c0.2,0.3,0,0.4-0.3,0.5
				c-0.9,0.5-1.7,1-2.6,1.4c-1.2,0.6-2.5,1-3.7,1.5c-0.4,0.2-0.5,0.3-0.4,0.8c0.2,0.6,0.2,1.2,0.3,1.8c0.1,0.7,0.1,1.5,0.2,2.2
				c0.1,0.9,0.2,1.8,0.4,2.7c0.1,0.7,0.1,1.4,0.2,2c0.1,1.1,0.3,2.2,0.4,3.3c0.1,0.5,0.1,0.9,0.2,1.4c0,0.4,0.2,0.5,0.6,0.3
				c0.7-0.3,1.3-0.5,2.1-0.5c1.3,0.1,2.4,0.5,3.5,1.1c1,0.5,1.9,1.2,2.8,1.7c1.1,0.5,2.2,0.8,3.4,0.8c1.2,0,2.3-0.1,3.4-0.7
				c0.1-0.1,0.5-0.1,0.6,0c0.2,0.2,0.1,0.4-0.2,0.6c-0.8,0.6-1.6,0.9-2.6,0.9c-1,0.1-2,0.2-2.9-0.1c-1.1-0.3-2.2-0.7-3.2-1.4
				c-0.9-0.6-2-1.2-3-1.6c-0.8-0.4-1.7-0.4-2.6-0.3c-0.4,0-0.9,0.2-1.3,0.5c-0.3,0.2-0.5,0.5-0.3,0.9c0,0.1,0.1,0.2,0.1,0.3
				c0.1,1.2,0.3,2.5,0.4,3.7c0.1,1,0.3,2.1,0.4,3.1c0.1,1,0.2,2,0.4,3c0.2,0.8,0,1.6,0.2,2.3c0.4,1.6-0.2,3.1-0.8,4.5
				c-0.6,1.5-1.5,2.8-2.9,3.7c-0.6,0.4-1.3,0.5-2,0.6c-1,0.1-2,0-2.9-0.5c-1-0.6-2.1-0.9-3.2-1.2c-0.5-0.2-1-0.2-1.6-0.3
				c-0.8-0.1-1.6-0.2-2.4-0.3c-0.7-0.1-1.5-0.2-2.2-0.3c-1.4-0.1-2.7-0.2-4.1-0.2c-2,0-4,0-6,0c-0.8,0-1.6,0.2-2.4,0.3
				c0,0-0.1,0-0.1,0c-0.7-0.1-0.9,0.1-0.8,0.8c0,0.6,0.1,1.1,0.1,1.7c0,0.5,0,1.1,0.1,1.6c0,1.1,0.1,2.1,0.1,3.2
				c0.1,2.2,0.2,4.3,0.3,6.5c0.1,1.7,0.1,3.3,0.2,5c0,0.8,0.1,1.7,0.1,2.5c0,0.6-0.1,1.2-0.1,1.7c0,0.7,0.1,0.8,0.8,0.6
				c1.2-0.3,2.4-0.4,3.6-0.1c0.5,0.1,1,0.4,1.5,0.6c1.2,0.4,2.1,1.2,3,2c0.6,0.5,1,1.1,1.6,1.6c0.8,0.6,1.8,0.9,2.8,1.2
				c0.7,0.2,1.4,0.3,2.1,0.3c0.6,0,1.2,0,1.8-0.1c0.7-0.1,1.4-0.1,2.1-0.2c0.8-0.1,1.5-0.3,2.3-0.5c0.2,0,0.3-0.1,0.5,0
				c0.1,0,0.2,0.2,0.2,0.4c0,0.1-0.1,0.2-0.2,0.2c-0.5,0.2-0.9,0.4-1.4,0.5c-0.8,0.2-1.5,0.3-2.3,0.4c-0.5,0.1-1.1,0-1.6,0
				c-1.4,0.1-2.8,0-4.1-0.4c-0.8-0.3-1.6-0.7-2.3-1.1c-0.3-0.1-0.6-0.3-0.8-0.5c-0.6-0.6-1.2-1.2-1.9-1.8c-0.7-0.6-1.4-1-2.3-1.4
				c-1-0.4-2-0.6-3-0.5c-0.6,0-1.2,0.1-1.8,0.2c-0.2,0-0.4,0.2-0.4,0.5c0.1,1.3,0,2.6,0,3.8c0,0.9,0.1,1.9,0.2,2.8
				c0,0.3,0,0.6,0,0.9c0,0.8-0.1,1.6,0,2.4c0.3,1,0,2,0.2,3c0.1,0.7,0.2,1.4,0.4,2.1c0.1,0.5,0.1,1,0.2,1.5c0,0.3,0.1,0.5,0.2,0.8
				c0.2,0.9,0.5,1.9,0.7,2.8c0.2,0.8,0.4,1.6,0.6,2.4c0.2,0.7,0.5,1.3,0.8,2c0.4,0.9,0.7,1.8,1.1,2.7c0.6,1.4,1.3,2.8,2,4.2
				c0.4,0.9,0.9,1.7,1.4,2.5c0.4,0.7,0.9,1.4,1.4,2.1c0.9,1.3,1.8,2.6,2.7,3.8c0.6,0.9,1.4,1.6,2.1,2.5
				C417,440,417.1,440.2,417.2,440.3z M428.7,337.4c-0.2-1.9-0.4-3.6-0.6-5.4c-0.1-0.7-0.1-1.3-0.2-2c-0.2-1.1-0.4-2.3-0.5-3.4
				c-0.1-0.9-0.1-1.8-0.3-2.7c-0.1-0.8-0.3-1.6-0.4-2.4c-0.1-1-0.3-1.9-0.4-2.9c-0.1-0.5,0-1-0.1-1.4c-0.1-0.3-0.3-0.6-0.5-0.7
				c-0.6-0.1-1.2-0.2-1.9-0.2c-1.6-0.1-3.3-0.3-4.9-0.4c-2.2-0.1-4.4,0-6.7,0c-2.5,0-4.9,0.1-7.4,0.1c-0.8,0-1.6,0-2.4,0
				c-1.1,0.1-2.3,0.2-3.4,0.3c-0.6,0-1.2,0.1-1.9,0.1c-1.3,0.1-2.5,0.2-3.8,0.4c-0.1,0-0.3,0-0.4,0.1c-1.1,0.1-2.2,0.3-3.3,0.4
				c-0.8,0.1-1.7,0.2-2.5,0.3c-1,0.1-2.1,0.3-3.1,0.4c-0.7,0.1-1.5,0.2-2.2,0.3c-0.9,0.2-1.8,0.5-2.7,0.7c-1.7,0.3-3.4,0.5-5.1,0.9
				c-2.2,0.5-4.4,1-6.6,1.6c-1.5,0.4-3.1,0.8-4.6,1.2c-1.7,0.5-3.3,1-5,1.5c-1.4,0.4-2.7,0.9-4.1,1.4c-0.3,0.1-0.5,0.3-0.4,0.7
				c0.2,0.8,0.3,1.6,0.4,2.5c0.2,1,0.3,1.9,0.5,2.9c0.1,0.7,0.3,1.4,0.4,2.1c0.1,0.5,0,1.1,0.1,1.6c0.3,1.5,0.6,2.9,0.8,4.4
				c0,0,0,0.1,0,0.1c0,0.5,0.1,1.1,0.1,1.6c0.1,0.7,0.3,1.4,0.4,2.1c0.1,0.7,0.2,1.4,0.3,2.1c0.1,0.9,0.3,1.8,0.4,2.7
				c0.1,0.7,0.2,1.5,0.3,2.2c0.2,1,0.4,2.1,0.5,3.1c0.2,1,0.3,2.1,0.5,3.1c0.1,0.7,0.2,1.4,0.3,2.2c0.1,0.5,0.1,1.1,0.2,1.6
				c0.1,0.7,0.3,1.4,0.4,2.2c0.1,0.6,0.1,1.2,0.2,1.7c0.1,0.9,0.3,1.7,0.5,2.6c0.2,1.3,0.4,2.6,0.7,4.1c0.1-0.2,0.1-0.2,0.2-0.3
				c0.3-0.6,0.5-1.4,1-1.9c0.7-0.9,1.4-1.7,2.2-2.5c0.7-0.7,1.4-1.3,2.2-1.9c0.9-0.7,1.9-1.2,2.9-1.8c1.3-0.7,2.5-1.4,3.8-2
				c1.3-0.6,2.7-1.1,4.1-1.6c1-0.3,2-0.7,2.9-0.9c0.8-0.2,1.6-0.3,2.4-0.5c0.5-0.1,0.9-0.3,1.4-0.4c1.6-0.3,3.2-0.7,4.9-1
				c0.8-0.1,1.5-0.3,2.3-0.4c0.8-0.1,1.5-0.2,2.3-0.3c1.2-0.2,2.5-0.4,3.7-0.5c1-0.1,2.1-0.2,3.1-0.2c1.4-0.1,2.9-0.2,4.3-0.3
				c0.2,0,0.4,0.1,0.7,0.1c1.1-0.2,2.2-0.1,3.3-0.1c0.5,0,0.9-0.1,1.4-0.1c0.8,0,1.5,0.1,2.3,0.2c0.5,0,1,0,1.5,0.1
				c1.1,0.1,2.1,0.3,3.1,0.4c0.9,0.1,1.7,0.3,2.6,0.5c0.7,0.1,1.4,0.3,2.2,0.5c0.6,0.1,1.1,0.3,1.7,0.5c0.7,0.3,1.4,0.6,2,0.9
				c0.9,0.4,1.8,0.7,2.6,1.3c1,0.7,1.9,1.5,2.7,2.3c0.5,0.5,1,1.1,1.4,1.7c0-0.2,0-0.4,0-0.6c-0.1-0.8-0.2-1.5-0.3-2.3
				c-0.1-0.7-0.2-1.5-0.3-2.2c-0.1-0.8-0.2-1.6-0.3-2.4c0-0.2,0-0.4-0.1-0.6c-0.1-0.7-0.2-1.5-0.3-2.2c-0.1-0.6-0.2-1.3-0.3-1.9
				c-0.1-0.8-0.2-1.6-0.3-2.3c-0.1-0.7-0.1-1.4-0.2-2.1c-0.2-1.5-0.4-3-0.6-4.5c-0.1-0.9-0.3-1.8-0.4-2.8c0-0.3-0.2-0.3-0.4-0.3
				c-0.6,0-1.2,0-1.8,0.1c-0.8,0.1-1.7,0.1-2.5,0.1c-1.5,0-3-0.5-4.4-1c-1.1-0.3-2.2-0.8-3.3-1.2c0,0.1,0,0.3,0,0.4
				c0.1,0.7,0.2,1.4,0.4,2.1c0.1,0.4,0.1,0.8,0.2,1.3c0.1,0.4,0,0.8,0.1,1.2c0.1,0.5,0.3,1,0.4,1.6c0.1,0.7,0.2,1.5,0.3,2.2
				c0.1,0.8,0.2,1.6,0.3,2.4c0,0.3-0.1,0.6-0.5,0.5c-1.1-0.1-2.2-0.1-3.3-0.1c-2.3,0-4.6,0-6.9,0c-1.9,0-3.8,0.2-5.6,0.3
				c-1,0.1-2,0.1-3,0.2c-1,0.1-2,0.2-3,0.4c-1.3,0.1-2.6,0.3-3.9,0.4c-0.5,0.1-1.1,0.2-1.6,0.3c-0.8,0.2-1.7,0.3-2.5,0.5
				c-1,0.2-2.1,0.3-3.1,0.5c-1.7,0.3-3.4,0.7-5.1,1.1c-1.2,0.3-2.3,0.6-3.5,0.9c-1,0.3-2,0.6-3.1,0.9c-0.5,0.2-1,0.3-1.5,0.5
				c-0.3,0.1-0.7,0.1-0.7-0.3c-0.2-0.9-0.3-1.9-0.4-2.8c-0.1-0.8-0.2-1.6-0.3-2.4c-0.1-0.7-0.3-1.3-0.3-2c-0.1-1.1-0.2-2.3-0.3-3.4
				c-0.1-0.9-0.3-1.7-0.4-2.6c-0.1-0.7-0.1-1.4-0.2-2c-0.1-0.7-0.2-1.3-0.2-2c-0.1-0.8-0.2-1.7-0.3-2.5c-0.1-0.6-0.1-1.2-0.2-1.7
				c-0.1-0.8-0.3-1.5-0.4-2.3c-0.1-0.9-0.2-1.8-0.3-2.7c0-0.1,0-0.2,0-0.3c0.2-0.5,0.6-0.7,1.1-0.9c1.1-0.4,2.1-0.9,3.2-1.3
				c1.5-0.5,3-0.9,4.5-1.4c1.3-0.4,2.7-0.7,4-1c1.1-0.3,2.2-0.5,3.4-0.7c1.2-0.2,2.5-0.4,3.7-0.6c1.1-0.2,2.3-0.4,3.4-0.6
				c1.2-0.2,2.5-0.2,3.7-0.3c1.7-0.1,3.3-0.3,5-0.4c1.1-0.1,2.3,0,3.4,0c1.2,0,2.5,0,3.7,0c1.1,0.1,2.2,0.2,3.3,0.4
				c1.2,0.2,2.5,0.3,3.7,0.5c0.9,0.1,1,0.3,1.1,1.2c0,0.6,0.1,1.3,0.2,1.9c0.2,1,0.4,1.9,0.6,2.9c0.2,0.9,0.3,1.8,0.4,2.7
				c0.2,1.3,0.4,2.7,0.6,4c0.1,0.5,0.1,1,0.2,1.5c0,0.2,0.1,0.5,0.4,0.6c0.4,0.1,0.8,0.3,1.2,0.5c0.7,0.3,1.4,0.6,2.1,0.8
				c0.8,0.2,1.6,0.5,2.4,0.6c0.5,0.1,1.1,0.1,1.6,0.2c1.3,0.3,2.5,0,3.8-0.1C428.1,337.6,428.4,337.5,428.7,337.4z M375,437.7
				c11.9-6.9,23.7-7.2,35.7-0.3c-0.2-0.3-0.3-0.5-0.4-0.6c-0.3-0.5-0.7-1-1.1-1.5c-0.4-0.7-0.9-1.4-1.3-2.1
				c-0.4-0.7-0.9-1.4-1.2-2.1c-0.9-1.7-1.7-3.4-2.5-5.2c-0.4-0.9-0.8-1.9-1.1-2.9c-0.3-0.8-0.6-1.6-0.8-2.4c-0.3-1.2-0.7-2.4-1-3.6
				c-0.4-1.7-0.7-3.5-1-5.2c-0.2-1.3-0.3-2.7-0.3-4c0-0.3-0.1-0.5-0.2-0.8c-0.1-0.4-0.1-0.8-0.1-1.1c0-0.2,0.1-0.4,0.1-0.6
				c-0.1-2-0.1-4-0.2-6c0-0.8-0.1-1.7-0.1-2.5c-0.1-1.3-0.1-2.5-0.2-3.8c0-0.2,0-0.5,0-0.7c-0.1-1-0.1-2.1-0.2-3.1
				c0-0.5,0-1.1,0-1.6c0-1-0.1-2-0.2-3c0-0.3-0.1-0.5-0.1-0.8c0-0.5,0.1-0.9,0.1-1.4c0-0.8-0.1-1.6-0.2-2.3c0-0.8,0-1.5,0-2.3
				c0-1.3-0.1-2.6-0.2-3.8c0-0.5,0-1.1,0-1.6c0-0.9-0.1-1.8-0.2-2.7c-0.1-1.5-0.1-3-0.2-4.5c0-1.3-0.1-2.7-0.1-4
				c0-0.8-0.1-1.6-0.1-2.4c0-1-0.1-2-0.1-3.1c-0.3,0-0.5,0-0.8,0.1c-0.3,0-0.7,0.1-1,0.1c-1.2,0.1-2.4,0.2-3.6,0.4
				c-1.4,0.2-2.9,0.5-4.3,0.8c-0.1,0-0.3,0.3-0.4,0.4c0,0.8,0,1.6,0.1,2.4c0,0.3-0.1,0.7-0.1,1c0,0.7,0.1,1.3,0.1,2
				c0,0.8-0.1,1.5-0.2,2.3c0,0.8-0.1,1.6-0.1,2.4c-0.1,1.3-0.1,2.6-0.2,3.9c-0.1,2.2-0.1,4.4-0.2,6.5c0,0.4-0.2,0.7-0.2,1.1
				c0,1.2,0,2.4,0,3.6c0,1-0.1,2.1-0.2,3.1c0,0.8-0.1,1.7-0.1,2.5c0,0.6-0.2,1.3-0.2,1.9c0,0.7,0.1,1.3,0.1,2c0,1.1-0.1,2.2-0.2,3.3
				c-0.1,1-0.2,2.1-0.3,3.1c-0.1,1-0.1,2-0.1,3c-0.1,2.4-0.2,4.7-0.3,7.1c0,0.2,0,0.3,0,0.5c-0.1,0.8-0.2,1.6-0.4,2.4
				c-0.2,1-0.3,2-0.5,3c-0.1,0.8-0.2,1.5-0.4,2.3c-0.1,0.7-0.3,1.3-0.5,2c-0.2,0.8-0.5,1.5-0.7,2.3c-0.3,1-0.5,2-0.9,3
				c-0.5,1.2-1,2.4-1.5,3.6c-0.7,1.7-1.7,3.3-2.6,4.9c-0.8,1.4-1.7,2.7-2.6,4.1C375.7,437,375.3,437.4,375,437.7z M351.7,314.4
				c0.4-0.2,0.7-0.4,1-0.5c1.1-0.5,2.2-0.9,3.3-1.4c1.2-0.5,2.3-0.9,3.5-1.4c1-0.3,2-0.6,3-0.9c1.1-0.3,2.2-0.7,3.3-1
				c1.2-0.3,2.4-0.5,3.6-0.8c1.1-0.2,2.2-0.5,3.3-0.8c1.5-0.3,2.9-0.7,4.4-1c1.7-0.3,3.5-0.6,5.3-0.9c1.6-0.2,3.2-0.5,4.7-0.7
				c0.6-0.1,1.2-0.2,1.8-0.2c0.9,0,1.8-0.3,2.8-0.3c0.1,0,0.3,0,0.4,0c0.8-0.1,1.7-0.3,2.5-0.4c0.7-0.1,1.4,0,2.1-0.1
				c0.4,0,0.7-0.1,1.1-0.1c1.3,0,2.6-0.1,4-0.1c0.5,0,0.9,0,1.4,0c0.9,0,1.9-0.1,2.8-0.1c1,0,1.9,0,2.9,0c0.3,0,0.7,0.1,1,0.1
				c0.7,0,1.3-0.1,2-0.1c1.4,0.1,2.9,0.2,4.3,0.3c1.2,0.1,2.3,0.2,3.5,0.3c0.7,0.1,1.4,0.2,2.1,0.3c0.6,0.1,1.2,0.2,1.8,0.2
				c0.1,0,0.2-0.1,0.2-0.2c0-0.2,0-0.4-0.1-0.7c-0.1-0.9-0.2-1.7-0.3-2.6c-0.1-0.5-0.1-1.1-0.6-1.5c-0.6-0.4-1.3-0.8-2-1.1
				c-1-0.4-2.1-0.8-3.2-1.1c-1.3-0.4-2.7-0.6-4.1-0.9c-0.7-0.1-1.5-0.2-2.3-0.3c-1.2-0.1-2.4-0.3-3.6-0.4c-0.6-0.1-1.2-0.1-1.8-0.1
				c-1.5-0.1-3-0.2-4.5-0.3c-1.3,0-2.7,0.1-4,0.2c-1.5,0-3,0.1-4.5,0.1c-0.7,0-1.4,0-2.2,0.1c-1.5,0.1-3.1,0.3-4.6,0.5
				c-0.9,0.1-1.8,0.2-2.7,0.3c-1.3,0.2-2.6,0.4-3.8,0.6c-1.2,0.2-2.5,0.4-3.7,0.6c-1.2,0.2-2.3,0.5-3.5,0.7c-1.7,0.4-3.3,0.7-5,1.1
				c-1.4,0.3-2.7,0.8-4.1,1.2c-0.8,0.3-1.6,0.5-2.5,0.8c-0.9,0.3-1.8,0.7-2.7,1.1c-1.3,0.6-2.7,1.2-3.9,1.9
				c-0.9,0.5-1.6,1.2-2.4,1.9c-0.3,0.3-0.6,0.6-0.8,0.9c-0.4,0.6,0,1.2,0.1,1.8c0,0.6,0.2,1.2,0.3,1.8
				C351.4,312.5,351.5,313.3,351.7,314.4z M429.2,463.6c0.4,0,0.8,0,1.2,0c0.3,0,0.4-0.2,0.3-0.4c-0.3-0.5-0.6-1-0.9-1.5
				c-0.2-0.3-0.6-0.5-1-0.5c-0.2,0-0.4-0.1-0.6-0.2c-0.6-0.2-1.1-0.4-1.7-0.5c-0.7-0.1-1.3-0.5-1.6-1.1c-0.2-0.5-0.3-1-0.4-1.5
				c-0.3-1.1-0.5-2.2-0.9-3.3c-0.4-1.2-0.9-2.4-1.4-3.5c-0.3-0.6-0.3-1.2,0.1-1.8c0.1-0.2,0.2-0.5,0.3-0.7c0.2-0.5,0.3-1,0.5-1.4
				c0.2-0.5,0.2-0.9-0.2-1.2c-0.7-0.7-1.5-1.3-2.2-2c-0.7-0.7-1.5-1.3-2.3-2c-0.7-0.7-0.9-0.7-1.7-0.3c-0.7,0.4-1.6,0.4-2.2-0.3
				c-1.3-1.4-2.9-2.5-4.6-3.5c-1.7-1-3.5-1.9-5.4-2.6c-0.8-0.3-1.7-0.5-2.5-0.8c-0.7-0.2-1.3-0.4-2-0.6c-0.9-0.2-1.9-0.3-2.8-0.4
				c-1-0.1-2-0.2-3-0.3c-1.2,0-2.4,0-3.6,0.1c-0.1,0-0.2,0-0.3,0c-1.3,0.2-2.6,0.4-3.8,0.7c-1.2,0.3-2.4,0.6-3.6,1
				c-0.9,0.3-1.7,0.8-2.5,1.1c-1.8,0.7-3.5,1.6-5.1,2.9c-0.8,0.7-1.8,1.3-2.6,2c-0.7,0.7-1.5,0.6-2.3,0.3c-0.7-0.3-1.3-0.3-2,0.3
				c-0.7,0.6-1.5,1.3-2.3,1.8c-1,0.6-1.8,1.3-2.6,2c-0.1,0.1-0.2,0.3-0.1,0.4c0.5,1.4,1,2.7,1.6,4.1c0.1,0.1,0.1,0.3,0,0.5
				c-0.2,0.7-0.5,1.4-0.8,2.1c-0.4,1.3-0.9,2.6-1.3,4c-0.2,0.8-0.4,1.5-0.5,2.3c-0.1,0.6-0.4,1.1-1,1.4c-0.8,0.3-1.5,0.7-2.3,0.8
				c-0.8,0.2-1.4,0.5-1.7,1.2c-0.3,0.4-0.4,0.9-0.6,1.4c0,0.1,0.1,0.3,0.2,0.3c0.5,0,1,0,1.4,0c0.7,0,1.3-0.1,2-0.1
				c0.3,0,0.6,0.1,0.9,0c0.4-0.1,0.6,0.1,0.6,0.4c0.1,0.8,0.1,1.6,0.1,2.5c0,0.5,0,1.1,0,1.6c0.1,0.5,0.3,1,0.4,1.5
				c0.3,1.3,0.5,2.6,0.8,3.8c0.1,0.4,0.1,0.7,0.2,1.1c0.1,0.8,0.3,1.6,0.4,2.5c0.2,0.8,0.4,1.6,0.5,2.4c0.2,1.2,0.4,2.4,0.7,3.5
				c0.2,0.7,0.1,1.4,0.5,2c0.4,0.6,0.8,1,1.4,1.1c0.8,0.2,1.6,0.1,2.4,0.2c0.9,0.1,1.8,0.3,2.7,0.4c0.1,0,0.2,0.1,0.3,0.2
				c0.4,0.4,0.9,0.9,1.3,1.3c0.6,0.5,1.2,1,1.9,1.4c1,0.7,2,1.3,3.1,1.9c0.9,0.5,1.8,0.8,2.7,1.2c1.1,0.5,2.1,0.9,3.3,1.3
				c1.1,0.4,2.3,0.6,3.5,0.8c1.5,0.3,3,0.5,4.6,0.4c0.2,0,0.4,0,0.5,0c0.9,0,1.7,0.1,2.6,0.1c0.4,0,0.9-0.2,1.3-0.2
				c1.5-0.1,3-0.3,4.5-0.8c1.4-0.4,2.7-0.8,4-1.4c1.3-0.5,2.5-1.2,3.7-1.8c1.3-0.7,2.6-1.5,3.8-2.4c0.8-0.6,1.6-1.4,2.3-2.1
				c0.2-0.2,0.5-0.3,0.8-0.3c1.4-0.1,2.8-0.2,4.2-0.3c1.3-0.1,2-0.7,2.3-1.9c0.2-0.8,0.3-1.5,0.5-2.3c0.1-0.6,0.3-1.2,0.4-1.8
				c0.2-0.9,0.3-1.8,0.5-2.7c0.2-0.9,0.3-1.8,0.5-2.7c0.1-0.7,0.3-1.5,0.5-2.2c0.4-1.8,0.7-3.6,1.2-5.4c0.2-0.9,0.2-1.8,0-2.7
				c-0.1-0.4,0-0.6,0.5-0.6C427.5,463.6,428.4,463.6,429.2,463.6z M371.3,353.3c0.7-0.2,1.3-0.4,1.9-0.6c0.6-0.2,1.2-0.4,1.9-0.6
				c0.9-0.3,1.9-0.5,2.8-0.7c0.9-0.2,1.8-0.5,2.6-0.7c1.4-0.3,2.7-0.5,4.1-0.8c0.9-0.2,1.8-0.4,2.7-0.5c0.5-0.1,1-0.1,1.5-0.2
				c0.5-0.1,1-0.1,1.6-0.2c1.1-0.2,2.2-0.4,3.4-0.5c1.5-0.2,3-0.4,4.5-0.5c1.7-0.2,3.5-0.3,5.2-0.4c2-0.1,4-0.1,6-0.1
				c1.2,0,2.3,0.1,3.5,0.1c0.1,0,0.3,0,0.4,0c0.6,0,1.1,0,1.7,0c0.8,0,1.5,0,2.4,0c-0.1-0.3-0.2-0.5-0.2-0.7c-0.1-0.5,0-1.1-0.2-1.6
				c-0.3-1-0.1-2.1-0.5-3.1c-0.2-0.6-0.2-1.4-0.3-2.1c-0.1-1.1-0.3-2.1-0.5-3.2c0-0.3,0-0.7-0.4-0.8c-0.9-0.2-1.9-0.6-2.8-0.6
				c-1.8-0.1-3.6,0-5.4,0.1c-0.3,0-0.7-0.1-0.9,0.1c-0.2,0.1-0.1,0.6-0.2,0.9c-0.2,0.8-0.3,1.5-0.5,2.3c-0.2,1-0.4,2-1,2.9
				c-0.6,0.8-1.2,1.6-1.8,2.4c-0.6,0.8-1.4,1.3-2.2,1.9c-0.9,0.7-2,1.1-3.2,1.4c-1,0.4-2.1,0.3-3.1,0.4c-0.8,0.1-1.6,0-2.4-0.1
				c-0.4,0-0.7,0-1.1-0.1c-1.5-0.4-2.8-1-4.1-1.8c-1.1-0.7-2-1.7-2.9-2.7c-0.4-0.5-0.8-1.1-1.1-1.7c-0.4-0.8-0.6-1.6-0.8-2.4
				c-0.6-1.9-0.5-3.9-0.2-5.9c0.3-1.6,1.1-2.9,2-4.2c0.8-1.1,1.7-2,2.9-2.6c1-0.5,2.1-1,3.2-1.5c0.2-0.1,0.4-0.1,0.5-0.2
				c0,0,0-0.1,0-0.1c-0.2,0-0.5,0-0.7,0.1c-0.8,0.1-1.6,0.2-2.3,0.3c-1.2,0.1-2.4,0.3-3.5,0.4c-0.9,0.1-1.8,0.3-2.8,0.4
				c-1,0.1-2.1,0.2-3.1,0.3c-1.3,0.1-2.5,0.3-3.8,0.5c-0.3,0-0.6,0-0.9,0c-0.9,0.1-1.8,0.2-2.6,0.3c-0.8,0.1-1.6,0.2-2.4,0.3
				c-0.1,0-0.3,0.2-0.3,0.2c0,0.5,0,0.9,0.1,1.4c0.1,1.2,0.3,2.4,0.5,3.7c0.1,0.7,0.2,1.3,0.2,2c0.1,1.1,0.3,2.3,0.4,3.4
				c0.1,1.1,0.3,2.1,0.4,3.2c0.1,0.5,0.1,1,0.2,1.6c0.1,0.6,0.2,1.3,0.3,1.9c0.1,0.7,0.2,1.4,0.2,2c0.1,0.8,0.2,1.6,0.3,2.4
				c0.1,0.6,0.1,1.3,0.2,1.9C371,351.6,371.1,352.4,371.3,353.3z M361,465.7c0-0.3,0-0.5,0-0.8c0-0.5-0.3-0.8-0.8-0.8
				c-0.8,0-1.5,0.1-2.3,0.1c-0.3,0-0.6-0.1-0.9-0.1c-0.5,0-1.1,0.1-1.6,0.1c-0.4,0-0.5,0.1-0.5,0.5c0.1,0.7,0.1,1.4,0.1,2.1
				c0,0.5,0,0.9,0,1.4c0,0.6,0.1,1.3,0.1,1.9c0,0.5-0.1,1.1-0.1,1.6c0,0.5,0.1,1.1,0.1,1.6c0,1.2,0,2.5,0,3.7c0,1.7,0,3.4,0,5.2
				c0,0.3,0,0.6,0,0.9c0,0.4,0,0.8,0,1.2c-0.1,0.6,0,0.7,0.6,0.7c1.3,0,2.7-0.1,4-0.1c0.9,0,1.8,0,2.7,0.1c0.4,0,0.7,0.2,1.1,0.3
				c1,0.4,1.5,1.4,2.2,2.1c0.5,0.5,0.9,1.1,1.3,1.5c0.3,0.3,0.6,0.5,0.9,0.8c0.7,0.7,1.4,1.4,2.2,2c1.4,1.2,3,2.2,4.5,3.3
				c1.4,1,3,1.5,4.6,2.2c1.7,0.7,3.4,1.4,5.1,1.8c0.4,0.1,0.8,0.3,1.2,0.3c1.1,0,2.3-0.1,3.4-0.1c0.7,0,1.3,0.1,2,0.1
				c1.4,0,2.9-0.1,4.3-0.2c0.9,0,1.7,0.1,2.6,0.1c1,0,1.9,0.1,2.9,0.1c0.5,0,0.9,0,1.4-0.1c0.9-0.2,1.7-0.4,2.5-0.7
				c0.8-0.2,1.6-0.4,2.3-0.7c0.9-0.3,1.7-0.8,2.6-1.2c1.2-0.6,2.4-1.1,3.6-1.8c1.1-0.6,2.1-1.4,3.1-2.2c0.6-0.5,1.2-0.9,1.8-1.4
				c0.4-0.4,0.9-0.7,1.3-1.1c0.5-0.5,1-1,1.5-1.5c0.8-0.9,1.5-1.9,2.3-2.8c0.5-0.5,1-1,1.8-0.9c1,0.1,2,0,3,0c0.2,0,0.5,0.1,0.7,0.1
				c0.9,0,1.8-0.1,2.7-0.1c0.5,0,0.6,0,0.6-0.5c0-0.8,0-1.6,0-2.3c0-1.9,0-3.8,0-5.7c0-0.7-0.2-1.4-0.2-2.1c0-0.9,0-1.8,0.1-2.7
				c0-0.4,0.1-0.8,0.1-1.2c0-0.6-0.2-1.2-0.2-1.7c0-1.3,0-2.5,0-3.8c0-0.4-0.1-0.6-0.6-0.6c-1.3,0-2.6,0-3.8-0.1
				c-0.2,0-0.4,0.1-0.3,0.4c0,0.7,0,1.4,0,2.1c0,0.2,0,0.4,0,0.5c-0.2,0.9-0.4,1.7-0.6,2.6c-0.2,1.1-0.4,2.2-0.7,3.2
				c-0.2,0.7-0.3,1.5-0.5,2.2c-0.1,0.5-0.1,1.1-0.2,1.6c-0.2,0.9-0.4,1.7-0.6,2.5c-0.2,0.8-0.3,1.6-0.5,2.4
				c-0.1,0.6-0.3,1.2-0.4,1.7c-0.2,1-0.5,1.9-1.4,2.5c-0.9,0.6-1.9,0.6-2.9,0.7c-1,0.1-2,0.1-3,0.2c-0.2,0-0.4,0.1-0.5,0.2
				c-0.5,0.5-1,0.9-1.5,1.4c-0.3,0.3-0.5,0.6-0.9,0.8c-1.1,0.7-2.2,1.4-3.3,2c-1,0.6-2.1,1.2-3.1,1.7c-0.6,0.3-1.2,0.4-1.8,0.7
				c-1.1,0.5-2.3,0.9-3.5,1.2c-2.2,0.6-4.4,0.8-6.6,0.9c-0.4,0-0.8,0-1.3,0c-0.6,0-1.2,0.1-1.7,0c-1.6-0.2-3.2-0.3-4.8-0.6
				c-1.3-0.2-2.5-0.7-3.7-1.1c-1-0.3-1.9-0.8-2.9-1.1c-1.3-0.5-2.5-1.1-3.7-1.8c-0.9-0.6-1.9-1.2-2.7-1.8c-0.7-0.5-1.2-1-1.9-1.5
				c-0.3-0.3-0.7-0.6-1.1-0.7c-0.7-0.2-1.4-0.2-2.1-0.3c-0.3,0-0.6,0-0.9-0.1c-0.8-0.1-1.5-0.2-2.2-0.5c-0.5-0.2-1-0.6-1.2-1
				c-0.4-1-0.5-2.1-0.7-3.1c-0.2-0.7-0.3-1.5-0.4-2.2c-0.1-0.3-0.1-0.5-0.2-0.8c-0.2-0.8-0.3-1.5-0.5-2.3c0-0.1-0.1-0.1-0.1-0.2
				c-0.1-0.5-0.1-1.1-0.2-1.6c-0.1-0.4-0.3-0.8-0.3-1.3c-0.3-1.4-0.5-2.7-0.8-4.1c-0.1-0.6-0.3-1.2-0.4-1.8
				C361,467.1,361,466.4,361,465.7z M432.6,367.8c-0.1-2-0.1-3-1.2-4.4c-0.5-0.6-0.9-1.3-1.5-1.8c-1.1-1-2.3-1.8-3.6-2.6
				c-0.6-0.4-1.2-0.6-1.9-0.9c-0.8-0.3-1.6-0.7-2.4-1c-1.3-0.4-2.6-0.6-3.9-0.9c-1-0.2-1.9-0.3-2.9-0.5c-1.2-0.2-2.4-0.3-3.5-0.4
				c-0.8-0.1-1.6-0.1-2.3-0.1c-0.8,0-1.6,0-2.4,0c-0.3,0-0.6-0.1-0.9-0.1c-0.5,0-1.1,0.1-1.6,0.1c-0.7,0-1.4,0.1-2.2,0.1
				c-0.2,0-0.4,0.1-0.6,0.1c-0.5-0.2-0.5,0.1-0.4,0.4c0,0.9,0.1,1.7,0.1,2.6c0,0.6,0,1.1,0,1.7c0,0.7,0.1,1.3,0.1,2
				c0,1.1,0,2.2,0,3.3c0,1,0.1,1.9,0.1,2.9c0.1,1,0.2,2,0.2,3c0,0.5,0.1,0.6,0.6,0.6c1.5-0.1,3-0.2,4.4-0.3c1.2,0,2.5,0,3.7,0
				c0.7,0,1.4,0,2.1,0c1.3,0.1,2.7,0.2,4,0.4c0.6,0.1,1.2,0.1,1.8,0.2c0.9,0.2,1.8,0.3,2.7,0.6c0.9,0.2,1.8,0.6,2.7,0.9
				c0.5,0.2,1.1,0.3,1.6,0.5c0.4,0.1,0.8,0.1,1.2,0.2c1.1,0.3,2.4-0.2,3-1.1c0.5-0.6,0.9-1.3,1.3-1.9
				C432,370.1,432.5,368.9,432.6,367.8z M384.9,357.9c-0.3,0-0.5,0-0.6,0c-1.5,0.4-3.1,0.5-4.6,1.1c-1.7,0.7-3.4,1.3-5.2,1.9
				c-1.8,0.7-3.4,1.6-5.1,2.5c-0.8,0.4-1.5,0.9-2.2,1.4c-0.8,0.6-1.6,1.1-2.3,1.8c-0.8,0.7-1.5,1.4-2.1,2.2c-0.9,1-1.5,2.2-1.4,3.7
				c0,0.1-0.1,0.3-0.1,0.4c0,0.6-0.1,1.2,0,1.7c0.1,0.6,0.4,1.1,0.6,1.7c0.3,0.9,0.9,1.8,1.5,2.5c0.3,0.4,0.7,0.8,1.2,1.1
				c0.4,0.3,0.9,0.6,1.3,0.7c1.6,0.2,3.2-0.1,4.7-0.9c0.6-0.3,1.1-0.8,1.6-1c1.3-0.6,2.6-1.2,3.9-1.7c1.4-0.6,2.8-1.1,4.3-1.5
				c1-0.3,2.1-0.5,3.1-0.8c0.4-0.1,0.7-0.1,0.7-0.7c0-1.2,0.2-2.4,0.2-3.7c0-1,0-2,0-3c0-0.6,0.1-1.2,0.2-1.8c0.1-1,0.1-2.1,0.1-3.1
				C384.8,360.9,384.8,359.4,384.9,357.9z M385.4,336c0,0.5,0.1,1.2,0.4,2c0.2,0.8,0.7,1.5,1,2.3c0.5,0.9,1.2,1.6,2.1,2.2
				c0.5,0.3,1,0.8,1.6,0.9c1.2,0.3,2.5,0.7,3.8,0.5c0.6-0.1,1.3,0,2-0.3c1-0.5,2-0.9,2.9-1.6c0.8-0.6,1.5-1.3,1.9-2.3
				c0.3-0.8,0.6-1.7,0.9-2.6c0.4-1.2,0.2-2.4-0.1-3.5c-0.4-1.6-1.3-3.1-2.7-4.1c-1.1-0.9-2.4-1.5-3.8-1.8c-1.5-0.3-3-0.1-4.4,0.3
				c-1.5,0.5-2.7,1.4-3.7,2.6C385.9,332.2,385.4,333.9,385.4,336z M402.9,335.3c0.3-0.1,0.6-0.3,0.9-0.3c0.3-0.1,0.6-0.1,0.9-0.1
				c0.5-0.1,0.6-0.3,0.4-0.8c-0.2-0.6-0.3-1.3-0.6-1.9c-0.4-1-0.9-1.9-1.4-2.8c-0.3-0.5-0.9-0.9-1.3-1.4c-1.1-1.3-2.6-1.9-4.1-2.5
				c-1.7-0.6-3.4-1-5.2-0.7c-0.6,0.1-1.3,0.2-1.9,0.3c-1.3,0.3-2.6,0.9-3.7,1.6c-0.9,0.6-1.7,1.3-2.4,2.1c-0.5,0.6-0.9,1.4-1.3,2.1
				c-0.3,0.6-0.6,1.3-0.8,2c-0.2,0.6-0.2,1.2-0.2,1.7c0,0.5,0,0.9,0,1.4c0,0.5-0.1,1,0,1.4c0.1,0.7,0.4,1.4,0.6,2.1
				c0.2,0.9,0.6,1.8,1.2,2.6c0.6,0.9,1.4,1.7,2.3,2.5c1.1,1,2.3,1.6,3.6,2.1c1.5,0.5,3.1,0.6,4.7,0.5c1.6,0,3.1-0.5,4.6-1.2
				c1.8-0.9,3.3-2.3,4.4-4c0.6-0.9,1.1-1.8,1.3-2.8c0.3-1,0.4-2,0.5-3c0-0.6,0-0.7-0.6-0.6c-0.6,0.1-1.2,0.2-1.8,0.3
				c-0.1,0.4-0.1,0.9-0.2,1.4c-0.2,1.1-0.5,2.1-1.1,3.1c-0.5,0.7-1,1.4-1.7,2c-0.6,0.6-1.3,1.1-2.1,1.4c-1.2,0.5-2.4,1-3.7,0.8
				c-1-0.1-2.1-0.1-3.1-0.4c-1.3-0.3-2.4-1.1-3.4-1.9c-0.9-0.7-1.5-1.6-2-2.6c-1-1.8-1.3-3.7-0.9-5.7c0.2-1,0.6-2,1.3-2.9
				c0.8-1.1,1.7-2.1,2.9-2.9c1-0.6,2-0.9,3.2-1.2c1.4-0.3,2.7-0.3,4.1,0.1c1.5,0.4,2.9,1.2,4,2.3c1.1,1,1.7,2.3,2.3,3.6
				C402.7,333.8,402.7,334.5,402.9,335.3z M369.9,440.1c0,0.1,0,0.1,0,0.2c0.2,0,0.3,0,0.5,0.1c0.9,0.4,1.6,0.2,2.2-0.7
				c0.8-0.9,1.5-2,2.2-2.9c0.5-0.6,0.9-1.4,1.4-2c0.2-0.4,0.5-0.7,0.8-1.1c0.5-0.8,1-1.7,1.4-2.5c0.5-1,1.1-1.9,1.6-2.9
				c0.7-1.4,1.2-2.8,1.8-4.3c0.3-0.8,0.6-1.6,0.9-2.4c0.3-0.8,0.5-1.6,0.7-2.4c0.2-0.6,0.3-1.2,0.4-1.8c0.2-1,0.4-1.9,0.5-2.9
				c0.1-0.7,0.2-1.5,0.3-2.2c0.1-0.7,0.2-1.4,0.3-2.2c0.1-0.6,0.2-1.2,0.2-1.8c0-0.5-0.1-0.9-0.1-1.4c0.1-0.7,0.3-1.4,0.2-2.2
				c-0.1-0.8,0-1.6,0.1-2.4c0.1-1.1,0.2-2.1,0.3-3.2c0.1-1.5,0.2-3,0.2-4.5c0-1-0.1-2,0-2.9c0.1-1.1,0.2-2.2,0.2-3.4
				c0-1.1,0.1-2.2,0.2-3.3c0.1-1.5,0.1-3,0.2-4.5c0-0.6,0-1.3,0-1.9c0-1.1,0.1-2.2,0.2-3.3c0-0.6,0-1.1,0-1.7
				c0.1-1.4,0.2-2.7,0.3-4.1c0-0.6,0-1.3,0-1.9c0-1.1,0.1-2.2,0.2-3.2c0-0.5,0-1,0-1.5c0-0.8,0.1-1.6,0.1-2.3c0-0.9,0.1-1.7,0.1-2.6
				c0-0.2,0-0.4,0-0.7c-0.6,0.1-1.1,0.3-1.6,0.4c-0.1,0-0.1,0.2-0.1,0.3c0,0.5,0,1,0,1.6c0,0.9,0,1.7,0,2.6c0,0.9-0.2,1.8-0.2,2.7
				c0,1.1,0,2.3-0.1,3.4c0,0.7-0.1,1.5-0.2,2.2c-0.1,1.2-0.1,2.3-0.2,3.5c-0.1,2-0.1,4.1-0.2,6.1c0,0.9-0.1,1.7-0.1,2.6
				c0,0.8-0.1,1.7-0.1,2.5c0,0.4,0,0.8,0,1.3c0,0.4-0.1,0.9-0.2,1.3c0,1-0.1,2-0.1,2.9c0,0.8-0.2,1.6-0.2,2.4c0,0.9,0,1.7,0,2.6
				c0,0.8-0.2,1.5-0.2,2.3c0,1.2,0,2.4,0,3.5c0,1.2-0.1,2.3-0.2,3.5c0,1,0,2.1,0,3.1c0,0.4,0,0.7-0.1,1.1c-0.1,0.6-0.3,1.1-0.4,1.7
				c-0.1,0.6,0,1.2-0.1,1.8c-0.2,1-0.4,2-0.7,3c-0.3,1.4-0.6,2.9-1,4.3c-0.3,1.1-0.8,2.3-1.3,3.4c-0.7,1.6-1.3,3.1-2,4.7
				c-0.6,1.2-1.2,2.5-2,3.6c-0.9,1.5-1.9,2.8-2.9,4.2c-0.7,0.9-1.3,1.9-2,2.8C370.8,439.2,370.3,439.6,369.9,440.1z M400.3,355.5
				c-0.3,0-0.6,0-0.8,0c-0.4,0-0.7,0.2-0.6,0.6c0,0.5,0.1,1,0.1,1.5c0,0.4-0.1,0.8-0.1,1.2c0,0.5,0.1,0.9,0.2,1.4c0,0.4,0,0.9,0,1.3
				c0,0.4,0.1,0.9,0.1,1.3c0,0.8,0.1,1.7,0.1,2.5c0,0.6,0.1,1.3,0.1,1.9c0,0.9,0,1.8,0,2.6c0,0.2,0.2,0.4,0.2,0.6
				c0,0.9-0.1,1.8-0.1,2.7c0,0.6,0.2,1.3,0.2,1.9c0,1.1,0,2.2,0,3.4c0,0.9,0.1,1.7,0.2,2.6c0.1,1.3,0.1,2.7,0.2,4
				c0.1,2,0.1,4,0.2,5.9c0,0.6,0,1.2,0.1,1.8c0,0.6,0.1,1.2,0.1,1.8c0,0.6,0,1.3,0,1.9c0,1,0.1,2.1,0.2,3.1c0,0.4,0,0.8,0,1.3
				c0,0.5,0.2,1,0.2,1.5c0,1,0,1.9,0,2.9c0,0.7,0.1,1.4,0.2,2c0.1,1,0.1,2,0.2,3c0.2,1.4,0.2,2.7,0.6,4.1c0.3,1.2,0.5,2.5,0.8,3.8
				c0.2,0.8,0.3,1.6,0.6,2.3c0.6,1.6,1.2,3.2,1.8,4.9c0.2,0.4,0.3,0.9,0.5,1.3c0.3,0.7,0.6,1.3,1,2c0.7,1.3,1.4,2.7,2.1,4
				c0.8,1.3,1.7,2.6,2.6,3.9c0.6,0.8,1.2,1.7,1.9,2.4c0.8,0.8,1.8,1.6,2.7,2.3c0.1,0,0.2-0.1,0.2-0.1c0.8-0.4,0.8-0.5,0.2-1.1
				c-0.5-0.6-1.2-1.2-1.6-1.9c-1.2-1.7-2.4-3.3-3.6-4.9c-0.2-0.3-0.5-0.6-0.6-0.9c-0.2-0.5-0.4-1.1-0.8-1.5
				c-0.2-0.2-0.4-0.4-0.5-0.7c-0.6-1.2-1.1-2.4-1.7-3.6c-0.3-0.6-0.6-1.2-0.9-1.9c-0.3-0.8-0.6-1.7-1-2.5c-0.3-0.7-0.5-1.4-0.8-2.1
				c-0.3-1-0.6-2.1-0.9-3.1c-0.1-0.4-0.2-0.9-0.3-1.4c-0.1-0.4-0.1-0.8-0.2-1.3c-0.1-0.6-0.2-1.3-0.4-1.9c0-0.2-0.1-0.5-0.2-0.7
				c-0.1-0.2-0.2-0.3-0.2-0.5c-0.1-1.3-0.1-2.6-0.2-3.9c0-0.5,0-1,0-1.5c0-1.2,0-2.4-0.1-3.6c-0.1-0.9,0-1.8-0.1-2.8
				c-0.1-0.9-0.1-1.9-0.2-2.8c-0.1-1.4-0.1-2.8-0.1-4.2c0-0.6,0-1.1,0-1.7c0-0.8-0.1-1.5-0.1-2.3c0-0.7,0-1.5-0.1-2.2
				c0-0.5-0.1-1.1-0.1-1.6c0-0.2,0-0.5,0-0.7c-0.1-1.1-0.1-2.1-0.2-3.2c0-0.6,0-1.2,0-1.8c0-0.2-0.1-0.4-0.1-0.6c0-1,0-2,0-3
				c0-0.8-0.1-1.7-0.2-2.5c0-0.8,0-1.6,0-2.5c0-0.9-0.1-1.9-0.2-2.8c-0.1-1.7-0.1-3.3-0.1-5c0-0.9-0.1-1.7-0.2-2.6
				c-0.1-1.2-0.1-2.3-0.1-3.5C400.4,356.2,400.4,355.9,400.3,355.5z M415.5,335.1c-0.1-0.3-0.1-0.6-0.2-0.9c-0.1-0.7-0.2-1.3-0.3-2
				c-0.1-0.8-0.2-1.5-0.4-2.3c0-0.1,0-0.3,0-0.4c-0.1-0.6-0.3-1.2-0.4-1.8c-0.2-0.9-0.3-1.9-0.4-2.9c-0.1-0.8-0.3-1.6-0.3-2.4
				c-0.1-0.6-0.2-0.7-0.8-0.6c-0.6,0.1-1.2,0.2-1.8,0.3c-1.1,0.1-2.2,0.2-3.3,0.3c-1.2,0.1-2.3,0.3-3.4,0.4c-0.5,0.1-1.1,0-1.6,0.1
				c-1.2,0.2-2.4,0.4-3.6,0.5c-0.6,0.1-1.3,0.1-1.9,0.2c-0.7,0.1-1.4,0.2-2.2,0.3c-0.4,0-0.8,0.1-1.2,0.1c-0.1,0-0.2,0.1-0.3,0.1
				c0.1,0.1,0.1,0.1,0.2,0.1c1.7-0.3,3.4,0.2,4.9,0.8c1.2,0.5,2.5,1.1,3.4,2c0.7,0.6,1.3,1.3,1.8,2.1c0.5,0.7,0.8,1.4,1.2,2.2
				c0.2,0.4,0.4,0.9,0.5,1.4c0.2,0.6,0.3,1.2,0.4,1.8c0,0.1,0.1,0.3,0.2,0.3c0.3,0,0.6,0,1,0c0.4,0,0.8-0.2,1.2-0.1
				c1.5,0,2.9-0.1,4.4,0.2C413.7,334.9,414.6,335,415.5,335.1z M363.8,443.7c0,0,0-0.1-0.1-0.1c-1,0-2.1,0-3.1,0c-1.5,0-3.1,0-4.6,0
				c-0.3,0-0.6,0-0.4,0.5c0,0.1,0,0.3,0,0.4c0,0.7-0.1,1.3-0.1,2c0,0.8,0.1,1.6,0.1,2.4c0,1.4,0,2.8,0.1,4.2c0.1,2.3,0,4.7,0,7
				c0,1.1,0,2.1,0,3.2c0.2-0.5,0.4-1.1,0.7-1.5c0.4-0.5,0.8-1.1,1.4-1.4c0.8-0.4,1.7-0.7,2.6-1c0.7-0.2,1.1-0.6,1.2-1.3
				c0.1-0.7,0.2-1.4,0.4-2c0.3-0.9,0.6-1.8,0.9-2.7c0.3-0.8,0.6-1.6,0.9-2.4c0.1-0.5,0.3-1,0.3-1.4c0-0.4-0.4-0.7-0.5-1.1
				c-0.4-0.9-0.7-1.9-1-2.8c-0.2-0.5-0.1-0.7,0.4-1.1C363.2,444.3,363.5,444,363.8,443.7z M421.9,443.9c0,0.1-0.1,0.1-0.1,0.2
				c0.2,0.1,0.4,0.2,0.5,0.4c0.3,0.2,0.6,0.5,0.8,0.7c0.6,0.4,0.9,1.1,0.6,1.8c-0.3,0.8-0.5,1.7-0.9,2.5c-0.2,0.5-0.3,0.9-0.1,1.4
				c0.4,0.9,0.7,1.7,1,2.6c0.3,0.9,0.6,1.8,0.9,2.6c0.3,0.9,0.5,1.8,0.7,2.6c0.1,0.5,0.6,0.9,1,1.1c0.4,0.2,0.8,0.2,1.3,0.3
				c1,0.2,1.9,0.4,2.6,1.2c0.1,0.1,0.3,0.1,0.3,0.1c0.1-0.1,0.2-0.2,0.2-0.4c0-0.8,0.1-1.6,0.1-2.3c0-0.5,0.1-1,0-1.5
				c-0.3-0.9,0-1.8-0.1-2.7c-0.1-0.9,0-1.8,0-2.7c0-1.1,0-2.2,0-3.3c0-1.4-0.1-2.7-0.1-4.1c0-0.3-0.1-0.4-0.4-0.4
				c-0.2,0-0.5,0.1-0.7,0c-0.6,0-1.1-0.1-1.7-0.1c-1.6,0-3.2,0-4.8,0C422.7,443.9,422.3,443.9,421.9,443.9z M426.8,312.8
				c-0.1-0.6,0.1-1.1-0.4-1.3c-0.5-0.2-1-0.3-1.5-0.3c-0.9-0.2-1.8-0.3-2.8-0.4c-1.2-0.2-2.4-0.3-3.5-0.4c-0.8-0.1-1.6-0.1-2.4-0.2
				c-1.1-0.1-2.2-0.2-3.3-0.2c-1.2,0-2.4,0-3.5,0c-0.4,0-0.9-0.1-1.3-0.1c-0.9,0-1.8,0.1-2.7,0.1c-1.9,0.1-3.7,0.1-5.6,0.2
				c-1.6,0.1-3.2,0.2-4.8,0.3c-1.2,0.1-2.4,0.2-3.7,0.3c-1.4,0.2-2.7,0.4-4.1,0.6c-1.1,0.2-2.2,0.3-3.3,0.5
				c-1.4,0.2-2.9,0.4-4.3,0.7c-0.6,0.1-1.1,0.2-1.7,0.3c-0.7,0.1-1.3,0.2-2,0.4c-1,0.2-1.9,0.5-2.9,0.7c-0.8,0.2-1.6,0.3-2.4,0.5
				c-1.6,0.4-3.2,0.8-4.8,1.3c-0.6,0.2-1.2,0.2-1.8,0.4c-1,0.3-1.9,0.6-2.9,0.9c-1.6,0.6-3.1,1.2-4.6,1.8c-1.4,0.6-2.8,1.2-4.3,1.8
				c-0.9,0.4-1.1,1-0.5,1.8c0.8-0.4,1.5-0.7,2.3-1.1c1.5-0.6,3-1.2,4.5-1.8c1.1-0.5,2.3-0.9,3.5-1.3c1.2-0.4,2.5-0.7,3.7-1.1
				c1.2-0.3,2.5-0.7,3.7-1c1.3-0.3,2.6-0.6,4-0.9c0.8-0.2,1.5-0.4,2.3-0.6c1.3-0.3,2.6-0.5,3.8-0.8c0.4-0.1,0.8-0.1,1.2-0.2
				c1-0.1,1.9-0.2,2.9-0.4c1-0.2,2-0.4,3-0.6c1.2-0.2,2.4-0.3,3.6-0.4c1.7-0.2,3.4-0.4,5.1-0.6c0.9-0.1,1.8-0.1,2.7-0.2
				c1.2-0.1,2.5-0.1,3.7-0.2c1.4,0,2.7-0.1,4.1-0.1c2.1,0,4.3,0,6.4,0c0.9,0,1.9,0,2.8,0.1c1.4,0.1,2.7,0.2,4.1,0.4
				c0.8,0.1,1.6,0.1,2.3,0.2c0.9,0.1,1.8,0.3,2.7,0.5c0.4,0.1,0.8,0.1,1.3,0.2C426,312.6,426.3,312.7,426.8,312.8z M426.4,310.8
				c0.1-1,0-1.2-1-1.4c-0.7-0.2-1.5-0.2-2.2-0.4c-1.5-0.3-3-0.5-4.6-0.6c-1,0-2-0.3-3.1-0.3c-1.9-0.1-3.8-0.2-5.7-0.2
				c-0.6,0-1.2,0.1-1.7,0.1c-0.7,0-1.3-0.1-2-0.1c-0.4,0-0.7,0.2-1.1,0.2c-0.9,0-1.7-0.1-2.6-0.1c-1,0-1.9,0.1-2.9,0.2
				c-0.9,0-1.9,0-2.8,0.2c-1.3,0.2-2.5,0.2-3.8,0.2c-0.8,0-1.5,0.1-2.3,0.2c-1,0.1-2.1,0.3-3.1,0.5c-0.9,0.1-1.8,0.2-2.7,0.4
				c-0.7,0.1-1.4,0.2-2.1,0.3c-1,0.1-1.9,0.3-2.9,0.4c-0.8,0.1-1.7,0.4-2.5,0.5c-1.2,0.2-2.3,0.4-3.5,0.7c-0.8,0.2-1.6,0.3-2.5,0.5
				c-0.8,0.2-1.6,0.3-2.4,0.5c-0.9,0.2-1.9,0.6-2.8,0.8c-0.8,0.2-1.6,0.4-2.4,0.6c-0.2,0.1-0.5,0.2-0.7,0.3
				c-1.3,0.4-2.5,0.8-3.8,1.3c-0.7,0.2-1.4,0.4-2.1,0.7c-1,0.4-1.9,0.9-2.9,1.3c-0.9,0.4-1.9,0.9-2.8,1.4c-0.4,0.2-0.5,0.9-0.3,1.2
				c0.1,0.1,0.2,0.1,0.3,0.1c0.5-0.2,1.1-0.5,1.6-0.7c1-0.4,1.9-0.9,2.9-1.3c1.4-0.5,2.7-1,4.1-1.5c1.2-0.4,2.5-0.9,3.7-1.3
				c0.7-0.2,1.3-0.3,2-0.5c1-0.3,2.1-0.6,3.1-0.8c1.1-0.3,2.2-0.5,3.3-0.7c0.6-0.1,1.2-0.3,1.8-0.4c1.1-0.2,2.3-0.5,3.4-0.7
				c0.8-0.2,1.6-0.3,2.3-0.4c1-0.2,2-0.3,2.9-0.5c1.2-0.2,2.5-0.4,3.7-0.5c0.6-0.1,1.3-0.2,1.9-0.3c0.7-0.1,1.4-0.2,2.1-0.3
				c0.9-0.1,1.7-0.1,2.6-0.2c0.6-0.1,1.2-0.1,1.8-0.2c0.9-0.1,1.7-0.1,2.6-0.1c1.4-0.1,2.8-0.2,4.2-0.3c0.9,0,1.8,0,2.7,0
				c1,0,2-0.1,2.9-0.1c1.7,0,3.3,0,5,0.1c0.5,0,1,0,1.5,0c1.5,0.1,3,0.2,4.4,0.3c1.2,0.1,2.5,0.2,3.7,0.4
				C423.4,310.2,424.9,310.5,426.4,310.8z M353.3,323.9c0,0.4,0,0.6,0.1,0.8c0,0.2,0.1,0.4,0.4,0.2c0.6-0.2,1.2-0.4,1.8-0.6
				c0.8-0.3,1.7-0.7,2.5-0.9c1.4-0.5,2.9-0.9,4.3-1.3c1.1-0.3,2.1-0.5,3.2-0.8c1.4-0.4,2.8-0.8,4.2-1.1c1.5-0.3,3-0.6,4.5-0.9
				c0.9-0.2,1.9-0.4,2.8-0.6c1-0.2,2.1-0.5,3.1-0.7c0.6-0.1,1.3-0.2,1.9-0.3c1-0.1,1.9-0.3,2.9-0.4c0.7-0.1,1.4-0.3,2-0.3
				c1-0.1,2-0.2,3-0.3c0.9-0.1,1.7-0.3,2.6-0.4c0.8-0.1,1.5-0.1,2.3-0.2c0.9-0.1,1.9-0.3,2.8-0.4c2-0.2,4,0,6-0.4
				c1.2-0.2,2.4-0.1,3.6-0.1c0.4,0,0.7-0.1,1.1-0.1c1,0,2.1,0.1,3.1,0c1,0,2-0.1,3-0.1c0.2,0,0.4,0.1,0.7,0.1c0.7,0,1.3-0.1,2-0.1
				c1.2,0.1,2.5,0.3,3.7,0.4c1.5,0.1,3,0.2,4.5,0.3c0.7,0,0.7,0,0.7-0.7c0-0.2-0.1-0.4-0.2-0.4c-0.2-0.1-0.4-0.1-0.6-0.1
				c-1.1-0.1-2.1-0.3-3.2-0.4c-1.4-0.1-2.8-0.3-4.2-0.4c-0.9,0-1.8,0-2.7,0c-1.7,0-3.3,0-5,0c-0.5,0-1,0-1.6,0
				c-0.3,0-0.5,0.1-0.8,0.1c-0.2,0-0.4,0.1-0.6,0.1c-0.7,0-1.4,0-2.1,0c-1.7,0.1-3.4,0.2-5.1,0.3c-0.5,0-1,0-1.5,0
				c-1,0.1-2,0.2-3.1,0.3c-1,0.1-2,0.2-3,0.3c-1.1,0.2-2.2,0.4-3.3,0.6c-0.6,0.1-1.3,0.1-1.9,0.2c-0.6,0.1-1.1,0.1-1.7,0.1
				c-0.8,0.1-1.6,0.3-2.4,0.4c-0.8,0.1-1.6,0.2-2.4,0.3c-1.1,0.2-2.3,0.4-3.4,0.7c-1.9,0.4-3.8,0.8-5.7,1.2
				c-1.1,0.3-2.3,0.6-3.4,0.9c-0.6,0.2-1.2,0.3-1.8,0.5c-1.1,0.3-2.1,0.5-3.2,0.7c-0.8,0.2-1.6,0.5-2.4,0.8c-1,0.3-2,0.6-3,0.9
				c-0.6,0.2-1.2,0.4-1.7,0.6C355.1,323.2,354.1,323.5,353.3,323.9z M426.8,313.6c-0.7-0.1-1.5-0.2-2.2-0.4
				c-0.7-0.1-1.4-0.3-2.1-0.4c-1.1-0.2-2.3-0.3-3.4-0.4c-1.5-0.1-2.9-0.3-4.4-0.4c-0.7-0.1-1.5-0.1-2.2-0.1c-1.1,0-2.1,0.1-3.2,0.1
				c-0.6,0-1.1-0.1-1.7-0.1c-0.9,0-1.7,0.1-2.6,0.1c-0.8,0-1.6,0.1-2.3,0.1c-1.5,0.1-3.1,0.1-4.6,0.2c-0.4,0-0.8,0-1.2,0
				c-1.3,0.1-2.5,0.3-3.8,0.4c-0.8,0.1-1.6,0.1-2.3,0.2c-1.4,0.2-2.8,0.5-4.3,0.7c-1.4,0.2-2.7,0.3-4.1,0.5c-1.7,0.3-3.3,0.6-5,1
				c-0.5,0.1-1,0.2-1.5,0.3c-0.5,0.1-0.9,0.3-1.4,0.4c-0.3,0.1-0.7,0.1-1,0.1c-1.3,0.3-2.6,0.6-3.8,0.9c-1.8,0.5-3.5,0.9-5.3,1.4
				c-1.5,0.4-2.9,0.9-4.3,1.5c-1.6,0.6-3.1,1.2-4.6,1.9c-1.1,0.5-2.2,1-3.3,1.5c-0.1,0.1-0.2,0.2-0.3,0.3c0.2,0,0.3,0.2,0.5,0.1
				c0.3-0.1,0.5-0.2,0.8-0.3c1.3-0.5,2.7-0.9,4-1.4c0.8-0.3,1.7-0.7,2.5-0.9c1-0.3,2.1-0.5,3.2-0.8c1.7-0.4,3.3-0.9,5-1.3
				c1.3-0.3,2.6-0.6,3.8-1c0.6-0.1,1.2-0.3,1.8-0.4c0.9-0.2,1.8-0.4,2.7-0.6c0.3-0.1,0.6-0.2,0.9-0.2c0.7-0.1,1.4-0.2,2.1-0.3
				c1-0.2,2-0.4,3.1-0.5c0.6-0.1,1.2-0.1,1.7-0.2c0.6-0.1,1.1-0.3,1.7-0.4c0.6-0.1,1.2-0.1,1.8-0.2c1.1-0.1,2.2-0.3,3.2-0.5
				c0.5-0.1,1.1-0.1,1.6-0.1c0.9-0.1,1.9-0.3,2.8-0.4c0.9-0.1,1.9-0.1,2.9-0.2c0.1,0,0.1,0,0.2-0.1c0.9-0.1,1.7-0.2,2.6-0.2
				c0.7,0,1.5,0,2.2,0c0.7,0,1.4-0.1,2.1-0.1c1.1,0,2.2-0.1,3.3-0.1c1,0,2.1-0.1,3.1-0.1c0.9,0,1.9,0.1,2.8,0.1c1,0,2.1,0,3.1,0.1
				c1.7,0.1,3.5,0.2,5.2,0.3c1.2,0.1,2.4,0.3,3.7,0.5C426.8,314.2,426.8,314,426.8,313.6z M426,308.8c0.1-0.6-0.2-1.1-0.6-1.1
				c-1.4-0.3-2.8-0.5-4.2-0.8c-0.6-0.1-1.2-0.1-1.8-0.2c-1-0.1-2-0.2-3.1-0.4c-0.4,0-0.9-0.1-1.3-0.1c-1.2,0-2.4-0.1-3.6-0.1
				c-0.7,0-1.4,0-2,0c-0.6,0-1.2-0.1-1.8-0.1c-0.8,0-1.6,0.1-2.4,0.1c-0.7,0-1.4-0.1-2.1-0.1c-1.4,0-2.8,0.1-4.3,0.2
				c-0.4,0-0.8,0.1-1.2,0.1c-0.5,0-1.1,0-1.6,0.1c-1.6,0.1-3.2,0.3-4.8,0.5c-0.6,0.1-1.1,0.1-1.6,0.2c-0.6,0.1-1.2,0.2-1.9,0.3
				c-1.1,0.2-2.2,0.3-3.3,0.4c-1,0.1-2.1,0.3-3.1,0.5c-1,0.2-2,0.3-3,0.5c-0.9,0.2-1.9,0.4-2.8,0.6c-1.8,0.4-3.6,0.8-5.4,1.2
				c-1.8,0.4-3.6,0.9-5.3,1.3c-0.9,0.2-1.7,0.4-2.5,0.7c-0.9,0.3-1.8,0.7-2.7,1c-0.3,0.1-0.7,0.3-1,0.4c-0.9,0.3-1.7,0.6-2.6,1
				c-0.7,0.3-1.3,0.6-2,0.9c-0.2,0.1-0.4,0.1-0.7,0.2c-0.6,0.3-1.1,0.5-1.7,0.8c-0.7,0.3-0.9,0.9-0.5,1.5c0.6-0.3,1.2-0.7,1.8-0.9
				c1.4-0.6,2.8-1.2,4.2-1.8c0.2-0.1,0.4,0,0.6-0.1c0.5-0.2,1.1-0.5,1.6-0.7c1.2-0.4,2.3-0.8,3.5-1.2c0.7-0.2,1.5-0.4,2.3-0.6
				c0.8-0.2,1.6-0.5,2.5-0.7c1.6-0.4,3.2-0.7,4.7-1.1c0.6-0.1,1.3-0.4,1.9-0.5c1.6-0.3,3.2-0.5,4.8-0.8c1.4-0.2,2.8-0.5,4.3-0.7
				c0.9-0.1,1.7-0.3,2.6-0.4c1.3-0.2,2.5-0.3,3.8-0.5c0.8-0.1,1.6-0.1,2.4-0.2c1.5-0.1,2.9-0.3,4.4-0.4c0.6,0,1.1-0.1,1.7-0.1
				c0.5,0,1.1-0.1,1.6-0.2c0.7,0,1.4,0,2.1,0c1,0,2-0.1,3.1-0.1c1.2,0,2.4-0.1,3.7-0.1c0.4,0,0.8,0.1,1.2,0.1c0.6,0,1.2-0.1,1.8-0.1
				c0.8,0,1.5,0.1,2.3,0.1c0.8,0,1.5,0.1,2.3,0.1c0.2,0,0.5,0.1,0.7,0.1c0.5,0,1,0,1.5,0.1c0.8,0.1,1.6,0.2,2.4,0.3
				c0.6,0.1,1.3,0.1,1.9,0.2c0.3,0.1,0.7,0.2,1,0.2C424.5,308.5,425.3,308.7,426,308.8z M423.8,305.7c-0.4-0.1-0.9-0.2-1.3-0.2
				c-0.6-0.1-1.3-0.3-1.9-0.3c-1.6-0.2-3.3-0.3-4.9-0.4c-0.1,0-0.3-0.1-0.4-0.1c-0.9,0-1.7-0.1-2.6-0.1c-0.5,0-1,0-1.5,0
				c-0.5,0-1,0.1-1.5,0.1c-1.2-0.1-2.3-0.3-3.4,0c-0.1,0-0.2,0-0.2,0c-0.4,0-0.7-0.1-1.1-0.1c-2.1,0.1-4.2,0.1-6.3,0.2
				c-0.4,0-0.8,0-1.2,0c-1,0.1-1.9,0.2-2.9,0.3c-1.1,0.1-2.2,0.1-3.3,0.2c-0.7,0-1.3,0.1-2,0.2c-0.8,0.1-1.7,0.3-2.5,0.4
				c-0.8,0.1-1.7,0.2-2.5,0.3c-1,0.1-1.9,0.3-2.8,0.5c-0.3,0.1-0.6,0.1-1,0.2c-0.5,0.1-1.1,0.1-1.6,0.2c-0.8,0.2-1.6,0.4-2.4,0.5
				c-1.4,0.3-2.8,0.5-4.2,0.8c-1.4,0.3-2.8,0.6-4.2,0.9c-1.8,0.5-3.7,1-5.5,1.5c-1.1,0.3-2.1,0.7-3.2,1.1c-0.6,0.2-1.3,0.4-1.9,0.7
				c-1.7,0.7-3.3,1.5-5,2.2c-0.6,0.2-0.7,0.6-0.4,1.1c0.1,0,0.3,0,0.4-0.1c0.7-0.3,1.4-0.7,2.1-1c1.3-0.5,2.5-1,3.8-1.5
				c1.1-0.4,2.2-0.8,3.2-1.2c0.8-0.3,1.7-0.6,2.5-0.9c0.8-0.2,1.6-0.3,2.4-0.5c1.1-0.3,2.3-0.6,3.4-0.8c1-0.2,2-0.5,3-0.7
				c1-0.2,2.1-0.4,3.1-0.6c0.9-0.2,1.8-0.3,2.7-0.5c0.9-0.2,1.8-0.3,2.7-0.5c0.5-0.1,1-0.2,1.4-0.3c1.1-0.1,2.2-0.3,3.3-0.4
				c1.4-0.2,2.7-0.4,4.1-0.6c1.2-0.1,2.4-0.2,3.6-0.3c0.9-0.1,1.8-0.2,2.6-0.3c1.5-0.1,3.1-0.1,4.6-0.2c1,0,2-0.2,3-0.2
				c1.3,0,2.6,0.1,3.9,0.1c1.7,0,3.4,0.1,5.1,0.1c1.4,0,2.8,0.1,4.2,0.2c0.8,0.1,1.5,0.2,2.3,0.3c0.4,0.1,0.8,0.1,1.2,0.2
				c0.7,0.1,1.3,0.2,2,0.3c0.4,0,0.7,0.1,1.1,0.1C423.9,306.3,423.9,306.1,423.8,305.7z M370.2,326.1c13.4-1.6,26.8-3.2,40.2-4.8
				c-0.2,0-0.5-0.1-0.7-0.1c-0.9-0.1-1.8-0.1-2.7-0.2c-1.3-0.1-2.7-0.2-4-0.2c-1.1,0-2.3,0.1-3.4,0.1c-0.8,0-1.6,0-2.4,0.1
				c-1.1,0-2.2,0.1-3.3,0.2c-1.2,0.1-2.4,0.3-3.7,0.5c-0.9,0.1-1.7,0.2-2.6,0.4c-1,0.2-2.1,0.3-3.1,0.5c-0.7,0.1-1.4,0.2-2.1,0.4
				c-0.5,0.1-1.1,0.2-1.6,0.3c-0.6,0.1-1.2,0.2-1.8,0.4c-0.9,0.2-1.7,0.4-2.5,0.7c-1.1,0.3-2.2,0.6-3.3,1
				C372.1,325.4,371.2,325.8,370.2,326.1z M431.2,485.9c-0.2,0-0.4-0.1-0.7-0.1c-0.7,0-1.3,0-2,0c-0.9,0-1.8-0.1-2.8-0.1
				c-0.2,0-0.5,0.1-0.5,0.3c-0.1,0.4-0.1,0.8,0,1.2c0,1,0.1,1.9,0.1,2.9c0,1.1,0,2.2,0,3.4c0.9,0.1,1.9,0.1,2.8,0.2
				c0.9,0,1.9-0.1,2.8-0.1c0.4,0,0.4-0.1,0.4-0.5c0-0.7,0-1.4,0-2.2c0-0.7-0.1-1.5-0.1-2.2c0-0.3-0.1-0.7-0.1-1
				C431.4,487.2,431.6,486.6,431.2,485.9z M355.9,493.3c0.8,0,1.4,0,2,0c1.2,0,2.4,0,3.6,0c0.4,0,0.5-0.1,0.5-0.5c0-1.3,0-2.6,0-3.9
				c0-0.8,0-1.6,0-2.4c0-0.3,0-0.7-0.3-0.7c-0.3-0.1-0.6,0-1,0c-0.4,0-0.9,0.1-1.3,0.1c-1.1,0-2.2-0.1-3.5-0.1
				C355.9,488.3,355.9,490.7,355.9,493.3z M356.1,440.2c0,0.8,0,1.6,0,2.4c0,0.3,0.1,0.4,0.5,0.4c1.6,0,3.3,0,4.9,0
				c0.3,0,0.4-0.1,0.4-0.4c0-0.7,0-1.3,0-2c0-0.3-0.1-0.4-0.4-0.4C359.7,440.2,358,440.2,356.1,440.2z M424.4,443.2c1,0,2,0,2.9,0
				c0.6,0,1.1,0.1,1.7,0.1c0.6,0,0.6-0.1,0.6-0.6c0-0.6,0-1.1,0-1.7c0-0.5-0.2-0.6-0.6-0.6c-0.9,0-1.7,0.1-2.6,0.1
				c-0.5,0-1.1,0-1.6,0c-0.3,0-0.7,0-0.7,0.5C424.3,441.8,424.3,442.5,424.4,443.2z M423.6,440.5c0,0-0.1,0-0.1,0
				c-0.4,0.5-0.8,1.1-1.2,1.5c-0.5,0.4-1.1,0.7-1.7,1.1c1.1,0.4,2.1,0.1,3.1,0.2C423.6,442.3,423.6,441.4,423.6,440.5z"/>
			<path class="st6" d="M438.1,430.2c0.4,0,0.7,0,1,0c0.9,0,1.5,0.8,1.3,1.6c-0.1,0.3-0.3,0.5-0.5,0.7c-0.7,0.6-2,0.1-2.5-0.7
				c-0.3-0.6-0.3-1.3-0.1-1.9c0.2-0.5,0.6-1,1.3-1.2c0.6-0.1,1.1,0.1,1.5,0.5c0.1,0.1,0.2,0.4,0.1,0.6c-0.1,0.2-0.3,0.2-0.6,0
				C438.9,429.4,438.6,429.5,438.1,430.2z M438.8,430.9c-0.2,0.1-0.3,0.1-0.4,0.1c-0.1,0.1-0.3,0.1-0.3,0.2c0,0.2,0.1,0.3,0.2,0.5
				c0.3,0.3,0.6,0.2,1,0.1c0.1,0,0.2-0.1,0.3-0.2c0-0.1,0-0.3-0.1-0.4C439.2,431.1,439,431,438.8,430.9z"/>
			<path class="st6" d="M439.7,333.7c-0.1-0.6,0-1,0.4-1.4c0.6-0.7,1.9-0.7,2.4,0.1c0.6,0.9,0.6,2.2,0,3.1c-0.4,0.6-1.7,0.7-2.2,0.1
				C439.9,334.9,439.5,334.4,439.7,333.7z M440.5,333.9C440.5,333.9,440.5,333.9,440.5,333.9c0.1,0.1,0,0.2,0.1,0.3
				c0.2,0.3,0.4,0.6,0.7,0.8c0.1,0.1,0.6-0.1,0.7-0.3c0.3-0.5,0.4-1.3-0.1-1.9c-0.3-0.3-0.8-0.3-1,0.1
				C440.7,333.2,440.6,333.6,440.5,333.9z"/>
			<path class="st6" d="M451.1,353.6c-0.7-0.4-0.7-0.9-0.1-1.4c0.6-0.5,1.2-0.5,1.8-0.2c0.7,0.3,0.9,1.4,0.3,1.9
				c-0.4,0.4-0.9,0.7-1.5,1c0.2,0.1,0.3,0.1,0.4,0.1c0.3,0,0.7,0,1,0c0.3,0,0.5,0.1,0.6,0.4c0,0.4-0.3,0.4-0.5,0.4
				c-0.6,0-1.3,0.1-1.9,0.1c-0.5,0-0.8-0.6-0.5-1.1c0.3-0.4,0.7-0.8,1.1-1.1c0.1-0.1,0.4-0.2,0.5-0.3c0.1-0.1,0.2-0.4,0.2-0.6
				c-0.2-0.1-0.5-0.2-0.7-0.1c-0.1,0-0.3,0.2-0.4,0.4C451.3,353.3,451.2,353.4,451.1,353.6z"/>
			<path class="st6" d="M430.2,401.5c-0.3,0-0.7,0-1-0.1c-0.3,0-0.6-0.1-0.7-0.3c-0.2-0.3-0.2-0.7,0.1-1c0.3-0.4,0.7-0.7,1-1.1
				c0.3-0.4,0.8-0.4,1.2-0.3c0.1,0,0.2,0.1,0.2,0.2c0,0.1,0,0.2,0,0.2c0,0.6-0.3,1.4,0.5,1.7c-0.2,0.4-0.4,0.8-0.5,1.2
				c-0.1,0.4-0.4,0.4-0.7,0.3c-0.1,0-0.2-0.3-0.2-0.5C430.2,401.7,430.2,401.6,430.2,401.5z M429.4,400.5c0.2,0.3,0.5,0.2,0.7,0
				c0.2-0.2,0.2-0.5-0.1-0.7C429.8,400.1,429.6,400.3,429.4,400.5z"/>
			<path class="st6" d="M449,354.6c0-0.6,0-1.3,0-1.9c0-0.3,0.1-0.7,0.5-0.7c0.4,0,0.5,0.3,0.5,0.7c0,0.9-0.1,1.7-0.1,2.6
				c0,0,0,0.1,0,0.1c0.2,0.3,0.1,0.6-0.3,0.6c-0.4,0.1-0.5-0.3-0.6-0.6C448.9,355.1,449,354.8,449,354.6z"/>
			<path class="st6" d="M439.3,332.8c0,0.8,0,1.6,0,2.3c0,0.3,0,0.7-0.5,0.7c-0.3,0-0.6-0.4-0.6-0.8c0-0.7,0-1.5,0-2.2
				c0-0.1,0-0.2,0-0.2c0.2-0.2,0.4-0.5,0.6-0.7c0.2,0.2,0.3,0.4,0.5,0.6C439.3,332.6,439.3,332.7,439.3,332.8
				C439.3,332.8,439.3,332.8,439.3,332.8z"/>
			<path class="st6" d="M436.3,430.5c0,0.5,0.1,1,0.1,1.6c0,0.4-0.1,0.7-0.5,0.7c-0.4,0-0.5-0.3-0.5-0.6c0-0.9,0-1.7,0-2.6
				c0-0.3,0.2-0.6,0.4-0.6c0.3,0,0.5,0.3,0.5,0.6C436.3,429.8,436.3,430.1,436.3,430.5C436.3,430.5,436.3,430.5,436.3,430.5z"/>
			<path class="st6" d="M427.6,399.6c0,0.6-0.1,1.2-0.1,1.7c0,0.2,0.1,0.3,0.1,0.5c0,0.2-0.2,0.4-0.3,0.6c-0.2-0.1-0.3-0.2-0.5-0.3
				c-0.1-0.1-0.1-0.2-0.1-0.4c0-0.7,0-1.5,0-2.2c0-0.1,0-0.1,0-0.2c0.1-0.3,0.1-0.7,0.6-0.7c0.4,0,0.3,0.4,0.3,0.7
				C427.6,399.4,427.6,399.5,427.6,399.6C427.6,399.6,427.6,399.6,427.6,399.6z"/>
			<path class="st6" d="M423.3,464.2c-0.1,1.3-0.1,2.6-0.3,4c-0.1,1.1-0.4,2.2-0.7,3.3c-0.1,0.6-0.3,1.3-0.5,1.9
				c-0.3,0.8-0.6,1.6-0.9,2.3c-0.4,0.8-0.7,1.6-1.2,2.4c-0.4,0.8-0.9,1.5-1.5,2.2c-0.9,1.2-1.8,2.4-2.8,3.6
				c-0.7,0.8-1.6,1.5-2.5,2.2c-0.5,0.4-0.9,0.8-1.4,1.1c-0.6,0.4-1.1,0.9-1.7,1.3c-0.7,0.5-1.5,1-2.2,1.4c-0.7,0.4-1.4,0.7-2.1,1
				c-0.5,0.2-1,0.4-1.5,0.6c-1.1,0.4-2.2,0.8-3.3,1.1c-0.8,0.2-1.7,0.4-2.6,0.4c-1.6,0.1-3.2,0.3-4.8,0.3c-1.3,0-2.7-0.2-4-0.3
				c-1-0.1-2-0.4-3-0.5c-0.3-0.1-0.5-0.1-0.8-0.2c-1.5-0.4-2.9-0.9-4.3-1.6c-0.6-0.3-1.3-0.6-2-0.9c-1.2-0.5-2.2-1.3-3.2-2.1
				c-1.7-1.3-3.3-2.6-4.8-4.1c-0.5-0.5-0.9-1.1-1.4-1.7c-0.6-0.9-1.2-1.7-1.8-2.6c-0.7-1.3-1.6-2.5-2.1-4c-0.2-0.7-0.5-1.5-0.9-2.2
				c-0.7-1.4-0.9-2.8-1.2-4.3c-0.2-0.7-0.1-1.5-0.2-2.3c-0.1-0.7-0.2-1.4-0.2-2c0.1-1.9,0.1-3.8,0.6-5.7c0.3-1.1,0.5-2.2,0.8-3.3
				c0.2-0.7,0.6-1.3,0.9-1.9c0.3-0.6,0.5-1.3,0.9-1.9c0.7-1.3,1.4-2.6,2.2-3.8c0.8-1.2,1.7-2.3,2.7-3.4c0.4-0.4,0.9-0.8,1.3-1.1
				c0.5-0.4,1-0.8,1.5-1.2c0.9-0.7,1.7-1.3,2.6-2c0.7-0.5,1.4-1,2.1-1.3c0.8-0.4,1.6-0.8,2.4-1.1c0.7-0.3,1.5-0.6,2.3-0.8
				c1.1-0.4,2.2-0.7,3.4-0.8c1-0.1,1.9-0.4,2.9-0.5c0.7-0.1,1.4-0.1,2.1-0.1c0.6,0,1.1-0.1,1.7-0.1c1.2,0.1,2.4,0.2,3.6,0.4
				c1.1,0.2,2.2,0.3,3.3,0.6c0.8,0.2,1.6,0.5,2.4,0.8c1.2,0.5,2.4,1,3.6,1.5c0.3,0.1,0.5,0.4,0.7,0.6c0.8,0.5,1.7,1.1,2.5,1.6
				c0.9,0.6,1.7,1.2,2.5,1.8c1.2,0.9,2.2,1.9,3.2,3c1.2,1.4,2.4,2.9,3.4,4.5c0.9,1.5,1.6,3.1,2.3,4.7c0.3,0.7,0.6,1.4,0.8,2.2
				c0.3,1.1,0.4,2.2,0.6,3.3c0.1,0.6,0.2,1.2,0.3,1.8C423.2,462.6,423.3,463.4,423.3,464.2z M364.6,466.2c0,0-0.1,0-0.1,0
				c0.1,0.7,0.2,1.4,0.3,2.1c0.2,0.9,0.4,1.8,0.6,2.7c0.3,1.1,0.7,2.3,1.2,3.4c0.5,1.1,0.9,2.2,1.7,3.2c0.8,1.1,1.4,2.4,2.2,3.5
				c0.9,1.1,1.9,2.2,2.9,3.2c0.4,0.4,0.9,0.8,1.3,1.2c0.8,0.6,1.7,1.1,2.5,1.8c1.1,1,2.4,1.7,3.7,2.3c1.6,0.8,3.3,1.5,5.1,1.9
				c1.1,0.3,2.2,0.5,3.4,0.7c0.8,0.1,1.7,0.2,2.5,0.3c0.7,0.1,1.5,0.1,2.3,0.1c0.5,0,1,0,1.6,0c0.5,0,0.9-0.1,1.4-0.2
				c1-0.2,2.1-0.3,3.1-0.5c1-0.2,2.1-0.6,3.1-0.9c1.1-0.4,2.2-0.8,3.2-1.2c1.1-0.5,2.1-1.2,3.1-1.9c0.9-0.7,1.9-1.3,2.8-2
				c0.8-0.7,1.6-1.4,2.4-2.2c1-1.1,2-2.1,2.8-3.3c0.8-1.1,1.4-2.2,2-3.4c0.9-1.5,1.5-3.2,2-4.9c0.4-1.4,0.8-2.8,0.8-4.3
				c0-0.7,0.1-1.4,0.2-2.1c0-1,0-2,0-3c0-0.1-0.1-0.3-0.1-0.4c0-0.5,0.1-1.1-0.1-1.6c-0.2-0.9-0.3-1.8-0.6-2.7
				c-0.3-1.3-0.6-2.5-1.1-3.7c-0.7-1.7-1.6-3.4-2.6-4.9c-0.5-0.7-1-1.4-1.5-2c-0.8-1-1.6-2-2.6-3c-0.9-0.8-1.8-1.6-2.8-2.3
				c-1.3-0.9-2.6-1.7-3.9-2.5c-0.4-0.3-0.9-0.5-1.4-0.7c-0.4-0.2-0.8-0.4-1.2-0.6c-0.5-0.2-1-0.5-1.6-0.6c-1.2-0.4-2.3-0.7-3.5-1
				c-0.9-0.2-1.9-0.4-2.8-0.5c-1.3-0.1-2.5-0.2-3.8-0.3c-0.7,0-1.5,0-2.2,0.1c-1.4,0.2-2.8,0.4-4.3,0.7c-1.1,0.2-2.3,0.6-3.4,1
				c-1.1,0.4-2.1,0.9-3.1,1.4c-0.5,0.2-1,0.4-1.4,0.7c-0.9,0.6-1.8,1.2-2.8,1.9c-0.8,0.6-1.6,1.2-2.4,1.8c-1.3,1-2.4,2.2-3.3,3.5
				c-1.1,1.5-2.1,3.1-2.9,4.8c-0.4,0.9-1,1.9-1.3,2.8c-0.4,1.1-0.7,2.2-1,3.3c-0.1,0.6-0.3,1.2-0.4,1.9c-0.1,0.7-0.2,1.4-0.3,2.1
				c0,0.5-0.1,1-0.1,1.5c0,0.5-0.1,1,0,1.5C364.4,465.3,364.5,465.8,364.6,466.2z"/>
			<path class="st6" d="M394.9,491.6c-0.9,0-1.8,0.1-2.7,0c-1.2-0.1-2.4-0.3-3.6-0.4c-0.7-0.1-1.4-0.2-2.1-0.4
				c-1-0.3-1.9-0.6-2.8-0.9c-0.8-0.3-1.7-0.7-2.5-1c-0.5-0.2-1-0.6-1.5-0.9c-0.6-0.4-1.2-0.8-1.7-1.2c-1.3-0.9-2.7-1.7-3.7-2.9
				c-1-1.1-2.1-2.2-3-3.3c-1.2-1.5-2.2-3.1-2.9-4.8c-0.3-0.8-0.8-1.5-1.1-2.2c-0.3-0.7-0.5-1.5-0.7-2.3c-0.1-0.5-0.3-0.9-0.4-1.4
				c-0.2-0.8-0.3-1.6-0.5-2.5c-0.1-0.8-0.2-1.6-0.3-2.5c0-0.6,0.1-1.3,0.1-1.9c0-0.1,0-0.3,0-0.4c0-0.7,0-1.3,0.1-2
				c0.1-0.8,0.3-1.7,0.5-2.5c0.3-1.3,0.6-2.6,1.2-3.9c0.7-1.6,1.3-3.2,2.3-4.7c0.4-0.5,0.7-1.1,1.1-1.6c0.8-1,1.7-2.1,2.6-3
				c0.9-0.9,1.9-1.8,2.9-2.5c1.5-1,3-1.9,4.6-2.8c0.5-0.3,1.1-0.4,1.6-0.7c1.4-0.8,2.9-1.2,4.4-1.5c1.2-0.3,2.4-0.5,3.6-0.6
				c1-0.1,2-0.2,3-0.2c1.1,0,2.2,0.1,3.3,0.3c0.9,0.1,1.8,0.2,2.7,0.4c0.9,0.2,1.8,0.5,2.6,0.7c0.2,0.1,0.5,0.1,0.7,0.2
				c1.5,0.7,3.1,1.4,4.6,2.1c0.4,0.2,0.8,0.5,1.2,0.8c0.8,0.5,1.6,1.1,2.4,1.6c0.7,0.5,1.3,1,1.9,1.5c0.8,0.8,1.6,1.6,2.4,2.5
				c0.7,0.8,1.3,1.8,2,2.7c0.5,0.7,1,1.5,1.4,2.3c0.4,0.6,0.6,1.3,0.9,2c0.4,0.8,0.7,1.6,1,2.4c0.2,0.6,0.3,1.1,0.5,1.7
				c0.2,0.9,0.4,1.7,0.6,2.6c0.1,0.4,0.1,0.9,0.1,1.3c0,0.9,0.1,1.8,0.1,2.7c0,1.1,0.2,2.2-0.3,3.2c0.3,0.7-0.2,1.3-0.2,2
				c-0.1,0.8-0.4,1.6-0.6,2.4c-0.4,1.3-0.9,2.6-1.6,3.8c-0.4,0.8-0.8,1.6-1.2,2.4c-0.5,0.8-1.1,1.6-1.7,2.4
				c-0.6,0.7-1.3,1.4-1.8,2.1c-1,1.3-2.2,2.2-3.5,3.1c-0.9,0.6-1.9,1.1-2.7,1.8c-1.1,0.9-2.4,1.5-3.8,2c-1.1,0.4-2.2,0.8-3.4,1.2
				c-0.6,0.2-1.2,0.3-1.8,0.4c-0.4,0.1-0.9,0.1-1.3,0.2C396.8,491.5,395.9,491.6,394.9,491.6C394.9,491.7,394.9,491.7,394.9,491.6z
				 M394.1,491.1c1-0.1,1.8-0.1,2.6-0.2c1.1-0.1,2.2-0.3,3.3-0.5c0.6-0.1,1.1-0.3,1.6-0.5c1.1-0.4,2.2-0.8,3.3-1.2
				c0.8-0.4,1.6-0.8,2.4-1.3c0.2-0.1,0.4-0.3,0.7-0.5c0.5-0.3,0.9-0.8,1.5-1c1-0.5,1.8-1.2,2.7-1.9c0.8-0.7,1.5-1.6,2.2-2.4
				c0.6-0.7,1.2-1.4,1.8-2.2c0.5-0.8,1-1.5,1.5-2.3c0.5-0.8,0.9-1.6,1.2-2.4c0.3-0.6,0.6-1.3,0.8-2c0.3-1,0.6-2,0.8-3
				c0.2-1,0.3-2.1,0.4-3.1c0.1-0.9,0.1-1.8,0.1-2.6c0-1,0-2-0.1-3c-0.1-0.9-0.4-1.9-0.6-2.8c-0.3-1.5-0.8-3-1.5-4.4
				c-0.6-1.2-1.2-2.3-1.9-3.5c-0.3-0.5-0.6-1-0.9-1.4c-0.8-1-1.7-2.1-2.6-3.1c-0.7-0.8-1.5-1.5-2.4-2.2c-1.4-1-2.9-2-4.4-2.9
				c-1.1-0.6-2.3-1.1-3.4-1.5c-0.5-0.2-1.1-0.4-1.7-0.6c-0.5-0.2-1-0.4-1.5-0.6c-0.9-0.2-1.8-0.3-2.7-0.5c-1.1-0.2-2.3-0.4-3.4-0.4
				c-1.1,0-2.2,0.1-3.3,0.2c-1.2,0.1-2.4,0.2-3.6,0.5c-1.2,0.3-2.4,0.7-3.6,1.2c-1.1,0.4-2.1,0.9-3.1,1.5c-1,0.5-1.9,1.1-2.8,1.7
				c-1.1,0.7-2.2,1.5-3.1,2.4c-1.2,1.1-2.2,2.2-3.2,3.5c-1.4,1.8-2.3,3.8-3.2,5.9c-0.8,1.7-1.2,3.6-1.6,5.5c0,0.1,0,0.3,0,0.4
				c0,0.3,0,0.6,0,0.8c-0.1,0.8-0.3,1.6-0.3,2.3c0,1.3-0.1,2.6,0.2,3.8c0.1,0.6,0.1,1.2,0.2,1.8c0.5,1.5,0.7,3.2,1.4,4.6
				c0.7,1.4,1.3,2.8,2,4.2c0.5,1,1.2,1.9,1.9,2.7c0.8,1,1.7,2,2.6,2.9c0.5,0.5,1,1,1.5,1.4c1.2,0.8,2.4,1.6,3.7,2.4
				c0.8,0.5,1.6,1,2.4,1.4c0.4,0.2,0.9,0.4,1.4,0.6c0.7,0.2,1.4,0.5,2.1,0.7c1.2,0.3,2.4,0.6,3.7,0.9c0.6,0.1,1.3,0.1,1.9,0.2
				C392.2,490.9,393.3,491,394.1,491.1z"/>
			<path class="st6" d="M393.9,490.2c-1.4-0.1-2.6-0.1-3.8-0.2c-0.7-0.1-1.3-0.3-1.9-0.4c-0.6-0.1-1.1-0.2-1.7-0.3
				c-0.6-0.2-1.2-0.4-1.7-0.6c-0.6-0.2-1.2-0.4-1.7-0.7c-0.7-0.4-1.4-0.8-2.1-1.2c-0.6-0.3-1.1-0.6-1.7-0.9
				c-1.4-0.7-2.6-1.7-3.7-2.7c-0.6-0.6-1.3-1.2-1.9-1.9c-1.2-1.4-2.5-2.7-3.2-4.4c-0.6-1.3-1.2-2.5-1.8-3.8
				c-0.3-0.7-0.5-1.5-0.7-2.3c-0.1-0.5-0.3-0.9-0.4-1.4c-0.1-0.5-0.2-1.1-0.3-1.6c-0.1-1-0.3-2.1-0.3-3.1c0-1.2,0.1-2.3,0.2-3.5
				c0-0.3,0-0.5,0.1-0.8c0.2-1,0.4-2,0.7-3c0.3-1,0.7-2,1.1-3c0.4-1.1,0.9-2.1,1.5-3.2c0.5-0.8,1-1.6,1.6-2.3c0.8-1,1.6-1.9,2.5-2.8
				c0.6-0.6,1.2-1.2,1.9-1.7c1-0.8,2.1-1.5,3.3-2.2c0.8-0.5,1.7-0.9,2.5-1.3c1.1-0.5,2.1-0.9,3.2-1.3c1-0.3,2.1-0.5,3.1-0.8
				c1.5-0.4,3.1-0.5,4.7-0.5c1,0,2,0.1,3,0.2c1.5,0.2,3,0.4,4.4,0.9c1.3,0.4,2.6,0.8,3.8,1.5c1.2,0.7,2.5,1.3,3.8,2.1
				c1.5,0.9,3,1.9,4.2,3.3c0.9,0.9,1.6,1.9,2.4,2.9c0.4,0.5,0.7,1,1.1,1.5c0.3,0.5,0.7,1,0.9,1.6c0.6,1.2,1.3,2.4,1.7,3.7
				c0.5,1.4,0.8,2.8,1.1,4.3c0.4,1.9,0.3,3.8,0.3,5.8c0,1.3-0.1,2.6-0.5,3.8c-0.3,0.8-0.4,1.7-0.6,2.5c-0.2,0.7-0.5,1.3-0.8,1.9
				c-0.1,0.2-0.1,0.3-0.2,0.5c-0.2,0.5-0.5,0.9-0.8,1.4c-0.2,0.5-0.5,0.9-0.7,1.4c-0.5,1.1-1.3,2-2.1,3c-1,1.2-2,2.3-3,3.4
				c-0.2,0.2-0.5,0.4-0.8,0.6c-0.8,0.6-1.6,1.2-2.5,1.7c-1.1,0.6-2.2,1.2-3.4,1.7c-0.8,0.4-1.7,0.8-2.5,1.2c-1,0.4-2.1,0.7-3.2,0.8
				c-1.3,0.1-2.6,0.3-3.9,0.5C394.6,490.1,394.2,490.2,393.9,490.2z M419.5,463.6c-0.1-0.5-0.2-1.1-0.3-1.7
				c-0.2-1.2-0.3-2.5-0.6-3.7c-0.4-1.3-0.8-2.6-1.4-3.9c-0.7-1.5-1.5-2.9-2.4-4.2c-0.9-1.2-1.7-2.4-2.8-3.5
				c-1.4-1.3-2.8-2.6-4.5-3.5c-1.3-0.7-2.6-1.4-3.9-2c-0.5-0.2-1.1-0.4-1.6-0.6c-0.6-0.2-1.1-0.5-1.7-0.6c-0.9-0.2-1.8-0.4-2.8-0.5
				c-0.9-0.1-1.8-0.3-2.7-0.4c-1.1-0.1-2.2,0-3.3,0c-0.1,0-0.3,0-0.4,0c-1,0.2-2,0.3-3,0.5c-0.8,0.1-1.5,0.3-2.3,0.6
				c-0.7,0.2-1.4,0.5-2.1,0.8c-0.5,0.2-1,0.4-1.5,0.7c-0.9,0.5-1.7,1-2.5,1.4c-1.3,0.6-2.4,1.4-3.4,2.4c-0.7,0.7-1.5,1.4-2.2,2.2
				c-0.5,0.5-1,1-1.5,1.6c-0.5,0.6-0.9,1.3-1.2,2c-0.5,0.9-0.9,1.9-1.4,2.8c-0.6,1.2-1,2.4-1.3,3.7c-0.2,0.7-0.3,1.3-0.4,2
				c-0.1,0.6-0.1,1.2-0.2,1.8c-0.3,1.5-0.2,3-0.2,4.5c0,0.2,0.1,0.4,0.2,0.6c0.1,0.8,0.1,1.7,0.3,2.5c0.2,1,0.6,2,0.9,3
				c0.1,0.3,0.3,0.6,0.4,1c0.2,0.7,0.4,1.4,0.7,2.1c0.4,0.8,0.8,1.5,1.3,2.2c0.6,1,1.3,1.9,2,2.8c0.6,0.8,1.4,1.5,2.1,2.2
				c0.6,0.6,1.1,1.2,1.7,1.7c1.3,0.9,2.6,1.6,4,2.4c0.9,0.5,1.8,0.9,2.7,1.3c0.6,0.3,1.2,0.5,1.8,0.7c0.2,0.1,0.3,0.1,0.5,0.1
				c1.1,0.3,2.2,0.5,3.2,0.8c0.7,0.1,1.4,0.2,2.1,0.2c0.7,0.1,1.5,0.2,2.2,0.2c0.9,0,1.7-0.1,2.6-0.2c0.1,0,0.3,0,0.4,0
				c1.4-0.3,2.8-0.6,4.2-1c0.5-0.1,0.9-0.2,1.4-0.4c1.1-0.5,2.2-1,3.3-1.6c0.8-0.4,1.7-0.8,2.4-1.4c1-0.8,2-1.6,3-2.4
				c1.1-0.9,2-2,2.9-3.1c0.7-0.9,1.2-1.8,1.7-2.8c0.7-1.2,1.3-2.4,1.9-3.6c0.8-1.8,1.1-3.7,1.4-5.5
				C419.4,466.2,419.4,465,419.5,463.6z"/>
		</g>
	</g>
</g>
</svg>
