<?xml version="1.0" encoding="utf-8"?>
<!-- Generator: Adobe Illustrator 19.2.0, SVG Export Plug-In . SVG Version: 6.00 Build 0)  -->
<svg version="1.1" xmlns="http://www.w3.org/2000/svg" xmlns:xlink="http://www.w3.org/1999/xlink" x="0px" y="0px"
	 viewBox="0 0 1400 800" style="enable-background:new 0 0 1400 800;" xml:space="preserve">
<style type="text/css">
	.st0{fill:#F2F2F2;}
	.st1{fill:#E85D3F;}
</style>
<g id="BG">
	<rect y="2" class="st0" width="1400" height="800"/>
</g>
<g id="Elements">
	<g>
		<g>
			<g>
				<path d="M716.4,346.9c0,4.7-0.8,9.1-2.4,13.1c-1.6,4-3.9,7.4-6.9,10.4c-3,2.9-6.5,5.2-10.7,6.8c-4.2,1.6-8.8,2.4-13.9,2.4h-25.4
					v-65.3h25.4c5.1,0,9.7,0.8,13.9,2.5c4.2,1.6,7.7,3.9,10.7,6.8c3,2.9,5.3,6.3,6.9,10.3S716.4,342.2,716.4,346.9z M700.9,346.9
					c0-3.2-0.4-6.1-1.3-8.7c-0.8-2.6-2-4.8-3.6-6.6c-1.6-1.8-3.5-3.2-5.8-4.2c-2.3-1-4.9-1.5-7.8-1.5h-10.1v42h10.1
					c2.9,0,5.5-0.5,7.8-1.5c2.3-1,4.2-2.4,5.8-4.2c1.6-1.8,2.8-4,3.6-6.6C700.5,353,700.9,350.1,700.9,346.9z"/>
				<path d="M740.2,379.5H725v-65.3h15.2V379.5z"/>
				<path d="M794.4,314.2v11.7h-26.8v15.2h20.5v11.2h-20.5v15.6h26.8v11.7h-42v-65.3H794.4z"/>
				<path d="M839.4,327.5c-0.4,0.7-0.9,1.3-1.4,1.6c-0.5,0.4-1.1,0.5-1.9,0.5c-0.7,0-1.4-0.2-2.2-0.6c-0.8-0.4-1.7-0.9-2.7-1.5
					c-1-0.5-2.1-1-3.4-1.5c-1.3-0.4-2.8-0.6-4.4-0.6c-2.8,0-5,0.6-6.3,1.8s-2.1,2.8-2.1,4.9c0,1.3,0.4,2.4,1.3,3.3
					c0.8,0.9,1.9,1.6,3.3,2.2c1.4,0.6,2.9,1.2,4.7,1.7c1.7,0.5,3.5,1.1,5.4,1.7c1.8,0.6,3.6,1.4,5.4,2.3c1.7,0.9,3.3,2,4.7,3.3
					c1.4,1.3,2.5,3,3.3,4.9c0.8,1.9,1.3,4.3,1.3,7c0,3-0.5,5.8-1.6,8.5c-1,2.6-2.6,4.9-4.5,6.9c-2,2-4.4,3.5-7.4,4.6
					s-6.2,1.7-9.9,1.7c-2,0-4.1-0.2-6.2-0.6c-2.1-0.4-4.1-1-6.1-1.8c-2-0.8-3.8-1.7-5.6-2.7c-1.7-1-3.2-2.2-4.5-3.5l4.5-7.1
					c0.3-0.5,0.8-1,1.4-1.3c0.6-0.3,1.2-0.5,1.9-0.5c0.9,0,1.8,0.3,2.7,0.9c0.9,0.6,1.9,1.2,3.1,1.9c1.2,0.7,2.5,1.3,4,1.9
					c1.5,0.6,3.3,0.9,5.3,0.9c2.8,0,4.9-0.6,6.4-1.8c1.5-1.2,2.3-3.1,2.3-5.8c0-1.5-0.4-2.8-1.3-3.7c-0.8-1-1.9-1.7-3.3-2.4
					c-1.4-0.6-2.9-1.2-4.6-1.7s-3.5-1-5.3-1.6c-1.8-0.6-3.6-1.3-5.3-2.2c-1.7-0.9-3.3-2-4.6-3.4c-1.4-1.4-2.5-3.1-3.3-5.2
					c-0.8-2.1-1.3-4.6-1.3-7.7c0-2.5,0.5-4.8,1.5-7.2s2.4-4.4,4.3-6.2c1.9-1.8,4.3-3.3,7-4.4c2.8-1.1,6-1.6,9.5-1.6
					c2,0,4,0.2,5.8,0.5c1.9,0.3,3.7,0.8,5.4,1.4c1.7,0.6,3.3,1.3,4.8,2.2c1.5,0.9,2.8,1.8,4,2.9L839.4,327.5z"/>
				<path d="M893.6,314.2v11.7h-26.8v15.2h20.5v11.2h-20.5v15.6h26.8v11.7h-42v-65.3H893.6z"/>
				<path d="M917.4,367.4h24.2v12.1h-39.4v-65.3h15.2V367.4z"/>
			</g>
			<g>
				<path d="M682.8,428.7c0.2,0.6,0.5,1.2,0.7,1.9c0.2-0.7,0.5-1.3,0.7-1.9s0.5-1.2,0.9-1.8l16.9-30.7c0.3-0.5,0.6-0.9,0.9-1
					c0.3-0.1,0.8-0.2,1.4-0.2h5V445h-5.9v-36.7c0-0.5,0-1,0-1.6s0.1-1.1,0.1-1.7l-17.1,31.2c-0.6,1-1.4,1.6-2.4,1.6h-1
					c-1,0-1.9-0.5-2.4-1.6l-17.5-31.3c0.1,0.6,0.1,1.2,0.2,1.8c0,0.6,0.1,1.1,0.1,1.6V445h-5.9v-49.9h5c0.6,0,1.1,0.1,1.4,0.2
					c0.3,0.1,0.6,0.4,0.9,1l17.2,30.7C682.3,427.5,682.5,428.1,682.8,428.7z"/>
				<path d="M767.8,420c0,3.7-0.6,7.2-1.8,10.3c-1.2,3.1-2.9,5.8-5,8.1c-2.2,2.3-4.8,4-7.8,5.2c-3,1.2-6.4,1.9-10,1.9s-7-0.6-10-1.9
					c-3-1.2-5.6-3-7.8-5.2c-2.2-2.2-3.8-4.9-5-8.1c-1.2-3.1-1.8-6.6-1.8-10.3c0-3.7,0.6-7.2,1.8-10.3s2.9-5.8,5-8.1
					c2.2-2.3,4.7-4,7.8-5.3c3-1.3,6.4-1.9,10-1.9s7,0.6,10,1.9c3,1.3,5.6,3,7.8,5.3c2.2,2.3,3.8,5,5,8.1
					C767.2,412.9,767.8,416.3,767.8,420z M760.9,420c0-3.1-0.4-5.8-1.3-8.2c-0.8-2.4-2-4.5-3.6-6.2c-1.5-1.7-3.4-3-5.6-3.9
					s-4.6-1.4-7.3-1.4c-2.7,0-5.1,0.5-7.3,1.4s-4,2.2-5.6,3.9c-1.5,1.7-2.7,3.7-3.6,6.2c-0.8,2.4-1.3,5.2-1.3,8.2
					c0,3.1,0.4,5.8,1.3,8.2c0.8,2.4,2,4.5,3.6,6.2c1.5,1.7,3.4,3,5.6,3.9c2.2,0.9,4.6,1.3,7.3,1.3c2.7,0,5.1-0.4,7.3-1.3
					c2.2-0.9,4-2.2,5.6-3.9c1.5-1.7,2.7-3.7,3.6-6.2C760.4,425.8,760.9,423.1,760.9,420z"/>
				<path d="M807.6,395.1v5.7h-16.1V445h-6.8v-44.2h-16.2v-5.7H807.6z"/>
				<path d="M857.6,420c0,3.7-0.6,7.2-1.8,10.3c-1.2,3.1-2.9,5.8-5,8.1c-2.2,2.3-4.8,4-7.8,5.2c-3,1.2-6.4,1.9-10,1.9s-7-0.6-10-1.9
					c-3-1.2-5.6-3-7.8-5.2c-2.2-2.2-3.8-4.9-5-8.1c-1.2-3.1-1.8-6.6-1.8-10.3c0-3.7,0.6-7.2,1.8-10.3s2.9-5.8,5-8.1
					c2.2-2.3,4.7-4,7.8-5.3c3-1.3,6.4-1.9,10-1.9s7,0.6,10,1.9c3,1.3,5.6,3,7.8,5.3c2.2,2.3,3.8,5,5,8.1
					C857,412.9,857.6,416.3,857.6,420z M850.7,420c0-3.1-0.4-5.8-1.3-8.2c-0.8-2.4-2-4.5-3.6-6.2c-1.5-1.7-3.4-3-5.6-3.9
					s-4.6-1.4-7.3-1.4c-2.7,0-5.1,0.5-7.3,1.4s-4,2.2-5.6,3.9c-1.5,1.7-2.7,3.7-3.6,6.2c-0.8,2.4-1.3,5.2-1.3,8.2
					c0,3.1,0.4,5.8,1.3,8.2c0.8,2.4,2,4.5,3.6,6.2c1.5,1.7,3.4,3,5.6,3.9c2.2,0.9,4.6,1.3,7.3,1.3c2.7,0,5.1-0.4,7.3-1.3
					c2.2-0.9,4-2.2,5.6-3.9c1.5-1.7,2.7-3.7,3.6-6.2C850.3,425.8,850.7,423.1,850.7,420z"/>
				<path d="M874.3,424.1V445h-6.7v-49.9h14.1c3.2,0,5.9,0.3,8.2,1c2.3,0.6,4.2,1.6,5.7,2.8s2.6,2.7,3.3,4.4
					c0.7,1.7,1.1,3.6,1.1,5.7c0,1.8-0.3,3.4-0.8,4.9c-0.6,1.5-1.4,2.9-2.4,4.1c-1.1,1.2-2.3,2.3-3.9,3.1c-1.5,0.9-3.2,1.5-5.2,1.9
					c0.8,0.5,1.6,1.2,2.2,2.1l14.6,19.8h-6c-1.2,0-2.1-0.5-2.7-1.4l-13-17.8c-0.4-0.6-0.8-1-1.3-1.2c-0.5-0.2-1.2-0.4-2.1-0.4H874.3
					z M874.3,419.2h7.1c2,0,3.7-0.2,5.2-0.7s2.8-1.1,3.8-2s1.8-1.9,2.3-3.1s0.8-2.5,0.8-4c0-3-1-5.2-2.9-6.7c-2-1.5-4.9-2.3-8.8-2.3
					h-7.4V419.2z"/>
				<path d="M937.2,402.9c-0.2,0.3-0.4,0.6-0.7,0.8c-0.2,0.2-0.5,0.3-0.9,0.3c-0.4,0-0.9-0.2-1.4-0.6c-0.5-0.4-1.2-0.8-2-1.3
					c-0.8-0.5-1.8-0.9-2.9-1.3s-2.5-0.6-4.1-0.6c-1.5,0-2.8,0.2-4,0.6c-1.2,0.4-2.1,1-2.9,1.7c-0.8,0.7-1.4,1.5-1.8,2.5
					c-0.4,0.9-0.6,2-0.6,3c0,1.4,0.3,2.5,1,3.5c0.7,0.9,1.6,1.7,2.7,2.3c1.1,0.7,2.4,1.2,3.8,1.7c1.4,0.5,2.9,1,4.4,1.5
					c1.5,0.5,3,1.1,4.4,1.7c1.4,0.6,2.7,1.4,3.8,2.4s2,2.2,2.7,3.6c0.7,1.4,1,3.2,1,5.2c0,2.2-0.4,4.2-1.1,6.1
					c-0.7,1.9-1.8,3.6-3.3,5c-1.4,1.4-3.2,2.5-5.3,3.3c-2.1,0.8-4.4,1.2-7.1,1.2c-3.2,0-6.2-0.6-8.8-1.8c-2.7-1.2-4.9-2.8-6.8-4.8
					l1.9-3.2c0.2-0.3,0.4-0.5,0.7-0.6c0.3-0.2,0.6-0.3,0.9-0.3c0.5,0,1,0.3,1.7,0.8c0.6,0.5,1.4,1.1,2.3,1.7
					c0.9,0.6,2.1,1.2,3.4,1.7c1.3,0.5,3,0.8,4.9,0.8c1.6,0,3-0.2,4.3-0.7s2.3-1.1,3.2-1.9s1.5-1.8,2-2.9c0.5-1.1,0.7-2.4,0.7-3.7
					c0-1.5-0.3-2.7-1-3.7s-1.6-1.8-2.7-2.4c-1.1-0.7-2.4-1.2-3.8-1.7c-1.4-0.5-2.9-0.9-4.4-1.4c-1.5-0.5-3-1-4.4-1.7
					c-1.4-0.6-2.7-1.4-3.8-2.4s-2-2.2-2.7-3.7c-0.7-1.5-1-3.3-1-5.6c0-1.8,0.3-3.5,1-5.1c0.7-1.6,1.7-3.1,3-4.4
					c1.3-1.3,2.9-2.3,4.8-3.1c1.9-0.8,4.1-1.1,6.6-1.1c2.8,0,5.3,0.4,7.6,1.3c2.3,0.9,4.3,2.2,6,3.8L937.2,402.9z"/>
			</g>
		</g>
		<g>
			<path class="st1" d="M565.7,379.3c2.7,2.7,6.3,4.2,10.2,4.2c3.8,0,7.5-1.5,10.2-4.2c2.7-2.7,4.2-6.3,4.2-10.2
				c0-3.8-1.5-7.4-4.2-10.2c-2.7-2.7-6.3-4.2-10.2-4.2c-3.8,0-7.4,1.5-10.2,4.2C560.1,364.6,560.1,373.7,565.7,379.3z M567.3,360.6
				c2.3-2.3,5.3-3.5,8.6-3.5c3.2,0,6.3,1.3,8.6,3.5c4.7,4.7,4.7,12.4,0,17.1c-2.3,2.3-5.3,3.5-8.6,3.5c-3.2,0-6.3-1.3-8.6-3.5
				C562.5,373,562.5,365.3,567.3,360.6z"/>
			<path class="st1" d="M558.8,386.2c-1.9-1.9-3.9-3.8-6.1-5.7c-12.7,10.8-49.4,39.1-56.8,39.1h0c-0.5,0-0.9-0.1-1.2-0.3
				c-5.1-2.7-8.4-3.3-9.6-3.4l-11,11l3.8,3.8c4.7-4.2,10.8-6.6,17.2-6.6c6.9,0,13.4,2.7,18.3,7.6c9.7,9.7,10,25.3,1,35.4l3.8,3.8
				l11-11c-0.1-1.1-0.6-3.9-2.6-8c-0.5-0.9-1.8-3.1,13.8-26.4c8-11.9,17.9-25.4,24.3-33.2C562.6,390.2,560.7,388.1,558.8,386.2
				C558.8,386.2,558.8,386.2,558.8,386.2z"/>
			<path class="st1" d="M569.1,375.9c1.8,1.8,4.2,2.8,6.7,2.8c2.5,0,4.9-1,6.7-2.8c3.7-3.7,3.7-9.8,0-13.5c-1.8-1.8-4.2-2.8-6.7-2.8
				c-2.5,0-4.9,1-6.7,2.8C565.4,366.1,565.4,372.2,569.1,375.9z"/>
			<path class="st1" d="M494.9,432.9c-4.6,0-8.9,1.8-12.1,5c-3.2,3.2-5,7.5-5,12.1c0,4.6,1.8,8.9,5,12.1c3.2,3.2,7.5,5,12.1,5
				c4.6,0,8.9-1.8,12.1-5c3.2-3.2,5-7.5,5-12.1c0-4.6-1.8-8.9-5-12.1C503.8,434.7,499.5,432.9,494.9,432.9z"/>
			<path class="st1" d="M494.9,473.3c5.8,0,11.3-2.2,15.6-6.1l-2.5-2.5c-3.6,3.2-8.2,5-13.1,5c-5.3,0-10.2-2.1-13.9-5.8
				c-3.7-3.7-5.8-8.7-5.8-13.9c0-4.9,1.8-9.5,5-13.1l-2.5-2.5c-8.3,9.1-8.1,23.3,0.7,32.1C482.9,470.9,488.7,473.3,494.9,473.3
				L494.9,473.3z"/>
			<path class="st1" d="M619.3,373.4l-1.9,1.9l-38.6,38.6l-0.8-1.6c-3.3-6.3-7.3-12.3-11.8-17.9c-14.2,17.2-37.9,52.2-37.5,56.5
				c2.9,6,2.9,9.4,2.9,9.5l0,0.5l-25.4,25.4l-0.6,0h113.7c6.5,0,11.8-5.3,11.8-11.8V361.5L619.3,373.4L619.3,373.4z"/>
			<path class="st1" d="M475.9,432.6l-3.8-3.8l-11,11c0.2,1.8,1.6,8.5,9.3,18.4C467.6,449.6,469.4,439.7,475.9,432.6z"/>
			<path class="st1" d="M511.4,433.6c-4.4-4.4-10.2-6.8-16.4-6.8c-5.7,0-11.1,2.1-15.3,5.8l2.5,2.5c3.6-3.1,8.1-4.8,12.8-4.8
				c5.3,0,10.2,2.1,13.9,5.8c3.7,3.7,5.8,8.7,5.8,13.9c0,4.8-1.7,9.3-4.8,12.8l2.5,2.5C520.4,456.3,520.1,442.3,511.4,433.6z"/>
			<path class="st1" d="M494.9,475.9L494.9,475.9c-2.9,0-5.6-0.5-8.3-1.4c10,7.9,16.7,9.1,18.5,9.3l11-11l-3.8-3.8
				C507.6,473.5,501.5,475.9,494.9,475.9z"/>
			
				<rect x="602.9" y="309.5" transform="matrix(0.7071 -0.7071 0.7071 0.7071 -63.7993 527.1442)" class="st1" width="3" height="62.2"/>
			<path class="st1" d="M619.3,313.8H470.2c-6.5,0-11.8,5.3-11.8,11.8v149.1c0,6.5,5.3,11.8,11.8,11.8h35.4
				c-0.5,0-11.8-0.2-29.3-17.7c-17.6-17.6-17.8-28.9-17.9-29.4l0-0.5l25.4-25.4l0.5,0h0c0.5,0,4.5,0.1,11.3,3.8
				c5.7,0,39-24.8,54.8-38.3c-5.6-4.5-11.6-8.5-17.9-11.9l-1.6-0.8l52.3-52.3l47.7,47.7v-35.9C631.1,319.1,625.8,313.8,619.3,313.8z
				"/>
			
				<rect x="594.9" y="317.2" transform="matrix(0.7071 -0.7071 0.7071 0.7071 -71.5497 523.9282)" class="st1" width="3.4" height="62.2"/>
			
				<rect x="599.3" y="313.3" transform="matrix(0.7071 -0.7071 0.7071 0.7071 -67.5963 525.5719)" class="st1" width="2.6" height="62.2"/>
			<path class="st1" d="M535.4,365.6c6.1,3.3,11.8,7.2,17.2,11.6l0,0l0.8,0.7c0.1,0.1,0.1,0.1,0.2,0.2c0.8,0.7,1.6,1.4,2.4,2.1
				c0.4,0.4,0.9,0.8,1.3,1.2c0.3,0.3,0.6,0.6,0.9,0.9c0.8,0.8,1.6,1.5,2.3,2.3c0.7,0.7,1.5,1.5,2.2,2.3c0.3,0.4,0.7,0.7,1,1.1
				c0.2,0.2,0.4,0.4,0.6,0.6c0.9,1,1.8,2.1,2.7,3.1c0,0,0,0,0,0l0.7,0.8l0,0c4.4,5.4,8.3,11.1,11.6,17.2L612,377l-44-44L535.4,365.6
				z M587.8,357.2c3.2,3.2,5,7.5,5,12c0,4.5-1.8,8.8-5,12c-3.2,3.2-7.5,5-12,5c-4.5,0-8.8-1.8-12-5c-6.6-6.6-6.6-17.4,0-24
				c3.2-3.2,7.5-5,12-5C580.4,352.2,584.6,354,587.8,357.2z"/>
			
				<rect x="591.4" y="321.2" transform="matrix(0.7071 -0.7071 0.7071 0.7071 -75.5023 522.288)" class="st1" width="2.6" height="62.2"/>
		</g>
		<g>
			<path d="M673.2,481.2c0.2,0,0.3,0.1,0.4,0.2l1.2,1.3c-0.9,1.1-2,1.9-3.3,2.5c-1.3,0.6-2.9,0.9-4.7,0.9c-1.6,0-3.1-0.3-4.4-0.8
				c-1.3-0.6-2.4-1.3-3.3-2.3c-0.9-1-1.6-2.2-2.1-3.6c-0.5-1.4-0.8-2.9-0.8-4.6c0-1.7,0.3-3.2,0.8-4.6c0.5-1.4,1.3-2.6,2.3-3.6
				c1-1,2.2-1.8,3.5-2.3c1.4-0.6,2.9-0.8,4.5-0.8c1.6,0,3,0.3,4.2,0.8c1.2,0.5,2.2,1.2,3.2,2.1l-1,1.4c-0.1,0.1-0.2,0.2-0.2,0.3
				c-0.1,0.1-0.2,0.1-0.4,0.1c-0.1,0-0.3,0-0.4-0.1c-0.1-0.1-0.3-0.2-0.5-0.4c-0.2-0.1-0.5-0.3-0.7-0.5c-0.3-0.2-0.6-0.3-1-0.5
				s-0.8-0.3-1.3-0.4c-0.5-0.1-1.1-0.1-1.8-0.1c-1.2,0-2.3,0.2-3.3,0.6c-1,0.4-1.8,1-2.6,1.7c-0.7,0.8-1.3,1.7-1.7,2.8
				c-0.4,1.1-0.6,2.3-0.6,3.6c0,1.4,0.2,2.6,0.6,3.7c0.4,1.1,0.9,2,1.6,2.8c0.7,0.8,1.5,1.3,2.4,1.7c0.9,0.4,2,0.6,3,0.6
				c0.7,0,1.3,0,1.8-0.1c0.5-0.1,1-0.2,1.5-0.4c0.4-0.2,0.9-0.4,1.3-0.6c0.4-0.3,0.8-0.6,1.2-0.9C672.8,481.3,673,481.2,673.2,481.2
				z"/>
			<path d="M716.7,474.7c0,1.7-0.3,3.2-0.8,4.6c-0.5,1.4-1.3,2.6-2.2,3.6c-1,1-2.1,1.8-3.5,2.3c-1.3,0.6-2.8,0.8-4.5,0.8
				s-3.1-0.3-4.5-0.8c-1.3-0.6-2.5-1.3-3.5-2.3c-1-1-1.7-2.2-2.2-3.6c-0.5-1.4-0.8-2.9-0.8-4.6c0-1.7,0.3-3.2,0.8-4.6
				s1.3-2.6,2.2-3.6c1-1,2.1-1.8,3.5-2.3c1.3-0.6,2.8-0.8,4.5-0.8s3.1,0.3,4.5,0.8c1.3,0.6,2.5,1.3,3.5,2.3c1,1,1.7,2.2,2.2,3.6
				S716.7,473,716.7,474.7z M713.7,474.7c0-1.4-0.2-2.6-0.6-3.7c-0.4-1.1-0.9-2-1.6-2.8c-0.7-0.8-1.5-1.3-2.5-1.7
				c-1-0.4-2.1-0.6-3.3-0.6c-1.2,0-2.3,0.2-3.2,0.6c-1,0.4-1.8,1-2.5,1.7c-0.7,0.8-1.2,1.7-1.6,2.8c-0.4,1.1-0.6,2.3-0.6,3.7
				c0,1.4,0.2,2.6,0.6,3.7s0.9,2,1.6,2.7c0.7,0.8,1.5,1.3,2.5,1.7s2.1,0.6,3.2,0.6c1.2,0,2.3-0.2,3.3-0.6s1.8-1,2.5-1.7
				c0.7-0.7,1.2-1.7,1.6-2.7C713.5,477.2,713.7,476,713.7,474.7z"/>
			<path d="M741.2,483.2h9.6v2.5h-12.6v-22.2h3V483.2z"/>
			<path d="M790.9,474.7c0,1.7-0.3,3.2-0.8,4.6c-0.5,1.4-1.3,2.6-2.2,3.6c-1,1-2.1,1.8-3.5,2.3c-1.3,0.6-2.8,0.8-4.5,0.8
				s-3.1-0.3-4.5-0.8c-1.3-0.6-2.5-1.3-3.5-2.3c-1-1-1.7-2.2-2.2-3.6c-0.5-1.4-0.8-2.9-0.8-4.6c0-1.7,0.3-3.2,0.8-4.6
				s1.3-2.6,2.2-3.6c1-1,2.1-1.8,3.5-2.3c1.3-0.6,2.8-0.8,4.5-0.8s3.1,0.3,4.5,0.8c1.3,0.6,2.5,1.3,3.5,2.3c1,1,1.7,2.2,2.2,3.6
				S790.9,473,790.9,474.7z M787.8,474.7c0-1.4-0.2-2.6-0.6-3.7c-0.4-1.1-0.9-2-1.6-2.8c-0.7-0.8-1.5-1.3-2.5-1.7
				c-1-0.4-2.1-0.6-3.3-0.6c-1.2,0-2.3,0.2-3.2,0.6c-1,0.4-1.8,1-2.5,1.7c-0.7,0.8-1.2,1.7-1.6,2.8c-0.4,1.1-0.6,2.3-0.6,3.7
				c0,1.4,0.2,2.6,0.6,3.7s0.9,2,1.6,2.7c0.7,0.8,1.5,1.3,2.5,1.7s2.1,0.6,3.2,0.6c1.2,0,2.3-0.2,3.3-0.6s1.8-1,2.5-1.7
				c0.7-0.7,1.2-1.7,1.6-2.7C787.7,477.2,787.8,476,787.8,474.7z"/>
			<path d="M823.7,478.5c0.1,0.3,0.2,0.6,0.3,0.8c0.1-0.3,0.2-0.6,0.3-0.8c0.1-0.3,0.2-0.5,0.4-0.8l7.5-13.7
				c0.1-0.2,0.3-0.4,0.4-0.4c0.1-0.1,0.4-0.1,0.6-0.1h2.2v22.2h-2.6v-16.3c0-0.2,0-0.4,0-0.7c0-0.2,0-0.5,0-0.8l-7.6,13.9
				c-0.3,0.5-0.6,0.7-1.1,0.7h-0.4c-0.5,0-0.8-0.2-1.1-0.7l-7.8-13.9c0,0.3,0.1,0.5,0.1,0.8c0,0.3,0,0.5,0,0.7v16.3h-2.6v-22.2h2.2
				c0.3,0,0.5,0,0.6,0.1c0.1,0.1,0.3,0.2,0.4,0.4l7.7,13.7C823.5,478,823.6,478.2,823.7,478.5z"/>
			<path d="M858.3,485.8v-22.2h7.1c1.4,0,2.5,0.1,3.5,0.4c1,0.3,1.8,0.7,2.4,1.1s1.1,1.1,1.4,1.8s0.5,1.5,0.5,2.4
				c0,0.5-0.1,1.1-0.3,1.6c-0.2,0.5-0.4,1-0.8,1.4c-0.3,0.4-0.8,0.8-1.3,1.2c-0.5,0.3-1.1,0.6-1.8,0.8c1.6,0.3,2.8,0.9,3.7,1.8
				s1.2,2,1.2,3.3c0,0.9-0.2,1.8-0.5,2.6c-0.3,0.8-0.9,1.4-1.5,2c-0.7,0.6-1.5,1-2.5,1.3c-1,0.3-2.1,0.5-3.3,0.5H858.3z
				 M861.3,473.5h4c0.8,0,1.6-0.1,2.2-0.3s1.1-0.4,1.5-0.8c0.4-0.3,0.7-0.7,0.9-1.2c0.2-0.5,0.3-1,0.3-1.5c0-1.3-0.4-2.3-1.2-2.9
				c-0.8-0.6-2-0.9-3.7-0.9h-4.1V473.5z M861.3,475.6v7.7h4.8c0.9,0,1.6-0.1,2.2-0.3c0.6-0.2,1.1-0.5,1.5-0.8
				c0.4-0.4,0.7-0.8,0.9-1.3c0.2-0.5,0.3-1,0.3-1.6c0-1.1-0.4-2.1-1.2-2.7c-0.8-0.7-2-1-3.7-1H861.3z"/>
			<path d="M899.3,485.8h-3v-22.2h3V485.8z"/>
			<path d="M940.9,485.8h-2.3c-0.3,0-0.5-0.1-0.7-0.2c-0.2-0.1-0.3-0.3-0.4-0.5l-2.1-5.4h-10l-2.1,5.4c-0.1,0.2-0.2,0.4-0.4,0.5
				s-0.4,0.2-0.7,0.2h-2.3l8.9-22.2h3.1L940.9,485.8z M926.4,477.5h8.3l-3.5-9c-0.2-0.6-0.4-1.3-0.7-2.1c-0.1,0.4-0.2,0.8-0.3,1.2
				c-0.1,0.4-0.2,0.7-0.3,0.9L926.4,477.5z"/>
		</g>
	</g>
</g>
</svg>
