<?xml version="1.0" encoding="utf-8"?>
<!-- Generator: Adobe Illustrator 23.0.6, SVG Export Plug-In . SVG Version: 6.00 Build 0)  -->
<svg version="1.1" xmlns="http://www.w3.org/2000/svg" xmlns:xlink="http://www.w3.org/1999/xlink" x="0px" y="0px"
	 viewBox="0 0 1000 1000" style="enable-background:new 0 0 1000 1000;" xml:space="preserve">
<style type="text/css">
	.st0{opacity:0.24;}
	.st1{fill:#363333;}
	.st2{clip-path:url(#SVGID_2_);}
	.st3{fill:#D7B045;}
	.st4{clip-path:url(#SVGID_4_);}
	.st5{fill:#DFB4A1;}
	.st6{fill:#CE4143;}
	.st7{clip-path:url(#SVGID_6_);}
	.st8{clip-path:url(#SVGID_8_);}
	.st9{fill:none;stroke:#0091FF;stroke-width:2;stroke-miterlimit:10;}
	.st10{fill:none;stroke:#0091FF;stroke-width:2;stroke-miterlimit:10;stroke-dasharray:3.9883,3.9883;}
	.st11{fill:#0091FF;}
</style>
<g id="Layer_2">
	<g id="hoja" class="st0">
		<g>
			<path class="st1" d="M484.09,762.33c1.39-0.12,2.26-0.41,3.19-1.16s2.79,0.17,4.35-0.29c1.57-0.46,0.29-1.04,1.57-2.64
				c1.28-1.59,0.93-1.77,0.52-3.16c-0.41-1.39-1.04-0.99-2.55,0c-1.51,0.99-2.55,2.9-3.42,3.48c-0.87,0.58-1.97-0.23-3.07-0.32
				c-1.1-0.08-0.46,0.55-1.16,0.66c-0.7,0.12-0.93-0.23-2.4,0.58s0,1.39,0,1.39C479.76,762.8,482.7,762.44,484.09,762.33z"/>
			<path class="st1" d="M495.86,773.11c-0.75-1.28-0.52-2.61,0.46-2.55c0.99,0.06,1.33,0,1.1-0.7c-0.23-0.7,0-2.44-0.75-2.38
				s-0.52-0.79-1.39-0.19c-1.41,0.97-1.74-1-2.49,0s0.29,1.99-0.64,2.11c-0.93,0.12-2.44,1.22-0.7,2.67
				C493.2,773.52,496.62,774.39,495.86,773.11z"/>
			<path class="st1" d="M495.69,759.25c-0.46,0.75-0.7,2.3-1.33,3.18c-0.64,0.88-0.06,1.98,1.16,1.98s0.81,1.04,2.96,0
				s2.09-0.75,1.68-2.49s-1.62-1.62-1.57-2.55c0.06-0.93,0.33-1.75-0.64-1.39C497.95,757.98,496.15,758.5,495.69,759.25z"/>
			<path class="st1" d="M498.88,754.56c1.04,0.17,0.23,0.81,1.22,1.62s0.75,0.35,1.33,1.71s1.28,1.36,2.73,1.3s2.38-1.8,1.97-2.55
				s0.17-2.67-1.16-2.46c-1.33,0.2-0.75-1.19-0.87-1.83s-1.51-0.23-2.38,0.46c-0.71,0.57-1.98,0.63-2.57,0.74
				c-0.13,0.02-0.22,0.07-0.28,0.08C497.71,753.83,497.84,754.38,498.88,754.56z"/>
			<path class="st1" d="M498.59,750.43c0.81,0.24,2.68,0.36,3.55-0.51c0.86-0.87,1.27-1.32,2.72-1.39c1.45-0.06,3.54,0.46,3.65-0.64
				c0.12-1.1,0.23-1.28-0.58-1.74c-0.81-0.46-2.1-0.93-2.1-0.93s-3.99-0.08-3.99,1.24c0,1.07-1.3,1.37-1.46,1.9
				C500.21,748.87,497.78,750.19,498.59,750.43z"/>
			<path class="st1" d="M481.11,756.41c1.31,0.67,4.43-0.64,4.89-1.8c0.46-1.16,1.28-2.96,2.61-2.58s3.77,0,3.77,0
				s2.73-0.2,2.96-1.07c0.23-0.87-0.12-1.39,0.87-2.2s2.05-3.54,1.55-3.48c-0.51,0.06-6.53,0.92-6.71,1.45
				c-0.17,0.52,0.32,2.26-1.55,2.2s-3.5,0.87-3.5,0.87s-2.67,0.81-3.6,2.23C481.48,753.45,477.56,754.58,481.11,756.41z"/>
			<path class="st1" d="M507.89,756.6c0.84,1.71,3.98-0.8,4.06-2.42c0.08-1.61,2.53-5.65,4.06-6.27c1.53-0.62,0.84-1.07,1.61-1.46
				c0.77-0.39,0.93-1.18,0.93-1.18L517,745.6c0,0-4.59,1.45-6.05,3.52C509.5,751.19,507.05,754.88,507.89,756.6z"/>
			<path class="st1" d="M508.59,765.73c-1.46,2.14,1.9,2.81,3.05,0.79c0,0,5.89-5.31,6.12-7.91c0.23-2.6,1.53-6.29,3.9-7.39
				c2.37-1.1,0.61-3.02,2.45-4.32s5.74-4.21,5.59-5.2c-0.15-0.99-6.28,2.83-7.27,5.43s-6.35,6.98-7.27,9.46
				S510.05,763.59,508.59,765.73z"/>
			<path class="st1" d="M525.34,749.35c-1.53,1.45-2.3,2.75-3.34,4.83c-1.04,2.07-2.32,1.99-1.94,4.13s-1.61,3.22-2.91,5.74
				s-0.84,2.83,1.82,0.83c2.66-2,2.39-5.42,3.85-9.26s3.6-3.9,5.28-5.02c1.68-1.12,2.3-3.77,2.3-3.77c0.15-2.37,2.22-3.9,1.76-4.74
				c-0.46-0.84-1.3,0.84-3.4,2.6C526.65,746.44,526.87,747.9,525.34,749.35z"/>
			<path class="st1" d="M533.83,747.44c1.76-1.22,0.34-2.22,2.66-3.21s5.99-3.29,2.93-4.36c0,0-3.14,0.84-4.67,2.68
				C533.22,744.38,532.07,748.67,533.83,747.44z"/>
			<path class="st1" d="M460.06,777.21c2.6,0.15,2.37-0.06,3.9,0.47c1.53,0.53,3.06-1.42,1.53-2.55s-1.3-3.65-2.75-3.96
				c0,0-2.3-0.28-3.21,1.62C458.61,774.68,457.46,777.06,460.06,777.21z"/>
			<path class="st1" d="M455.01,779.05c0,0-3.21,1.61-1.91,3.75s3.67,3.5,3.98,1.37s0.5-2.29,1.05-3.05
				C458.69,780.35,457.38,778.2,455.01,779.05z"/>
			<path class="st1" d="M466.13,783.87c0.28-1.07-0.71-0.51-0.94-1.82c-0.23-1.32-1.06-2.31-2.25-1.93
				c-0.07,0.02-0.13,0.05-0.2,0.07c-0.06-0.03-0.13-0.04-0.21-0.03c-0.55,0.11-1.01,0.46-1.41,0.84c-0.13,0.13-0.24,0.26-0.34,0.4
				c-0.7,0.73-1.7,2.36-0.55,3.22c1.53,1.15,0.84,0.37,2.68,0.6C464.73,785.47,465.85,784.94,466.13,783.87z"/>
			<path class="st1" d="M474.6,778.63c-0.77-2.11,0.84-2.69-0.38-3.51s-2.44,0-2.44,0s-4.83,1.63-3.76,4.54
				c1.07,2.91,1.99,2.37,4.13,2.07S475.37,780.75,474.6,778.63z"/>
			<path class="st1" d="M473.07,771.58c0.15-1.02,0.71-4.29-1.29-3.84c-2,0.45-1.08,1.36-1.85,1.67c-0.77,0.31-1.76-0.21-2.07,0.96
				c-0.11,0.44,0.61,2.43,2.37,2.42C472,772.77,472.92,772.6,473.07,771.58z"/>
			<path class="st1" d="M462.3,792.17c1.36-1.5,0.6-1.57,1.21-2.65c0.61-1.07-1.39-2.81-3.06-0.82c0,0-2.75,0.66-1.3,2.73
				C460.6,793.51,460.94,793.67,462.3,792.17z"/>
			<path class="st1" d="M478.82,795.55c-0.31-1.97-0.08-3.56-1.84-3.38c-1.76,0.19-1.22-0.87-2.91,0c0,0-1.61,0.87-0.81,3.02
				c0.81,2.14,0.96,4.37,2.87,3.87C478.05,798.56,479.13,797.52,478.82,795.55z"/>
			<path class="st1" d="M476.59,788.77c2.83,1.37,2.75,1.91,3.52,0.53c0.77-1.38,0.7-1.91,1-2.83c0.3-0.92-0.61-1.15-2.3-1.84
				s-2.13-0.86-2.86-0.47C475.95,784.16,473.76,787.39,476.59,788.77z"/>
			<path class="st1" d="M481.8,781.97c0.38-1.47,0.01-3.06-1.33-3.61c-1.34-0.54-2.18-0.86-2.72,0c0,0-1.84,2.21,0,3.05
				C479.58,782.26,481.41,783.45,481.8,781.97z"/>
			<path class="st1" d="M470.24,790.1c-0.23-1.03-0.77-3.03-3.06-2.3c-0.25,0.08-1.64,0.81-1.05,3.02c0.59,2.22,1.97,2.69,3.65,1.73
				C471.46,791.6,470.47,791.14,470.24,790.1z"/>
			<path class="st1" d="M470,763.32c2.41,0.07,3.86-2.36,5.05-3.35c1.2-0.99,3.68-3.73,0.41-4.35c0,0-3.4,0.47-4.11,2.27
				C470.64,759.69,467.59,763.24,470,763.32z"/>
			<path class="st1" d="M489.18,780.72c0.92-0.64,2.63,0.28,3.34-1.07c0.71-1.35-0.43-3.48-1.63-4.53
				c-1.21-1.05-3.27-1.43-4.38-0.36c-0.97,0.93,1.32,1.06,0.77,2.34S488.26,781.36,489.18,780.72z"/>
			<path class="st1" d="M500.83,774.76c-0.92-1-2.71-0.92-3.59,0s-1.03,1.34-1.03,1.34s-1.42,5.21,0.64,5.94
				c2.06,0.73,1.99-0.63,3.05-1.79s0.24-1.76,0.48-2.42C500.61,777.17,501.75,775.76,500.83,774.76z"/>
			<path class="st1" d="M480.42,766.16c-0.09,0.78,0.66,1.42,1.51,1.01c0.57-0.27,0.88-0.91,1.58-0.95
				c0.43-0.02,0.84,0.24,1.28,0.22c0.45-0.02,1.42-0.33,1.49-0.89c0.07-0.52-0.55-0.73-0.94-0.81c-0.29-0.06-0.56-0.08-0.84-0.03
				c-0.66,0.11-1.09,0.11-1.74,0.04C482.1,764.68,480,765.28,480.42,766.16z"/>
			<path class="st1" d="M550.08,746.9c0.06,0.42,0.34,0.6,0.68,0.75c0.44,0.18,1.25-0.34,1.42-0.26c0.3,0.15,0.53,1.14,0.85,1.44
				c0.36,0.35,0.83,0.61,1.35,0.62c1.05,0.02,1.89-0.93,1.75-1.95c-0.05-0.37-0.2-0.73-0.33-1.1c0.01-0.05,0.02-0.1,0.02-0.15
				c-0.07-0.92,0.42-1.8,1.13-2.6c0.47-0.29,0.96-0.58,1.22-0.86c0.61-0.65,1.16-1.21,1.99-1.68c0.51-0.28,0.88-0.42,1.28-0.88
				c0.63-0.71,2.66-5.82,1.61-6.34c-0.05-0.07-0.12-0.13-0.19-0.19c-0.14-0.11-0.4-0.09-0.54,0c-0.25,0.17-0.42,0.4-0.56,0.65
				c-0.5,0.31-0.73,0.85-0.98,1.57c0,0.01-0.01,0.01-0.01,0.02c-0.54,0.75-1,1.54-1.51,2.3c-0.39,0.28-0.86,0.48-1.45,0.62
				c-0.53,0.12-1.14,0.06-1.61,0.38c-0.62,0.42-0.68,1.15-0.78,1.82c-0.22,1.51-1.35,2.2-2.35,3.12c-0.02,0-0.04,0.01-0.06,0.02
				C552.3,744.65,549.91,745.73,550.08,746.9z M553.56,744.34L553.56,744.34c-0.01,0-0.01,0.01-0.02,0.01
				C553.54,744.35,553.55,744.35,553.56,744.34z M553.34,744.48c-0.03,0.02-0.06,0.04-0.08,0.07c-0.01,0-0.02,0-0.03,0.01
				C553.26,744.53,553.3,744.51,553.34,744.48z"/>
			<path class="st1" d="M532.51,764.72c-0.14-0.08-0.23-0.16-0.31-0.25c0.03-0.11,0.04-0.24,0.02-0.38
				c-0.14-1.12-1.26-0.88-1.99-0.43c-0.08,0.03-0.16,0.06-0.25,0.1c-0.51,0.16-1.01,0.36-1.43,0.67c-0.87,0.64-0.57,1.51-1.13,2.31
				c-0.09,0.13,0,0.32,0.15,0.36c0.38,0.11,0.66,0.09,0.99-0.08c0.22,0.02,0.44,0,0.68-0.11c0.27-0.11,0.52-0.27,0.74-0.46
				c0.21-0.03,0.43-0.01,0.69,0.04c0.24,0.04,0.48,0.09,0.72,0.08c0.66,0.03,1.42-0.11,1.73-0.68
				C533.49,765.21,532.98,764.99,532.51,764.72z"/>
			<path class="st1" d="M535.7,767.05c0.36,0.02,0.68-0.04,1.03-0.08c0.08-0.01,0.16-0.02,0.24-0.03c0.57,0.03,1.28,0.08,1.92,0.03
				c0.43,0.11,0.88,0.32,1.4,0.69c1.33,0.93,2.88,3.11,4.84,2.07c1.45-0.77,0.19-1.57-0.72-2c-0.05-0.03-0.1-0.05-0.15-0.08
				c-0.17-0.12-0.37-0.23-0.58-0.33c-0.34-0.22-0.63-0.45-0.92-0.73c-0.16-0.22-0.34-0.42-0.51-0.59c-0.08-0.08-0.16-0.16-0.25-0.24
				c-0.04-0.05-0.07-0.1-0.12-0.13c-0.07-0.06-0.15-0.11-0.23-0.17c-0.67-0.53-1.53-0.99-2.31-0.98c-0.46,0.01-0.86,0.2-1.27,0.39
				c-0.14,0.07-0.28,0.13-0.43,0.2c-1.18,0.34-2.31,0.89-3.5,0.74c-0.22-0.03-0.27,0.26-0.16,0.39
				C534.45,766.78,534.95,767,535.7,767.05z M535.78,766.61L535.78,766.61c-0.02,0-0.03,0-0.05,0c0,0,0,0-0.01,0
				C535.74,766.61,535.76,766.61,535.78,766.61z"/>
			<path class="st1" d="M547.09,750.13c0.03-0.09-0.01-0.18-0.07-0.25c-0.42-0.5-0.76-1.49-0.77-2.2c0-0.23,0.04-0.41,0.11-0.58
				c1.19-0.72,2.51-1.14,2.92-2.83c0.02-0.07,0.01-0.15-0.01-0.22c0.07-0.38,0-0.74-0.31-1.02c-0.12-0.11-0.32-0.1-0.41,0.05
				c-0.58,1.06-1.62,1.4-2.55,2.05c-0.81,0.56-1.47,1.34-2.36,1.79c-0.73,0.37-1.65,0.58-2.1,1.15c-0.59,0.16-0.77,0.88-0.49,1.41
				c-0.01,0.25,0.12,0.49,0.41,0.57c0.34,0.09,0.68,0.19,1.02,0.28c0.1,0.06,0.19,0.14,0.29,0.23c0.02,0.06,0.05,0.12,0.07,0.19
				c0.09,0.27,0.06,0.46,0.25,0.7c0.27,0.34,0.72,0.39,1.12,0.39C545.31,751.84,546.7,751.19,547.09,750.13z M548.85,743.67
				c0,0.01,0,0.01,0,0.02h-0.01C548.84,743.68,548.84,743.68,548.85,743.67z"/>
			<path class="st1" d="M531.97,753.17c-0.1,0.1-0.08,0.27,0.04,0.35c0.58,0.33,1.28,0.53,1.9,0.2c0.39-0.2,0.86-0.79,0.47-1.21
				c-0.34-0.38-1.09-0.67-1.59-0.51c-0.48,0.15-0.64,0.61-0.7,1.06C532.06,753.09,532.01,753.13,531.97,753.17z"/>
			<path class="st1" d="M540.86,754.45c0.51,0.23,3.9-0.01,2.68-0.95c-0.08-0.06-0.18-0.1-0.3-0.13c-0.12-0.14-0.32-0.36-0.56-0.29
				c-0.18,0.05-0.35-0.07-0.51-0.07l0,0c-0.37,0-0.71,0.01-1.03-0.17c-0.5-0.3-0.86-0.67-1.34-1.04c-0.32-0.25-0.67-0.31-1-0.26
				c-0.76-0.28-1.93-0.54-2.53,0.04c-0.37,0.36-0.39,0.9,0.1,1.16c0.25,0.13,0.6,0.03,0.86-0.02c0.65-0.13,0.93-0.49,1.63,0.01
				c0.13,0.09,0.15,0.31,0.3,0.39c0.36,0.19,0.71,0.38,0.99,0.64C540.44,754.03,540.46,754.27,540.86,754.45z"/>
			<path class="st1" d="M507.68,763.01c0.29-0.39,0.5-2.03,0.01-2.35c0.01-0.03-0.01-0.08-0.05-0.06c-0.02,0.01-0.04,0.01-0.06,0.02
				c-0.11-0.03-0.24-0.01-0.41,0.09c-0.02,0.01-0.04,0.03-0.05,0.05c-0.86,0.24-1.87,0.45-2.55,0.88c-0.17,0.11-0.29,0.23-0.41,0.39
				c-0.29,0.39-0.4,0.95-0.69,1.36c-0.22,0.31-0.53,0.55-0.73,0.87c-0.33,0.54-0.37,0.95-0.02,1.49c0.35,0.53,1.34,1.41,2.03,1.44
				c0.58,0.03,1.27-0.56,1.61-0.98c0.28-0.34,0.36-0.59,0.46-1.01c0.13-0.53,0.04-1.19,0.36-1.69
				C507.3,763.32,507.55,763.2,507.68,763.01z"/>
			<path class="st1" d="M507.91,779.34c0.12,0.13,0.82,0.4,1.04,0.56c0.59,0.42,0.91,0.53,1.7,0.25c0.3-0.1,0.45-0.19,0.61-0.24
				c0.36,0.17,0.89,0.26,1.49,0.27c0.1,0.04,0.2,0.07,0.31,0.09c1.05,0.17,2.28-0.25,3.22-0.68c0.43-0.2,1.32-0.57,1.31-1.18
				c0-0.4-0.29-0.69-0.68-0.94c-0.29-0.43-0.82-0.69-1.39-0.81c-0.17-0.13-0.31-0.26-0.39-0.41c-0.06-0.11-0.2-0.13-0.3-0.08
				c-0.33,0.16-0.66,0.32-0.99,0.47c-0.1,0.02-0.2,0.05-0.29,0.08c-0.43,0.15-0.82,0.37-1.22,0.59c-0.6,0.25-1.2,0.5-1.8,0.75
				c-0.94,0.02-3.42,0.1-2.95,1.05C507.65,779.23,507.83,779.25,507.91,779.34z M508.89,778.54c-0.02,0.02-0.05,0.04-0.08,0.06
				c0,0,0,0-0.01,0.01c-0.04,0-0.09-0.01-0.13-0.01C508.74,778.58,508.81,778.56,508.89,778.54z"/>
			<path class="st1" d="M519.57,769.82c1.51-1.25,2.92-2.61,3.5-4.58c0.02-0.06,0.01-0.11-0.02-0.16c0.06-0.2-0.01-0.4-0.26-0.54
				c-0.56-0.32-1.4,0.78-1.66,1.06c-0.63,0.66-1.23,1.97-2,2.72c-0.06,0.04-0.11,0.09-0.18,0.12c-0.38,0.22-0.73,0.34-1.08,0.44
				c-0.43-0.02-0.81-0.19-1.25-0.02c-0.45,0.18-0.66,0.58-0.94,0.92c-0.29,0.15-0.58,0.28-0.97,0.33c-0.01,0-0.02-0.01-0.04-0.01
				c-0.29-0.03-0.48-0.17-0.66-0.31c-0.13-0.17-0.25-0.35-0.36-0.53c-0.09-0.07-0.17-0.14-0.29-0.18c-0.11-0.04-0.19,0.06-0.29,0.07
				c-0.11,0.09-0.22,0.16-0.35,0.21c-0.18,0.02-0.36,0.07-0.53,0.11c-0.11-0.02-0.23-0.03-0.34-0.01c-0.68,0.08-1.77,0.69-2.17,1.43
				c-0.03-0.01-0.06-0.01-0.09,0.02c-0.77,0.81,0.03,1.51,0.94,1.62c0.96,0.11,1.45-0.45,2.16-0.84c0.2-0.09,0.4-0.17,0.6-0.25
				c0.89-0.19,1.93,0.48,2.81,0.58c0.62,0.07,1.67,0.21,2.18-0.32C519.02,770.93,518.31,770.86,519.57,769.82z"/>
			<path class="st1" d="M531.65,769.47c-0.66-0.44-1.61-0.29-2.35-0.49c-0.7-0.18-0.96-0.38-1.71-0.24s-1.35,0.53-2.15,0.65
				c-0.29,0.04-0.59,0.04-0.88,0.1c-0.75,0.15-1.11,0.39-1.62,0.93c-0.35,0.38-0.64,1-0.95,1.37c-0.27,0.32-0.56,0.57-0.85,0.82
				c-0.29,0.18-0.58,0.36-0.86,0.55c-0.3,0.08-0.62,0.15-0.87,0.35c-0.21,0.17-0.4,0.46-0.38,0.74c0.01,0.1,0.05,0.16,0.1,0.21
				c-0.07,0.2-0.07,0.39,0.08,0.58c0.32,0.4,1.31,0.2,1.69,0.04c1.2-0.5,1.59-1.8,2.87-2.21c0.32-0.1,0.5-0.12,0.8-0.3
				c0.51-0.31,0.67-0.57,1.31-0.68c0.37-0.06,0.73-0.05,1.1-0.03c0.42,0.19,0.69,0.43,1.04,0.72c0.17,0.14,0.25,0.27,0.47,0.36
				c0.5,0.2,0.99-0.09,1.53,0.13c0.64,0.25,1.63,0.79,2.08-0.04c0.02-0.03,0.03-0.06,0.03-0.1c0.17-0.17,0.28-0.42,0.29-0.78
				c0-0.27-0.04-0.52-0.13-0.75C532.44,770.67,532.33,769.93,531.65,769.47z M522.54,771.78c-0.01,0.01-0.03,0.02-0.04,0.02
				c0.07-0.09,0.15-0.19,0.23-0.29C522.66,771.6,522.6,771.69,522.54,771.78z M522.73,771.5c0.14-0.17,0.26-0.33,0.29-0.36
				c0.07-0.07,0.13-0.13,0.19-0.19C523.05,771.11,522.89,771.3,522.73,771.5z M523.29,770.87c0.44-0.42,0.75-0.62,1.04-0.73
				C523.96,770.33,523.62,770.57,523.29,770.87z"/>
			<path class="st1" d="M499.74,792.05c0.62,0.45,2.02,0.2,2.72,0.16c0.15-0.01,0.23-0.12,0.24-0.24c0.57-0.19,0.59-0.68,0.34-1.23
				c-0.17-0.37-0.6-0.66-0.72-1.09c-0.15-0.52,0.09-1.02-0.08-1.53c-0.09-0.29-0.25-0.45-0.49-0.63c-0.68-0.52-1.25-0.8-1.78-1.53
				c-0.28-0.39-0.53-0.8-0.95-1.06c-0.58-0.36-1.32-0.4-1.67,0.25c-0.01,0.03-0.01,0.05,0.01,0.07c0,0.01,0.01,0.03,0.01,0.04
				c0.62,1.02,0.55,1.19,0.28,2.49c-0.06,0.31-0.18,0.49-0.15,0.81c0.08,0.72,0.68,1.04,1.11,1.53
				C499.09,790.64,499.17,791.63,499.74,792.05z M497.59,785.15c0.02-0.01,0.04-0.01,0.06-0.02c-0.01,0.03-0.01,0.06-0.01,0.09
				c0,0.01,0.01,0.02,0.01,0.04C497.64,785.22,497.62,785.19,497.59,785.15z M498.08,788.4c0-0.01,0-0.01,0-0.02
				C498.08,788.38,498.08,788.39,498.08,788.4C498.08,788.39,498.08,788.39,498.08,788.4z"/>
			<path class="st1" d="M503.67,787.16c0.06,0.22,0.14,0.31,0.32,0.42c0.54,0.34,1.9,0.13,2.51-0.04c0.45-0.13,0.87-0.41,0.8-0.94
				c-0.04-0.31-0.22-0.54-0.44-0.74c-0.03-0.11-0.1-0.22-0.2-0.29c-0.44-0.33-0.7-0.58-0.89-1.12c-0.07-0.19-0.13-0.37-0.21-0.54
				c0.07-0.46,0.2-0.91-0.25-1.33c-0.23-0.21-0.48-0.28-0.73-0.25c-0.04-0.03-0.09-0.06-0.13-0.09c-0.77-0.39-1.24,0.28-1.49,0.96
				c-0.21,0.12-0.39,0.27-0.47,0.55c-0.22,0.72,0.2,1.51,0.6,2.08c0.17,0.25,0.5,0.52,0.58,0.83
				C503.7,786.83,503.62,787,503.67,787.16z M504.39,787.18c-0.08-0.04-0.13-0.1-0.17-0.16
				C504.28,787.07,504.33,787.13,504.39,787.18z"/>
			<path class="st1" d="M503.55,773.47c-0.02,0.14-0.02,0.27-0.02,0.41c-0.07,0.55-0.24,1.08-0.49,1.65
				c-0.14,0.33-0.32,0.61-0.31,0.98c0.01,1.18,1.59,2.66,2.69,1.66c0.48-0.43,0.29-0.78,0.23-1.32c-0.16-1.28,0.14-2.49-0.14-3.79
				c-0.04-0.17-0.12-3.47-1.07-2.57c-0.43,0.12-0.42,0.45-0.42,0.95c0,0.01,0,0.02,0,0.03c0,0.39-0.37,0.8-0.33,1.32
				c0.01,0.13-0.05,0.25-0.05,0.38C503.61,773.28,503.56,773.38,503.55,773.47z M504.66,771.22c0.02,0.05,0.03,0.1,0.04,0.15
				c-0.02-0.05-0.05-0.1-0.08-0.14C504.64,771.22,504.65,771.22,504.66,771.22z"/>
			<path class="st1" d="M449.51,787.11c-0.5-1.34-0.35-2.53-0.48-3.95c0-0.05-0.12-0.47-0.27-0.9c0.01-0.05,0.02-0.09,0.03-0.14
				c0.07-0.36,0.14-0.81-0.18-1.08c-0.22-0.18-0.65-0.26-0.91-0.15c-0.12,0.05-0.2,0.15-0.25,0.27c-0.06,0.05-0.11,0.11-0.15,0.18
				c-0.23,0.15-0.4,0.38-0.51,0.7c-0.15,0.43-0.05,0.86-0.06,1.31c-0.01,0.57-0.15,1.1-0.21,1.65c-0.12,1.08,0.01,3.17,1.34,3.47
				c0.43,0.09,1.27,0.03,1.6-0.29C449.87,787.78,449.68,787.59,449.51,787.11z"/>
			<path class="st1" d="M449.54,792.73c-0.16,0.27-0.09,0.73-0.08,1c0.02,0.41,0.11,0.79,0.21,1.18c0.02,0.32,0.04,0.65,0.13,0.97
				c0.03,0.13,0.07,0.26,0.11,0.39c0,0.04,0,0.08,0,0.12c-0.01,0.18-0.1,0.42-0.09,0.61c0.04,0.65,0.47,0.89,0.99,1.21
				c0.42,0.25,1.08,0.77,1.59,0.48c0.32-0.19,0.4-0.59,0.29-0.93c-0.12-0.37-0.42-0.5-0.68-0.76c-0.62-0.62-0.64-1.17-0.66-2
				c-0.01-0.35,0.01-0.6-0.14-0.92c-0.17-0.36-0.45-0.89-0.67-1.22c-0.25-0.37-0.54-0.57-0.93-0.29
				C449.55,792.61,449.53,792.67,449.54,792.73z"/>
			<path class="st1" d="M444.06,791.22c-0.41-0.64-0.27-1.31-0.19-2.02c0.1-0.94,0.07-2.01-0.95-2.38c-0.16-0.06-0.3,0.12-0.27,0.27
				c0.03,0.17,0.08,0.33,0.14,0.49c0.01,0.02,0.02,0.02,0.03,0.04c0.02,0.4,0.08,0.77,0.12,1.19c-0.23,0.99-0.86,1.98-0.35,3
				c0.26,0.52,1.53,1.53,2.12,0.88c0.2-0.21,0.19-0.46,0.06-0.71C444.61,791.69,444.24,791.5,444.06,791.22z M443.14,787.6
				c-0.01-0.01-0.02,0-0.03-0.01c0-0.01-0.01-0.02-0.01-0.03s0.01-0.03,0.01-0.04c0.04,0.04,0.07,0.09,0.09,0.13
				C443.18,787.63,443.16,787.62,443.14,787.6z"/>
			<path class="st1" d="M466.13,794.73c-0.01-0.2-0.09-0.41-0.26-0.6c-0.26-0.3-0.65-0.38-1.02-0.24c-0.07,0.03-0.13,0.06-0.2,0.1
				c-0.04,0.01-0.07,0.03-0.1,0.06c-0.46,0.1-0.89,0.3-1.17,0.69c-0.21,0.3-0.19,0.5-0.22,0.85c-0.04,0.47,0.08,1.05-0.16,1.51
				c-0.35,0.71-0.49,0.32-0.79,0.67c-1.14,1.32,0.52,2.6,1.84,2.72c0.51,0.04,1.32-0.07,1.51-0.64c0.17-0.51-0.34-0.91-0.49-1.34
				c-0.36-1.07,0.43-1.41,1.23-1.82C467.4,796.13,466.91,795.33,466.13,794.73z"/>
			<path class="st1" d="M457.46,797.89c1.19,0.65,3.44,0.51,3.36-1.33c-0.03-0.67-0.39-0.73-0.76-1.01
				c-0.09-0.34-0.2-0.69-0.41-0.95c-0.27-0.34-0.68-0.45-1.08-0.59c-0.28-0.09-0.55-0.18-0.82-0.23c-0.36-0.41-0.63-0.9-1.24-1
				c-0.72-0.13-1.35,0.38-1.63,1c-0.22,0.48-0.42,1.34-0.08,1.81c0.34,0.46,3.71,0.84,2.62,2.07
				C457.37,797.72,457.37,797.85,457.46,797.89z"/>
			<path class="st1" d="M457.22,788.6c0.25-0.4,0.27-0.79,0.01-1.17c-0.08-0.12-0.22-0.16-0.35-0.09c-0.24,0.12-0.43,0.3-0.61,0.48
				c-0.5,0.1-1,0.2-1.52,0.26c-0.46,0.05-0.85,0.19-1.24,0.41c-0.89,0.08-1.86,0.27-2.03,1.01c-0.07,0.31,0.04,0.6,0.1,0.9
				c0.06,0.3-0.02,0.84,0.15,1.12c0.23,0.38,0.78,0.43,1.17,0.49c0.83,0.12,2.75,0.13,3.11-0.84c0.41-1.08-0.49-0.71,0.69-2.06
				C456.87,788.92,457.09,788.82,457.22,788.6z"/>
			<path class="st1" d="M456.51,804.4c-0.07-0.05-0.13-0.11-0.2-0.16c-0.17-0.33-0.39-0.56-0.64-0.79
				c-0.11-0.22-0.19-0.46-0.23-0.71c-0.06-0.12-0.03-0.32-0.13-0.41c-0.25-0.23-0.42-0.23-0.74-0.26c-0.35-0.04-0.67-0.06-1-0.09
				c-0.72-0.22-1.45-0.46-2.17-0.56c-0.46-0.06-0.84,0.06-1.18,0.3c-0.82,0.12-1.43,0.55-1.22,1.61c0.4,2.03,2.16,1.86,3.69,1.61
				c0.05,0.03,0.09,0.06,0.13,0.1c0.15,0.74,0.47,1.5,1.29,1.67c0.77,0.16,2.59-0.69,2.74-1.54
				C456.95,804.52,456.8,804.88,456.51,804.4z"/>
			<path class="st1" d="M460.78,803.44c0.01-0.34,0.02-0.68,0.03-1.02c0.05-0.05,0.1-0.1,0.15-0.16c0.03-0.08,0.12-0.15,0.15-0.24
				c0.58-1.64-2.71-1.5-3.46-1.41c-0.12,0.01-0.19,0.09-0.21,0.17c-0.08,0.06-0.12,0.15-0.1,0.27c0.05,0.39,0.8,0.66,1.07,0.84
				c0.62,0.39,0.66,0.81,0.7,1.5c0.02,0.33,0.04,0.74,0.17,1.06c0.2,0.48,0.63,0.68,1.13,0.63c0.4-0.04,1.17-0.26,1.04-0.8
				C461.37,803.93,460.9,803.78,460.78,803.44z M460.4,802.12c0-0.01-0.01-0.02-0.01-0.03c0.02-0.01,0.03-0.02,0.04-0.04
				C460.43,802.08,460.42,802.1,460.4,802.12z"/>
			<path class="st1" d="M473.3,799.91c-0.2-0.38-0.36-0.67-0.39-1.16c-0.01-0.28,0.1-0.18,0.02-0.54c-0.31-1.34-2.65-1.87-3.4-0.7
				c-0.01,0.01-0.01,0.02-0.01,0.03c-0.08,0.1-0.14,0.21-0.13,0.33c0.01,0.33,0.14,0.25,0.32,0.47c0.23,0.29,0.6,0.5,0.79,0.87
				c0.06,0.29,0.08,0.6,0.04,0.91c-0.02,0.17-0.02,0.33-0.01,0.49c0,0.02,0,0.03,0,0.05c-0.08,1.28,1.14,2.63,2.45,1.9
				c0.59-0.33,0.87-0.97,0.8-1.63C473.72,800.5,473.49,800.26,473.3,799.91z"/>
			<path class="st1" d="M482.23,806.31c-0.05-0.36-0.19-0.74-0.33-1.11c0.13-0.53,0.31-1.07,0.44-1.47
				c0.03-0.09,0.06-0.17,0.09-0.25c0.55-0.41,1.11-0.61,1.98-0.42c0.2,0.04,0.4,0.1,0.6,0.15c0.37,0.22,0.73,0.42,1.3,0.34
				c0.37-0.05,0.72-0.21,1.05-0.42c0.24-0.13,0.44-0.29,0.6-0.49c0.21-0.21,0.39-0.42,0.54-0.64c0.92-1.35,0.61-2.83-0.63-3.88
				c-1.02-0.86-2.21-1.08-3.35-0.8c-0.02-0.04-0.07-0.06-0.11-0.02c-0.02,0.02-0.04,0.04-0.06,0.06c-0.56,0.16-1.1,0.44-1.59,0.83
				c-0.03,0.02-0.04,0.04-0.05,0.07c-0.63,0.15-1.28,0.21-1.92,0.56c-0.45,0.25-1.24,0.92-1.6,1.25c-0.13,0.13-0.3,0.22-0.41,0.37
				c-0.42,0.54-0.45,1.3-0.26,1.93c0.09,0.28,0.42,0.66,0.5,0.91c0.38,1.28,0,0.91-0.86,1.71c-2.88,2.7,2.23,3.67,3.45,2.37
				C482.02,807.2,482.3,806.89,482.23,806.31z"/>
			<path class="st1" d="M460.08,765.52c0.67,0.16,1.24-0.56,1.39-1.12c0.02-0.03,0.05-0.05,0.07-0.08c0.04-0.06,0.05-0.12,0.05-0.18
				c0.84-0.98,1.62-1.99,2.97-2.39c1.03-0.3,1.86-1.06,1.68-2.23c-0.02-0.15-0.24-0.19-0.33-0.09c-1.04,1.17-2.13,1.95-3.38,2.86
				c-0.66,0.48-1.14,1.15-1.82,1.61c-0.28,0.18-0.76,0.34-0.95,0.64C459.5,764.93,459.61,765.41,460.08,765.52z"/>
			<path class="st1" d="M461.34,768.16c-0.04,0.03-0.06,0.07-0.06,0.14c0.01,0.32,0.15,0.57,0.5,0.63c0.61,0.1,1.12-0.83,1.45-1.17
				c0.32-0.32,0.65-0.63,1-0.93c0.33-0.09,0.67-0.19,1.01-0.34c0.77-0.34,0.81-0.74,1.17-1.39c0.23-0.42,2.64-1.97,1.39-2.58
				c-1.26-0.62-2.41,2-2.96,2.62C463.95,766.12,461.33,766.54,461.34,768.16z"/>
			<path class="st1" d="M473.17,764.8c-0.39,0.52-0.75,1.18-0.14,1.51c0.01,0.02,0.01,0.04,0.02,0.06c0.04,0.08,0.15,0.14,0.23,0.13
				c1.84-0.05,3.16-1.1,4.38-2.33c0.48-0.48,2.39-2.09,0.86-2.63c-0.45-0.16-0.86,0.02-1.22,0.29c-0.91,0.71-1.57,1.35-2.7,1.75
				C473.84,763.87,473.35,764.25,473.17,764.8z"/>
			<path class="st1" d="M482.37,769.49c-0.09,0.22-0.05,0.48,0.2,0.63c0.21,0.12,0.42,0.27,0.64,0.41c0.15,0.22,0.33,0.41,0.6,0.51
				c0.17,0.07,0.36,0.06,0.55,0.02c0.43,0.09,0.9,0.07,1.35,0.03c0.43,0.14,0.83,0.33,1.29,0.36c0.49,0.03,0.99-0.04,1.32-0.44
				c0.26-0.32,0.19-0.54,0.28-0.92c0.09-0.36,0.38-1.09,0.37-1.39c-0.01-0.42-0.1-0.67-0.55-0.79c-0.14-0.04-0.39,0.06-0.47,0.06
				c-0.13,0.05-0.25,0.12-0.37,0.19c-0.56,0.25-1.06,0.21-1.49-0.11c-1.13-0.21-1.86-0.18-3.03-0.07c-0.82,0.08-1.51-0.03-2.12,0.56
				c-0.1,0.1-0.08,0.28,0.05,0.35c0.44,0.25,0.86,0.42,1.31,0.5C482.31,769.43,482.34,769.46,482.37,769.49z"/>
			<path class="st1" d="M493.85,790.26c0.46-0.33,0.27-0.66,0.03-1.04c-0.12-0.2-0.46-0.46-0.59-0.66
				c-0.38-0.57-0.29-0.74-0.16-1.35c0.08-0.39,0.27-0.59,0.13-1c-0.13-0.39-0.62-0.92-0.9-1.22c-0.25-0.28-0.49-0.37-0.82-0.5
				c-0.55-0.23-1.72-1.21-2.4-0.8c-0.33,0.2-0.34,0.45-0.17,0.67c-0.04,0.12,0.02,0.09,0.06,0.48c0.01,0.14,0.17,0.49,0.3,0.77
				c0.07,0.32,0.18,0.63,0.3,0.93c0.02,0.17,0.05,0.35,0.08,0.52c0.24,1.12,1.32,2.03,2.17,2.74
				C492.39,790.21,493.21,790.72,493.85,790.26z"/>
			<path class="st1" d="M482.75,793.94c0.35,0.16,0.55,0.1,0.77,0.47c0.15,0.26,0.14,0.43,0.42,0.62c0.58,0.41,3.07,0.4,3.07-0.61
				c0-0.25-0.18-0.37-0.32-0.54c-0.45-0.54-0.53-0.83-0.68-1.47c-0.09-0.38-0.19-0.73-0.4-0.99c-0.23-0.93-2.17-0.86-2.6,0.08
				c-0.54,0.24-0.96,0.63-1.01,1.26C481.96,793.27,482.29,793.73,482.75,793.94z"/>
			<path class="st1" d="M484.59,786.82c-0.07-0.09-0.12-0.21-0.25-0.25c-0.01,0-0.01,0-0.02,0c-0.39-0.32-1.31,0.16-1.28,0.74
				c-0.14,0.14-0.28,0.29-0.39,0.44c-0.16,0.15-0.27,0.33-0.28,0.55c0,0.01,0,0.03,0.01,0.04c0,0.18,0.09,0.33,0.33,0.46
				c0.08,0.04,0.16,0.07,0.24,0.09c0.06,0.03,0.12,0.04,0.19,0.04c0.08,0.01,0.16,0.02,0.23,0.02c0.06,0.01,0.12,0.02,0.19,0.01
				h0.01c0.36,0,0.72-0.01,1.07,0.16c0.39,0.2,0.8,0.47,1.24,0.25c0.91-0.46,0.07-1.44-0.45-1.77
				C485.07,787.37,484.84,787.16,484.59,786.82z"/>
			<path class="st1" d="M471.95,783.94c-0.36,0.13-0.69,0.33-1.06,0.44c-0.21,0.06-0.41,0.07-0.57,0.24
				c-0.28,0.31-0.17,0.66,0.04,0.95c0.01,0.28,0.28,0.49,0.52,0.67c0.11,0.2,0.3,0.34,0.54,0.35c0.19,0.12,0.37,0.25,0.52,0.41
				c0.19,0.22,0.24,0.54,0.49,0.7c0.32,0.2,0.71,0.01,0.85-0.31c0.11-0.26,0.03-0.55-0.05-0.79c-0.17-0.53-0.11-0.77,0.11-1.28
				C473.77,784.28,472.98,783.57,471.95,783.94z"/>
			<path class="st1" d="M491.02,807.4c0.03-0.11,0.05-0.22,0.06-0.33c0.14-0.43,0.33-0.85,0.43-1.28c0.53-0.44,1.03-1.12,0.51-1.7
				c-0.56-0.62-1.49-0.57-2.03-0.05c-0.95,0.18-2.09,0.56-2.3,1.57c-0.24,1.13,0.4,2.2,1.32,2.79c-0.48,0.6-0.96,1.2-1.44,1.81
				c-0.09,0.12-0.09,0.35,0.1,0.38c0.51,0.08,2.22,0.64,2.93,0.19c0.04-0.01,0.08-0.02,0.13-0.03c0.2-0.01,0.38-0.07,0.54-0.22
				c0.63-0.64-0.26-1.75-0.33-2.4c-0.02-0.16-0.01-0.32,0.01-0.48C490.98,807.55,491,807.48,491.02,807.4z"/>
			<path class="st1" d="M484.21,813.21c0.21-0.13,0.36-0.36,0.42-0.6c0.11-0.4-0.15-0.75-0.1-1.11c0.13-0.87,1.33-0.14,1.65-0.9
				c0.21-0.51-0.23-1.08-0.62-1.36c-0.45-0.33-1.08-0.47-1.6-0.18c-0.24,0.14-0.36,0.33-0.5,0.56c-0.24,0.39-0.26,0.63-0.7,0.93
				c-0.05,0.03-0.1,0.06-0.14,0.09c-0.34,0.01-0.67,0.07-0.78,0.43c-0.19,0.62,0.69,1.29,1.05,1.67
				C483.25,813.11,483.67,813.55,484.21,813.21z"/>
			<path class="st1" d="M495.99,810.89c0.5-0.18,0.46-0.98-0.13-0.97c-1.54,0.01-2.57,1.14-3.21,2.45c-0.4,0.83-0.62,1.74-1.02,2.57
				c-0.59,1.21-1.63,1.79-2.71,2.52c-0.15,0.1-0.06,0.37,0.13,0.3c1.36-0.46,2.57-1.15,3.44-2.31
				C493.67,813.86,493.93,811.64,495.99,810.89z"/>
			<path class="st1" d="M489.62,812.67c-0.53-0.5-1.33,0.3-1.76,0.58c-0.18,0.12-0.37,0.23-0.54,0.36
				c-0.11,0.06-0.23,0.13-0.35,0.18c-0.3,0.14-0.62,0.26-0.94,0.38c-0.52,0.06-1.02,0.28-1.42,0.63c-0.84,0.73-1.26,1.86-0.06,2.36
				c1.02,0.42,2.25,0.38,2.88-0.44c0.04-0.02,0.08-0.05,0.1-0.1c0.21-0.45,0.6-0.68,0.97-0.98c0.35-0.28,0.62-0.63,0.83-1.03
				C489.58,814.15,490.11,813.13,489.62,812.67z"/>
			<path class="st1" d="M510.59,786.3c0,0.02,0,0.04,0,0.05c0,0.02,0,0.05,0.01,0.07c0.03,0.38,0.11,0.72,0.25,0.86
				c0.04,0.04,0.1,0.06,0.15,0.04c0.41-0.11,0.22-0.12,0.77-0.02c0.57,0.1,0.5,0.26,0.94,0.53c0.38,0.24,0.79,0.28,1.23,0.23
				c0.76-0.08,1.86-0.32,2.03-1.21c0.16-0.82-0.57-1.53-1.25-1.82c-0.65-0.28-1.42-0.1-2.15,0.02c-0.16,0.01-0.33,0.01-0.49-0.03
				c-0.42-0.1-0.69-0.5-1.13-0.54c-0.5-0.05-0.91,0.33-0.74,0.83c0.07,0.23,0.23,0.42,0.42,0.57c-0.01,0.1-0.02,0.2-0.02,0.3
				C510.59,786.23,510.59,786.26,510.59,786.3z"/>
			<path class="st1" d="M520.39,780.79c-0.04-0.24-0.16-0.46-0.36-0.61c-0.35-0.25-0.86-0.22-1.16,0.09
				c-0.19,0.2-0.15,0.46-0.3,0.66c-0.06,0.09-0.18,0.17-0.32,0.25c-0.39,0.19-0.82,0.34-1.21,0.49c-0.32,0.09-0.67,0.17-0.93,0.35
				c-0.25,0.12-0.48,0.27-0.54,0.53c-0.26,1.08,1.45,1.36,2.13,1.16c0.53-0.16,0.89-0.18,1.43-0.08c0.3,0.06,0.57,0.04,0.88-0.01
				c0.41-0.07,0.91-0.22,1.07-0.65c0.14-0.37-0.01-1.18-0.13-1.52C520.85,781.19,520.64,780.97,520.39,780.79z"/>
			<path class="st1" d="M522.84,783.92c-0.05,0.14-0.07,0.3-0.01,0.44c0.12,0.31,0.45,0.42,0.76,0.46c0.59,0.07,1.65-0.22,1.36-1.04
				c-0.06-0.17-0.22-0.28-0.24-0.46s0.06-0.37,0.05-0.55c-0.03-0.35-0.22-0.58-0.5-0.77c-0.04-0.03-0.08,0.01-0.12,0.01h-0.01
				c-0.65,0-1.28,0.6-1.17,1.28c0.02,0.13,0.07,0.24,0.04,0.38C522.97,783.75,522.88,783.82,522.84,783.92z"/>
			<path class="st1" d="M520.5,789.45c-0.39-0.16-0.79-0.1-1.17-0.31c-0.25-0.14-0.4-0.34-0.69-0.4c-0.63-0.12-1.35,0.29-1.9,0.61
				c-0.14,0.03-0.27,0.06-0.39,0.13s-0.21,0.11-0.26,0.23c-0.19,0.44,0.46,0.9,0.77,1.07c0.28,0.15,0.58,0.21,0.89,0.26
				c0.54,0.09,0.75,0.51,1.18,0.7c0.07,0.03,0.15,0.05,0.22,0.06c0.17,0.14,0.43,0.15,0.65,0.13c0.32-0.03,0.55-0.17,0.66-0.43
				C521.25,791.01,521.49,789.86,520.5,789.45z"/>
			<path class="st1" d="M519.31,795.32c1.05-0.19,1.71-1.3,0.81-1.6c-0.02-0.05-0.05-0.09-0.12-0.1c-0.85-0.1-1.72-0.08-2.55-0.21
				c-0.66-0.1-0.91-0.08-1.65-0.53c-0.15-0.09-0.08-0.17-0.36-0.28c-0.75-0.27-1.36,0.15-1.92,0.62c-0.11,0.09-0.08,0.31,0.05,0.36
				c0.42,0.19,0.76,0.21,1.21,0.28c0.16,0.03,0.3,0.06,0.43,0.1c0.12,0.07,0.23,0.13,0.36,0.2c0.52,0.27,0.97,0.66,1.48,0.92
				c0.06,0.03,0.12,0.06,0.18,0.08C517.86,795.46,518.62,795.45,519.31,795.32z M514.25,793.39
				C514.25,793.38,514.25,793.38,514.25,793.39c0.01,0,0.01,0,0.02,0C514.26,793.39,514.25,793.39,514.25,793.39z M514.36,793.42
				c0.02,0,0.04,0.01,0.07,0.01c0.01,0,0.01,0.01,0.01,0.01C514.41,793.43,514.39,793.42,514.36,793.42z"/>
			<path class="st1" d="M522.06,800.03c-0.07-0.26-0.23-0.43-0.18-0.69c0.03-0.14,0.13-0.21,0.12-0.36
				c-0.03-0.3-0.23-0.41-0.45-0.48c-0.02-0.02-0.04-0.04-0.06-0.06c-0.15-0.13-0.33-0.16-0.52-0.16c-0.02,0-0.04,0-0.05,0
				c-0.19,0.01-0.38,0.05-0.56,0.06c-0.2,0.02-0.4,0.03-0.6,0.05c-0.05,0-0.1,0-0.15,0c-0.35-0.02-0.7-0.14-1.05-0.13
				c-0.31,0.01-0.61,0.16-0.61,0.51c-0.01,0.63,0.88,0.65,1.17,1.03c0.31,0.42,0.36,0.85,0.9,1.05
				C520.55,801.04,522.31,800.97,522.06,800.03z"/>
			<path class="st1" d="M527.88,758.13c0.07-0.12,0.11-0.2,0.12-0.28c0.19-0.17,0.38-0.33,0.58-0.47c0.33-0.23,0.73-0.36,1.05-0.61
				c0.05-0.04,0.1-0.08,0.14-0.13c0.17,0,0.24,0.04,0.48-0.34c0.31-0.47,0.34-1.46,0.37-2.05c0.08-1.4-0.07-2.46,0.83-3.61
				c0.08-0.07,0.16-0.14,0.26-0.21c0.1-0.07,0.1-0.2,0.03-0.27c-0.03-0.16-0.23-0.28-0.38-0.13c-0.18,0.18-0.35,0.37-0.5,0.57
				c-0.61,0.53-1.02,1.18-1.5,1.89c-0.72,1.06-1.96,1.8-2.52,2.93c-0.35,0.7-0.3,1.52-0.54,2.25c-0.31,0.94-0.94,1.58-1.44,2.39
				c-0.37,0.6-0.66,1.04-0.53,1.61c-0.06,0.42,0.1,0.47,0.42,0.8c0.07,0.07,0.36-0.04,0.41,0c0.13,0.1,0.47,1.11,0.74,1.29
				c1.18,0.79,3.2-0.59,2.88-2c-0.31-1.39-2.03-0.76-1.41-2.75C527.42,758.87,527.77,758.33,527.88,758.13z"/>
			<path class="st1" d="M546.41,764.96c0.08,0.18,0.08,0.3,0.26,0.41c0.42,0.26,1.33,0.17,1.77-0.01c0.28-0.11,0.56-0.34,0.46-0.68
				c-0.09-0.31-0.42-0.34-0.58-0.57c-0.01-0.02-0.02-0.03-0.03-0.05c-0.02-0.05-0.03-0.09-0.05-0.14c-0.02-0.07-0.06-0.12-0.1-0.17
				c-0.06-0.27,0.25-0.26,0.3-0.55c0.02-0.09,0-0.18-0.03-0.26c0.01-0.07,0.01-0.13,0-0.2c-0.04-0.29-0.25-0.64-0.53-0.77
				c-0.38-0.18-0.75,0.04-1.08,0.22c-0.21,0.11-0.54,0.26-0.82,0.44c-0.19,0.06-0.38,0.13-0.51,0.28c-0.32,0.37-0.14,0.84,0.15,1.16
				C545.93,764.4,546.23,764.52,546.41,764.96z"/>
			<path class="st1" d="M441.08,788.44c0.05-0.15,0.07-0.29,0.01-0.45c-0.08-0.21-0.28-0.35-0.51-0.33
				c-0.34,0.04-0.46,0.34-0.49,0.65c-0.47,0.58-0.94,1.05-1.52,1.49c-0.04,0.02-0.07,0.04-0.11,0.06c-0.39,0.19-0.65,0.35-0.83,0.62
				c-0.24,0.19-0.47,0.39-0.65,0.62c-0.14,0.18-0.23,0.36-0.3,0.53c-0.2,0.24-0.37,0.5-0.47,0.79c-0.5,0.87-0.7,1.82,0.1,2.3
				c0.08,0.13,0.15,0.25,0.22,0.39c0.02,0.07,0.05,0.14,0.07,0.2c0.04,0.13-0.01,0.28,0.06,0.4c0.16,0.26,0.36,0.38,0.67,0.29
				c0.24-0.07,0.34-0.26,0.42-0.47c0.16-0.39,0.03-1.47,0.11-1.85c0.16-0.74,0.49-1.4,0.95-2c0.19-0.25,0.43-0.48,0.68-0.72
				c0.22-0.18,0.44-0.38,0.64-0.59C440.7,789.84,441.17,789.25,441.08,788.44z"/>
			<path class="st1" d="M443.38,799.45c0.03-0.14,0.01-0.29-0.11-0.41c-0.04-0.04-0.07-0.07-0.1-0.11
				c-0.04-0.08-0.08-0.17-0.12-0.26c-0.21-0.47-0.32-0.86-0.34-1.26c0-0.05,0.01-0.09,0.01-0.14c0.04-0.3,0.07-0.6,0.1-0.91
				c0.12-0.52,0.33-1.1,0.1-1.61c-0.29-0.64-1.57-1.18-1.97-0.42c-0.09,0.17,0.1,0.34,0.25,0.26c0.47,0.71,0.08,1.73,0.11,2.51
				c0.02,0.51,0.08,1.08,0.25,1.57c0.25,0.73,0.79,1.23,1.58,1.19c0.17-0.01,0.3-0.16,0.26-0.34
				C443.4,799.5,443.39,799.48,443.38,799.45z"/>
			<path class="st1" d="M466.27,804.18c-0.03-0.35-0.02-0.77-0.2-1.08c-0.34-0.58-0.99-0.47-1.34,0.04
				c-0.42,0.61-0.74,1.55-0.5,2.28c0.08,0.25,0.22,0.45,0.39,0.6c0.22,0.55,1.01,0.83,1.51,0.53c0.31-0.18,0.45-0.55,0.44-0.9
				c0-0.3-0.11-0.56-0.24-0.81C466.32,804.62,466.29,804.4,466.27,804.18z"/>
			<path class="st1" d="M432.95,794.57c0.23,0.06,0.47-0.06,0.59-0.26c0.28-0.46,0.1-1.14,0.28-1.65c0.13-0.37,0.34-0.72,0.6-1.01
				c0.11-0.12,0.26-0.24,0.36-0.38c0.06,0,0.13-0.02,0.16-0.09c0.12-0.25,0.05-0.52-0.19-0.67c-0.28-0.17-0.61-0.07-0.87,0.09
				c-0.13,0.08-0.28,0.19-0.41,0.32c-0.38,0.23-0.64,0.62-0.74,1.18c-0.11,0.58-0.14,1.19-0.12,1.78
				C432.61,794.17,432.61,794.48,432.95,794.57z M434.38,790.92c0.01,0,0.01,0.01,0.01,0.02c-0.01-0.01-0.02-0.01-0.03-0.02
				C434.37,790.92,434.37,790.92,434.38,790.92z"/>
			<path class="st1" d="M451.35,778.82c0.77,0.06,1.06-0.61,1.32-1.21c0.13-0.3,0.26-0.62,0.38-0.96c0.46-0.76,0.82-1.54,0.94-1.81
				c0.46-1,0.75-1.71,1.67-2.38c0.51-0.37,0.98-0.78,1.42-1.22c0.52-0.53,1.42-1.23,1.1-2.04c-0.07-0.18-0.26-0.29-0.45-0.18
				c-1.8,1.11-3.61,2.33-4.39,4.29c-0.37,0.92-1.02,1.39-1.48,2.14c-0.28,0.22-0.52,0.48-0.68,0.81c-0.26,0.3-0.46,0.65-0.58,1.05
				C450.4,777.96,450.57,778.76,451.35,778.82z"/>
			<path class="st1" d="M479.97,773.44c-0.25-0.47-0.51-0.63-1.01-0.82c-0.51-0.19-1.35-0.61-1.91-0.5
				c-0.21-0.08-0.56-0.24-0.75-0.11c-0.37,0.25-0.26,0.67-0.05,1.03c0,0.06,0.01,0.12,0.03,0.2c0.1,0.36,0.49,0.5,0.72,0.76
				c0.2,0.22,0.38,0.43,0.58,0.61c0.01,0.01,0.02,0.03,0.03,0.04c0.13,0.2,0.18,0.26,0.43,0.33c0.09,0.03,0.19,0.05,0.29,0.06
				c0.41,0.17,0.94,0.32,1.39,0.27c0.49,0.17,0.99,0.18,1.45-0.21c0.17-0.14,0.16-0.39,0.07-0.57
				C480.96,773.93,480.28,774,479.97,773.44z"/>
			<path class="st1" d="M497.92,794.61c-0.09-0.12-0.21-0.2-0.33-0.28c-0.16-0.21-0.19-0.43-0.32-0.64
				c-0.41-0.67-1.37-0.33-1.87-0.9c-0.06-0.06-0.14-0.06-0.21-0.03c-0.24,0.1-0.4,0.32-0.39,0.59c0,0.07,0.03,0.12,0.06,0.18
				c0.01,0.05,0.03,0.1,0.08,0.14c0.03,0.02,0.06,0.05,0.09,0.07c0.06,0.05,0.12,0.11,0.18,0.16c0.05,0.13,0.11,0.26,0.17,0.39
				c-0.09,0.17-0.09,0.39,0.07,0.57c0.09,0.11,0.19,0.2,0.3,0.28c0.02,0.04,0.04,0.09,0.05,0.13c0.09,0.2,0.16,0.51,0.38,0.62
				c0.06,0.03,0.14,0.04,0.23,0.04c0.11,0.04,0.24,0.06,0.36,0.06c0.39,0.01,0.89-0.03,1.16-0.33c0.11-0.03,0.22-0.08,0.27-0.17
				c0.12-0.19-0.01-0.41-0.14-0.58C498.03,794.8,497.98,794.69,497.92,794.61z M495.36,793.2c-0.01-0.01-0.02-0.01-0.02-0.02
				C495.34,793.19,495.35,793.2,495.36,793.2L495.36,793.2z"/>
			<path class="st1" d="M521.75,793.91c-0.09,0.22,0,0.43,0.2,0.55c0.07,0.04,0.17,0.07,0.26,0.1c-0.03,0.08-0.04,0.17-0.01,0.26
				c0.05,0.2,0.27,0.39,0.48,0.37c0.2-0.02,0.39-0.07,0.56-0.14c0.24-0.06,0.46-0.18,0.61-0.38c0.24-0.33,0.23-0.79,0.01-1.11
				c-0.02-0.08-0.05-0.16-0.12-0.23c-0.2-0.21-0.44-0.18-0.69-0.13c-0.22,0.04-0.43,0.11-0.63,0.19c-0.06,0.03-0.12,0.05-0.18,0.08
				c-0.03,0.01-0.05,0.03-0.07,0.04c-0.03,0.01-0.05,0.03-0.08,0.04C521.93,793.65,521.81,793.76,521.75,793.91z"/>
			<path class="st1" d="M447.83,792.5c-0.18-0.35-0.62-0.31-0.87-0.06c-0.1,0.1-0.16,0.22-0.2,0.35c-0.92,0.75-0.89,2.17-1.02,3.35
				c-0.01,0.05-0.02,0.11-0.03,0.16c-0.12,0.95-0.27,2.24,0.05,3.17c0.31,0.9,1.27,1.38,1.48,0.16c0.07-0.38-0.1-0.63-0.15-0.99
				c-0.14-0.98-0.07-1.76,0.1-2.71c0.08-0.44,0.08-0.89,0.14-1.33c0.16-0.25,0.29-0.53,0.41-0.81c0.14-0.33,0.34-0.81,0.1-1.11
				C447.86,792.62,447.86,792.56,447.83,792.5z"/>
			<path class="st1" d="M557.03,752.36c-0.15,0-0.33-0.02-0.55-0.05c-1.33-0.2-0.81-0.31-1.72-0.86c-0.16-0.09-0.33-0.2-0.51-0.24
				c-0.69-0.16-1.11,0.25-1.68,0.53c-0.6,0.3-1.13,0.39-1.63,0.4c-0.64-0.12-1.3-0.17-1.94-0.27c-0.46-0.07-0.88-0.08-1.29,0.04
				c-0.06-0.02-0.11,0-0.16,0.02c-0.18,0.01-0.36,0.08-0.58,0.21c-0.17,0.11-0.32,0.31-0.3,0.52c0.01,0.09,0.02,0.17,0.02,0.26
				c0.01,0.14,0.07,0.28,0.16,0.4c0.05,0.17,0.08,0.34,0.05,0.5c-0.01,0.05,0,0.09,0.02,0.12c0.03,0.22,0.14,0.39,0.31,0.52
				c0.05,0.27,0.17,0.51,0.46,0.7c0.52,0.34,1.05-0.06,1.57,0c0.79,0.08,1.35,0.79,2.02,1.12c0.81,0.4,2.08,0.34,2.92,0.05
				c1.25-0.44,2.12-1.51,3.58-1.5c0.77,0,0.93-0.1,1.46-0.41c0.06-0.02,0.12-0.04,0.18-0.06s0.09-0.06,0.12-0.09
				c0.98-0.39,2.11,0.23,2.76-0.93c0.02-0.02,0.05-0.05,0.08-0.07c0.11-0.1,0.13-0.24,0.09-0.36c0.65-2.06-1.11-1.16-2.39-1.54
				c-0.1-0.29-0.3-0.58-0.57-0.81c-0.2-0.17-0.49-0.24-0.73-0.09c-0.24,0.14-0.31,0.28-0.5,0.44c-0.06,0.14-0.03,0.29-0.04,0.45
				C557.89,751.82,557.46,752.15,557.03,752.36z"/>
			<path class="st1" d="M533.57,740.79c-0.01,0.03-0.01,0.05,0.01,0.08c0.01,0.05,0.02,0.09,0.03,0.14
				c0.32,0.93,2.03-0.78,2.28-1.14c0.61-0.89,0.15-1.92-1-1.73c-0.52,0.08-0.99,0.39-1.24,0.86c-0.12,0.22-0.19,0.49-0.19,0.74
				c0,0.17,0.12,0.42,0.17,0.64C533.58,740.51,533.56,740.65,533.57,740.79z"/>
			<path class="st1" d="M537.31,755.81c0.35-0.18,0.59-0.69,0.25-1.01c-0.19-0.18-0.41-0.19-0.62-0.11c-0.01,0-0.02,0.01-0.03,0.01
				c-0.08,0.03-0.15,0.07-0.22,0.12c-0.03,0.01-0.06,0.03-0.09,0.04c-0.08,0.05-0.15,0.1-0.21,0.16c-0.13,0.15-0.2,0.36-0.11,0.55
				C536.45,755.95,536.99,755.98,537.31,755.81z"/>
			<path class="st1" d="M530.29,760.3c0.46,0.29,1.13-0.08,1.56-0.31c0.2-0.11,0.38-0.27,0.57-0.45c0.34-0.08,0.66-0.23,0.95-0.42
				c0.71,0,1.54-0.62,1.29-1.31c-0.39-1.1-1.9-0.69-2.49-0.05c-0.3,0.32-0.43,0.73-0.83,0.96c-0.25,0.14-0.53,0.22-0.76,0.42
				c-0.18,0.16-0.3,0.33-0.33,0.53c-0.06,0.09-0.11,0.2-0.12,0.34C530.11,760.12,530.2,760.24,530.29,760.3z M533.69,757.87
				c-0.05-0.02-0.09-0.04-0.14-0.05C533.62,757.81,533.67,757.83,533.69,757.87z"/>
			<path class="st1" d="M535.77,760.97c-0.08,0.12-0.02,0.28,0.09,0.36c0.73,0.48,2.61,0.75,2.76-0.48
				c0.06-0.48-0.17-1.04-0.69-1.12c-0.27-0.04-0.5,0.08-0.69,0.26c-0.14,0.13-0.26,0.26-0.4,0.37
				C536.42,760.33,536.02,760.62,535.77,760.97z"/>
			<path class="st1" d="M539.79,755.88c-0.3-0.09-0.58,0.08-0.72,0.34c-0.03,0-0.05,0.01-0.07,0.03c-0.21,0.23-0.1,0.58,0.18,0.7
				c0.3,0.14,0.73,0.04,0.93-0.23C540.32,756.4,540.15,755.98,539.79,755.88z"/>
			<path class="st1" d="M545.12,757.99c0.12-0.31,0.06-0.55-0.11-0.72c-0.03-0.26-0.17-0.43-0.36-0.5
				c-0.47-0.49-1.86-0.39-2.27-0.02c-0.19,0.18-0.3,0.4-0.26,0.66c0.06,0.47,0.36,0.71,0.24,1.22c-0.13,0.51,0.09,0.89,0.63,0.99
				s1.22-0.17,1.57-0.57c0.08-0.09,0.15-0.2,0.17-0.32c0.01-0.07-0.05-0.34-0.06-0.31C544.7,758.37,545.05,758.18,545.12,757.99z
				 M542.91,757.69c0-0.01-0.01-0.02-0.01-0.03c0.01,0,0.01,0,0.02,0C542.92,757.67,542.91,757.68,542.91,757.69z"/>
			<path class="st1" d="M534.22,762.14c-0.03-0.05-0.05-0.1-0.07-0.15c0-0.19-0.11-0.35-0.29-0.42c-0.01-0.01-0.03-0.01-0.04-0.02
				c-0.01,0-0.01,0-0.02,0s-0.01-0.01-0.02-0.01s-0.01,0-0.02,0s-0.02-0.01-0.03-0.01c0-0.01,0-0.02-0.01-0.02
				c-0.3-0.29-1.11,0.12-1.11,0.52c0,0.24,0.21,0.36,0.38,0.48c0.22,0.15,0.37,0.41,0.64,0.49c0.21,0.06,0.45,0.03,0.6-0.14
				C534.43,762.64,534.35,762.37,534.22,762.14z"/>
			<path class="st1" d="M538.79,763.73c0.32,0.1,0.66,0.1,0.94-0.02c0.57-0.26,0.07-1.55-0.54-1.29c-0.19,0.08-0.33,0.21-0.54,0.26
				c-0.2,0.05-0.43,0.03-0.63,0.1c-0.3,0.11-0.35,0.46-0.13,0.67C538.12,763.66,538.47,763.76,538.79,763.73z"/>
			<path class="st1" d="M543.11,762.67c0.11-0.1,0.09-0.31-0.03-0.4c0-0.12-0.09-0.26-0.25-0.26c-0.41-0.01-0.79,0.09-1.15,0.3
				c-0.18,0.11-0.15,0.33,0,0.44C542.11,763.08,542.72,763.02,543.11,762.67z"/>
			<path class="st1" d="M552.27,768.87c0.28,0.45,0.72,0.74,1.25,0.5c0.47-0.21,0.7-0.79,0.53-1.27c-0.05-0.15-0.15-0.25-0.27-0.31
				c-0.09-0.29-0.34-0.45-0.65-0.49c-0.22-0.03-0.43,0.02-0.65,0.05c-0.38,0.06-0.69,0.06-1.06-0.05c-0.27-0.08-0.45,0.22-0.34,0.45
				c0.11,0.23,0.28,0.37,0.49,0.5C551.88,768.44,552.07,768.54,552.27,768.87z"/>
			<path class="st1" d="M539.22,774.51c-0.15-0.18-0.35-0.29-0.39-0.56c0-0.01,0.09-0.56,0.09-0.55c-0.02-0.32-0.18-0.58-0.38-0.82
				c-0.37-0.45-0.96-0.93-1.56-1c-0.46-0.25-0.99-0.26-1.51-0.06c-0.47,0.18-1.06,0.57-0.63,1.11c0.71,0.88,2.35,0.36,2.15,2.09
				c-0.02,0.21-0.21,0.26-0.11,0.52c0.09,0.22,0.5,0.38,0.68,0.44C538.47,775.98,540.16,775.62,539.22,774.51z M537.67,772.54
				c-0.01-0.01-0.03-0.03-0.04-0.04c0.02,0.01,0.03,0.03,0.05,0.04C537.68,772.54,537.68,772.54,537.67,772.54z"/>
			<path class="st1" d="M530.18,776.82c0.02-0.76-0.29-1.61-1.02-1.94c-0.51-0.23-2-0.76-2.56-0.4c-0.28,0.18-0.33,0.49-0.18,0.72
				c0,0.01-0.01,0.02-0.01,0.04c-0.01,0.18,0.09,0.34,0.25,0.41c0.03,0.02,0.07,0.02,0.1,0.02c0.02,0.02,0.04,0.04,0.06,0.06
				c0,0.02,0,0.03-0.01,0.02c0.39,0.56,0.88,0.06,1.15,1.13c0.12,0.49-0.16,1.24-0.07,1.77c0.08,0.53,0.46,1.03,0.53,1.66
				c0,0.05,0-0.21,0.01-0.16c0,0.05,0.01-0.15,0-0.15c0.01,0,0.02,0,0.02,0c0.11,2,0.61,2,0.71,0c0.01,0,0.02,0,0.02,0
				s0,0.25,0,0.22v0.15c0-0.05,0-0.02,0-0.07c-0.01-1,0.16-1.45,0.61-2.23C530.02,777.68,530.17,777.28,530.18,776.82z"/>
			<path class="st1" d="M543.64,782.58C543.63,782.58,543.63,782.57,543.64,782.58c-0.22-0.22-0.55-0.25-0.84-0.23
				c-0.03-0.01-0.06-0.01-0.09-0.01c-0.63,0.07-1.14,0.37-1.63,0.77c-0.38,0.32-0.72,0.71-1.13,0.99c-0.25,0.18-0.62,0.24-0.85,0.44
				c-0.26,0.22-0.3,0.52-0.06,0.77c0.41,0.42,1.49,0.11,1.99,0.06c0.64-0.07,0.96-0.25,1.43-0.66c0.44-0.38,1.27-0.6,1.49-1.2
				C544.15,783.02,543.96,782.72,543.64,782.58z"/>
			<path class="st1" d="M544.92,785.39c-0.12,0.03-0.25,0.06-0.38,0.11c-0.06,0-0.13,0.01-0.19,0.03c-0.14,0.04-0.26,0.11-0.35,0.21
				c-0.24,0.16-0.38,0.36-0.24,0.63c0.08,0.16,0.23,0.26,0.36,0.37c0.16,0.14,0.34,0.38,0.55,0.45c0.2,0.07,0.42-0.06,0.61-0.19
				c0.07-0.03,0.13-0.06,0.19-0.11c0.12-0.1,0.26-0.24,0.38-0.4c0.33-0.37,0.65-0.89,0.49-1.27
				C546.14,784.74,545.43,785.07,544.92,785.39z"/>
			<path class="st1" d="M563.99,774.67c-2.61,0.91-5.21,2.1-7.97,2.19c-0.19-0.01-0.38-0.02-0.56-0.02
				c-0.99-0.26-3.39-0.91-3.69,0.31c-0.19,0.79,0.79,0.98,1.66,1.03c0.93,0.25,1.93,0.5,2.89,0.54c0.96,0.21,1.85,0.2,2.76-0.63
				c1.21-1.1,2.32-1.21,3.68-1.83c0.71-0.32,1.1-0.67,1.4-1.38C564.2,774.78,564.12,774.63,563.99,774.67z"/>
			<path class="st1" d="M561.77,785.57c-0.02,0-0.03,0-0.05,0c-2.53-1.04-4.73,0.65-6.54,2.45c-0.47,0.41-0.9,0.85-1.27,1.32
				c-0.12,0.13-0.24,0.25-0.36,0.38c-0.27,0.13-0.53,0.27-0.76,0.48c-0.04,0.04-0.04,0.09-0.02,0.14c0.34,0.7,1.41,0.5,2.45,0.05
				c1.86-0.22,2.93-2.31,4.59-3.21c0.46-0.07,1.13-0.04,1.5-0.29c0.16-0.11,0.27-0.22,0.35-0.34c0.2-0.09,0.39-0.2,0.55-0.36
				c0.07-0.06,0.06-0.15,0.03-0.23C562.12,785.65,562.09,785.66,561.77,785.57z M553.51,790.05c0.01-0.03,0.02-0.06,0.05-0.09
				c0,0,0,0,0.01,0c0,0,0,0,0.01-0.01c0,0.01,0.01,0.02,0.01,0.03C553.56,790,553.53,790.02,553.51,790.05z"/>
			<path class="st1" d="M551.24,790.64c0.17-0.57,0.28-1.08,0.74-1.63c0.44-0.52,0.91-0.95,1.23-1.56v-0.01
				c0.13-0.02,0.18-0.2,0.09-0.3c-0.04-0.05-0.08-0.09-0.13-0.14c-0.05-0.06-0.14-0.08-0.22-0.06c-0.83,0.19-1.43,1.23-1.85,1.92
				c-0.36,0.59-0.53,1.31-0.91,1.89c-0.5,0.76-1.4,1.23-2.05,1.84c-0.28,0.26-0.86,0.85-0.68,1.31c-0.12,0.25-0.13,0.5,0.18,0.69
				c0.48,0.28,1.12-0.3,1.41-0.63c0.27-0.3,0.48-0.64,0.72-0.96c0.33-0.42,0.71-0.71,1.11-1.06
				C551.33,791.59,551.6,791.13,551.24,790.64z M550.86,790.42c-0.01-0.01-0.02,0-0.03-0.01c0.02-0.04,0.04-0.08,0.06-0.12
				C550.88,790.34,550.87,790.38,550.86,790.42z"/>
			<path class="st1" d="M554.73,794.29c0.29-0.03,0.58-0.08,0.82-0.22c0.59-0.34,0.82-1.05,0.64-1.68
				c-0.04-0.15-0.23-0.19-0.34-0.09c-0.38,0.35-0.78,0.69-1.28,0.85c-0.47,0.15-0.89,0.01-1.36,0.07c-0.33,0.04-0.56,0.14-0.74,0.36
				c-0.52,0.16-1.08,0.41-1.08,0.79c0,0.27,0.22,0.4,0.47,0.45C552.61,795.55,553.78,794.84,554.73,794.29z M555.84,792.96
				L555.84,792.96C555.84,792.96,555.84,792.95,555.84,792.96C555.84,792.95,555.84,792.96,555.84,792.96z M555.85,792.84
				c0,0.02,0,0.04,0,0.06c0-0.02-0.01-0.03-0.02-0.03C555.83,792.85,555.84,792.84,555.85,792.84z"/>
			<path class="st1" d="M556.14,797.05c-0.56,0.05-1.01,0.37-1.42,0.73c-0.67,0.3-1.35,0.65-1.81,1.11
				c-0.21,0.21-0.28,0.38-0.35,0.66c-0.07,0.28-0.24,1.23-0.12,1.51c0.1,0.24,0.06,0.11,0.28,0.29c0.12,0.07,0.23,0.15,0.35,0.22
				c-0.01,0.08,0,0.16,0.04,0.24c0.05,0.06,0.08,0.14,0.13,0.19c0.33,0.3,1.02,0.1,1.27-0.21c0.13-0.16,0.19-0.44,0.25-0.7
				c0.35-0.59,0.64-1.27,1.15-1.68c0.1-0.05,0.19-0.11,0.29-0.17c0.04-0.02,0.07-0.05,0.1-0.07c0.28-0.13,0.57-0.24,0.73-0.46
				c0.31-0.21,0.55-0.48,0.47-0.89C557.41,797.22,556.67,797,556.14,797.05z M552.92,801.08c-0.05-0.04-0.09-0.07-0.12-0.12
				C552.84,801,552.88,801.04,552.92,801.08L552.92,801.08z"/>
			<path class="st1" d="M564.14,798.9c0.23-0.36,0.15-0.71-0.26-0.89c-0.17-0.07-0.37-0.09-0.59-0.07c-0.07-0.02-0.14-0.02-0.23,0
				c-0.27,0.08-0.52,0.17-0.76,0.29c-0.03,0.01-0.06,0.03-0.09,0.04c-0.56,0.16-0.98,0.41-1.34,0.99c-0.45,0.73-0.86,1.17-1.57,1.68
				c-0.37,0.26-0.75,0.51-1.05,0.84c-0.4,0.43-0.74,1.06-0.41,1.63c0.25,0.44,0.82,0.62,1.29,0.41c0.3-0.14,0.47-0.44,0.62-0.72
				c0.35-0.64,0.55-1.24,1.07-1.78c0.57-0.59,1.28-1.03,1.97-1.47C563.16,799.6,563.88,799.3,564.14,798.9z"/>
			<path class="st1" d="M567.16,803.61c-0.82,0.18-1.54,0.47-1.08,0.9c0.39,0.36,1.18,0.15,1.58-0.07c0.07-0.04,0.14-0.09,0.21-0.13
				c0.18-0.06,0.37-0.15,0.52-0.26c0.13-0.02,0.28-0.02,0.4-0.07c0.15-0.06,0.24-0.13,0.31-0.24c0.04-0.02,0.07-0.04,0.09-0.09
				c0.17-0.44-0.24-0.73-0.65-0.7c-0.33,0.03-0.53,0.26-0.8,0.42C567.55,803.45,567.36,803.53,567.16,803.61z"/>
			<path class="st1" d="M522.49,787.76c-0.27,0.06-0.41,0.35-0.37,0.61c0.05,0.36,0.38,0.51,0.68,0.63
				c0.31,0.12,0.34,0.28,0.54,0.51c0.09,0.1,0.21,0.17,0.35,0.19c0.82,0.14,1.02-0.8,0.92-1.41c-0.12-0.73-0.82-0.62-1.34-0.34
				C523.02,787.82,522.73,787.71,522.49,787.76z M524.01,789.28C524,789.28,524,789.28,524.01,789.28
				C524,789.28,524,789.28,524.01,789.28C524,789.28,524,789.28,524.01,789.28z"/>
			<path class="st1" d="M526.81,797.88c-0.47-0.56-1.25-0.25-1.73,0.22c-0.25,0.08-0.54,0.2-0.67,0.41
				c-0.03,0.05-0.05,0.11-0.06,0.17c-0.08,0.22,0,0.51,0.11,0.71c0.17,0.31,0.4,0.34,0.72,0.24c0.35-0.11,0.59-0.12,0.95-0.05
				c0.16,0.03,0.32,0.07,0.48,0.05C527.53,799.5,527.2,798.35,526.81,797.88z"/>
			<path class="st1" d="M524.95,803.63c-0.42-0.37-1.07-0.53-1.54-0.16c-0.22,0.17-0.23,0.43-0.03,0.62
				c0.23,0.21,0.51,0.24,0.68,0.55c0.13,0.23,0.08,0.51,0.21,0.72c0.32,0.52,1.53,0.34,1.73-0.22
				C526.24,804.49,525.58,803.81,524.95,803.63z"/>
			<path class="st1" d="M519.16,802.51c-0.16-0.05-0.09-0.07-0.12-0.22c-0.01-0.07-0.03-0.13-0.07-0.19
				c-0.09-0.12-0.23-0.16-0.37-0.19c-0.28-0.06-0.72-0.2-0.95,0.05c-0.24,0.25-0.07,0.7,0.03,0.97c0.1,0.26,0.26,0.67,0.58,0.74
				c0.19,0.04,0.4,0,0.61-0.06c0.24,0.08,0.52,0.09,0.73-0.07c0.21-0.15,0.33-0.46,0.22-0.7
				C519.69,802.52,519.42,802.6,519.16,802.51z M517.95,802.32L517.95,802.32C517.95,802.32,517.96,802.32,517.95,802.32
				C517.96,802.32,517.95,802.32,517.95,802.32z"/>
			<path class="st1" d="M570.53,806.07c-0.27,0-0.52,0.04-0.76,0.17c-0.17,0.05-0.31,0.27-0.27,0.45c0.11,0.47,0.71,0.36,1.04,0.24
				c0.23-0.08,0.94-0.4,0.61-0.73C571.01,806.06,570.72,806.07,570.53,806.07z"/>
			<path class="st1" d="M549.83,782.93c0.57-0.03,1.3-0.59,1.51-1.11c0.11-0.27,0.05-0.56-0.17-0.75c-0.24-0.21-0.52-0.21-0.82-0.17
				c-0.2-0.01-0.42,0.07-0.59,0.19c-0.01,0.01-0.03,0.02-0.04,0.03c-0.41,0.11-0.77,0.34-0.87,0.82
				C548.74,782.54,549.27,782.95,549.83,782.93z"/>
			<path class="st1" d="M546.2,773.59c-0.6-0.19-0.83-0.53-1.17-1c-0.42-0.58-1.11-0.78-1.78-0.9c-0.38-0.07-0.98-0.16-1.24,0.23
				c-0.17,0.25-0.06,0.5,0.13,0.73c-0.03,0.04-0.02,0.1,0.03,0.13c1.09,0.58,0.41,1.89,1.69,2.11c1.09,0.18,2.37-0.21,3.36-0.61
				c0.13-0.05,0.16-0.21,0.04-0.3C546.91,773.76,546.59,773.71,546.2,773.59z M546.71,774.15c0-0.01,0-0.01,0-0.02
				c0.01,0,0.02,0.01,0.03,0.01C546.73,774.14,546.72,774.15,546.71,774.15z"/>
			<path class="st1" d="M556.23,759.82c-0.36-0.35-0.88-0.5-1.37-0.44c-0.34,0.04-1,0.27-1.02,0.7c-0.01,0.18,0.12,0.31,0.22,0.44
				c0.36,0.51,0.43,0.94,0.51,1.55c0.07,0.46,0.21,0.93,0.68,1.12c0.49,0.2,1.48,0.06,1.94-0.14c0.48-0.22,0.54-1.05,0.21-1.42
				c-0.01-0.03-0.03-0.06-0.07-0.09C556.74,761.13,556.72,760.31,556.23,759.82z"/>
			<path class="st1" d="M562.43,743.19c-0.26,0.24-0.11,0.35-0.63,0.66c-0.33,0.2-0.7,0.34-1.04,0.53c-0.43,0.17-0.84,0.4-1.11,0.72
				c-0.08,0.07-0.17,0.14-0.24,0.21c-0.43,0.29-0.64,0.7-0.17,1.28c0.29,0.36,0.89,0.57,1.35,0.43c0.2-0.06,0.33-0.2,0.47-0.34
				c0.02-0.01,0.04-0.03,0.05-0.05c0.22-0.21,0.36-0.31,0.56-0.37c0.26,0.05,0.55,0.14,0.7,0.09c0.23-0.09,0.16-0.15,0.32-0.27
				c0.34-0.09,0.69-0.24,0.99-0.44c0.02,0.01,0.09-0.01,0.27-0.11c0.87-0.48,0.81-1.47,0.19-2.19
				C563.56,742.68,563.01,742.64,562.43,743.19z"/>
			<path class="st1" d="M570.51,752.4c-0.39-0.47-0.85-0.66-1.46-0.45c-0.22,0.08-0.32,0.22-0.6,0.2c-0.08-0.01-0.18-0.1-0.27-0.09
				c-0.23,0.02-0.36,0.11-0.51,0.27c-0.27,0.3-0.9,1.3-0.66,1.75c0.16,0.3,0.57,0.3,0.74,0.62c0.2,0.37,0.12,0.88,0.32,1.26
				c0.24,0.47,0.81,0.64,1.25,0.33c0.22-0.15,0.32-0.34,0.39-0.59c0.09-0.31,0.02-0.42,0.27-0.68c0.21-0.22,0.32-0.18,0.56-0.3
				C571.44,754.27,571.54,752.53,570.51,752.4z M569.47,755.53c-0.01,0-0.02,0-0.03,0c0.01-0.01,0.02-0.02,0.03-0.04
				C569.47,755.51,569.47,755.52,569.47,755.53z"/>
			<path class="st1" d="M539.14,744.7c-0.25,0.36,0.04,0.84,0.43,0.91c0.73,0.93,3-1.11,3.45-1.25c0.83-0.27,1.44-0.19,2.15-0.84
				c1-0.91,1.29-2.22,2.39-3.1c0.72-0.58,1.66-1.12,2.06-1.99c0.54-1.18,0.31-2.85,0.38-4.11c0.11-2.06,0.01-3.98,1.47-5.61
				c0.59-0.65,1.09-1.17,1.33-2.04c0.01-0.02,0.01-0.05,0-0.07c0,0,0.01,0,0.01-0.01c0.15-0.13-0.07-0.34-0.21-0.21
				c-1.56,1.37-2.49,3.16-3.24,5.07c-0.24,0.62-0.53,1.27-0.5,1.94c0.02,0.07,0.05,0.14,0.08,0.21c-0.1,0.89-0.49,1.71-0.42,2.61
				c0.01,0.19,0,0.56,0.09,0.81c0,0.22-0.01,0.44-0.06,0.62c-0.32,1.06-1.02,1.64-1.94,2.13c-0.13,0.07-0.27,0.13-0.41,0.2
				c-0.13,0.06-0.26,0.12-0.38,0.19c-0.9,0.42-1.83,0.78-2.71,1.24c-0.72,0.38-1.4,0.82-1.99,1.34
				C540.35,743.22,539.76,743.82,539.14,744.7z M549.64,734.07c0,0.01,0,0.02,0,0.03c-0.02-0.03-0.04-0.07-0.06-0.11
				C549.6,734.02,549.62,734.05,549.64,734.07z"/>
			<path class="st1" d="M497.47,812.1c-0.1-0.06-0.28-0.05-0.36,0.05c-0.05,0.06-0.1,0.13-0.15,0.19c-0.11,0.1-0.18,0.21-0.23,0.4
				c-0.02,0.09-0.04,0.16-0.05,0.23c-0.09,0.21-0.22,0.55-0.29,0.78c-0.35,0.41-0.75,0.78-1.07,1.23c-0.25,0.34-0.43,0.72-0.65,1.08
				c-0.43,0.7-0.79,1.02-1.47,1.45c-0.48,0.31-0.66,1.03,0.1,1.08c1.29,0.07,2.34-1.86,2.9-2.75c0.49-0.78,1.41-1.81,1.63-2.71
				C497.94,812.64,497.89,812.36,497.47,812.1z"/>
			<path class="st1" d="M502.56,811.55c0-0.01,0.44-0.01,0.44-0.02s0-0.01,0-0.02c0-0.09-0.53-0.17-0.63-0.14
				c-0.27,0.07-0.67,0.16-0.9,0.32c0,0-0.11,0-0.12,0.01c-0.27,0.13-0.55,0.33-0.71,0.62c-0.12,0.21-0.26,0.42-0.38,0.62
				c-0.29,0.35-0.57,0.74-0.8,1.11c-0.13,0.2-0.26,0.41-0.33,0.64c-0.02,0.05-0.03,0.12-0.04,0.19c-0.07,0.11-0.14,0.22-0.2,0.33
				c-0.19,0.33-0.47,1.32,0.26,1.25c0.2-0.02,0.34-0.19,0.41-0.36c0.07-0.16,0.01-0.41,0.02-0.56c0.03-0.55,0.21-0.95,0.52-1.38
				c0.19-0.17,0.35-0.38,0.49-0.6c0.33-0.37,0.69-0.72,1.03-1.09c0.25-0.28,0.49-0.47,0.5-0.81c0.01-0.02,0.23-0.05,0.22-0.07
				C502.33,811.57,502.56,811.56,502.56,811.55z M501.41,812.01L501.41,812.01c0.06-0.06,0.12-0.1,0.18-0.15
				C501.53,811.91,501.47,811.96,501.41,812.01z"/>
			<path class="st1" d="M506.01,811.88c-0.01-0.36-0.33-0.63-0.67-0.68c-0.35-0.06-0.64,0.11-0.88,0.33
				c-0.56,0.32-1.23,0.74-1.55,1.28c-0.07,0.1-0.14,0.2-0.18,0.31c-0.09,0.22-0.07,0.41,0.02,0.55c0.14,0.61,0.91,0.62,1.23,0.01
				c0.19-0.36,0.25-0.71,0.69-0.86c0.24-0.08,0.5-0.11,0.73-0.2C505.7,812.5,506.02,812.26,506.01,811.88z"/>
			<path class="st1" d="M521.68,806.23c0.22,0.01,0.68,0,0.75-0.27c0.04-0.15-0.05-0.25-0.17-0.31c-0.03-0.06-0.1-0.12-0.19-0.14
				c-0.1-0.02-0.19-0.02-0.29-0.01c-0.12-0.08-0.23-0.18-0.37-0.22c-0.18-0.05-0.37-0.01-0.54,0.04c-0.33,0.1-0.73,0.28-0.65,0.7
				c0.07,0.35,0.44,0.47,0.75,0.43c0.23-0.03,0.44-0.13,0.66-0.22C521.64,806.22,521.66,806.23,521.68,806.23z"/>
			<path class="st1" d="M527.75,803.5c0.18-0.33,0.17-0.81-0.05-1.1c-0.32-0.42-1.07-0.41-1.26,0.06c-0.03,0.02-0.06,0.05-0.08,0.08
				c-0.06,0.07-0.09,0.16-0.08,0.26c0,0.01,0,0.01,0,0.02c0.01,0.25,0.19,0.42,0.41,0.5h0.01c-0.01,0.09,0.03,0.21,0.06,0.27
				c0.11,0.21,0.36,0.32,0.6,0.26C527.54,803.8,527.67,803.66,527.75,803.5z M527.06,803.12c0,0.02-0.01,0.04-0.01,0.05
				c0,0-0.01,0-0.01-0.01C527.04,803.15,527.04,803.13,527.06,803.12L527.06,803.12z"/>
			<path class="st1" d="M566.57,769.9c0.18-0.6,0.07-0.89-0.58-0.98c-0.28-0.04-0.64,0.15-0.98,0.39c-0.75,0.15-1.66,1.01-2.15,1.35
				c-0.37,0.26-0.74,0.52-1.11,0.76c-0.73,0.23-1.49,0.47-2.21,0.78c-0.38,0.07-0.76,0.16-1.14,0.26c-0.01,0-0.02-0.01-0.03-0.01
				c-0.87-0.04-1.82,0.1-2.67,0.28c-0.63,0.14-1.13,0.41-1.4,1c-0.13,0.14-0.21,0.29-0.19,0.44c-0.01,0.02-0.02,0.05-0.01,0.07
				c0.26,0.77,1.73,0.49,2.31,0.34c0.74-0.19,1.41-0.54,2.06-0.93c1.1-0.35,2.1-0.67,3.11-1.29c0.12-0.08,0.25-0.15,0.38-0.23
				c0.67-0.2,1.39-0.37,1.99-0.68c0.09-0.05,0.21-0.11,0.33-0.18C565.5,770.88,566.4,770.44,566.57,769.9z"/>
			<path class="st1" d="M560,790.45c-0.09,0.06-0.17,0.13-0.21,0.21c-0.13,0.24,0.04,0.49,0.28,0.56c0.21,0.06,0.5,0.01,0.67-0.12
				c0.11-0.09,0.16-0.21,0.21-0.32c0.07,0.01,0.13,0.03,0.19,0.06c0.07,0.04,0.13,0.08,0.2,0.11c0.15,0.12,0.32,0.2,0.56,0.15
				c0.15-0.03,0.27-0.12,0.36-0.24c0.01-0.01,0.01-0.02,0.02-0.04c0.09-0.08,0.17-0.17,0.23-0.27c0.15-0.25,0.29-0.72,0.08-0.98
				c-0.18-0.23-0.44-0.19-0.66-0.08C561.3,789.55,560.21,789.82,560,790.45z M561.34,790.6c0.03,0,0.06,0,0.1,0v0.01
				C561.41,790.61,561.38,790.61,561.34,790.6z"/>
			<path class="st1" d="M558.05,796.21c0.01,0,0.01,0,0.02,0c0.01,0.02,0.03,0.03,0.05,0.02v-0.01c0.05,0.01,0.1,0.01,0.15,0
				c0.45,0.01,0.89-0.08,1.11-0.27s0.22-0.32,0.37-0.58c0.3-0.52,0.45-0.89,1.11-0.97c0.03,0,0.76,0.07,0.77,0.07
				c0.58,0,1.63-0.1,1.98-0.66c0.29-0.46-0.12-1.15-0.51-1.42c-0.41-0.28-0.73-0.19-1.08-0.04c-0.96,0.06-1.98,0.31-2.79,0.8
				c-0.48,0.29-0.91,0.7-1.34,1.05c-0.27,0.23-0.96,0.58-1.05,0.93C556.67,795.78,557.34,796.13,558.05,796.21z"/>
			<path class="st1" d="M564.24,803.94c0.02-0.36-0.34-0.63-0.65-0.72c-0.14-0.04-0.28-0.05-0.41-0.04
				c-0.26-0.03-0.59,0.08-0.8,0.14c-0.43,0.13-0.91,0.33-1.2,0.69c-0.16,0.15-0.31,0.35-0.3,0.57c0,0.07,0.02,0.13,0.05,0.18
				c0,0.03-0.01,0.05-0.01,0.08c0.01,0.26,0.24,0.46,0.5,0.44c0.12,0.04,0.25,0.06,0.41,0.05c0.66-0.06,1.12-0.62,1.72-0.83
				C563.83,804.39,564.22,804.31,564.24,803.94z"/>
			<path class="st1" d="M565.91,801.71c0.3,0.05,0.76,0.2,1.06,0.1c0.26-0.09,0.3-0.26,0.25-0.43c0.02-0.14-0.05-0.29-0.2-0.33
				c-0.07-0.08-0.14-0.15-0.21-0.21c-0.43-0.34-1.1-0.45-1.47,0.03c-0.01,0.01-0.01,0.02-0.01,0.04c-0.12,0.13-0.29,0.37-0.21,0.55
				C565.23,801.71,565.7,801.68,565.91,801.71z"/>
			<path class="st1" d="M566.64,806.59c-0.19-0.08-0.34,0.06-0.51,0.11c-0.02,0.01-0.04,0.01-0.06,0.01
				c-0.8-0.12-1.64-0.06-2.18,0.54c-0.05,0.03-0.1,0.06-0.15,0.11c-0.09,0.09-0.11,0.24-0.04,0.35c0.04,0.06,0.08,0.11,0.14,0.15
				c0.01,0.03,0.02,0.05,0.04,0.08c0.13,0.15,0.38,0.07,0.54,0.09c0.35,0.04,0.38,0.23,0.58,0.45c0.25,0.28,0.67,0.32,1,0.18
				c0.44-0.19,0.66-0.65,0.77-1.08C566.82,807.3,567,806.75,566.64,806.59z"/>
			<path class="st1" d="M568.79,719.39c0.43,0,0.84-0.04,1.06-0.44c0.18-0.32,0.32-0.48,0.61-0.72c0.22-0.19,0.43-0.4,0.61-0.63
				c0.27-0.34,0.67-0.86,0.48-1.32c-0.12-0.28-0.38-0.37-0.61-0.27c-0.06,0.01-0.11,0.02-0.16,0.03c-0.35,0.04-0.6,0.23-0.82,0.53
				c-0.22,0.3-0.38,0.63-0.66,0.88c-0.25,0.22-0.55,0.35-0.82,0.53c-0.27,0.18-0.73,0.48-0.66,0.86
				C567.88,719.25,568.46,719.38,568.79,719.39z"/>
			<path class="st1" d="M562.59,724.72c0.23,0.04,0.4,0.01,0.61,0.13c0.11,0.06,0.18,0.17,0.29,0.23c0.37,0.19,0.78,0.05,1.1-0.17
				c0.69-0.48,1.1-1.53,1.11-2.41c0.06-0.25,0.04-0.48-0.12-0.67c-0.14-0.24-0.39-0.3-0.63-0.23c-0.02-0.02-0.05-0.04-0.08-0.05
				c-0.46-0.11-1.14,0.27-1.29,0.73c-0.01,0.02-0.01,0.04-0.01,0.06c-0.12,0.11-0.24,0.23-0.35,0.34c-0.35,0.22-0.65,0.5-0.84,0.87
				c-0.14,0.25-0.36,0.7-0.17,0.97C562.28,724.68,562.43,724.69,562.59,724.72z"/>
			<path class="st1" d="M570.77,722.78c-0.5,0.37-0.95,0.87-0.97,1.41c-0.01,0.15,0.02,0.28,0.07,0.4c-0.04,0.21-0.04,0.42,0,0.62
				c0.16,0.7,0.8,0.77,1.42,0.66c1.08-0.2,1.19-1.2,2.02-1.79c1.01-0.72,2.15-0.69,2.91-1.81c0.26-0.38,0.44-0.89-0.09-1.14
				c-0.21-0.1-0.46-0.04-0.66,0.05c-0.13,0.06-0.22,0.21-0.34,0.29c-0.43,0.3-0.58,0.25-1,0.28c-0.28,0.02-0.54,0.03-0.79,0.05
				c-0.87-0.05-1.63-0.09-2.27,0.62C570.97,722.53,570.87,722.65,570.77,722.78z"/>
			<path class="st1" d="M566.37,727.53c0.11,0.04,0.24,0.03,0.34-0.03c0.16-0.1,0.32-0.19,0.48-0.29c0.02,0,0.04-0.01,0.07-0.01
				c0.18-0.01,0.36,0.01,0.54-0.04c0.33-0.1,0.48-0.38,0.55-0.7c0.07-0.3,0.23-0.72-0.04-0.96c-0.25-0.23-0.7-0.23-0.96-0.04
				c-0.02,0.01-0.03,0.02-0.04,0.04c-0.56,0.08-1.08,0.31-1.35,0.86C565.74,726.79,565.88,727.51,566.37,727.53z"/>
			<path class="st1" d="M555.72,736.68c0.32-0.36,0.47-0.6,0.95-0.78c0.26-0.1,0.53-0.17,0.75-0.34c0.46-0.36,0.51-0.9,0.33-1.43
				c-0.33-0.95-1.65-2.4-2.37-1.12c-0.23,0.13-0.4,0.32-0.46,0.65c-0.08,0.42-0.16,0.76-0.47,1.05c-0.17,0.16-0.36,0.3-0.53,0.46
				c-0.18,0.16-0.43,0.36-0.46,0.62C553.32,736.79,555.12,737.38,555.72,736.68z"/>
			<path class="st1" d="M567.26,745.86c0.09,0.08,0.2,0.14,0.29,0.23c0.18,0.18,0.17,0.4,0.25,0.64c0.05,0.16,0.12,0.25,0.21,0.31
				c0,0,0,0.01,0.01,0.01c0.09,0.1,0.21,0.15,0.33,0.18c0.1,0.16,0.19,0.31,0.38,0.37c0.26,0.07,0.55-0.03,0.75-0.19
				c0.17-0.14,0.28-0.33,0.33-0.53c0.07-0.05,0.14-0.11,0.19-0.18c0.31-0.36,0.48-0.99,0.34-1.45c-0.26-0.8-1.31-0.83-2.04-0.52
				c-0.74-0.1-1.5-0.07-1.4,0.6C566.95,745.55,567.1,745.71,567.26,745.86z"/>
			<path class="st1" d="M532.27,787.24c-0.46-0.23-0.86-0.27-1.36-0.17c-0.41,0.08-0.76,0.07-1.08-0.01
				c-0.06-0.11-0.14-0.21-0.24-0.29c-0.17-0.38-0.84-0.6-1.2-0.52c-0.5,0.12-0.6,0.74-0.21,0.98c0.05,0.12,0.13,0.22,0.24,0.31
				c0.3,0.22,0.74,0.32,1.19,0.35c0.03,0.01,0.06,0.02,0.09,0.03c0.1,0.07,0.2,0.15,0.35,0.26c0.81,0.61,1.88,0.36,2.32-0.55
				C532.43,787.49,532.41,787.31,532.27,787.24z M530.63,788.04c0.01,0,0.01,0,0.02,0c0,0,0,0,0,0.01
				C530.65,788.04,530.64,788.04,530.63,788.04z"/>
			<path class="st1" d="M536.76,784.61c-0.59,0.05-0.97,0.44-1.5,0.66c-0.34,0.15-0.66-0.03-0.98,0.09
				c-0.15,0.06-0.29,0.21-0.3,0.38c-0.02,0.39,0.39,0.43,0.73,0.4c0.41,0.03,0.88-0.14,1.23-0.26c0.26-0.09,0.47-0.19,0.63-0.43
				c0.09-0.14,0.14-0.2,0.25-0.31c0.09-0.09,0.12-0.12,0.17-0.24C537.03,784.77,536.89,784.6,536.76,784.61z"/>
			<path class="st1" d="M502.87,797.51L502.87,797.51c0.01-0.03,0.02-0.06,0-0.09c-0.25-0.4-0.63-0.91-1.13-1
				c-0.26-0.05-0.48,0.04-0.73,0.1c-0.27,0.07-0.56,0-0.82,0.07c-0.4,0.11-0.48,0.57-0.28,0.9c0.11,0.17,0.29,0.32,0.47,0.43
				c0.22,0.14,0.64,0.19,0.76,0.44c0.09,0.17,0.03,0.3,0.2,0.45c0.14,0.12,0.34,0.16,0.51,0.13c0.28-0.04,0.52-0.25,0.68-0.5
				C502.85,798.27,503,797.89,502.87,797.51z M500.78,797.5c0.01,0,0.03,0,0.04,0c0,0.01,0,0.02,0,0.02
				C500.81,797.52,500.79,797.51,500.78,797.5z M501.62,798.03c0.02,0,0.04,0,0.06-0.01c0,0.04,0,0.08,0,0.11
				c0,0.1,0.05,0.18,0.12,0.22C501.67,798.37,501.69,798.18,501.62,798.03z"/>
			<path class="st1" d="M508.84,791c-0.21-0.44-0.73-0.86-1.24-0.56c-0.56,0.33-0.25,0.77-0.19,1.18c-0.01,0.03-0.03,0.06-0.04,0.1
				c-0.1,0.09-0.2,0.17-0.3,0.24c-0.46,0.1-1.11,0.04-1.29,0.1c-0.19,0.06-0.38,0.15-0.45,0.36c-0.04,0.11-0.02,0.25,0.02,0.36
				c0.07,0.17,0.19,0.18,0.29,0.33c0.27,0.4,0.27,0.69,0.22,1.15c-0.15,1.39,0.76,2,1.86,1.65c1.37,0.18,1.31-1.46,1.29-2.42
				c0-0.02-0.01-0.04-0.01-0.05C509.07,792.6,509.17,791.7,508.84,791z M506.03,792.88c0,0,0-0.01-0.01-0.01c0.01,0,0.01,0,0.02,0
				C506.03,792.88,506.03,792.88,506.03,792.88z"/>
			<path class="st1" d="M560.53,730.32c-0.03,0.13-0.02,0.28,0.05,0.42c0.36,0.75,1.15,1.11,1.94,0.98
				c0.52-0.08,1.23-0.28,1.73-0.47c0.05-0.02,0.09-0.04,0.14-0.07c0.02,0,0.03,0,0.05,0c0.45-0.03,1.02-0.07,1.39-0.35
				c0.32-0.24,0.48-0.69,0.26-1.05c-0.12-0.19-0.29-0.28-0.48-0.32c-1.1-1.17-2.88-1.85-4.49-1.6c-0.55-0.32-1.77-0.42-1.98,0.3
				c-0.13,0.43,0.08,0.84,0.41,1.12C559.84,729.72,560.17,730.07,560.53,730.32z"/>
			<path class="st1" d="M575.77,734.28c0.04-0.35-0.06-1.13-0.25-1.44c-0.37-0.6-1-0.29-1.58-0.2c-1.52,0.23-2.95-0.3-4.45-0.5
				c-0.65-0.09-1.69-0.33-2.18,0.25c-0.08,0.09-0.14,0.22-0.09,0.34c0.04,0.12,0.1,0.2,0.15,0.27c0,0.02,0.01,0.04,0.02,0.06
				c0.39,0.71,0.15,1.78,1.03,2.1c0.35,0.13,0.75,0.02,1.12,0.01c0.86-0.04,1.56,0.01,2.39,0.27
				C573.12,735.81,575.56,736.07,575.77,734.28z M574.87,733.83c-0.01,0-0.02,0-0.02,0c0.01-0.01,0.02-0.02,0.03-0.04
				C574.87,733.81,574.87,733.82,574.87,733.83z"/>
			<path class="st1" d="M568.33,737.64c-0.37-0.06-0.54,0.13-0.75,0.4c-0.13,0.18-0.26,0.17-0.47,0.21
				c-0.18,0.03-0.34,0.09-0.5,0.17c-0.16,0.08-0.21,0.27-0.18,0.44s0.13,0.33,0.25,0.48c0,0.08,0.02,0.16,0.1,0.23
				c0.11,0.1,0.21,0.22,0.3,0.33c-0.07,0.29,0,0.55,0.38,0.6c0.72,0.1,1.16-0.73,1.4-1.26
				C569.14,738.65,569.15,737.76,568.33,737.64z"/>
			<path class="st1" d="M566.72,761.37c-0.85-0.5-1.7-0.09-2.19,0.6c-0.02,0.02-0.05,0.04-0.07,0.06c-0.19,0.18-0.23,0.35-0.26,0.53
				c-0.29,0.31-0.51,0.7-0.72,1.09c-0.06,0.05-0.13,0.1-0.19,0.16c-0.11,0.08-0.21,0.16-0.32,0.23c-0.87,0.23-1.58,0.79-1.17,1.88
				c0.06,0.16,0.19,0.23,0.36,0.2c0.09-0.02,0.19-0.04,0.29-0.06c0.08,0.04,0.16,0.08,0.25,0.1c0.76,0.19,1.56-0.23,2.22-0.86
				c0.78-0.33,1.51-0.75,2.04-1.26c0.03-0.03,0.05-0.07,0.08-0.1c0.18-0.15,0.32-0.31,0.41-0.5c0.09-0.18,0.09-0.38,0.03-0.57
				C567.52,762.3,567.28,761.7,566.72,761.37z"/>
			<path class="st1" d="M558.93,768.97c-0.15,0.08-0.15,0.32,0,0.4c0.29,0.16,0.5,0.07,0.82-0.01c0.73-0.18,1.46-0.37,2.18-0.56
				c0.83-0.22,1.68-0.37,1.79-1.34c0.02-0.17-0.22-0.24-0.33-0.14c-0.88,0.83-1.8,1.05-2.97,1.12c-0.27,0.02-0.5,0.06-0.68,0.17
				c-0.01,0-0.01,0-0.02,0C559.45,768.72,559.19,768.83,558.93,768.97z"/>
			<path class="st1" d="M564.3,758.81c0.02,0.01,0.04,0.02,0.05,0.02c0.03,0.02,0.07,0.04,0.11,0.05c0.72,0.05,2.33-0.39,2.16-1.4
				c-0.07-0.44-0.54-0.61-0.93-0.47c-0.44,0.15-0.57,0.62-0.86,0.93c-0.16,0-0.31,0.02-0.46,0.12
				C564.11,758.23,564.04,758.6,564.3,758.81z"/>
			<path class="st1" d="M568.44,760.27c0.59,0.02,0.83-0.65,0.86-1.12c0.02-0.24,0.04-0.54-0.21-0.67
				c-0.23-0.12-0.51,0.01-0.71,0.13c-0.22,0.13-0.39,0.35-0.38,0.62c0.01,0.11,0.05,0.22,0.13,0.31c0.03,0.03,0.07,0.06,0.11,0.08
				c-0.06,0.09-0.1,0.18-0.12,0.27C568.07,760.1,568.22,760.27,568.44,760.27z"/>
			<path class="st1" d="M506.85,814.98c-0.1-0.03-0.2-0.03-0.3,0.01c-0.15-0.03-0.31-0.01-0.44,0.07c-0.13,0.07-0.23,0.18-0.32,0.3
				c-0.02,0.01-0.04,0.03-0.06,0.04c-0.28,0.22-0.76,0.41-0.91,0.76c-0.08,0.2-0.04,0.38,0.08,0.52c0,0.03,0,0.06,0.01,0.09
				c0.02,0,0.05,0,0.08-0.01c0.08,0.06,0.18,0.11,0.29,0.12c0.36,0.05,0.76-0.17,1.04-0.37c0.08-0.06,0.16-0.13,0.22-0.21
				c0.12-0.12,0.22-0.25,0.27-0.37c0.01-0.01,0.03-0.02,0.04-0.03c0.14-0.11,0.27-0.24,0.33-0.4c0.02-0.04,0.02-0.09,0.03-0.13
				c0.02-0.04,0.04-0.08,0.04-0.13C507.28,815.05,507.04,814.94,506.85,814.98z"/>
			<path class="st1" d="M501.82,816.5c0,0.01-0.01,0.01-0.01,0.02c-0.07-0.11-0.21-0.17-0.31-0.06c-0.05,0.01-0.09,0.03-0.12,0.06
				c-0.11,0.12-0.12,0.3-0.15,0.46c-0.05,0.25-0.17,0.49-0.35,0.68c-0.02,0.02-0.04,0.04-0.06,0.06c-0.06,0.06-0.12,0.11-0.18,0.16
				c0.01,0,0.02,0,0.03,0.01l-0.01,0.01c0.34,0.1,0.61-0.27,0.77-0.59c0.08-0.17,0.17-0.34,0.25-0.51c0,0,0,0,0.01,0
				c0.18-0.05,0.18-0.18,0.12-0.27L501.82,816.5z"/>
			<path class="st1" d="M512.65,810.74c-0.08,0.02-0.15,0.07-0.21,0.14c-0.94,0.41-3.53,0.67-3.24,2c0.03,0.12,0.13,0.22,0.25,0.25
				c0.52,0.12,0.96-0.26,1.32-0.58c0.27-0.24,0.52-0.43,0.84-0.57c0.17-0.03,0.33-0.09,0.47-0.16c0.02-0.01,0.04-0.02,0.06-0.03
				c0.07-0.04,0.14-0.09,0.2-0.15c0.02-0.01,0.03-0.02,0.05-0.04c0.01-0.01,0.02-0.03,0.03-0.04c0.02-0.02,0.03-0.03,0.05-0.05
				c0.03-0.02,0.06-0.03,0.08-0.05c0.04-0.04,0.06-0.08,0.08-0.13c0.08-0.06,0.15-0.13,0.23-0.21c0.03-0.03,0.07-0.07,0.08-0.12
				C512.99,810.83,512.8,810.7,512.65,810.74z"/>
			<path class="st1" d="M527.54,807.41c-0.13,0.05-0.21,0.21-0.18,0.33c-0.03,0.07-0.03,0.16,0.03,0.21
				c0.05,0.04,0.11,0.04,0.18,0.04c0.1,0,0.21,0,0.31,0c0.05,0,0.11,0,0.16-0.03c0.15-0.08,0.09-0.31-0.03-0.43
				C527.89,807.41,527.7,807.34,527.54,807.41z"/>
			<path class="st1" d="M523.97,808.43c-0.04-0.05-0.08-0.1-0.14-0.13c-0.15-0.09-0.32-0.11-0.49-0.09
				c-0.08-0.02-0.15-0.04-0.24-0.04c-0.06,0-0.13,0.02-0.19,0.03c-0.54-0.04-1.1,0.05-1.55,0.25c-0.54,0.24-0.39,0.88,0.21,0.86
				c0.22-0.01,0.44-0.1,0.65-0.17c0.1-0.03,0.19-0.05,0.28-0.06c0.03,0,0.07-0.01,0.1-0.01c0.16-0.02,0.31-0.01,0.48,0.01
				c0.06,0.04,0.13,0.09,0.2,0.12c0.23,0.09,0.52,0.1,0.72-0.06c0.2-0.16,0.26-0.49,0.07-0.66
				C524.03,808.45,524,808.45,523.97,808.43z"/>
			<path class="st1" d="M426.42,815.55c-1.44,0.28-3.13,0.49-4.58,0.12c-0.35-0.09-0.64-0.23-0.91-0.4
				c-0.03-0.03-0.07-0.06-0.12-0.07c-0.51-0.34-0.93-0.78-1.41-1.19c-1.12-0.96-1.57-1.84-3.08-2.29c-0.2-0.06-0.46,0.07-0.51,0.29
				c-0.13,0.7,0.12,1.05,0.52,1.35c0.25,0.4,0.62,0.74,1.01,1.12c0.85,0.83,1.71,1.84,2.83,2.3c2.05,0.86,4.9,0.94,6.63-0.57
				C427.12,815.92,426.77,815.48,426.42,815.55z"/>
			<path class="st1" d="M427.14,810.78c-0.98-0.69-2.24-0.71-3.38-1.06c-0.16-0.12-0.33-0.23-0.51-0.32
				c-0.25-0.13-0.5-0.21-0.75-0.29c-0.09-0.07-0.19-0.15-0.27-0.24c-0.95-0.92-2.71-2.32-3.01-3.72c0.02-0.81,0.06-1.61,0.11-2.42
				c0-0.05-0.01-0.1-0.03-0.13c0.09-0.14,0.19-0.28,0.26-0.42c0.12-0.23-0.16-0.46-0.36-0.28c-0.76,0.7-1.44,1.87-1.63,2.89
				c-0.03,0.14,0.04,0.24,0.14,0.29c-0.33,1.37,0.81,3,1.75,4.03c1.71,1.87,4.42,3.01,6.96,3.08
				C427.47,812.22,428.11,811.46,427.14,810.78z M418.63,805.81c0-0.03-0.01-0.05-0.01-0.08c0.01,0.04,0.02,0.09,0.03,0.13
				C418.65,805.84,418.64,805.82,418.63,805.81z M424.38,810.92l0.01-0.01c0.14,0.04,0.27,0.08,0.41,0.11
				C424.66,810.99,424.52,810.95,424.38,810.92z"/>
			<path class="st1" d="M421.24,820c-1.3-0.49-2.78-0.65-4.03-1.27c-0.9-0.44-1.25-0.95-1.79-1.76c-0.15-0.22-0.26-0.45-0.44-0.65
				c-0.27-0.3-0.96-0.66-1.15-0.95c-0.21-0.33-0.12-0.76-0.08-1.14c0.12-0.2,0.17-0.42,0.08-0.68c-0.04-0.11-0.11-0.22-0.17-0.32
				c0-0.1-0.01-0.19-0.01-0.29c-0.01-0.15-0.02-0.23-0.09-0.37c-0.05-0.09-0.13-0.24-0.22-0.36c-0.01-0.01-0.01-0.02-0.02-0.03
				c-0.01-0.01-0.01-0.01-0.02-0.02c-0.03-0.04-0.06-0.07-0.09-0.11c-0.15-0.15-0.46-0.05-0.44,0.18c0,0.02,0.01,0.04,0.01,0.06
				c-0.03,0.07-0.06,0.14-0.09,0.2c-0.11,0.19-0.21,0.31-0.27,0.53c-0.04,0.17-0.04,0.36-0.08,0.54c-0.38,0.5-0.43,1.14-0.28,1.85
				c0.05,0.24,0.22,1.09,0.46,1.41c0.36,0.49,0.82,0.6,1.09,1.17c0.19,0.41,0.05,0.84,0.24,1.2c0.25,0.46,0.95,0.57,1.37,0.7
				c1.65,0.52,3.43,0.93,5.13,0.49c0.28,0.04,0.56,0.07,0.84,0.08C421.47,820.49,421.49,820.09,421.24,820z"/>
			<path class="st1" d="M411.49,827.13c1.14-0.01,2.13,0.5,3.27,0.48c0.28,0,0.55-0.04,0.82-0.1c0.49,0.04,0.97,0.02,1.36-0.29
				c0.53-0.07,1.16-0.39,0.7-0.96c-0.15-0.18-0.37-0.14-0.59-0.14l0,0c-0.28,0-0.55-0.26-0.83-0.29c-0.07-0.06-0.14-0.18-0.21-0.22
				c-0.6-0.3-1.33-0.24-1.95-0.51c-0.84-0.37-1.56-1.03-2.31-1.54c-0.97-0.67-2.16-1.22-2.45-2.48c0.01-0.16-0.15-0.28-0.29-0.2
				c-0.21,0.11-0.27,0.23-0.36,0.44c-0.14,0.33-0.31,0.64-0.43,0.98c-0.13,0.39-0.23,0.79-0.32,1.19c-0.09,0.39-0.29,0.74-0.3,1.14
				c-0.06,0.02-0.08,0.1-0.01,0.15C409.17,825.94,409.39,827.14,411.49,827.13z"/>
			<path class="st1" d="M419,832.04L419,832.04c0,0.05-0.44,0.1-0.56,0.15c-1.01,0.07-1.98-0.45-3.02-0.32
				c-1.12,0.14-2.55,0.14-3.67-0.31c-0.06-0.13-0.21-0.24-0.3-0.35c-0.13-0.16-0.27-0.34-0.41-0.5c-0.26-0.32-0.76-0.49-1.08-0.15
				c-0.59,0.62,0.52,1.6,1.05,1.79c0.02,0.01,0.03,0.01,0.04,0.01c0.76,0.6,1.85,0.96,2.62,1.32c0.43,0.2,0.79,0.3,1.16,0.37
				c0.43,0.17,0.87,0.09,1.29,0.16c0.07,0.01,0.15-0.2,0.23-0.2l0,0c0.03,0,0.05,0.22,0.07,0.22c0.2,0.17,0.58,0.29,0.82,0.26
				c0.2-0.02,0.41,0,0.59-0.11c0.02-0.01,0.02,0,0.04-0.01c0.26-0.02,0.48-0.13,0.66-0.42c0.25-0.42,0.45-0.99,0.38-1.49
				c0.03-0.03,0.04-0.08,0.03-0.13c-0.02-0.11,0.16-0.21,0.14-0.32C419.06,831.84,419,831.88,419,832.04z"/>
			<path class="st1" d="M406.72,839.23c0.27-0.13,0.55-0.24,0.83-0.35c1.23-0.01,2.19,0.83,3.4,0.94c0.79,0.07,1.58-0.13,2.31-0.43
				c0.93-0.38,2.22-0.93,2.91-1.8c0.34-0.12,0.72-0.37,0.7-0.72c0-0.03-0.01-0.06-0.02-0.1c0.02-0.05,0.02-0.1,0.02-0.15
				c-0.01-0.15-0.08-0.39-0.17-0.44c0-0.01,0-0.18-0.01-0.18l0,0c-1.14,0-2.09-0.26-3.17-0.51c-1.12-0.26-2.24,0.09-3.28-0.46
				c-0.53-0.28-0.95-0.65-1.37-1.1c-0.38-0.71-0.85-1.45-1.47-1.67c-0.25-0.19-0.54-0.33-0.86-0.41c-0.02,0-0.03,0-0.04,0.01
				c-0.05-0.01-0.11,0.02-0.11,0.09c0.01,0.34,0.03,0.69,0.08,1.03c0.02,0.11,0.04,0.24,0.1,0.33c0.04,0.23,0.1,0.47,0.16,0.71
				c-0.03,0.37-0.08,0.75-0.11,1.12c-0.11,0.65-0.19,1.29-0.25,1.95c-0.06,0.61-0.25,1.32,0.01,1.89
				C406.34,839.14,406.52,839.32,406.72,839.23z M406.71,837.22c0,0.02,0.01,0.03,0.02,0.05c-0.01-0.01-0.01-0.01-0.02-0.01
				C406.71,837.24,406.71,837.23,406.71,837.22z"/>
			<path class="st1" d="M412.66,843.98c1.52-0.03,2.76-0.78,3.22-2.32c0.08-0.28-0.28-0.39-0.44-0.18
				c-0.27,0.36-0.52,0.77-0.84,1.11c-0.91,0.35-2.03-0.15-3.14-0.11c-1.29,0.04-2.34,0.48-3.63-0.01c-0.02-0.01-0.05-0.01-0.07-0.01
				c-0.01-0.02-0.02-0.03-0.05-0.04c-0.16-0.05-0.39-0.21-0.55-0.11c-0.03,0.02-0.06,0.06-0.06,0.1c0.02,0.26,0.19,0.53,0.29,0.77
				c0.14,0.31,0.29,0.6,0.48,0.88c0.03,0.04,0.06,0.06,0.08,0.1c0,0.06,0.03,0.12,0.11,0.13c0.27,0.29,0.59,0.38,1.05,0.27
				c0.03-0.01,0.04-0.03,0.06-0.04c0.06,0,0.11,0.01,0.18,0.01c0.41,0,0.85-0.19,1.24-0.3C411.3,844.04,411.94,844,412.66,843.98z
				 M407.55,842.56c-0.01-0.01-0.02-0.01-0.03-0.02c0.01,0,0.02,0,0.04,0C407.56,842.55,407.56,842.55,407.55,842.56z
				 M407.95,843.13l-0.01-0.01C407.94,843.12,407.95,843.12,407.95,843.13L407.95,843.13z M408.32,843.87
				c-0.01-0.01-0.02-0.01-0.03-0.02c0,0,0-0.01-0.01-0.01c0.03,0,0.05,0,0.08,0C408.35,843.85,408.34,843.86,408.32,843.87z"/>
			<path class="st1" d="M576.56,808.08c-0.56-0.12-1.18,0.02-1.75,0.18c-0.13,0.04-0.11,0.25,0.03,0.24
				c0.61-0.07,1.25-0.15,1.8,0.18c0.42,0.26,0.5,0.68,0.85,1c0.19,0.17,0.43,0.26,0.65,0.39c0.15,0.09,0.28,0.18,0.41,0.28
				c0.24,0.24,0.47,0.48,0.71,0.71c0.37,0.47,1.06-0.2,0.67-0.67C578.93,809.17,578.14,808.12,576.56,808.08z"/>
			<path class="st1" d="M582.66,807.4c-0.36-0.41-0.69-0.76-1.18-0.72c-0.84-0.35-2.21-0.16-3.02,0.18
				c-0.12,0.05-0.08,0.25,0.04,0.27c0.94,0.2,2.44-0.17,3.02,0.69c0.56,0.83,0.98,1.48,1.8,2.11c0.34,0.26,0.81,0.03,0.72-0.42
				C583.86,808.55,583.26,808.09,582.66,807.4z"/>
			<path class="st1" d="M421.02,823.14c-0.06-0.05-0.14-0.07-0.23-0.03c-0.58,0.21-1.56,0.23-2.5,0.15
				c-0.68-0.16-1.35-0.33-1.99-0.55c-0.53-0.18-0.93-0.47-1.33-0.66c-0.12-0.09-0.25-0.17-0.39-0.25c-0.41-0.23-0.58-0.21-1.03-0.12
				c-0.24,0.05-0.29,0.32-0.2,0.5c0.22,0.47,0.68,0.68,1.2,0.81c1.79,1.27,4.18,2.44,6.16,1.62c0.3,0.04,0.48-0.22,0.47-0.46
				c0.13-0.31,0.14-0.63-0.05-0.93C421.11,823.18,421.07,823.15,421.02,823.14z"/>
			<path class="st1" d="M419.38,840.63c-0.01-0.02-0.02-0.03-0.03-0.04c-0.09-0.13-0.31-0.17-0.42,0c-0.49,0.79-0.73,1.72-1.22,2.51
				c-0.45,0.73-1.16,1.15-1.74,1.75c-0.57,0.59-0.78,1.03-1.64,1.29c-1.3,0.41-2.57,0.3-3.89,0.11c-0.16-0.02-0.21,0.18-0.07,0.24
				c0.22,0.09,0.44,0.17,0.65,0.23c0.02,0.03,0.04,0.05,0.07,0.06c1.64,0.53,3.56,1.61,5.25,0.92c1.08-0.44,2.94-1.38,3.1-2.68
				c0-0.03-0.01-0.06-0.01-0.09C420.18,843.77,419.73,841.74,419.38,840.63z"/>
			<path class="st1" d="M419.37,848.24c-0.12-0.1-0.25,0-0.24,0.12c-1.78,1.6-4.45,0.92-6.66,0.8c-0.14-0.01-0.26,0.15-0.22,0.29
				c0.09,0.26,0.24,0.48,0.42,0.66c0.02,0.02,0.03,0.04,0.05,0.05c0.59,0.52,1.56,0.7,2.51,0.74c-0.38,0.21-0.73,0.44-1.14,0.63
				c-1.42,0.64-3.14,0.15-4.64-0.28c-0.18-0.07-0.37-0.13-0.57-0.18c-0.17-0.04-0.31,0.01-0.41,0.1c-0.03-0.02-0.06-0.02-0.07,0.02
				c-0.01,0.04-0.02,0.07-0.03,0.11c-0.03,0.06-0.05,0.14-0.05,0.21c-0.04,0.16-0.08,0.32-0.1,0.49c-0.03,0.21,0.04,0.36,0.14,0.54
				c0.03,0.06,0.09,0.08,0.15,0.08c0.15,0.14,0.37,0.22,0.59,0.29c1.28,0.86,2.77,2.09,4.27,2.23c1.62,0.14,3.53-0.69,4.86-1.56
				c0.06-0.04,0.08-0.09,0.1-0.15c0.27-0.24,0.46-0.54,0.61-0.87c0.08-0.08,0.16-0.15,0.23-0.23c0.07-0.22,0.14-0.42,0.21-0.64
				C420.12,850.51,420.61,849.28,419.37,848.24z"/>
			<path class="st1" d="M414.86,858.84c-0.63,0.25-1.2,0.6-1.72,1.01c-0.04,0.01-0.08,0.02-0.12,0.05c-0.12,0.08-0.26,0.15-0.4,0.22
				c-0.88,0.06-1.78,0.01-2.6-0.09c-0.67-0.08-1.11-0.39-1.5-0.77c-0.07-0.22-0.12-0.44-0.2-0.66c-0.09-0.28-0.27-0.53-0.38-0.8
				c-0.2-0.49-0.45-0.93-1.05-0.88c-0.19,0.01-0.31,0.18-0.31,0.34c-0.1,0.16-0.1,0.34-0.02,0.5c-0.02,0.03-0.03,0.08,0,0.12
				c0.01,0.01,0.02,0.03,0.03,0.04c0.05,0.3,0.21,0.59,0.43,0.74c0.02,0.03,0.04,0.07,0.06,0.1c-0.04,0.37-0.1,0.77,0.13,1.09
				c0.46,0.64,1.32,1.02,2.03,1.29c1.13,0.43,2.78,0.71,3.85,0.02c0.01,0,0.01,0,0.02,0c0.05-0.02,0.09-0.04,0.14-0.06
				c0.02,0.03,0.05,0.06,0.09,0.04c0.46-0.17,0.94-0.4,1.31-0.74c0.11-0.1,0.19-0.2,0.25-0.31c0.04,0,0.08-0.02,0.1-0.06
				c0.11-0.25,0.49-0.85,0.19-1.06C415.16,858.87,415.03,858.77,414.86,858.84z"/>
			<path class="st1" d="M418.11,854.77c-0.1,0.21-0.21,0.42-0.31,0.64c-0.19,0.29-0.37,0.58-0.57,0.86
				c-0.03,0.01-0.05,0.01-0.08,0.02c-1.43,0.71-2.86,0.96-4.4,0.88c-1.24-0.29-2.48-0.86-3.61-1.43c-0.48-0.36-0.96-0.74-1.57-1.04
				c-0.06-0.03-0.14,0.03-0.13,0.08c0,0.01-0.01,0.01-0.01,0.01c-0.02,0.26-0.16,0.5-0.07,0.76c0.05,0.13,0.16,0.23,0.28,0.24
				c0.49,0.56,1.11,0.99,1.79,1.34c0.01,0.01,0.02,0.02,0.04,0.03c0.51,0.35,1.08,0.56,1.67,0.69c0.29,0.1,0.59,0.2,0.87,0.3
				c1.31,0.43,2.76,0.63,4.02,0.06c0.01-0.02,0.03-0.04,0.04-0.07c0.19-0.08,0.37-0.19,0.53-0.33c0.85-0.46,1.25-1.5,1.62-2.45
				c0.08-0.15,0.15-0.31,0.19-0.48C418.46,854.72,418.2,854.59,418.11,854.77z M407.69,855.11c0-0.02,0-0.03-0.01-0.05
				c0.01,0.01,0.02,0.02,0.04,0.03C407.71,855.1,407.7,855.1,407.69,855.11z"/>
			<path class="st1" d="M431.97,804.07c-0.12,0.05-0.22,0.1-0.32,0.15c-0.1-0.03-0.2-0.03-0.29,0.03c-0.41,0.26-0.88,0.43-1.38,0.53
				c-0.24,0.03-0.47,0.07-0.68,0.1c-0.47,0.04-0.95,0.02-1.43-0.05c-0.92-0.24-1.87-0.81-2.7-1.38c-0.24-0.17-0.47-0.34-0.71-0.5
				c-0.36-0.27-0.66-0.91-1.07-1.26c-0.02-0.13-0.04-0.25-0.07-0.38c-0.09-0.37-0.63-0.28-0.65,0.09c0,0.1-0.01,0.2-0.01,0.31
				c-0.16,0.34-0.18,0.73-0.11,1.12c-0.06,0.24-0.15,0.5-0.07,0.73c0.03,0.09,0.09,0.18,0.16,0.25c-0.01,0.03-0.01,0.05,0.01,0.08
				c0.33,0.46,0.76,0.91,1.26,1.33c0.77,0.76,1.81,1.36,2.55,1.67c1.02,0.42,2.34,0.52,3.46,0.17c0.53-0.12,0.73-0.33,1.19-0.67
				c0.33-0.24,0.59-0.93,0.59-1.41l0,0c0-0.08,0.41-0.17,0.45-0.26C432.29,804.4,432.35,803.92,431.97,804.07z"/>
			<path class="st1" d="M425.26,799.36c0.34,0.43,0.76,0.79,1.19,1.03c0.01,0.02,0.01,0.04,0.03,0.06c0.4,0.56,0.89,0.77,1.58,0.79
				c0.47,0.01,0.99-0.04,1.49-0.14c0.41,0.15,0.9,0.24,1.21-0.09c0.07-0.08,0.06-0.16,0.01-0.22c0.28-0.36,0.39-0.83-0.12-1.1
				c-0.33-0.18-0.78-0.07-1.13-0.02c-0.31,0.04-0.63,0.11-0.95,0.16c-0.05-0.05-0.1-0.09-0.18-0.1c-0.46-0.09-0.7-0.3-0.91-0.71
				c-0.09-0.18-0.18-0.35-0.31-0.5c-0.01-0.01-0.04-0.04-0.08-0.08c0.13-0.16,0.26-0.31,0.33-0.49c0.12-0.31,0.14-0.8-0.23-0.93
				c-0.01,0-0.01,0-0.02,0c-0.01-0.02-0.02-0.04-0.03-0.06c-0.6-0.61-1.6-1.44-0.62-2.4c0.22-0.22,0.4-0.28,0.59-0.54
				c0.17-0.23-0.15-0.44-0.35-0.35c-0.92,0.39-1.68,1.11-2.07,2.02c0,0,0,0-0.01,0c-0.55,0.91-0.39,2.04,0.13,3
				C424.91,798.93,425.06,799.16,425.26,799.36z M427.15,797.34c-0.02,0.04-0.04,0.08-0.07,0.13c0-0.02,0-0.04-0.01-0.06
				C427.1,797.39,427.13,797.37,427.15,797.34z"/>
			<path class="st1" d="M439.02,798.64c-0.06-0.21-0.25-0.4-0.63-0.5c-0.75-0.2-1.76,0.48-2.49,0.5c-0.79,0.02-1.7,0.14-2.56,0.07
				c-0.9-0.32-1.78-0.74-2.53-1.25c-0.25-0.17-0.55,0.2-0.35,0.42c0,0.02-0.01,0.04,0,0.07c0.51,1.26,1.63,1.85,2.84,1.92
				c2.32,0.58,6.65,1.45,6.1-0.91C439.37,798.77,439.2,798.66,439.02,798.64z"/>
			<path class="st1" d="M569.68,809.54c-0.37,0.09-0.73,0.2-1.09,0.31c-0.24,0.08-0.5,0.12-0.69,0.3c-0.02,0.02-0.01,0.03,0,0.05
				c-0.08,0.05-0.15,0.1-0.2,0.18c-0.06,0.1-0.08,0.23-0.01,0.33c0.06,0.08,0.16,0.12,0.26,0.11s0.19-0.05,0.28-0.09
				c0.25-0.14,0.45-0.34,0.71-0.45c0.28-0.11,0.61-0.11,0.83-0.31c0.19-0.17,0.24-0.43,0.29-0.67c-0.09,0.09-0.2,0.18-0.31,0.25
				C569.73,809.54,569.71,809.54,569.68,809.54z M568.59,809.98c0.04-0.01,0.07-0.01,0.11-0.02c-0.09,0.02-0.17,0.05-0.24,0.1
				L568.59,809.98z"/>
			<path class="st1" d="M555.06,704.49c-1.51,1.55-1.83,4.03-1.04,6.01c0.44,1.11,1.13,1.64,1.94,2.49
				c1.83,1.92,2.25,3.27,2.76,5.79c0.07,0.35,0.59,0.2,0.53-0.15c-0.36-2.06-0.24-4.57-1.72-6.22c-0.99-1.1-2.17-1.72-2.69-3.25
				c-0.54-1.6-0.22-3.05,0.41-4.58C555.29,704.49,555.13,704.42,555.06,704.49z"/>
			<path class="st1" d="M530.72,815.55c0.18,0.31,0.3,0.59,0.37,0.85c0.04,0.01,0.01,0.12,0.08,0.28c0.18,0.25,0.34,0.43,0.73,0.34
				c0.33-0.08,0.67-0.28,0.54-0.68c-0.02-0.09-0.04-0.17-0.07-0.26c-0.69-2.25-3.7-3.8-5.94-3.28c-0.15,0.03-0.15,0.23-0.04,0.31
				C527.81,814.05,529.77,813.91,530.72,815.55z"/>
			<path class="st1" d="M536.88,814.44c-0.01,0.19-0.02,0.4-0.05,0.6c-0.06,0.64,1.15,1.05,1.31,0.39c0.04-0.22,0.07-0.44,0.1-0.65
				c0.1-0.77-0.17-1.61-0.66-2.26c0.55,0.18,1.07,0.41,1.55,0.69c0.44,0.26,0.83,0.6,1.15,1.01c0.17,0.18,0.48,0.45,0.58,0.83
				c0.25,0.58,1.68,0.25,1.34-0.79c-0.09-0.2-0.19-0.39-0.31-0.56c-0.95-1.4-2.03-2.87-3.76-2.33c-1.94,0.33-3.93,0.4-5.69-0.34
				c0.06,0.06-1.27-0.3-0.26,0.57C533.49,812.73,536.96,812.07,536.88,814.44z"/>
			<path class="st1" d="M558.56,731.1c-0.05,0.06,0.03,0.14,0.09,0.09c3.48-3.14,6.82-6.1,11.3-7.75c3.91-1.44,8.11-2.25,12.17-3.14
				c0.09-0.02,0.08-0.18-0.02-0.17c-4.63,0.49-9.41,1.32-13.71,3.18C564.47,725,561.41,728.02,558.56,731.1z"/>
			<path class="st1" d="M583.24,720.99c-4.45,1.34-9.28,1.97-13.23,4.53c-3.84,2.49-6.76,5.89-9.84,9.22
				c-0.06,0.06,0.03,0.16,0.1,0.1c3.07-3.14,6.41-6.31,10.16-8.61c4-2.46,8.35-3.88,12.85-5.09
				C583.37,721.11,583.33,720.96,583.24,720.99z"/>
			<path class="st1" d="M584,721.27c-3.79,0.84-7.97,2.3-10.72,5.17c-1.64,1.71-2.97,3.74-4.51,5.55c-1.41,1.66-2.92,3.21-4.06,5.08
				c-0.04,0.07,0.06,0.16,0.12,0.09c2.56-3.16,5.42-6.09,8-9.24c2.82-3.44,6.93-5.49,11.19-6.55
				C584.09,721.35,584.06,721.26,584,721.27z"/>
			<path class="st1" d="M584.35,721.51c-6.62,3.8-13.42,9.93-14.58,17.89c-0.01,0.06,0.07,0.08,0.09,0.03
				c2.37-7.69,8.09-13.41,14.57-17.78C584.51,721.59,584.44,721.46,584.35,721.51z"/>
			<path class="st1" d="M577.15,734.41c2.01-4.58,4.58-8.43,7.39-12.55c0.02-0.03-0.03-0.07-0.05-0.04
				c-3.57,3.65-5.85,7.71-7.41,12.56C577.06,734.42,577.13,734.45,577.15,734.41z"/>
			<g>
				<g>
					<path class="st1" d="M576.88,736.8c-0.47-0.06-0.95-0.03-1.42-0.02c-0.46,0.01-0.92,0.05-1.38,0.12
						c-0.84,0.14-1.97,0.5-2.41,1.29c-0.31,0.56-0.14,1.36,0.46,1.66c0.49,0.24,1.12,0.15,1.64,0.08c0.51-0.08,0.99-0.27,1.39-0.6
						c0.37-0.3,0.67-0.69,0.95-1.08c0.15-0.2,0.28-0.4,0.41-0.62c0.13-0.23,0.25-0.45,0.45-0.62c0.21-0.19,0.41-0.38,0.63-0.54
						c0.19-0.14,0.43-0.25,0.54-0.47c0.05-0.09-0.01-0.24-0.13-0.23c-0.22,0.02-0.36,0.15-0.54,0.27c-0.2,0.14-0.41,0.27-0.61,0.4
						c-0.21,0.14-0.4,0.27-0.64,0.35c-0.23,0.08-0.47,0.15-0.69,0.25c-0.45,0.2-0.85,0.5-1.2,0.74c-0.09,0.06-0.19,0.12-0.28,0.18
						c-0.03,0.02-0.29,0.15-0.16,0.09c-0.1,0.04-0.21,0.07-0.31,0.09c-0.03,0.01-0.33,0.05-0.17,0.04
						c-0.09,0.01-0.19,0.02-0.28,0.02c-0.1,0-0.28-0.03-0.36,0.01c0.29,0.04,0.46,0.2,0.49,0.5c0,0.02,0,0.04,0,0.06
						c0.01,0.02,0,0.04-0.02,0.04c0.04-0.05,0.08-0.1,0.12-0.14c0.28-0.31,0.61-0.54,0.97-0.73c0.41-0.22,0.84-0.38,1.28-0.53
						c0.45-0.15,0.9-0.27,1.31-0.52C576.95,736.86,576.93,736.8,576.88,736.8L576.88,736.8z"/>
				</g>
			</g>
			<g>
				<g>
					<path class="st1" d="M572.85,738.68c0.03-0.1,0.12-0.12,0.21-0.14c0.13-0.04,0.27-0.08,0.4-0.12c0.32-0.1,0.64-0.19,0.96-0.29
						c0.63-0.19,1.26-0.38,1.89-0.56c0.52-0.15,0.3-0.91-0.22-0.8c-1.05,0.22-2.01,0.67-2.91,1.25c-0.25,0.16-0.36,0.46-0.24,0.73
						c0.12,0.28,0.4,0.4,0.69,0.34c0.78-0.15,1.48-0.54,2.15-0.94c0.28-0.17,0.41-0.57,0.23-0.86c-0.2-0.32-0.53-0.36-0.86-0.23
						c-0.75,0.32-1.48,0.66-2.21,1.01c-0.28,0.14-0.37,0.51-0.25,0.78s0.44,0.46,0.73,0.36c0.31-0.1,0.64-0.2,0.92-0.37
						c0.25-0.16,0.5-0.33,0.74-0.51c0.17-0.13,0.27-0.33,0.18-0.54c-0.08-0.19-0.3-0.32-0.51-0.25c-0.27,0.08-0.55,0.16-0.83,0.22
						s-0.55,0.17-0.83,0.26c0.16,0.38,0.32,0.76,0.48,1.14c0.35-0.17,0.71-0.34,1.07-0.5c0.17-0.08,0.35-0.16,0.53-0.23
						c0.08-0.04,0.17-0.07,0.25-0.11c0.11-0.05,0.17-0.07,0.22-0.09c-0.16-0.38-0.32-0.77-0.48-1.15c-0.31,0.18-0.62,0.35-0.94,0.51
						c-0.29,0.14-0.62,0.28-0.89,0.38c0.19,0.33,0.38,0.65,0.57,0.98c0.64-0.59,1.54-1.08,2.42-1.37c-0.07-0.27-0.15-0.53-0.22-0.8
						c-0.71,0.29-1.42,0.56-2.13,0.84c-0.34,0.13-0.68,0.25-1.01,0.4c-0.23,0.11-0.46,0.35-0.43,0.62
						C572.52,738.82,572.79,738.89,572.85,738.68L572.85,738.68z"/>
				</g>
			</g>
			<path class="st1" d="M584.15,714c-0.03,0-0.6-0.15-0.86-0.2c-0.55-0.17-1.11-0.33-1.65-0.53c-0.57-0.21-0.93-0.64-1.38-1.01
				c-0.49-0.82-1.42-1.7-2.19-2.11c-0.98-0.52-2.07-0.41-3.14-0.49c-0.02,0-0.01,0.02-0.01,0.03c-0.04,0.24,0.67,0.72,1.19,0.81
				c0.53,0.09,1.1,0.26,1.55,0.45c-1.02-0.13-2.12,0-2.92,0.48c-0.96,0.58-1.55,1.31-1.72,2.26c-0.06,0.16-0.07,0.56-0.11,0.73
				c-0.18,0.88-0.13,1.88,0.76,2.42c0.38,0.23,0.36-0.1,0.07-0.51c-0.21-0.29-0.16-0.91,0.15-1.27c0,0,0.63-0.55,2.03-0.13
				c0.66,0.19,0.68,0.33,1.08,0.45c0.39,0.12,0.78,0.17,1.16,0.15c0.29,0.03,0.69-0.09,0.94-0.18c0.37-0.07,0.73-0.18,1.11-0.31
				c0.65-0.22,1.27-0.2,1.89-0.2c0.05,0,0.09,0,0.14,0c0.07,0.2,0.07,0.39,0,0.59c-0.6,0.86-0.97,1.78-1.97,2.31
				c-0.05,0.03-0.01,0.11,0.05,0.08c0.77-0.36,1.27-1.01,1.8-1.64c0.29-0.34,0.57-0.7,0.89-1.01c0.38-0.37,0.78-0.55,1.24-0.79
				C584.41,714.27,584.34,713.98,584.15,714z M577.86,711.32c0.42,0.09,0.76,0.35,1.01,0.68c-0.41,0.2-0.63,0.28-1.16,0.09
				c-0.62-0.23-0.65-0.35-0.92-0.86C577.15,711.21,577.52,711.24,577.86,711.32z M579.22,714.21c-0.09,0.11-0.19,0.18-0.31,0.22
				c-0.81,0.35-1.81,0.43-2.85,0.01c-0.84-0.34-1.69-1-2.52-0.65c0.21-0.83,0.54-1.6,1.41-2.08c0.25-0.14,0.53-0.24,0.81-0.32
				c0.32,1.27,2.4,2.04,3.49,1.29c0.04,0.1,0.07,0.21,0.09,0.31C579.42,713.36,579.47,713.88,579.22,714.21z"/>
			<g>
				<path class="st1" d="M584.03,732.35C584.03,732.35,584.02,732.35,584.03,732.35c-0.09-0.17-0.22-0.62-0.22-0.62l0,0
					c-0.13-0.32-0.18-0.93-0.22-1.41c-0.19-2.76,1.03-5.59,1.58-8.25c0.01-0.05-0.06-0.09-0.09-0.04c-1.13,2.09-2.42,5.72-1.99,8.6
					c0.05,0.54,0.41,1.6,0.6,1.85c0.2,0.35,0.43,0.69,0.73,0.98c0.04,0.04,0.12-0.01,0.08-0.07
					C584.31,733.05,584.16,732.7,584.03,732.35z"/>
				<path class="st1" d="M586.05,731.47L586.05,731.47c-0.03-0.05-0.22-0.37-0.23-1.09l0,0c-0.03-0.41-0.02-1.01,0-1.5
					c0.05-0.65,0.13-1.32,0.2-2.01c0.14-1.48,0.1-2.94-0.07-4.42c-0.01-0.1-0.16-0.11-0.16,0c-0.08,2-0.2,3.93-0.39,5.92
					c-0.03,0.28-0.04,0.54-0.05,0.8c-0.04,0.49,0.06,1.16,0.12,1.52c0.03,0.19,0.1,0.41,0.14,0.55c0.13,0.4,0.32,0.79,0.59,1.18
					c0.07,0.11,0.23,0.02,0.17-0.1C586.24,732.05,586.14,731.76,586.05,731.47z"/>
			</g>
			<path class="st1" d="M544.88,733.86c-0.04-0.06-0.12-0.11-0.2-0.08c-0.02,0.01-0.04,0.01-0.06,0.02
				c-0.29-0.09-0.59,0.03-0.9,0.16c-0.45,0.19-1.02,0.43-1.37,0.77c-0.01,0.01-0.01,0.03-0.02,0.04c-0.07,0.03-0.14,0.07-0.19,0.09
				c-0.11,0.01-0.12,0.06-0.18,0.13c-0.02,0.01,0.05,0.02,0.05,0.03c0-0.02,0-0.04,0-0.06c0,0.02-0.11,0.05-0.12,0.07
				c-0.46,0.12-0.98,0.24-1.42,0.41c-0.39,0.15-1.5,0.49-1.38,1.07c0.11,0.53,1.47,0.71,1.87,0.66c0.42-0.05,0.75-0.25,1.04-0.55
				c0.07-0.07,0.22-0.24,0.38-0.44c0.07,0.03,0.14,0.05,0.22,0.06c0.5,0.25,1.1,0.17,1.58-0.18
				C544.74,735.62,545.34,734.53,544.88,733.86z"/>
			<path class="st1" d="M560.78,710.28c-0.4-0.85-0.82-1.69-1.26-2.5c-0.35-0.65-0.67-1.29-1.14-1.81
				c-0.38-0.55-0.84-1.05-1.43-1.47c-0.07-0.05-0.14-0.05-0.2-0.03c-0.51-0.46-1.12-0.59-1.86,0.14c-0.02,0.02,0,0.04,0.02,0.03
				c0.02-0.01,0.04-0.01,0.06-0.02c-1.42,1.55-1.72,3.96-0.95,5.9c0.44,1.11,1.13,1.64,1.94,2.49c1.83,1.92,2.25,3.27,2.76,5.8
				c0.07,0.35,0.59,0.2,0.53-0.15c-0.07-0.43-0.13-0.88-0.18-1.33c0-0.02,0.01-0.03,0.01-0.05c0.01-0.91,0.17-1.47,0.47-2.42
				C559.95,714.03,560.78,711.83,560.78,710.28z M558.83,715.46c-0.2-1.12-0.54-2.2-1.3-3.04c-0.99-1.1-2.17-1.72-2.69-3.25
				c-0.54-1.6-0.22-3.05,0.41-4.58c0.01-0.03,0.01-0.05-0.01-0.07c1.92-0.32,3.91,4.99,4.13,6.11
				C559.69,712.26,559.16,713.85,558.83,715.46z"/>
			<g>
				<path class="st1" d="M588.35,716.12c0.24,0.02,0.49,0.05,0.73-0.02c0.03-0.01,0.05-0.02,0.08-0.03
					c0.54-0.22,0.74-1.29,1.39-1.23c0.5,0.05,0.58,0.61,0.51,1.01c-0.07,0.39-0.24,0.76-0.48,1.07c-0.22,0.28-0.39,0.26-0.42,0.89
					c-0.03,0.64,0.58,0.67,1.19,1.25c0.09,0.12,0.14,0.29,0.14,0.56c-0.02,0.44,0.35,1.23-0.28,1.48c-0.98,0.43-1.82,1.12-2.87,1.48
					c-0.97,0.33-1.92,0.75-2.91,1.04c-1.98,0.59-4.04,0.96-5.46,2.59c-0.15,0.18,0.08,0.42,0.26,0.26c1.36-1.26,3.25-1.97,5.12-2.48
					c0.79-0.15,1.57-0.34,2.34-0.56c0.87-0.2,1.7-0.43,2.41-0.86c0.12-0.05,0.24-0.1,0.36-0.15c0.47-0.21,1.01-0.29,1.37-0.61
					c0.57-0.37-0.82,0.53,2.18,0.92v-0.01c0-0.09-0.2-0.18-0.27-0.21c0.01-0.06-0.09-0.1-0.14-0.16c-0.03-0.03-0.09-0.06-0.12-0.09
					c-0.09-0.19-0.24-0.37-0.36-0.51c-0.17-0.19-0.41-0.32-0.58-0.5c-0.07-0.11-0.15-0.22-0.22-0.33c-0.03-0.04-0.07-0.07-0.11-0.08
					c-0.12-0.35-0.1-1.25-0.1-1.25s0.04-0.43,0.04-0.58c0.11-0.26,0.27-0.46,0.45-0.75c0.42-0.43,0.7-0.44,0.91-1.12
					c0.3-1.36,0.54-2.09-0.3-3.12c-0.55-0.68-1.38-1.54-2.73-1.15c-1.53,0.26-2.24,0.53-2.33,0.64c-0.03,0.02-0.12,0.23-0.14,0.33
					c-0.04,0.21-0.07,0.4-0.24,0.55c-0.22,0.2-0.53,0.22-0.84,0.22c-0.43,0.06-0.65,0.13-0.9,0.34c-0.04,0.03-0.13,0.1-0.14,0.15
					c-0.24,0.27-0.22,0.63,0.08,0.86c0.26,0.2,0.57,0.21,0.89,0.19s0.61-0.03,0.91-0.02C587.75,716.12,588.18,716.09,588.35,716.12z
					"/>
			</g>
		</g>
		<g>
			<g>
				<g>
					<g>
						<g>
							<defs>
								<circle id="SVGID_1_" cx="683.17" cy="323.87" r="125.73"/>
							</defs>
							<clipPath id="SVGID_2_">
								<use xlink:href="#SVGID_1_"  style="overflow:visible;"/>
							</clipPath>
							<g class="st2">
								<rect x="501.2" y="120.09" class="st3" width="28" height="370.76"/>
								<rect x="557.19" y="120.09" class="st3" width="28" height="370.76"/>
								<rect x="613.18" y="120.09" class="st3" width="28" height="370.76"/>
								<rect x="683.25" y="120.09" class="st3" width="28" height="370.76"/>
								<rect x="725.16" y="120.09" class="st3" width="28" height="370.76"/>
								<rect x="781.16" y="120.09" class="st3" width="28" height="370.76"/>
								<rect x="837.15" y="120.09" class="st3" width="28" height="370.76"/>
							</g>
						</g>
					</g>
					<g>
						<g>
							<defs>
								<circle id="SVGID_3_" cx="545.76" cy="323.87" r="95.63"/>
							</defs>
							<clipPath id="SVGID_4_">
								<use xlink:href="#SVGID_3_"  style="overflow:visible;"/>
							</clipPath>
							<g class="st4">
								<rect x="390.77" y="440.99" class="st5" width="282" height="21.29"/>
								<rect x="390.76" y="398.4" class="st5" width="282" height="21.29"/>
								<rect x="390.77" y="291.6" class="st5" width="282" height="64.56"/>
								<rect x="390.76" y="228.05" class="st5" width="282" height="21.29"/>
								<rect x="390.76" y="185.47" class="st5" width="282" height="21.29"/>
							</g>
						</g>
					</g>
					<rect x="366.07" y="321.23" class="st6" width="275.24" height="5.8"/>
				</g>
				<g>
					<path d="M196.43,316.21l1.28-0.27l4.28,11.78l1.05,2.31h-2.29l-1.32-3.61h-5.14l-1.36,3.61h-1.83L196.43,316.21z
						 M194.85,324.82h4.05l-1.74-4.83l-0.21-0.82l-0.25,0.84L194.85,324.82z"/>
					<path d="M211.63,330.03v-6.05c0-2-0.23-2.94-1.53-2.94c-2.2,0-3.21,1.55-3.21,1.55v5.86l0.21,1.58h-1.97v-8.4l-0.27-1.93
						l2.04-0.23v1.58c0.88-0.97,2.37-1.64,3.76-1.64s2.75,0.8,2.75,2.48v6.61l0.21,1.53L211.63,330.03L211.63,330.03z"/>
					<path d="M219.19,319.7h3.21l-0.63,1.43h-2.58v6.15c0,0.99,0.5,1.34,1.15,1.34c0.8,0,1.72-0.34,2.27-0.86l0.29,1.6
						c-0.9,0.71-2.02,0.94-2.98,0.94c-1.36,0-2.5-0.88-2.5-3.19v-5.98h-1.28v-1.43h1.28v-1.89l1.97-0.23L219.19,319.7z"/>
					<path d="M229.21,319.38c2.52,0,4.41,1.68,4.41,5.25c0,3.02-1.89,5.67-5.12,5.67c-4.33,0-4.43-4.93-4.43-5.27
						C224.07,321.78,226.02,319.38,229.21,319.38z M228.83,328.9c1.76,0,2.86-1.85,2.86-4.05c0-2.2-1.09-4.05-2.86-4.05
						s-2.83,1.85-2.83,4.05S227.07,328.9,228.83,328.9z"/>
					<path d="M243.15,330.03v-6.05c0-2-0.23-2.94-1.53-2.94c-2.2,0-3.21,1.55-3.21,1.55v5.86l0.21,1.58h-1.97v-8.4l-0.27-1.93
						l2.04-0.23v1.58c0.88-0.97,2.37-1.64,3.76-1.64s2.75,0.8,2.75,2.48v6.61l0.21,1.53L243.15,330.03L243.15,330.03z"/>
					<path d="M249.62,315.48c0.57,0,1.07,0.5,1.07,1.09s-0.5,1.13-1.07,1.13c-0.61,0-1.09-0.54-1.09-1.13
						S249.01,315.48,249.62,315.48z M250.61,328.46l0.21,1.58h-1.97v-8.4l-0.27-1.93l2.04-0.23L250.61,328.46L250.61,328.46z"/>
					<path d="M258.78,319.38c2.52,0,4.41,1.68,4.41,5.25c0,3.02-1.89,5.67-5.12,5.67c-4.33,0-4.43-4.93-4.43-5.27
						C253.63,321.78,255.59,319.38,258.78,319.38z M258.4,328.9c1.76,0,2.86-1.85,2.86-4.05c0-2.2-1.09-4.05-2.86-4.05
						s-2.83,1.85-2.83,4.05C255.56,327.05,256.64,328.9,258.4,328.9z"/>
					<path d="M277.11,324.84c0,1.58-1.26,2.81-2.79,2.81c-1.57,0-2.81-1.24-2.81-2.81c0-1.53,1.24-2.77,2.81-2.77
						C275.85,322.07,277.11,323.31,277.11,324.84z"/>
					<path d="M295.53,319.11c-0.99-1.03-2.14-1.6-3.53-1.6c-2.71,0-4.58,2.77-4.58,5.69c0,3.38,2.37,5.48,4.72,5.48
						c1.91,0,4.07-1.76,4.07-1.76l0.46,1.55c0,0-2.02,1.83-4.87,1.83c-3.25,0-6.4-2.39-6.4-6.89c0-4.3,2.98-7.45,6.68-7.45
						c1.74,0,3.17,0.59,4.41,1.72L295.53,319.11z"/>
					<path d="M298.84,321.02c0,0,1.34-1.62,4.12-1.62c1.64,0,3.15,0.71,3.15,2.69v5.56c0,1.26,0.94,2.37,0.94,2.37l-1.95,0.27
						c0,0-0.59-0.8-0.61-1.72c-0.57,0.86-2.04,1.72-3.34,1.72c-1.43,0-2.71-1.05-2.71-2.6c0-2.33,2.44-3.88,5.9-3.88v-0.76
						c0-1.68-0.71-2.25-1.58-2.25c-1.93,0-2.98,1.58-2.98,1.58L298.84,321.02z M304.35,327.49v-2.33c-0.55,0.02-4.01,0.08-4.01,2.23
						c0,0.67,0.48,1.41,1.6,1.41C302.85,328.79,303.93,327.97,304.35,327.49z"/>
					<path d="M315.69,321.7c-0.34-0.29-0.78-0.44-1.07-0.44c-1.34,0-2.81,1.55-2.81,3.42v3.78l0.21,1.58h-1.97v-8.4l-0.27-1.93
						l2.04-0.23v2.31c0.4-0.71,1.36-2.39,3.28-2.39c0.48,0,0.94,0.19,1.32,0.59L315.69,321.7z"/>
					<path d="M324.69,330.03v-6.05c0-2-0.23-2.94-1.53-2.94c-2.2,0-3.21,1.55-3.21,1.55v5.86l0.21,1.58h-1.97v-8.4l-0.27-1.93
						l2.04-0.23v1.58c0.88-0.97,2.37-1.64,3.76-1.64c1.11,0,2.21,0.55,2.6,1.64c0.88-0.97,2.37-1.64,3.76-1.64s2.75,0.8,2.75,2.48
						v6.61l0.21,1.53h-1.97v-6.05c0-2-0.23-2.94-1.53-2.94c-1.68,0-2.69,0.94-3.07,1.36v6.09l0.21,1.53h-1.99V330.03z"/>
					<path d="M344.04,324.32l-0.48,0.55h-5.86c0.04,1.89,0.92,3.82,2.96,3.82c1.78,0,3.3-1.43,3.3-1.43l0.29,1.6
						c0,0-1.49,1.45-4.09,1.45c-2.75,0-4.33-2.64-4.33-5.25c0-2.96,1.43-5.67,4.64-5.67C343.74,319.38,343.99,323.02,344.04,324.32z
						 M337.8,323.52h4.32c-0.06-1.09-0.46-2.77-1.91-2.77C338.79,320.75,338.09,322.01,337.8,323.52z"/>
					<path d="M353.59,330.03v-6.05c0-2-0.23-2.94-1.53-2.94c-2.21,0-3.21,1.55-3.21,1.55v5.86l0.21,1.58h-1.97v-8.4l-0.27-1.93
						l2.04-0.23v1.58c0.88-0.97,2.37-1.64,3.76-1.64s2.75,0.8,2.75,2.48v6.61l0.21,1.53L353.59,330.03L353.59,330.03z"/>
				</g>
			</g>
			<g>
				<g>
					<g>
						<defs>
							<circle id="SVGID_5_" cx="683.17" cy="323.87" r="125.73"/>
						</defs>
						<clipPath id="SVGID_6_">
							<use xlink:href="#SVGID_5_"  style="overflow:visible;"/>
						</clipPath>
						<g class="st7">
							<rect x="501.2" y="120.09" class="st3" width="28" height="370.76"/>
							<rect x="557.19" y="120.09" class="st3" width="28" height="370.76"/>
							<rect x="613.18" y="120.09" class="st3" width="28" height="370.76"/>
							<rect x="683.25" y="120.09" class="st3" width="28" height="370.76"/>
							<rect x="725.16" y="120.09" class="st3" width="28" height="370.76"/>
							<rect x="781.16" y="120.09" class="st3" width="28" height="370.76"/>
							<rect x="837.15" y="120.09" class="st3" width="28" height="370.76"/>
						</g>
					</g>
				</g>
				<g>
					<g>
						<defs>
							<circle id="SVGID_7_" cx="545.76" cy="323.87" r="95.63"/>
						</defs>
						<clipPath id="SVGID_8_">
							<use xlink:href="#SVGID_7_"  style="overflow:visible;"/>
						</clipPath>
						<g class="st8">
							<rect x="390.77" y="440.99" class="st5" width="282" height="21.29"/>
							<rect x="390.76" y="398.4" class="st5" width="282" height="21.29"/>
							<rect x="390.77" y="291.6" class="st5" width="282" height="64.56"/>
							<rect x="390.76" y="228.05" class="st5" width="282" height="21.29"/>
							<rect x="390.76" y="185.47" class="st5" width="282" height="21.29"/>
						</g>
					</g>
				</g>
				<rect x="366.07" y="321.23" class="st6" width="275.24" height="5.8"/>
			</g>
		</g>
	</g>
</g>
<g id="Layer_1">
	<g id="linea_definitiva">
	</g>
	<g>
		<g>
			<polyline class="st9" points="499,764.33 500,766.06 501,764.33 			"/>
			<line class="st10" x1="502.99" y1="760.87" x2="753.26" y2="327.4"/>
			<polyline class="st9" points="754.26,325.67 755.26,323.94 753.26,323.94 			"/>
			<line class="st10" x1="749.27" y1="323.94" x2="248.74" y2="323.94"/>
			<polyline class="st9" points="246.74,323.94 244.74,323.94 245.74,325.67 			"/>
			<line class="st10" x1="247.74" y1="329.13" x2="498" y2="762.6"/>
		</g>
	</g>
	<circle class="st11" cx="500" cy="766.06" r="13.92"/>
	<circle class="st11" cx="245.14" cy="324.13" r="13.92"/>
	<circle class="st11" cx="755.56" cy="324.13" r="13.92"/>
</g>
</svg>
