<?xml version="1.0" encoding="utf-8"?>
<!-- Generator: Adobe Illustrator 19.2.0, SVG Export Plug-In . SVG Version: 6.00 Build 0)  -->
<svg version="1.1" id="Layer_1" xmlns="http://www.w3.org/2000/svg" xmlns:xlink="http://www.w3.org/1999/xlink" x="0px" y="0px"
	 viewBox="0 0 200 200" style="enable-background:new 0 0 200 200;" xml:space="preserve">
<style type="text/css">
	.st0{fill:#212529;}
	.st1{fill:#7D7801;}
	.st2{fill:#FDF202;}
</style>
<rect x="0" class="st0" width="200" height="200"/>
<g>
	<g>
		<g>
			<path class="st1" d="M61.4,122.7l5.3-0.8L89,58h15.1l22.2,64l5.3,0.8v8.8h-25.1v-8.8l5.1-0.9l-3.2-10.1H84.6l-3.2,10.1l5.1,0.9
				v8.8H61.4V122.7z M88.1,100.8H105l-8.3-25.9h-0.3L88.1,100.8z"/>
		</g>
	</g>
	<g>
		<g>
			<path class="st2" d="M68.4,118.7l5.3-0.8l22.4-64h15.1l22.2,64l5.3,0.8v8.8h-25.1v-8.8l5.1-0.9l-3.2-10.1H91.6l-3.2,10.1l5.1,0.9
				v8.8H68.4V118.7z M95.1,96.9H112l-8.3-25.9h-0.3L95.1,96.9z"/>
		</g>
	</g>
	<g>
		<g>
			<path class="st1" d="M62.8,149.1l0.8-0.1l3.3-9.5h2.2l3.3,9.5l0.8,0.1v1.3h-3.7v-1.3l0.8-0.1l-0.5-1.5h-3.5l-0.5,1.5l0.8,0.1v1.3
				h-3.7V149.1z M66.8,145.8h2.5l-1.2-3.9h0L66.8,145.8z"/>
			<path class="st1" d="M78.9,139.5c1.2,0,2.2,0.3,2.9,0.9c0.7,0.6,1.1,1.4,1.1,2.4c0,0.6-0.1,1-0.4,1.4c-0.3,0.4-0.7,0.7-1.3,1
				c0.6,0.2,1.1,0.5,1.4,1c0.3,0.4,0.4,1,0.4,1.7v0.6c0,0.2,0,0.4,0.1,0.6c0.1,0.1,0.3,0.2,0.5,0.2l0.3,0v1.3h-1.1
				c-0.7,0-1.2-0.2-1.5-0.6c-0.3-0.4-0.4-0.9-0.4-1.5v-0.6c0-0.5-0.1-0.9-0.4-1.3c-0.3-0.3-0.7-0.5-1.2-0.5h-1.8v2.9l1.2,0.2v1.3H74
				v-1.3l1.2-0.2V141l-1.2-0.2v-1.3h1.2H78.9z M77.4,144.3h1.5c0.6,0,1.1-0.1,1.4-0.4c0.3-0.3,0.5-0.6,0.5-1.1s-0.2-0.9-0.5-1.2
				c-0.3-0.3-0.8-0.4-1.3-0.4h-1.6V144.3z"/>
			<path class="st1" d="M89.5,139.5c1.2,0,2.2,0.3,2.9,0.9c0.7,0.6,1.1,1.4,1.1,2.4c0,0.6-0.1,1-0.4,1.4c-0.3,0.4-0.7,0.7-1.3,1
				c0.6,0.2,1.1,0.5,1.4,1c0.3,0.4,0.4,1,0.4,1.7v0.6c0,0.2,0,0.4,0.1,0.6c0.1,0.1,0.3,0.2,0.5,0.2l0.3,0v1.3h-1.1
				c-0.7,0-1.2-0.2-1.5-0.6c-0.3-0.4-0.4-0.9-0.4-1.5v-0.6c0-0.5-0.1-0.9-0.4-1.3c-0.3-0.3-0.7-0.5-1.2-0.5h-1.8v2.9l1.2,0.2v1.3
				h-4.5v-1.3l1.2-0.2V141l-1.2-0.2v-1.3h1.2H89.5z M87.9,144.3h1.5c0.6,0,1.1-0.1,1.4-0.4c0.3-0.3,0.5-0.6,0.5-1.1
				s-0.2-0.9-0.5-1.2c-0.3-0.3-0.8-0.4-1.3-0.4h-1.6V144.3z"/>
			<path class="st1" d="M102.2,145.6h-3.7v3.1h3.5l0.1-1.3h1.7v3h-8.7v-1.3l1.2-0.2V141l-1.2-0.2v-1.3h1.2h7.5v3h-1.7l-0.1-1.3h-3.5
				v2.8h3.7V145.6z"/>
			<path class="st1" d="M114,143.1h-1.6l-0.2-1.5c-0.2-0.2-0.5-0.4-0.8-0.5c-0.3-0.1-0.7-0.2-1.2-0.2c-1,0-1.7,0.3-2.2,1
				c-0.5,0.7-0.8,1.6-0.8,2.7v0.4c0,1.1,0.3,2,0.8,2.7c0.5,0.7,1.2,1,2.2,1c0.4,0,0.8-0.1,1.2-0.2c0.4-0.1,0.6-0.3,0.8-0.5l0.2-1.5
				h1.6v2.2c-0.4,0.5-1,0.9-1.7,1.2c-0.7,0.3-1.4,0.5-2.3,0.5c-1.5,0-2.7-0.5-3.6-1.5c-0.9-1-1.4-2.3-1.4-3.9v-0.4
				c0-1.6,0.5-2.9,1.4-3.9c0.9-1,2.1-1.5,3.6-1.5c0.8,0,1.6,0.2,2.3,0.5c0.7,0.3,1.2,0.7,1.7,1.2V143.1z"/>
			<path class="st1" d="M115,140.8v-1.3h4.5v1.3l-1.2,0.2v7.9l1.2,0.2v1.3H115v-1.3l1.2-0.2V141L115,140.8z"/>
			<path class="st1" d="M120.3,149.1l1.2-0.2V141l-1.2-0.2v-1.3h8.7v3h-1.7l-0.1-1.3h-3.6v3h3.8v1.7h-3.8v3l1.2,0.2v1.3h-4.5V149.1z
				"/>
			<path class="st1" d="M136.9,145.6h-3.7v3.1h3.5l0.1-1.3h1.7v3h-8.7v-1.3l1.2-0.2V141l-1.2-0.2v-1.3h1.2h7.5v3h-1.7l-0.1-1.3h-3.5
				v2.8h3.7V145.6z"/>
		</g>
	</g>
</g>
</svg>
