<?xml version="1.0" encoding="utf-8"?>
<!-- Generator: Adobe Illustrator 19.2.0, SVG Export Plug-In . SVG Version: 6.00 Build 0)  -->
<svg version="1.1" xmlns="http://www.w3.org/2000/svg" xmlns:xlink="http://www.w3.org/1999/xlink" x="0px" y="0px"
	 viewBox="0 0 1400 800" style="enable-background:new 0 0 1400 800;" xml:space="preserve">
<style type="text/css">
	.st0{fill:#F1F1F1;}
	.st1{fill:#3C3C3D;}
	.st2{fill:#F16E21;}
	.st3{fill:#B3D134;}
	.st4{fill:#06B5B3;}
	.st5{opacity:0.8;}
	.st6{fill:#414141;}
</style>
<g id="BG">
	<rect class="st0" width="1400" height="800"/>
</g>
<g id="Elements">
	<g>
		<polygon class="st1" points="896.2,412.2 1010.9,346 1010.9,270 896.2,203.8 715.7,308.1 		"/>
		<polygon class="st2" points="389.2,270 389.1,345.9 503.7,412.2 684.3,308.1 503.9,203.8 		"/>
		<polygon class="st3" points="692.1,530 692.1,321.5 511.7,425.7 511.7,558.2 577.5,596.2 		"/>
		<polygon class="st4" points="707.8,321.5 707.7,529.9 822.5,596.2 888.3,558.2 888.3,425.8 		"/>
	</g>
	<g>
		<g class="st5">
			<path class="st6" d="M332.2,342.8C332.2,342.8,332.2,342.8,332.2,342.8l0.4-1.9h-0.5c-0.2,0-0.4-0.2-0.4-0.6v-0.1
				c0-0.4,0.1-0.6,0.4-0.6h0.8l0.3-1.3h-0.6c-0.2,0-0.4-0.2-0.4-0.6v-0.1c0-0.4,0.1-0.6,0.4-0.6h0.8l0.3-1.7c0-0.2,0.3-0.4,0.7-0.4
				h0.2c0.4,0,0.5,0.1,0.5,0.3c0,0,0,0.1,0,0.1l-0.3,1.7h1.1l0.3-1.7c0-0.2,0.3-0.4,0.7-0.4h0.2c0.4,0,0.5,0.1,0.5,0.3
				c0,0,0,0.1,0,0.1l-0.3,1.7h0.4c0.2,0,0.4,0.2,0.4,0.6v0.1c0,0.4-0.1,0.6-0.4,0.6h-0.6l-0.3,1.3h0.5c0.2,0,0.4,0.2,0.4,0.6v0.1
				c0,0.4-0.1,0.6-0.4,0.6h-0.7l-0.3,1.8c0,0.2-0.3,0.4-0.7,0.4h-0.2c-0.4,0-0.6-0.1-0.6-0.3c0,0,0-0.1,0-0.1l0.3-1.8h-1.1l-0.3,1.8
				c0,0.2-0.3,0.4-0.7,0.4h-0.2C332.4,343.1,332.2,343,332.2,342.8z M334.2,339.6h1.1l0.3-1.3h-1.1L334.2,339.6z"/>
			<path class="st6" d="M338.8,342.7v-7.6c0-0.3,0.2-0.5,0.5-0.5h4c0.2,0,0.4,0.2,0.4,0.6v0.4c0,0.4-0.1,0.6-0.4,0.6h-2.6v1.8h2.6
				c0.2,0,0.4,0.2,0.4,0.6v0.4c0,0.4-0.1,0.6-0.4,0.6h-2.6v3.1c0,0.3-0.2,0.4-0.7,0.4h-0.4C339.1,343.1,338.8,343,338.8,342.7z"/>
			<path class="st6" d="M344.9,342.7v-7.6c0-0.3,0.2-0.5,0.5-0.5h4c0.2,0,0.4,0.2,0.4,0.6v0.4c0,0.4-0.1,0.6-0.4,0.6h-2.6v1.8h2.6
				c0.2,0,0.4,0.2,0.4,0.6v0.4c0,0.4-0.1,0.6-0.4,0.6h-2.6v3.1c0,0.3-0.2,0.4-0.7,0.4h-0.4C345.1,343.1,344.9,343,344.9,342.7z"/>
			<path class="st6" d="M350.5,340c0-0.9,0.1-1.6,0.4-2.3c0.3-0.7,0.6-1.2,1-1.6c0.4-0.4,0.8-0.7,1.2-0.9s0.8-0.4,1-0.5
				c0.3-0.1,0.4-0.1,0.5-0.1c0.2,0,0.3,0.1,0.4,0.4c0.1,0.2,0.2,0.4,0.2,0.6c0,0.1,0,0.2,0,0.2c0,0-0.1,0.1-0.1,0.1
				c-0.9,0.3-1.7,0.8-2.2,1.5c-0.2,0.3-0.3,0.5-0.4,0.8c0.4-0.2,0.7-0.3,1.1-0.3s0.6,0,0.9,0.1s0.5,0.2,0.8,0.4
				c0.3,0.2,0.5,0.4,0.6,0.8c0.2,0.3,0.2,0.8,0.2,1.2s-0.1,0.9-0.2,1.2c-0.2,0.4-0.4,0.6-0.7,0.9c-0.5,0.4-1.2,0.6-1.9,0.6
				c-0.7,0-1.4-0.2-1.9-0.7c-0.3-0.2-0.5-0.6-0.7-1C350.6,341.1,350.5,340.6,350.5,340z M353.3,341.8c0.3,0,0.5-0.1,0.7-0.3
				c0.2-0.2,0.3-0.5,0.3-0.9s-0.1-0.7-0.3-0.9c-0.2-0.2-0.4-0.3-0.8-0.3s-0.6,0.1-1,0.3c0,0.1,0,0.3,0,0.6
				C352.3,341.2,352.6,341.8,353.3,341.8z"/>
			<path class="st6" d="M357.3,342.6v-7.4c0-0.3,0.2-0.5,0.5-0.5h2.7c1.2,0,2.2,0.4,2.9,1.1c0.7,0.7,1,1.8,1,3.1
				c0,1.4-0.3,2.4-1,3.1c-0.7,0.7-1.6,1.1-2.9,1.1h-2.7C357.5,343.1,357.3,342.9,357.3,342.6z M359.2,341.5h1.3
				c0.6,0,1.1-0.2,1.5-0.7c0.3-0.4,0.5-1.1,0.5-2c0-0.9-0.2-1.5-0.5-2c-0.3-0.4-0.8-0.7-1.5-0.7h-1.3V341.5z"/>
			<path class="st6" d="M370.1,342c-0.5,0.8-1.2,1.1-2.1,1.1c-0.9,0-1.6-0.4-2.1-1.1c-0.5-0.8-0.8-1.8-0.8-3.2s0.3-2.4,0.8-3.2
				c0.5-0.8,1.2-1.1,2.1-1.1c0.9,0,1.6,0.4,2.1,1.1c0.5,0.8,0.8,1.8,0.8,3.2S370.6,341.3,370.1,342z M367,338.9c0,1.9,0.3,2.9,1,2.9
				c0.7,0,1-1,1-2.9c0-1.9-0.3-2.9-1-2.9C367.4,336,367,336.9,367,338.9z"/>
			<path class="st6" d="M376.6,342c-0.5,0.8-1.2,1.1-2.1,1.1c-0.9,0-1.6-0.4-2.1-1.1c-0.5-0.8-0.8-1.8-0.8-3.2s0.3-2.4,0.8-3.2
				c0.5-0.8,1.2-1.1,2.1-1.1c0.9,0,1.6,0.4,2.1,1.1c0.5,0.8,0.8,1.8,0.8,3.2S377.1,341.3,376.6,342z M373.4,338.9
				c0,1.9,0.3,2.9,1,2.9c0.7,0,1-1,1-2.9c0-1.9-0.3-2.9-1-2.9C373.8,336,373.4,336.9,373.4,338.9z"/>
		</g>
		<g class="st5">
			<path class="st6" d="M1024.1,342.8C1024.1,342.8,1024.1,342.8,1024.1,342.8l0.4-1.9h-0.5c-0.2,0-0.4-0.2-0.4-0.6v-0.1
				c0-0.4,0.1-0.6,0.4-0.6h0.8l0.3-1.3h-0.6c-0.2,0-0.4-0.2-0.4-0.6v-0.1c0-0.4,0.1-0.6,0.4-0.6h0.8l0.3-1.7c0-0.2,0.3-0.4,0.7-0.4
				h0.2c0.4,0,0.5,0.1,0.5,0.3c0,0,0,0.1,0,0.1l-0.3,1.7h1.1l0.3-1.7c0-0.2,0.3-0.4,0.7-0.4h0.2c0.4,0,0.5,0.1,0.5,0.3
				c0,0,0,0.1,0,0.1l-0.3,1.7h0.4c0.2,0,0.4,0.2,0.4,0.6v0.1c0,0.4-0.1,0.6-0.4,0.6h-0.6l-0.3,1.3h0.5c0.2,0,0.4,0.2,0.4,0.6v0.1
				c0,0.4-0.1,0.6-0.4,0.6h-0.7l-0.3,1.8c0,0.2-0.3,0.4-0.7,0.4h-0.2c-0.4,0-0.6-0.1-0.6-0.3c0,0,0-0.1,0-0.1l0.3-1.8h-1.1l-0.3,1.8
				c0,0.2-0.3,0.4-0.7,0.4h-0.2C1024.3,343.1,1024.1,343,1024.1,342.8z M1026,339.6h1.1l0.3-1.3h-1.1L1026,339.6z"/>
			<path class="st6" d="M1030.4,341.4c-0.1,0-0.2-0.1-0.3-0.4c-0.1-0.3-0.2-0.5-0.2-0.6s0-0.2,0-0.2l3.6-5.2
				c0.1-0.2,0.3-0.2,0.7-0.2h0.3c0.5,0,0.7,0.1,0.7,0.4v4.9h0.5c0.2,0,0.4,0.2,0.4,0.6v0.2c0,0.4-0.1,0.6-0.4,0.6h-0.5v1.3
				c0,0.3-0.2,0.4-0.7,0.4h-0.3c-0.5,0-0.7-0.1-0.7-0.4v-1.3H1030.4z M1033.6,340v-2.7l0,0l-1.8,2.8H1033.6z"/>
			<path class="st6" d="M1041.6,342c-0.5,0.8-1.2,1.1-2.1,1.1c-0.9,0-1.6-0.4-2.1-1.1c-0.5-0.8-0.8-1.8-0.8-3.2s0.3-2.4,0.8-3.2
				c0.5-0.8,1.2-1.1,2.1-1.1c0.9,0,1.6,0.4,2.1,1.1c0.5,0.8,0.8,1.8,0.8,3.2S1042.1,341.3,1041.6,342z M1038.5,338.9
				c0,1.9,0.3,2.9,1,2.9c0.7,0,1-1,1-2.9c0-1.9-0.3-2.9-1-2.9C1038.8,336,1038.5,336.9,1038.5,338.9z"/>
			<path class="st6" d="M1043.3,341.4c-0.1,0-0.2-0.1-0.3-0.4c-0.1-0.3-0.2-0.5-0.2-0.6s0-0.2,0-0.2l3.6-5.2
				c0.1-0.2,0.3-0.2,0.7-0.2h0.3c0.5,0,0.7,0.1,0.7,0.4v4.9h0.5c0.2,0,0.4,0.2,0.4,0.6v0.2c0,0.4-0.1,0.6-0.4,0.6h-0.5v1.3
				c0,0.3-0.2,0.4-0.7,0.4h-0.3c-0.5,0-0.7-0.1-0.7-0.4v-1.3H1043.3z M1046.4,340v-2.7l0,0l-1.8,2.8H1046.4z"/>
			<path class="st6" d="M1054.4,342c-0.5,0.8-1.2,1.1-2.1,1.1c-0.9,0-1.6-0.4-2.1-1.1c-0.5-0.8-0.8-1.8-0.8-3.2s0.3-2.4,0.8-3.2
				c0.5-0.8,1.2-1.1,2.1-1.1c0.9,0,1.6,0.4,2.1,1.1c0.5,0.8,0.8,1.8,0.8,3.2S1054.9,341.3,1054.4,342z M1051.3,338.9
				c0,1.9,0.3,2.9,1,2.9c0.7,0,1-1,1-2.9c0-1.9-0.3-2.9-1-2.9C1051.6,336,1051.3,336.9,1051.3,338.9z"/>
			<path class="st6" d="M1056.1,341.4c-0.1,0-0.2-0.1-0.3-0.4c-0.1-0.3-0.2-0.5-0.2-0.6s0-0.2,0-0.2l3.6-5.2
				c0.1-0.2,0.3-0.2,0.7-0.2h0.3c0.5,0,0.7,0.1,0.7,0.4v4.9h0.5c0.2,0,0.4,0.2,0.4,0.6v0.2c0,0.4-0.1,0.6-0.4,0.6h-0.5v1.3
				c0,0.3-0.2,0.4-0.7,0.4h-0.3c-0.5,0-0.7-0.1-0.7-0.4v-1.3H1056.1z M1059.3,340v-2.7l0,0l-1.8,2.8H1059.3z"/>
			<path class="st6" d="M1067.3,342c-0.5,0.8-1.2,1.1-2.1,1.1c-0.9,0-1.6-0.4-2.1-1.1c-0.5-0.8-0.8-1.8-0.8-3.2s0.3-2.4,0.8-3.2
				c0.5-0.8,1.2-1.1,2.1-1.1c0.9,0,1.6,0.4,2.1,1.1c0.5,0.8,0.8,1.8,0.8,3.2S1067.8,341.3,1067.3,342z M1064.1,338.9
				c0,1.9,0.3,2.9,1,2.9c0.7,0,1-1,1-2.9c0-1.9-0.3-2.9-1-2.9C1064.5,336,1064.1,336.9,1064.1,338.9z"/>
		</g>
	</g>
	<g>
		<g class="st5">
			<path class="st6" d="M451.7,554C451.7,554,451.7,553.9,451.7,554l0.4-1.9h-0.5c-0.2,0-0.4-0.2-0.4-0.6v-0.1
				c0-0.4,0.1-0.6,0.4-0.6h0.8l0.3-1.3h-0.6c-0.2,0-0.4-0.2-0.4-0.6v-0.1c0-0.4,0.1-0.6,0.4-0.6h0.8l0.3-1.7c0-0.2,0.3-0.4,0.7-0.4
				h0.2c0.4,0,0.5,0.1,0.5,0.3c0,0,0,0.1,0,0.1l-0.3,1.7h1.1l0.3-1.7c0-0.2,0.3-0.4,0.7-0.4h0.2c0.4,0,0.5,0.1,0.5,0.3
				c0,0,0,0.1,0,0.1l-0.3,1.7h0.4c0.2,0,0.4,0.2,0.4,0.6v0.1c0,0.4-0.1,0.6-0.4,0.6h-0.6l-0.3,1.3h0.5c0.2,0,0.4,0.2,0.4,0.6v0.1
				c0,0.4-0.1,0.6-0.4,0.6h-0.7l-0.3,1.8c0,0.2-0.3,0.4-0.7,0.4h-0.2c-0.4,0-0.6-0.1-0.6-0.3c0,0,0-0.1,0-0.1l0.3-1.8h-1.1l-0.3,1.8
				c0,0.2-0.3,0.4-0.7,0.4h-0.2C451.8,554.3,451.7,554.2,451.7,554z M453.6,550.7h1.1l0.3-1.3h-1.1L453.6,550.7z"/>
			<path class="st6" d="M458.3,553.8v-7.4c0-0.3,0.2-0.5,0.5-0.5h2.4c1,0,1.7,0.2,2.1,0.6s0.7,0.9,0.7,1.6c0,0.4-0.1,0.8-0.4,1.1
				s-0.6,0.6-0.9,0.7l0,0c0.5,0.1,0.9,0.3,1.2,0.7c0.3,0.4,0.5,0.8,0.5,1.3c0,0.8-0.2,1.4-0.8,1.8s-1.2,0.6-2.2,0.6h-2.5
				C458.4,554.3,458.3,554.1,458.3,553.8z M460.1,549.2h0.8c0.4,0,0.6-0.1,0.8-0.3c0.2-0.2,0.3-0.4,0.3-0.6c0-0.6-0.4-0.9-1.1-0.9
				h-0.9V549.2z M460.1,552.7h1.2c0.4,0,0.6-0.1,0.8-0.3s0.3-0.4,0.3-0.7c0-0.6-0.4-0.9-1.3-0.9h-1V552.7z"/>
			<path class="st6" d="M465,553.5c0-0.1,0.1-0.3,0.2-0.6c0.2-0.3,0.3-0.4,0.4-0.4c0,0,0.1,0,0.3,0.1c0.5,0.2,0.9,0.3,1.3,0.3
				c0.4,0,0.8-0.1,1-0.3c0.2-0.2,0.3-0.5,0.3-0.9s-0.1-0.7-0.3-1s-0.6-0.3-1.2-0.3h-1.3c-0.2,0-0.3,0-0.3-0.1
				c-0.1-0.1-0.1-0.2-0.1-0.4l0.2-3.6c0-0.2,0.1-0.3,0.1-0.4s0.2-0.1,0.4-0.1h3.5c0.2,0,0.4,0.2,0.4,0.6v0.3c0,0.3-0.1,0.5-0.4,0.5
				h-2.4l-0.1,1.7h0.3c1,0,1.7,0.2,2.2,0.6s0.8,1.1,0.8,2.1c0,0.5-0.1,0.9-0.3,1.3c-0.2,0.4-0.4,0.6-0.7,0.8c-0.6,0.4-1.2,0.6-2,0.6
				c-0.7,0-1.3-0.1-1.8-0.3S465,553.7,465,553.5z"/>
			<path class="st6" d="M471.8,553.8v-7.4c0-0.3,0.2-0.5,0.5-0.5h2.7c1.2,0,2.2,0.4,2.9,1.1c0.7,0.7,1,1.8,1,3.1
				c0,1.4-0.3,2.4-1,3.1c-0.7,0.7-1.6,1.1-2.9,1.1h-2.7C472,554.3,471.8,554.1,471.8,553.8z M473.7,552.7h1.3c0.6,0,1.1-0.2,1.5-0.7
				c0.3-0.4,0.5-1.1,0.5-2c0-0.9-0.2-1.5-0.5-2c-0.3-0.4-0.8-0.7-1.5-0.7h-1.3V552.7z"/>
			<path class="st6" d="M479.8,553.4c0-0.1,0.1-0.3,0.2-0.6c0.1-0.2,0.3-0.4,0.4-0.4c0,0,0.1,0,0.3,0.1c0.5,0.2,0.9,0.4,1.4,0.4
				s0.7-0.1,0.9-0.3s0.3-0.5,0.3-0.9c0-0.8-0.5-1.2-1.4-1.2h-0.3c-0.2,0-0.4-0.2-0.4-0.6v-0.2c0-0.4,0.1-0.6,0.4-0.6h0.2
				c0.4,0,0.7-0.1,0.9-0.3c0.2-0.2,0.3-0.4,0.3-0.7c0-0.3-0.1-0.5-0.2-0.7c-0.2-0.2-0.4-0.3-0.8-0.3s-0.7,0.1-0.9,0.2
				s-0.4,0.2-0.4,0.2c-0.1,0-0.3-0.1-0.4-0.3c-0.1-0.2-0.2-0.4-0.2-0.6c0-0.3,0.2-0.5,0.7-0.6c0.5-0.2,1-0.2,1.7-0.2
				s1.3,0.2,1.7,0.6c0.4,0.4,0.7,0.9,0.7,1.5c0,0.4-0.1,0.8-0.3,1.1c-0.2,0.3-0.5,0.5-0.8,0.7v0c0.9,0.4,1.4,1.1,1.4,2.1
				c0,0.8-0.2,1.4-0.8,1.9s-1.2,0.7-2,0.7c-0.6,0-1.2-0.1-1.7-0.2C480,553.9,479.8,553.7,479.8,553.4z"/>
			<path class="st6" d="M486.2,553.4c0-0.1,0.1-0.3,0.2-0.6c0.1-0.2,0.3-0.4,0.4-0.4c0,0,0.1,0,0.3,0.1c0.5,0.2,0.9,0.4,1.4,0.4
				s0.7-0.1,0.9-0.3s0.3-0.5,0.3-0.9c0-0.8-0.5-1.2-1.4-1.2H488c-0.2,0-0.4-0.2-0.4-0.6v-0.2c0-0.4,0.1-0.6,0.4-0.6h0.2
				c0.4,0,0.7-0.1,0.9-0.3c0.2-0.2,0.3-0.4,0.3-0.7c0-0.3-0.1-0.5-0.2-0.7c-0.2-0.2-0.4-0.3-0.8-0.3s-0.7,0.1-0.9,0.2
				s-0.4,0.2-0.4,0.2c-0.1,0-0.3-0.1-0.4-0.3c-0.1-0.2-0.2-0.4-0.2-0.6c0-0.3,0.2-0.5,0.7-0.6c0.5-0.2,1-0.2,1.7-0.2
				s1.3,0.2,1.7,0.6c0.4,0.4,0.7,0.9,0.7,1.5c0,0.4-0.1,0.8-0.3,1.1c-0.2,0.3-0.5,0.5-0.8,0.7v0c0.9,0.4,1.4,1.1,1.4,2.1
				c0,0.8-0.2,1.4-0.8,1.9s-1.2,0.7-2,0.7c-0.6,0-1.2-0.1-1.7-0.2C486.5,553.9,486.2,553.7,486.2,553.4z"/>
			<path class="st6" d="M492.7,552.6c-0.1,0-0.2-0.1-0.3-0.4c-0.1-0.3-0.2-0.5-0.2-0.6s0-0.2,0-0.2l3.6-5.2c0.1-0.2,0.3-0.2,0.7-0.2
				h0.3c0.5,0,0.7,0.1,0.7,0.4v4.9h0.5c0.2,0,0.4,0.2,0.4,0.6v0.2c0,0.4-0.1,0.6-0.4,0.6h-0.5v1.3c0,0.3-0.2,0.4-0.7,0.4h-0.3
				c-0.5,0-0.7-0.1-0.7-0.4v-1.3H492.7z M495.9,551.1v-2.7l0,0l-1.8,2.8H495.9z"/>
		</g>
		<g class="st5">
			<path class="st6" d="M903.3,554C903.3,554,903.3,553.9,903.3,554l0.4-1.9h-0.5c-0.2,0-0.4-0.2-0.4-0.6v-0.1
				c0-0.4,0.1-0.6,0.4-0.6h0.8l0.3-1.3h-0.6c-0.2,0-0.4-0.2-0.4-0.6v-0.1c0-0.4,0.1-0.6,0.4-0.6h0.8l0.3-1.7c0-0.2,0.3-0.4,0.7-0.4
				h0.2c0.4,0,0.5,0.1,0.5,0.3c0,0,0,0.1,0,0.1l-0.3,1.7h1.1l0.3-1.7c0-0.2,0.3-0.4,0.7-0.4h0.2c0.4,0,0.5,0.1,0.5,0.3
				c0,0,0,0.1,0,0.1l-0.3,1.7h0.4c0.2,0,0.4,0.2,0.4,0.6v0.1c0,0.4-0.1,0.6-0.4,0.6h-0.6l-0.3,1.3h0.5c0.2,0,0.4,0.2,0.4,0.6v0.1
				c0,0.4-0.1,0.6-0.4,0.6h-0.7l-0.3,1.8c0,0.2-0.3,0.4-0.7,0.4h-0.2c-0.4,0-0.6-0.1-0.6-0.3c0,0,0-0.1,0-0.1l0.3-1.8H905l-0.3,1.8
				c0,0.2-0.3,0.4-0.7,0.4h-0.2C903.4,554.3,903.3,554.2,903.3,554z M905.2,550.7h1.1l0.3-1.3h-1.1L905.2,550.7z"/>
			<path class="st6" d="M914.3,553.2c-0.5,0.8-1.2,1.1-2.1,1.1s-1.6-0.4-2.1-1.1s-0.8-1.8-0.8-3.2s0.3-2.4,0.8-3.2
				c0.5-0.8,1.2-1.1,2.1-1.1s1.6,0.4,2.1,1.1c0.5,0.8,0.8,1.8,0.8,3.2S914.8,552.5,914.3,553.2z M911.2,550.1c0,1.9,0.3,2.9,1,2.9
				s1-1,1-2.9c0-1.9-0.3-2.9-1-2.9S911.2,548.1,911.2,550.1z"/>
			<path class="st6" d="M920.8,553.2c-0.5,0.8-1.2,1.1-2.1,1.1s-1.6-0.4-2.1-1.1s-0.8-1.8-0.8-3.2s0.3-2.4,0.8-3.2
				c0.5-0.8,1.2-1.1,2.1-1.1s1.6,0.4,2.1,1.1c0.5,0.8,0.8,1.8,0.8,3.2S921.3,552.5,920.8,553.2z M917.6,550.1c0,1.9,0.3,2.9,1,2.9
				s1-1,1-2.9c0-1.9-0.3-2.9-1-2.9S917.6,548.1,917.6,550.1z"/>
			<path class="st6" d="M922.7,553.8v-7.4c0-0.3,0.2-0.5,0.5-0.5h2.4c1,0,1.7,0.2,2.1,0.6s0.7,0.9,0.7,1.6c0,0.4-0.1,0.8-0.4,1.1
				s-0.6,0.6-0.9,0.7l0,0c0.5,0.1,0.9,0.3,1.2,0.7c0.3,0.4,0.5,0.8,0.5,1.3c0,0.8-0.2,1.4-0.8,1.8s-1.2,0.6-2.2,0.6h-2.5
				C922.9,554.3,922.7,554.1,922.7,553.8z M924.6,549.2h0.8c0.4,0,0.6-0.1,0.8-0.3s0.3-0.4,0.3-0.6c0-0.6-0.4-0.9-1.1-0.9h-0.9
				V549.2z M924.6,552.7h1.2c0.4,0,0.6-0.1,0.8-0.3c0.2-0.2,0.3-0.4,0.3-0.7c0-0.6-0.4-0.9-1.3-0.9h-1V552.7z"/>
			<path class="st6" d="M929.4,551.8c0-0.5,0.1-1,0.3-1.3c0.2-0.4,0.5-0.6,0.9-0.7c-0.6-0.4-0.9-1-0.9-1.7c0-0.6,0.2-1.2,0.7-1.6
				c0.5-0.4,1.1-0.7,1.9-0.7c0.8,0,1.4,0.2,1.9,0.6c0.5,0.4,0.7,0.9,0.7,1.4c0,0.5-0.1,0.9-0.3,1.2c-0.2,0.3-0.4,0.5-0.8,0.7
				c0.9,0.4,1.3,1.2,1.3,2.3c0,0.6-0.2,1.1-0.6,1.6c-0.2,0.2-0.5,0.4-0.9,0.6c-0.4,0.1-0.8,0.2-1.3,0.2c-1,0-1.7-0.2-2.2-0.7
				C929.6,553.2,929.4,552.6,929.4,551.8z M931.1,551.7c0,0.4,0.1,0.7,0.3,0.9c0.2,0.2,0.5,0.3,0.8,0.3s0.6-0.1,0.8-0.3
				c0.2-0.2,0.3-0.5,0.3-0.7s0-0.5-0.1-0.6c-0.1-0.2-0.2-0.3-0.3-0.4c-0.3-0.2-0.6-0.4-1-0.5C931.4,550.7,931.1,551.1,931.1,551.7z
				 M933.1,548c0-0.2-0.1-0.4-0.2-0.6c-0.2-0.1-0.4-0.2-0.6-0.2c-0.2,0-0.4,0.1-0.6,0.2c-0.2,0.1-0.2,0.3-0.2,0.6
				c0,0.3,0.1,0.5,0.3,0.6s0.4,0.3,0.7,0.4C932.9,548.8,933.1,548.4,933.1,548z"/>
			<path class="st6" d="M936.3,553.8v-7.4c0-0.3,0.2-0.5,0.5-0.5h2.4c1,0,1.7,0.2,2.1,0.6s0.7,0.9,0.7,1.6c0,0.4-0.1,0.8-0.4,1.1
				s-0.6,0.6-0.9,0.7l0,0c0.5,0.1,0.9,0.3,1.2,0.7s0.5,0.8,0.5,1.3c0,0.8-0.2,1.4-0.8,1.8s-1.2,0.6-2.2,0.6h-2.5
				C936.4,554.3,936.3,554.1,936.3,553.8z M938.1,549.2h0.8c0.4,0,0.6-0.1,0.8-0.3c0.2-0.2,0.3-0.4,0.3-0.6c0-0.6-0.4-0.9-1.1-0.9
				h-0.9V549.2z M938.1,552.7h1.2c0.4,0,0.6-0.1,0.8-0.3c0.2-0.2,0.3-0.4,0.3-0.7c0-0.6-0.4-0.9-1.3-0.9h-1V552.7z"/>
			<path class="st6" d="M942.9,551.2c0-0.9,0.1-1.6,0.4-2.3c0.3-0.7,0.6-1.2,1-1.6c0.4-0.4,0.8-0.7,1.2-0.9c0.4-0.2,0.8-0.4,1-0.5
				c0.3-0.1,0.4-0.1,0.5-0.1c0.2,0,0.3,0.1,0.4,0.4s0.2,0.4,0.2,0.6c0,0.1,0,0.2,0,0.2c0,0-0.1,0.1-0.1,0.1
				c-0.9,0.3-1.7,0.8-2.2,1.5c-0.2,0.3-0.3,0.5-0.4,0.8c0.4-0.2,0.7-0.3,1.1-0.3s0.6,0,0.9,0.1s0.5,0.2,0.8,0.4
				c0.3,0.2,0.5,0.4,0.6,0.8c0.2,0.3,0.2,0.8,0.2,1.2s-0.1,0.9-0.2,1.2c-0.2,0.4-0.4,0.6-0.7,0.9c-0.5,0.4-1.2,0.6-1.9,0.6
				c-0.7,0-1.4-0.2-1.9-0.7c-0.3-0.2-0.5-0.6-0.7-1C943,552.3,942.9,551.8,942.9,551.2z M945.8,553c0.3,0,0.5-0.1,0.7-0.3
				c0.2-0.2,0.3-0.5,0.3-0.9s-0.1-0.7-0.3-0.9c-0.2-0.2-0.4-0.3-0.8-0.3c-0.3,0-0.6,0.1-1,0.3c0,0.1,0,0.3,0,0.6
				C944.7,552.4,945.1,553,945.8,553z"/>
		</g>
	</g>
</g>
</svg>
