<?xml version="1.0" encoding="utf-8"?>
<!-- Generator: Adobe Illustrator 19.2.0, SVG Export Plug-In . SVG Version: 6.00 Build 0)  -->
<svg version="1.1" xmlns="http://www.w3.org/2000/svg" xmlns:xlink="http://www.w3.org/1999/xlink" x="0px" y="0px"
	 viewBox="0 0 1400 800" style="enable-background:new 0 0 1400 800;" xml:space="preserve">
<style type="text/css">
	.st0{fill:#414141;}
	.st1{fill:#FFFFFF;}
	.st2{fill:#F1F1F1;}
</style>
<g id="BG">
</g>
<g id="Elements">
	<rect class="st0" width="699.6" height="800"/>
	<g>
		<polygon class="st1" points="232,336.1 215.6,345.6 215.6,356.4 232,365.8 257.7,351 		"/>
		<polygon class="st1" points="258.8,382.6 258.8,352.9 233.1,367.8 233.1,386.7 242.5,392.1 		"/>
		<polygon class="st1" points="261.1,352.9 261,382.6 277.4,392.1 286.8,386.7 286.8,367.8 		"/>
		<g>
			<g>
				<path class="st1" d="M238.1,413c3.9,3.3,5.8,8.4,5.8,15.3s-2,11.9-6,15.1c-4,3.2-10.1,4.8-18.3,4.8h-7.4v15.5h-12.4V408h19.7
					C228,408,234.2,409.6,238.1,413z M229,434.8c1.5-1.7,2.2-4.1,2.2-7.3c0-3.2-1-5.5-2.9-6.8c-1.9-1.4-4.9-2-9-2h-7.1v18.7h8.4
					C224.7,437.4,227.5,436.5,229,434.8z"/>
				<path class="st1" d="M253.7,407.9h12.4v55.6h-12.4V407.9z"/>
				<path class="st1" d="M319.9,407.9V419h-27.7v11.5h24.9V441h-24.9v11.5h28.6v11h-41v-55.6H319.9z"/>
				<path class="st1" d="M372.6,407.9H385v55.6h-12.4l-28.4-34.9v34.9h-12.4v-55.6h11.6l29.2,35.8V407.9z"/>
				<path class="st1" d="M408.9,418.7c-1.2,1-1.8,2.3-1.8,3.9c0,1.6,0.7,2.9,2.2,3.9c1.5,1,4.8,2.1,10.1,3.4
					c5.3,1.3,9.4,3.3,12.3,5.9c2.9,2.6,4.4,6.4,4.4,11.4c0,5-1.9,9-5.6,12.1c-3.7,3.1-8.7,4.7-14.8,4.7c-8.8,0-16.7-3.3-23.8-9.8
					l7.4-9.1c6,5.3,11.5,7.9,16.6,7.9c2.3,0,4.1-0.5,5.4-1.5c1.3-1,1.9-2.3,1.9-4c0-1.7-0.7-3-2.1-4c-1.4-1-4.1-2-8.2-3
					c-6.5-1.5-11.2-3.5-14.2-6c-3-2.5-4.5-6.3-4.5-11.6c0-5.3,1.9-9.4,5.7-12.2c3.8-2.9,8.5-4.3,14.2-4.3c3.7,0,7.4,0.6,11.1,1.9
					c3.7,1.3,6.9,3.1,9.7,5.4l-6.3,9.1c-4.8-3.7-9.8-5.5-15-5.5C411.7,417.2,410.1,417.7,408.9,418.7z"/>
				<path class="st1" d="M486.6,463.5l-5.2-12h-23.3l-5.2,12h-13.2l24-55.6h12l24,55.6H486.6z M469.8,424.5l-7,16.2h13.9
					L469.8,424.5z"/>
			</g>
			<polygon class="st1" points="304.3,356.4 304.3,345.6 288,336.1 262.2,351 287.9,365.8 			"/>
		</g>
	</g>
	<rect x="700.4" class="st2" width="699.6" height="800"/>
	<g>
		<g>
			<polygon class="st0" points="932.3,336.1 916,345.6 916,356.4 932.3,365.8 958.1,351 			"/>
			<polygon class="st0" points="959.2,382.6 959.2,352.9 933.4,367.8 933.4,386.7 942.8,392.1 			"/>
			<polygon class="st0" points="961.4,352.9 961.4,382.6 977.8,392.1 987.2,386.7 987.2,367.8 			"/>
			<g>
				<g>
					<path class="st0" d="M938.5,413c3.9,3.3,5.8,8.4,5.8,15.3s-2,11.9-6,15.1c-4,3.2-10.1,4.8-18.3,4.8h-7.4v15.5h-12.4V408h19.7
						C928.4,408,934.6,409.6,938.5,413z M929.4,434.8c1.5-1.7,2.2-4.1,2.2-7.3c0-3.2-1-5.5-2.9-6.8c-1.9-1.4-4.9-2-9-2h-7.1v18.7
						h8.4C925.1,437.4,927.9,436.5,929.4,434.8z"/>
					<path class="st0" d="M954.1,407.9h12.4v55.6h-12.4V407.9z"/>
					<path class="st0" d="M1020.3,407.9V419h-27.7v11.5h24.9V441h-24.9v11.5h28.6v11h-41v-55.6H1020.3z"/>
					<path class="st0" d="M1073,407.9h12.4v55.6H1073l-28.4-34.9v34.9h-12.4v-55.6h11.6l29.2,35.8V407.9z"/>
					<path class="st0" d="M1109.3,418.7c-1.2,1-1.8,2.3-1.8,3.9c0,1.6,0.7,2.9,2.2,3.9c1.5,1,4.8,2.1,10.1,3.4
						c5.3,1.3,9.4,3.3,12.3,5.9c2.9,2.6,4.4,6.4,4.4,11.4c0,5-1.9,9-5.6,12.1c-3.7,3.1-8.7,4.7-14.8,4.7c-8.8,0-16.7-3.3-23.8-9.8
						l7.4-9.1c6,5.3,11.5,7.9,16.6,7.9c2.3,0,4.1-0.5,5.4-1.5c1.3-1,1.9-2.3,1.9-4c0-1.7-0.7-3-2.1-4c-1.4-1-4.1-2-8.2-3
						c-6.5-1.5-11.2-3.5-14.2-6c-3-2.5-4.5-6.3-4.5-11.6c0-5.3,1.9-9.4,5.7-12.2c3.8-2.9,8.5-4.3,14.2-4.3c3.7,0,7.4,0.6,11.1,1.9
						c3.7,1.3,6.9,3.1,9.7,5.4l-6.3,9.1c-4.8-3.7-9.8-5.5-15-5.5C1112.1,417.2,1110.5,417.7,1109.3,418.7z"/>
					<path class="st0" d="M1187,463.5l-5.2-12h-23.3l-5.2,12h-13.2l24-55.6h12l24,55.6H1187z M1170.2,424.5l-7,16.2h13.9
						L1170.2,424.5z"/>
				</g>
				<polygon class="st0" points="1004.7,356.4 1004.7,345.6 988.3,336.1 962.6,351 988.3,365.8 				"/>
			</g>
		</g>
	</g>
</g>
</svg>
