<?xml version="1.0" encoding="utf-8"?>
<!-- Generator: Adobe Illustrator 19.2.0, SVG Export Plug-In . SVG Version: 6.00 Build 0)  -->
<svg version="1.1" xmlns="http://www.w3.org/2000/svg" xmlns:xlink="http://www.w3.org/1999/xlink" x="0px" y="0px"
	 viewBox="0 0 1400 800" style="enable-background:new 0 0 1400 800;" xml:space="preserve">
<style type="text/css">
	.st0{fill:#F1F1F1;}
	.st1{fill:#F16E21;}
	.st2{fill:#414141;}
</style>
<g id="BG">
	<rect class="st0" width="1400" height="800"/>
</g>
<g id="Elements">
	<g>
		<polygon class="st1" points="503.6,293.5 476.3,309.3 476.3,327.3 503.6,343.1 546.5,318.3 		"/>
		<polygon class="st1" points="548.3,371.1 548.3,321.5 505.4,346.3 505.4,377.8 521.1,386.8 		"/>
		<polygon class="st1" points="552.1,321.5 552,371.1 579.3,386.8 595,377.8 595,346.3 		"/>
		<g>
			<g>
				<path class="st2" d="M513.9,421.6c6.5,5.5,9.7,14,9.7,25.5s-3.3,19.8-10,25.1c-6.7,5.3-16.9,8-30.6,8h-12.3V506H450v-92.7h32.8
					C497,413.3,507.4,416.1,513.9,421.6z M498.7,458.1c2.5-2.8,3.7-6.9,3.7-12.2c0-5.3-1.6-9.1-4.8-11.4c-3.2-2.3-8.2-3.4-15.1-3.4
					h-11.8v31.2h13.9C491.5,462.3,496.2,460.9,498.7,458.1z"/>
				<path class="st2" d="M539.8,413.2h20.7v92.7h-20.7V413.2z"/>
				<path class="st2" d="M650.1,413.2v18.4H604v19.1h41.5v17.6H604v19.2h47.6v18.3h-68.3v-92.7H650.1z"/>
				<path class="st2" d="M738,413.2h20.7v92.7H738l-47.3-58.1v58.1H670v-92.7h19.4l48.6,59.7V413.2z"/>
				<path class="st2" d="M798.5,431.2c-2,1.6-3,3.8-3,6.5c0,2.7,1.2,4.8,3.6,6.4c2.4,1.6,8,3.5,16.8,5.6c8.8,2.2,15.6,5.4,20.5,9.8
					c4.9,4.3,7.3,10.7,7.3,19c0,8.3-3.1,15.1-9.4,20.2c-6.2,5.2-14.4,7.8-24.6,7.8c-14.7,0-27.9-5.4-39.7-16.3l12.3-15.1
					c10,8.8,19.2,13.1,27.7,13.1c3.8,0,6.8-0.8,9-2.5c2.2-1.6,3.2-3.8,3.2-6.6c0-2.8-1.2-5-3.4-6.6c-2.3-1.6-6.9-3.3-13.7-5
					c-10.8-2.6-18.7-5.9-23.7-10c-5-4.1-7.5-10.6-7.5-19.4c0-8.8,3.2-15.6,9.5-20.4c6.3-4.8,14.2-7.2,23.7-7.2
					c6.2,0,12.4,1.1,18.6,3.2c6.2,2.1,11.6,5.1,16.2,9l-10.5,15.1c-8-6.1-16.4-9.2-24.9-9.2C803.2,428.7,800.5,429.6,798.5,431.2z"
					/>
				<path class="st2" d="M928,505.9l-8.6-20h-38.9l-8.6,20h-22l40.1-92.7h20l40.1,92.7H928z M900,440.8l-11.7,26.9h23.2L900,440.8z"
					/>
			</g>
			<polygon class="st1" points="624.1,327.4 624.2,309.3 596.9,293.5 554,318.3 596.9,343.1 			"/>
		</g>
	</g>
</g>
</svg>
