<?xml version="1.0" encoding="utf-8"?>
<!-- Generator: Adobe Illustrator 19.2.0, SVG Export Plug-In . SVG Version: 6.00 Build 0)  -->
<svg version="1.1" xmlns="http://www.w3.org/2000/svg" xmlns:xlink="http://www.w3.org/1999/xlink" x="0px" y="0px"
	 viewBox="0 0 1400 800" style="enable-background:new 0 0 1400 800;" xml:space="preserve">
<style type="text/css">
	.st0{fill:#F1F1F1;}
	.st1{fill:none;stroke:#CFD0D1;stroke-miterlimit:10;}
	.st2{fill:#414141;}
	.st3{fill:#F16E21;}
</style>
<g id="BG">
	<rect class="st0" width="1400" height="800"/>
</g>
<g id="Elements">
	<g>
		<g>
			<g>
				<rect x="640.9" y="270.2" class="st1" width="309.5" height="309.5"/>
				<rect x="449.6" y="270.2" class="st1" width="191.3" height="309.5"/>
			</g>
			<rect x="449.6" y="388.5" class="st1" width="191.3" height="191.3"/>
			<rect x="449.6" y="270.2" class="st1" width="118.2" height="118.2"/>
			<rect x="567.8" y="270.2" class="st1" width="73.1" height="73.1"/>
			<rect x="595.7" y="343.3" class="st1" width="45.2" height="45.2"/>
			<g>
				<path class="st1" d="M640.5,343.3c0-40.1-32.5-72.7-72.7-72.7"/>
				<path class="st1" d="M567.8,270.2c-65.3,0-118.2,52.9-118.2,118.2"/>
				<path class="st1" d="M449.6,388.5c0,105.7,85.6,191.3,191.3,191.3"/>
				<path class="st1" d="M640.9,579.3c170.7,0,309.1-138.4,309.1-309.1"/>
				<path class="st1" d="M595.7,387.8c24.6,0,44.5-19.9,44.5-44.5"/>
			</g>
		</g>
		<g>
			<g>
				<path class="st2" d="M513.6,422c6.5,5.5,9.8,14,9.8,25.5c0,11.5-3.3,19.9-10,25.2c-6.7,5.3-16.9,8-30.6,8h-12.3v25.9h-20.7
					v-92.8h32.8C496.7,413.7,507.1,416.5,513.6,422z M498.4,458.6c2.5-2.8,3.7-6.9,3.7-12.2c0-5.4-1.6-9.2-4.8-11.4
					c-3.2-2.3-8.3-3.4-15.1-3.4h-11.8v31.2h13.9C491.2,462.8,495.9,461.4,498.4,458.6z"/>
				<path class="st2" d="M539.5,413.6h20.7v92.8h-20.7V413.6z"/>
				<path class="st2" d="M650,413.6v18.5h-46.2v19.1h41.6v17.7h-41.6v19.3h47.7v18.3h-68.4v-92.8H650z"/>
				<path class="st2" d="M738,413.6h20.7v92.8H738l-47.3-58.2v58.2h-20.7v-92.8h19.4l48.7,59.8V413.6z"/>
				<path class="st2" d="M798.6,431.7c-2,1.6-3,3.8-3,6.5c0,2.7,1.2,4.8,3.7,6.4c2.4,1.6,8.1,3.5,16.9,5.6
					c8.8,2.2,15.7,5.4,20.5,9.8c4.9,4.3,7.3,10.7,7.3,19c0,8.3-3.1,15.1-9.4,20.2c-6.2,5.2-14.5,7.8-24.6,7.8
					c-14.7,0-27.9-5.4-39.7-16.3l12.3-15.1c10,8.8,19.3,13.1,27.8,13.1c3.8,0,6.8-0.8,9-2.5c2.2-1.6,3.3-3.9,3.3-6.6
					c0-2.8-1.1-5-3.5-6.6c-2.3-1.6-6.9-3.3-13.7-5c-10.8-2.6-18.7-5.9-23.7-10c-5-4.1-7.5-10.6-7.5-19.4c0-8.8,3.2-15.6,9.5-20.4
					c6.3-4.8,14.2-7.2,23.7-7.2c6.2,0,12.4,1.1,18.6,3.2c6.2,2.1,11.6,5.1,16.2,9l-10.5,15.1c-8.1-6.1-16.4-9.2-25-9.2
					C803.3,429.2,800.6,430,798.6,431.7z"/>
				<path class="st2" d="M928.2,506.4l-8.6-20.1h-38.9l-8.6,20.1h-22l40.1-92.8h20.1l40.1,92.8H928.2z M900.2,441.2l-11.7,27h23.2
					L900.2,441.2z"/>
			</g>
			<g>
				<polygon class="st3" points="503.3,293.8 476,309.6 476,327.7 503.3,343.4 546.3,318.6 				"/>
				<polygon class="st3" points="548.1,371.4 548.1,321.8 505.2,346.6 505.2,378.2 520.8,387.2 				"/>
				<polygon class="st3" points="551.9,321.8 551.8,371.4 579.1,387.2 594.8,378.2 594.8,346.7 				"/>
				<polygon class="st3" points="624,327.7 624,309.6 596.7,293.8 553.7,318.6 596.7,343.4 				"/>
			</g>
		</g>
	</g>
</g>
</svg>
