<?xml version="1.0" encoding="utf-8"?>
<!-- Generator: Adobe Illustrator 19.2.0, SVG Export Plug-In . SVG Version: 6.00 Build 0)  -->
<svg version="1.1" xmlns="http://www.w3.org/2000/svg" xmlns:xlink="http://www.w3.org/1999/xlink" x="0px" y="0px"
	 viewBox="0 0 1400 800" style="enable-background:new 0 0 1400 800;" xml:space="preserve">
<style type="text/css">
	.st0{fill:#F1F1F1;}
	.st1{fill:#F16E21;}
	.st2{fill:#FFFFFF;}
	.st3{fill:#FCE0CB;}
	.st4{fill:#414141;}
</style>
<g id="BG">
	<rect x="0.3" y="2" class="st0" width="1400" height="800"/>
	<rect y="2" class="st1" width="1400" height="800"/>
</g>
<g id="Elements">
	<g>
		<rect x="387" y="224.8" class="st2" width="626" height="344.6"/>
		<g>
			<g>
				<g>
					<rect x="387" y="444.2" class="st2" width="62.6" height="62.6"/>
					<rect x="387" y="381.5" class="st2" width="62.6" height="62.6"/>
					<rect x="387" y="318.8" class="st2" width="62.6" height="62.6"/>
					<rect x="387" y="256.1" class="st2" width="62.6" height="62.6"/>
					<rect x="950.4" y="444.2" class="st2" width="62.6" height="62.6"/>
					<rect x="950.4" y="381.5" class="st2" width="62.6" height="62.6"/>
					<rect x="950.4" y="318.8" class="st2" width="62.6" height="62.6"/>
					<rect x="950.4" y="256.1" class="st2" width="62.6" height="62.6"/>
					<rect x="449.6" y="506.8" class="st2" width="62.6" height="62.6"/>
					<rect x="512.2" y="506.8" class="st2" width="62.6" height="62.6"/>
					<rect x="574.8" y="506.8" class="st2" width="62.6" height="62.6"/>
					<rect x="637.4" y="506.8" class="st2" width="62.6" height="62.6"/>
					<rect x="700" y="506.8" class="st2" width="62.6" height="62.6"/>
					<rect x="762.6" y="506.8" class="st2" width="62.6" height="62.6"/>
					<rect x="825.2" y="506.8" class="st2" width="62.6" height="62.6"/>
					<rect x="887.8" y="506.8" class="st2" width="62.6" height="62.6"/>
					<rect x="449.6" y="224.8" class="st2" width="62.6" height="62.6"/>
					<rect x="512.2" y="224.8" class="st2" width="62.6" height="62.6"/>
					<rect x="574.8" y="224.8" class="st2" width="62.6" height="62.6"/>
					<rect x="637.4" y="224.8" class="st2" width="62.6" height="62.6"/>
					<rect x="700" y="224.8" class="st2" width="62.6" height="62.6"/>
					<rect x="762.6" y="224.8" class="st2" width="62.6" height="62.6"/>
					<rect x="825.2" y="224.8" class="st2" width="62.6" height="62.6"/>
					<rect x="887.8" y="224.8" class="st2" width="62.6" height="62.6"/>
				</g>
			</g>
			<g>
				<rect x="387" y="224.6" class="st3" width="62.6" height="62.6"/>
				<rect x="950.4" y="224.6" class="st3" width="62.6" height="62.6"/>
				<rect x="950.4" y="506.8" class="st3" width="62.6" height="62.6"/>
				<rect x="387" y="506.8" class="st3" width="62.6" height="62.6"/>
			</g>
		</g>
		<g>
			<g>
				<path class="st4" d="M513,422.2c6.5,5.5,9.7,14,9.7,25.4s-3.3,19.8-10,25.1c-6.7,5.3-16.8,7.9-30.5,7.9h-12.3v25.8h-20.7v-92.6
					h32.7C496.1,413.9,506.5,416.7,513,422.2z M497.8,458.6c2.5-2.8,3.7-6.8,3.7-12.2c0-5.3-1.6-9.1-4.8-11.4
					c-3.2-2.3-8.2-3.4-15-3.4h-11.8v31.1h13.9C490.7,462.8,495.3,461.4,497.8,458.6z"/>
				<path class="st4" d="M538.9,413.8h20.7v92.6h-20.7V413.8z"/>
				<path class="st4" d="M649.1,413.8v18.4H603v19.1h41.5v17.6H603v19.2h47.6v18.3h-68.2v-92.6H649.1z"/>
				<path class="st4" d="M736.9,413.8h20.7v92.6h-20.7l-47.2-58v58H669v-92.6h19.3l48.6,59.6V413.8z"/>
				<path class="st4" d="M797.3,431.8c-2,1.6-3,3.8-3,6.5c0,2.7,1.2,4.8,3.6,6.4c2.4,1.6,8,3.5,16.8,5.6c8.8,2.2,15.6,5.4,20.5,9.7
					c4.9,4.3,7.3,10.6,7.3,18.9s-3.1,15-9.3,20.2c-6.2,5.2-14.4,7.8-24.6,7.8c-14.7,0-27.9-5.4-39.6-16.3l12.3-15.1
					c10,8.7,19.2,13.1,27.7,13.1c3.8,0,6.8-0.8,8.9-2.5c2.2-1.6,3.2-3.8,3.2-6.6c0-2.8-1.1-5-3.4-6.6c-2.3-1.6-6.8-3.3-13.6-5
					c-10.8-2.6-18.7-5.9-23.6-10c-5-4.1-7.5-10.6-7.5-19.3c0-8.8,3.2-15.6,9.5-20.3c6.3-4.8,14.2-7.2,23.6-7.2
					c6.2,0,12.4,1.1,18.5,3.2c6.2,2.1,11.6,5.1,16.2,9l-10.5,15.1c-8-6.1-16.3-9.1-24.9-9.1C802,429.3,799.3,430.2,797.3,431.8z"/>
				<path class="st4" d="M926.6,506.4l-8.6-20h-38.8l-8.6,20h-22l40-92.6h20l40,92.6H926.6z M898.7,441.3L887,468.2h23.2
					L898.7,441.3z"/>
			</g>
			<g>
				<polygon class="st1" points="502.8,294.3 475.5,310 475.5,328.1 502.7,343.8 545.6,319 				"/>
				<polygon class="st1" points="547.5,371.7 547.5,322.2 504.6,347 504.6,378.4 520.2,387.4 				"/>
				<polygon class="st1" points="551.2,322.2 551.2,371.7 578.4,387.4 594,378.4 594.1,347 				"/>
				<polygon class="st1" points="623.1,328.1 623.2,310 595.9,294.3 553.1,319 595.9,343.8 				"/>
			</g>
		</g>
	</g>
</g>
</svg>
