<?xml version="1.0" encoding="utf-8"?>
<!-- Generator: Adobe Illustrator 19.2.0, SVG Export Plug-In . SVG Version: 6.00 Build 0)  -->
<svg version="1.1" xmlns="http://www.w3.org/2000/svg" xmlns:xlink="http://www.w3.org/1999/xlink" x="0px" y="0px"
	 viewBox="0 0 1400 800" style="enable-background:new 0 0 1400 800;" xml:space="preserve">
<style type="text/css">
	.st0{fill:#676767;}
	.st1{fill:#414141;}
	.st2{fill:#FFFFFF;}
	.st3{fill:none;stroke:#FFFFFF;stroke-miterlimit:10;}
</style>
<g id="BG">
	<rect class="st0" width="1400" height="800"/>
</g>
<g id="Elements">
	<g>
		<path class="st1" d="M343.2,299.1l-18.9,38.2H315l-18.8-38.2v44h-15.6v-69.9h21.1l18,38.4l18.1-38.4h21v69.9h-15.6V299.1z"/>
		<path class="st1" d="M428.3,316.2c0,7.8-2.7,14.4-8.1,19.7c-5.4,5.3-12.2,8-20.3,8c-8.2,0-15-2.7-20.3-8
			c-5.4-5.3-8.1-11.9-8.1-19.7c0-7.8,2.7-14.4,8.1-19.8c5.4-5.4,12.2-8,20.3-8c8.2,0,15,2.7,20.3,8
			C425.6,301.8,428.3,308.4,428.3,316.2z M386.5,316.2c0,4.4,1.2,8,3.8,10.8c2.5,2.8,5.7,4.2,9.6,4.2s7.1-1.4,9.6-4.2
			c2.5-2.8,3.8-6.3,3.8-10.8c0-4.4-1.2-8-3.8-10.8s-5.7-4.2-9.6-4.2s-7.1,1.4-9.6,4.2S386.5,311.8,386.5,316.2z"/>
		<path class="st1" d="M454.4,313.1v30h-15v-53.8h15v6c4.5-4.6,9.6-6.9,15.3-6.9c5.7,0,10.4,2,14.2,6c3.8,4,5.8,9.3,5.8,16v32.7h-15
			v-30.4c0-8.3-3-12.4-9.1-12.4c-3,0-5.6,1.1-7.8,3.2C455.5,305.7,454.4,308.9,454.4,313.1z"/>
		<path class="st1" d="M520.4,300.1v24.1c0,2.1,0.5,3.7,1.6,4.9c1.1,1.2,2.3,1.8,3.8,1.8c2.8,0,5.2-1.3,7.1-3.8l5.6,10.5
			c-4.7,4.3-9.6,6.4-14.8,6.4c-5.2,0-9.5-1.7-13.1-5.1c-3.6-3.4-5.3-8-5.3-13.9v-24.8H499v-10.8h6.3v-16.1h15.1v16.1h13v10.8H520.4z
			"/>
		<path class="st1" d="M587,326.3c0,5.3-1.9,9.5-5.8,12.8s-8.8,4.8-14.8,4.8c-4,0-8.2-0.7-12.5-2.1c-4.3-1.4-8.2-3.6-11.7-6.4
			l6.6-9.4c5.6,4.3,11.6,6.5,17.9,6.5c1.9,0,3.5-0.4,4.6-1.2c1.1-0.8,1.7-1.8,1.7-3c0-1.3-0.8-2.4-2.3-3.5c-1.6-1.1-3.8-2.1-6.8-3
			c-3-0.9-5.2-1.7-6.8-2.4c-1.6-0.7-3.3-1.6-5.3-2.9c-4.1-2.5-6.1-6.3-6.1-11.2c0-5,2-9,6-12.2c4-3.1,9.2-4.7,15.5-4.7
			c6.3,0,12.7,2.1,19,6.4l-5.6,10c-4.7-3.2-9.3-4.8-14-4.8c-4.6,0-7,1.3-7,3.8c0,1.4,0.7,2.5,2.2,3.3c1.5,0.8,3.9,1.7,7.3,2.8
			c3.4,1.1,5.8,1.9,7.2,2.5c1.4,0.6,3.2,1.5,5.2,2.7C585.1,317.2,587,321,587,326.3z"/>
		<path class="st1" d="M645.1,335.3c-6.1,5.7-13.2,8.6-21.4,8.6c-8.2,0-14.9-2.5-20.2-7.5c-5.3-5-8-11.8-8-20.2
			c0-8.5,2.7-15.2,8.2-20.2c5.4-5,11.8-7.5,19.2-7.5s13.7,2.2,18.8,6.7c5.2,4.5,7.8,10.6,7.8,18.4v8h-39.2c0.5,2.9,2,5.3,4.6,7.2
			c2.6,1.9,5.5,2.8,8.8,2.8c5.3,0,9.6-1.8,13-5.3L645.1,335.3z M630.7,303.4c-2.1-1.7-4.6-2.6-7.5-2.6c-3,0-5.7,0.9-8.2,2.7
			c-2.5,1.8-3.9,4.2-4.3,7.3h23.6C634,307.6,632.8,305.1,630.7,303.4z"/>
		<path class="st1" d="M688.6,302.5c-4.5,0-7.8,1.6-10,4.8c-2.2,3.2-3.3,7.3-3.3,12.5v23.3h-15v-53.8h15v7.1
			c1.9-2.2,4.4-4.1,7.2-5.6c2.9-1.5,5.9-2.3,8.9-2.4l0.1,14.1H688.6z"/>
		<path class="st1" d="M729.7,302.5c-4.5,0-7.8,1.6-10,4.8c-2.2,3.2-3.3,7.3-3.3,12.5v23.3h-15v-53.8h15v7.1
			c1.9-2.2,4.4-4.1,7.2-5.6c2.9-1.5,5.9-2.3,8.9-2.4l0.1,14.1H729.7z"/>
		<path class="st1" d="M787.7,343.1h-14.1v-6.5c-3.9,4.9-8.7,7.3-14.4,7.3c-5.7,0-10.5-1.6-14.3-5c-3.9-3.3-5.8-7.7-5.8-13.2
			s2-9.6,6-12.4c4-2.7,9.5-4.1,16.4-4.1h11.2V309c0-5.7-3-8.6-9.1-8.6c-2.6,0-5.4,0.5-8.2,1.5c-2.9,1-5.4,2.3-7.4,3.9l-6.7-9.7
			c7.1-5.1,15.1-7.7,24.2-7.7c6.5,0,11.9,1.6,16,4.9c4.1,3.3,6.2,8.4,6.2,15.5V343.1z M772.6,322.6V320h-9.4c-6,0-9,1.9-9,5.6
			c0,1.9,0.7,3.4,2.2,4.5c1.4,1,3.5,1.5,6.1,1.5c2.7,0,5-0.8,7.1-2.5C771.6,327.5,772.6,325.3,772.6,322.6z"/>
		<path class="st1" d="M818.7,300.1v24.1c0,2.1,0.5,3.7,1.6,4.9c1.1,1.2,2.3,1.8,3.8,1.8c2.8,0,5.2-1.3,7.1-3.8l5.6,10.5
			c-4.7,4.3-9.6,6.4-14.8,6.4c-5.2,0-9.5-1.7-13.1-5.1c-3.6-3.4-5.3-8-5.3-13.9v-24.8h-6.3v-10.8h6.3v-16.1h15.1v16.1h13v10.8H818.7
			z"/>
	</g>
	<g>
		<g>
			<path class="st2" d="M283.5,389.3l-2.5,5.7h-4.5l11.1-25.2h4.5l11.1,25.2h-4.5l-2.5-5.7H283.5z M294.3,385.4l-4.6-10.4l-4.6,10.4
				H294.3z"/>
			<path class="st2" d="M317.6,395h-11v-25.2h9.8c1.7,0,3.2,0.2,4.4,0.6s2.2,1,2.8,1.7c1.2,1.3,1.7,2.8,1.7,4.4c0,2-0.6,3.4-1.9,4.4
				c-0.5,0.3-0.8,0.5-0.9,0.6c-0.2,0.1-0.5,0.2-0.9,0.4c1.6,0.3,2.8,1,3.7,2.1c0.9,1.1,1.4,2.4,1.4,4c0,1.8-0.6,3.3-1.8,4.6
				C323.5,394.3,321.1,395,317.6,395z M310.9,380.3h5.4c3.1,0,4.6-1,4.6-3.1c0-1.2-0.4-2.1-1.1-2.6c-0.7-0.5-1.9-0.8-3.5-0.8h-5.4
				V380.3z M310.9,391.1h6.7c1.6,0,2.8-0.2,3.6-0.7c0.8-0.5,1.2-1.4,1.2-2.8c0-2.2-1.8-3.3-5.4-3.3h-6.1V391.1z"/>
			<path class="st2" d="M343.5,391.2c1.5,0,2.7-0.2,3.8-0.7s2.2-1.3,3.3-2.4l2.7,2.8c-2.7,3-5.9,4.4-9.7,4.4c-3.8,0-7-1.2-9.5-3.7
				s-3.8-5.5-3.8-9.3s1.3-6.9,3.8-9.4c2.6-2.5,5.8-3.7,9.7-3.7s7.2,1.4,9.8,4.3l-2.7,3c-1.2-1.2-2.3-2-3.4-2.4s-2.3-0.7-3.8-0.7
				c-2.5,0-4.7,0.8-6.4,2.5c-1.7,1.6-2.6,3.7-2.6,6.3s0.9,4.7,2.6,6.4C339.1,390.3,341.2,391.2,343.5,391.2z"/>
			<path class="st2" d="M377.6,373.2c2.4,2.2,3.6,5.3,3.6,9.2c0,3.9-1.2,7-3.5,9.3c-2.4,2.3-6,3.4-10.8,3.4h-8.4v-25.2h8.6
				C371.7,369.9,375.1,371,377.6,373.2z M376.9,382.4c0-5.8-3.3-8.6-9.9-8.6h-4.2V391h4.7c3,0,5.4-0.7,7-2.2
				C376.1,387.4,376.9,385.3,376.9,382.4z"/>
			<path class="st2" d="M404.4,369.9v4h-13.4v6.7H403v3.8h-12.1v6.7h13.9v4h-18.1v-25.2H404.4z"/>
			<path class="st2" d="M414.5,373.8v6.9h11.2v3.9h-11.2V395h-4.2v-25.2H427l0,4H414.5z"/>
			<path class="st2" d="M449.4,382.8h4.2v8.6c-2.4,2.6-5.8,3.9-10.2,3.9c-3.7,0-6.8-1.2-9.3-3.7s-3.8-5.5-3.8-9.3s1.3-6.9,3.8-9.4
				c2.6-2.5,5.6-3.7,9.3-3.7c3.6,0,6.6,1.1,9,3.2l-2.3,3.2c-1-0.8-2-1.4-3-1.7c-1-0.3-2.2-0.5-3.5-0.5c-2.5,0-4.7,0.8-6.4,2.5
				s-2.6,3.8-2.6,6.5c0,2.7,0.8,4.8,2.5,6.4s3.7,2.4,6.1,2.4c2.4,0,4.4-0.5,6-1.5V382.8z"/>
			<path class="st2" d="M459.2,395v-25.2h4.2v10.9H476v-10.9h4.2V395H476v-10.3h-12.5V395H459.2z"/>
			<path class="st2" d="M487.2,369.9h4.2V395h-4.2V369.9z"/>
			<path class="st2" d="M499.2,373.7v-3.8h12.2v16.6c0,2.9-0.7,5.1-2.2,6.6c-1.5,1.5-3.4,2.2-5.7,2.2c-2.9,0-5.4-1-7.5-3.1l2.4-3.3
				c1.6,1.6,3.2,2.3,4.8,2.3c1.1,0,2-0.4,2.8-1.1s1.2-1.9,1.2-3.3v-13H499.2z"/>
			<path class="st2" d="M518.3,369.9h4.2v12.3l11.5-12.3h5.4l-10.1,11l10.3,14.1h-5l-8.4-11l-3.7,4v7.1h-4.2V369.9z"/>
			<path class="st2" d="M543.6,395v-25.2h4.2V391h11.5v4H543.6z"/>
			<path class="st2" d="M568.2,395H564v-25.2h6.6l7.6,15.8l7.6-15.8h6.6V395h-4.2v-19.7l-8.8,17.5H577l-8.7-17.5V395z"/>
			<path class="st2" d="M618.2,369.9h4.2V395h-4.6l-14.3-18.4V395h-4.2v-25.2h4.2l14.6,18.8V369.9z"/>
			<path class="st2" d="M648.3,369.9h4.2V395H648l-14.3-18.4V395h-4.2v-25.2h4.2l14.6,18.8V369.9z M643.6,367.9
				c-0.6,0-1.5-0.3-2.6-0.8c-1.1-0.6-1.8-0.8-2.1-0.8c-0.8,0-1.2,0.5-1.2,1.6h-2.7c0-1.4,0.3-2.5,0.8-3.4c0.6-0.9,1.4-1.3,2.4-1.3
				c0.6,0,1.5,0.3,2.7,0.8c1.2,0.6,1.9,0.8,2.3,0.8c0.7,0,1.1-0.5,1.1-1.6h2.7C646.8,366.3,645.7,367.9,643.6,367.9z"/>
			<path class="st2" d="M680.6,391.6c-2.5,2.5-5.7,3.7-9.4,3.7s-6.9-1.2-9.4-3.7c-2.5-2.5-3.8-5.6-3.8-9.3s1.3-6.8,3.8-9.3
				c2.5-2.5,5.7-3.7,9.4-3.7s6.9,1.2,9.4,3.7c2.5,2.5,3.8,5.6,3.8,9.3S683.2,389.1,680.6,391.6z M677.5,375.8
				c-1.7-1.8-3.8-2.7-6.3-2.7s-4.6,0.9-6.3,2.7s-2.6,3.9-2.6,6.5s0.9,4.7,2.6,6.5s3.8,2.7,6.3,2.7s4.6-0.9,6.3-2.7
				c1.7-1.8,2.6-3.9,2.6-6.5S679.2,377.6,677.5,375.8z"/>
			<path class="st2" d="M706.8,372.1c1.8,1.5,2.6,3.7,2.6,6.8c0,3-0.9,5.3-2.7,6.7s-4.5,2.1-8.2,2.1H694v7.4h-4.2v-25.2h8.6
				C702.3,369.9,705,370.6,706.8,372.1z M703.8,382.5c0.9-0.9,1.3-2.2,1.3-4s-0.5-3-1.6-3.7c-1.1-0.7-2.8-1.1-5.1-1.1H694v10.1h4.9
				C701.3,383.8,702.9,383.4,703.8,382.5z"/>
			<path class="st2" d="M726.6,395.3l-0.5,0c-3.7,0-6.9-1.2-9.4-3.7c-2.5-2.5-3.8-5.6-3.8-9.3s1.3-6.8,3.8-9.3
				c2.5-2.5,5.7-3.7,9.4-3.7s6.9,1.2,9.4,3.7c2.5,2.5,3.8,5.6,3.8,9.3c0,2.8-0.8,5.3-2.3,7.5c-1.5,2.2-3.5,3.7-6,4.7
				c0.8,1.1,1.8,1.6,3.1,1.6c0.9,0,1.8-0.2,2.7-0.7s1.5-1.1,2-1.9l2.4,3.3c-2.1,2.2-4.5,3.3-7.2,3.3c-1.5,0-3-0.4-4.4-1.3
				C728.2,398,727.2,396.8,726.6,395.3z M732.4,375.8c-1.7-1.8-3.8-2.7-6.3-2.7s-4.6,0.9-6.3,2.7s-2.6,3.9-2.6,6.5s0.9,4.7,2.6,6.5
				s3.8,2.7,6.3,2.7s4.6-0.9,6.3-2.7c1.7-1.8,2.6-3.9,2.6-6.5S734.1,377.6,732.4,375.8z"/>
			<path class="st2" d="M764.7,378c0,4.2-1.8,6.8-5.4,7.8l6.6,9.1h-5.4l-6-8.5h-5.6v8.5h-4.2v-25.2h9.4c3.8,0,6.6,0.6,8.2,1.9
				C763.9,373.1,764.7,375.2,764.7,378z M759.1,381.6c0.9-0.7,1.3-1.9,1.3-3.6s-0.4-2.8-1.3-3.4c-0.9-0.6-2.5-0.9-4.8-0.9h-5.4v9
				h5.3C756.6,382.7,758.2,382.4,759.1,381.6z"/>
			<path class="st2" d="M778.5,373.2c-1.2,0-2.2,0.3-3,0.8s-1.2,1.3-1.2,2.3c0,1,0.4,1.8,1.2,2.3s2.5,1.1,5.1,1.7
				c2.6,0.6,4.5,1.5,5.8,2.6c1.3,1.1,2,2.8,2,5c0,2.2-0.8,4-2.5,5.3c-1.7,1.4-3.8,2.1-6.5,2.1c-3.9,0-7.4-1.4-10.5-4.1l2.7-3.2
				c2.5,2.2,5.2,3.3,7.9,3.3c1.4,0,2.5-0.3,3.3-0.9c0.8-0.6,1.2-1.4,1.2-2.3c0-1-0.4-1.7-1.1-2.3c-0.8-0.5-2.1-1-3.9-1.5
				c-1.8-0.4-3.3-0.9-4.2-1.2c-1-0.4-1.8-0.9-2.6-1.5c-1.5-1.1-2.2-2.9-2.2-5.2s0.8-4.1,2.5-5.4c1.7-1.3,3.8-1.9,6.3-1.9
				c1.6,0,3.2,0.3,4.8,0.8c1.6,0.5,3,1.3,4.1,2.2l-2.3,3.2c-0.7-0.7-1.8-1.2-3-1.7C781,373.4,779.7,373.2,778.5,373.2z"/>
			<path class="st2" d="M803.1,373.8V395h-4.2v-21.3h-7.6v-3.9h19.5v3.9H803.1z"/>
			<path class="st2" d="M820.9,389.3c1.2,1.3,2.7,2,4.7,2c2,0,3.5-0.7,4.7-2s1.7-3.2,1.7-5.5v-13.9h4.2V384c0,3.6-1,6.4-3,8.4
				c-2,2-4.5,2.9-7.7,2.9c-3.1,0-5.7-1-7.7-2.9c-2-2-3-4.7-3-8.4v-14.1h4.2v13.9C819.2,386.1,819.8,387.9,820.9,389.3z"/>
			<path class="st2" d="M854.4,395h-4.8l-10.1-25.2h4.8l7.7,18.8l7.7-18.8h4.8L854.4,395z"/>
			<path class="st2" d="M876,388l5.6-18.1h3.8L891,388l6.3-18.1h4.6l-8.8,25.2h-4.2l-5.3-17.2h-0.3l-5.3,17.2h-4.2l-8.8-25.2h4.6
				L876,388z"/>
			<path class="st2" d="M920.8,395l-6.2-9.5h-0.2l-6.2,9.5h-5.3l8.6-12.9l-8-12.2h5.3l5.6,8.5h0.2l5.6-8.5h5.3l-8,12.2l8.6,12.9
				H920.8z"/>
			<path class="st2" d="M940,395h-4.3v-9.9l-9.4-15.2h4.6l6.9,11.4l6.9-11.4h4.6l-9.4,15.2V395z"/>
			<path class="st2" d="M965.4,373.8h-14.2v-3.9h20.1v3.3L956.7,391v0.1h14.8v3.9h-20.8v-3.3l14.7-17.9V373.8z"/>
			<path class="st2" d="M294.8,438.2h-3.7v-2.6c-1.6,1.9-3.7,2.8-6.4,2.8c-2,0-3.6-0.6-4.9-1.7c-1.3-1.1-2-2.6-2-4.5
				s0.7-3.3,2.1-4.2c1.4-0.9,3.3-1.4,5.7-1.4h5.2V426c0-2.5-1.4-3.8-4.2-3.8c-1.8,0-3.6,0.6-5.5,1.9l-1.8-2.5c2.3-1.8,5-2.8,7.9-2.8
				c2.3,0,4.1,0.6,5.5,1.7c1.4,1.1,2.1,2.9,2.1,5.4V438.2z M290.8,431.1v-1.6h-4.5c-2.9,0-4.4,0.9-4.4,2.7c0,0.9,0.4,1.7,1.1,2.1
				c0.7,0.5,1.7,0.7,3,0.7c1.3,0,2.4-0.4,3.4-1.1C290.3,433.3,290.8,432.3,290.8,431.1z"/>
			<path class="st2" d="M310.7,418.8c2.6,0,4.8,0.9,6.6,2.7c1.8,1.8,2.7,4.1,2.7,7.1c0,3-0.9,5.4-2.7,7.2c-1.8,1.8-3.9,2.8-6.3,2.8
				c-2.4,0-4.6-1.1-6.5-3.2v2.9h-4v-26.7h4v10.9C306.1,420,308.2,418.8,310.7,418.8z M304.4,428.7c0,1.8,0.6,3.3,1.7,4.5
				c1.1,1.2,2.4,1.7,4,1.7s3-0.6,4.1-1.7c1.2-1.2,1.8-2.6,1.8-4.5c0-1.8-0.6-3.4-1.7-4.6s-2.5-1.8-4.1-1.8s-3,0.6-4.1,1.8
				C305,425.4,304.4,426.9,304.4,428.7z"/>
			<path class="st2" d="M333.1,438.5c-2.7,0-5-0.9-6.9-2.7c-1.9-1.8-2.9-4.2-2.9-7.1c0-2.9,1-5.3,3-7.1c2-1.8,4.4-2.8,7.3-2.8
				c2.9,0,5.3,1,7.3,3l-2.4,2.9c-1.7-1.4-3.3-2.2-5-2.2s-3.1,0.6-4.4,1.7c-1.2,1.1-1.9,2.6-1.9,4.3s0.6,3.3,1.8,4.5
				c1.2,1.2,2.7,1.8,4.5,1.8c1.8,0,3.5-0.8,5.1-2.4l2.4,2.6C338.9,437.3,336.2,438.5,333.1,438.5z"/>
			<path class="st2" d="M346.9,435.8c-1.8-1.8-2.7-4.2-2.7-7.2c0-3,0.9-5.4,2.8-7.1c1.8-1.8,4-2.7,6.6-2.7c2.6,0,4.6,1.1,6.2,3.2
				v-10.5h4v26.7h-4v-2.9c-1.5,2.1-3.7,3.2-6.5,3.2C350.8,438.5,348.7,437.6,346.9,435.8z M348.2,428.8c0,1.8,0.6,3.3,1.8,4.5
				s2.6,1.7,4.1,1.7s2.9-0.6,4-1.7c1.1-1.2,1.7-2.7,1.7-4.5c0-1.8-0.6-3.3-1.7-4.6c-1.1-1.2-2.5-1.8-4.1-1.8s-3,0.6-4.1,1.8
				C348.8,425.4,348.2,426.9,348.2,428.8z"/>
			<path class="st2" d="M387.4,430.4h-15c0.1,1.4,0.7,2.5,1.9,3.4c1.2,0.9,2.5,1.3,4,1.3c2.4,0,4.2-0.8,5.5-2.3l2.3,2.5
				c-2.1,2.1-4.8,3.2-8.1,3.2c-2.7,0-5-0.9-6.9-2.7s-2.8-4.2-2.8-7.2s1-5.4,2.9-7.2c1.9-1.8,4.2-2.7,6.8-2.7s4.8,0.8,6.6,2.4
				c1.8,1.6,2.7,3.7,2.7,6.5V430.4z M372.4,427.3h11c0-1.6-0.5-2.8-1.5-3.7c-1-0.9-2.2-1.3-3.7-1.3c-1.5,0-2.8,0.5-4,1.4
				C373,424.5,372.4,425.7,372.4,427.3z"/>
			<path class="st2" d="M396.7,417.5v1.6h5v3.2h-5v15.9h-4v-15.9h-2.4v-3.2h2.4v-1.5c0-2,0.6-3.6,1.8-4.8c1.2-1.2,2.7-1.8,4.4-1.8
				c1.7,0,3.3,0.6,4.7,1.9l-1.7,2.8c-0.8-0.8-1.6-1.3-2.5-1.3c-0.9,0-1.5,0.3-2,0.8C396.9,415.9,396.7,416.6,396.7,417.5z"/>
			<path class="st2" d="M423.3,419.1v16.7c0,3.4-0.9,5.9-2.8,7.6s-4.2,2.5-7.1,2.5s-5.5-0.9-7.8-2.7l1.9-3.1
				c1.9,1.4,3.8,2.1,5.7,2.1s3.4-0.5,4.5-1.5c1.1-1,1.7-2.6,1.7-4.7v-2.4c-0.6,1.1-1.5,2-2.6,2.7s-2.4,1-3.8,1
				c-2.5,0-4.6-0.9-6.3-2.7c-1.6-1.8-2.4-4-2.4-6.6c0-2.6,0.8-4.8,2.4-6.6c1.6-1.8,3.7-2.7,6.2-2.7c2.5,0,4.6,1,6.2,3.1v-2.8H423.3z
				 M408.4,427.9c0,1.6,0.5,2.9,1.5,4.1c1,1.1,2.3,1.7,3.9,1.7c1.6,0,3-0.6,4-1.7c1-1.1,1.5-2.5,1.5-4.1c0-1.6-0.5-3-1.5-4.2
				c-1-1.1-2.4-1.7-4-1.7s-2.9,0.6-3.9,1.8C408.8,425,408.4,426.4,408.4,427.9z"/>
			<path class="st2" d="M433.2,427.9v10.4h-4v-26.7h4v11c0.6-1.2,1.4-2.1,2.6-2.8s2.4-1,3.8-1c2.2,0,3.9,0.7,5.2,2
				c1.3,1.3,2,3.2,2,5.7v11.7h-4v-10.5c0-3.5-1.5-5.3-4.4-5.3c-1.4,0-2.6,0.5-3.6,1.4C433.7,424.7,433.2,426.1,433.2,427.9z"/>
			<path class="st2" d="M452.6,415.3c-0.5-0.5-0.8-1.1-0.8-1.8s0.3-1.3,0.8-1.8s1.1-0.8,1.8-0.8c0.7,0,1.3,0.3,1.8,0.8
				s0.8,1.1,0.8,1.8s-0.3,1.3-0.8,1.8s-1.1,0.8-1.8,0.8C453.7,416,453.1,415.8,452.6,415.3z M456.4,438.2h-4v-19.2h4V438.2z"/>
			<path class="st2" d="M462.2,439.1v-20.1h4v20.2c0,2-0.6,3.6-1.8,4.8c-1.2,1.2-2.7,1.8-4.4,1.8s-3.3-0.6-4.7-1.9l1.9-3
				c0.8,0.8,1.6,1.2,2.5,1.2s1.5-0.3,1.9-0.8C462,440.8,462.2,440.1,462.2,439.1z M462.4,415.3c-0.5-0.5-0.8-1.1-0.8-1.8
				s0.3-1.3,0.8-1.8s1.1-0.8,1.8-0.8c0.7,0,1.3,0.3,1.8,0.8s0.8,1.1,0.8,1.8s-0.3,1.3-0.8,1.8s-1.1,0.8-1.8,0.8
				C463.5,416,462.9,415.8,462.4,415.3z"/>
			<path class="st2" d="M476.1,438.2h-4v-26.7h4v15.7l7.8-8.1h5.2l-7.3,7.6l7.8,11.6h-4.9l-5.7-8.4l-2.9,3V438.2z"/>
			<path class="st2" d="M497.1,438.2h-4v-26.7h4V438.2z"/>
			<path class="st2" d="M506.9,427.9v10.4h-4v-19.2h4v3.5c0.6-1.2,1.4-2.1,2.6-2.8s2.4-1,3.8-1c3,0,5.1,1.2,6.2,3.7
				c1.9-2.5,4.3-3.7,7.1-3.7c2.2,0,3.9,0.7,5.2,2c1.3,1.3,2,3.2,2,5.7v11.7h-4v-10.5c0-3.5-1.5-5.3-4.4-5.3c-1.4,0-2.6,0.4-3.6,1.3
				c-1,0.9-1.6,2.2-1.6,3.8v10.7h-4v-10.5c0-1.8-0.3-3.2-1-4c-0.6-0.9-1.7-1.3-3.1-1.3s-2.6,0.5-3.6,1.4
				C507.4,424.7,506.9,426.1,506.9,427.9z"/>
			<path class="st2" d="M543.4,427.9v10.4h-4v-19.2h4v3.5c0.6-1.2,1.5-2.1,2.7-2.8s2.4-1,3.7-1c2.2,0,3.9,0.7,5.2,2
				c1.3,1.3,2,3.2,2,5.7v11.7h-4v-10.5c0-3.5-1.5-5.3-4.4-5.3c-1.4,0-2.6,0.5-3.6,1.4C543.9,424.7,543.4,426.1,543.4,427.9z"/>
			<path class="st2" d="M566.7,427.9v10.4h-4v-19.2h4v3.5c0.6-1.2,1.5-2.1,2.7-2.8s2.4-1,3.7-1c2.2,0,3.9,0.7,5.2,2
				c1.3,1.3,2,3.2,2,5.7v11.7h-4v-10.5c0-3.5-1.5-5.3-4.4-5.3c-1.4,0-2.6,0.5-3.6,1.4C567.2,424.7,566.7,426.1,566.7,427.9z
				 M574.3,416.7c-0.6,0-1.5-0.3-2.6-0.8c-1.1-0.6-1.8-0.8-2.1-0.8c-0.8,0-1.2,0.5-1.2,1.6h-2.7c0-1.4,0.3-2.5,0.8-3.4
				c0.6-0.9,1.3-1.3,2.4-1.3c0.6,0,1.5,0.3,2.7,0.8c1.2,0.6,1.9,0.8,2.3,0.8c0.7,0,1.1-0.5,1.1-1.6h2.7
				C577.5,415.2,576.4,416.7,574.3,416.7z"/>
			<path class="st2" d="M601.9,435.7c-1.9,1.9-4.3,2.9-7.2,2.9s-5.3-1-7.2-2.9c-1.9-1.9-2.9-4.2-2.9-7c0-2.8,1-5.1,2.9-7
				c1.9-1.9,4.3-2.9,7.2-2.9s5.3,1,7.2,2.9s2.9,4.2,2.9,7C604.8,431.4,603.8,433.8,601.9,435.7z M590.4,433.2
				c1.1,1.2,2.6,1.7,4.3,1.7c1.8,0,3.2-0.6,4.3-1.7c1.1-1.2,1.7-2.7,1.7-4.5c0-1.8-0.6-3.4-1.7-4.5c-1.1-1.2-2.6-1.7-4.3-1.7
				c-1.8,0-3.2,0.6-4.3,1.7c-1.1,1.2-1.7,2.7-1.7,4.5C588.7,430.5,589.2,432,590.4,433.2z"/>
			<path class="st2" d="M619.6,418.8c2.6,0,4.8,0.9,6.6,2.7c1.8,1.8,2.7,4.1,2.7,7.1c0,3-0.9,5.4-2.7,7.2c-1.8,1.8-3.9,2.8-6.3,2.8
				s-4.6-1.1-6.5-3.2v9.9h-4v-26.1h4v3.3C615,420,617.1,418.8,619.6,418.8z M613.3,428.7c0,1.8,0.6,3.3,1.7,4.5
				c1.1,1.2,2.4,1.7,4,1.7s3-0.6,4.1-1.7c1.2-1.2,1.8-2.6,1.8-4.5c0-1.8-0.6-3.4-1.7-4.6c-1.2-1.2-2.5-1.8-4.1-1.8
				c-1.6,0-3,0.6-4.1,1.8C613.9,425.4,613.3,426.9,613.3,428.7z"/>
			<path class="st2" d="M641.4,438.5c-2.4,0-4.5-0.9-6.3-2.8c-1.8-1.8-2.7-4.2-2.7-7.2c0-3,0.9-5.3,2.7-7.1c1.8-1.8,4-2.7,6.6-2.7
				s4.6,1.2,6.2,3.6v-3.3h4v26.1h-4v-9.9C646,437.5,643.8,438.5,641.4,438.5z M636.4,428.7c0,1.8,0.6,3.3,1.8,4.5
				c1.2,1.2,2.6,1.7,4.1,1.7s2.9-0.6,4-1.7c1.1-1.2,1.7-2.7,1.7-4.5c0-1.8-0.6-3.3-1.7-4.6c-1.1-1.2-2.5-1.8-4.1-1.8
				c-1.6,0-3,0.6-4.1,1.8C636.9,425.4,636.4,426.9,636.4,428.7z"/>
			<path class="st2" d="M667.8,422.9c-2,0-3.5,0.6-4.5,1.9s-1.5,3-1.5,5.2v8.2h-4v-19.2h4v3.9c0.6-1.2,1.5-2.2,2.6-3
				c1.1-0.8,2.3-1.2,3.5-1.2l0,4.1C667.9,422.9,667.9,422.9,667.8,422.9z"/>
			<path class="st2" d="M685.7,432.5c0,1.8-0.7,3.3-2,4.4c-1.3,1.1-3,1.6-5.1,1.6c-1.4,0-2.8-0.3-4.3-0.8s-2.8-1.2-4-2.1l1.9-3.1
				c2.2,1.7,4.4,2.5,6.5,2.5c0.9,0,1.6-0.2,2.2-0.6c0.5-0.4,0.8-1,0.8-1.6c0-1-1.3-1.8-3.8-2.6c-0.2-0.1-0.3-0.1-0.4-0.1
				c-4-1.1-6-2.9-6-5.4c0-1.8,0.7-3.2,2.1-4.3c1.4-1.1,3.2-1.6,5.4-1.6s4.3,0.6,6.3,1.9l-1.5,3c-1.6-1-3.3-1.5-5.1-1.5
				c-1,0-1.7,0.2-2.3,0.5c-0.6,0.3-0.9,0.9-0.9,1.6c0,0.6,0.3,1.1,0.9,1.4c0.4,0.2,1,0.4,1.8,0.6c0.8,0.2,1.5,0.4,2.1,0.6
				c0.6,0.2,1.2,0.4,1.7,0.6c0.6,0.2,1.2,0.6,1.8,1C685,429.3,685.7,430.7,685.7,432.5z"/>
			<path class="st2" d="M695.2,422.3v9.7c0,0.9,0.2,1.6,0.7,2.2c0.5,0.5,1.2,0.8,2,0.8s1.7-0.4,2.5-1.3l1.7,2.8
				c-1.4,1.3-3,1.9-4.7,1.9s-3.2-0.6-4.4-1.8c-1.2-1.2-1.8-2.8-1.8-4.8v-9.6h-2.4v-3.2h2.4v-6h4v6h5v3.2H695.2z"/>
			<path class="st2" d="M718.7,429.5v-10.4h4v19.2h-4v-3.5c-0.6,1.2-1.5,2.1-2.7,2.8c-1.1,0.7-2.4,1-3.7,1c-2.2,0-3.9-0.7-5.2-2
				c-1.3-1.3-2-3.2-2-5.7v-11.7h4v10.5c0,3.5,1.5,5.3,4.4,5.3c1.4,0,2.6-0.5,3.6-1.4C718.2,432.6,718.7,431.2,718.7,429.5z"/>
			<path class="st2" d="M733.6,438.2l-7.7-19.2h4.2l5.8,14.5l5.8-14.5h4.2l-7.7,19.2H733.6z"/>
			<path class="st2" d="M758.1,438.2h-4.6l-6.6-19.2h4.2l4.8,14.5l4.8-14.5h4.2l4.8,14.5l4.8-14.5h4.2l-6.6,19.2h-4.6l-4.5-13.1
				L758.1,438.2z"/>
			<path class="st2" d="M785,419.1l4.1,6.3l4.2-6.3h4.8l-6.7,9.4l7,9.8h-5l-4.6-6.4l-4.5,6.4h-4.7l6.8-9.8l-6.4-9.4H785z"/>
			<path class="st2" d="M804.5,445.9c-1.8,0-3.3-0.6-4.8-1.9l1.8-3.3c0.8,0.8,1.7,1.2,2.6,1.2c0.9,0,1.6-0.3,2.2-1
				c0.6-0.6,0.8-1.4,0.8-2.1c0-0.3-2.6-6.9-7.7-19.7h4.3l5.7,14.1l5.7-14.1h4.3l-9.3,22.8c-0.6,1.2-1.3,2.2-2.4,3
				C806.9,445.5,805.7,445.9,804.5,445.9z"/>
			<path class="st2" d="M822.1,422.6v-3.5h15v3.6l-10.8,12h11.3v3.5h-16.3v-3.9l10.5-11.7H822.1z"/>
			<path class="st2" d="M281.1,478.2c-1.7-2.4-2.6-5.5-2.6-9.5s0.9-7.1,2.6-9.5c1.7-2.4,4.3-3.5,7.7-3.5s6,1.2,7.7,3.5
				c1.7,2.4,2.6,5.5,2.6,9.5s-0.9,7.1-2.6,9.5s-4.3,3.5-7.7,3.5S282.8,480.5,281.1,478.2z M284.1,461.9c-1,1.7-1.5,4-1.5,6.8
				c0,2.8,0.5,5.1,1.5,6.8c1,1.7,2.6,2.6,4.7,2.6s3.7-0.9,4.6-2.6s1.5-4,1.5-6.8c0-2.8-0.5-5.1-1.5-6.8c-1-1.7-2.5-2.6-4.6-2.6
				S285.1,460.2,284.1,461.9z"/>
			<path class="st2" d="M302.2,456.3h9.1v25.2h-4v-21.4h-5.1V456.3z"/>
			<path class="st2" d="M328.3,466.1c0.7-1,1.1-2,1.1-3s-0.4-1.9-1.2-2.6c-0.8-0.7-1.7-1.1-2.9-1.1c-2.1,0-3.8,1.1-5.1,3.2l-3.4-2
				c1.1-1.7,2.3-2.9,3.7-3.7s3-1.3,5.1-1.3s3.9,0.7,5.5,2s2.4,3.2,2.4,5.5c0,1.3-0.3,2.5-1,3.7c-0.7,1.2-1.9,2.7-3.7,4.5l-5.9,6
				h11.4v4.1H317v-3.6l7.6-7.7C326.3,468.4,327.5,467.1,328.3,466.1z"/>
			<path class="st2" d="M338.9,460.1v-3.8h14.7v3.3l-6.1,6.8c2.3,0.1,4.1,0.8,5.4,2.2c1.3,1.4,1.9,3,1.9,5c0,2.6-0.9,4.6-2.6,6
				s-4,2.2-6.7,2.2c-2.7,0-5.4-0.9-8-2.6l1.8-3.4c2.1,1.4,4.2,2.2,6.5,2.2c1.5,0,2.7-0.3,3.6-1c0.9-0.7,1.4-1.7,1.4-3
				c0-1.3-0.5-2.3-1.6-3.1c-1.1-0.8-2.5-1.2-4.4-1.2c-0.9,0-1.8,0.1-2.7,0.4v-3.2l5.8-6.8H338.9z"/>
			<path class="st2" d="M369,471.2v-4.6h4v4.6h3v3.9h-3v6.3h-4v-6.3h-10.8v-3.7l9.3-15.1h4.6l-9.1,15H369z"/>
			<path class="st2" d="M395,456.2v3.9h-10.6v6.2c1.1-0.6,2.3-0.9,3.6-0.9c2.4,0,4.4,0.7,6.1,2.1c1.7,1.4,2.6,3.3,2.6,5.8
				s-0.9,4.4-2.7,6c-1.8,1.6-4,2.4-6.6,2.4c-3.4,0-6.1-1.1-8.1-3.4l2.3-3.1c0.2,0.2,0.5,0.4,0.8,0.7c0.3,0.3,1,0.6,2,1.1
				c1,0.4,2.1,0.7,3.3,0.7s2.3-0.4,3.3-1.1c1-0.7,1.5-1.8,1.5-3.1s-0.5-2.4-1.6-3.2c-1-0.8-2.4-1.1-4-1.1s-3.1,0.4-4.6,1.2l-1.8-1.9
				v-12.1H395z"/>
			<path class="st2" d="M411.1,459.6c-2.2,0-3.9,0.8-4.9,2.3s-1.6,3.6-1.6,6.1c0.6-0.7,1.5-1.3,2.6-1.9c1.1-0.6,2.4-0.9,3.7-0.9
				c2.3,0,4.1,0.8,5.7,2.2c1.5,1.5,2.3,3.5,2.3,6c0,2.5-0.8,4.5-2.5,6c-1.6,1.5-3.7,2.3-6.2,2.3c-4,0-6.8-1.8-8.4-5.4
				c-0.9-2.1-1.3-4.4-1.3-7c0-2.6,0.3-4.8,0.8-6.5c0.6-1.7,1.3-3.1,2.3-4.1c1.9-2,4.2-3,6.9-3s5.2,0.9,7.4,2.6l-2.1,3.1
				c-0.6-0.5-1.3-0.9-2.2-1.3C412.6,459.8,411.8,459.6,411.1,459.6z M410.3,469c-1.5,0-2.7,0.4-3.6,1.2c-1,0.8-1.5,1.8-1.5,3.1
				c0,1.3,0.5,2.4,1.4,3.3s2.1,1.4,3.5,1.4c1.4,0,2.6-0.4,3.5-1.2c0.9-0.8,1.4-1.9,1.4-3.2c0-1.3-0.4-2.4-1.3-3.3
				C412.9,469.4,411.8,469,410.3,469z"/>
			<path class="st2" d="M422.3,463.5v-7.2H440v3.8l-10.7,21.4h-4.7l10.4-21.3h-8.9v3.4H422.3z"/>
			<path class="st2" d="M446.4,457.7c1.6-1.3,3.6-1.9,6-1.9c2.4,0,4.4,0.6,6,1.9c1.6,1.3,2.4,2.9,2.4,4.8c0,1.9-0.9,3.6-2.7,5.1
				c2.4,1.5,3.6,3.7,3.6,6.5c0,2.2-0.9,4-2.6,5.4c-1.7,1.5-4,2.2-6.8,2.2s-5.1-0.7-6.8-2.2c-1.7-1.5-2.6-3.3-2.6-5.4
				c0-2.8,1.2-4.9,3.6-6.5c-1.8-1.5-2.7-3.2-2.7-5.1C444,460.6,444.8,459,446.4,457.7z M449,477c1.1,0.7,2.3,1.1,3.5,1.1
				c1.2,0,2.4-0.4,3.5-1.1c1.1-0.7,1.7-1.7,1.7-3c0-1.3-0.5-2.3-1.6-3.1s-2.3-1.1-3.6-1.1c-1.3,0-2.5,0.4-3.6,1.1s-1.6,1.7-1.6,3.1
				C447.3,475.3,447.9,476.3,449,477z M449.3,465.5c0.9,0.7,2,1.1,3.2,1.1s2.3-0.4,3.2-1.1c0.9-0.7,1.4-1.6,1.4-2.7s-0.5-2-1.4-2.7
				c-0.9-0.7-2-1.1-3.2-1.1s-2.3,0.4-3.2,1.1c-0.9,0.7-1.3,1.6-1.3,2.7S448.4,464.8,449.3,465.5z"/>
			<path class="st2" d="M473.5,477.9c2.2,0,3.9-0.8,4.9-2.3c1.1-1.5,1.6-3.6,1.6-6.1c-0.6,0.7-1.5,1.3-2.6,1.9
				c-1.1,0.6-2.4,0.9-3.7,0.9c-2.3,0-4.1-0.8-5.7-2.2c-1.5-1.5-2.3-3.5-2.3-6c0-2.5,0.8-4.5,2.5-6c1.6-1.5,3.7-2.3,6.2-2.3
				c4,0,6.8,1.8,8.4,5.4c0.9,2.1,1.3,4.4,1.3,7s-0.3,4.8-0.8,6.5c-0.6,1.7-1.3,3.1-2.3,4.1c-1.9,2-4.2,3-6.9,3s-5.2-0.9-7.4-2.6
				l2.1-3.1c0.6,0.5,1.3,0.9,2.2,1.3C472,477.7,472.8,477.9,473.5,477.9z M474.3,468.6c1.5,0,2.7-0.4,3.6-1.2c1-0.8,1.5-1.8,1.5-3.1
				s-0.5-2.4-1.4-3.3c-0.9-0.9-2.1-1.4-3.5-1.4c-1.4,0-2.6,0.4-3.5,1.2s-1.4,1.9-1.4,3.2s0.4,2.4,1.2,3.3S472.8,468.6,474.3,468.6z"
				/>
			<path class="st2" d="M281.2,502.4c0.7,0.4,1,1,1,1.7c0,0.7-0.2,1.3-0.6,1.7c-0.4,0.4-1,0.6-1.6,0.6c-0.6,0-1.2-0.2-1.6-0.6
				s-0.7-0.9-0.7-1.6s0.2-1.3,0.6-1.9l2.1-3.1h2.2L281.2,502.4z"/>
			<path class="st2" d="M295.1,516.8H291v-2.2c0-1,0.1-1.7,0.3-2.1c0.2-0.5,0.7-1.1,1.5-1.9l2.6-2.6c0.6-0.6,0.8-1.3,0.8-2.2
				c0-0.9-0.3-1.6-0.9-2.2c-0.6-0.6-1.3-0.9-2.2-0.9c-0.9,0-1.7,0.3-2.3,0.8c-0.6,0.6-1,1.3-1.1,2.2h-4.4c0.2-2.1,1.1-3.8,2.5-5
				s3.2-1.8,5.3-1.8c2.1,0,3.9,0.6,5.2,1.7c1.3,1.2,2,2.8,2,4.9c0,1.4-0.4,2.6-1.2,3.6c-0.5,0.6-0.8,1-1,1.2s-0.6,0.5-1,0.9
				c-0.4,0.4-0.7,0.7-1,1c-0.3,0.3-0.5,0.5-0.7,0.7c-0.4,0.5-0.6,1.3-0.6,2.2V516.8z M293.1,524.8c-0.8,0-1.4-0.3-2-0.8
				c-0.6-0.5-0.8-1.1-0.8-1.9s0.3-1.4,0.8-1.9c0.5-0.5,1.2-0.8,1.9-0.8s1.4,0.3,2,0.8c0.6,0.5,0.8,1.1,0.8,1.9
				c0,0.7-0.3,1.4-0.8,1.9C294.5,524.6,293.9,524.8,293.1,524.8z"/>
			<path class="st2" d="M305.1,503.5c-0.6-0.4-1-1-1-1.7s0.2-1.3,0.6-1.8c0.4-0.4,1-0.6,1.6-0.6s1.2,0.2,1.6,0.6
				c0.4,0.4,0.7,0.9,0.7,1.6c0,0.7-0.2,1.3-0.6,1.9l-2.1,3.1h-2.2L305.1,503.5z"/>
			<path class="st2" d="M315.1,502.4c0.7,0.4,1,1,1,1.7c0,0.7-0.2,1.3-0.6,1.7s-1,0.6-1.6,0.6s-1.2-0.2-1.6-0.6
				c-0.4-0.4-0.7-0.9-0.7-1.6s0.2-1.3,0.6-1.9l2.1-3.1h2.2L315.1,502.4z M320.6,502.4c0.7,0.4,1,1,1,1.7c0,0.7-0.2,1.3-0.6,1.7
				s-1,0.6-1.6,0.6c-0.6,0-1.2-0.2-1.6-0.6c-0.4-0.4-0.7-0.9-0.7-1.6s0.2-1.3,0.6-1.9l2.1-3.1h2.2L320.6,502.4z"/>
			<path class="st2" d="M329,524.9c-0.7,0-1.4-0.3-1.9-0.8c-0.5-0.5-0.8-1.2-0.8-1.9c0-0.7,0.3-1.4,0.8-1.9c0.5-0.5,1.2-0.8,1.9-0.8
				c0.7,0,1.4,0.3,1.9,0.8c0.5,0.5,0.8,1.2,0.8,1.9c0,0.7-0.3,1.4-0.8,1.9C330.3,524.7,329.7,524.9,329,524.9z M326.4,498.9h5v4.6
				l-1.1,13h-2.9l-1.1-13V498.9z"/>
			<path class="st2" d="M336.9,503.5c-0.6-0.4-1-1-1-1.7s0.2-1.3,0.6-1.8c0.4-0.4,1-0.6,1.6-0.6s1.2,0.2,1.6,0.6
				c0.4,0.4,0.7,0.9,0.7,1.6c0,0.7-0.2,1.3-0.6,1.9l-2.1,3.1h-2.2L336.9,503.5z M342.3,503.5c-0.6-0.4-1-1-1-1.7s0.2-1.3,0.6-1.8
				c0.4-0.4,1-0.6,1.6-0.6c0.6,0,1.2,0.2,1.6,0.6s0.7,0.9,0.7,1.6c0,0.7-0.2,1.3-0.6,1.9l-2.1,3.1H341L342.3,503.5z"/>
			<path class="st2" d="M354.7,504.8c-1,3-1.4,5.9-1.4,8.6c0,2.8,0.5,5.6,1.4,8.6c1,3,2.1,5.5,3.5,7.4H354c-1.2-1.6-2.2-4-3.2-7
				c-1-3-1.5-6-1.5-9c0-3,0.5-6,1.5-9c1-3,2-5.4,3.2-7h4.3C356.9,499.3,355.7,501.8,354.7,504.8z"/>
			<path class="st2" d="M370.4,500.5c1,1.1,1.5,2.5,1.5,4s-0.5,2.9-1.6,4.1c-1,1.1-2.3,1.7-3.9,1.7s-2.8-0.6-3.9-1.7
				c-1-1.1-1.5-2.5-1.5-4s0.5-2.9,1.6-4.1c1-1.1,2.3-1.7,3.9-1.7S369.3,499.4,370.4,500.5z M385,499.5l-18.4,25.2h-4.6l18.4-25.2
				H385z M368,506.5c0.4-0.5,0.6-1.1,0.6-1.8c0-0.7-0.2-1.3-0.6-1.8s-0.9-0.7-1.5-0.7s-1.1,0.2-1.5,0.7s-0.6,1.1-0.6,1.8
				c0,0.7,0.2,1.3,0.6,1.8c0.4,0.5,0.9,0.7,1.5,0.7S367.6,507,368,506.5z M384.7,515.1c1,1.1,1.5,2.5,1.5,4.1s-0.5,2.9-1.6,4.1
				c-1,1.1-2.3,1.7-3.9,1.7s-2.8-0.6-3.9-1.7s-1.5-2.5-1.5-4s0.5-2.9,1.6-4.1c1-1.1,2.3-1.7,3.9-1.7S383.6,514,384.7,515.1z
				 M382.3,521.1c0.4-0.5,0.6-1.1,0.6-1.8s-0.2-1.3-0.6-1.8c-0.4-0.5-0.9-0.7-1.5-0.7c-0.6,0-1.1,0.2-1.5,0.7
				c-0.4,0.5-0.6,1.1-0.6,1.8s0.2,1.3,0.6,1.8c0.4,0.5,0.9,0.7,1.5,0.7S381.9,521.6,382.3,521.1z"/>
			<path class="st2" d="M392.5,522c1-3,1.4-5.9,1.4-8.6c0-2.8-0.5-5.6-1.4-8.6c-1-3-2.1-5.5-3.5-7.4h4.3c1.2,1.6,2.2,4,3.2,7
				c1,3,1.5,6,1.5,9c0,3-0.5,6-1.5,9c-1,3-2,5.4-3.2,7h-4.3C390.3,527.5,391.5,525,392.5,522z"/>
			<path class="st2" d="M411,497.4v3h-5v26.2h5v3h-8.1v-32.3H411z"/>
			<path class="st2" d="M436.6,508.9h-3.9l-1,6h4.4l-0.8,4h-4.3l-1,5.8h-4l1-5.8h-5.3l-1,5.8h-4l1-5.8H414l0.8-4h3.6l1-6h-4.1l0.8-4
				h4l1-6.1h4l-1,6.1h5.3l1-6.1h4l-1.1,6.1h4L436.6,508.9z M428.8,508.9h-5.3l-1.1,6h5.3L428.8,508.9z"/>
			<path class="st2" d="M440.4,500.4v-3h8.1v32.3h-8.1v-3h5v-26.2H440.4z"/>
			<path class="st2" d="M461.7,500.7c-1.5,0-2.2,0.7-2.2,2.1v7.8c0,1.7-0.8,2.7-2.4,3c1.6,0.3,2.4,1.2,2.4,2.9v8.5
				c0,0.6,0.2,1.1,0.5,1.3s1,0.4,2,0.4v3.3h-1.2c-3.3,0-4.9-1.6-4.9-4.8v-7.8c0-0.8-0.1-1.3-0.4-1.7c-0.3-0.3-0.7-0.5-1.4-0.5h-0.9
				v-3.3h0.9c0.6,0,1.1-0.2,1.4-0.5c0.3-0.3,0.4-0.9,0.4-1.7v-7.5c0-3.2,1.6-4.8,4.9-4.8h1.2v3.3
				C461.9,500.7,461.8,500.7,461.7,500.7z"/>
			<path class="st2" d="M479.9,529.2c-4,0-7.4-1.3-10.1-4s-4.1-6-4.1-10.1c0-4,1.4-7.5,4.3-10.3c2.9-2.9,6.3-4.3,10.3-4.3
				s7.5,1.4,10.2,4.3c2.8,2.9,4.2,6.4,4.2,10.5c0,2.6-0.5,4.7-1.5,6.3c-1,1.6-2.3,2.4-3.9,2.4c-1.2,0-2.1-0.4-2.8-1.2
				c-0.7-0.8-1.1-2-1.1-3.4c-1.3,3.1-3.5,4.6-6.4,4.6c-2.1,0-3.9-0.8-5.5-2.5c-1.6-1.7-2.4-3.8-2.4-6.3s0.7-4.7,2.2-6.4
				c1.5-1.7,3.5-2.6,5.9-2.6c1.1,0,2.1,0.3,3.1,0.9c1,0.6,1.7,1.3,2.1,2.1v-2.4h3.5v12.6c0,1.7,0.7,2.5,2,2.5c0.7,0,1.4-0.5,2-1.6
				c0.6-1.1,0.9-2.5,0.9-4.3c0-3.8-1.2-7.1-3.5-9.8c-2.3-2.7-5.3-4-9-4c-3.7,0-6.8,1.3-9.3,3.9c-2.6,2.6-3.9,5.6-3.9,9.2
				c0,3.6,1.2,6.6,3.6,8.9s5.4,3.6,9,3.6c2.9,0,5.1-0.7,6.6-2.2l0.8,1.3c-0.8,0.7-2,1.3-3.3,1.7C482.6,529,481.2,529.2,479.9,529.2z
				 M484.5,514.9c0-1.5-0.5-2.8-1.4-3.8c-0.9-1-2.1-1.5-3.6-1.5s-2.6,0.5-3.5,1.5c-0.9,1-1.3,2.3-1.3,3.8c0,1.5,0.4,2.8,1.3,3.9
				c0.9,1.1,2.1,1.7,3.6,1.7c1.5,0,2.7-0.5,3.6-1.6C484.1,517.8,484.5,516.5,484.5,514.9z"/>
			<path class="st2" d="M499.5,529.9h-1.2v-3.3c1,0,1.6-0.1,2-0.4c0.3-0.2,0.5-0.7,0.5-1.3v-8.5c0-1.7,0.8-2.7,2.4-2.9
				c-1.6-0.3-2.4-1.3-2.4-3v-7.8c0-0.7-0.2-1.3-0.6-1.6c-0.4-0.3-0.8-0.5-1.2-0.5h-0.1l-0.6,0.1v-3.3h1.2c3.3,0,4.9,1.6,4.9,4.8v7.5
				c0,0.8,0.1,1.4,0.4,1.7c0.3,0.3,0.7,0.5,1.4,0.5h0.9v3.3h-0.9c-0.6,0-1.1,0.2-1.4,0.5c-0.3,0.3-0.4,0.9-0.4,1.7v7.8
				C504.4,528.3,502.7,529.9,499.5,529.9z"/>
			<path class="st2" d="M525.1,495.4h3.6l-15.6,33.4h-3.6L525.1,495.4z"/>
			<path class="st2" d="M539.9,524.9c-2.4,0-4.4-0.7-6-2c-1.7-1.3-2.5-3.1-2.5-5.4c0-2.7,2-5.1,5.9-7.2c-1-1.1-1.7-2.1-2.1-2.8
				c-0.4-0.7-0.6-1.6-0.6-2.7c0-1.9,0.7-3.4,2.1-4.4c1.4-1,3.1-1.5,5-1.5s3.6,0.5,4.9,1.5c1.3,1,2,2.4,2,4.1c0,2.4-1.9,4.6-5.8,6.7
				c1.9,2.4,3.5,4.2,4.7,5.4c0.7-1.1,1.3-2.4,1.7-3.9l3,2.1c-0.6,1.7-1.3,3.1-2.1,4.4c1,1,2.2,2.2,3.7,3.6l-2.7,2.5l-3.3-3.3
				C545.7,524,543,524.9,539.9,524.9z M536.7,520.4c0.9,0.7,2.1,1,3.6,1c1.5,0,3.1-0.7,4.8-2.1c-2.4-2.5-4.3-4.7-5.8-6.4
				c-2.7,1.5-4.1,3.1-4.1,4.8C535.4,518.8,535.8,519.7,536.7,520.4z M541.7,502.1c-0.8,0-1.5,0.3-2.2,0.8c-0.6,0.5-1,1.1-1,1.8
				s0.2,1.3,0.5,1.8c0.3,0.5,0.9,1.3,1.7,2.2c2.7-1.3,4.1-2.6,4.1-3.7c0-1-0.3-1.7-1-2.1C543.2,502.3,542.5,502.1,541.7,502.1z"/>
			<path class="st2" d="M556.2,512.6v-4.5l17-7.8v4.1l-12.7,5.7v0.4l12.7,5.9v4.1L556.2,512.6z"/>
			<path class="st2" d="M578.5,515.8V512h12v3.8H578.5z"/>
			<path class="st2" d="M601.6,519.2v-6.8h-6.9V509h6.9v-6.8h3.2v6.8h6.9v3.4h-6.9v6.8H601.6z"/>
			<path class="st2" d="M615.2,509h17v3.4h-17V509z M621.8,506.2c-0.5-0.5-0.8-1.2-0.8-1.9c0-0.7,0.3-1.4,0.8-1.9
				c0.5-0.5,1.1-0.8,1.9-0.8s1.4,0.3,1.9,0.8c0.5,0.5,0.8,1.1,0.8,1.9c0,0.7-0.3,1.4-0.8,1.9c-0.5,0.5-1.2,0.8-1.9,0.8
				S622.3,506.7,621.8,506.2z M621.8,518.9c-0.5-0.5-0.8-1.2-0.8-1.9s0.3-1.4,0.8-1.9c0.5-0.5,1.1-0.8,1.9-0.8s1.4,0.3,1.9,0.8
				c0.5,0.5,0.8,1.1,0.8,1.9s-0.3,1.4-0.8,1.9c-0.5,0.5-1.2,0.8-1.9,0.8S622.3,519.5,621.8,518.9z"/>
			<path class="st2" d="M644.1,508.7l6.1-6.2l2.3,2.3l-6.1,6.1l6.1,6.2l-2.3,2.3l-6.2-6.2l-6.2,6.2l-2.3-2.3l6.2-6.2l-6.1-6.1
				l2.3-2.3L644.1,508.7z"/>
			<path class="st2" d="M656.4,505.6h18.1v3.4h-18.1V505.6z M656.4,512.4h18.1v3.4h-18.1V512.4z"/>
			<path class="st2" d="M696.4,508.1v4.5l-17,7.8v-4.1l12.7-5.9v-0.4l-12.7-5.7v-4.1L696.4,508.1z"/>
			<path class="st2" d="M722.2,502.8c2.5,2.5,3.8,5.6,3.8,9.2c0,3.6-1.3,6.6-3.8,9.2c-2.5,2.6-5.6,3.9-9.3,3.9
				c-3.6,0-6.7-1.3-9.2-3.8c-2.5-2.5-3.8-5.6-3.8-9.2c0-3.6,1.3-6.6,3.8-9.2c2.5-2.6,5.6-3.9,9.2-3.9
				C716.6,499,719.7,500.3,722.2,502.8z M721.1,520.1c2.2-2.3,3.3-5,3.3-8.1c0-3.1-1.1-5.8-3.3-8.1s-4.9-3.3-8.1-3.3
				c-3.2,0-5.9,1.1-8.1,3.4c-2.2,2.2-3.3,4.9-3.3,8.1c0,3.2,1.1,5.8,3.3,8.1c2.2,2.2,4.9,3.3,8.1,3.3
				C716.2,523.5,718.9,522.4,721.1,520.1z M719.3,509.5c0,2.3-1,3.8-3.1,4.4l3.7,5.1h-3l-3.4-4.7h-3.1v4.7H708v-14.1h5.3
				c2.1,0,3.7,0.4,4.6,1.1C718.9,506.7,719.3,507.9,719.3,509.5z M716.2,511.5c0.5-0.4,0.7-1.1,0.7-2s-0.3-1.6-0.8-1.9
				c-0.5-0.4-1.4-0.5-2.7-0.5h-3v5.1h2.9C714.8,512.1,715.7,511.9,716.2,511.5z"/>
			<path class="st2" d="M752.2,502.8c2.5,2.5,3.8,5.6,3.8,9.2c0,3.6-1.3,6.6-3.8,9.2c-2.5,2.6-5.6,3.9-9.3,3.9
				c-3.6,0-6.7-1.3-9.2-3.8c-2.5-2.5-3.8-5.6-3.8-9.2c0-3.6,1.3-6.6,3.8-9.2c2.5-2.6,5.6-3.9,9.2-3.9
				C746.6,499,749.6,500.3,752.2,502.8z M751.1,520.1c2.2-2.3,3.3-5,3.3-8.1c0-3.1-1.1-5.8-3.3-8.1s-4.9-3.3-8.1-3.3
				c-3.2,0-5.9,1.1-8.1,3.4c-2.2,2.2-3.3,4.9-3.3,8.1c0,3.2,1.1,5.8,3.3,8.1c2.2,2.2,4.9,3.3,8.1,3.3
				C746.2,523.5,748.9,522.4,751.1,520.1z M749,516.6c-1.6,1.7-3.5,2.6-5.6,2.6s-3.8-0.7-5.2-2c-1.4-1.3-2.1-3-2.1-5.2
				c0-2.1,0.7-3.9,2.2-5.2c1.4-1.3,3.2-2,5.4-2c2.1,0,3.9,0.7,5.3,2.2l-1.7,2.1c-1.2-1.1-2.5-1.6-3.7-1.6c-1.2,0-2.2,0.4-3.2,1.2
				c-0.9,0.8-1.3,1.8-1.3,3.1c0,1.3,0.4,2.4,1.3,3.3s2,1.3,3.3,1.3c1.3,0,2.5-0.6,3.6-1.8L749,516.6z"/>
			<path class="st2" d="M768.1,527.2v-2.6c-3.3-0.3-6.2-1.6-8.9-3.9l2.6-3.1c2,1.8,4.1,2.8,6.2,3.1v-7c-2.7-0.6-4.7-1.5-6-2.6
				c-1.3-1.1-1.9-2.6-1.9-4.7c0-2.1,0.7-3.8,2.2-5.1c1.5-1.3,3.3-2,5.7-2.2v-1.8h2.3v1.8c2.6,0.2,5.1,1.1,7.5,2.7l-2.3,3.3
				c-1.6-1.1-3.3-1.8-5.1-2.1v6.8h0.1c2.8,0.6,4.8,1.5,6.1,2.6c1.3,1.1,1.9,2.7,1.9,4.8c0,2.1-0.7,3.8-2.2,5.1
				c-1.5,1.3-3.5,2-5.9,2.2v2.6H768.1z M765.6,504c-0.6,0.5-0.9,1.2-0.9,2c0,0.8,0.2,1.4,0.7,1.9c0.5,0.5,1.4,0.9,2.7,1.3V503
				C767,503.1,766.2,503.5,765.6,504z M773.2,519.8c0.7-0.6,1-1.2,1-2.1c0-0.8-0.3-1.5-0.8-2c-0.5-0.5-1.5-1-3-1.4v6.5
				C771.6,520.7,772.5,520.3,773.2,519.8z"/>
			<path class="st2" d="M789.7,506.1v4.7h6v3.5h-6v6.6h10.7v3.8h-17.9v-3.8h3v-6.6h-3.1v-3.5h3.1v-4.5c0-2.9,0.7-5,2.2-6.4
				s3.4-2,5.8-2c3.1,0,5.5,1.3,7.1,4l-3,2.4c-1-1.6-2.3-2.4-3.8-2.4c-1.2,0-2.1,0.3-2.9,1C790.1,503.5,789.7,504.6,789.7,506.1z"/>
			<path class="st2" d="M806.1,517h6.8v-1.9l-0.1-0.2h-6.7v-3.2h4.8l-7.2-12.2h4.6l6.8,11.6h0.3l7.1-11.6h4.6l-7.5,12.2h4.7v3.2
				h-6.7l-0.1,0.2v1.9h6.8v3.2h-6.8v4.5h-4.5v-4.5h-6.8V517z"/>
			<path class="st2" d="M838.5,529v-4.2c-2.4-0.3-4.5-1.3-6.1-3c-1.7-1.8-2.5-4-2.5-6.7c0-2.7,0.8-4.9,2.5-6.7
				c1.7-1.8,3.7-2.8,6.2-3.2V501h2.3v4.2c2.7,0.2,4.9,1.2,6.7,3l-2.4,2.9c-1.5-1.2-2.9-1.9-4.3-2.1v12.2c1.6-0.2,3.1-1,4.5-2.4
				l2.4,2.6c-2,2-4.3,3.2-6.9,3.5v4.2H838.5z M835.2,511.2c-0.9,1-1.3,2.3-1.3,3.8s0.4,2.8,1.3,3.9c0.9,1.1,2,1.8,3.3,2.2v-11.9
				C837.2,509.5,836.1,510.1,835.2,511.2z"/>
			<path class="st2" d="M852.6,515.3c-0.5-0.5-0.8-1.2-0.8-1.9c0-0.7,0.3-1.4,0.8-1.9c0.5-0.5,1.1-0.8,1.9-0.8s1.4,0.3,1.9,0.8
				c0.5,0.5,0.8,1.1,0.8,1.9c0,0.7-0.3,1.4-0.8,1.9c-0.5,0.5-1.2,0.8-1.9,0.8S853.1,515.8,852.6,515.3z M852.6,524.1
				c-0.5-0.5-0.8-1.2-0.8-1.9c0-0.7,0.3-1.4,0.8-1.9c0.5-0.5,1.1-0.8,1.9-0.8s1.4,0.3,1.9,0.8c0.5,0.5,0.8,1.1,0.8,1.9
				c0,0.7-0.3,1.4-0.8,1.9c-0.5,0.5-1.2,0.8-1.9,0.8S853.1,524.7,852.6,524.1z"/>
			<path class="st2" d="M863.2,515.3c-0.5-0.5-0.8-1.2-0.8-1.9c0-0.7,0.3-1.4,0.8-1.9c0.5-0.5,1.1-0.8,1.9-0.8
				c0.7,0,1.4,0.3,1.9,0.8c0.5,0.5,0.8,1.1,0.8,1.9c0,0.7-0.3,1.4-0.8,1.9c-0.5,0.5-1.2,0.8-1.9,0.8
				C864.3,516.1,863.7,515.8,863.2,515.3z M862.4,522.3c0-0.8,0.3-1.4,0.8-1.9c0.5-0.5,1.2-0.8,1.9-0.8s1.4,0.3,1.9,0.8
				c0.5,0.5,0.8,1.1,0.8,1.8c0,0.7-0.3,1.6-1,2.7l-2.2,3.6h-2.1l1.3-3.7C862.9,524.2,862.4,523.4,862.4,522.3z"/>
			<path class="st2" d="M872.8,522.3c0-0.8,0.3-1.4,0.8-1.9c0.5-0.5,1.2-0.8,1.9-0.8s1.3,0.3,1.9,0.8c0.5,0.5,0.8,1.1,0.8,1.9
				s-0.3,1.6-1,2.6l-2.2,3.6H873l1.3-3.7C873.3,524.2,872.8,523.4,872.8,522.3z"/>
			<path class="st2" d="M883.7,524.1c-0.5-0.5-0.8-1.2-0.8-1.9c0-0.7,0.3-1.4,0.8-1.9c0.5-0.5,1.1-0.8,1.9-0.8
				c0.7,0,1.4,0.3,1.9,0.8c0.5,0.5,0.8,1.1,0.8,1.9c0,0.7-0.3,1.4-0.8,1.9c-0.5,0.5-1.2,0.8-1.9,0.8
				C884.8,524.9,884.2,524.7,883.7,524.1z"/>
			<path class="st2" d="M902.8,509.2l-3.4-2.3l0.3,4.1h-2.4l0.3-4.1l-3.4,2.3l-1.2-2.1l3.7-1.8l-3.7-1.8l1.2-2.1l3.4,2.3l-0.3-4.1
				h2.4l-0.3,4.1l3.4-2.2l1.2,2.1l-3.7,1.8l3.7,1.8L902.8,509.2z"/>
		</g>
	</g>
	<rect x="1012.1" y="400" class="st2" width="135.9" height="82.1"/>
	<g>
		<path class="st0" d="M1047.7,421.5c0,2.8-1.2,4.5-3.6,5.2l4.4,6.1h-3.6l-4-5.6h-3.7v5.6h-2.8v-16.8h6.2c2.6,0,4.4,0.4,5.5,1.3
			C1047.2,418.2,1047.7,419.6,1047.7,421.5z M1044,423.9c0.6-0.5,0.9-1.3,0.9-2.4s-0.3-1.8-0.9-2.3c-0.6-0.4-1.6-0.6-3.2-0.6h-3.6v6
			h3.5C1042.3,424.6,1043.4,424.4,1044,423.9z"/>
		<path class="st0" d="M1063.3,427.6h-10c0.1,0.9,0.5,1.7,1.3,2.2c0.8,0.6,1.7,0.9,2.7,0.9c1.6,0,2.8-0.5,3.6-1.5l1.5,1.7
			c-1.4,1.4-3.2,2.1-5.4,2.1c-1.8,0-3.3-0.6-4.6-1.8c-1.3-1.2-1.9-2.8-1.9-4.8c0-2,0.6-3.6,1.9-4.8c1.3-1.2,2.8-1.8,4.5-1.8
			c1.7,0,3.2,0.5,4.4,1.6c1.2,1,1.8,2.5,1.8,4.3V427.6z M1053.3,425.5h7.3c0-1.1-0.3-1.9-1-2.5s-1.5-0.9-2.5-0.9s-1.9,0.3-2.7,0.9
			C1053.7,423.7,1053.3,424.5,1053.3,425.5z"/>
		<path class="st0" d="M1078.1,420.1v11.1c0,2.3-0.6,3.9-1.8,5.1c-1.2,1.1-2.8,1.7-4.7,1.7s-3.7-0.6-5.2-1.8l1.3-2
			c1.2,0.9,2.5,1.4,3.8,1.4c1.3,0,2.3-0.3,3-1c0.7-0.7,1.1-1.7,1.1-3.1v-1.6c-0.4,0.8-1,1.4-1.7,1.8c-0.7,0.4-1.6,0.7-2.5,0.7
			c-1.7,0-3.1-0.6-4.2-1.8c-1.1-1.2-1.6-2.7-1.6-4.4c0-1.8,0.5-3.2,1.6-4.4c1.1-1.2,2.5-1.8,4.2-1.8s3.1,0.7,4.1,2.1v-1.9H1078.1z
			 M1068.1,426c0,1,0.3,2,1,2.7s1.5,1.1,2.6,1.1s2-0.4,2.7-1.1c0.7-0.7,1-1.7,1-2.7s-0.3-2-1-2.8c-0.7-0.8-1.6-1.1-2.7-1.1
			s-2,0.4-2.6,1.2S1068.1,424.9,1068.1,426z"/>
		<path class="st0" d="M1090.9,427v-6.9h2.7v12.8h-2.7v-2.3c-0.4,0.8-1,1.4-1.8,1.8c-0.8,0.4-1.6,0.7-2.5,0.7
			c-1.4,0-2.6-0.4-3.5-1.3s-1.3-2.2-1.3-3.8v-7.8h2.7v7c0,2.4,1,3.5,2.9,3.5c0.9,0,1.7-0.3,2.4-0.9
			C1090.5,429.1,1090.9,428.2,1090.9,427z"/>
		<path class="st0" d="M1100.2,432.8h-2.7V415h2.7V432.8z"/>
		<path class="st0" d="M1114.4,432.8h-2.4v-1.7c-1.1,1.3-2.5,1.9-4.2,1.9c-1.3,0-2.4-0.4-3.3-1.1c-0.9-0.8-1.3-1.8-1.3-3
			c0-1.3,0.5-2.2,1.4-2.8s2.2-0.9,3.8-0.9h3.5v-0.5c0-1.7-0.9-2.5-2.8-2.5c-1.2,0-2.4,0.4-3.7,1.3l-1.2-1.7c1.6-1.2,3.3-1.8,5.3-1.8
			c1.5,0,2.7,0.4,3.7,1.1c1,0.8,1.4,2,1.4,3.6V432.8z M1111.7,428.1V427h-3c-1.9,0-2.9,0.6-2.9,1.8c0,0.6,0.2,1.1,0.7,1.4
			s1.1,0.5,2,0.5s1.6-0.2,2.2-0.7C1111.4,429.6,1111.7,428.9,1111.7,428.1z"/>
		<path class="st0" d="M1124.8,422.6c-1.3,0-2.3,0.4-3,1.3c-0.7,0.9-1,2-1,3.5v5.5h-2.7v-12.8h2.7v2.6c0.4-0.8,1-1.5,1.8-2
			c0.7-0.5,1.5-0.8,2.4-0.8l0,2.7C1124.9,422.6,1124.9,422.6,1124.8,422.6z"/>
	</g>
	<g>
		<path class="st0" d="M1041.4,463.7h-7.3v-16.8h6.5c1.1,0,2.1,0.1,2.9,0.4c0.8,0.3,1.4,0.6,1.9,1.1c0.8,0.9,1.1,1.8,1.1,2.9
			c0,1.3-0.4,2.3-1.3,2.9c-0.3,0.2-0.5,0.4-0.6,0.4c-0.1,0.1-0.3,0.1-0.6,0.3c1,0.2,1.9,0.7,2.5,1.4c0.6,0.7,0.9,1.6,0.9,2.7
			c0,1.2-0.4,2.2-1.2,3.1C1045.3,463.2,1043.7,463.7,1041.4,463.7z M1037.8,453.7h1.8c1,0,1.8-0.1,2.3-0.3c0.5-0.2,0.8-0.7,0.8-1.5
			c0-0.7-0.2-1.2-0.7-1.5c-0.5-0.2-1.2-0.4-2.4-0.4h-1.8V453.7z M1037.8,460.5h2.6c1.1,0,1.9-0.1,2.4-0.4c0.5-0.3,0.8-0.8,0.8-1.6
			c0-0.8-0.3-1.3-0.9-1.5s-1.5-0.4-2.7-0.4h-2.2V460.5z"/>
		<path class="st0" d="M1063.1,457.2c0,1.9-0.6,3.4-1.9,4.7s-2.9,1.9-4.9,1.9c-2,0-3.6-0.6-4.9-1.9c-1.3-1.3-1.9-2.9-1.9-4.7
			s0.6-3.5,1.9-4.7c1.3-1.3,2.9-1.9,4.9-1.9c2,0,3.6,0.6,4.9,1.9C1062.4,453.8,1063.1,455.4,1063.1,457.2z M1053,457.2
			c0,1.1,0.3,1.9,0.9,2.6c0.6,0.7,1.4,1,2.3,1s1.7-0.3,2.3-1c0.6-0.7,0.9-1.5,0.9-2.6s-0.3-1.9-0.9-2.6c-0.6-0.7-1.4-1-2.3-1
			s-1.7,0.3-2.3,1C1053.3,455.3,1053,456.2,1053,457.2z"/>
		<path class="st0" d="M1069.3,463.7h-3.6v-17.8h3.6V463.7z"/>
		<path class="st0" d="M1077.9,463.9c-1.5,0-2.9-0.6-4.1-1.9c-1.2-1.3-1.8-2.9-1.8-4.8s0.6-3.5,1.8-4.7s2.5-1.8,4.1-1.8
			c1.6,0,2.8,0.6,3.8,1.7v-6.3h3.6v17.8h-3.6V462C1080.7,463.3,1079.4,463.9,1077.9,463.9z M1075.6,457.3c0,1,0.3,1.9,0.9,2.6
			c0.6,0.7,1.4,1,2.2,1s1.5-0.3,2.1-1c0.6-0.7,0.9-1.5,0.9-2.6c0-1-0.3-1.9-0.9-2.6c-0.6-0.7-1.3-1-2.1-1c-0.8,0-1.6,0.4-2.2,1.1
			S1075.6,456.2,1075.6,457.3z"/>
	</g>
	<g>
		<path class="st2" d="M1046.1,372.3v2.7h-9v4.4h8v2.5h-8v4.5h9.2v2.7h-12.1v-16.8H1046.1z"/>
		<path class="st2" d="M1058.8,385.2c0,1.2-0.4,2.2-1.3,2.9c-0.9,0.7-2,1.1-3.4,1.1c-0.9,0-1.9-0.2-2.9-0.5c-1-0.3-1.9-0.8-2.7-1.4
			l1.3-2.1c1.5,1.1,2.9,1.7,4.3,1.7c0.6,0,1.1-0.1,1.4-0.4c0.4-0.3,0.5-0.6,0.5-1.1c0-0.6-0.8-1.2-2.5-1.7c-0.1,0-0.2-0.1-0.3-0.1
			c-2.7-0.7-4-1.9-4-3.6c0-1.2,0.5-2.1,1.4-2.8c0.9-0.7,2.1-1.1,3.6-1.1c1.5,0,2.9,0.4,4.2,1.3l-1,2c-1-0.7-2.2-1-3.4-1
			c-0.6,0-1.2,0.1-1.6,0.3c-0.4,0.2-0.6,0.6-0.6,1c0,0.4,0.2,0.7,0.6,0.9c0.3,0.1,0.7,0.3,1.2,0.4c0.5,0.1,1,0.3,1.4,0.4
			c0.4,0.1,0.8,0.3,1.2,0.4c0.4,0.2,0.8,0.4,1.2,0.7C1058.3,383.1,1058.8,384,1058.8,385.2z"/>
		<path class="st2" d="M1065.1,378.4v6.5c0,0.6,0.2,1.1,0.5,1.5c0.3,0.4,0.8,0.5,1.3,0.5s1.1-0.3,1.7-0.8l1.1,1.9
			c-0.9,0.8-2,1.3-3.1,1.3c-1.1,0-2.1-0.4-2.9-1.2s-1.2-1.9-1.2-3.2v-6.4h-1.6v-2.2h1.6v-4h2.7v4h3.4v2.2H1065.1z"/>
		<path class="st2" d="M1072,373.7c-0.3-0.3-0.5-0.7-0.5-1.2s0.2-0.9,0.5-1.2s0.7-0.5,1.2-0.5s0.9,0.2,1.2,0.5s0.5,0.7,0.5,1.2
			s-0.2,0.9-0.5,1.2c-0.3,0.3-0.7,0.5-1.2,0.5S1072.3,374.1,1072,373.7z M1074.5,389.1h-2.7v-12.8h2.7V389.1z"/>
		<path class="st2" d="M1081.1,389.1h-2.7v-17.8h2.7V389.1z"/>
		<path class="st2" d="M1095.7,387.3c-1.3,1.3-2.9,1.9-4.8,1.9s-3.5-0.6-4.8-1.9c-1.3-1.3-1.9-2.8-1.9-4.7s0.6-3.4,1.9-4.7
			c1.3-1.3,2.9-1.9,4.8-1.9s3.5,0.6,4.8,1.9c1.3,1.3,1.9,2.8,1.9,4.7S1096.9,386.1,1095.7,387.3z M1088,385.7
			c0.8,0.8,1.7,1.2,2.9,1.2s2.1-0.4,2.9-1.2c0.8-0.8,1.1-1.8,1.1-3s-0.4-2.2-1.1-3c-0.8-0.8-1.7-1.2-2.9-1.2s-2.1,0.4-2.9,1.2
			c-0.8,0.8-1.1,1.8-1.1,3S1087.2,384.9,1088,385.7z"/>
		<path class="st2" d="M1109.7,385.2c0,1.2-0.4,2.2-1.3,2.9c-0.9,0.7-2,1.1-3.4,1.1c-0.9,0-1.9-0.2-2.9-0.5c-1-0.3-1.9-0.8-2.7-1.4
			l1.3-2.1c1.5,1.1,2.9,1.7,4.3,1.7c0.6,0,1.1-0.1,1.4-0.4s0.5-0.6,0.5-1.1c0-0.6-0.8-1.2-2.5-1.7c-0.1,0-0.2-0.1-0.3-0.1
			c-2.7-0.7-4-1.9-4-3.6c0-1.2,0.5-2.1,1.4-2.8s2.1-1.1,3.6-1.1c1.5,0,2.9,0.4,4.2,1.3l-1,2c-1-0.7-2.2-1-3.4-1
			c-0.6,0-1.2,0.1-1.6,0.3c-0.4,0.2-0.6,0.6-0.6,1c0,0.4,0.2,0.7,0.6,0.9c0.3,0.1,0.7,0.3,1.2,0.4c0.5,0.1,1,0.3,1.4,0.4
			c0.4,0.1,0.8,0.3,1.2,0.4s0.8,0.4,1.2,0.7C1109.3,383.1,1109.7,384,1109.7,385.2z"/>
	</g>
	<rect x="1012.1" y="359.8" class="st3" width="135.9" height="122.2"/>
</g>
</svg>
