<svg id="fondo" xmlns="http://www.w3.org/2000/svg" viewBox="0 0 1400 800"><defs><style>.cls-1{fill:#f2f2f2;}.cls-2{fill:none;stroke:#6d6d6d;stroke-miterlimit:10;stroke-width:6px;}.cls-3,.cls-4{fill:#6d6d6d;}.cls-4{fill-rule:evenodd;}</style></defs><title>gs</title><rect class="cls-1" width="1400" height="800"/><circle class="cls-2" cx="674.15" cy="377.95" r="29.87"/><rect class="cls-2" x="674.15" y="377.95" width="59.73" height="59.73"/><path class="cls-3" d="M1030.88,346.46l-18.18-7.53-7.53,18.19A53.73,53.73,0,0,1,1030.88,346.46Z"/><path class="cls-3" d="M1038,366.24A33.76,33.76,0,1,0,1071.76,400,33.76,33.76,0,0,0,1038,366.24Zm14,47.89h-28v-28h28v28Z"/><path class="cls-3" d="M1070.83,357.11l-7.53-18.19-18.18,7.53A53.73,53.73,0,0,1,1070.83,357.11Z"/><path class="cls-3" d="M1080.89,367.17a53.74,53.74,0,0,1,10.66,25.71l7.53-18.18Z"/><path class="cls-3" d="M1091.54,407.12a53.74,53.74,0,0,1-10.66,25.71l18.18-7.53Z"/><path class="cls-3" d="M1045.12,453.54l18.18,7.53,7.53-18.19A53.73,53.73,0,0,1,1045.12,453.54Z"/><path class="cls-3" d="M1005.17,442.89l7.53,18.19,18.18-7.53A53.73,53.73,0,0,1,1005.17,442.89Z"/><path class="cls-3" d="M984.46,407.12l-7.53,18.18,18.18,7.53A53.74,53.74,0,0,1,984.46,407.12Z"/><path class="cls-3" d="M995.11,367.17l-18.18,7.53,7.53,18.18A53.74,53.74,0,0,1,995.11,367.17Z"/><path class="cls-4" d="M331.86,341.07c3.12,0,6,.05,8.78.29-0.19.83,0,1.63,0.59,1.67,0.84,0.06,1-1.21,1.52-1.57,0.45,0,.93,0,1.42.1a4.94,4.94,0,0,1,1.37.15,4.05,4.05,0,0,0,.54.59c0.37,0.1.53-.36,0.88-0.44a5.49,5.49,0,0,1,1.47.1c1.28,0.15,2.81.4,4,.59a24.49,24.49,0,0,1-.83,3c-0.31.68-1.13,1.41-1,2.4s1.89,1.23,2.55.54,0.58-2.28.88-3.39a5.24,5.24,0,0,1,1.13-2.16,83.28,83.28,0,0,1,13.05,3.29,1.42,1.42,0,0,1-.44.64c-0.2.18-.47,0.32-0.69,0.49a14,14,0,0,1-1.23,1.08c-0.51.32-1.17,0.29-1.72,0.59a4,4,0,0,0-1.37,1.18c-0.25.36-.3,0.82-0.54,1.28a2.09,2.09,0,0,0-.59,1.33,1.21,1.21,0,0,0,1.08.93c0.54,0,1.72-1.15,2.11-1.42a8.17,8.17,0,0,1,1.08-.69c0.4-.19.82-0.32,1.18-0.54a22.18,22.18,0,0,0,2.26-1.86,11.18,11.18,0,0,1,2.26-1.77,46.71,46.71,0,0,1,7.46,3.34,8.11,8.11,0,0,1-.74,1.37,6.47,6.47,0,0,0-.69,1.47,4.91,4.91,0,0,1-.29,1.23c-0.34.58-1.29,1-1.77,1.72-0.23.36-.32,0.87-0.54,1.32-0.55,1.12-1.63,2.39-2.11,3.34a4.08,4.08,0,0,0-.44,1.62,2.08,2.08,0,0,0,1.42,1.57,3.06,3.06,0,0,0,1.37-1.18,7.21,7.21,0,0,0,1.18-1.47c0.39-.83.74-1.57,1.08-2.31a14.88,14.88,0,0,1,1.32-2.06,14.06,14.06,0,0,1,1.42-2,14,14,0,0,0,2.31-2.7c0.88,0.45,1.77.94,2.6,1.47a63.2,63.2,0,0,1,7.11,5,2.32,2.32,0,0,1-1.32.64c-0.47.15-.93,0.38-1.42,0.54-1,.32-2.18.37-3.14,0.78a8,8,0,0,0-1.08.93c-0.37.27-.87,0.4-1.23,0.64-0.53.35-.83,0.95-1.28,1.23-0.12.07-.75,0.26-1,0.39a9.1,9.1,0,0,0-1,.69c-0.43.3-.89,0.45-1.28,0.74s-0.56.63-.88,0.88c-0.54.43-1.6,0.77-1.62,1.42s1.17,1.36,2.26,1.08a12.31,12.31,0,0,0,2.5-1.32c0.44-.22.89-0.41,1.33-0.64s0.82-.52,1.23-0.69a25.58,25.58,0,0,0,2.65-.88c0.78-.44,1.51-0.87,2.21-1.32,0.9-.58,1.85-1.83,2.85-2.45a12.13,12.13,0,0,1,1.13-.49,4.74,4.74,0,0,1,1.08-.54,3.87,3.87,0,0,1,1.47,1,40,40,0,0,1,3.73,3.63,9.53,9.53,0,0,1-1.13,1.28,7.53,7.53,0,0,1-1.13,1.28c-0.18.14-.47,0.23-0.69,0.39s-0.39.37-.59,0.49-0.52.18-.74,0.34a9.53,9.53,0,0,0-.74,1,8.59,8.59,0,0,1-.83.54c-0.38.29-.72,0.66-1.13,1a13,13,0,0,0-1,1.08c-0.58.57-1.42,0.91-2,1.52s-0.73,1.6-1.28,2c-0.38.29-.93,0.42-1.32,0.74s-0.61.8-.93,1a5.07,5.07,0,0,0-1,.54c-0.17.2-.29,0.66-0.54,1-0.57.72-1.46,1-1.57,1.52-0.19.93,0.39,2.76,1.13,3a2.25,2.25,0,0,0,2.11-.93c0.49-.5,1-0.83,1.37-1.23,0.68-.73,1.09-1.62,1.72-2.4a18.32,18.32,0,0,1,2.31-1.82,7.59,7.59,0,0,0,1.37-1.82,12.56,12.56,0,0,1,1.32-1.86,37.16,37.16,0,0,1,3-3.39c0.67-.59,1.43-1,2.06-1.62s1.16-1.27,1.77-1.91a24,24,0,0,1,2.85,3.19c0,0.28-.19.3-0.15,0.59a1.11,1.11,0,0,0,.83.25,10.21,10.21,0,0,1,1.52,2.21c-0.66.2-1.68,0-2.36,0.2-0.28.08-.41,0.26-0.83,0.39a15.23,15.23,0,0,1-2.21.39c-0.74.1-1.94,0.11-2,.59s1.33,0.4,2,.34c0.94-.08,1.59-0.23,2.21-0.25,0.37,0,.82.1,1.23,0.1s1-.1,1.57-0.1a9.16,9.16,0,0,1,1.57,0,2.28,2.28,0,0,1,.74.88,4.07,4.07,0,0,1,.54,1.08,4.49,4.49,0,0,1-2.11.49,11,11,0,0,1-2.26.34,14.08,14.08,0,0,0-2.4,0,20.9,20.9,0,0,0-4.32.69,7.2,7.2,0,0,0-1.28.88c-0.89.6-1.86,0.85-2.89,1.42a2.93,2.93,0,0,0-1.28.88,0.64,0.64,0,0,0,.74.74,4.21,4.21,0,0,0,2-.74c0.64-.31,1.33-0.69,1.86-0.88s1-.23,1.42-0.44a12.66,12.66,0,0,1,4.32-1.13,23.15,23.15,0,0,1,3.19,0,15.1,15.1,0,0,0,2.35.25,6.18,6.18,0,0,1,1.77-.44c0.48,0.12.77,1.43,1,1.82a5.89,5.89,0,0,1-4,1.32c-0.45,0-.85-0.26-1.28-0.29a27.54,27.54,0,0,0-3.29.15,11.26,11.26,0,0,0-1.23.1c-0.73.1-1.35,0.54-2.06,0.64-0.33,0-.52-0.05-0.79,0a7.89,7.89,0,0,0-1.08.64c-0.7.27-2.64,0.46-2.36,1.52,0.14,0.53,1.32.44,1.91,0.29,1.3-.32,2.33-1.09,3.73-1.42a18.36,18.36,0,0,1,2.16-.39c0.73-.08,1.5-0.22,2.26-0.29,1.64-.17,3.54.08,5.15-0.25a6.4,6.4,0,0,1,1.52-.39c0.49,0.14.62,1.59,0.88,2-0.73.88-2.34,0.7-3.83,0.93a13.87,13.87,0,0,1-2.26.44,9.88,9.88,0,0,1-1.28-.39,7.93,7.93,0,0,0-1.72.1c-0.89.09-1.73,0.15-1.77,1-0.06,1.44,2.29,1.26,3.58,1.13,0.53-.05,1.05,0,1.52-0.15s1.18-.51,1.82-0.59c0.29,0,.61,0,0.88,0,1.31-.11,2.38-0.67,3.58-0.83a25.76,25.76,0,0,1,1.32,4.91c-1.43-.11-3.37-0.15-4.86-0.15a9.94,9.94,0,0,0-1.72.34,8.57,8.57,0,0,1-2.26.29c-0.38,0-.74-0.16-1.13-0.2-0.56,0-1.07.11-1.62,0.1a13.71,13.71,0,0,1-2.8-.93c-1.25-.35-2.7-0.11-3.78-0.29a3.4,3.4,0,0,0-1.62-.25c-0.8.17-1.24,0.61-1.91,0.69s-1.34-.13-2-0.1-1.09.29-1.72,0.29a11.16,11.16,0,0,1-1.72-.29c-0.94-.15-2,0.19-2.11.83-0.25,1.49,2,1.35,3.39,1.42a53.23,53.23,0,0,0,5.4.34c0.93,0,1.75-.29,2.65-0.39a20.91,20.91,0,0,1,7,.49,9.26,9.26,0,0,0,1.52.34c0.54,0,1.09.05,1.67,0.1a14.4,14.4,0,0,1,2,.49,11.38,11.38,0,0,0,2.16.29c1.36,0,3.24-.19,3.34.88s-1.08,1-2.06,1.37a3,3,0,0,1-1.28.59c-1,0-1.75-1.07-2.65-1.13a5.49,5.49,0,0,0-1.13.44c-0.63.1-1-.24-1.62-0.15-0.4.06-.69,0.51-1.13,0.64-0.63.18-1.56,0.21-2.45,0.39s-1.78.33-2.45,0.39a6.65,6.65,0,0,0-1,0c-0.71.21-.86,1-1.28,1.32a6.1,6.1,0,0,1-1.42.54,6,6,0,0,1-1.47.44c-0.5,0-1,0-1.52,0-0.68.11-1.29,0.3-1.91,0.34a19.27,19.27,0,0,0-2.31,0c-1,.21-2.52.58-2.9,1.37a1.51,1.51,0,0,0,.54,2c1.28,0.55,3.3-.43,4.32-0.69,1.52-.38,2.47-0.91,3.83-1.37a14.5,14.5,0,0,1,2.7-1.08c0.34,0,.68.06,1,0a9.49,9.49,0,0,0,1.67-.39,17.16,17.16,0,0,1,1.91-.15c0.87-.08,1.74-0.56,2.65-0.69,0.32,0,.63,0,0.93,0s0.64-.22,1-0.29c0.73-.15,1.47-0.15,2.16-0.29s1.26-.5,1.86-0.64a8.56,8.56,0,0,1,2.26.15c0.92,0,1.68-.53,2.5,0a6.81,6.81,0,0,1-.1,2.16,9.05,9.05,0,0,0-3-.29c-1,.08-3,1-3,1.62a0.82,0.82,0,0,0,.69.69c1,0.3,2.57-.29,3.44.39a1.84,1.84,0,0,1,.54,1.86c-0.19.45-1.69,0.67-2.26,0.74a9.9,9.9,0,0,1-3.34-.15c-0.37-.09-0.67-0.33-1-0.44s-0.94-.1-1.32-0.25-0.6-.41-0.93-0.54a10.71,10.71,0,0,0-1.37-.25,11.47,11.47,0,0,0-1.33-.39c-1-.1-1.77.15-1.82,0.64s0.79,0.59,1.47.78c0.47,0.13.8,0.4,1.13,0.49s0.82,0.1,1.28.2S404.6,406,405,406c0.61,0.11,1.26.05,1.91,0.15s1.07,0.38,1.62.49a6.83,6.83,0,0,1,2.06.39c0.77,0.44,2.39,2.36.64,2.6s-2.94-1-4.17-1.18c-1.81-.27-3.32.46-5.1,0a15,15,0,0,1-1.47-.64c-0.54-.2-1.1-0.34-1.62-0.49s-1.21-.16-1.72-0.34c-0.19-.07-1.22-0.84-1.42-0.2-0.13.41,0.85,1,1.23,1.13s1.11,0.26,1.67.39,1.07,0.36,1.57.49c0.71,0.18,1.37.12,2,.29a13,13,0,0,1,1.52.74c0.5,0.22,1,.47,1.57.69s1,0.59,1.52.74,1,0,1.42.15,1.64,0.71,1.72,1.23c0.15,1-1.32,1.37-2.31,1.13-0.56-.13-1.16-0.62-1.91-0.79-0.56-.13-1.25-0.08-1.77-0.25s-0.84-.52-1.18-0.64-1.06-.13-1.67-0.34c-0.38-.13-1.28-0.56-1.52-0.1s1.54,1.36,2.06,1.52,1.24,0.27,1.82.49a12.36,12.36,0,0,0,1.77.49c1.94,0.43,3,1.44,4.66,1.82a7,7,0,0,1-1.32,2.36,3.74,3.74,0,0,1-1.47,0c-0.39-.13-0.68-0.48-1-0.59s-0.85-.07-1.28-0.2-0.63-.34-1-0.44c-1.07-.32-2.29-0.16-3.24-0.59-0.3-.13-0.6-0.44-0.93-0.64s-0.57-.28-0.78-0.44-0.56-.69-0.93-0.93a11.72,11.72,0,0,0-1.13-.44c-0.92-.47-1.73-1.15-2.75-1.67-0.51-.26-1-0.56-1.47-0.83a14.67,14.67,0,0,0-1.42-1c-0.37-.14-0.88-0.12-1.37-0.25a16.59,16.59,0,0,0-3.34-.44c-1-.06-2.26,0-2.31.88s1,1,1.57,1.28c1.91,0.94,4,1.78,5.79,2.7,0.43,0.21.76,0.58,1.18,0.83a17.93,17.93,0,0,0,2.65,1.08c0.85,0.33,1.72.73,2.55,1.13s1.83,0.59,2.75.93c0.44,0.16.88,0.36,1.32,0.54s0.95,0.26,1.37.44a9.21,9.21,0,0,1,.79.49c0.8,0.43,1.86.58,2.75,1a5.33,5.33,0,0,1-1.28,1.91c-1,.25-1.59-0.84-2.31-1s-1.71.31-2.65,0.29c-1.28,0-2.44-.57-3.48-0.44a5.25,5.25,0,0,0-.93.39,10.49,10.49,0,0,1-2.55,0A17.18,17.18,0,0,1,388,421.1c-0.34-.11-0.67-0.33-1-0.39a29.14,29.14,0,0,0-3.78,0c-0.77,0-1.77-.51-2.5-0.29-1,.29-1.18,2-1.57,2.94-0.22.55-.53,1-0.74,1.52a4.61,4.61,0,0,0-.54,1.72c0.07,0.63,1,1.07,1.57,1.47s1.16,1,1.62,1.37a42.45,42.45,0,0,1,2.85,3.19c1,1.06,1.82,2.26,2.85,3.19s2.22,1.74,3.29,2.75a37.84,37.84,0,0,1-4.47,3.29,5.42,5.42,0,0,1-1.57,1,9.37,9.37,0,0,1-2.21-.83c-0.36-.2-0.7-0.55-1.08-0.78s-0.85-.41-1.18-0.64-0.54-.62-0.88-0.88a15.72,15.72,0,0,1-1.33-.88,6.5,6.5,0,0,0-1.13-1.08c-0.6-.27-1.57-0.36-2.16-0.64s-1.56-1.18-2.8-.83c-0.95.27-1,1.79-.25,2.45,2.73,1.14,4.33,3.73,6.67,5.3a17.28,17.28,0,0,1,2,1.37,5.2,5.2,0,0,1-1.13.74,3.65,3.65,0,0,1-1.23.59c-1,.05-1.7-1.61-2.55-1.28s0.59,1.77.64,2.21a29.46,29.46,0,0,1-2.85,1.23,5.35,5.35,0,0,1-.69-1.08c-0.4-.72-0.76-1.53-1.18-2.26a11,11,0,0,0-2.4-2.75c-0.5-.43-1.46-1.37-2.06-1.37a1.6,1.6,0,0,0-1.18.83,4.1,4.1,0,0,0-.74,1.28,3,3,0,0,0,.83,1.86,24,24,0,0,1,2.9,5.2,12.56,12.56,0,0,1-1.52.54,4.39,4.39,0,0,1-1.52.49,4.29,4.29,0,0,1-.93-1.42,7.47,7.47,0,0,0-1.82-2.5c-0.4-.31-1.7-1-1.91-0.1a2.35,2.35,0,0,0,.88,1.86,32.92,32.92,0,0,1,2.26,2.6,38.73,38.73,0,0,1-3.83,1,4.47,4.47,0,0,1-1.32.29,3.39,3.39,0,0,1-.93-1.28c-0.35-.49-0.68-0.91-0.93-1.28-0.58-.81-1.32-2-2.26-2.16s-2.63.52-2.75,1.62c-0.09.79,0.8,1.53,1.13,2.06a8,8,0,0,1,1.18,2.06c-0.42.1-.86,0.21-1.32,0.29a6.17,6.17,0,0,1-1.37.25,5.25,5.25,0,0,0-.74-0.29,2.73,2.73,0,0,0-.59.54,9.2,9.2,0,0,1-2.36.39c-0.82.12-1.66,0.26-2.45,0.29-0.26-1.24.43-2.63-.29-3.44s-2.61-.13-3.09.59c0,1.23.19,2.21,0,3.29a99.45,99.45,0,0,1-12.22.83c0-.81-0.3-1.49-0.39-2.36a3,3,0,0,0-.29-1.37,1.56,1.56,0,0,0-1.82-.29c-0.9.59-.49,2.9-0.34,4.07-1.9,0-4.15,0-6.18-.25,0.2-.54.57-1.18,0.79-1.91s0.8-2.12.29-2.8a3.82,3.82,0,0,0-1.18-.59,11.17,11.17,0,0,0-1.23-.74,6.47,6.47,0,0,0-1.62.25c-0.53.34-.65,1.28-1,2-0.11.23-.31,0.48-0.44,0.74a23.29,23.29,0,0,1-2,2.6,81.46,81.46,0,0,1-8.34-1.23,3.51,3.51,0,0,1,.88-1.72,8.05,8.05,0,0,0,.44-1.72,6,6,0,0,0,.2-2.36,9.86,9.86,0,0,0-.64-1.57c-0.55-1.27-1.7-1.23-2.21,0a13.07,13.07,0,0,0-.74,4.91,4,4,0,0,1,0,2,16.39,16.39,0,0,1-3.29-.74,13.22,13.22,0,0,1,0-2.31c-0.58,0-.45.73-0.59,1.13a3.36,3.36,0,0,1-.54.93c-1.17-.21-2.14-0.6-3.24-0.88-0.09-.37.27-0.62,0-0.93-0.41-.57-1,0.23-1.37.54-1.37-.42-2.72-0.85-4-1.37a7.35,7.35,0,0,1,2.9-1.67c0.54-.24,1.13-0.39,1.67-0.64s0.94-.56,1.42-0.83a21,21,0,0,0,2.65-1.91,15.3,15.3,0,0,0,1.23-1c0.55-.56,1.5-1.2.88-2.26a4.17,4.17,0,0,0-1-.78,13.53,13.53,0,0,0-1-1,2.23,2.23,0,0,0-2,.1,8.56,8.56,0,0,0-1.13,1.32,9.46,9.46,0,0,0-1.13,1.28,13.54,13.54,0,0,1-.69,1.42,6.4,6.4,0,0,1-1.91,1.23c-0.33.2-.6,0.65-0.93,0.88a14.63,14.63,0,0,1-2.31,1c-0.35.16-.73,0.46-1.18,0.69a5.5,5.5,0,0,1-1.18.64,3.84,3.84,0,0,1-1.28-.54,28.77,28.77,0,0,1-3.48-1.82,7.7,7.7,0,0,1,2-1.82,14.2,14.2,0,0,0,1.86-2.9c0.07-.18.05-0.46,0.15-0.69a20.24,20.24,0,0,1,1.13-2.06c0.41-.7.75-1.44,1.13-2s0.75-1.24,1.23-1.91,1.21-1.3,1.23-1.91a1.92,1.92,0,0,0-.54-1.08,2.74,2.74,0,0,0-1.86-1.42,3.09,3.09,0,0,0-1.57.64c0.12,1.63-.76,2.37-1.37,3.44-0.2.34-.43,0.71-0.64,1a11.26,11.26,0,0,0-.64,1c-0.35.71-.36,1.62-0.64,2.36a5.72,5.72,0,0,0-.54.88,12.67,12.67,0,0,1-.15,1.52,11,11,0,0,1-1.77,2.11c-0.35.44-.82,1.47-1.32,1.52a3.24,3.24,0,0,1-1.23-.64,12.52,12.52,0,0,1-1.13-.74,16.65,16.65,0,0,0,1.91-2.6c0.36-.68.52-1.75-0.44-1.86-0.64-.08-1,0.48-1.47.69-0.24.1-.52,0.1-0.74,0.2a18.74,18.74,0,0,0-2.26,1.67,8.84,8.84,0,0,1-1.57-1,2.65,2.65,0,0,1,1.13-.74c0.79-.5,1.54-1.35,2.4-2,0.42-.32.8-0.68,1.23-1s0.93-.5,1.37-0.79,0.68-.52,1.13-0.88a1.51,1.51,0,0,0,.74-1.23,0.73,0.73,0,0,0-.83-0.59c-0.56,0-.64.55-1.08,0.79s-0.66.19-.93,0.34a7.52,7.52,0,0,0-.74.69c-0.27.24-.63,0.43-0.78,0.59a7.13,7.13,0,0,1-1.37,1.57,8.65,8.65,0,0,1-1.13.39c-0.77.31-1.4,1-2.06,1.18a3.17,3.17,0,0,0-1,.25c-0.72-.51-1.46-1-2.16-1.57a11.63,11.63,0,0,1-1.91-1.77c0.61-.24,1.36-0.23,2-0.44,0.35-.11.75-0.39,1.18-0.59a10.18,10.18,0,0,0,1.18-.54c0.34-.21.62-0.52,0.93-0.69s0.81-.29,1.23-0.49,0.67-.45,1-0.64a17.6,17.6,0,0,1,5.2-1.57,10.14,10.14,0,0,0,2.75-.59,8.69,8.69,0,0,1,2.11-1.08c0.9-.21,2-0.33,2.31-0.88,0.5-1-.67-2.37-1.23-2.55a2.65,2.65,0,0,0-1.32,0c-0.84.28-1.89,1-2.6,1.28a19.33,19.33,0,0,1-2.8.49,22.9,22.9,0,0,0-2.31.79c-0.82.27-1.74,0.3-2.6,0.54a10.11,10.11,0,0,0-1.08.49c-0.39.16-.86,0.16-1.23,0.29a10.55,10.55,0,0,0-1.62.93c-0.74.45-1.41,0.93-2.16,1.42a9,9,0,0,1-2.6,1.52,4.8,4.8,0,0,1-.74.2,3,3,0,0,1-1.23-1.08,2.61,2.61,0,0,1-1-1.18,3.57,3.57,0,0,0,2.55-.74,6.8,6.8,0,0,0,1.67-1c0.55-.53,1.31-1,1.91-1.47,0.83-.68,1.44-1.6,2.21-2.31a18.79,18.79,0,0,1,4-2.65,12.9,12.9,0,0,1,2.06-.69,7.88,7.88,0,0,0,1.72-1,13.5,13.5,0,0,0,2.94-2.5c0.83-1.41.29-4.13-1.72-3.83a8.34,8.34,0,0,0-1.86.78,25.48,25.48,0,0,0-2.11,2.26c-0.41.38-1,.69-1.32,1s-0.28.62-.49,0.88a9.48,9.48,0,0,1-2.89,2.06c-0.35.18-.7,0.27-1.08,0.44s-0.86.61-1.32,0.83c-0.27.13-.58,0.18-0.83,0.29s-0.46.3-.69,0.39c-1.3.53-2.7,0.66-3.39,1.86-0.92.29-1.12,1-1.72,1.72s-0.69,1.27-1.67,1.47a2.3,2.3,0,0,1-1-1.08c0.34-.4,1-0.74,1.32-1.18a2.07,2.07,0,0,0,.44-1c-0.16-1.09-1.89-.06-2.26.2a1.68,1.68,0,0,1-.69.44,1.37,1.37,0,0,1-.74-0.69,1.68,1.68,0,0,1-.49-0.88c1.3,0,1.84-.92,2.94-1.32,0.37-.13.83-0.14,1.23-0.25s0.92-.48,1.42-0.59,1.11-.09,1.67-0.2c1.43-.27,3-0.5,3.88-1.57a1.24,1.24,0,0,0-1.18-.54c-0.45-.09-0.82-0.35-1.23-0.44a13.68,13.68,0,0,0-3.83.1,12.57,12.57,0,0,0-1.52.93c-0.49.17-1.13,0.11-1.57,0.29s-0.62.65-1.08,0.88a11.87,11.87,0,0,1-2.4.44,6.16,6.16,0,0,1-1.18-1.77c1.32-.27,2.65-0.14,3.68-0.64a9.78,9.78,0,0,0,.88-0.64,13.07,13.07,0,0,1,3.58-1.28,10.55,10.55,0,0,1,2-.39c1.72-.09,3.85.42,5.45,0a15.46,15.46,0,0,0,1.57-.64,15.94,15.94,0,0,1,2-.34c1-.23,2.68-1.8,1.13-2.4-1.14-.45-2.88.46-3.83,0.88a8.34,8.34,0,0,1-2.5.93,12.92,12.92,0,0,1-2.4-.25,15.34,15.34,0,0,0-2.36-.39c-0.78.09-1.61,1-2.75,1.13a9.75,9.75,0,0,0-1.86.15c-0.53.18-.8,0.55-1.18,0.69a20.31,20.31,0,0,1-3.88.64,3.78,3.78,0,0,1-.93.25,2.65,2.65,0,0,1-.74-1.18,5.35,5.35,0,0,1-.59-1.28,7.16,7.16,0,0,1,3,0,13,13,0,0,0,3.88-.39,11.7,11.7,0,0,0,1.77-1,11.17,11.17,0,0,1,3.83-.59c0.66,0,1.36-.08,2.06,0s1.25,0.17,1.91.15a7.14,7.14,0,0,0,3.29-1c0.7-.37,2.82-0.86,2.85-1.52,0-.48-0.82-0.74-1.37-0.74a14.26,14.26,0,0,0-2.06.29c-1.22.2-1.93,0.64-3.24,0.83-0.53.08-1.13,0.12-1.72,0.2a11.64,11.64,0,0,1-1.67.2c-0.73,0-1.38-.15-2.06-0.1-1.47.11-2.7,0.71-3.93,0.83-0.48,0-.92-0.09-1.23,0a7.69,7.69,0,0,0-1.18.39,4.12,4.12,0,0,1-2,0c-0.34-.07-0.51-0.23-0.88-0.29-0.78-.13-3.09.34-2.9-0.88,0.07-.44,1.11-0.68,1.67-0.78a9.67,9.67,0,0,1,2,0c0.24,0,.84,0,0.83-0.25,0.32,0.56,1.49.55,2.11,0.44s2.26-.52,2.31-1.08c0.07-.81-1.72-1.14-2.5-1.28-0.44-.08-1-0.1-1.47-0.2s-1.2-.32-1.52-0.34c-1.29-.08-4,0.34-3.93-0.83,0-.4,1-1,1.57-1.13a12.76,12.76,0,0,1,4,0,29.53,29.53,0,0,1,2.94.39c1,0.15,2,.26,2.75.44,0.52,0.12,1.24.47,1.77,0.54,0.72,0.1,1.52.06,2.4,0.15s1.66,0.19,2.31.25c1.37,0.12,2.79-.11,4.17,0,1.9,0.09,3.51-.29,5.45-0.15,1,0.07,1.67.2,2.16-.29a3.58,3.58,0,0,0-.2-3,3.52,3.52,0,0,0-1.32-.74,2.28,2.28,0,0,0-.83-0.69,2.89,2.89,0,0,0-.83.29,14.71,14.71,0,0,1-2.36-.1c-0.89,0-1.58,0-2.21-.1a16.22,16.22,0,0,1-1.62-.54c-0.66-.17-1.44-0.16-2.21-0.34A21.77,21.77,0,0,0,265,404c-1-.14-2.22-0.21-3.34-0.29a31.28,31.28,0,0,0-6,0,8.2,8.2,0,0,0-2.21.59,7.37,7.37,0,0,1-1.82.29,5.7,5.7,0,0,1-.83.1,2.18,2.18,0,0,1-1.67-.93c-0.28-1.12,1.11-2.13,1.82-2.21a15.66,15.66,0,0,1,2.45.15,8.14,8.14,0,0,0,1.91-.2c0.64-.1,1.38-0.09,2.06-0.15s1.22-.29,1.82-0.34,1.09,0,1.57,0c0.94-.05,1.82-0.3,2.85-0.44a15.33,15.33,0,0,0,1.57-.1c0.64-.15,1.15-0.69,1.86-0.83s1.2-.07,1.72-0.15a12.94,12.94,0,0,0,1.37-.44c0.63-.17,1.52-0.27,2.26-0.39s1.51-.39,2.16-0.44c1.35-.1,2.62.07,3.34-0.39,1.61-1,.87-4.27-1.23-4.12a8.2,8.2,0,0,0-2,.39c-1.33.46-2.48,1.41-4,1.57a8.74,8.74,0,0,0-2.45.39,12.32,12.32,0,0,1-2,.79c-0.84.2-1.63,0.1-2.45,0.25-1.83.31-3.43,1-5.3,1.42-1.53.37-3.57,0.48-5.4,0.74-0.47.07-.91,0.22-1.32,0.25a10.93,10.93,0,0,1-2.6-.59c-0.82-.13-2,0.11-2-0.88,0-.76,1-0.84,1.13-1.57,0.06-.39-0.4-0.89-0.34-1.28,0.09-.62,1.42-1,2.4-0.88a16.79,16.79,0,0,1,2.11.69c0.81,0.25,1.71.26,2.5,0.49a13.7,13.7,0,0,0,1.28.54,9.68,9.68,0,0,0,2,0,8.89,8.89,0,0,0,2-.15c0.58-.17,1.69-0.6,1.67-1s-1-.48-1.72-0.59a18.71,18.71,0,0,1-3.68-.78c-0.31-.12-0.57-0.45-0.93-0.59a13.9,13.9,0,0,0-1.72-.29,11.57,11.57,0,0,0-1.77-.25,14,14,0,0,1-2.26.1,5.92,5.92,0,0,1-1.77-.64,6.28,6.28,0,0,1,.2-1.23,12.93,12.93,0,0,1,2.4-.59,27.71,27.71,0,0,1,3.78.74,10.17,10.17,0,0,1,1.82.44c0.6,0.2,1.22.28,1.72,0.49s0.73,0.5,1.13.64a7.06,7.06,0,0,0,1.57.15c0.49,0,.92.29,1.32,0.34a30.37,30.37,0,0,0,3.39-.1c0.62,0,1.19-.06,1.77,0,1.21,0.12,3.43.72,4.61,0.15,0.54-.26,1.07-1.2.25-1.57s-1.72.13-2.16,0.15a6.77,6.77,0,0,1-1.23-.29c-0.31-.05-0.72-0.07-1.08-0.1s-0.89-.11-1.18-0.1-0.56.2-.78,0.2c-0.73,0-1.52-.71-2.26-0.88s-1.34,0-2-.2c-0.35-.08-0.67-0.3-1-0.39-1.23-.32-2.63-0.47-3.73-0.83a9.14,9.14,0,0,0-.93-0.39,12.61,12.61,0,0,0-1.72,0c-0.75,0-1.62-.19-2.55-0.25a3.36,3.36,0,0,1-2.16-.59,5.75,5.75,0,0,1,.74-1.86c2.24,0.62,4.26.58,6.38,1.13,0.72,0.19,1.51.33,2.16,0.54,0.48,0.16.88,0.59,1.37,0.74s1,0,1.47.1a15.92,15.92,0,0,1,1.57.79,23.76,23.76,0,0,0,2.65.25c0.33,0.07.68,0.5,1.13,0.64a6.52,6.52,0,0,0,2.7-.2c0.76-.1,1.39-0.07,1.52-0.54,0.28-1-1-2.08-1.77-2.36-0.5-.18-1-0.21-1.47-0.39s-0.83-.37-1.28-0.54c-0.91-.35-1.89-0.33-3-0.64-0.27-.07-0.59-0.31-0.79-0.34-0.57-.11-1.12-0.07-1.72-0.2a15.26,15.26,0,0,0-2.4-.25,7.09,7.09,0,0,1-.88,0c-0.35-.07-0.59-0.4-0.88-0.44-0.85-.14-1.64.1-2.4,0-0.55-.11-1.06-0.39-1.57-0.54a4.32,4.32,0,0,1-1.52-.54A5,5,0,0,1,252,381c1.45,0.38,2.47,1.4,3.93,1.82a29.07,29.07,0,0,0,3.39.2c1,0.13,2.41,0,2.45-.83,0-.51-0.61-0.63-1-0.93a3.37,3.37,0,0,0-.93-0.78,7.34,7.34,0,0,0-1,0,6.32,6.32,0,0,1-1-.44,6.34,6.34,0,0,0-.69,0c-0.33-.06-0.63-0.22-0.93-0.29a27.61,27.61,0,0,1-3-.54,9.39,9.39,0,0,1,1.47-2.4c1,0.16,1.88.56,2.9,0.83s2,0.42,3,.74c0.74,0.24,1.56.85,2.4,1.08s1.9,0.28,2.8.44a11.87,11.87,0,0,1,4.66,1.82c0.77,0.53,1.9.82,2.21,1.67s-0.26,2.43.59,3a4.65,4.65,0,0,0,1.33.44c1,0.31,2.74,1.22,4,1.13s1.22-1.34,1.42-2.55a4.92,4.92,0,0,0,.2-2.16c-0.34-1.07-2.18-.91-3.48-1.33a13,13,0,0,1-1.32-.78,11,11,0,0,0-1.52-.34,7.72,7.72,0,0,1-1.28-.59,19,19,0,0,0-2.75-.93c-0.53-.17-1.06-0.52-1.62-0.74s-1.21-.39-1.72-0.64-0.77-.55-1.18-0.74-0.61-.15-0.88-0.29a11.07,11.07,0,0,0-1.82-1.18c-0.25-.08-0.51-0.09-0.74-0.15a6.25,6.25,0,0,1-2.4-1.52,3.39,3.39,0,0,1-2.45-.59,10.16,10.16,0,0,1,1.57-2.06c0.73,0.14,1.13,1,2.11.83,0.74-.11.82-0.93,2-0.83a10.52,10.52,0,0,1,3.09.88,13.08,13.08,0,0,0,1.08,1.08,8.49,8.49,0,0,0,1,.15,11.28,11.28,0,0,1,1.72.64c0.57,0.23,1.15.45,1.67,0.69a33.9,33.9,0,0,0,3,1.62c1.17,0.4,2.13,1,3.29,1.37s3.77,1.79,4.76.49a3.75,3.75,0,0,0,.59-1.82,2.14,2.14,0,0,0-1.13-1.23,10.12,10.12,0,0,0-1.18-.25c-0.37-.12-0.74-0.38-1.13-0.54s-0.84-.24-1.23-0.39a30.56,30.56,0,0,0-2.9-1.23c-1.42-.36-2.88-0.15-4.27-0.64-0.59-.21-1.11-0.63-1.72-0.88a22.66,22.66,0,0,1-3.58-1.62,10.18,10.18,0,0,0-1.57-1c-0.92-.36-1.94-0.09-2.75-0.64a59.65,59.65,0,0,1,7.11-6.62c1.13,0.09,1.52,1,2.16,1.67s1.37,1,2,1.67c0.77,0.82,1.15,1.89,1.82,2.5,0.34,0.31.87,0.48,1.28,0.79a12.33,12.33,0,0,0,2.5,1.57,1.54,1.54,0,0,0,1.47.25c0.38-.77-1-2-1.52-2.31s-1.17-.43-1.62-0.74-0.56-.69-0.88-0.93-0.58-.26-0.74-0.39-0.48-.57-0.74-0.83-0.59-.49-0.79-0.74a8.17,8.17,0,0,0-1.77-2.11,9.84,9.84,0,0,0-1-.34,3.91,3.91,0,0,1-1-.93c1-.83,2-1.55,3-2.31,1.24,0.87,1.84,2.33,2.75,3.63,0.24,0.34.65,0.7,1,1.13a5.77,5.77,0,0,0,2.16,1.86c0.29,0.14.62,0.17,0.88,0.29a6.13,6.13,0,0,1,.69.44,11.63,11.63,0,0,1,1.57.88,10.65,10.65,0,0,1,.93,1.08c0.29,0.34.59,0.68,0.93,1,0.56,0.58,1.55,1.65,2.4,1.57,1.15-.11,1.87-2.25,1-3.29a4.14,4.14,0,0,0-1-.64,6.9,6.9,0,0,1-.93-0.74c-0.28-.27-0.44-0.64-0.69-0.83s-0.48-.23-0.69-0.39-0.46-.53-0.74-0.78-0.6-.4-0.83-0.64-0.7-.84-1.13-1.23a28.16,28.16,0,0,1-2.26-2.45c-0.39-.44-0.89-0.74-1.23-1.13-0.53-.62-0.83-1.43-1.42-2.06a37.38,37.38,0,0,1,4.66-2.94h0.1c1.75,1.27,3.63,2.65,5.5,3.93a20.26,20.26,0,0,0,2.11,1c0.71,0.37,1.34.94,2.06,1.32a15.25,15.25,0,0,0,2.16,1.23c1,0.34,2.13,0,1.91-1.47a7,7,0,0,0-1.28-1.82c-0.24-.25-0.58-0.48-0.88-0.74a7.45,7.45,0,0,1-.79-0.79c-0.51-.58-1.18-1-1.62-1.52a3.2,3.2,0,0,0-1.28-1.23c-0.32-.1-0.67,0-1-0.1a9.12,9.12,0,0,1-2.16-1.08,2.36,2.36,0,0,1-1-.79,63.81,63.81,0,0,1,8.54-3.58,5.06,5.06,0,0,1,1.28-.44,5.51,5.51,0,0,1,1.57,1.28,12.68,12.68,0,0,1,2.4,3.29,3.52,3.52,0,0,0,1.23,1.47,2.88,2.88,0,0,0-.39-1.47c-0.72-1.9-2.15-3.07-2.65-5.25a22.13,22.13,0,0,1,3.63-1,28.06,28.06,0,0,0,2,3.78c0.39,0.53.82,1.64,1.77,1.18,0-1.1-.85-1.78-1.37-2.55a9.69,9.69,0,0,1-1.37-2.65,4.67,4.67,0,0,1,1.62-.49,6.43,6.43,0,0,1,1.67-.39,6.45,6.45,0,0,1,2,1.37,12.54,12.54,0,0,1,.88,1.13c0.31,0.41.66,0.77,0.88,1.08,0.54,0.75.8,1.71,1.72,2a1.83,1.83,0,0,0,2.06-1.18c0.08-.74-1-2.06-1.42-2.4-0.19-.15-0.46-0.24-0.69-0.39s-0.47-.41-0.74-0.64a2,2,0,0,1-1-1.67c2.92-.53,5.85-1,8.93-1.42,0.34,1.36.12,4.45,1.42,4.76,1.7,0.4,1.54-1.38,1.72-2.75,0.1-.8.63-1.62,0.69-2.4a52.49,52.49,0,0,1,6.13-.39c0.68,1.8,1.25,4.34,3.88,4a1.68,1.68,0,0,0,1.28-.88c0.49-1.13-.4-2.29-0.54-3.19A0.13,0.13,0,0,1,331.86,341.07Zm14.48,106.09a5.81,5.81,0,0,1,1.77-.59,24.81,24.81,0,0,0,3.43-1.32c0.58-.24,1.22-0.39,1.77-0.64,0.33-.15.69-0.46,1.08-0.69s0.75-.47,1.13-0.69a21.45,21.45,0,0,0,2.31-1.28c0.35-.27.62-0.59,0.93-0.83,0.69-.53,1.54-0.85,2.26-1.32,0.38-.25.8-0.44,1.13-0.69s1-.93,1.47-1.37a10.89,10.89,0,0,0,1.42-1.47,23.32,23.32,0,0,1,2.8-2.94,19.48,19.48,0,0,0,2.65-3.09,25.43,25.43,0,0,0,2.26-3.48c0.31-.69.57-1.39,0.88-2.06s0.54-1.4.83-2.11c0.21-.5.61-0.85,0.83-1.33s0.24-.82.44-1.23a27.62,27.62,0,0,0,2.16-6.18c0.18-.9.58-1.74,0.74-2.6,0.18-1,.08-2.11.25-3.19,0.08-.49.22-1,0.29-1.47s0.06-1.09.15-1.62,0.3-.94.34-1.42c0.1-1.07-.07-2.44,0-3.63,0-.5,0-1.08,0-1.67s0.17-1.25.1-1.82-0.52-.87-0.64-1.67a14.52,14.52,0,0,1,.15-1.62,11.68,11.68,0,0,0-.44-1.67c-0.4-1.83-.46-3.84-0.93-5.5a55.13,55.13,0,0,0-2.06-6.53c-0.4-.93-0.81-2-1.28-3a11.79,11.79,0,0,0-1.42-2.9,39.48,39.48,0,0,1-2.55-3.88,12.18,12.18,0,0,0-.83-1.32c-0.36-.39-1.06-0.62-1.42-1-0.2-.22-0.34-0.57-0.54-0.83a28,28,0,0,0-1.82-2.45c-0.26-.28-0.65-0.5-1-0.78s-0.57-.69-0.88-0.93-0.77-.46-1.13-0.74-0.67-.59-1-0.88a19.92,19.92,0,0,1-2.16-1.67c-0.85-.93-1.24-1.84-2.31-2.36-0.41-.2-0.75-0.15-1.18-0.34-0.61-.27-1.1-0.9-1.77-1.18s-1.29-.27-1.86-0.54-0.77-.58-1.18-0.74-0.77-.12-1.13-0.25-0.64-.34-1-0.44-0.75-.15-1.13-0.25a10.17,10.17,0,0,1-1-.39,23.6,23.6,0,0,0-3.34-.83c-0.41-.08-0.87,0-1.28-0.15s-0.66-.38-1.08-0.49c-0.67-.18-1.39-0.24-2.06-0.39a15.51,15.51,0,0,0-3.44-.83c-1.61-.05-3.36,0-5.15-0.1a40.13,40.13,0,0,0-4.51.34c-1.49.14-3,.19-4.32,0.44s-2.41.85-3.63,1.13a19.82,19.82,0,0,0-2.75.79c-0.29.11-.56,0.32-0.83,0.39s-0.83.13-1.28,0.25-0.92,0-1.32.2a8.69,8.69,0,0,0-1,.88,16.59,16.59,0,0,1-1.52.69c-0.54.24-1.11,0.28-1.72,0.49a9.65,9.65,0,0,0-2.11,1.47c-0.73.56-1.53,1-2.16,1.42s-1.28,1.15-2,1.62c-0.35.24-.67,0.53-1,0.79s-0.88.32-1.23,0.59a16.81,16.81,0,0,0-1.08,1.37c-0.34.34-.81,0.61-1.18,0.93s-0.64.85-1,1.18-0.67.36-.88,0.59a14.37,14.37,0,0,0-.88,1.28c-0.31.41-.74,0.74-1,1.13-0.6.8-1,1.74-1.52,2.5a6.18,6.18,0,0,0-1.23,1.08c-0.24.38-.31,0.84-0.54,1.23a8,8,0,0,1-.59.79,14.07,14.07,0,0,0-1.77,2.5c-0.3.65-.58,1.22-0.93,1.86-0.17.31-.3,0.66-0.44,1s-0.15.73-.29,1.13-0.53.74-.69,1.13-0.17.77-.29,1.13-0.3.67-.39,1c-0.18.74-.22,1.53-0.44,2.31s-0.49,1.37-.64,2.11c-0.08.39-.11,0.79-0.2,1.18s-0.28.68-.34,1a17.55,17.55,0,0,0-.15,2c0,0.66-.18,1.33-0.2,2,0,1.14.09,2.25,0,3.43,0,0.91-.42,1.8-0.39,2.65a8.18,8.18,0,0,0,.39,1.57A9.65,9.65,0,0,1,283,403c0.06,1.21.23,2.41,0.39,3.58s0.43,2.17.59,3.34a18.59,18.59,0,0,0,.59,3.39c0.27,0.76.76,1.46,1,2.26s0.48,1.69.78,2.5,0.47,1.73.79,2.5,0.84,1.38,1.18,2.11c0.19,0.42.26,0.9,0.44,1.28a20,20,0,0,0,1.62,1.91c0.35,0.51.58,1.05,0.88,1.52a16.34,16.34,0,0,0,2.31,2.5c0.4,0.41.67,0.92,1.08,1.32,0.77,0.77,1.73,1.46,2.6,2.21,0.42,0.36.67,0.91,1.08,1.32a15.22,15.22,0,0,0,2.4,1.91,34.76,34.76,0,0,1,3.29,2.45,19.34,19.34,0,0,0,2,1.82c1.19,0.79,2.45,1.37,3.73,2.06a11.48,11.48,0,0,0,2.7,1.28c0.44,0.11.93,0.11,1.32,0.25a6.73,6.73,0,0,1,.79.44c0.29,0.15.65,0.2,0.93,0.34,0.56,0.29.91,0.77,1.52,1,0.44,0.19.93,0.32,1.42,0.54,1,0.45,2.12.37,3.19,0.74,0.51,0.18,1,.34,1.52.49,3.48,1,7,.89,10.75.83a22,22,0,0,0,3.58-.1,28.58,28.58,0,0,1,3.58-.39c2.12-.11,3.37-1.24,5.35-1C345.92,447.31,346.3,447.18,346.33,447.16Zm23.8-94.21a10.29,10.29,0,0,1-1.52.69A7.53,7.53,0,0,0,367,355.2c-0.37.35-1.15,0.6-1.13,1.28a2.43,2.43,0,0,0,.69,1.18c0.33,0.37,1.4,1.19,1.62.29,0.16-.64-0.55-0.85-0.64-1.37a1.74,1.74,0,0,1,.64-1.57,14.09,14.09,0,0,1,1.91-1c0.28-.19.53-0.54,0.83-0.79,0.63-.52,1.33-0.83,1.47-1.72C371.26,351.42,370.88,352.36,370.13,352.94Zm0.1,5.69c0.9-.06,1.34-1.24,1.42-2.11C371.11,356.64,369.73,358.07,370.23,358.64Zm-87.15.54c-0.1.7,0.58,1.11,0.93,1.62,0.14,0.19.2,0.45,0.34,0.64a15.06,15.06,0,0,0,2.75,2.11,5,5,0,0,0,1.08.88c0.58,0.2,1.09,0,1-.69s-1.35-.94-1.91-1.28c-0.28-.16-0.58-0.46-0.93-0.69a10.15,10.15,0,0,1-1-.59c-0.67-.59-1.13-1.91-2.11-2.11C283.15,359.08,283.19,359.2,283.08,359.18Zm111.68,5.69a7.71,7.71,0,0,0-1.62,1.28,14.57,14.57,0,0,1-1,1.13c-0.21.17-.56,0.26-0.83,0.44a7.62,7.62,0,0,1-2.06,1.42c-0.26.07-.5,0-0.78,0a17.15,17.15,0,0,0-2.65,1c-0.68.25-1.49,0.2-2,.44s-0.66,1.12-1.28,1.52-1.6.35-1.52,1.23a0.83,0.83,0,0,0,.59.64,2.84,2.84,0,0,0,1.82-.79c0.6-.4,1-0.84,1.52-1.13a8.7,8.7,0,0,1,2.11-.78,11.5,11.5,0,0,0,1.67-.29,9.81,9.81,0,0,0,1.72-1,6.52,6.52,0,0,0,2.21-2.06c0.58-.6,1.39-1.13,2-1.77a2.35,2.35,0,0,0,.69-1.28A0.47,0.47,0,0,0,394.76,364.87Zm-123.36,2.4a16,16,0,0,0-3.58-2.11,0.32,0.32,0,0,0-.1,0,0.38,0.38,0,0,0,0,.15,17.22,17.22,0,0,0,3.19,3,1.48,1.48,0,0,0,1.37.59C272.77,368.11,272,367.68,271.4,367.27Zm116,30a1,1,0,0,0,1.13.39c0.74-.05,2.32-0.21,2.26-0.74s-2.16-.51-2.35-0.49C387.93,396.53,387.26,396.61,387.4,397.3ZM282.45,409c0-.14-0.1-0.35-0.2-0.2A0.64,0.64,0,0,0,282.45,409ZM383.18,416c-0.35,1.55,1.38,1.22,2.55,1.28,0.74,0,1.94.29,2-.25,0.05-.38-0.87-0.8-1.32-1a4,4,0,0,0-2.26-.69A1.11,1.11,0,0,0,383.18,416Zm-7.75,17c-0.43,1.41,1.36,1,2.45,1.28,0.81,0.19,1.15.7,1.82,0.64a0.86,0.86,0,0,0,.69-0.49c0.1-.65-0.89-1.13-1.42-1.42-0.72-.39-1.31-1-2-0.88A2.2,2.2,0,0,0,375.43,433Zm10.8,4.56c0-.29-0.21-0.5-0.69-0.34C384.37,437.62,386.29,438.71,386.23,437.59Z"/><path class="cls-4" d="M358.8,375.66a17.43,17.43,0,0,1,2.16.15c2.58,0.22,5.81.31,7.31,1.28a4.66,4.66,0,0,1,1.23,2.11c0.32,0.69,1,1.38,1.23,2s1.29,3.6,0,3.83c-0.6.1-.8-0.43-1.42-0.64-0.3-.1-0.72,0-1-0.15-0.75-.32-0.9-1.26-1.52-1.52a7.26,7.26,0,0,0-1-.15c-0.45-.12-0.86-0.35-1.32-0.44s-1-.18-1.47-0.29c-1-.22-2-0.27-3-0.54a10.33,10.33,0,0,0-1.91-.64,26.14,26.14,0,0,0-3.83.39c-0.41,0-.9-0.09-1.37,0-0.7.06-1.46,0.47-2.26,0.59a24.93,24.93,0,0,0-4.71,1c-0.8.29-1.62,0.34-2.4,0.54-0.29.08-.66,0.43-1.13,0.59a5.85,5.85,0,0,0-1.47.49,8.29,8.29,0,0,0-1.13,1.47,3.88,3.88,0,0,0-.93,1.67,16.39,16.39,0,0,0,.39,2.31c0.06,0.73-.15,1.42-0.1,2,0,0.37.3,0.73,0.39,1.23,0.2,1,0,2.3.1,3.43,0,0.35.16,0.68,0.2,1a17.46,17.46,0,0,1-.25,4c-0.21,1.39-.06,2.91-1,3.24a1.66,1.66,0,0,1-1.32-.1,4.23,4.23,0,0,1-.69-2.21c-0.08-1,.15-2,0.1-2.8-0.06-1.1-.07-2.45-0.1-3.63s0.2-2.65.1-4-0.39-2.64-.39-3.78c0-1.29.85-1.92,1.08-2.9,0.16-.69-0.08-1.34.1-2,0.48-1.72,2.86-2.2,4.61-2.85a15.33,15.33,0,0,1,1.82-.74c1.33-.32,2.63-0.74,4-1.13,0.63-.18,1.2-0.55,1.82-0.74,0.44-.13.89-0.11,1.28-0.25s0.64-.36,1-0.49a34.88,34.88,0,0,1,4.51-1A17.65,17.65,0,0,1,358.8,375.66Z"/><path class="cls-4" d="M308.7,380.77a10.06,10.06,0,0,1,1.23.2,21,21,0,0,1,3.29.54c0.24,0.09.61,0.4,0.93,0.54,0.49,0.22,1.06.34,1.62,0.54a14.85,14.85,0,0,1,1.42.74c0.89,0.44,1.91.61,1.86,1.57a2.68,2.68,0,0,1-.79,1.18,1.78,1.78,0,0,1-1.18.79,7.68,7.68,0,0,1-1.77-.79c-0.34-.13-0.74-0.14-1-0.25a25,25,0,0,0-2.55-1,15.2,15.2,0,0,0-4.76-.78c-1.15,0-2.42.41-3.68,0.59-0.63.09-1.29,0.12-1.86,0.25s-1.09.4-1.62,0.49c-0.94.16-3.38,0.21-3-1,0.14-.5,1-0.46,1.72-0.69a15.72,15.72,0,0,0,1.72-.69,8,8,0,0,1,2.5-1c0.49-.06,1,0.07,1.37,0a7.79,7.79,0,0,0,1.18-.49A10.49,10.49,0,0,1,308.7,380.77Z"/><path class="cls-4" d="M364.24,386.46a2.76,2.76,0,0,1-1.23-.79,8.78,8.78,0,0,0-1.62-.69,16,16,0,0,0-4.56-.74c-3-.1-5.39,1-7.65,1.62a29,29,0,0,0-3.73,1.13,3.64,3.64,0,0,1-1.52.64,1.4,1.4,0,0,1-1-1.62c0.24-1.19,1.79-1.63,2.94-2.21a9.3,9.3,0,0,1,2.26-.88,18.65,18.65,0,0,1,3.24-.64c0.48,0,1,.08,1.42,0s1-.21,1.32-0.25a15.06,15.06,0,0,1,2.36,0,9.51,9.51,0,0,1,2.36.44c0.28,0.1.52,0.34,0.78,0.44,0.63,0.23,1.31.26,2,.49,0.3,0.11.67,0.34,1.08,0.49a5.26,5.26,0,0,1,1.13.44A1.71,1.71,0,0,1,364.24,386.46Z"/><path class="cls-4" d="M306.59,386a8.28,8.28,0,0,1,1.86,0,28.61,28.61,0,0,1,3.19.74c2,0.65,3.79,2.46,5.64,3.29,0.8,0.36,2,.55,2,1.62s-1.33,1.18-1.62,2.06a10.82,10.82,0,0,1-.25,1.28,5,5,0,0,1-2.94,1.62,14.63,14.63,0,0,0-1.57.2c-0.51.15-.75,0.51-1.23,0.64a7,7,0,0,1-1.18,0c-0.62.05-1.16,0.36-1.67,0.34-0.33,0-.7-0.2-1.08-0.25-0.75-.08-1.49.25-2,0.2s-1.05-.71-1.67-0.83c-0.37-.08-0.72,0-1-0.1s-0.59-.32-0.93-0.44-0.66-.08-0.93-0.2-0.62-.49-1-0.69-0.79-.26-1.08-0.44a10.62,10.62,0,0,0-.93-0.79c-0.23-.09-0.55,0-0.83-0.15s-0.51-.45-0.79-0.54c-0.58-.2-1.28-0.15-1.86-0.39a1.71,1.71,0,0,1-1.08-.93,1,1,0,0,1,1-1,7,7,0,0,1,2.65.59c0.45,0.14,2,.85,2.55.39a1.22,1.22,0,0,0-.15-1.47c-0.81-.65-3.59,0-4.56,0-0.53,0-1.66-.35-1.72-0.88s0.66-.83,1.18-1a9.77,9.77,0,0,1,1.82-.34c1.68-.28,3-1.28,4.66-1.67A50.35,50.35,0,0,1,306.59,386Zm-3.43,7a5.3,5.3,0,0,0,.83.64,8.27,8.27,0,0,0,.88.64c1.85,0.91,3.06-.16,4.17-1.08a3,3,0,0,0,.93-0.93c0.48-1.24-.37-3-1.82-2.65-0.94.21-.35,1.45-0.74,2.16-0.59,1.08-3,.15-3.34-0.74-0.23-.69-0.15-1.55-1.08-1.42a0.08,0.08,0,0,0,0,0C301.58,389.93,302.89,392.63,303.15,392.93Z"/><path class="cls-4" d="M365.08,389a1.32,1.32,0,0,1-.44,1.08,1.65,1.65,0,0,0-.78.74c0,0.7,1.38.68,1.42,1.52a2.58,2.58,0,0,1-.69,1.08,6.68,6.68,0,0,1-.69,1.32c-0.62.59-2.08,0.7-3.19,1-0.39.1-.71,0.3-1,0.34-0.64.08-1.18-.13-1.72,0s-1.18.5-1.86,0.59a9.68,9.68,0,0,1-1.91-.25c-0.42,0-.88.19-1.42,0.2a9.18,9.18,0,0,1-3.14-.78,7.75,7.75,0,0,0-.79-0.34c-0.31-.07-0.67,0-1.13,0s-0.73-.31-1.23-0.44c-1.48-.38-3.34-0.07-4.07-0.54a4.52,4.52,0,0,1-.74-1.42c-0.52-1.16-1.1-3.23.74-3.34,0.41,0,.86.17,1.28,0.15a10.56,10.56,0,0,0,2.55-1,25.37,25.37,0,0,1,2.55-1,14.6,14.6,0,0,0,1.47-.34,20.94,20.94,0,0,1,4.27-1,15.78,15.78,0,0,1,4.56,0,10.93,10.93,0,0,1,2.7,1,14.34,14.34,0,0,0,2.26,1.37A2.22,2.22,0,0,1,365.08,389Zm-13.3.64a1,1,0,0,0-.64.64,4.41,4.41,0,0,0,.25,1.82,3.55,3.55,0,0,0,1.57,1.23,5.16,5.16,0,0,0,4.32-.25,4.8,4.8,0,0,0,1.42-1.77c0.21-.93-0.54-2.56-1.47-2.16-1.17.5-.5,2.6-2.21,2.6a2.28,2.28,0,0,1-1.13-.44C353.24,390.69,353,389.34,351.78,389.6Z"/><path class="cls-4" d="M282.25,408.78c0.09-.15.23,0.06,0.2,0.2A0.64,0.64,0,0,1,282.25,408.78Z"/><path class="cls-4" d="M341.23,409.08a2.05,2.05,0,0,1,1.42.39,9,9,0,0,1,2.75,2.4c0.91,1.66.35,4.46-1,5.25-0.23.13-.65,0.16-0.93,0.29-0.68.33-.89,1.06-1.72,1.18a5.88,5.88,0,0,1-2.65-.69,5.57,5.57,0,0,0-1-.59,3.28,3.28,0,0,0-1.72.2,5.08,5.08,0,0,0-1.42,1,4.85,4.85,0,0,0-1.18,1.18,3.76,3.76,0,0,1-.69,1.42,2.35,2.35,0,0,1-1.57.2,2.8,2.8,0,0,1-.93-1.37,2.8,2.8,0,0,0-1.28-1.18,9.46,9.46,0,0,0-1.08-.1c-1.16-.13-2.14-0.86-3.53-0.83-0.56,0-1.06.19-1.62,0.2a6.61,6.61,0,0,1-3.58-.88,3.47,3.47,0,0,1-1.23-2.8,7,7,0,0,1,.69-2.11,5.9,5.9,0,0,1,1.91-2.16,1.79,1.79,0,0,1,.88-0.44c1,0.11.33,1.58,0.49,2.31a1.37,1.37,0,0,0,1,1c0.69,0.09,1.46-.54,1.91-0.59a3.66,3.66,0,0,1,2.9,1.18,19.39,19.39,0,0,0,2.26,2.4,2.45,2.45,0,0,0,3.19,0c1.15-.94,2.06-3.06,4-3.19a4.75,4.75,0,0,1,2.75.79c0.52,0.34.82,1.14,1.47,1.13,1,0,.69-1.32.39-2-0.44-1-1.53-1.84-1.52-2.8A0.85,0.85,0,0,1,341.23,409.08Z"/><path class="cls-4" d="M403.5,425.66a18,18,0,0,1-2.31,2.85,82.54,82.54,0,0,1-6.43,6.38,5.53,5.53,0,0,1-1.42,1.13,3.4,3.4,0,0,1-1.08-1c-0.27-.27-0.72-0.76-1-1s-0.77-.47-0.93-0.64a5.94,5.94,0,0,1-.44-0.74c-0.26-.34-0.84-0.65-1-0.88-0.55-.69-0.71-1.69-1.32-2.4a7.06,7.06,0,0,0-.49-0.64c-0.27-.23-0.72-0.29-1.08-0.54s-0.57-.69-0.88-0.93a16.23,16.23,0,0,0-2.36-1.18,5.46,5.46,0,0,1-2-2.35c-0.23-1.43.88-2.16,2.31-1.82a7.26,7.26,0,0,1,.88.49c0.72,0.29,1.65.43,2.55,0.74s1.64,0.58,2.45.79a27.28,27.28,0,0,0,2.85.44,11.87,11.87,0,0,1,2.8.44,5.26,5.26,0,0,0,1,.59,11.43,11.43,0,0,0,1.86-.15c1.08,0,1.71.77,2.8,0.69S402.27,425.28,403.5,425.66Z"/><path class="cls-4" d="M344.27,425.17c0.16-.29-0.31-0.5-0.1-0.88s1.39-.22,1.77,0c0.77,0.35,2.79,3,1.62,4.07a4.77,4.77,0,0,1-2.4.44c-0.92.05-1.85,0.23-2.5,0.29a7.09,7.09,0,0,1-1.23,0c-1.4-.15-2-1.21-3.09-1.57a5.31,5.31,0,0,0-3.63.1c-0.81.32-2.14,1.18-3.39,0.93a6,6,0,0,1-1.28-1,4.78,4.78,0,0,0-3.14-.34,7.1,7.1,0,0,1-1.82.44,7.42,7.42,0,0,1-1.86-.74,29.36,29.36,0,0,0-3.63-.44,7.11,7.11,0,0,0-2.06-.34c-0.81.07-1.66,0.74-2.16,0.59-0.9-.27-0.06-1.79.15-2.16a4.92,4.92,0,0,1,1.28-1.82,3,3,0,0,1,2.06.44c0.69,0.27,1.39.61,1.91,0.83a6.36,6.36,0,0,0,3.78.1c0.65-.27,1.26-0.69,1.91-1a8.18,8.18,0,0,1,2.11-.93c0.92-.11,1.45.45,2.26,0.83,0.29,0.13.62,0.17,0.88,0.29,0.85,0.39,1.24,1,2.45.69,1-.28,1.5-0.94,2.85-0.88a9.41,9.41,0,0,1,2.16.34C340.81,423.89,341.83,425.49,344.27,425.17Z"/><path class="cls-4" d="M337.35,430.08a6.91,6.91,0,0,1,2.7.34,1.55,1.55,0,0,1,.1,1.57c-0.31.61-1.69,0.63-1.67,1.82,0,0.85.9,1.35,1.23,2a3.26,3.26,0,0,1,.49,1.62,1.55,1.55,0,0,1-1.23,1.37c-0.76.05-1-.6-1.52-0.83-0.28-.12-0.63-0.09-1-0.25-0.74-.33-1.25-1-2.11-1.37-0.42-.17-1-0.24-1.52-0.39a10.66,10.66,0,0,0-1.42-.44,12.11,12.11,0,0,0-1.37,0,8.36,8.36,0,0,0-1.47,0,2.69,2.69,0,0,0-.83.44c-0.43.19-.93,0.35-1.47,0.59-1,.44-1.89.09-1.28-0.93,0.33-.54,1.09-1.27,1-2.16a3.33,3.33,0,0,0-.54-1.23,1.65,1.65,0,0,1-.39-1.37,1.33,1.33,0,0,1,1.28-.78,10.55,10.55,0,0,1,2.9.64c0.49,0.11,1.05.1,1.57,0.2a6.45,6.45,0,0,0,2.21.34C334.54,431.11,335.91,430.27,337.35,430.08Z"/><path class="cls-4" d="M307.86,373.9a16.87,16.87,0,0,1,4.71.49c0.74,0.16,1.48.27,2.16,0.39a14.69,14.69,0,0,1,2,.64,11.08,11.08,0,0,1,2.5.88c0.66,0.42,1.25.89,2,1.42,1.26,0.93,3.07,1.58,4.12,2.6a7.86,7.86,0,0,1,1.32,1.91,9.62,9.62,0,0,0,.64,1.67c0.32,0.39,1.07.37,1.42,0.69,0.68,0.61.51,2,.64,3.29,0.05,0.5.31,1,.39,1.47a13.07,13.07,0,0,1,.1,2.4c0,0.67.08,1.36,0.1,2,0,0.49-.1,1-0.1,1.47s0.15,0.81.15,1.18a9.59,9.59,0,0,1-.64,2.7c-0.15.42-.43,0.74-0.54,1.08s-0.13.79-.25,1.08c-0.19.48-.62,1-0.88,1.52a12.66,12.66,0,0,1-.79,1.57c-0.35.52-.76,0.72-1.23,1.28s-1.33,1.45-2.11.69c-0.43-.42-0.31-1.49-0.29-2.26s0.13-1.77.15-2.45c0-.91-0.12-1.87.79-2.16,0.67-.21,1.36.18,2,0a2,2,0,0,0,1.08-1.82c0-.36-0.16-0.67-0.15-1a9.66,9.66,0,0,1,.29-1,11.42,11.42,0,0,0,0-4.37c-0.09-.41-0.14-0.83-0.2-1.23a13.17,13.17,0,0,0-.2-1.42,8.69,8.69,0,0,0-2-3.19,11.64,11.64,0,0,0-2.6-2.55c-0.31-.17-0.7-0.22-1-0.39-0.53-.27-1-0.76-1.57-1s-0.95-.34-1.42-0.54a13,13,0,0,0-1.28-.64c-0.51-.14-1.17-0.14-1.72-0.25s-1.15-.25-1.67-0.29a23.26,23.26,0,0,1-3.68-.29,7.4,7.4,0,0,0-.93-0.34c-0.56-.06-1.29.07-2,0s-1.3-.1-1.86-0.15a12.35,12.35,0,0,0-1.28-.2c-0.44,0-.84.21-1.28,0.25s-0.95-.07-1.42,0a45.07,45.07,0,0,0-6.28.64c-0.68.14-1.4,0-2,.2a11,11,0,0,0-1.18.83c-0.85.38-2.12,0.32-1.91-1.23a2.31,2.31,0,0,1,1-1.37,8.06,8.06,0,0,1,1.28-.54c0.49-.23.87-0.71,1.32-0.88s1-.15,1.42-0.29,0.88-.52,1.32-0.69c1-.38,2.27-0.36,3.48-0.69,0.57-.15,1.17-0.24,1.77-0.34s1.07-.32,1.62-0.44A42.79,42.79,0,0,1,307.86,373.9Z"/><polyline class="cls-3" points="534.44 391.9 549.67 400 534.44 408.1"/><rect class="cls-3" x="516.76" y="397.25" width="17.68" height="5.5"/><polyline class="cls-3" points="864.23 391.9 879.45 400 864.23 408.1"/><rect class="cls-3" x="846.55" y="397.25" width="17.68" height="5.5"/></svg>