<svg id="fondo" xmlns="http://www.w3.org/2000/svg" viewBox="0 0 1400 800"><defs><style>.cls-1{fill:#ff3d00;}.cls-2{fill:#fff;}.cls-3{fill:#f2f2f2;}.cls-4{fill:#424242;}</style></defs><title>gs</title><rect class="cls-1" width="1400" height="800"/><rect class="cls-2" x="477.49" y="176.9" width="445.02" height="445.56"/><rect class="cls-3" x="859.36" y="176.9" width="63.74" height="63.74"/><rect class="cls-3" x="476.9" y="176.9" width="63.74" height="63.74"/><rect class="cls-3" x="859.36" y="559.36" width="63.74" height="63.74"/><rect class="cls-3" x="476.9" y="559.36" width="63.74" height="63.74"/><path class="cls-4" d="M682.69,269.82L638.5,251.52l-18.31,44.21A130.65,130.65,0,0,1,682.69,269.82Z"/><path class="cls-4" d="M700,317.93A82.07,82.07,0,1,0,782.07,400,82.07,82.07,0,0,0,700,317.93ZM735,435H665V365h70v70Z"/><path class="cls-4" d="M779.82,295.73L761.5,251.52l-44.19,18.31A130.65,130.65,0,0,1,779.82,295.73Z"/><path class="cls-4" d="M804.27,320.18a130.65,130.65,0,0,1,25.91,62.51l18.31-44.19Z"/><path class="cls-4" d="M830.18,417.31a130.65,130.65,0,0,1-25.91,62.51l44.21-18.31Z"/><path class="cls-4" d="M717.31,530.18l44.19,18.31,18.31-44.21A130.65,130.65,0,0,1,717.31,530.18Z"/><path class="cls-4" d="M620.18,504.27l18.31,44.21,44.19-18.31A130.65,130.65,0,0,1,620.18,504.27Z"/><path class="cls-4" d="M569.82,417.31L551.52,461.5l44.21,18.31A130.65,130.65,0,0,1,569.82,417.31Z"/><path class="cls-4" d="M595.73,320.18L551.52,338.5l18.31,44.19A130.65,130.65,0,0,1,595.73,320.18Z"/></svg>