<svg id="fondo" xmlns="http://www.w3.org/2000/svg" viewBox="0 0 1400 800"><defs><style>.cls-1{fill:#f2f2f2;}.cls-2{fill:#6d6d6d;}</style></defs><title>GS-presentation</title><rect class="cls-1" width="1400" height="800"/><path class="cls-2" d="M420,369.6h20.24V396A57,57,0,0,1,431,398.3a60.37,60.37,0,0,1-8.88.65q-11.55,0-17.64-6.79t-6.09-19.49q0-12.35,7.07-19.26T425,346.5a37.91,37.91,0,0,1,15.14,3.14l-3.59,8.65A25.68,25.68,0,0,0,425,355.5a14.35,14.35,0,0,0-11.24,4.71q-4.22,4.71-4.22,12.67,0,8.3,3.4,12.68t9.89,4.38a35,35,0,0,0,6.87-.7V378.6H420v-9Z"/><path class="cls-2" d="M479.17,398.25l-1.43-5h-0.56a11.22,11.22,0,0,1-4.85,4.2,16.57,16.57,0,0,1-7.15,1.48q-6.87,0-10.36-3.68t-3.49-10.59V359.23H462V382q0,4.22,1.5,6.33a5.46,5.46,0,0,0,4.78,2.11q4.47,0,6.46-3t2-9.89V359.23h10.64v39h-8.17Z"/><path class="cls-2" d="M498.05,349.15q0-5.2,5.79-5.2t5.79,5.2a5.07,5.07,0,0,1-1.45,3.86,6.08,6.08,0,0,1-4.34,1.38Q498.05,354.38,498.05,349.15Zm11.1,49.1H498.51v-39h10.64v39Z"/><path class="cls-2" d="M531,398.25H520.31V344H531v54.29Z"/><path class="cls-2" d="M552.77,398.25H542.12V344h10.64v54.29Z"/><path class="cls-2" d="M581.59,398.94q-9.42,0-14.73-5.2T561.56,379q0-9.8,4.9-15.16T580,358.5q8.27,0,12.88,4.71t4.61,13v5.16H572.34a10.24,10.24,0,0,0,2.69,7.08,9.45,9.45,0,0,0,7,2.55,29.28,29.28,0,0,0,6.67-.73A33.39,33.39,0,0,0,595.3,388v8.23a25,25,0,0,1-6,2.08A37.63,37.63,0,0,1,581.59,398.94Zm-1.5-32.87a6.75,6.75,0,0,0-5.3,2.15,9.94,9.94,0,0,0-2.2,6.09h14.93a8.87,8.87,0,0,0-2.06-6.09A7,7,0,0,0,580.09,366.07Z"/><path class="cls-2" d="M627.93,358.5a17.16,17.16,0,0,1,3.59.31l-0.8,10a12.21,12.21,0,0,0-3.14-.35q-5.09,0-7.94,2.62a9.46,9.46,0,0,0-2.84,7.33v19.85H606.15v-39h8.06l1.57,6.56h0.52a14.67,14.67,0,0,1,4.9-5.29A12.09,12.09,0,0,1,627.93,358.5Z"/><path class="cls-2" d="M673.53,398.25H662.89V375.46q0-4.22-1.41-6.33A5,5,0,0,0,657,367a6.44,6.44,0,0,0-5.93,3q-1.85,3-1.85,9.88v18.35H638.6v-39h8.13l1.43,5h0.59a10.81,10.81,0,0,1,4.54-4.2,14.73,14.73,0,0,1,6.8-1.52q8.76,0,11.86,5.72h0.94a10.54,10.54,0,0,1,4.62-4.22,15.42,15.42,0,0,1,6.89-1.5q6.63,0,10,3.4t3.4,10.9v25.44H687.18V375.46q0-4.22-1.41-6.33a5,5,0,0,0-4.45-2.11,6.64,6.64,0,0,0-5.84,2.79q-1.94,2.79-1.94,8.86v19.58Z"/><path class="cls-2" d="M744.23,378.67q0,9.53-5,14.9t-14,5.37a19.57,19.57,0,0,1-9.91-2.46,16.37,16.37,0,0,1-6.59-7.07,23.73,23.73,0,0,1-2.3-10.75q0-9.56,5-14.86t14-5.3a19.69,19.69,0,0,1,9.91,2.44,16.31,16.31,0,0,1,6.6,7A23.53,23.53,0,0,1,744.23,378.67Zm-27,0q0,5.79,1.9,8.76t6.19,3q4.26,0,6.12-2.95t1.87-8.78q0-5.79-1.88-8.69t-6.18-2.9q-4.26,0-6.14,2.88T717.25,378.67Z"/><path class="cls-2" d="M802.54,384.08a13.19,13.19,0,0,1-5,10.89q-5,4-13.84,4a32.49,32.49,0,0,1-14.45-3.07v-10a59.44,59.44,0,0,0,8.74,3.25,25.85,25.85,0,0,0,6.54.94,9.3,9.3,0,0,0,5.46-1.36,4.65,4.65,0,0,0,1.9-4,4.47,4.47,0,0,0-.84-2.67,9.39,9.39,0,0,0-2.46-2.25,63.56,63.56,0,0,0-6.61-3.45,31.27,31.27,0,0,1-7-4.22,15.83,15.83,0,0,1-3.73-4.71,13.44,13.44,0,0,1-1.4-6.28q0-6.77,4.59-10.64t12.68-3.87a30,30,0,0,1,7.59.94,52.19,52.19,0,0,1,7.55,2.65l-3.49,8.41a51.13,51.13,0,0,0-6.75-2.34,21.76,21.76,0,0,0-5.25-.66,7,7,0,0,0-4.71,1.43,4.72,4.72,0,0,0-1.64,3.73,4.62,4.62,0,0,0,.66,2.5,7.29,7.29,0,0,0,2.11,2.06,65.21,65.21,0,0,0,6.86,3.58q7.15,3.42,9.8,6.86A13.39,13.39,0,0,1,802.54,384.08Z"/><path class="cls-2" d="M846.4,378.67q0,9.53-5,14.9t-14,5.37a19.57,19.57,0,0,1-9.91-2.46,16.37,16.37,0,0,1-6.59-7.07,23.73,23.73,0,0,1-2.3-10.75q0-9.56,5-14.86t14-5.3a19.69,19.69,0,0,1,9.91,2.44,16.31,16.31,0,0,1,6.6,7A23.53,23.53,0,0,1,846.4,378.67Zm-27,0q0,5.79,1.9,8.76t6.19,3q4.26,0,6.12-2.95t1.87-8.78q0-5.79-1.88-8.69t-6.18-2.9q-4.26,0-6.14,2.88T819.42,378.67Z"/><path class="cls-2" d="M865.83,398.25H855.19V344h10.64v54.29Z"/><path class="cls-2" d="M901.77,398.25l-2.06-5.3h-0.28a15.72,15.72,0,0,1-5.53,4.69,17.87,17.87,0,0,1-7.42,1.31q-5.62,0-8.85-3.21t-3.23-9.14q0-6.21,4.34-9.16t13.1-3.26l6.77-.21v-1.71q0-5.93-6.07-5.93a27.66,27.66,0,0,0-11,2.83L878,362A31.72,31.72,0,0,1,893,358.43q7.85,0,12,3.42t4.19,10.4v26h-7.43Zm-3.14-18.07-4.12.14q-4.64.14-6.91,1.68a5.26,5.26,0,0,0-2.27,4.68q0,4.5,5.16,4.5a8.18,8.18,0,0,0,5.91-2.13,7.47,7.47,0,0,0,2.22-5.65v-3.21Z"/><path class="cls-2" d="M956.17,398.25H945.53V375.46q0-4.22-1.5-6.33a5.46,5.46,0,0,0-4.78-2.11q-4.47,0-6.46,3t-2,9.89v18.35H920.16v-39h8.13l1.43,5h0.59a11.25,11.25,0,0,1,4.9-4.27,16.7,16.7,0,0,1,7.1-1.45q6.8,0,10.33,3.68t3.52,10.63v25.44Z"/><path class="cls-2" d="M1002.58,378.67q0,9.53-5,14.9t-14,5.37a19.57,19.57,0,0,1-9.91-2.46,16.37,16.37,0,0,1-6.59-7.07,23.73,23.73,0,0,1-2.3-10.75q0-9.56,5-14.86t14-5.3a19.69,19.69,0,0,1,9.91,2.44,16.31,16.31,0,0,1,6.6,7A23.53,23.53,0,0,1,1002.58,378.67Zm-27,0q0,5.79,1.9,8.76t6.19,3q4.26,0,6.12-2.95t1.87-8.78q0-5.79-1.88-8.69t-6.18-2.9q-4.26,0-6.14,2.88T975.61,378.67Z"/><path class="cls-2" d="M420.83,439.49q0,6.55-3.55,10T407.06,453h-7.32V426.52h8.1q6.17,0,9.58,3.42T420.83,439.49Zm-3.25.11q0-5.17-2.59-7.79t-7.71-2.62h-4.47V450.3h3.74q5.5,0,8.26-2.7T417.58,439.6Z"/><path class="cls-2" d="M427.47,453V426.52h3.07V453h-3.07Z"/><path class="cls-2" d="M453.45,445.92a6.48,6.48,0,0,1-2.53,5.44,11,11,0,0,1-6.87,2,17.21,17.21,0,0,1-7.23-1.21v-3a18.92,18.92,0,0,0,3.54,1.08,18.61,18.61,0,0,0,3.8.4,7.66,7.66,0,0,0,4.63-1.17,3.83,3.83,0,0,0,1.55-3.25,4.16,4.16,0,0,0-.55-2.25,5.12,5.12,0,0,0-1.84-1.62,25.85,25.85,0,0,0-3.93-1.68,12.55,12.55,0,0,1-5.27-3.13,6.91,6.91,0,0,1-1.58-4.72,5.87,5.87,0,0,1,2.3-4.86,9.54,9.54,0,0,1,6.08-1.81,17.91,17.91,0,0,1,7.25,1.45l-1,2.68a16.38,16.38,0,0,0-6.36-1.37,6.16,6.16,0,0,0-3.82,1,3.46,3.46,0,0,0-1.37,2.91,4.47,4.47,0,0,0,.51,2.25,4.77,4.77,0,0,0,1.71,1.61,21.25,21.25,0,0,0,3.68,1.62,14.57,14.57,0,0,1,5.72,3.18A6.26,6.26,0,0,1,453.45,445.92Z"/><path class="cls-2" d="M474.33,453H459.6V426.52h14.74v2.73H462.67v8.52h11v2.71h-11v9.73h11.66V453Z"/><path class="cls-2" d="M501.58,453h-3.51l-14.45-22.19h-0.14q0.29,3.91.29,7.16v15h-2.84V426.52h3.47l14.41,22.09H499q0-.49-0.16-3.14t-0.09-3.79V426.52h2.88V453Zm-7.38-28.59a3.66,3.66,0,0,1-1.52-.33q-0.74-.33-1.46-0.74t-1.37-.74a2.81,2.81,0,0,0-1.27-.33,1.69,1.69,0,0,0-1.37.54,3.89,3.89,0,0,0-.71,1.65h-1.77A6.25,6.25,0,0,1,486,421a3.34,3.34,0,0,1,2.69-1.24,4,4,0,0,1,1.61.33,14.29,14.29,0,0,1,1.48.74q0.7,0.41,1.36.74a2.7,2.7,0,0,0,1.23.33,1.6,1.6,0,0,0,1.32-.53,4.23,4.23,0,0,0,.71-1.66h1.79a6.33,6.33,0,0,1-1.26,3.43A3.35,3.35,0,0,1,494.21,424.37Z"/><path class="cls-2" d="M532.54,439.7q0,6.35-3.21,10t-8.92,3.63q-5.84,0-9-3.57t-3.17-10.08q0-6.45,3.18-10t9-3.55q5.7,0,8.9,3.62T532.54,439.7Zm-21.06,0q0,5.37,2.29,8.15a8.12,8.12,0,0,0,6.65,2.78q4.39,0,6.64-2.77t2.24-8.16q0-5.33-2.23-8.09t-6.61-2.76a8.16,8.16,0,0,0-6.68,2.78Q511.47,434.41,511.47,439.7Z"/><path class="cls-2" d="M559.12,426.52L549.26,453h-3l9.85-26.43h3Z"/><path class="cls-2" d="M585.55,428.89a8.64,8.64,0,0,0-6.88,2.9q-2.52,2.9-2.52,7.95t2.43,8a8.65,8.65,0,0,0,6.93,2.83,23.67,23.67,0,0,0,6.31-1v2.69a19.42,19.42,0,0,1-6.78,1q-5.84,0-9-3.54t-3.17-10.07a15.9,15.9,0,0,1,1.53-7.16,11,11,0,0,1,4.41-4.74,13.36,13.36,0,0,1,6.79-1.66,16.38,16.38,0,0,1,7.27,1.52l-1.3,2.64A14,14,0,0,0,585.55,428.89Z"/><path class="cls-2" d="M621.28,439.7q0,6.35-3.21,10t-8.92,3.63q-5.84,0-9-3.57T597,439.67q0-6.45,3.18-10t9-3.55q5.7,0,8.9,3.62T621.28,439.7Zm-21.06,0q0,5.37,2.29,8.15a8.12,8.12,0,0,0,6.65,2.78q4.39,0,6.64-2.77T618,439.7q0-5.33-2.23-8.09t-6.61-2.76a8.16,8.16,0,0,0-6.68,2.78Q600.21,434.41,600.21,439.7Z"/><path class="cls-2" d="M639.61,453l-9-23.43H630.5q0.25,2.78.25,6.62V453h-2.84V426.52h4.63l8.37,21.81h0.14l8.44-21.81h4.59V453H651v-17q0-2.93.25-6.37h-0.14l-9,23.4h-2.48Z"/><path class="cls-2" d="M682,426.52v17.1a9.32,9.32,0,0,1-2.73,7.11,10.47,10.47,0,0,1-7.5,2.58q-4.77,0-7.39-2.6a9.65,9.65,0,0,1-2.61-7.16v-17h3.07v17.25a6.8,6.8,0,0,0,1.81,5.08,7.29,7.29,0,0,0,5.32,1.77,7,7,0,0,0,5.15-1.78,6.85,6.85,0,0,0,1.81-5.11V426.52H682Z"/><path class="cls-2" d="M710.43,453h-3.51l-14.45-22.19h-0.14q0.29,3.91.29,7.16v15h-2.84V426.52h3.47l14.41,22.09h0.14q0-.49-0.16-3.14t-0.09-3.79V426.52h2.88V453Z"/><path class="cls-2" d="M718.44,453V426.52h3.07V453h-3.07Z"/><path class="cls-2" d="M740.83,428.89a8.64,8.64,0,0,0-6.88,2.9q-2.52,2.9-2.52,7.95t2.43,8a8.65,8.65,0,0,0,6.93,2.83,23.67,23.67,0,0,0,6.31-1v2.69a19.42,19.42,0,0,1-6.78,1q-5.84,0-9-3.54t-3.17-10.07a15.9,15.9,0,0,1,1.53-7.16,11,11,0,0,1,4.41-4.74,13.36,13.36,0,0,1,6.79-1.66,16.38,16.38,0,0,1,7.27,1.52l-1.3,2.64A14,14,0,0,0,740.83,428.89Z"/><path class="cls-2" d="M770.23,453l-3.29-8.41h-10.6L753.09,453H750l10.45-26.54H763L773.41,453h-3.18ZM766,441.78l-3.07-8.19q-0.6-1.55-1.23-3.82a34.12,34.12,0,0,1-1.14,3.82l-3.11,8.19H766Z"/><path class="cls-2" d="M789.1,428.89a8.64,8.64,0,0,0-6.88,2.9q-2.52,2.9-2.52,7.95t2.43,8a8.65,8.65,0,0,0,6.93,2.83,23.67,23.67,0,0,0,6.31-1v2.69a19.42,19.42,0,0,1-6.78,1q-5.84,0-9-3.54t-3.17-10.07a15.9,15.9,0,0,1,1.53-7.16,11,11,0,0,1,4.41-4.74,13.36,13.36,0,0,1,6.79-1.66,16.38,16.38,0,0,1,7.27,1.52l-1.3,2.64A14,14,0,0,0,789.1,428.89Z"/><path class="cls-2" d="M801.89,453V426.52H805V453h-3.07Z"/><path class="cls-2" d="M835.9,439.7q0,6.35-3.21,10t-8.92,3.63q-5.84,0-9-3.57t-3.17-10.08q0-6.45,3.18-10t9-3.55q5.7,0,8.9,3.62T835.9,439.7Zm-21.06,0q0,5.37,2.29,8.15a8.12,8.12,0,0,0,6.65,2.78q4.39,0,6.64-2.77t2.24-8.16q0-5.33-2.23-8.09t-6.61-2.76a8.16,8.16,0,0,0-6.68,2.78Q814.83,434.41,814.83,439.7Zm6.4-15.75q0.87-1.12,1.87-2.71a30.93,30.93,0,0,0,1.58-2.77h3.65v0.38a33.39,33.39,0,0,1-5.1,5.55h-2V424Z"/><path class="cls-2" d="M863.18,453h-3.51l-14.45-22.19h-0.14q0.29,3.91.29,7.16v15h-2.84V426.52H846l14.41,22.09h0.14q0-.49-0.16-3.14t-0.09-3.79V426.52h2.88V453Z"/><path class="cls-2" d="M896.65,426.52H900L890.43,453h-3l-9.47-26.43h3.25l6.08,17.1a47.88,47.88,0,0,1,1.66,5.73,48,48,0,0,1,1.7-5.84Z"/><path class="cls-2" d="M904.33,453V426.52h3.07V453h-3.07Z"/><path class="cls-2" d="M930.31,445.92a6.48,6.48,0,0,1-2.53,5.44,11,11,0,0,1-6.87,2,17.21,17.21,0,0,1-7.23-1.21v-3a18.92,18.92,0,0,0,3.54,1.08,18.61,18.61,0,0,0,3.8.4,7.66,7.66,0,0,0,4.63-1.17,3.83,3.83,0,0,0,1.55-3.25,4.16,4.16,0,0,0-.55-2.25,5.12,5.12,0,0,0-1.84-1.62,25.85,25.85,0,0,0-3.93-1.68,12.55,12.55,0,0,1-5.27-3.13,6.91,6.91,0,0,1-1.58-4.72,5.87,5.87,0,0,1,2.3-4.86,9.54,9.54,0,0,1,6.08-1.81,17.91,17.91,0,0,1,7.25,1.45l-1,2.68a16.38,16.38,0,0,0-6.36-1.37,6.16,6.16,0,0,0-3.82,1,3.46,3.46,0,0,0-1.37,2.91,4.47,4.47,0,0,0,.51,2.25,4.77,4.77,0,0,0,1.71,1.61,21.25,21.25,0,0,0,3.68,1.62,14.57,14.57,0,0,1,5.72,3.18A6.26,6.26,0,0,1,930.31,445.92Z"/><path class="cls-2" d="M956.42,426.52v17.1a9.32,9.32,0,0,1-2.73,7.11,10.47,10.47,0,0,1-7.5,2.58q-4.77,0-7.39-2.6a9.65,9.65,0,0,1-2.61-7.16v-17h3.07v17.25a6.8,6.8,0,0,0,1.81,5.08,7.29,7.29,0,0,0,5.32,1.77,7,7,0,0,0,5.15-1.78,6.85,6.85,0,0,0,1.81-5.11V426.52h3.07Z"/><path class="cls-2" d="M980.78,453l-3.29-8.41h-10.6L963.64,453h-3.11L971,426.42h2.59L984,453h-3.18Zm-4.25-11.17-3.07-8.19q-0.6-1.55-1.23-3.82a34.12,34.12,0,0,1-1.14,3.82L968,441.78h8.55Z"/><path class="cls-2" d="M988.33,453V426.52h3.07v23.65h11.66V453H988.33Z"/></svg>