<svg id="fondo" xmlns="http://www.w3.org/2000/svg" viewBox="0 0 1400 800"><defs><style>.cls-1{fill:#1b1b1b;}.cls-2{fill:#f2f2f2;}.cls-3{fill:#fff;}</style></defs><title>gs</title><rect class="cls-1" width="699.64" height="800"/><rect class="cls-2" x="700" width="699.64" height="800"/><path class="cls-3" d="M354.69,269.82L310.5,251.52l-18.31,44.21A130.65,130.65,0,0,1,354.69,269.82Z"/><path class="cls-3" d="M372,317.93A82.07,82.07,0,1,0,454.07,400,82.07,82.07,0,0,0,372,317.93ZM407,435H337V365h70v70Z"/><path class="cls-3" d="M451.82,295.73L433.5,251.52l-44.19,18.31A130.65,130.65,0,0,1,451.82,295.73Z"/><path class="cls-3" d="M476.27,320.18a130.65,130.65,0,0,1,25.91,62.51l18.31-44.19Z"/><path class="cls-3" d="M502.18,417.31a130.65,130.65,0,0,1-25.91,62.51l44.21-18.31Z"/><path class="cls-3" d="M389.31,530.18l44.19,18.31,18.31-44.21A130.65,130.65,0,0,1,389.31,530.18Z"/><path class="cls-3" d="M292.18,504.27l18.31,44.21,44.19-18.31A130.65,130.65,0,0,1,292.18,504.27Z"/><path class="cls-3" d="M241.82,417.31L223.52,461.5l44.21,18.31A130.65,130.65,0,0,1,241.82,417.31Z"/><path class="cls-3" d="M267.73,320.18L223.52,338.5l18.31,44.19A130.65,130.65,0,0,1,267.73,320.18Z"/><path class="cls-1" d="M1053.69,269.82l-44.19-18.31-18.31,44.21A130.65,130.65,0,0,1,1053.69,269.82Z"/><path class="cls-1" d="M1071,317.93A82.07,82.07,0,1,0,1153.07,400,82.07,82.07,0,0,0,1071,317.93ZM1106,435h-70V365h70v70Z"/><path class="cls-1" d="M1150.82,295.73l-18.31-44.21-44.19,18.31A130.65,130.65,0,0,1,1150.82,295.73Z"/><path class="cls-1" d="M1175.27,320.18a130.65,130.65,0,0,1,25.91,62.51l18.31-44.19Z"/><path class="cls-1" d="M1201.18,417.31a130.65,130.65,0,0,1-25.91,62.51l44.21-18.31Z"/><path class="cls-1" d="M1088.31,530.18l44.19,18.31,18.31-44.21A130.65,130.65,0,0,1,1088.31,530.18Z"/><path class="cls-1" d="M991.18,504.27l18.31,44.21,44.19-18.31A130.65,130.65,0,0,1,991.18,504.27Z"/><path class="cls-1" d="M940.82,417.31L922.52,461.5l44.21,18.31A130.65,130.65,0,0,1,940.82,417.31Z"/><path class="cls-1" d="M966.73,320.18L922.52,338.5l18.31,44.19A130.65,130.65,0,0,1,966.73,320.18Z"/></svg>