<?xml version="1.0" encoding="utf-8"?>
<!-- Generator: Adobe Illustrator 19.2.0, SVG Export Plug-In . SVG Version: 6.00 Build 0)  -->
<svg version="1.1" id="Layer_1" xmlns="http://www.w3.org/2000/svg" xmlns:xlink="http://www.w3.org/1999/xlink" x="0px" y="0px"
	 viewBox="0 0 400 349.3" style="enable-background:new 0 0 400 349.3;" xml:space="preserve">
<style type="text/css">
	.st0{fill:#333333;}
	.st1{fill:none;stroke:#E6E7E8;stroke-width:2;stroke-miterlimit:10;}
	.st2{fill:none;stroke:#F37466;stroke-width:3;stroke-miterlimit:10;}
	.st3{fill:#939392;}
</style>
<g>
	<g>
		<g>
			<path class="st0" d="M332.4,244.1v-7.3h4.9v1.4H334v1.5h2.9v1.4H334v3L332.4,244.1L332.4,244.1z"/>
			<path class="st0" d="M345.4,240.4c0,0.6-0.1,1.2-0.3,1.7c-0.2,0.5-0.4,0.9-0.8,1.2c-0.3,0.3-0.7,0.6-1.2,0.7
				c-0.4,0.2-0.9,0.2-1.4,0.2s-1-0.1-1.4-0.2c-0.4-0.2-0.8-0.4-1.2-0.7c-0.3-0.3-0.6-0.7-0.8-1.2c-0.2-0.5-0.3-1-0.3-1.7
				c0-0.6,0.1-1.2,0.3-1.7c0.2-0.5,0.5-0.9,0.8-1.2s0.7-0.6,1.2-0.7c0.4-0.2,0.9-0.2,1.4-0.2s1,0.1,1.4,0.2c0.4,0.2,0.8,0.4,1.2,0.7
				c0.3,0.3,0.6,0.7,0.8,1.2S345.4,239.8,345.4,240.4z M339.8,240.4c0,0.4,0,0.7,0.1,1s0.2,0.5,0.4,0.7c0.2,0.2,0.4,0.4,0.6,0.5
				s0.5,0.2,0.8,0.2s0.6-0.1,0.8-0.2c0.2-0.1,0.4-0.3,0.6-0.5s0.3-0.5,0.4-0.7c0.1-0.3,0.1-0.6,0.1-1s0-0.7-0.1-1s-0.2-0.5-0.4-0.8
				c-0.2-0.2-0.4-0.4-0.6-0.5s-0.5-0.2-0.8-0.2s-0.6,0.1-0.8,0.2c-0.2,0.1-0.4,0.3-0.6,0.5s-0.3,0.5-0.4,0.8
				S339.8,240.1,339.8,240.4z"/>
			<path class="st0" d="M352,236.7v1.4h-2.2v5.9h-1.7v-5.9h-2.2v-1.4H352z"/>
			<path class="st0" d="M359.8,240.4c0,0.6-0.1,1.2-0.3,1.7c-0.2,0.5-0.4,0.9-0.8,1.2c-0.3,0.3-0.7,0.6-1.2,0.7
				c-0.4,0.2-0.9,0.2-1.4,0.2s-1-0.1-1.4-0.2c-0.4-0.2-0.8-0.4-1.2-0.7c-0.3-0.3-0.6-0.7-0.8-1.2c-0.2-0.5-0.3-1-0.3-1.7
				c0-0.6,0.1-1.2,0.3-1.7c0.2-0.5,0.5-0.9,0.8-1.2s0.7-0.6,1.2-0.7c0.4-0.2,0.9-0.2,1.4-0.2s1,0.1,1.4,0.2c0.4,0.2,0.8,0.4,1.2,0.7
				c0.3,0.3,0.6,0.7,0.8,1.2C359.7,239.2,359.8,239.8,359.8,240.4z M354.2,240.4c0,0.4,0,0.7,0.1,1s0.2,0.5,0.4,0.7
				c0.2,0.2,0.4,0.4,0.6,0.5s0.5,0.2,0.8,0.2s0.6-0.1,0.8-0.2c0.2-0.1,0.4-0.3,0.6-0.5s0.3-0.5,0.4-0.7c0.1-0.3,0.1-0.6,0.1-1
				s0-0.7-0.1-1s-0.2-0.5-0.4-0.8c-0.2-0.2-0.4-0.4-0.6-0.5s-0.5-0.2-0.8-0.2s-0.6,0.1-0.8,0.2c-0.2,0.1-0.4,0.3-0.6,0.5
				s-0.3,0.5-0.4,0.8S354.2,240.1,354.2,240.4z"/>
			<path class="st0" d="M364.8,238c-0.8,0-1.3,0.2-1.7,0.6c-0.3,0.4-0.5,1-0.5,1.8c0,0.4,0,0.7,0.1,1s0.2,0.5,0.4,0.8
				s0.4,0.4,0.6,0.5c0.3,0.1,0.6,0.2,0.9,0.2c0.2,0,0.3,0,0.5,0s0.2,0,0.3,0v-2.6h1.7v3.6c-0.2,0.1-0.5,0.2-1,0.2
				c-0.4,0.1-1,0.1-1.6,0.1s-1.1-0.1-1.5-0.3s-0.8-0.4-1.2-0.7c-0.3-0.3-0.6-0.7-0.7-1.2c-0.2-0.5-0.3-1-0.3-1.6s0.1-1.2,0.3-1.6
				c0.2-0.5,0.5-0.9,0.8-1.2s0.7-0.6,1.2-0.7c0.4-0.2,0.9-0.3,1.4-0.3c0.3,0,0.7,0,0.9,0.1s0.5,0.1,0.7,0.2c0.2,0.1,0.4,0.1,0.5,0.2
				s0.2,0.1,0.3,0.1l-0.5,1.3c-0.2-0.1-0.5-0.2-0.8-0.3C365.4,238.1,365.1,238,364.8,238z"/>
			<path class="st0" d="M370.8,236.7c1.1,0,1.9,0.2,2.5,0.6s0.9,1,0.9,1.8c0,0.5-0.1,0.9-0.4,1.3c-0.2,0.3-0.6,0.6-1,0.8
				c0.1,0.2,0.3,0.4,0.5,0.6c0.2,0.2,0.3,0.5,0.5,0.7c0.2,0.3,0.3,0.5,0.5,0.8c0.1,0.3,0.3,0.6,0.4,0.8h-1.8
				c-0.1-0.2-0.3-0.5-0.4-0.7s-0.3-0.5-0.4-0.7s-0.3-0.5-0.4-0.7s-0.3-0.4-0.4-0.6h-0.8v2.7h-1.7v-7.2c0.4-0.1,0.7-0.1,1.1-0.1
				C370.1,236.7,370.5,236.7,370.8,236.7z M370.9,238.1c-0.1,0-0.2,0-0.3,0c-0.1,0-0.2,0-0.3,0v2h0.5c0.6,0,1.1-0.1,1.3-0.2
				c0.3-0.2,0.4-0.4,0.4-0.8c0-0.4-0.1-0.6-0.4-0.8S371.4,238.1,370.9,238.1z"/>
			<path class="st0" d="M381,244.1c-0.1-0.3-0.2-0.5-0.3-0.8c-0.1-0.3-0.2-0.5-0.3-0.8h-2.9c-0.1,0.3-0.2,0.5-0.3,0.8
				c-0.1,0.3-0.2,0.5-0.3,0.8h-1.7c0.3-0.8,0.5-1.5,0.8-2.2c0.2-0.7,0.5-1.3,0.7-1.9c0.2-0.6,0.5-1.2,0.7-1.7s0.5-1.1,0.7-1.6h1.6
				c0.2,0.5,0.5,1,0.7,1.6c0.2,0.5,0.5,1.1,0.7,1.7c0.2,0.6,0.5,1.2,0.7,1.9s0.5,1.4,0.8,2.2H381z M379,238.4c0,0.1-0.1,0.3-0.2,0.4
				s-0.2,0.4-0.2,0.6c-0.1,0.2-0.2,0.5-0.3,0.8c-0.1,0.3-0.2,0.6-0.3,0.9h2.1c-0.1-0.3-0.2-0.6-0.3-0.9c-0.1-0.3-0.2-0.6-0.3-0.8
				c-0.1-0.2-0.2-0.5-0.2-0.6C379.1,238.7,379,238.5,379,238.4z"/>
			<path class="st0" d="M383.7,244.1v-7.3h4.9v1.4h-3.3v1.5h2.9v1.4h-2.9v3L383.7,244.1L383.7,244.1z"/>
			<path class="st0" d="M391.9,234.8l-1.7,1.5l-0.7-0.6l1.5-1.7L391.9,234.8z M389.8,236.7h1.7v7.3h-1.7V236.7z"/>
			<path class="st0" d="M398,244.1c-0.1-0.3-0.2-0.5-0.3-0.8c-0.1-0.3-0.2-0.5-0.3-0.8h-2.9c-0.1,0.3-0.2,0.5-0.3,0.8
				c-0.1,0.3-0.2,0.5-0.3,0.8h-1.7c0.3-0.8,0.5-1.5,0.8-2.2c0.2-0.7,0.5-1.3,0.7-1.9c0.2-0.6,0.5-1.2,0.7-1.7s0.5-1.1,0.7-1.6h1.6
				c0.2,0.5,0.5,1,0.7,1.6c0.2,0.5,0.5,1.1,0.7,1.7c0.2,0.6,0.5,1.2,0.7,1.9s0.5,1.4,0.8,2.2H398z M396.1,238.4
				c0,0.1-0.1,0.3-0.2,0.4s-0.2,0.4-0.2,0.6c-0.1,0.2-0.2,0.5-0.3,0.8c-0.1,0.3-0.2,0.6-0.3,0.9h2.1c-0.1-0.3-0.2-0.6-0.3-0.9
				c-0.1-0.3-0.2-0.6-0.3-0.8c-0.1-0.2-0.2-0.5-0.2-0.6C396.2,238.7,396.1,238.5,396.1,238.4z"/>
		</g>
	</g>
	<g>
		<g>
			<path class="st0" d="M335,100c0.1,0.3,0.2,0.6,0.3,1c0.1,0.4,0.2,0.7,0.3,1.1s0.2,0.8,0.4,1.2s0.2,0.7,0.3,1.1
				c0.1-0.4,0.2-0.8,0.3-1.2c0.1-0.4,0.2-0.9,0.3-1.3c0.1-0.5,0.2-0.9,0.2-1.4c0.1-0.4,0.2-0.9,0.2-1.3h1.7
				c-0.2,1.2-0.5,2.5-0.9,3.7c-0.3,1.3-0.7,2.5-1.1,3.6h-1.5c-0.2-0.7-0.5-1.4-0.7-2.1s-0.5-1.5-0.7-2.2c-0.2,0.7-0.5,1.5-0.7,2.2
				s-0.5,1.5-0.7,2.1h-1.5c-0.4-1.1-0.7-2.3-1-3.6c-0.3-1.3-0.6-2.5-0.9-3.7h1.8c0.1,0.4,0.1,0.9,0.2,1.3s0.2,0.9,0.3,1.4
				c0.1,0.5,0.2,0.9,0.3,1.3c0.1,0.4,0.2,0.8,0.3,1.2c0.1-0.3,0.3-0.7,0.4-1.1s0.2-0.8,0.4-1.2c0.1-0.4,0.2-0.8,0.3-1.1
				c0.1-0.4,0.2-0.7,0.3-1H335z"/>
			<path class="st0" d="M340.1,106.5v-7.3h5v1.4h-3.3v1.4h2.9v1.4h-2.9v1.8h3.6v1.4h-5.3V106.5z"/>
			<path class="st0" d="M349,106.6c-0.4,0-0.8,0-1.2,0c-0.4,0-0.8-0.1-1.2-0.2v-7.1c0.3-0.1,0.7-0.1,1.1-0.1s0.8,0,1.1,0
				c0.5,0,0.9,0,1.3,0.1s0.7,0.2,1,0.3c0.3,0.2,0.5,0.4,0.7,0.6c0.2,0.3,0.2,0.6,0.2,1c0,0.6-0.3,1-0.8,1.4c0.5,0.2,0.8,0.4,1,0.7
				c0.2,0.3,0.3,0.6,0.3,1c0,0.8-0.3,1.4-0.8,1.7C350.9,106.4,350.1,106.6,349,106.6z M348.1,102.1h0.8c0.5,0,0.9-0.1,1.1-0.2
				s0.3-0.3,0.3-0.6c0-0.3-0.1-0.5-0.3-0.6s-0.6-0.2-1-0.2c-0.1,0-0.3,0-0.5,0s-0.3,0-0.4,0V102.1z M348.1,103.3v1.9
				c0.1,0,0.3,0,0.4,0s0.3,0,0.5,0c0.5,0,0.9-0.1,1.2-0.2c0.3-0.1,0.5-0.4,0.5-0.8c0-0.3-0.1-0.6-0.4-0.7s-0.6-0.2-1.1-0.2
				C349.2,103.3,348.1,103.3,348.1,103.3z"/>
		</g>
	</g>
	<g>
		<g>
			<path class="st0" d="M168.7,329.8c0.2,0,0.4,0,0.6-0.1s0.3-0.1,0.4-0.2c0.1-0.1,0.2-0.1,0.2-0.2s0.1-0.2,0.1-0.3
				c0-0.2-0.1-0.4-0.3-0.6s-0.6-0.3-1.2-0.5c-0.2-0.1-0.5-0.2-0.7-0.3c-0.2-0.1-0.5-0.2-0.6-0.4c-0.2-0.2-0.3-0.4-0.5-0.6
				s-0.2-0.5-0.2-0.9c0-0.3,0.1-0.6,0.2-0.9c0.1-0.3,0.3-0.5,0.5-0.7s0.5-0.3,0.8-0.4s0.7-0.2,1.1-0.2c0.5,0,0.9,0.1,1.3,0.2
				c0.4,0.1,0.7,0.2,0.9,0.4l-0.5,1.3c-0.2-0.1-0.4-0.2-0.7-0.3c-0.3-0.1-0.6-0.1-0.9-0.1c-0.4,0-0.7,0.1-0.9,0.2s-0.3,0.3-0.3,0.5
				c0,0.1,0,0.2,0.1,0.3c0.1,0.1,0.2,0.2,0.3,0.2c0.1,0.1,0.3,0.1,0.4,0.2c0.2,0.1,0.3,0.1,0.5,0.2c0.4,0.1,0.7,0.3,1,0.4
				s0.5,0.3,0.7,0.5s0.3,0.4,0.4,0.6s0.1,0.5,0.1,0.9c0,0.7-0.2,1.2-0.7,1.6s-1.2,0.6-2.2,0.6c-0.3,0-0.6,0-0.9-0.1
				s-0.5-0.1-0.7-0.1c-0.2-0.1-0.4-0.1-0.5-0.2s-0.3-0.1-0.4-0.2l0.5-1.3c0.2,0.1,0.5,0.2,0.8,0.3
				C167.9,329.7,168.3,329.8,168.7,329.8z"/>
			<path class="st0" d="M172.9,323.7h1.7v7.3h-1.7V323.7z"/>
			<path class="st0" d="M178.3,329.8c0.2,0,0.4,0,0.6-0.1c0.2,0,0.3-0.1,0.4-0.2c0.1-0.1,0.2-0.1,0.2-0.2s0.1-0.2,0.1-0.3
				c0-0.2-0.1-0.4-0.3-0.6s-0.6-0.3-1.2-0.5c-0.2-0.1-0.5-0.2-0.7-0.3c-0.2-0.1-0.5-0.2-0.6-0.4c-0.2-0.2-0.3-0.4-0.5-0.6
				s-0.2-0.5-0.2-0.9c0-0.3,0.1-0.6,0.2-0.9c0.1-0.3,0.3-0.5,0.5-0.7s0.5-0.3,0.8-0.4s0.7-0.2,1.1-0.2c0.5,0,0.9,0.1,1.3,0.2
				c0.4,0.1,0.7,0.2,0.9,0.4l-0.5,1.3c-0.2-0.1-0.4-0.2-0.7-0.3c-0.3-0.1-0.6-0.1-0.9-0.1c-0.4,0-0.7,0.1-0.9,0.2s-0.3,0.3-0.3,0.5
				c0,0.1,0,0.2,0.1,0.3s0.2,0.2,0.3,0.2c0.1,0.1,0.3,0.1,0.4,0.2c0.2,0.1,0.3,0.1,0.5,0.2c0.4,0.1,0.7,0.3,1,0.4s0.5,0.3,0.7,0.5
				s0.3,0.4,0.4,0.6s0.1,0.5,0.1,0.9c0,0.7-0.2,1.2-0.7,1.6s-1.2,0.6-2.2,0.6c-0.3,0-0.6,0-0.9-0.1c-0.3,0-0.5-0.1-0.7-0.1
				s-0.4-0.1-0.5-0.2s-0.3-0.1-0.4-0.2l0.5-1.3c0.2,0.1,0.5,0.2,0.8,0.3C177.4,329.7,177.8,329.8,178.3,329.8z"/>
			<path class="st0" d="M187.7,323.7v1.4h-2.2v5.9h-1.7v-5.9h-2.2v-1.4H187.7z"/>
			<path class="st0" d="M188.7,331v-7.3h5v1.4h-3.3v1.4h2.9v1.4h-2.9v1.8h3.6v1.4L188.7,331L188.7,331z"/>
			<path class="st0" d="M197.1,323.7c0.1,0.2,0.3,0.5,0.4,0.9c0.2,0.3,0.3,0.7,0.5,1.1s0.4,0.8,0.5,1.2c0.2,0.4,0.3,0.8,0.5,1.2
				c0.2-0.4,0.3-0.8,0.5-1.2c0.2-0.4,0.4-0.8,0.5-1.2s0.4-0.8,0.5-1.1s0.3-0.6,0.4-0.9h1.5c0.1,0.5,0.1,1,0.2,1.6
				c0.1,0.6,0.1,1.2,0.2,1.9c0,0.7,0.1,1.3,0.1,2s0.1,1.3,0.1,1.9h-1.6c0-0.7-0.1-1.5-0.1-2.3s-0.1-1.7-0.2-2.5
				c-0.1,0.3-0.3,0.6-0.4,1s-0.3,0.7-0.5,1.1s-0.3,0.7-0.4,1c-0.1,0.3-0.3,0.6-0.4,0.8h-1.2c-0.1-0.2-0.2-0.5-0.4-0.8
				c-0.1-0.3-0.3-0.7-0.4-1c-0.2-0.4-0.3-0.7-0.5-1.1s-0.3-0.7-0.4-1c-0.1,0.9-0.1,1.7-0.2,2.5c0,0.8-0.1,1.6-0.1,2.3h-1.6
				c0-0.6,0.1-1.2,0.1-1.9s0.1-1.3,0.1-2s0.1-1.3,0.2-1.9c0.1-0.6,0.1-1.2,0.2-1.6H197.1z"/>
			<path class="st0" d="M209.6,331c-0.1-0.3-0.2-0.5-0.3-0.8s-0.2-0.5-0.3-0.8h-2.9c-0.1,0.3-0.2,0.5-0.3,0.8s-0.2,0.5-0.3,0.8h-1.7
				c0.3-0.8,0.5-1.5,0.8-2.2c0.2-0.7,0.5-1.3,0.7-1.9s0.5-1.2,0.7-1.7s0.5-1.1,0.7-1.6h1.6c0.2,0.5,0.5,1,0.7,1.6
				c0.2,0.5,0.5,1.1,0.7,1.7s0.5,1.2,0.7,1.9c0.2,0.7,0.5,1.4,0.8,2.2H209.6z M207.6,325.4c0,0.1-0.1,0.3-0.2,0.4s-0.2,0.4-0.2,0.6
				c-0.1,0.2-0.2,0.5-0.3,0.8s-0.2,0.6-0.3,0.9h2.1c-0.1-0.3-0.2-0.6-0.3-0.9s-0.2-0.6-0.3-0.8c-0.1-0.2-0.2-0.5-0.2-0.6
				C207.7,325.6,207.6,325.5,207.6,325.4z"/>
			<path class="st0" d="M214.5,329.8c0.2,0,0.4,0,0.6-0.1c0.2,0,0.3-0.1,0.4-0.2c0.1-0.1,0.2-0.1,0.2-0.2s0.1-0.2,0.1-0.3
				c0-0.2-0.1-0.4-0.3-0.6s-0.6-0.3-1.2-0.5c-0.2-0.1-0.5-0.2-0.7-0.3c-0.2-0.1-0.5-0.2-0.6-0.4c-0.2-0.2-0.3-0.4-0.5-0.6
				c-0.1-0.2-0.2-0.5-0.2-0.9c0-0.3,0.1-0.6,0.2-0.9c0.1-0.3,0.3-0.5,0.5-0.7s0.5-0.3,0.8-0.4s0.7-0.2,1.1-0.2
				c0.5,0,0.9,0.1,1.3,0.2c0.4,0.1,0.7,0.2,0.9,0.4l-0.5,1.3c-0.2-0.1-0.4-0.2-0.7-0.3c-0.3-0.1-0.6-0.1-0.9-0.1
				c-0.4,0-0.7,0.1-0.9,0.2s-0.3,0.3-0.3,0.5c0,0.1,0,0.2,0.1,0.3s0.2,0.2,0.3,0.2s0.3,0.1,0.4,0.2c0.2,0.1,0.3,0.1,0.5,0.2
				c0.4,0.1,0.7,0.3,1,0.4s0.5,0.3,0.7,0.5s0.3,0.4,0.4,0.6s0.1,0.5,0.1,0.9c0,0.7-0.2,1.2-0.7,1.6s-1.2,0.6-2.2,0.6
				c-0.3,0-0.6,0-0.9-0.1c-0.3,0-0.5-0.1-0.7-0.1c-0.2-0.1-0.4-0.1-0.5-0.2s-0.3-0.1-0.4-0.2l0.5-1.3c0.2,0.1,0.5,0.2,0.8,0.3
				C213.6,329.7,214,329.8,214.5,329.8z"/>
			<path class="st0" d="M227.7,327.4c0,0.6-0.1,1.2-0.3,1.7s-0.5,0.9-0.8,1.2c-0.4,0.3-0.8,0.5-1.3,0.7s-1.1,0.2-1.8,0.2
				c-0.3,0-0.6,0-1,0s-0.8-0.1-1.2-0.2v-7.2c0.4-0.1,0.8-0.1,1.2-0.1s0.8,0,1.1,0c0.6,0,1.2,0.1,1.7,0.2s1,0.4,1.3,0.7
				c0.4,0.3,0.7,0.7,0.8,1.2C227.6,326.1,227.7,326.7,227.7,327.4z M222.9,329.7c0.1,0,0.2,0,0.3,0s0.2,0,0.4,0
				c0.8,0,1.4-0.2,1.8-0.6s0.6-1,0.6-1.7c0-0.8-0.2-1.4-0.6-1.7c-0.4-0.4-1-0.6-1.8-0.6c-0.1,0-0.2,0-0.3,0s-0.2,0-0.3,0
				L222.9,329.7L222.9,329.7z"/>
			<path class="st0" d="M229,331v-7.3h5v1.4h-3.3v1.4h2.9v1.4h-2.9v1.8h3.6v1.4L229,331L229,331z"/>
			<path class="st0" d="M151.5,337.8h1.7v7.3h-1.7V337.8z"/>
			<path class="st0" d="M161.3,341.5c0,0.6-0.1,1.2-0.3,1.7s-0.5,0.9-0.8,1.2c-0.4,0.3-0.8,0.5-1.3,0.7s-1.1,0.2-1.8,0.2
				c-0.3,0-0.6,0-1,0s-0.8-0.1-1.2-0.2v-7.2c0.4-0.1,0.8-0.1,1.2-0.1s0.8,0,1.1,0c0.6,0,1.2,0.1,1.7,0.2s1,0.4,1.3,0.7
				c0.4,0.3,0.7,0.7,0.8,1.2C161.2,340.3,161.3,340.8,161.3,341.5z M156.5,343.8c0.1,0,0.2,0,0.3,0s0.2,0,0.4,0
				c0.8,0,1.4-0.2,1.8-0.6s0.6-1,0.6-1.7c0-0.8-0.2-1.4-0.6-1.7c-0.4-0.4-1-0.6-1.8-0.6c-0.1,0-0.2,0-0.4,0s-0.2,0-0.3,0V343.8z"/>
			<path class="st0" d="M162.7,345.2v-7.3h5v1.4h-3.3v1.4h2.9v1.4h-2.9v1.8h3.6v1.4L162.7,345.2L162.7,345.2z"/>
			<path class="st0" d="M174.1,345.2c-0.5-0.8-1-1.7-1.5-2.5c-0.6-0.8-1.1-1.6-1.8-2.3v4.8h-1.6v-7.3h1.3c0.2,0.2,0.5,0.5,0.8,0.9
				c0.3,0.3,0.6,0.7,0.9,1.1c0.3,0.4,0.6,0.8,0.9,1.2c0.3,0.4,0.6,0.8,0.8,1.2V338h1.6v7.3h-1.4V345.2z"/>
			<path class="st0" d="M182.6,337.8v1.4h-2.2v5.9h-1.7v-5.9h-2.2v-1.4H182.6z"/>
			<path class="st0" d="M183.7,337.8h1.7v7.3h-1.7V337.8z"/>
			<path class="st0" d="M193.4,341.5c0,0.6-0.1,1.2-0.3,1.7s-0.5,0.9-0.8,1.2c-0.4,0.3-0.8,0.5-1.3,0.7s-1.1,0.2-1.8,0.2
				c-0.3,0-0.6,0-1,0s-0.8-0.1-1.2-0.2v-7.2c0.4-0.1,0.8-0.1,1.2-0.1s0.8,0,1.1,0c0.6,0,1.2,0.1,1.7,0.2s1,0.4,1.3,0.7
				c0.4,0.3,0.7,0.7,0.8,1.2C193.3,340.3,193.4,340.8,193.4,341.5z M188.7,343.8c0.1,0,0.2,0,0.3,0s0.2,0,0.4,0
				c0.8,0,1.4-0.2,1.8-0.6s0.6-1,0.6-1.7c0-0.8-0.2-1.4-0.6-1.7c-0.4-0.4-1-0.6-1.8-0.6c-0.1,0-0.2,0-0.4,0s-0.2,0-0.3,0V343.8z"/>
			<path class="st0" d="M199.5,345.2c-0.1-0.3-0.2-0.5-0.3-0.8s-0.2-0.5-0.3-0.8H196c-0.1,0.3-0.2,0.5-0.3,0.8s-0.2,0.5-0.3,0.8
				h-1.7c0.3-0.8,0.5-1.5,0.8-2.2c0.2-0.7,0.5-1.3,0.7-1.9s0.5-1.2,0.7-1.7s0.5-1.1,0.7-1.6h1.6c0.2,0.5,0.5,1,0.7,1.6
				c0.2,0.5,0.5,1.1,0.7,1.7s0.5,1.2,0.7,1.9c0.2,0.7,0.5,1.4,0.8,2.2H199.5z M197.5,339.5c0,0.1-0.1,0.3-0.2,0.4s-0.2,0.4-0.2,0.6
				c-0.1,0.2-0.2,0.5-0.3,0.8s-0.2,0.6-0.3,0.9h2.1c-0.1-0.3-0.2-0.6-0.3-0.9s-0.2-0.6-0.3-0.8c-0.1-0.2-0.2-0.5-0.2-0.6
				C197.6,339.7,197.5,339.6,197.5,339.5z"/>
			<path class="st0" d="M208.6,341.5c0,0.6-0.1,1.2-0.3,1.7s-0.5,0.9-0.8,1.2c-0.4,0.3-0.8,0.5-1.3,0.7s-1.1,0.2-1.8,0.2
				c-0.3,0-0.6,0-1,0s-0.8-0.1-1.2-0.2v-7.2c0.4-0.1,0.8-0.1,1.2-0.1s0.8,0,1.1,0c0.6,0,1.2,0.1,1.7,0.2s1,0.4,1.3,0.7
				c0.4,0.3,0.7,0.7,0.8,1.2C208.5,340.3,208.6,340.8,208.6,341.5z M203.9,343.8c0.1,0,0.2,0,0.3,0s0.2,0,0.4,0
				c0.8,0,1.4-0.2,1.8-0.6s0.6-1,0.6-1.7c0-0.8-0.2-1.4-0.6-1.7c-0.4-0.4-1-0.6-1.8-0.6c-0.1,0-0.2,0-0.3,0s-0.2,0-0.3,0
				L203.9,343.8L203.9,343.8z"/>
			<path class="st0" d="M214.8,345.2c-0.3-0.6-0.6-1.3-0.9-1.9c-0.3-0.7-0.6-1.3-0.8-2c-0.3-0.7-0.5-1.3-0.7-1.9s-0.4-1.1-0.6-1.6
				h1.8c0.1,0.4,0.3,0.9,0.5,1.4s0.3,1,0.5,1.5s0.3,1,0.5,1.4s0.3,0.8,0.5,1.2c0.1-0.3,0.3-0.7,0.5-1.2c0.2-0.4,0.3-0.9,0.5-1.4
				s0.3-1,0.5-1.5s0.3-1,0.5-1.4h1.8c-0.2,0.5-0.4,1-0.6,1.6s-0.4,1.2-0.7,1.9c-0.3,0.7-0.5,1.3-0.8,2s-0.6,1.3-0.9,1.9H214.8z"/>
			<path class="st0" d="M220.2,337.8h1.7v7.3h-1.7V337.8z"/>
			<path class="st0" d="M225.6,343.9c0.2,0,0.4,0,0.6-0.1c0.2,0,0.3-0.1,0.4-0.2c0.1-0.1,0.2-0.1,0.2-0.2s0.1-0.2,0.1-0.3
				c0-0.2-0.1-0.4-0.3-0.6s-0.6-0.3-1.2-0.5c-0.2-0.1-0.5-0.2-0.7-0.3c-0.2-0.1-0.5-0.2-0.6-0.4c-0.2-0.2-0.3-0.4-0.5-0.6
				c-0.1-0.2-0.2-0.5-0.2-0.9c0-0.3,0.1-0.6,0.2-0.9c0.1-0.3,0.3-0.5,0.5-0.7s0.5-0.3,0.8-0.4s0.7-0.2,1.1-0.2
				c0.5,0,0.9,0.1,1.3,0.2c0.4,0.1,0.7,0.2,0.9,0.4l-0.5,1.3c-0.2-0.1-0.4-0.2-0.7-0.3c-0.3-0.1-0.6-0.1-0.9-0.1
				c-0.4,0-0.7,0.1-0.9,0.2s-0.3,0.3-0.3,0.5c0,0.1,0,0.2,0.1,0.3s0.2,0.2,0.3,0.2s0.3,0.1,0.4,0.2c0.2,0.1,0.3,0.1,0.5,0.2
				c0.4,0.1,0.7,0.3,1,0.4s0.5,0.3,0.7,0.5s0.3,0.4,0.4,0.6s0.1,0.5,0.1,0.9c0,0.7-0.2,1.2-0.7,1.6s-1.2,0.6-2.2,0.6
				c-0.3,0-0.6,0-0.9-0.1c-0.3,0-0.5-0.1-0.7-0.1c-0.2-0.1-0.4-0.1-0.5-0.2s-0.3-0.1-0.4-0.2l0.5-1.3c0.2,0.1,0.5,0.2,0.8,0.3
				C224.7,343.9,225.1,343.9,225.6,343.9z"/>
			<path class="st0" d="M232.6,345.3c-0.5,0-1-0.1-1.3-0.2c-0.4-0.1-0.7-0.3-0.9-0.6c-0.2-0.3-0.4-0.6-0.5-0.9
				c-0.1-0.4-0.2-0.8-0.2-1.2v-4.6h1.7v4.4c0,0.3,0,0.5,0.1,0.8c0.1,0.2,0.2,0.4,0.3,0.5s0.3,0.2,0.4,0.3s0.3,0.1,0.5,0.1
				c0.4,0,0.7-0.1,1-0.4c0.3-0.2,0.4-0.7,0.4-1.3v-4.4h1.7v4.6c0,0.4-0.1,0.8-0.2,1.2s-0.3,0.7-0.6,0.9c-0.2,0.3-0.6,0.5-0.9,0.6
				S233.1,345.3,232.6,345.3z"/>
			<path class="st0" d="M242,345.2c-0.1-0.3-0.2-0.5-0.3-0.8s-0.2-0.5-0.3-0.8h-2.9c-0.1,0.3-0.2,0.5-0.3,0.8s-0.2,0.5-0.3,0.8h-1.7
				c0.3-0.8,0.5-1.5,0.8-2.2c0.2-0.7,0.5-1.3,0.7-1.9s0.5-1.2,0.7-1.7s0.5-1.1,0.7-1.6h1.6c0.2,0.5,0.5,1,0.7,1.6
				c0.2,0.5,0.5,1.1,0.7,1.7s0.5,1.2,0.7,1.9c0.2,0.7,0.5,1.4,0.8,2.2H242z M240,339.5c0,0.1-0.1,0.3-0.2,0.4s-0.2,0.4-0.2,0.6
				c-0.1,0.2-0.2,0.5-0.3,0.8s-0.2,0.6-0.3,0.9h2.1c-0.1-0.3-0.2-0.6-0.3-0.9s-0.2-0.6-0.3-0.8c-0.1-0.2-0.2-0.5-0.2-0.6
				C240.1,339.7,240,339.6,240,339.5z"/>
			<path class="st0" d="M249.6,343.8v1.4h-4.9v-7.3h1.7v5.9H249.6z"/>
		</g>
	</g>
	<g>
		<g>
			<path class="st0" d="M165.7,20.8v1.4h-4.9v-7.3h1.7v5.9H165.7z"/>
			<path class="st0" d="M173.6,18.5c0,0.6-0.1,1.2-0.3,1.7s-0.4,0.9-0.8,1.2s-0.7,0.6-1.2,0.7c-0.4,0.2-0.9,0.2-1.4,0.2
				s-1-0.1-1.4-0.2c-0.4-0.2-0.8-0.4-1.2-0.7c-0.3-0.3-0.6-0.7-0.8-1.2s-0.3-1-0.3-1.7c0-0.6,0.1-1.2,0.3-1.7s0.5-0.9,0.8-1.2
				s0.7-0.6,1.2-0.7c0.4-0.2,0.9-0.2,1.4-0.2s1,0.1,1.4,0.2c0.4,0.2,0.8,0.4,1.2,0.7s0.6,0.7,0.8,1.2S173.6,17.9,173.6,18.5z
				 M168,18.5c0,0.4,0,0.7,0.1,1s0.2,0.5,0.4,0.7s0.4,0.4,0.6,0.5c0.2,0.1,0.5,0.2,0.8,0.2s0.6-0.1,0.8-0.2s0.4-0.3,0.6-0.5
				s0.3-0.5,0.4-0.7c0.1-0.3,0.1-0.6,0.1-1s0-0.7-0.1-1s-0.2-0.5-0.4-0.8s-0.4-0.4-0.6-0.5c-0.2-0.1-0.5-0.2-0.8-0.2
				s-0.6,0.1-0.8,0.2s-0.4,0.3-0.6,0.5c-0.2,0.2-0.3,0.5-0.4,0.8C168,17.8,168,18.2,168,18.5z"/>
			<path class="st0" d="M178.5,16.1c-0.8,0-1.3,0.2-1.7,0.6s-0.5,1-0.5,1.8c0,0.4,0,0.7,0.1,1s0.2,0.5,0.4,0.8s0.4,0.4,0.6,0.5
				c0.3,0.1,0.6,0.2,0.9,0.2c0.2,0,0.3,0,0.5,0c0.1,0,0.2,0,0.3,0v-2.6h1.7V22c-0.2,0.1-0.5,0.2-1,0.2s-1,0.1-1.6,0.1
				s-1.1-0.1-1.5-0.3c-0.4-0.2-0.8-0.4-1.2-0.7c-0.3-0.3-0.6-0.7-0.7-1.2c-0.2-0.5-0.3-1-0.3-1.6s0.1-1.2,0.3-1.6
				c0.2-0.5,0.5-0.9,0.8-1.2s0.7-0.6,1.2-0.7c0.4-0.2,0.9-0.3,1.4-0.3c0.3,0,0.7,0,0.9,0.1s0.5,0.1,0.7,0.2s0.4,0.1,0.5,0.2
				s0.2,0.1,0.3,0.1l-0.5,1.3c-0.2-0.1-0.5-0.2-0.8-0.3C179.2,16.2,178.9,16.1,178.5,16.1z"/>
			<path class="st0" d="M189.4,18.5c0,0.6-0.1,1.2-0.3,1.7s-0.4,0.9-0.8,1.2s-0.7,0.6-1.2,0.7c-0.4,0.2-0.9,0.2-1.4,0.2
				s-1-0.1-1.4-0.2c-0.4-0.2-0.8-0.4-1.2-0.7s-0.6-0.7-0.8-1.2s-0.3-1-0.3-1.7c0-0.6,0.1-1.2,0.3-1.7s0.5-0.9,0.8-1.2
				s0.7-0.6,1.2-0.7c0.4-0.2,0.9-0.2,1.4-0.2s1,0.1,1.4,0.2c0.4,0.2,0.8,0.4,1.2,0.7c0.3,0.3,0.6,0.7,0.8,1.2
				C189.3,17.3,189.4,17.9,189.4,18.5z M183.8,18.5c0,0.4,0,0.7,0.1,1s0.2,0.5,0.4,0.7s0.4,0.4,0.6,0.5c0.2,0.1,0.5,0.2,0.8,0.2
				s0.6-0.1,0.8-0.2s0.4-0.3,0.6-0.5c0.2-0.2,0.3-0.5,0.4-0.7c0.1-0.3,0.1-0.6,0.1-1s0-0.7-0.1-1s-0.2-0.5-0.4-0.8
				c-0.2-0.2-0.4-0.4-0.6-0.5c-0.2-0.1-0.5-0.2-0.8-0.2s-0.6,0.1-0.8,0.2s-0.4,0.3-0.6,0.5c-0.2,0.2-0.3,0.5-0.4,0.8
				C183.8,17.8,183.8,18.2,183.8,18.5z"/>
			<path class="st0" d="M193.8,24.2h-1.6l3.6-10.3h1.6L193.8,24.2z"/>
			<path class="st0" d="M200.5,14.9h1.7v7.3h-1.7V14.9z"/>
			<path class="st0" d="M207.2,22.4c-1.2,0-2.1-0.3-2.7-1s-0.9-1.6-0.9-2.8c0-0.6,0.1-1.2,0.3-1.6c0.2-0.5,0.5-0.9,0.8-1.2
				c0.3-0.3,0.7-0.6,1.2-0.7c0.5-0.2,1-0.3,1.5-0.3c0.3,0,0.6,0,0.8,0.1c0.3,0,0.5,0.1,0.7,0.2c0.2,0.1,0.3,0.1,0.5,0.2
				s0.2,0.1,0.3,0.1l-0.5,1.3c-0.2-0.1-0.5-0.2-0.8-0.3c-0.3-0.1-0.6-0.1-1-0.1c-0.3,0-0.5,0-0.7,0.1s-0.5,0.2-0.6,0.4
				c-0.2,0.2-0.3,0.4-0.5,0.7c-0.1,0.3-0.2,0.7-0.2,1.1c0,0.3,0,0.7,0.1,0.9s0.2,0.5,0.4,0.8c0.2,0.2,0.4,0.4,0.7,0.5s0.6,0.2,1,0.2
				c0.2,0,0.5,0,0.6,0c0.2,0,0.4-0.1,0.5-0.1s0.3-0.1,0.4-0.1c0.1,0,0.2-0.1,0.3-0.1l0.5,1.3c-0.2,0.1-0.6,0.3-1,0.4
				C208.2,22.3,207.7,22.4,207.2,22.4z"/>
			<path class="st0" d="M217.4,18.5c0,0.6-0.1,1.2-0.3,1.7s-0.4,0.9-0.8,1.2s-0.7,0.6-1.2,0.7c-0.4,0.2-0.9,0.2-1.4,0.2
				s-1-0.1-1.4-0.2c-0.4-0.2-0.8-0.4-1.2-0.7c-0.3-0.3-0.6-0.7-0.8-1.2s-0.3-1-0.3-1.7c0-0.6,0.1-1.2,0.3-1.7s0.5-0.9,0.8-1.2
				s0.7-0.6,1.2-0.7c0.4-0.2,0.9-0.2,1.4-0.2s1,0.1,1.4,0.2c0.4,0.2,0.8,0.4,1.2,0.7c0.3,0.3,0.6,0.7,0.8,1.2
				C217.3,17.3,217.4,17.9,217.4,18.5z M211.8,18.5c0,0.4,0,0.7,0.1,1s0.2,0.5,0.4,0.7s0.4,0.4,0.6,0.5c0.2,0.1,0.5,0.2,0.8,0.2
				s0.6-0.1,0.8-0.2s0.4-0.3,0.6-0.5s0.3-0.5,0.4-0.7c0.1-0.3,0.1-0.6,0.1-1s0-0.7-0.1-1s-0.2-0.5-0.4-0.8s-0.4-0.4-0.6-0.5
				c-0.2-0.1-0.5-0.2-0.8-0.2s-0.6,0.1-0.8,0.2s-0.4,0.3-0.6,0.5c-0.2,0.2-0.3,0.5-0.4,0.8C211.9,17.8,211.8,18.2,211.8,18.5z"/>
			<path class="st0" d="M223.7,22.2c-0.5-0.8-1-1.7-1.5-2.5c-0.6-0.8-1.1-1.6-1.8-2.3v4.8h-1.6v-7.3h1.3c0.2,0.2,0.5,0.5,0.8,0.9
				c0.3,0.3,0.6,0.7,0.9,1.1c0.3,0.4,0.6,0.8,0.9,1.2s0.6,0.8,0.8,1.2V15h1.6v7.3h-1.4V22.2z"/>
			<path class="st0" d="M233.8,18.5c0,0.6-0.1,1.2-0.3,1.7s-0.4,0.9-0.8,1.2s-0.7,0.6-1.2,0.7c-0.4,0.2-0.9,0.2-1.4,0.2
				s-1-0.1-1.4-0.2c-0.4-0.2-0.8-0.4-1.2-0.7c-0.3-0.3-0.6-0.7-0.8-1.2s-0.3-1-0.3-1.7c0-0.6,0.1-1.2,0.3-1.7s0.5-0.9,0.8-1.2
				s0.7-0.6,1.2-0.7c0.4-0.2,0.9-0.2,1.4-0.2s1,0.1,1.4,0.2c0.4,0.2,0.8,0.4,1.2,0.7c0.3,0.3,0.6,0.7,0.8,1.2S233.8,17.9,233.8,18.5
				z M228.2,18.5c0,0.4,0,0.7,0.1,1s0.2,0.5,0.4,0.7s0.4,0.4,0.6,0.5c0.2,0.1,0.5,0.2,0.8,0.2s0.6-0.1,0.8-0.2s0.4-0.3,0.6-0.5
				s0.3-0.5,0.4-0.7c0.1-0.3,0.1-0.6,0.1-1s0-0.7-0.1-1s-0.2-0.5-0.4-0.8s-0.4-0.4-0.6-0.5c-0.2-0.1-0.5-0.2-0.8-0.2
				s-0.6,0.1-0.8,0.2s-0.4,0.3-0.6,0.5c-0.2,0.2-0.3,0.5-0.4,0.8C228.3,17.8,228.2,18.2,228.2,18.5z"/>
			<path class="st0" d="M237.2,20.9c0.2,0,0.4,0,0.6-0.1c0.2,0,0.3-0.1,0.4-0.2c0.1-0.1,0.2-0.1,0.2-0.2s0.1-0.2,0.1-0.3
				c0-0.2-0.1-0.4-0.3-0.6s-0.6-0.3-1.2-0.5c-0.2-0.1-0.5-0.2-0.7-0.3c-0.2-0.1-0.5-0.2-0.6-0.4c-0.2-0.2-0.3-0.4-0.5-0.6
				c-0.1-0.2-0.2-0.5-0.2-0.9s0.1-0.6,0.2-0.9c0.1-0.3,0.3-0.5,0.5-0.7s0.5-0.3,0.8-0.4s0.7-0.2,1.1-0.2c0.5,0,0.9,0.1,1.3,0.2
				c0.4,0.1,0.7,0.2,0.9,0.3l-0.5,1.3c-0.2-0.1-0.4-0.2-0.7-0.3c-0.3-0.1-0.6-0.1-0.9-0.1c-0.4,0-0.7,0.1-0.9,0.2s-0.3,0.3-0.3,0.5
				c0,0.1,0,0.2,0.1,0.3c0.1,0.1,0.2,0.2,0.3,0.2s0.3,0.1,0.4,0.2c0.2,0.1,0.3,0.1,0.5,0.2c0.4,0.1,0.7,0.3,1,0.4s0.5,0.3,0.7,0.5
				s0.3,0.4,0.4,0.6s0.1,0.5,0.1,0.9c0,0.7-0.2,1.2-0.7,1.6s-1.2,0.6-2.2,0.6c-0.3,0-0.6,0-0.9-0.1c-0.3,0-0.5-0.1-0.7-0.1
				c-0.2-0.1-0.4-0.1-0.5-0.2s-0.3-0.1-0.4-0.2l0.5-1.3c0.2,0.1,0.5,0.2,0.8,0.3C236.4,20.9,236.7,20.9,237.2,20.9z"/>
		</g>
	</g>
	<line class="st1" x1="200.2" y1="310.8" x2="200.2" y2="36.9"/>
	<g>
		<polygon class="st1" points="200.2,36.9 318.8,105.4 318.8,242.3 200.2,310.8 81.7,242.3 81.7,105.4 		"/>
		<line class="st1" x1="81.7" y1="105.4" x2="318.8" y2="242.3"/>
		<line class="st1" x1="81.7" y1="242.3" x2="318.8" y2="105.4"/>
		<polygon class="st1" points="200.2,62.2 296.9,118 296.9,229.7 200.2,285.5 103.6,229.7 103.6,118 		"/>
		<polygon class="st1" points="200.2,88.8 273.9,131.4 273.9,216.4 200.2,258.9 126.6,216.4 126.6,131.4 		"/>
		<polygon class="st1" points="200.2,116.1 250.2,145 250.2,202.7 200.2,231.6 150.3,202.7 150.3,145 		"/>
		<polygon class="st1" points="200.2,142 227.9,157.9 227.9,189.8 200.2,205.8 172.6,189.8 172.6,157.9 		"/>
	</g>
	<polygon class="st2" points="200.2,50.5 296.9,118 302.5,232.9 200.2,296.4 99.9,233.6 120.3,127.7 	"/>
	<g>
		<path class="st3" d="M182.6,39.6c0.3-0.1,0.7-0.3,1-0.5s0.6-0.5,0.9-0.8h0.6v6.1h-0.8v-5c-0.1,0.1-0.2,0.1-0.3,0.2
			c-0.1,0.1-0.2,0.1-0.3,0.2c-0.1,0.1-0.2,0.1-0.4,0.2c-0.1,0.1-0.3,0.1-0.4,0.1L182.6,39.6z"/>
		<path class="st3" d="M187.2,41.4c0-1,0.2-1.8,0.5-2.4s0.9-0.8,1.5-0.8s1.1,0.3,1.5,0.8s0.5,1.3,0.5,2.4c0,1-0.2,1.8-0.5,2.4
			c-0.4,0.6-0.9,0.8-1.5,0.8s-1.1-0.3-1.5-0.8C187.4,43.2,187.2,42.4,187.2,41.4z M190.4,41.4c0-0.3,0-0.7-0.1-1
			c0-0.3-0.1-0.6-0.2-0.8c-0.1-0.2-0.2-0.4-0.4-0.5s-0.3-0.2-0.6-0.2s-0.4,0.1-0.6,0.2c-0.2,0.1-0.3,0.3-0.4,0.5
			c-0.1,0.2-0.2,0.5-0.2,0.8s-0.1,0.6-0.1,1c0,0.3,0,0.7,0.1,1c0,0.3,0.1,0.6,0.2,0.8c0.1,0.2,0.2,0.4,0.4,0.5s0.3,0.2,0.6,0.2
			s0.4-0.1,0.6-0.2c0.2-0.1,0.3-0.3,0.4-0.5c0.1-0.2,0.2-0.5,0.2-0.8C190.4,42.1,190.4,41.7,190.4,41.4z"/>
		<path class="st3" d="M192.2,41.4c0-1,0.2-1.8,0.5-2.4s0.9-0.8,1.5-0.8s1.1,0.3,1.5,0.8s0.5,1.3,0.5,2.4c0,1-0.2,1.8-0.5,2.4
			c-0.4,0.6-0.9,0.8-1.5,0.8s-1.1-0.3-1.5-0.8C192.4,43.2,192.2,42.4,192.2,41.4z M195.4,41.4c0-0.3,0-0.7-0.1-1
			c0-0.3-0.1-0.6-0.2-0.8c-0.1-0.2-0.2-0.4-0.4-0.5s-0.3-0.2-0.6-0.2c-0.2,0-0.4,0.1-0.6,0.2c-0.2,0.1-0.3,0.3-0.4,0.5
			c-0.1,0.2-0.2,0.5-0.2,0.8s-0.1,0.6-0.1,1c0,0.3,0,0.7,0.1,1c0,0.3,0.1,0.6,0.2,0.8c0.1,0.2,0.2,0.4,0.4,0.5s0.3,0.2,0.6,0.2
			c0.2,0,0.4-0.1,0.6-0.2c0.2-0.1,0.3-0.3,0.4-0.5c0.1-0.2,0.2-0.5,0.2-0.8C195.4,42.1,195.4,41.7,195.4,41.4z"/>
		<path class="st3" d="M191.2,68.5c0,0.2,0,0.5-0.1,0.7s-0.2,0.4-0.4,0.5c-0.2,0.2-0.4,0.3-0.6,0.4c-0.3,0.1-0.5,0.1-0.9,0.1
			s-0.7-0.1-1-0.2s-0.5-0.2-0.6-0.4c-0.2-0.2-0.3-0.3-0.3-0.5c-0.1-0.2-0.1-0.4-0.1-0.6s0-0.3,0.1-0.5s0.1-0.3,0.2-0.4
			c0.1-0.1,0.2-0.3,0.3-0.4s0.2-0.2,0.4-0.3c-0.6-0.3-0.9-0.8-0.9-1.5c0-0.2,0-0.4,0.1-0.6s0.2-0.4,0.4-0.5c0.2-0.2,0.4-0.3,0.6-0.4
			s0.5-0.1,0.8-0.1s0.6,0.1,0.8,0.2c0.2,0.1,0.4,0.2,0.6,0.4s0.3,0.3,0.3,0.5c0.1,0.2,0.1,0.4,0.1,0.5c0,0.2,0,0.3-0.1,0.5
			s-0.1,0.3-0.2,0.4c-0.1,0.1-0.2,0.2-0.3,0.3c-0.1,0.1-0.2,0.2-0.3,0.3C190.9,67.3,191.2,67.8,191.2,68.5z M188.1,68.6
			c0,0.1,0,0.2,0.1,0.3c0,0.1,0.1,0.2,0.2,0.3c0.1,0.1,0.2,0.2,0.4,0.2c0.1,0.1,0.3,0.1,0.6,0.1c0.2,0,0.4,0,0.5-0.1
			c0.2-0.1,0.3-0.1,0.4-0.2c0.1-0.1,0.2-0.2,0.2-0.3c0-0.1,0.1-0.2,0.1-0.4c0-0.2,0-0.4-0.1-0.5s-0.2-0.3-0.3-0.4s-0.3-0.2-0.5-0.3
			s-0.4-0.1-0.6-0.2c-0.3,0.1-0.5,0.3-0.6,0.5C188.1,68,188.1,68.3,188.1,68.6z M190.3,65.4c0-0.1,0-0.2-0.1-0.3
			c0-0.1-0.1-0.2-0.2-0.3c-0.1-0.1-0.2-0.2-0.3-0.2c-0.1-0.1-0.3-0.1-0.5-0.1s-0.3,0-0.5,0.1c-0.1,0.1-0.2,0.1-0.3,0.2
			s-0.1,0.2-0.2,0.3c0,0.1-0.1,0.2-0.1,0.3c0,0.1,0,0.3,0.1,0.4c0,0.1,0.1,0.3,0.2,0.4c0.1,0.1,0.2,0.2,0.4,0.3s0.4,0.2,0.6,0.2
			c0.2-0.1,0.4-0.3,0.6-0.5S190.3,65.7,190.3,65.4z"/>
		<path class="st3" d="M192.2,67c0-1,0.2-1.8,0.5-2.4c0.3-0.6,0.9-0.8,1.5-0.8s1.1,0.3,1.5,0.8s0.5,1.3,0.5,2.4c0,1-0.2,1.8-0.5,2.4
			c-0.4,0.6-0.9,0.8-1.5,0.8s-1.1-0.3-1.5-0.8C192.3,68.8,192.2,68.1,192.2,67z M195.4,67c0-0.3,0-0.7-0.1-1c0-0.3-0.1-0.6-0.2-0.8
			c-0.1-0.2-0.2-0.4-0.4-0.5s-0.3-0.2-0.6-0.2s-0.4,0.1-0.6,0.2c-0.2,0.1-0.3,0.3-0.4,0.5c-0.1,0.2-0.2,0.5-0.2,0.8s-0.1,0.6-0.1,1
			c0,0.3,0,0.7,0.1,1c0,0.3,0.1,0.6,0.2,0.8c0.1,0.2,0.2,0.4,0.4,0.5s0.3,0.2,0.6,0.2s0.4-0.1,0.6-0.2c0.2-0.1,0.3-0.3,0.4-0.5
			c0.1-0.2,0.2-0.5,0.2-0.8C195.4,67.7,195.4,67.4,195.4,67z"/>
		<path class="st3" d="M187.3,93.3c0-0.6,0.1-1.1,0.2-1.6s0.4-0.8,0.7-1.2c0.3-0.3,0.7-0.5,1.1-0.7c0.4-0.2,0.9-0.2,1.5-0.3l0.1,0.7
			c-0.3,0-0.7,0-1,0.1s-0.5,0.2-0.8,0.3s-0.4,0.4-0.6,0.6c-0.2,0.2-0.3,0.5-0.3,0.9c0.2-0.1,0.3-0.1,0.5-0.2c0.2,0,0.4-0.1,0.6-0.1
			c0.3,0,0.6,0.1,0.9,0.2c0.2,0.1,0.4,0.2,0.6,0.4s0.3,0.4,0.3,0.6c0.1,0.2,0.1,0.5,0.1,0.7s0,0.5-0.1,0.7s-0.2,0.5-0.3,0.6
			c-0.2,0.2-0.4,0.4-0.6,0.5c-0.2,0.1-0.5,0.2-0.9,0.2c-0.7,0-1.2-0.2-1.5-0.7S187.3,94.1,187.3,93.3z M189.3,92.6
			c-0.2,0-0.4,0-0.6,0.1c-0.2,0-0.4,0.1-0.5,0.2c0,0.1,0,0.1,0,0.2s0,0.1,0,0.2c0,0.3,0,0.5,0.1,0.7c0,0.2,0.1,0.4,0.2,0.6
			c0.1,0.2,0.2,0.3,0.4,0.4s0.3,0.2,0.6,0.2c0.2,0,0.4,0,0.5-0.1s0.2-0.2,0.3-0.3c0.1-0.1,0.2-0.3,0.2-0.4s0.1-0.3,0.1-0.4
			c0-0.4-0.1-0.7-0.3-0.9C189.9,92.7,189.7,92.6,189.3,92.6z"/>
		<path class="st3" d="M192.2,92.7c0-1,0.2-1.8,0.5-2.4s0.9-0.8,1.5-0.8s1.1,0.3,1.5,0.8s0.5,1.3,0.5,2.4c0,1-0.2,1.8-0.5,2.4
			c-0.4,0.6-0.9,0.8-1.5,0.8s-1.1-0.3-1.5-0.8C192.3,94.5,192.2,93.7,192.2,92.7z M195.4,92.7c0-0.3,0-0.7-0.1-1
			c0-0.3-0.1-0.6-0.2-0.8c-0.1-0.2-0.2-0.4-0.4-0.5s-0.3-0.2-0.6-0.2s-0.4,0.1-0.6,0.2c-0.2,0.1-0.3,0.3-0.4,0.5
			c-0.1,0.2-0.2,0.5-0.2,0.8s-0.1,0.6-0.1,1c0,0.3,0,0.7,0.1,1c0,0.3,0.1,0.6,0.2,0.8c0.1,0.2,0.2,0.4,0.4,0.5s0.3,0.2,0.6,0.2
			s0.4-0.1,0.6-0.2c0.2-0.1,0.3-0.3,0.4-0.5c0.1-0.2,0.2-0.5,0.2-0.8C195.4,93.3,195.4,93,195.4,92.7z"/>
		<path class="st3" d="M187.1,119.2c0.1-0.3,0.3-0.6,0.5-0.9s0.4-0.7,0.7-1.1c0.2-0.4,0.5-0.7,0.8-1.1s0.6-0.7,0.8-1h0.8v3.9h0.7
			v0.7h-0.7v1.6h-0.8v-1.6h-2.7v-0.5H187.1z M189.8,116.2c-0.2,0.2-0.4,0.4-0.5,0.6c-0.2,0.2-0.4,0.5-0.5,0.7
			c-0.2,0.3-0.3,0.5-0.5,0.8s-0.3,0.5-0.4,0.8h1.9V116.2z"/>
		<path class="st3" d="M192.2,118.3c0-1,0.2-1.8,0.5-2.4s0.9-0.8,1.5-0.8s1.1,0.3,1.5,0.8s0.5,1.3,0.5,2.4c0,1-0.2,1.8-0.5,2.4
			c-0.4,0.6-0.9,0.8-1.5,0.8s-1.1-0.3-1.5-0.8C192.3,120.1,192.2,119.3,192.2,118.3z M195.4,118.3c0-0.3,0-0.7-0.1-1
			c0-0.3-0.1-0.6-0.2-0.8c-0.1-0.2-0.2-0.4-0.4-0.5s-0.3-0.2-0.6-0.2s-0.4,0.1-0.6,0.2c-0.2,0.1-0.3,0.3-0.4,0.5
			c-0.1,0.2-0.2,0.5-0.2,0.8s-0.1,0.6-0.1,1c0,0.3,0,0.7,0.1,1c0,0.3,0.1,0.6,0.2,0.8c0.1,0.2,0.2,0.4,0.4,0.5s0.3,0.2,0.6,0.2
			s0.4-0.1,0.6-0.2c0.2-0.1,0.3-0.3,0.4-0.5c0.1-0.2,0.2-0.5,0.2-0.8C195.4,118.9,195.4,118.6,195.4,118.3z"/>
		<path class="st3" d="M190.9,142.4c0,0.2,0,0.4-0.1,0.6c-0.1,0.2-0.2,0.4-0.3,0.6s-0.3,0.4-0.5,0.6s-0.4,0.4-0.5,0.5
			s-0.2,0.2-0.3,0.4c-0.1,0.1-0.3,0.3-0.4,0.4c-0.1,0.1-0.2,0.3-0.3,0.4c-0.1,0.1-0.1,0.3-0.1,0.4h2.8v0.7h-3.7v-0.1v-0.1
			c0-0.3,0-0.5,0.1-0.8c0.1-0.2,0.2-0.5,0.4-0.7c0.1-0.2,0.3-0.4,0.5-0.6c0.2-0.2,0.4-0.4,0.5-0.5s0.3-0.3,0.4-0.4
			c0.1-0.1,0.3-0.3,0.4-0.4c0.1-0.1,0.2-0.3,0.2-0.4c0.1-0.1,0.1-0.3,0.1-0.5s0-0.3-0.1-0.5c-0.1-0.1-0.1-0.2-0.2-0.3
			c-0.1-0.1-0.2-0.1-0.3-0.2c-0.1,0-0.3-0.1-0.4-0.1c-0.2,0-0.3,0-0.5,0.1c-0.1,0-0.3,0.1-0.4,0.2c-0.1,0.1-0.2,0.1-0.3,0.2
			c-0.1,0.1-0.1,0.1-0.2,0.2l-0.4-0.6c0.1-0.1,0.1-0.1,0.2-0.2c0.1-0.1,0.2-0.2,0.4-0.2s0.3-0.1,0.5-0.2s0.4-0.1,0.6-0.1
			c0.6,0,1.1,0.1,1.4,0.4S190.9,141.9,190.9,142.4z"/>
		<path class="st3" d="M192.2,143.9c0-1,0.2-1.8,0.5-2.4s0.9-0.8,1.5-0.8s1.1,0.3,1.5,0.8s0.5,1.3,0.5,2.4c0,1-0.2,1.8-0.5,2.4
			c-0.4,0.6-0.9,0.8-1.5,0.8s-1.1-0.3-1.5-0.8C192.3,145.7,192.2,144.9,192.2,143.9z M195.4,143.9c0-0.3,0-0.7-0.1-1
			c0-0.3-0.1-0.6-0.2-0.8c-0.1-0.2-0.2-0.4-0.4-0.5s-0.3-0.2-0.6-0.2s-0.4,0.1-0.6,0.2c-0.2,0.1-0.3,0.3-0.4,0.5
			c-0.1,0.2-0.2,0.5-0.2,0.8s-0.1,0.6-0.1,1c0,0.3,0,0.7,0.1,1c0,0.3,0.1,0.6,0.2,0.8c0.1,0.2,0.2,0.4,0.4,0.5s0.3,0.2,0.6,0.2
			s0.4-0.1,0.6-0.2c0.2-0.1,0.3-0.3,0.4-0.5c0.1-0.2,0.2-0.5,0.2-0.8C195.4,144.6,195.4,144.2,195.4,143.9z"/>
		<path class="st3" d="M192.2,169.5c0-1,0.2-1.8,0.5-2.4s0.9-0.8,1.5-0.8s1.1,0.3,1.5,0.8s0.5,1.3,0.5,2.4c0,1-0.2,1.8-0.5,2.4
			c-0.4,0.6-0.9,0.8-1.5,0.8s-1.1-0.3-1.5-0.8C192.3,171.3,192.2,170.6,192.2,169.5z M195.4,169.5c0-0.3,0-0.7-0.1-1
			c0-0.3-0.1-0.6-0.2-0.8c-0.1-0.2-0.2-0.4-0.4-0.5s-0.3-0.2-0.6-0.2s-0.4,0.1-0.6,0.2c-0.2,0.1-0.3,0.3-0.4,0.5
			c-0.1,0.2-0.2,0.5-0.2,0.8s-0.1,0.6-0.1,1c0,0.3,0,0.7,0.1,1c0,0.3,0.1,0.6,0.2,0.8c0.1,0.2,0.2,0.4,0.4,0.5s0.3,0.2,0.6,0.2
			s0.4-0.1,0.6-0.2c0.2-0.1,0.3-0.3,0.4-0.5c0.1-0.2,0.2-0.5,0.2-0.8C195.4,170.2,195.4,169.9,195.4,169.5z"/>
	</g>
	<g>
		<g>
			<path class="st0" d="M15.9,247.9v-7.3h5v1.4h-3.3v1.4h2.9v1.4h-2.9v1.8h3.6v1.4L15.9,247.9L15.9,247.9z"/>
			<path class="st0" d="M28.7,244.2c0,0.6-0.1,1.2-0.3,1.7c-0.2,0.5-0.5,0.9-0.8,1.2c-0.4,0.3-0.8,0.5-1.3,0.7s-1.1,0.2-1.8,0.2
				c-0.3,0-0.6,0-1,0s-0.8-0.1-1.2-0.2v-7.2c0.4-0.1,0.8-0.1,1.2-0.1c0.4,0,0.8,0,1.1,0c0.6,0,1.2,0.1,1.7,0.2
				c0.5,0.1,1,0.4,1.3,0.7c0.4,0.3,0.7,0.7,0.8,1.2C28.6,243,28.7,243.6,28.7,244.2z M23.9,246.6c0.1,0,0.2,0,0.3,0
				c0.1,0,0.2,0,0.4,0c0.8,0,1.4-0.2,1.8-0.6s0.6-1,0.6-1.7c0-0.8-0.2-1.4-0.6-1.7c-0.4-0.4-1-0.6-1.8-0.6c-0.1,0-0.2,0-0.4,0
				s-0.2,0-0.3,0V246.6z"/>
			<path class="st0" d="M30.1,240.6h1.7v7.3h-1.7V240.6z"/>
			<path class="st0" d="M38.9,240.6v1.4h-2.2v5.9H35V242h-2.2v-1.4H38.9z"/>
			<path class="st0" d="M46.7,244.2c0,0.6-0.1,1.2-0.3,1.7s-0.4,0.9-0.8,1.2c-0.3,0.3-0.7,0.6-1.2,0.7C44,248,43.5,248,43,248
				s-1-0.1-1.4-0.2c-0.4-0.2-0.8-0.4-1.2-0.7c-0.3-0.3-0.6-0.7-0.8-1.2s-0.3-1-0.3-1.7c0-0.6,0.1-1.2,0.3-1.7s0.5-0.9,0.8-1.2
				s0.7-0.6,1.2-0.7c0.4-0.2,0.9-0.2,1.4-0.2s1,0.1,1.4,0.2c0.4,0.2,0.8,0.4,1.2,0.7c0.3,0.3,0.6,0.7,0.8,1.2
				C46.6,243,46.7,243.6,46.7,244.2z M41.1,244.2c0,0.4,0,0.7,0.1,1s0.2,0.5,0.4,0.7s0.4,0.4,0.6,0.5s0.5,0.2,0.8,0.2
				s0.6-0.1,0.8-0.2s0.4-0.3,0.6-0.5c0.2-0.2,0.3-0.5,0.4-0.7c0.1-0.3,0.1-0.6,0.1-1s0-0.7-0.1-1s-0.2-0.5-0.4-0.8
				c-0.2-0.2-0.4-0.4-0.6-0.5s-0.5-0.2-0.8-0.2s-0.6,0.1-0.8,0.2c-0.2,0.1-0.4,0.3-0.6,0.5c-0.2,0.2-0.3,0.5-0.4,0.8
				C41.1,243.5,41.1,243.9,41.1,244.2z"/>
			<path class="st0" d="M50.2,240.5c1.1,0,1.9,0.2,2.5,0.6s0.9,1,0.9,1.8c0,0.5-0.1,0.9-0.4,1.3c-0.2,0.3-0.6,0.6-1,0.8
				c0.1,0.2,0.3,0.4,0.5,0.6c0.2,0.2,0.3,0.5,0.5,0.7c0.2,0.3,0.3,0.5,0.5,0.8c0.1,0.3,0.3,0.6,0.4,0.8h-1.8
				c-0.1-0.2-0.3-0.5-0.4-0.7c-0.1-0.2-0.3-0.5-0.4-0.7c-0.1-0.2-0.3-0.5-0.4-0.7c-0.1-0.2-0.3-0.4-0.4-0.6h-0.8v2.7h-1.7v-7.2
				c0.4-0.1,0.7-0.1,1.1-0.1C49.6,240.5,49.9,240.5,50.2,240.5z M50.3,241.9c-0.1,0-0.2,0-0.3,0s-0.2,0-0.3,0v2h0.5
				c0.6,0,1.1-0.1,1.3-0.2c0.3-0.2,0.4-0.4,0.4-0.8c0-0.4-0.1-0.6-0.4-0.8C51.3,242,50.9,241.9,50.3,241.9z"/>
			<path class="st0" d="M55.2,240.6h1.7v7.3h-1.7V240.6z"/>
			<path class="st0" d="M63.4,247.9c-0.1-0.3-0.2-0.5-0.3-0.8s-0.2-0.5-0.3-0.8H60c-0.1,0.3-0.2,0.5-0.3,0.8s-0.2,0.5-0.3,0.8h-1.7
				c0.3-0.8,0.5-1.5,0.8-2.2c0.2-0.7,0.5-1.3,0.7-1.9c0.2-0.6,0.5-1.2,0.7-1.7s0.5-1.1,0.7-1.6h1.6c0.2,0.5,0.5,1,0.7,1.6
				c0.2,0.5,0.5,1.1,0.7,1.7c0.2,0.6,0.5,1.2,0.7,1.9s0.5,1.4,0.8,2.2H63.4z M61.5,242.2c0,0.1-0.1,0.3-0.2,0.4
				c-0.1,0.2-0.2,0.4-0.2,0.6c-0.1,0.2-0.2,0.5-0.3,0.8s-0.2,0.6-0.3,0.9h2.1c-0.1-0.3-0.2-0.6-0.3-0.9c-0.1-0.3-0.2-0.6-0.3-0.8
				s-0.2-0.5-0.2-0.6S61.5,242.3,61.5,242.2z"/>
			<path class="st0" d="M71.1,246.5v1.4h-4.9v-7.3h1.7v5.9L71.1,246.5L71.1,246.5z"/>
		</g>
	</g>
	<g>
		<g>
			<path class="st0" d="M0.9,99.2h1.7v7.3H0.9V99.2z"/>
			<path class="st0" d="M9.2,105.1v1.4H4.3v-7.3H6v5.9H9.2z"/>
			<path class="st0" d="M13,106.7c-0.5,0-1-0.1-1.3-0.2c-0.4-0.1-0.7-0.3-0.9-0.6c-0.2-0.3-0.4-0.6-0.5-0.9s-0.2-0.8-0.2-1.2v-4.6
				h1.7v4.4c0,0.3,0,0.5,0.1,0.8s0.2,0.4,0.3,0.5s0.3,0.2,0.4,0.3c0.2,0.1,0.3,0.1,0.5,0.1c0.4,0,0.7-0.1,1-0.4
				c0.3-0.2,0.4-0.7,0.4-1.3v-4.4h1.7v4.6c0,0.4-0.1,0.8-0.2,1.2c-0.1,0.4-0.3,0.7-0.6,0.9c-0.2,0.3-0.6,0.5-0.9,0.6
				C14,106.6,13.5,106.7,13,106.7z"/>
			<path class="st0" d="M19.7,105.3c0.2,0,0.4,0,0.6-0.1c0.2,0,0.3-0.1,0.4-0.2s0.2-0.1,0.2-0.2s0.1-0.2,0.1-0.3
				c0-0.2-0.1-0.4-0.3-0.6c-0.2-0.2-0.6-0.3-1.2-0.5c-0.2-0.1-0.5-0.2-0.7-0.3c-0.2-0.1-0.5-0.2-0.6-0.4c-0.2-0.2-0.3-0.4-0.5-0.6
				s-0.2-0.5-0.2-0.9s0.1-0.6,0.2-0.9s0.3-0.5,0.5-0.7s0.5-0.3,0.8-0.4s0.6-0.2,1-0.2c0.5,0,0.9,0.1,1.3,0.2s0.7,0.2,0.9,0.3
				l-0.5,1.3c-0.2-0.1-0.4-0.2-0.7-0.3c-0.3-0.1-0.6-0.1-0.9-0.1c-0.4,0-0.7,0.1-0.9,0.2c-0.2,0.1-0.3,0.3-0.3,0.5
				c0,0.1,0,0.2,0.1,0.3c0.1,0.1,0.2,0.2,0.3,0.2c0.1,0.1,0.3,0.1,0.4,0.2c0.2,0.1,0.3,0.1,0.5,0.2c0.4,0.1,0.7,0.3,1,0.4
				s0.5,0.3,0.7,0.5s0.3,0.4,0.4,0.6s0.1,0.5,0.1,0.9c0,0.7-0.2,1.2-0.7,1.6s-1.2,0.6-2.2,0.6c-0.3,0-0.6,0-0.9-0.1
				c-0.3,0-0.5-0.1-0.7-0.1c-0.2-0.1-0.4-0.1-0.5-0.2s-0.3-0.1-0.4-0.2l0.5-1.3c0.2,0.1,0.5,0.2,0.8,0.3
				C18.8,105.2,19.2,105.3,19.7,105.3z"/>
			<path class="st0" d="M29.1,99.2v1.4h-2.2v5.9h-1.7v-5.9H23v-1.4H29.1z"/>
			<path class="st0" d="M32.3,99.1c1.1,0,1.9,0.2,2.5,0.6s0.9,1,0.9,1.8c0,0.5-0.1,0.9-0.4,1.3c-0.2,0.3-0.6,0.6-1,0.8
				c0.1,0.2,0.3,0.4,0.5,0.6s0.3,0.5,0.5,0.7c0.2,0.3,0.3,0.5,0.5,0.8s0.3,0.6,0.4,0.8h-1.8c-0.1-0.2-0.3-0.5-0.4-0.7
				c-0.1-0.2-0.3-0.5-0.4-0.7s-0.3-0.5-0.4-0.7c-0.1-0.2-0.3-0.4-0.4-0.6H32v2.7h-1.7v-7.2c0.4-0.1,0.7-0.1,1.1-0.1
				C31.6,99.1,32,99.1,32.3,99.1z M32.4,100.5c-0.1,0-0.2,0-0.3,0s-0.2,0-0.3,0v2h0.5c0.6,0,1.1-0.1,1.3-0.2
				c0.3-0.2,0.4-0.4,0.4-0.8s-0.1-0.6-0.4-0.8C33.3,100.6,32.9,100.5,32.4,100.5z"/>
			<path class="st0" d="M42.4,106.5c-0.1-0.3-0.2-0.5-0.3-0.8s-0.2-0.5-0.3-0.8H39c-0.1,0.3-0.2,0.5-0.3,0.8s-0.2,0.5-0.3,0.8h-1.7
				c0.3-0.8,0.5-1.5,0.8-2.2c0.2-0.7,0.5-1.3,0.7-1.9s0.5-1.2,0.7-1.7s0.5-1.1,0.7-1.6h1.6c0.2,0.5,0.5,1,0.7,1.6s0.5,1.1,0.7,1.7
				s0.5,1.2,0.7,1.9c0.2,0.7,0.5,1.4,0.8,2.2H42.4z M40.5,100.8c0,0.1-0.1,0.3-0.2,0.4c-0.1,0.2-0.2,0.4-0.2,0.6s-0.2,0.5-0.3,0.8
				s-0.2,0.6-0.3,0.9h2.1c-0.1-0.3-0.2-0.6-0.3-0.9s-0.2-0.6-0.3-0.8c-0.1-0.2-0.2-0.5-0.2-0.6S40.5,100.9,40.5,100.8z"/>
			<path class="st0" d="M48.2,106.7c-1.2,0-2.1-0.3-2.7-1c-0.6-0.7-0.9-1.6-0.9-2.8c0-0.6,0.1-1.2,0.3-1.6c0.2-0.5,0.5-0.9,0.8-1.2
				c0.3-0.3,0.7-0.6,1.2-0.7c0.5-0.2,1-0.3,1.5-0.3c0.3,0,0.6,0,0.8,0.1c0.3,0,0.5,0.1,0.7,0.2s0.4,0.1,0.5,0.2s0.2,0.1,0.3,0.1
				l-0.5,1.3c-0.2-0.1-0.5-0.2-0.8-0.3c-0.3-0.1-0.6-0.1-1-0.1c-0.3,0-0.5,0-0.7,0.1s-0.5,0.2-0.6,0.4c-0.2,0.2-0.3,0.4-0.5,0.7
				c-0.1,0.3-0.2,0.7-0.2,1.1c0,0.3,0,0.7,0.1,0.9s0.2,0.5,0.4,0.8c0.2,0.2,0.4,0.4,0.7,0.5s0.6,0.2,1,0.2c0.2,0,0.5,0,0.6,0
				c0.2,0,0.4-0.1,0.5-0.1s0.3-0.1,0.4-0.1c0.1,0,0.2-0.1,0.3-0.1l0.5,1.3c-0.2,0.1-0.6,0.3-1,0.4C49.3,106.6,48.8,106.7,48.2,106.7
				z"/>
			<path class="st0" d="M51.8,99.2h1.7v7.3h-1.7V99.2z"/>
			<path class="st0" d="M62.1,102.8c0,0.6-0.1,1.2-0.3,1.7s-0.4,0.9-0.8,1.2s-0.7,0.6-1.2,0.7c-0.4,0.2-0.9,0.2-1.4,0.2
				s-1-0.1-1.4-0.2c-0.4-0.2-0.8-0.4-1.2-0.7s-0.6-0.7-0.8-1.2s-0.3-1-0.3-1.7c0-0.6,0.1-1.2,0.3-1.7s0.5-0.9,0.8-1.2
				s0.7-0.6,1.2-0.7c0.4-0.2,0.9-0.2,1.4-0.2s1,0.1,1.4,0.2c0.4,0.2,0.8,0.4,1.2,0.7c0.3,0.3,0.6,0.7,0.8,1.2
				C62,101.7,62.1,102.2,62.1,102.8z M56.5,102.8c0,0.4,0,0.7,0.1,1s0.2,0.5,0.4,0.7s0.4,0.4,0.6,0.5c0.2,0.1,0.5,0.2,0.8,0.2
				s0.6-0.1,0.8-0.2s0.4-0.3,0.6-0.5c0.2-0.2,0.3-0.5,0.4-0.7c0.1-0.3,0.1-0.6,0.1-1s0-0.7-0.1-1s-0.2-0.5-0.4-0.8
				c-0.2-0.2-0.4-0.4-0.6-0.5c-0.2-0.1-0.5-0.2-0.8-0.2s-0.6,0.1-0.8,0.2s-0.4,0.3-0.6,0.5c-0.2,0.2-0.3,0.5-0.4,0.8
				C56.6,102.2,56.5,102.5,56.5,102.8z M59.7,97.2L58,98.7l-0.7-0.6l1.5-1.7L59.7,97.2z"/>
			<path class="st0" d="M68.4,106.5c-0.5-0.8-1-1.7-1.5-2.5c-0.6-0.8-1.1-1.6-1.8-2.3v4.8h-1.6v-7.3h1.3c0.2,0.2,0.5,0.5,0.8,0.9
				c0.3,0.3,0.6,0.7,0.9,1.1s0.6,0.8,0.9,1.2s0.6,0.8,0.8,1.2v-4.3h1.6v7.3L68.4,106.5L68.4,106.5z"/>
		</g>
	</g>
</g>
</svg>
