<?xml version="1.0" encoding="utf-8"?>
<!-- Generator: Adobe Illustrator 19.2.0, SVG Export Plug-In . SVG Version: 6.00 Build 0)  -->
<svg version="1.1" id="Layer_1" xmlns="http://www.w3.org/2000/svg" xmlns:xlink="http://www.w3.org/1999/xlink" x="0px" y="0px"
	 viewBox="0 0 200 200" style="enable-background:new 0 0 200 200;" xml:space="preserve">
<style type="text/css">
	.st0{fill:#F36F5F;}
</style>
<g>
	<path class="st0" d="M88.4,12.6L58.7,0.3L46.4,30C58.4,20.8,72.7,14.7,88.4,12.6z"/>
	<path class="st0" d="M100,44.9c-30.4,0-55.1,24.7-55.1,55.1s24.7,55.1,55.1,55.1s55.1-24.7,55.1-55.1S130.4,44.9,100,44.9z
		 M124,124H76V76h48V124z"/>
	<path class="st0" d="M153.6,30L141.3,0.3l-29.7,12.3C127.3,14.7,141.6,20.8,153.6,30z"/>
	<path class="st0" d="M170,46.4c9.2,11.9,15.3,26.3,17.4,42l12.3-29.7L170,46.4z"/>
	<path class="st0" d="M187.4,111.6c-2.1,15.7-8.2,30-17.4,42l29.7-12.3L187.4,111.6z"/>
	<path class="st0" d="M111.6,187.4l29.7,12.3l12.3-29.7C141.6,179.2,127.3,185.3,111.6,187.4z"/>
	<path class="st0" d="M46.4,170l12.3,29.7l29.7-12.3C72.7,185.3,58.4,179.2,46.4,170z"/>
	<path class="st0" d="M12.6,111.6L0.3,141.3L30,153.6C20.8,141.6,14.7,127.3,12.6,111.6z"/>
	<path class="st0" d="M30,46.4L0.3,58.7l12.3,29.7C14.7,72.7,20.8,58.4,30,46.4z"/>
</g>
</svg>
